<svg xmlns="http://www.w3.org/2000/svg" width="816" height="130" fill="none" viewBox="0 0 816 130"><g filter="url(#a)"><path fill="#222529" d="M740.908 6.5v117h11.16q22.32 0 34.38-15.3 12.06-15.48 12.06-44.64 0-26.82-13.14-41.94T749.728 6.5zm13.5 121.5h-39.42v-.36q5.76-2.34 7.92-6.84 2.34-4.68 2.34-14.94V24.14q0-10.26-2.34-14.76-2.16-4.68-7.92-7.02V2h35.64q29.88 0 47.52 16.56 17.64 16.38 17.64 45 0 29.7-17.1 47.16-16.92 17.28-44.28 17.28" style="fill:#222529;fill:color(display-p3 .1333 .1451 .1608);fill-opacity:1"/></g><g filter="url(#b)"><path fill="#222529" d="M639.231 6.5h-15.12v57.78h15.12q15.66 0 23.22-7.02 7.56-7.2 7.56-21.78 0-14.4-7.74-21.6-7.74-7.38-23.04-7.38m-41.04-4.14V2h43.74q21.78 0 33.48 8.46 11.881 8.46 11.881 24.66 0 14.4-10.981 22.86-10.8 8.46-28.8 9.18 12.42 1.08 19.98 6.84 7.74 5.76 10.62 16.38l3.96 15.12q2.7 9.54 6.66 14.22 4.14 4.68 12.96 7.92v.36h-26.46q-2.34-2.34-4.679-7.38-2.34-5.22-4.321-12.06l-4.32-16.02q-3.42-12.96-9.18-18.36t-15.48-5.4h-13.14v37.08q0 10.26 2.16 14.94 2.34 4.5 8.1 6.84v.36h-36.18v-.36q5.76-2.34 7.92-6.84 2.34-4.68 2.34-14.94V24.14q0-10.26-2.34-14.76-2.16-4.68-7.92-7.02" style="fill:#222529;fill:color(display-p3 .1333 .1451 .1608);fill-opacity:1"/></g><g filter="url(#c)"><path fill="#222529" d="m541.419 81.02-19.98-52.74-19.44 52.74zm-49.86 33.12q0 4.68 2.16 8.28 2.34 3.42 6.66 5.22v.36h-28.26v-.36q4.86-2.52 8.46-7.92 3.78-5.4 7.74-16.2L526.659.2h.54l40.86 107.64q3.96 10.44 6.48 14.04 2.52 3.42 7.2 5.76v.36h-35.64v-.36q3.96-1.62 5.94-3.96t1.98-5.58q0-1.98-.72-4.68-.54-2.7-1.8-6.12l-8.28-21.78h-42.84l-6.48 17.46q-1.08 2.88-1.8 5.76-.54 2.7-.54 5.4" style="fill:#222529;fill:color(display-p3 .1333 .1451 .1608);fill-opacity:1"/></g><g filter="url(#d)"><path fill="#222529" d="m412.716 129.8-1.8-91.44-50.04 91.44h-.9l-4.5-108c-.36-11.52-1.44-14.76-7.74-19.44V2h34.38v.36c-9.18 3.24-11.52 6.84-11.7 15.84v3.42l3.06 74.88 37.26-66.96-.18-7.74c-.18-11.34-1.62-14.76-7.74-19.44V2h33.84v.36c-9.18 3.24-11.16 6.66-11.7 15.84v3.6l1.08 76.5 42.3-72.9c3.06-5.22 5.04-10.08 5.04-14.04 0-3.78-1.8-6.84-6.12-9V2h28.62v.36c-9 4.68-13.86 9.72-20.7 21.6l-61.38 105.84z" style="fill:#222529;fill:color(display-p3 .1333 .1451 .1608);fill-opacity:1"/></g><g filter="url(#e)"><path fill="#222529" d="M269.14 6.5h-15.12v57.78h15.12q15.66 0 23.22-7.02 7.56-7.2 7.56-21.78 0-14.4-7.74-21.6-7.74-7.38-23.04-7.38M228.1 2.36V2h43.74q21.78 0 33.48 8.46 11.88 8.46 11.88 24.66 0 14.4-10.98 22.86-10.8 8.46-28.8 9.18 12.42 1.08 19.98 6.84 7.74 5.76 10.62 16.38l3.96 15.12q2.7 9.54 6.66 14.22 4.14 4.68 12.96 7.92v.36h-26.46q-2.34-2.34-4.68-7.38-2.34-5.22-4.32-12.06l-4.32-16.02q-3.42-12.96-9.18-18.36t-15.48-5.4h-13.14v37.08q0 10.26 2.16 14.94 2.34 4.5 8.1 6.84v.36H228.1v-.36q5.76-2.34 7.92-6.84 2.34-4.68 2.34-14.94V24.14q0-10.26-2.34-14.76-2.16-4.68-7.92-7.02" style="fill:#222529;fill:color(display-p3 .1333 .1451 .1608);fill-opacity:1"/></g><g filter="url(#f)"><path fill="#222529" d="M154.698.2q21.42 0 36.36 18.72 14.94 18.54 14.94 46.08t-14.94 46.26q-14.94 18.54-36.36 18.54-21.6 0-36.54-18.54-14.76-18.72-14.76-46.26t14.76-46.08Q133.098.2 154.698.2m0 125.46q15.66 0 24.3-16.2t8.64-44.46-8.64-44.46-24.3-16.2-24.3 16.2-8.64 44.46 8.64 44.46 24.3 16.2" style="fill:#222529;fill:color(display-p3 .1333 .1451 .1608);fill-opacity:1"/></g><g filter="url(#g)"><path fill="#222529" d="M40.436 67.16h-13.68v39.78q0 9.9 2.88 13.86t10.98 6.84v.36H.836v-.36q5.76-2.34 7.92-6.84 2.34-4.68 2.34-14.94V24.14q0-10.26-2.34-14.76Q6.596 4.7.836 2.36V2h68.58q3.42 0 5.4-.18 1.98-.36 3.06-1.08l5.22 32.04h-.36q-7.38-14.76-16.2-20.52-8.64-5.94-22.5-5.94h-17.28v56.7h13.68q11.16 0 15.84-3.78 4.86-3.96 9.36-16.2h.36v41.4h-.36q-2.16-5.94-4.32-9.18-1.98-3.42-4.5-5.22-2.16-1.62-5.4-2.16-3.24-.72-10.98-.72" style="fill:#222529;fill:color(display-p3 .1333 .1451 .1608);fill-opacity:1"/></g><defs><filter id="a" width="100.801" height="126" x="714.988" y="2" color-interpolation-filters="sRGB" filterUnits="userSpaceOnUse"><feFlood flood-opacity="0" result="BackgroundImageFix"/><feBlend in="SourceGraphic" in2="BackgroundImageFix" result="shape"/><feColorMatrix in="SourceAlpha" result="hardAlpha" values="0 0 0 0 0 0 0 0 0 0 0 0 0 0 0 0 0 0 127 0"/><feOffset dy="2"/><feComposite in2="hardAlpha" k2="-1" k3="1" operator="arithmetic"/><feColorMatrix values="0 0 0 0 1 0 0 0 0 1 0 0 0 0 1 0 0 0 0.55 0"/><feBlend in2="shape" result="effect1_innerShadow_2082_5"/></filter><filter id="b" width="103.5" height="126" x="598.191" y="2" color-interpolation-filters="sRGB" filterUnits="userSpaceOnUse"><feFlood flood-opacity="0" result="BackgroundImageFix"/><feBlend in="SourceGraphic" in2="BackgroundImageFix" result="shape"/><feColorMatrix in="SourceAlpha" result="hardAlpha" values="0 0 0 0 0 0 0 0 0 0 0 0 0 0 0 0 0 0 127 0"/><feOffset dy="2"/><feComposite in2="hardAlpha" k2="-1" k3="1" operator="arithmetic"/><feColorMatrix values="0 0 0 0 1 0 0 0 0 1 0 0 0 0 1 0 0 0 0.55 0"/><feBlend in2="shape" result="effect1_innerShadow_2082_5"/></filter><filter id="c" width="109.619" height="127.8" x="472.119" y=".2" color-interpolation-filters="sRGB" filterUnits="userSpaceOnUse"><feFlood flood-opacity="0" result="BackgroundImageFix"/><feBlend in="SourceGraphic" in2="BackgroundImageFix" result="shape"/><feColorMatrix in="SourceAlpha" result="hardAlpha" values="0 0 0 0 0 0 0 0 0 0 0 0 0 0 0 0 0 0 127 0"/><feOffset dy="2"/><feComposite in2="hardAlpha" k2="-1" k3="1" operator="arithmetic"/><feColorMatrix values="0 0 0 0 1 0 0 0 0 1 0 0 0 0 1 0 0 0 0.55 0"/><feBlend in2="shape" result="effect1_innerShadow_2082_5"/></filter><filter id="d" width="148.141" height="127.8" x="347.736" y="2" color-interpolation-filters="sRGB" filterUnits="userSpaceOnUse"><feFlood flood-opacity="0" result="BackgroundImageFix"/><feBlend in="SourceGraphic" in2="BackgroundImageFix" result="shape"/><feColorMatrix in="SourceAlpha" result="hardAlpha" values="0 0 0 0 0 0 0 0 0 0 0 0 0 0 0 0 0 0 127 0"/><feOffset dy="2"/><feComposite in2="hardAlpha" k2="-1" k3="1" operator="arithmetic"/><feColorMatrix values="0 0 0 0 1 0 0 0 0 1 0 0 0 0 1 0 0 0 0.55 0"/><feBlend in2="shape" result="effect1_innerShadow_2082_5"/></filter><filter id="e" width="103.5" height="126" x="228.1" y="2" color-interpolation-filters="sRGB" filterUnits="userSpaceOnUse"><feFlood flood-opacity="0" result="BackgroundImageFix"/><feBlend in="SourceGraphic" in2="BackgroundImageFix" result="shape"/><feColorMatrix in="SourceAlpha" result="hardAlpha" values="0 0 0 0 0 0 0 0 0 0 0 0 0 0 0 0 0 0 127 0"/><feOffset dy="2"/><feComposite in2="hardAlpha" k2="-1" k3="1" operator="arithmetic"/><feColorMatrix values="0 0 0 0 1 0 0 0 0 1 0 0 0 0 1 0 0 0 0.55 0"/><feBlend in2="shape" result="effect1_innerShadow_2082_5"/></filter><filter id="f" width="102.6" height="129.6" x="103.398" y=".2" color-interpolation-filters="sRGB" filterUnits="userSpaceOnUse"><feFlood flood-opacity="0" result="BackgroundImageFix"/><feBlend in="SourceGraphic" in2="BackgroundImageFix" result="shape"/><feColorMatrix in="SourceAlpha" result="hardAlpha" values="0 0 0 0 0 0 0 0 0 0 0 0 0 0 0 0 0 0 127 0"/><feOffset dy="2"/><feComposite in2="hardAlpha" k2="-1" k3="1" operator="arithmetic"/><feColorMatrix values="0 0 0 0 1 0 0 0 0 1 0 0 0 0 1 0 0 0 0.55 0"/><feBlend in2="shape" result="effect1_innerShadow_2082_5"/></filter><filter id="g" width="82.26" height="127.26" x=".836" y=".74" color-interpolation-filters="sRGB" filterUnits="userSpaceOnUse"><feFlood flood-opacity="0" result="BackgroundImageFix"/><feBlend in="SourceGraphic" in2="BackgroundImageFix" result="shape"/><feColorMatrix in="SourceAlpha" result="hardAlpha" values="0 0 0 0 0 0 0 0 0 0 0 0 0 0 0 0 0 0 127 0"/><feOffset dy="2"/><feComposite in2="hardAlpha" k2="-1" k3="1" operator="arithmetic"/><feColorMatrix values="0 0 0 0 1 0 0 0 0 1 0 0 0 0 1 0 0 0 0.55 0"/><feBlend in2="shape" result="effect1_innerShadow_2082_5"/></filter></defs></svg>