<svg xmlns="http://www.w3.org/2000/svg" width="107" height="38" fill="none" viewBox="0 0 107 38"><path fill="#fff" d="M26.225 13.27c3.127-3.145 6.227-6.256 9.318-9.376.282-.285.469-.426.838-.074 1.894 1.81 3.274 3.921 3.741 6.537.638 3.569-.171 6.775-2.538 9.546-1.503 1.759-3.38 2.921-5.602 3.528-.076.02-.143.071-.22.11.047.269.277.296.45.369q4.163 1.753 8.334 3.49c.37.153.57.309.383.771-.796 1.957-1.829 3.744-3.462 5.125-1.793 1.517-3.842 2.426-6.183 2.648-3.303.314-6.19-.681-8.643-2.887-1.982-1.78-3.149-4.036-3.544-6.687-.224-1.495-.173-2.974.22-4.439.04-.15.085-.323-.179-.544L5.292 35.309C1.912 32.613.176 28.34 1.12 24.006c.984-4.518 3.867-7.286 8.172-8.679-.069-.391-.375-.44-.623-.544C5.971 13.64 3.273 12.495.57 11.367c-.325-.136-.455-.26-.313-.631 1.065-2.782 2.711-5.078 5.378-6.507 3.169-1.698 6.436-1.906 9.756-.494C18.967 5.256 21.126 8 22.005 11.77c.38 1.634.325 3.288-.054 4.925-.055.236-.159.464-.004.863zM84.613 32l7.938-10.163-7.938-10.29h6.09l4.998 6.552 4.746-6.552h6.048l-7.896 10.29L106.495 32h-6.048l-5.082-6.552L90.703 32zM76.279 4.574h3.738V32H75.06V10.496q-1.113.504-2.184.777a8.6 8.6 0 0 1-2.142.273V6.8a11 11 0 0 0 2.772-.65q1.344-.525 2.772-1.576m-14.97 0h3.738V32H60.09V10.496q-1.113.504-2.184.777a8.6 8.6 0 0 1-2.142.273V6.8a11 11 0 0 0 2.772-.65q1.344-.525 2.772-1.576"/></svg>