<svg xmlns="http://www.w3.org/2000/svg" width="736" height="355" fill="none" viewBox="0 0 736 355"><g fill="#fff" clip-path="url(#a)"><path fill-opacity=".5" d="M735.547 256.836q0 2.54-.977 6.25-.781 3.515-4.101 6.836-3.125 3.125-9.18 5.273-6.054 2.344-16.406 2.344T688.672 275q-5.86-2.344-8.789-5.664-2.93-3.32-3.711-6.836-.586-3.516-.586-5.664V106.055q0-5.664-2.734-9.766-2.54-4.297-8.79-4.297-3.32 0-5.664 1.172t-5.078 3.32l-4.101-4.882q4.492-3.711 9.961-7.227a76.7 76.7 0 0 1 12.109-6.445q6.445-2.734 13.867-4.493 7.422-1.757 15.625-1.757 12.696 0 19.727 3.515 7.031 3.32 10.351 8.399 3.32 4.882 3.907 10.547.78 5.664.781 9.961zM669.531 27.148q0-5.468 2.344-10.351a28.1 28.1 0 0 1 6.836-8.79q4.492-3.71 10.156-5.859Q694.727 0 701.562 0q6.642 0 12.305 2.148 5.86 2.15 10.156 5.86 4.298 3.711 6.641 8.789 2.54 4.883 2.539 10.351 0 5.664-2.539 10.547-2.343 4.883-6.641 8.594-4.297 3.516-10.156 5.664-5.663 2.148-12.305 2.149-6.836 0-12.695-2.149-5.664-2.148-10.156-5.664-4.297-3.711-6.836-8.594-2.344-4.882-2.344-10.547M561.914 173.242q0-4.882-3.125-7.422-3.125-2.538-8.008-2.539-6.836 0-13.086 3.125-6.054 3.125-10.742 9.18-4.687 6.054-7.422 15.039-2.734 8.789-2.734 20.508 0 11.328 1.562 18.75 1.758 7.422 4.493 11.914 2.93 4.296 6.64 6.055a18.04 18.04 0 0 0 7.813 1.757q5.077 0 9.57-2.539a30.2 30.2 0 0 0 7.813-6.836q3.32-4.101 5.273-9.179t1.953-10.157zm-31.055-85.547q-6.64 0-12.304 1.563t-9.766 3.906-6.445 5.273Q500 101.172 500 103.712q0 2.93 2.93 4.297 3.125 1.172 6.836 2.93 3.71 1.562 6.64 4.687 3.125 2.93 3.125 9.18 0 4.101-1.758 7.617-1.562 3.32-4.492 6.055-2.734 2.538-6.64 4.101-3.711 1.368-7.813 1.367-10.938 0-17.773-7.422-6.64-7.421-6.641-19.726 0-11.914 6.25-20.313 6.25-8.593 16.211-14.062 10.156-5.469 22.852-8.008 12.695-2.734 25.39-2.734 15.234 0 29.102 3.32t24.414 10.547q10.742 7.226 16.992 18.359 6.445 11.133 6.445 26.953v110.352q0 1.758.196 3.906.195 2.149.976 3.906a7.33 7.33 0 0 0 2.344 2.93q1.563 1.172 4.492 1.172 3.516 0 6.445-2.539 3.126-2.735 5.469-5.469l4.883 4.102q-2.93 4.101-7.031 8.984-4.102 4.882-9.961 9.18-5.86 4.296-13.672 7.226t-17.773 2.93q-12.305 0-21.876-7.227-9.57-7.421-12.5-22.656-6.25 8.399-13.085 14.063-6.642 5.664-13.672 9.179-7.032 3.516-14.258 5.079a65.6 65.6 0 0 1-14.258 1.562q-9.375 0-18.164-2.93t-15.82-9.179q-6.837-6.446-11.133-16.602-4.101-10.156-4.102-24.805 0-17.773 7.032-29.101 7.03-11.328 18.359-18.945 11.523-7.813 25.977-13.282a1532 1532 0 0 0 29.882-11.523q11.328-4.493 16.407-13.281 5.273-8.985 5.273-18.36 0-14.452-8.594-23.047-8.398-8.789-23.047-8.789M359.57 244.727q0-6.837 2.539-12.891t6.836-10.547q4.493-4.492 10.547-7.031 6.055-2.735 12.891-2.735t12.89 2.735q6.056 2.539 10.547 7.031 4.493 4.492 7.032 10.547 2.733 6.054 2.734 12.891 0 7.03-2.734 13.085a33.1 33.1 0 0 1-7.032 10.352q-4.491 4.297-10.547 6.836-6.054 2.54-12.89 2.539T379.492 275q-6.054-2.539-10.547-6.836-4.296-4.492-6.836-10.352-2.538-6.054-2.539-13.085" style="fill:#fff;fill-opacity:.5"/><path d="M229.297 266.406h-92.383v-17.968l90.82-153.711a384 384 0 0 1 5.078-7.813q2.735-4.101 6.641-7.422t9.375-5.469q5.469-2.343 13.281-2.343 8.399 0 14.258 1.953 5.859 1.757 9.375 5.078 3.711 3.32 5.274 8.008 1.562 4.687 1.562 10.156v151.563h38.867v17.968h-38.867v59.571q0 15.234-7.617 22.07t-24.023 6.836-24.024-6.836-7.617-22.07zm0-17.968V132.812L162.5 248.438zm-125.781.39q0 15.04-7.618 21.875-7.617 6.836-23.828 6.836-16.406 0-24.023-6.836t-7.617-21.875V118.359q0-2.538-.586-5.078-.585-2.734-2.149-4.687-1.562-2.149-4.297-3.516t-7.03-1.367q-3.907 0-7.618 1.562t-6.836 3.516a76 76 0 0 0-7.031 4.883L0 107.227q24.024-18.945 43.555-27.149Q63.28 71.68 80.469 71.68q10.155 0 16.601 6.054 6.446 5.86 6.446 18.75z" style="fill:#fff;fill-opacity:1"/></g><defs><clipPath id="a"><path fill="#fff" d="M0 0h735.547v354.883H0z" style="fill:#fff;fill-opacity:1"/></clipPath></defs></svg>