<svg xmlns="http://www.w3.org/2000/svg" width="146" height="60" fill="none" viewBox="0 0 146 60"><g clip-path="url(#a)"><path fill="#fff" d="M145.942 43.022h-.038v-.015h-4.188V.077l-40.688 45.23H69.792c-1.345 0-2.42-.492-2.42-1.839 0-.923.499-1.692 1.229-2.115.038-.02.038-.027.077-.038 3.15-1.616 6.185-2.462 7.914-2.962l.538-.154c1.038-.307 2.344-.577 3.689-.884.46-.116.96-.231 1.46-.308 8.26-1.885 19.441-5.7 19.441-18.892 0-2.923-.73-5.885-2.42-8.539-2.69-4.23-7.762-7.654-16.06-8.654a45 45 0 0 0-5.264-.307c-12.871 0-21.555 6.769-21.862 16.923v.538c0 5.616 4.534 10.154 10.143 10.154S76.4 23.653 76.4 18.076 71.867 7.922 66.257 7.922c-.307 0-.615 0-.922.039h-.038c-2.075.192-2.367.311-3.889.907 1.072-1.407 1.341-1.588 3.159-2.911.038 0 .038-.039.076-.039 3.458-2.23 8.069-3.461 13.486-3.461.576 0 1.153 0 1.69.038h.346c1.192.154 1.998.904 1.998 2.135v28.058a2.85 2.85 0 0 1-2.113 2.73c-.077 0-.115.039-.192.039-1.153.23-2.19.5-3.112.77l-.5.153c-2.497.692-7.684 2.154-12.256 5.654a23.4 23.4 0 0 0-4.188 4.077c-2.996 3.808-4.495 8.461-4.495 13.884h32.62l13.178-14.653h23.936v14.653h16.713V45.353h4.15v-.011h.038v-2.323zM125.003 43l-18.515-.023 18.515-21.007zM22.227 12.461c-2.075 4.346-6.378 4.807-6.378 4.807l2.074 4.424v.038L.058 59.96h2.528l6.001-12.807h21.22l5.955 12.808H54.19L27.183 1.884zM9.709 44.807l9.51-20.33 9.485 20.33z"/></g><defs><clipPath id="a"><path fill="#fff" d="M0 0h146v60H0z"/></clipPath></defs></svg>