<svg xmlns="http://www.w3.org/2000/svg" width="62" height="40" fill="none" viewBox="0 0 62 40"><mask id="a" width="44" height="40" x="0" y="0" maskUnits="userSpaceOnUse" style="mask-type:luminance"><path fill="#fff" d="M.018 0h43.43v39.976H.018z"/></mask><g mask="url(#a)"><path fill="#fff" d="M42.695 21.944c-.088-.654-.829-1.264-1.395-1.438-1.874-.567-3.792-.828-5.71-.915.35-.828.741-1.656 1.09-2.44 1.264-2.703 2.571-5.318 3.792-7.977 1.09-2.353 2.963-5.186 1.874-7.801C42.128.85 41.213-.022 40.516.24c-3.967 1.612-7.41 4.532-10.635 7.365-3.094 2.746-6.058 5.71-8.76 8.848a74 74 0 0 0-3.705 4.576A83 83 0 0 0 .724 26.085c-1.134.48.697 2.658 1.656 2.266 4.14-1.743 8.411-3.181 12.77-4.227a90.6 90.6 0 0 0-7.671 13.423c-.436.916 1.7 2.746 2.223 1.613 2.658-5.622 5.84-10.94 9.588-15.908.785-.174 1.57-.305 2.397-.436a76 76 0 0 1 9.937-.915c-.871 2.266-1.7 4.576-2.266 6.93-.567 2.31-.654 4.794 2.005 5.753.61.217.871-.306.784-.829-.087-.479-.48-.871-.871-1.133 0-.087-.044-.13-.044-.218.087-.218.044-.566.087-.784.131-.697.349-1.351.523-2.005a59 59 0 0 1 1.308-4.184 63 63 0 0 1 1.438-3.617c2.484 0 4.968.174 7.322.915.61.218.915-.262.785-.785m-10.068-2.44c-.48.043-.96.043-1.395.043q-4.838.13-9.675.785c.523-.61 1.046-1.264 1.569-1.874 2.615-3.051 5.447-5.884 8.455-8.543 2.615-2.31 5.317-4.663 8.368-6.363-.087.218-.175.392-.218.567-.349.784-.698 1.569-1.046 2.31-.61 1.438-1.264 2.833-1.918 4.227-1.438 2.964-2.876 5.884-4.14 8.848"/></g><path fill="#fff" d="M52.237 21.552c-2.049 1.7-6.233 3.966-7.976 4.271.043-.174.13-.392.218-.566a21.8 21.8 0 0 1 1.918-3.923c.479-.872-1.657-2.745-2.267-1.656-.959 1.613-2.397 3.835-2.353 5.753.043 1.7 1.656 3.269 3.355 2.92 1.482-.305 2.92-1.307 4.141-2.135a55 55 0 0 0 4.445-3.4c.785-.654-.61-2.005-1.481-1.264m-3.923-4.576c.654-1.264.741-1.525.741-1.525.523-.872-1.612-2.703-2.223-1.613 0 0-.261.436-.74 1.482-.436.959 1.7 2.702 2.222 1.656"/><path fill="#fff" d="M60.648 21.204c-1.526-2.528-3.618-2.092-5.622-.567-.306-.959-1.875-2.005-2.223-1.09-.959 2.572-2.005 5.1-2.964 7.671-.349.96 1.743 2.79 2.267 1.657a15.7 15.7 0 0 1 2.963-4.359 10.8 10.8 0 0 1 1.787-1.656c.305-.218 1.569-1.177 2.136-1.177.348.349.784.698 1.22.654.654-.044.74-.654.436-1.133"/></svg>