<svg xmlns="http://www.w3.org/2000/svg" width="40" height="40" fill="none" viewBox="0 0 40 40"><path fill="#fff" d="M32.018 4.023c4.427 3.483 7.2 8.262 7.884 13.886.08.84.077 1.678.073 2.522v.585q0 .95-.004 1.897v1.323l-.006 3.468-.005 3.544q-.004 3.473-.01 6.944l-2.473-.45a3221 3221 0 0 0-.065-6.847q-.017-1.59-.03-3.181a957 957 0 0 0-.03-3.078q-.007-.583-.01-1.166c-.043-6.04-.967-11.258-5.26-15.85-3.539-3.404-8.189-4.861-13.018-4.78-4.058.155-7.823 1.83-10.81 4.556l-.414.352c-3.066 2.78-4.817 7.18-5.053 11.236-.176 4.989 1.487 9.388 4.891 13.054l.576.534.374.362c3.152 2.931 7.28 4.311 11.54 4.359 1.358-.064 2.752-.206 4.06-.583 1.707-.358 3.719.16 5.381.583-1.615 1.871-5.174 2.469-7.542 2.668-5.612.296-10.905-1.083-15.246-4.818-2.63-2.443-4.584-5.234-5.76-8.64l-.268-.771c-1.49-4.997-.798-10.3 1.392-14.964C4.573 6.364 8.32 3.033 13.003 1.242l.422-.162c6.189-2.224 13.365-.9 18.593 2.943"/><path fill="#fff" d="M29.776 6.785c.832.67 1.573 1.407 2.306 2.185l.51.539c2.779 3.198 3.807 7.346 3.786 11.498v.546l-.003 1.762-.001 1.231q-.002 1.612-.006 3.223l-.004 3.296q-.004 3.226-.011 6.453l-2.698-.45-.002-.712q-.012-3.344-.039-6.686-.014-1.718-.02-3.437a504 504 0 0 0-.021-3.323q-.005-.63-.006-1.26c-.004-4.486-.893-8.132-4.083-11.5-2.81-2.59-6.441-3.784-10.205-3.723-3.681.215-6.637 1.76-9.226 4.341l-.385.369c-2.251 2.358-3.205 5.756-3.31 8.932.09 3.655 1.466 7.078 4 9.727 3.344 2.974 6.927 3.839 11.297 3.711.89-.059 1.7-.268 2.538-.562.47-.148.47-.148 1.37-.148v2.698c-4.346 1.25-8.402 1.223-12.588-.674l-.638-.287c-4.029-1.997-6.647-5.74-8.168-9.87-1.186-4.306-.496-9.015 1.59-12.91 2.393-3.853 6.027-6.612 10.462-7.7 4.654-.98 9.689-.112 13.555 2.73"/><path fill="#fff" d="M28.176 10.121c2.788 2.278 4.15 5.459 4.58 8.963.078 1.374.053 2.752.044 4.127l-.002 1.183a966 966 0 0 1-.01 3.092q-.007 1.582-.01 3.165-.007 3.096-.022 6.192l-2.697-.45-.001-.68a1179 1179 0 0 0-.029-6.378 527 527 0 0 1-.014-3.279 368 368 0 0 0-.018-3.17q-.005-.6-.003-1.203c.008-3.632-.616-6.352-3.229-9.052-2.08-1.933-4.668-2.668-7.457-2.607-2.566.249-5.072 1.366-6.853 3.258-1.868 2.405-2.65 5.048-2.402 8.05.52 2.853 1.802 5.178 4.156 6.938.551.346 1.104.646 1.688.93l.45.23c2.067.877 4.963.78 7.038.009l.546-.245c.508-.219.508-.219 1.632-.444v2.698c-3.168 1.584-6.62 1.75-9.975.646-1.897-.748-3.493-1.828-4.861-3.344-.183-.18-.183-.18-.369-.366-2.4-2.5-3.087-5.57-3.07-8.91.032-1.415.214-2.665.741-3.986l.259-.654c1.338-2.999 3.68-5.301 6.701-6.6 4.608-1.743 9.206-.942 13.187 1.887"/><path fill="#fff" d="M25.296 12.523c2.09 1.495 3.283 3.559 3.77 6.067.2 1.533.148 3.084.137 4.627l-.001 1.124q-.004 1.469-.012 2.938-.006 1.503-.008 3.006-.008 2.941-.022 5.883l-2.698-.45-.002-.633q-.013-2.966-.04-5.932a585 585 0 0 1-.019-3.05 397 397 0 0 0-.022-2.947q-.005-.56-.005-1.12c-.002-2.438-.055-4.618-1.766-6.52-1.504-1.371-3.167-1.916-5.177-1.889a6.75 6.75 0 0 0-4.433 2.31c-1.232 1.841-1.609 3.487-1.269 5.688.458 1.729 1.657 3.134 3.147 4.095 1.71.79 3.616.917 5.395.293 1.247-.588 1.994-1.119 2.842-2.208h.45V27.4c-2.84 1.52-5.095 2.207-8.293 1.412-2.448-.793-4.29-2.353-5.468-4.641-1.047-2.28-1.3-4.927-.485-7.336 1.054-2.455 2.985-4.455 5.47-5.464 2.925-.99 5.929-.447 8.51 1.151"/></svg>