<svg xmlns="http://www.w3.org/2000/svg" width="40" height="40" fill="none" viewBox="0 0 40 40"><g clip-path="url(#a)"><path fill="#000" d="M86.863 30.387a3.31 3.31 0 0 0 3.3-3.316 7.869 7.869 0 1 1 4.514-7.119v7.13a7.853 7.853 0 0 1-7.826 7.863zM83.56 19.94a3.3 3.3 0 1 0 3.304-3.32 3.315 3.315 0 0 0-3.304 3.32m27.541 0a7.83 7.83 0 0 1 2.292-5.534 7.8 7.8 0 0 1 5.533-2.292 7.824 7.824 0 0 1 7.826 7.826v7.702h-4.51v-7.69a3.3 3.3 0 1 0-3.304 3.316 3.25 3.25 0 0 0 1.998-.687v4.97a7.6 7.6 0 0 1-1.998.263 7.853 7.853 0 0 1-7.821-7.862zm-64.209 0a7.826 7.826 0 1 1 15.652 0v7.702H58.02v-7.69a3.3 3.3 0 1 0-3.3 3.316 3.26 3.26 0 0 0 1.997-.687v4.97a7.7 7.7 0 0 1-1.997.263 7.86 7.86 0 0 1-7.826-7.862zm99.203 7.71v-8.9a2.11 2.11 0 1 0-4.218 0v8.912h-4.523V18.75a2.11 2.11 0 1 0-4.218 0v8.912h-4.522V18.75a6.66 6.66 0 0 1 6.635-6.663 6.58 6.58 0 0 1 4.371 1.657 6.62 6.62 0 0 1 7.108-1.043 6.62 6.62 0 0 1 3.877 6.049v8.912zm-41.071 0v-8.9a2.11 2.11 0 1 0-4.218 0v8.912h-4.53V7.788h4.526v4.646a6.6 6.6 0 0 1 2.109-.348 6.657 6.657 0 0 1 6.632 6.664v8.912zm-31.902 0v-8.9a2.11 2.11 0 0 0-2.936-2.032 2.11 2.11 0 0 0-1.279 2.032v8.912h-4.518V18.75a6.636 6.636 0 1 1 13.267 0v8.912zm79.277 0V12.837h4.526v14.825zm-.459-18.66a2.73 2.73 0 0 1 2.724-2.736 2.738 2.738 0 0 1 2.697 3.263 2.736 2.736 0 0 1-5.421-.527M0 20a20 20 0 0 1 40 0v18.192l-2.397-.443V20A17.6 17.6 0 1 0 25.42 36.778l4.186.8A20.01 20.01 0 0 1 0 20m33.956 17.07V20a13.982 13.982 0 1 0-8.537 12.875v2.553A16.354 16.354 0 1 1 36.353 20v17.513zm-3.596-.691V20a10.314 10.314 0 1 0-4.901 8.789v2.704A12.724 12.724 0 1 1 32.725 20v16.838zm-3.639-.675V20a6.691 6.691 0 1 0-1.262 3.915v3.36A9.085 9.085 0 1 1 29.082 20v16.159z"/></g><defs><clipPath id="a"><path fill="#fff" d="M0 0h40v40H0z"/></clipPath></defs></svg>