<svg xmlns="http://www.w3.org/2000/svg" width="159" height="40" fill="none" viewBox="0 0 159 40"><path fill="#fff" d="M43.204 30.575q-2.98 0-4.873-1.732t-1.893-4.47q0-3.02 2.256-4.671 2.295-1.65 6.483-1.651h4.148v-1.047q0-2.256-1.208-3.423-1.168-1.209-3.423-1.208-1.812 0-3.342.765a6.6 6.6 0 0 0-2.497 2.134l-1.732-2.094a8.8 8.8 0 0 1 3.343-2.618q1.972-.926 4.39-.926 3.785 0 5.838 1.852t2.054 5.316v9.464q0 1.571.484 3.907h-2.98q-.362-.927-.524-2.82h-.08a7.7 7.7 0 0 1-2.78 2.417q-1.65.805-3.664.805m.524-2.698q1.53 0 2.819-.564 1.289-.605 2.013-1.61.765-1.008.765-2.215v-2.98h-4.268q-2.538 0-3.907 1.006t-1.369 2.86q0 1.61 1.047 2.577 1.087.926 2.9.926M58.05 15.111a79 79 0 0 0-.161-5.074h3.141q.12 1.49.12 3.181h.081q.846-1.611 2.618-2.577a7.6 7.6 0 0 1 3.826-1.007q3.906 0 6.121 2.779t2.215 7.692q0 3.18-1.047 5.557-1.047 2.335-2.98 3.625-1.893 1.288-4.43 1.288-2.094 0-3.665-.805-1.57-.806-2.295-2.255h-.12v12.403H58.05zm8.98 12.846q2.578.001 4.068-2.134 1.49-2.174 1.49-5.84 0-3.664-1.45-5.637-1.45-1.974-4.067-1.973-2.457 0-4.027 1.61t-1.57 4.108v3.665q0 2.779 1.53 4.51 1.53 1.692 4.027 1.692M80.158 14.95q0-3.423-.12-4.913h3.18q.162 1.61.162 3.544v.402h.12q.766-2.094 2.457-3.221 1.692-1.128 3.987-1.128.645 0 1.168.12v2.82q-.525-.12-1.41-.121-1.691 0-3.1 1.047-1.41 1.007-2.216 2.779-.805 1.772-.805 3.866v10.028h-3.423zM96.45 6.533q-1.127 0-1.772-.604t-.644-1.651.644-1.651q.644-.645 1.772-.645t1.772.645q.685.604.685 1.65 0 1.049-.685 1.652-.644.604-1.772.604m-1.691 3.504h3.423v20.136H94.76zm17.845 20.538q-2.98 0-5.195-1.248-2.175-1.289-3.383-3.665-1.168-2.376-1.168-5.557t1.168-5.558q1.208-2.376 3.383-3.624 2.214-1.29 5.195-1.289 4.51 0 7.128 2.819 2.658 2.82 2.658 7.652t-2.658 7.651q-2.618 2.82-7.128 2.82m0-2.617q2.98 0 4.671-2.095 1.692-2.094 1.692-5.758t-1.692-5.76q-1.69-2.093-4.671-2.093-2.94 0-4.631 2.094t-1.692 5.759q0 3.664 1.692 5.758 1.69 2.095 4.631 2.095m13.919-13.008q0-3.423-.121-4.913h3.182q.16 1.61.161 3.544v.402h.121q.765-2.094 2.456-3.221 1.692-1.128 3.987-1.128.645 0 1.168.12v2.82q-.524-.12-1.409-.121-1.692 0-3.101 1.047-1.41 1.007-2.215 2.779-.806 1.772-.806 3.866v10.028h-3.423zm19.758 15.625q-2.98 0-4.873-1.732t-1.893-4.47q0-3.02 2.255-4.671 2.296-1.65 6.484-1.651h4.148v-1.047q0-2.256-1.208-3.423-1.168-1.209-3.423-1.208-1.812 0-3.343.765a6.6 6.6 0 0 0-2.496 2.134l-1.732-2.094a8.8 8.8 0 0 1 3.342-2.618q1.974-.926 4.39-.926 3.786 0 5.839 1.852t2.054 5.316v9.464q0 1.571.484 3.907h-2.981q-.362-.927-.523-2.82h-.081a7.7 7.7 0 0 1-2.778 2.417q-1.652.805-3.665.805m.523-2.698q1.531 0 2.819-.564 1.289-.605 2.014-1.61.765-1.008.765-2.215v-2.98h-4.269q-2.536 0-3.906 1.006t-1.369 2.86q0 1.61 1.047 2.577 1.087.926 2.899.926M10.14 30.821q-2.86-.03-5.02-1.55-2.16-1.518-3.367-4.2Q.546 22.39.546 18.904q0-3.456 1.267-6.093 1.265-2.652 3.47-4.141 2.22-1.505 5.05-1.505 2.011 0 3.531.76a7.5 7.5 0 0 1 2.592 2.085q1.087 1.341 1.788 3.114h1.549l.879 5.72 2.92 11.5h-3.814l-2.74-11.5a22 22 0 0 0-.671-2.458 13.2 13.2 0 0 0-1.177-2.592 6.6 6.6 0 0 0-1.847-2.04q-1.102-.805-2.667-.805-1.713 0-3.01 1.028-1.294 1.013-2.01 2.815t-.715 4.141q0 2.295.685 4.127.7 1.833 1.937 2.89 1.236 1.043 2.89 1.043 1.505 0 2.636-.82a7.3 7.3 0 0 0 1.922-2.085q.79-1.266 1.281-2.637.507-1.386.745-2.488l2.458-11.5h3.799l-2.622 11.5-.88 5.795h-1.414a12.1 12.1 0 0 1-1.847 3.158 7.9 7.9 0 0 1-2.712 2.145q-1.578.775-3.68.76"/></svg>