<svg xmlns="http://www.w3.org/2000/svg" width="214" height="40" fill="none" viewBox="0 0 214 40"><path fill="#fff" d="M77.86 8.38q.91 0 1.494.583.585.585.585 1.536v18.773a2.04 2.04 0 0 1-.585 1.471q-.585.605-1.494.605t-1.472-.583q-.562-.585-.562-1.493v-1.124Q74.7 29.662 72.75 30.72a8.66 8.66 0 0 1-4.2 1.06q-2.944 0-5.346-1.514-2.404-1.515-3.767-4.217-1.364-2.704-1.364-6.078t1.364-6.078q1.363-2.703 3.745-4.217 2.381-1.514 5.239-1.514 2.295 0 4.264.952 1.97.951 3.14 2.422v-1.038q0-.909.563-1.514.562-.606 1.471-.606m-8.832 19.594q2.035 0 3.615-1.037 1.581-1.04 2.468-2.856.888-1.815.888-4.109 0-2.25-.888-4.066-.887-1.817-2.468-2.876-1.58-1.06-3.615-1.06t-3.615 1.038q-1.581 1.038-2.468 2.855-.888 1.816-.888 4.11 0 2.292.888 4.108.887 1.817 2.468 2.856 1.58 1.037 3.615 1.037m28.316-19.81q1.125 0 1.949.583.822.584.822 1.45 0 1.037-.541 1.578-.542.54-1.32.54-.39 0-1.17-.259-.909-.302-1.428-.303-1.342 0-2.62.93t-2.078 2.552q-.801 1.623-.801 3.613V29.27a2.04 2.04 0 0 1-.585 1.471q-.585.605-1.493.605-.91 0-1.472-.583-.564-.585-.563-1.493V10.76q0-.865.584-1.471.585-.606 1.45-.605.91 0 1.494.605.585.606.585 1.471v2.206a8.2 8.2 0 0 1 2.858-3.44q1.905-1.318 4.33-1.362m24.896.215q.909 0 1.494.584.585.585.584 1.536v19.033q0 3.505-1.494 5.86a8.97 8.97 0 0 1-4.048 3.483Q116.222 40 113.018 40q-1.732 0-4.049-.606-2.316-.606-2.965-1.254-1.342-.692-1.342-1.73 0-.26.173-.693.475-1.08 1.602-1.081.562 0 1.212.26 3.464 1.34 5.412 1.34 3.463 0 5.304-1.665 1.84-1.665 1.84-4.563v-2.336q-.909 1.687-3.052 2.898-2.144 1.21-4.525 1.211-2.988 0-5.455-1.514-2.47-1.515-3.875-4.217-1.407-2.704-1.407-6.078t1.407-6.078q1.406-2.703 3.853-4.217t5.391-1.514q2.381 0 4.438 1.082 2.057 1.08 3.225 2.638V10.5q0-.909.563-1.514.563-.606 1.472-.606m-9.136 19.596q2.122 0 3.767-1.017t2.576-2.855.931-4.13q0-2.295-.931-4.11-.93-1.817-2.576-2.855t-3.767-1.038q-2.078 0-3.723 1.038-1.645 1.037-2.577 2.876-.93 1.84-.93 4.088 0 2.25.93 4.088.931 1.838 2.577 2.877 1.645 1.037 3.723 1.037m37.929-7.96q0 3.375-1.516 6.056-1.515 2.682-4.135 4.196-2.62 1.515-5.78 1.515t-5.78-1.515q-2.619-1.515-4.135-4.196t-1.515-6.056q0-3.373 1.515-6.099 1.516-2.726 4.135-4.239 2.62-1.514 5.78-1.514t5.78 1.514 4.135 4.24 1.516 6.098m-4.113 0q0-2.335-.975-4.174-.974-1.838-2.641-2.855-1.666-1.016-3.702-1.016t-3.702 1.016-2.641 2.855q-.974 1.839-.974 4.174 0 2.293.974 4.11.975 1.816 2.641 2.833 1.667 1.017 3.702 1.017t3.702-1.017 2.641-2.833q.975-1.817.975-4.11m7.576 7.787q-.389-.607-.389-1.168 0-.866.909-1.47.433-.304.996-.304.779 0 1.429.65 1.3 1.47 2.792 2.205 1.494.735 3.572.735 1.645-.042 2.901-.757 1.256-.714 1.256-2.314 0-1.47-1.278-2.249-1.277-.78-3.745-1.428-2.424-.648-4.026-1.362a7.2 7.2 0 0 1-2.706-2.076q-1.104-1.363-1.105-3.57 0-1.945 1.105-3.417 1.104-1.47 2.944-2.292t4.005-.822q2.078 0 4.135.779 2.056.778 3.355 2.379.52.606.52 1.254 0 .693-.693 1.341-.433.39-1.082.39-.78 0-1.256-.52a6.1 6.1 0 0 0-2.23-1.6q-1.32-.562-2.923-.562-1.644 0-2.792.67t-1.148 2.271q.044 1.515 1.321 2.25 1.278.734 3.919 1.427 2.294.605 3.81 1.298a6.65 6.65 0 0 1 2.554 2.054q1.04 1.363 1.039 3.57 0 2.032-1.169 3.524-1.168 1.493-3.052 2.293a10.1 10.1 0 0 1-4.005.8q-2.728 0-5.044-.951-2.316-.952-3.919-3.028m39.59 4c-6.04 0-9.158-4.217-9.158-9.765V17.95c0-5.548 3.118-9.765 9.158-9.765 5.13 0 8.378 3.503 8.767 7.689h-1.526c-.455-3.44-2.89-6.36-7.274-6.36-5.001 0-7.533 3.57-7.533 8.403v4.153c0 4.834 2.532 8.403 7.533 8.403 4.384 0 6.819-2.92 7.274-6.359h1.526c-.389 4.185-3.637 7.689-8.767 7.689m14.352.035V8.185h1.592v23.652z"/><path fill="#fff" fill-rule="evenodd" d="M0 19.958Q10.635 5.714 22.93 5.714q12.298 0 22.827 14.244-10.53 14.327-22.826 14.327T0 19.958" clip-rule="evenodd"/><path fill="#000" fill-rule="evenodd" d="M23.043 31.89c6.618 0 11.984-5.343 11.984-11.933S29.66 8.023 23.042 8.023s-11.984 5.343-11.984 11.934c0 1.845-.38 10.09.62 7.933s1.134-2.708 1.766-1.953c2.198 2.626 5.896 5.953 9.598 5.953" clip-rule="evenodd"/><path fill="#fff" d="M23.05 28.127c4.528 0 8.199-3.658 8.199-8.17 0-4.511-3.67-8.169-8.198-8.169s-8.199 3.658-8.199 8.17c0 4.511 3.67 8.169 8.199 8.169"/><path fill="#1b357a" fill-rule="evenodd" d="M26.155 27.529c4.204-1.692 6.235-6.459 4.536-10.646 0 8.488-9.227 10.226-12.398 7.064-3.172-3.16-2.687-9.769 1.712-11.584-4.205 1.692-6.236 6.46-4.537 10.647s6.483 6.211 10.687 4.519" clip-rule="evenodd"/><path fill="#fff" fill-rule="evenodd" d="M26.12 26.542c3.504-1.369 6.032-5.998 4.333-10.185 0 8.488-6.993 9.331-10.164 6.17-3.172-3.161-1.7-8.53.695-10.075-4.204 1.692-6.238 5.888-4.54 10.075 1.699 4.188 6.174 5.384 9.677 4.015" clip-rule="evenodd"/></svg>