<svg xmlns="http://www.w3.org/2000/svg" width="120" height="24" fill="none" viewBox="0 0 120 24"><g fill="#fff" clip-path="url(#a)"><path d="m38.448 7.008-6.187 16.057h2.405l1.679-4.244h6.693l1.681 4.244h2.474l-6.18-16.057zm3.866 9.702h-5.249l2.614-6.921zm7.885-3.992-.209-1.444h-1.928v11.79h2.2v-6.012c0-1.362.38-3.65 2.925-3.65h1.1V11.27h-.69c-1.92.005-2.842.715-3.398 1.447m9.231 7.171v-6.48h2.995v-2.133H59.43v-3.21h-2.202v3.21h-2.086v2.133h2.086v6.502c0 2.214.954 3.156 3.188 3.156h2.196v-2.03h-2.01c-.899 0-1.172-.263-1.172-1.149m10.222-8.747a4.87 4.87 0 0 0-3.8 1.657v-5.79h-2.201v16.058h1.929l.211-1.48c.841 1.045 2.196 1.615 3.861 1.615 3.375 0 5.73-2.48 5.73-6.03 0-3.662-2.25-6.03-5.73-6.03m3.483 6.03c0 2.425-1.472 4.053-3.665 4.053s-3.641-1.648-3.641-4.097c0-2.36 1.496-4.008 3.641-4.008 2.193-.002 3.665 1.628 3.665 4.053m9.202-6.031c-3.481 0-5.911 2.479-5.911 6.03s2.43 6.03 5.911 6.03 5.91-2.48 5.91-6.03c0-3.548-2.43-6.03-5.91-6.03m0 10.083c-2.158 0-3.665-1.665-3.665-4.052s1.507-4.055 3.665-4.055 3.665 1.668 3.665 4.055-1.507 4.052-3.665 4.052m17.301-.775V15.44c0-2.732-1.757-4.3-4.822-4.3-2.893 0-4.788 1.389-5.071 3.719l-.022.189h2.194l.024-.138c.225-1.114 1.283-1.795 2.784-1.795 1.725 0 2.713.806 2.713 2.213v.617h-3.236c-3.109 0-4.821 1.336-4.821 3.739 0 2.135 1.741 3.515 4.436 3.515 1.576 0 2.84-.547 3.749-1.63.171 1.018.887 1.495 2.22 1.495h1.191v-2.03h-.761c-.434 0-.578-.077-.578-.587m-5.624-2.616h3.415v.394c0 1.89-1.337 3.064-3.483 3.064-1.429 0-2.349-.668-2.349-1.717.009-1.171.799-1.741 2.425-1.741zm14.045-6.556h-.692c-1.908 0-2.833.71-3.389 1.442l-.209-1.442h-1.928v11.79h2.2v-6.012c0-1.363.38-3.65 2.925-3.65h1.102zm9.504-4.267v5.672c-.846-.998-2.176-1.54-3.801-1.54-3.374 0-5.73 2.479-5.73 6.03 0 3.663 2.25 6.03 5.73 6.03a4.9 4.9 0 0 0 3.857-1.725l.225 1.59h1.914V7.008zm.022 10.207c0 2.36-1.496 4.008-3.64 4.008-2.193 0-3.665-1.628-3.665-4.052 0-2.425 1.472-4.055 3.665-4.055s3.64 1.648 3.64 4.099m-107.67 5.85V6.979l8.127 16.086h8.122L14.914.798H6.792l3.123 6.18H7.994a8.17 8.17 0 0 0-5.661 2.404A8 8 0 0 0 0 15.022a8 8 0 0 0 2.333 5.642 8.17 8.17 0 0 0 5.661 2.403z"/></g><defs><clipPath id="a"><path fill="#fff" d="M0 0h120v24H0z"/></clipPath></defs></svg>