<svg xmlns="http://www.w3.org/2000/svg" width="266" height="40" fill="none" viewBox="0 0 266 40"><g clip-path="url(#a)"><mask id="b" width="266" height="40" x="0" y="0" maskUnits="userSpaceOnUse" style="mask-type:luminance"><path fill="#fff" d="M265.235 0H0v40h265.235z"/></mask><g fill="#fff" mask="url(#b)"><path d="M76.723 19.799q4.916 2.832 4.916 8.549 0 4.755-3.366 7.8t-8.282 3.046H54.12V1.792h14.75q4.809 0 8.068 2.993 3.313 2.939 3.313 7.533 0 4.65-3.527 7.48M68.87 8.685h-7.374v8.228h7.374q1.71 0 2.832-1.175 1.175-1.175 1.175-2.939 0-1.763-1.122-2.938T68.87 8.685m1.122 23.617q1.87 0 3.099-1.23 1.23-1.281 1.229-3.205 0-1.87-1.23-3.1-1.227-1.281-3.098-1.282h-8.496v8.817zm36.883-19.823h6.892v26.716h-6.892v-3.153q-3.1 3.9-8.71 3.9-5.343 0-9.19-4.06-3.794-4.115-3.794-10.045 0-5.931 3.794-9.992 3.847-4.114 9.19-4.114 5.61 0 8.71 3.9zM94.157 31.287q2.083 2.083 5.29 2.083t5.289-2.083q2.138-2.138 2.138-5.45t-2.138-5.397q-2.083-2.137-5.29-2.137t-5.289 2.137q-2.084 2.084-2.084 5.397 0 3.312 2.084 5.45m32.009-11.221q0 1.068 1.389 1.763 1.443.642 3.473 1.176 2.031.48 4.061 1.282 2.031.748 3.42 2.565 1.442 1.816 1.442 4.541 0 4.115-3.099 6.359-3.045 2.19-7.64 2.19-8.229 0-11.221-6.358l5.985-3.366q1.175 3.473 5.236 3.473 3.686 0 3.686-2.298 0-1.068-1.442-1.71-1.389-.694-3.42-1.228a36 36 0 0 1-4.06-1.336 8.6 8.6 0 0 1-3.473-2.511q-1.39-1.763-1.39-4.382 0-3.954 2.885-6.198 2.94-2.298 7.267-2.297 3.26 0 5.931 1.496 2.671 1.441 4.221 4.168L133.54 20.6q-1.282-2.724-4.275-2.725-1.335 0-2.244.588-.855.588-.855 1.603m23.677 8.603q1.39 5.022 7.534 5.022 3.953 0 5.984-2.672l5.557 3.206q-3.954 5.718-11.648 5.717-6.625 0-10.633-4.007-4.007-4.008-4.007-10.098 0-6.039 3.954-10.045 3.954-4.062 10.152-4.061 5.877 0 9.671 4.06 3.847 4.062 3.847 10.046 0 1.335-.267 2.832zm-.107-5.344h13.625q-.588-2.724-2.458-4.06-1.817-1.335-4.167-1.336-2.779 0-4.595 1.442-1.817 1.39-2.405 3.954m54.368-10.846h7.32l-8.495 26.716h-6.573l-4.915-16.19-4.916 16.19h-6.572l-8.496-26.716h7.32l4.542 16.403 4.862-16.403h6.519l4.862 16.457zm15.816 16.19q1.389 5.022 7.534 5.022 3.953 0 5.984-2.672l5.557 3.206q-3.954 5.718-11.648 5.717-6.626 0-10.633-4.007-4.007-4.008-4.007-10.098 0-6.039 3.953-10.045 3.954-4.062 10.152-4.061 5.878 0 9.671 4.06 3.847 4.062 3.847 10.046 0 1.335-.267 2.832zm-.107-5.344h13.625q-.588-2.724-2.458-4.06-1.816-1.335-4.168-1.336-2.778 0-4.595 1.442-1.816 1.39-2.404 3.954m25.329 15.87V.188h6.893v39.006zm13.202 0V.188h6.892v39.006z"/><path fill-rule="evenodd" d="M22.136 2.147c-5.733 0-10.38 4.648-10.38 10.38v4.583H10.38C4.647 17.11 0 21.758 0 27.49v11.849h20.025c6.138 0 11.114-4.976 11.114-11.114 0-1.354-.242-2.65-.685-3.85h1.327c6.138 0 11.114-4.975 11.114-11.113 0-6.139-4.976-11.115-11.114-11.115zm8.318 22.229c-1.566-4.241-5.644-7.266-10.43-7.266h-8.268v7.266z" clip-rule="evenodd"/></g></g><defs><clipPath id="a"><path fill="#fff" d="M0 0h265.235v40H0z"/></clipPath></defs></svg>