<svg xmlns="http://www.w3.org/2000/svg" width="260" height="40" fill="none" viewBox="0 0 260 40"><path fill="#fff" d="M0 1.913h14.886c2.721-.16 5.442.64 7.523 2.4 1.76 1.761 2.721 4.322 2.56 6.883 0 1.6-.32 3.202-.96 4.482s-1.76 2.24-3.04 3.041c1.12.16 2.4.64 3.36 1.12.961.481 1.601 1.121 2.242 1.922.64.8.96 1.6 1.28 2.56s.32 2.081.32 3.042c0 1.6-.32 3.041-.96 4.482-.64 1.28-1.44 2.4-2.561 3.36q-1.68 1.441-3.842 1.922c-1.76.48-3.361.64-5.122.64H.16zm9.444 14.245h2.72c2.882 0 4.483-1.12 4.483-3.521s-1.44-3.522-4.482-3.522H9.444zm0 14.566h3.041a9.5 9.5 0 0 0 5.122-.96c1.6-1.12 2.08-3.362.8-4.962a1.93 1.93 0 0 0-.8-.8c-1.6-.8-3.361-.961-5.122-.961H9.444zM67.387 9.916H51.541v6.082h15.366v8.003H51.54v6.243h15.846v8.003h-25.29V1.913h25.29zm24.33 13.605L78.59 1.913h11.205l6.723 11.684 6.722-11.684h11.205L101 23.52v14.406h-9.283zM120.208 20c0-2.561.48-5.122 1.441-7.523 1.921-4.642 5.762-8.324 10.404-10.084 5.122-1.921 10.884-1.921 16.166 0 2.401.96 4.642 2.24 6.403 4.001s3.201 3.842 4.001 6.083a20.36 20.36 0 0 1 0 15.046c-.96 2.24-2.401 4.322-4.161 6.082-1.761 1.76-4.002 3.201-6.403 4.002-5.122 1.92-10.884 1.92-16.166 0-2.401-.96-4.482-2.241-6.243-4.002-1.76-1.76-3.201-3.841-4.161-6.082-.801-2.401-1.281-4.962-1.281-7.523m9.764 0c0 1.44.32 2.72.8 4.001.961 2.401 3.042 4.322 5.442 5.283 3.842 1.6 8.164.64 11.045-2.081.96-.96 1.761-1.921 2.241-3.202a9.95 9.95 0 0 0 0-8.003c-.48-1.28-1.281-2.24-2.241-3.201-3.041-2.721-7.203-3.522-11.045-2.08-2.4.96-4.321 2.88-5.442 5.441a9.7 9.7 0 0 0-.8 3.842m42.417 18.087V1.913h9.444L199.12 24V1.913h9.284v36.014h-9.284l-17.287-21.929v22.089zm60.984-21.289 11.364-14.885h11.526l-14.246 17.126 15.686 19.048h-12.164l-12.166-15.686v15.686h-9.443V1.913h9.443z"/></svg>