<svg xmlns="http://www.w3.org/2000/svg" width="350" height="40" fill="none" viewBox="0 0 350 40"><g clip-path="url(#a)"><path fill="#fff" d="m27.345 19.177-.076.055a10.5 10.5 0 0 0-2.287-.253H0V0h20.878c10.221 0 14.601 12.984 6.467 19.177"/><path fill="#ccc" d="M14.123 40C6.324 40 0 33.676 0 25.877V18.98h24.982c.785 0 1.551.087 2.287.252L11.92 30.92c-3.536 2.693-2.175 8.306 2.203 9.08"/><path fill="#fff" d="M35.491 29.657C35.401 35.437 30.523 40 24.747 40H14.126c-4.378-.773-5.74-6.386-2.204-9.08l15.349-11.689a10.47 10.47 0 0 1 5.146 2.825 10.5 10.5 0 0 1 3.077 7.601zm27.345 5.887h-16.24V4.214h14.993q4.358 0 6.707 2.227t2.349 5.917q-.001 4.887-4.073 6.897v.095q2.586.815 4.047 2.874t1.46 4.84q0 3.786-2.42 6.131-2.418 2.349-6.825 2.349zm-2.06-25.63h-8.05v6.995h8.097q1.82 0 2.78-.982.957-.982.958-2.515 0-3.498-3.785-3.498M61.83 22.37h-9.103v7.52h9.053q2.059.001 3.043-1.03.981-1.031.982-2.707c0-1.119-.352-1.99-1.054-2.708q-1.055-1.077-2.921-1.078zm33.845-7.593q3.568 3.524 3.568 8.935c0 3.607-1.19 6.588-3.568 8.934q-3.569 3.522-9.175 3.521t-9.174-3.521q-3.57-3.522-3.57-8.934 0-5.414 3.57-8.934 3.568-3.523 9.174-3.522 5.606 0 9.174 3.521M81.447 28.86q1.94 1.99 5.053 1.99 3.113.001 5.03-1.99 1.916-1.988 1.915-5.15.001-3.162-1.915-5.152-1.917-1.987-5.03-1.987-3.113.001-5.053 1.987-1.941 1.988-1.94 5.151t1.94 5.151m27.09 6.684h-5.701V4.214h5.701zm28.981-31.33v19.305q0 5.703-3.497 9.174-3.498 3.473-9.151 3.474c-3.768 0-6.795-1.173-9.174-3.521q-3.569-3.522-3.569-8.934 0-5.893 3.521-9.175 3.523-3.28 8.168-3.28 2.635 0 4.695 1.053 2.059 1.053 3.209 2.874h.095V4.214zM119.819 28.86q1.941 1.99 5.054 1.99 3.112.001 5.029-1.99 1.918-1.988 1.918-5.15t-1.918-5.152q-1.917-1.987-5.029-1.987-3.113.001-5.054 1.987-1.939 1.988-1.939 5.151t1.939 5.151m45.867-3.138h-19.4v.095q.575 2.396 2.348 3.786t4.407 1.39q3.832 0 5.605-2.252h6.084q-1.342 3.401-4.433 5.413-3.089 2.013-7.256 2.013-5.604 0-9.175-3.521-3.569-3.522-3.569-8.934 0-5.414 3.569-8.934 3.569-3.523 9.175-3.522c3.737 0 6.738 1.173 9.103 3.521q3.544 3.524 3.545 8.935v2.012zm-12.645-9.293q-2.49 0-4.216 1.22-1.725 1.221-2.396 3.426v.096h13.221v-.096q-.671-2.155-2.419-3.402-1.748-1.245-4.193-1.244zm36.169 5.605h-5.653v-.24q-.001-5.221-4.694-5.223-4.694 0-4.695 5.223v13.75h-5.7v-13.75q-.002-5.221 2.803-7.88 2.802-2.66 7.592-2.66t7.568 2.684q2.78 2.684 2.779 7.951zm24.287-9.34h-3.304q-.144-2.73-2.108-4.312-1.967-1.58-5.318-1.58c-2.234 0-4.071.543-5.413 1.625q-2.013 1.624-2.013 4.357 0 1.741 1.035 2.824 1.037 1.084 2.698 1.553 1.664.473 3.662.848 1.999.378 4.021.756 2.023.382 3.666 1.164 1.646.783 2.67 2.495t1.025 4.26q0 4.36-3.112 6.947-3.115 2.587-8.287 2.586c-3.447 0-6.164-.845-8.239-2.539q-3.117-2.538-3.209-6.897h3.402q.094 2.971 2.203 4.623t5.846 1.653 5.893-1.696 2.156-4.564q0-1.815-1.033-2.914-1.03-1.1-2.686-1.578a39 39 0 0 0-3.652-.854l-4.021-.756q-2.023-.381-3.676-1.123-1.653-.743-2.684-2.42-1.03-1.677-1.03-4.169 0-4.167 2.969-6.754 2.97-2.587 7.809-2.586c3.226 0 5.717.823 7.666 2.467q2.922 2.468 3.067 6.588zm22.275 13.604v.526q0 4.55-2.491 6.947-2.492 2.395-6.707 2.396c-2.81 0-5.104-.797-6.779-2.396q-2.515-2.393-2.514-6.947V4.214h3.209v7.666h13.94v2.92h-13.94v12.025q0 3.162 1.628 4.766t4.456 1.606q2.826 0 4.456-1.606 1.629-1.607 1.63-4.766V26.3h3.112zm23.569-2.06v-12.36h3.21v12.36q0 5.748-3.162 8.838t-8.528 3.091q-5.365 0-8.527-3.09-3.162-3.091-3.162-8.84v-12.36h3.21v12.36q0 4.265 2.274 6.612 2.276 2.349 6.203 2.349t6.205-2.349q2.275-2.347 2.275-6.612zm27.882 8.432c-2.365 2.331-5.412 3.497-9.15 3.497q-5.606 0-9.175-3.521-3.568-3.522-3.568-8.934c0-3.61 1.18-6.748 3.545-9.03q3.544-3.426 8.72-3.426 3.352 0 5.964 1.485 2.611 1.486 3.905 4.023h.095V4.214h3.21v19.352q0 5.606-3.546 9.104m-16-2.156q2.635 2.684 6.85 2.684 4.216 0 6.85-2.684 2.634-2.682 2.634-6.802c0-2.746-.881-5.014-2.634-6.803q-2.637-2.683-6.85-2.683-4.216 0-6.85 2.683-2.635 2.685-2.634 6.803 0 4.12 2.634 6.802M298.72 8.123q-.718.742-1.725.742t-1.725-.742q-.717-.742-.718-1.701 0-1.007.718-1.725a2.35 2.35 0 0 1 1.725-.719q1.005 0 1.725.719.718.718.719 1.725c0 .67-.241 1.206-.719 1.7m-.095 27.42h-3.21V11.878h3.21zm25.558-20.765q3.569 3.523 3.569 8.934c0 3.607-1.19 6.588-3.569 8.934q-3.569 3.522-9.175 3.521t-9.174-3.521q-3.569-3.522-3.569-8.934 0-5.414 3.569-8.934 3.569-3.523 9.174-3.522 5.606 0 9.175 3.521m-16.025 15.736q2.635 2.684 6.85 2.684t6.85-2.684q2.634-2.682 2.634-6.802-.001-4.12-2.634-6.803-2.636-2.683-6.85-2.683-4.215 0-6.85 2.683-2.635 2.685-2.633 6.803 0 4.12 2.633 6.802m40.241-12.168h-3.162q-.097-1.819-1.678-2.993t-4.168-1.173q-2.73.001-4.311 1.138-1.58 1.14-1.58 3.045 0 1.591 1.639 2.32 1.639.727 3.914 1.059 2.275.33 4.571.666 2.297.334 3.871 1.886 1.573 1.553 1.572 4.402-.001 3.258-2.657 5.365-2.659 2.11-7.019 2.108c-2.908 0-5.189-.678-6.947-2.036q-2.635-2.035-2.732-5.247h3.257q.096 1.967 1.797 3.162 1.698 1.199 4.575 1.197 3.066 0 4.768-1.246 1.7-1.25 1.701-3.312 0-1.442-1.149-2.21t-2.843-1.079l-3.695-.675-3.769-.688q-1.765-.321-2.917-1.734-1.149-1.413-1.149-3.712-.001-3.257 2.467-5.294 2.466-2.035 6.586-2.036c2.746 0 4.887.663 6.514 1.989q2.444 1.988 2.539 5.1z"/><mask id="b" width="304" height="34" x="46" y="3" maskUnits="userSpaceOnUse" style="mask-type:luminance"><path fill="#fff" d="M62.836 35.544h-16.24V4.214h14.993q4.358 0 6.707 2.227t2.349 5.917q-.001 4.887-4.073 6.897v.095q2.586.815 4.047 2.874t1.46 4.84q0 3.786-2.42 6.131-2.418 2.349-6.825 2.349zm-2.06-25.63h-8.05v6.995h8.097q1.82 0 2.78-.982.957-.982.958-2.515 0-3.498-3.785-3.498M61.83 22.37h-9.103v7.52h9.053q2.059.001 3.043-1.03.981-1.031.982-2.707c0-1.119-.352-1.99-1.054-2.708q-1.055-1.077-2.921-1.078zm33.845-7.593q3.568 3.524 3.568 8.935c0 3.607-1.19 6.588-3.568 8.934q-3.569 3.522-9.175 3.521t-9.174-3.521q-3.57-3.522-3.57-8.934 0-5.414 3.57-8.934 3.568-3.523 9.174-3.522 5.606 0 9.174 3.521M81.447 28.86q1.94 1.99 5.053 1.99 3.113.001 5.03-1.99 1.916-1.988 1.915-5.15.001-3.162-1.915-5.152-1.917-1.987-5.03-1.987-3.113.001-5.053 1.987-1.941 1.988-1.94 5.151t1.94 5.151m27.09 6.684h-5.701V4.214h5.701zm28.981-31.33v19.305q0 5.703-3.497 9.174-3.498 3.473-9.151 3.474c-3.768 0-6.795-1.173-9.174-3.521q-3.569-3.522-3.569-8.934 0-5.893 3.521-9.175 3.523-3.28 8.168-3.28 2.635 0 4.695 1.053 2.059 1.053 3.209 2.874h.095V4.214zM119.819 28.86q1.941 1.99 5.054 1.99 3.112.001 5.029-1.99 1.918-1.988 1.918-5.15t-1.918-5.152q-1.917-1.987-5.029-1.987-3.113.001-5.054 1.987-1.939 1.988-1.939 5.151t1.939 5.151m45.867-3.138h-19.4v.095q.575 2.396 2.348 3.786t4.407 1.39q3.832 0 5.605-2.252h6.084q-1.342 3.401-4.433 5.413-3.089 2.013-7.256 2.013-5.604 0-9.175-3.521-3.569-3.522-3.569-8.934 0-5.414 3.569-8.934 3.569-3.523 9.175-3.522c3.737 0 6.738 1.173 9.103 3.521q3.544 3.524 3.545 8.935v2.012zm-12.645-9.293q-2.49 0-4.216 1.22-1.725 1.221-2.396 3.426v.096h13.221v-.096q-.671-2.155-2.419-3.402-1.748-1.245-4.193-1.244zm36.169 5.605h-5.653v-.24q-.001-5.221-4.694-5.223-4.694 0-4.695 5.223v13.75h-5.7v-13.75q-.002-5.221 2.803-7.88 2.802-2.66 7.592-2.66t7.568 2.684q2.78 2.684 2.779 7.951zm24.287-9.34h-3.304q-.144-2.73-2.108-4.312-1.967-1.58-5.318-1.58c-2.234 0-4.071.543-5.413 1.625q-2.013 1.624-2.013 4.357 0 1.741 1.035 2.824 1.037 1.084 2.698 1.553 1.664.473 3.662.848 1.999.378 4.021.756 2.023.382 3.666 1.164 1.646.783 2.67 2.495t1.025 4.26q0 4.36-3.112 6.947-3.115 2.587-8.287 2.586c-3.447 0-6.164-.845-8.239-2.539q-3.117-2.538-3.209-6.897h3.402q.094 2.971 2.203 4.623t5.846 1.653 5.893-1.696 2.156-4.564q0-1.815-1.033-2.914-1.03-1.1-2.686-1.578a39 39 0 0 0-3.652-.854l-4.021-.756q-2.023-.381-3.676-1.123-1.653-.743-2.684-2.42-1.03-1.677-1.03-4.169 0-4.167 2.969-6.754 2.97-2.587 7.809-2.586c3.226 0 5.717.823 7.666 2.467q2.922 2.468 3.067 6.588zm22.275 13.604v.526q0 4.55-2.491 6.947-2.492 2.395-6.707 2.396c-2.81 0-5.104-.797-6.779-2.396q-2.515-2.393-2.514-6.947V4.214h3.209v7.666h13.94v2.92h-13.94v12.025q0 3.162 1.628 4.766t4.456 1.606q2.826 0 4.456-1.606 1.629-1.607 1.63-4.766V26.3h3.112zm23.569-2.06v-12.36h3.21v12.36q0 5.748-3.162 8.838t-8.528 3.091q-5.365 0-8.527-3.09-3.162-3.091-3.162-8.84v-12.36h3.21v12.36q0 4.265 2.274 6.612 2.276 2.349 6.203 2.349t6.205-2.349q2.275-2.347 2.275-6.612zm27.882 8.432c-2.365 2.331-5.412 3.497-9.15 3.497q-5.606 0-9.175-3.521-3.568-3.522-3.568-8.934c0-3.61 1.18-6.748 3.545-9.03q3.544-3.426 8.72-3.426 3.352 0 5.964 1.485 2.611 1.486 3.905 4.023h.095V4.214h3.21v19.352q0 5.606-3.546 9.104m-16-2.156q2.635 2.684 6.85 2.684 4.216 0 6.85-2.684 2.634-2.682 2.634-6.802c0-2.746-.881-5.014-2.634-6.803q-2.637-2.683-6.85-2.683-4.216 0-6.85 2.683-2.635 2.685-2.634 6.803 0 4.12 2.634 6.802M298.72 8.123q-.718.742-1.725.742t-1.725-.742q-.717-.742-.718-1.701 0-1.007.718-1.725a2.35 2.35 0 0 1 1.725-.719q1.005 0 1.725.719.718.718.719 1.725c0 .67-.241 1.206-.719 1.7m-.095 27.42h-3.21V11.878h3.21zm25.558-20.765q3.569 3.523 3.569 8.934c0 3.607-1.19 6.588-3.569 8.934q-3.569 3.522-9.175 3.521t-9.174-3.521q-3.569-3.522-3.569-8.934 0-5.414 3.569-8.934 3.569-3.523 9.174-3.522 5.606 0 9.175 3.521m-16.025 15.736q2.635 2.684 6.85 2.684t6.85-2.684q2.634-2.682 2.634-6.802-.001-4.12-2.634-6.803-2.636-2.683-6.85-2.683-4.215 0-6.85 2.683-2.635 2.685-2.633 6.803 0 4.12 2.633 6.802m40.241-12.168h-3.162q-.097-1.819-1.678-2.993t-4.168-1.173q-2.73.001-4.311 1.138-1.58 1.14-1.58 3.045 0 1.591 1.639 2.32 1.639.727 3.914 1.059 2.275.33 4.571.666 2.297.334 3.871 1.886 1.573 1.553 1.572 4.402-.001 3.258-2.657 5.365-2.659 2.11-7.019 2.108c-2.908 0-5.189-.678-6.947-2.036q-2.635-2.035-2.732-5.247h3.257q.096 1.967 1.797 3.162 1.698 1.199 4.575 1.197 3.066 0 4.768-1.246 1.7-1.25 1.701-3.312 0-1.442-1.149-2.21t-2.843-1.079l-3.695-.675-3.769-.688q-1.765-.321-2.917-1.734-1.149-1.413-1.149-3.712-.001-3.257 2.467-5.294 2.466-2.035 6.586-2.036c2.746 0 4.887.663 6.514 1.989q2.444 1.988 2.539 5.1z"/></mask><g mask="url(#b)"><path fill="#fff" d="M456.7 187.84c89.076 0 161.287-72.211 161.287-161.287S545.776-134.734 456.7-134.734 295.413-62.524 295.413 26.553c0 89.076 72.211 161.287 161.287 161.287"/></g></g><defs><clipPath id="a"><path fill="#fff" d="M0 0h349.07v40H0z"/></clipPath></defs></svg>