<svg xmlns="http://www.w3.org/2000/svg" width="133" height="40" fill="none" viewBox="0 0 133 40"><g fill="#fff" clip-path="url(#a)"><path d="M50.112 22.7v4.307h4.12q.382 0 .775-.142.393-.152.709-.425.315-.285.512-.676.196-.404.196-.916a2.1 2.1 0 0 0-.643-1.537 1.95 1.95 0 0 0-.698-.447 2.2 2.2 0 0 0-.84-.164zm3.608-5.997h-3.608v3.915h3.608q.371 0 .71-.142.348-.153.61-.404.272-.261.425-.621.163-.36.163-.785a1.85 1.85 0 0 0-.163-.774 1.9 1.9 0 0 0-.425-.622 2 2 0 0 0-.61-.414 1.7 1.7 0 0 0-.71-.153m.775 12.572h-7.087V14.446h6.465q1.014 0 1.843.284a4 4 0 0 1 1.428.796q.6.523.927 1.265.327.74.327 1.679 0 .49-.153.948a3.3 3.3 0 0 1-.403.85 3.2 3.2 0 0 1-.6.698 2.7 2.7 0 0 1-.73.458q.556.175 1.046.524.502.337.873.796.37.458.588 1.024.219.567.218 1.189 0 1.112-.403 1.93a4 4 0 0 1-1.068 1.34q-.666.524-1.527.786a5.9 5.9 0 0 1-1.744.262m5.746-5.605q0-1.231.458-2.311.458-1.091 1.276-1.897a6.2 6.2 0 0 1 1.963-1.276 6.4 6.4 0 0 1 2.475-.469q1.351 0 2.486.47a6 6 0 0 1 1.962 1.275q.828.807 1.287 1.897.468 1.08.468 2.311 0 1.244-.457 2.323a5.7 5.7 0 0 1-1.287 1.886 6.1 6.1 0 0 1-1.974 1.276q-1.133.458-2.496.458a6.6 6.6 0 0 1-2.475-.458 6 6 0 0 1-1.941-1.276 6 6 0 0 1-1.287-1.886 5.9 5.9 0 0 1-.458-2.323m2.65-.01q0 .806.272 1.482.285.666.764 1.156a3.5 3.5 0 0 0 2.507 1.025 3.6 3.6 0 0 0 1.385-.262 3.5 3.5 0 0 0 1.123-.752q.48-.49.752-1.167.284-.676.284-1.482 0-.796-.284-1.462a3.4 3.4 0 0 0-.752-1.155 3.5 3.5 0 0 0-2.508-1.025q-.742 0-1.384.272a3.3 3.3 0 0 0-1.123.753 3.6 3.6 0 0 0-.764 1.145 3.9 3.9 0 0 0-.272 1.472m11.024.01q0-1.231.458-2.311a5.8 5.8 0 0 1 1.275-1.897 6.2 6.2 0 0 1 1.963-1.276 6.4 6.4 0 0 1 2.475-.469q1.352 0 2.485.47a6 6 0 0 1 1.964 1.275q.828.807 1.286 1.897.468 1.08.469 2.311 0 1.244-.458 2.323a5.7 5.7 0 0 1-1.287 1.886 6.1 6.1 0 0 1-1.974 1.276q-1.132.458-2.496.458-1.342 0-2.475-.458a6 6 0 0 1-1.94-1.276 6 6 0 0 1-1.287-1.886 5.9 5.9 0 0 1-.458-2.323m2.65-.01q0 .806.272 1.482.283.666.763 1.156a3.5 3.5 0 0 0 2.508 1.025 3.6 3.6 0 0 0 1.384-.262q.644-.272 1.123-.752.48-.49.752-1.167.284-.676.284-1.482 0-.796-.284-1.462a3.4 3.4 0 0 0-.752-1.155 3.5 3.5 0 0 0-2.507-1.025q-.742 0-1.385.272a3.3 3.3 0 0 0-1.123.753q-.48.48-.763 1.145a3.9 3.9 0 0 0-.273 1.472m11.454-8.788 2.65-.011v3.194h3.575v2.29h-3.587v4.59q0 .676.153 1.123.165.435.436.698.274.25.622.36.36.098.763.098h1.919l-.022 2.18H92.38q-.906 0-1.702-.185a3.3 3.3 0 0 1-1.384-.676q-.589-.502-.938-1.363-.338-.861-.338-2.213zm19.681 8.318v6.085h-2.671v-6.04q0-.916-.197-1.527-.196-.621-.577-.992a2 2 0 0 0-.916-.535 4.2 4.2 0 0 0-1.233-.163q-.643 0-1.209.229a2.9 2.9 0 0 0-.971.654 3.2 3.2 0 0 0-.643 1.025 3.6 3.6 0 0 0-.229 1.308v6.051h-2.65V13.913h2.639l-.011 5.168a5.8 5.8 0 0 1 1.581-.97 5.1 5.1 0 0 1 2.006-.393q1.31 0 2.268.36.96.36 1.581 1.058.633.698.926 1.722.307 1.014.306 2.334m1.877 4.883q0-.305.108-.578a1.3 1.3 0 0 1 .316-.469 1.54 1.54 0 0 1 1.123-.447q.35 0 .633.12t.491.327q.206.197.315.47t.11.577q0 .306-.11.578-.109.261-.315.469-.208.196-.491.305-.284.12-.633.12a1.6 1.6 0 0 1-1.123-.436 1.5 1.5 0 0 1-.316-.469 1.5 1.5 0 0 1-.108-.567m7.316-4.415q0 .806.283 1.482.284.677.774 1.167.491.48 1.146.752.653.262 1.406.262a3.7 3.7 0 0 0 1.395-.262 3.5 3.5 0 0 0 1.134-.752q.491-.49.775-1.156.282-.675.283-1.493 0-.796-.283-1.462a3.48 3.48 0 0 0-1.919-1.908 3.6 3.6 0 0 0-1.407-.272q-.752 0-1.406.272a3.4 3.4 0 0 0-1.146.753q-.48.48-.762 1.145a3.8 3.8 0 0 0-.273 1.472m-2.65.01q0-1.231.426-2.311.436-1.091 1.221-1.897a5.9 5.9 0 0 1 1.897-1.276q1.112-.469 2.464-.469.643 0 1.21.131.567.12 1.069.338.5.207.916.502.425.283.752.6l.152-1.233h2.268v11.22h-2.268l-.152-1.232a5.4 5.4 0 0 1-.764.61 6 6 0 0 1-.926.502 5.7 5.7 0 0 1-1.069.327q-.567.13-1.199.13-1.341 0-2.453-.457a5.7 5.7 0 0 1-1.886-1.276 5.8 5.8 0 0 1-1.222-1.886 6.2 6.2 0 0 1-.436-2.323m14.983 5.605v-11.22h2.671v11.22zm-.295-14.393q0-.305.12-.566a1.4 1.4 0 0 1 .327-.47q.217-.206.523-.326t.676-.12q.382 0 .687.12t.523.327q.219.196.338.469.12.261.12.566 0 .306-.12.578-.12.262-.338.47-.217.195-.523.315-.304.11-.687.11a2 2 0 0 1-.676-.11 1.7 1.7 0 0 1-.512-.316 1.5 1.5 0 0 1-.338-.469 1.4 1.4 0 0 1-.12-.578"/><path fill-rule="evenodd" d="M34.874 16.434h-4.241a7.66 7.66 0 0 1-7.658-7.658V4.599a1.857 1.857 0 0 0-1.834-1.857H6.94A6.94 6.94 0 0 0 0 9.682v22.845a6.94 6.94 0 0 0 6.94 6.94h22.844a6.94 6.94 0 0 0 6.94-6.94V18.146a1.857 1.857 0 0 0-1.85-1.712M29.757 27.12a13.157 13.157 0 0 1-22.79 0l3.836-2.214a8.73 8.73 0 0 0 15.119 0zm2.268-24.378c-.256 0-.46.21-.496.463a3.25 3.25 0 0 1-2.754 2.754c-.254.036-.463.24-.463.496v.929c0 .256.21.46.463.496a3.25 3.25 0 0 1 2.754 2.754c.036.254.24.463.496.463h.929c.256 0 .46-.21.496-.463a3.25 3.25 0 0 1 2.754-2.754c.254-.036.463-.24.463-.496v-.929c0-.256-.21-.46-.463-.496a3.25 3.25 0 0 1-2.754-2.754c-.036-.254-.24-.463-.496-.463z" clip-rule="evenodd"/></g><defs><clipPath id="a"><path fill="#fff" d="M0 0h132.245v40H0z"/></clipPath></defs></svg>