<svg xmlns="http://www.w3.org/2000/svg" width="237" height="40" fill="none" viewBox="0 0 237 40"><path fill="#fff" d="M60.284.055v14.232q0 1.24-.512 2.562a367 367 0 0 0-.943 2.45l1.185.434a42 42 0 0 0 .728-2.59q.35-1.4 1.213-2.316 1.454-1.565 3.53-2.508t4.772-.943q2.91 0 5.364 1.159a13.8 13.8 0 0 1 4.257 3.099q1.807 1.94 2.832 4.557a15.9 15.9 0 0 1 1.08 5.525q.053 3.019-.917 5.633t-2.777 4.53q-1.807 1.914-4.315 3.017Q73.277 40 70.258 40q-2.748 0-4.797-.889a10.9 10.9 0 0 1-3.557-2.453q-.864-.86-1.188-2.289a31 31 0 0 0-.7-2.616l-1.132.378q.376 1.186.889 2.508.512 1.32.512 2.56v1.94l-6.577-.055V0zm1.24 25.821q0 1.674.513 3.156.512 1.48 1.51 2.532.997 1.053 2.453 1.674 1.455.62 3.341.619 1.885 0 3.342-.62 1.455-.619 2.452-1.673.998-1.05 1.51-2.532.513-1.482.513-3.156 0-1.725-.513-3.232a7.7 7.7 0 0 0-1.51-2.641 7.3 7.3 0 0 0-2.453-1.807q-1.455-.674-3.341-.674T66 18.197a7.3 7.3 0 0 0-2.453 1.807 7.7 7.7 0 0 0-1.51 2.64 10 10 0 0 0-.513 3.233M88.368 39.14V12.183H95v.755q0 1.565-.674 3.317-.673 1.753-1.267 3.153l1.08.485q.32-.754.645-1.561.324-.81.728-1.62t.889-1.482a5.3 5.3 0 0 1 1.133-1.158q1.077-.81 2.208-1.35 1.133-.54 2.453-.834a19 19 0 0 1 2.884-.403 52 52 0 0 1 3.559-.109v6.146a25.4 25.4 0 0 0-4.933.485q-2.453.486-4.394 1.616a9 9 0 0 0-3.126 3.02Q95 24.53 95 27.332V39.14zm25.228-26.956h6.577v26.955h-6.577zm-.322-10.78h7.168v6.738h-7.168zm12.396 24.258q0-3.072 1.025-5.686 1.023-2.616 2.911-4.53 1.888-1.913 4.608-2.99 2.724-1.08 6.119-1.079 3.56 0 6.307 1.134 2.75 1.131 4.664 3.044a12.6 12.6 0 0 1 2.886 4.421 13.5 13.5 0 0 1 .916 5.2q0 .54.027 1.35.027.807-.027 1.13h-22.535q0 1.133.512 2.238.513 1.104 1.51 2.023.997.916 2.532 1.482 1.538.564 3.642.565 2.8 0 4.445-.97t2.077-1.996h7.923q-.322 1.025-1.292 2.59-.97 1.561-2.75 2.965-1.78 1.402-4.394 2.425t-6.118 1.023q-3.721 0-6.55-1.131-2.83-1.131-4.69-3.072a12.8 12.8 0 0 1-2.805-4.555q-.943-2.616-.943-5.581m14.448-8.248q-3.612 0-5.579 1.619-1.969 1.617-1.968 4.203h15.258q0-2.802-2.159-4.312-2.156-1.51-5.552-1.51m37.141-5.23v5.23h-6.792V38.98h-6.576V17.414h-5.337v-5.23h5.337V9.922q.054-1.94.7-3.53.647-1.591 1.725-2.696a7.6 7.6 0 0 1 2.453-1.698 7.2 7.2 0 0 1 2.884-.594h6.252v5.337h-3.826q-1.941 0-2.778.837-.834.834-.834 2.344v2.262zm4.58 13.478q0-3.072 1.025-5.686 1.024-2.616 2.911-4.53 1.888-1.913 4.609-2.99 2.722-1.08 6.119-1.079 3.559 0 6.306 1.134 2.75 1.131 4.664 3.044a12.6 12.6 0 0 1 2.886 4.421 13.5 13.5 0 0 1 .916 5.2q0 .54.027 1.35.027.807-.027 1.13H188.74q0 1.133.513 2.238.512 1.104 1.51 2.023.997.916 2.532 1.482 1.536.564 3.641.565 2.802 0 4.445-.97 1.646-.97 2.077-1.996h7.923q-.321 1.025-1.292 2.59-.97 1.561-2.75 2.965-1.78 1.402-4.393 2.425-2.615 1.023-6.119 1.023-3.72 0-6.55-1.131t-4.69-3.072a12.8 12.8 0 0 1-2.805-4.555q-.943-2.616-.943-5.581m14.448-8.248q-3.611 0-5.579 1.619-1.968 1.617-1.968 4.203h15.258q0-2.802-2.159-4.312-2.156-1.51-5.552-1.51m20.052 21.726V12.183h6.632v.755q0 1.565-.673 3.317-.674 1.753-1.268 3.153l1.079.485q.322-.754.646-1.561.324-.81.728-1.62t.889-1.482a5.3 5.3 0 0 1 1.133-1.158q1.077-.81 2.208-1.35 1.133-.54 2.453-.834a19 19 0 0 1 2.884-.403 52 52 0 0 1 3.559-.109v6.146a25.4 25.4 0 0 0-4.933.485q-2.453.486-4.393 1.616a9 9 0 0 0-3.127 3.02q-1.185 1.886-1.185 4.688V39.14z"/><path fill="#fff" fill-rule="evenodd" d="M13.977 5.625a1.38 1.38 0 0 1 .841.281 1.4 1.4 0 0 1 .502.732l1.516 5.304a6.9 6.9 0 0 0 1.192 2.358 7 7 0 0 0 1.25 1.25 7 7 0 0 0 2.358 1.193l5.304 1.515q.22.063.407.192a1.38 1.38 0 0 1 .534.708 1.38 1.38 0 0 1 0 .887 1.4 1.4 0 0 1-.941.9l-5.304 1.516a6.98 6.98 0 0 0-4.8 4.8l-1.516 5.305a1.38 1.38 0 0 1-.502.731 1.4 1.4 0 0 1-2.185-.731l-1.515-5.305a6.98 6.98 0 0 0-4.8-4.8l-5.305-1.515a1.38 1.38 0 0 1-.732-.503 1.4 1.4 0 0 1 .732-2.185l5.304-1.515a6.98 6.98 0 0 0 4.104-3.176 7 7 0 0 0 .697-1.625l1.515-5.304a1.39 1.39 0 0 1 .9-.941q.216-.073.444-.072M30.75.033q.234 0 .455.077a1.38 1.38 0 0 1 .717.559q.128.196.184.423l.481 1.93a4.9 4.9 0 0 0 3.56 3.56l1.93.481a1.4 1.4 0 0 1 .765.495 1.4 1.4 0 0 1-.764 2.218l-1.931.481a4.9 4.9 0 0 0-3.56 3.56l-.48 1.931a1.397 1.397 0 0 1-2.714 0l-.481-1.931a4.9 4.9 0 0 0-.853-1.775 4.9 4.9 0 0 0-1.483-1.295 4.8 4.8 0 0 0-1.224-.49l-1.93-.48a1.38 1.38 0 0 1-.986-.9 1.4 1.4 0 0 1 .22-1.319q.145-.183.342-.311.195-.127.424-.184l1.93-.481a4.8 4.8 0 0 0 1.224-.489 4.85 4.85 0 0 0 1.483-1.295 5 5 0 0 0 .65-1.147q.123-.307.203-.629l.48-1.93A1.394 1.394 0 0 1 30.75.033m-2.796 25.16a1.4 1.4 0 0 1 1.127.57q.13.177.2.386l.734 2.205c.28.833.932 1.49 1.767 1.766l2.205.736a1.4 1.4 0 0 1 .69.51 1.4 1.4 0 0 1 0 1.632 1.4 1.4 0 0 1-.69.509l-2.205.736a2.8 2.8 0 0 0-1.767 1.767l-.736 2.205a1.4 1.4 0 0 1-.509.69 1.38 1.38 0 0 1-.816.262 1.39 1.39 0 0 1-1.125-.567 1.4 1.4 0 0 1-.2-.385l-.736-2.205a2.79 2.79 0 0 0-1.767-1.767l-2.204-.736a1.4 1.4 0 0 1-.69-.51 1.4 1.4 0 0 1 .305-1.94 1.4 1.4 0 0 1 .385-.2l2.204-.737a2.8 2.8 0 0 0 1.767-1.766l.736-2.205a1.38 1.38 0 0 1 .508-.692 1.38 1.38 0 0 1 .817-.264" clip-rule="evenodd"/></svg>