<svg xmlns="http://www.w3.org/2000/svg" width="485" height="80" fill="none" viewBox="0 0 485 80"><path fill="#fff" d="M46.794 2.236c6.91-2.317 13.538-2.9 19.12-1.434l.082.022.05.011.05.015c1.562.425 2.998 1 4.306 1.714l.053.027.043.026a17 17 0 0 1 4.786 3.91l.055.06.07.09q.244.295.476.603l.007.007.004.005.033.046q.561.752 1.043 1.569l.029.037h-.007q.145.246.281.496l.01.017.004.008.027.047.065.125.018.032q.148.281.287.568l.034.069.006.015q.134.279.258.563l.013.026.014.036q.417.958.732 1.953l.002.003.003.01.01.035q.28.888.487 1.822l.008.023.001.005.05.231.005.036q.066.318.125.64l.007.033h.008v.05q.177.997.276 2.044v.005q.1 1.061.12 2.125l.001.015v.004l.004.035-.003.043q.007.477 0 .962v.096a33 33 0 0 1-.12 2.23v.017a38 38 0 0 1-.447 3.327l-.025.148-.033.169c-.46 2.469-1.179 5.045-2.161 7.703l-.064.185-.035-.06a.04.04 0 0 1-.012-.02l-.704-1.22-.724-1.233-.75-1.204-.019-.03-.769-1.186-.005-.008-.808-1.208-.482-.688-.35-.508-.867-1.184-.507-.677-.374-.508-.009-.012.002-.014.108-.639v-.023l.085-.607.067-.503.006-.043.004-.017.008-.042.06-.602.036-.591.036-.567.012-.572v-.031l.012-.507-.01-.376-.002-.032v-.123l-.024-.52-.034-.4-.002-.033v-.061l-.048-.493-.06-.46-.072-.457-.073-.446-.047-.167-.05-.258-.095-.395-.002-.005-.099-.331h-.009v-.055l-.119-.369-.12-.362-.096-.228-.037-.11-.143-.324-.143-.308-.001-.005-.004-.006-.153-.295-.156-.288-.168-.277-.18-.265-.18-.253-.373-.482-.409-.434-.3-.276-.311-.276-.337-.265-.348-.24-.372-.242-.228-.12-.17-.097-.42-.216-.443-.193-.47-.18-.371-.109-.133-.048-.53-.145-.553-.133-.59-.12-.613-.096-.65-.072-.686-.049-.708-.024h-.745l-.763.012-.795.06-.82.073-.83.096-.867.133-.88.17-.904.192-.004.001-.918.215-.006.002-.94.253-.951.278-.976.314-.977.35-.747.29-.231.088-.022.008-1 .411-1.01.434-1.027.472-1.013.501-.01.006-.008.004-1.03.527-1.037.556-1.036.58-1.037.616-.723.447-.326.194-1.036.664-.204.144-.82.544-.02.014-.668.47-.35.241-1.024.737-.975.732-.038.03-.482.374-.531.41-.827.674-.004.003-.17.133-.987.833-.977.857-.96.878-.004.004-.953.883-.928.918-.012.012-.916.918-.892.942-.446.483-.438.462-.009.01-.855.978-.843.977-.01.014-.823.99-.144.181-.664.822-.3.398-.427.558-.044.059-.76 1.014-.735 1.027-.711 1.027-.687 1.038-.64 1.004-.023.035-.006.01-.618 1.024-.003.005-.362.617-.255.427-.444.817-.132.216-.53 1.028-.003.005-.004.004-.008.007-.515 1.034-.085.181-.398.846-.455 1.021-.437 1.02-.383.995-.002.006-.372.986v.054h-.01l-.33.943-.072.24-.229.725-.133.47-.144.485-.24.929-.184.789-.01.045-.024.096-.18.893-.157.88v.007l-.12.852-.003.019-.058.535-.035.272-.001.005-.06.803v.04l-.048.752v.276l-.012.484.012.506v.218l.036.697.008.077.004.032.048.568.06.422.024.213v.005l.108.614.12.591.13.539.003.017.156.516.124.35.007.02.002.004.033.11.003.011.18.459.205.432.204.421.216.362.005.009v.023l.235.352.253.35.262.324.277.301.288.301.014.013.286.264.313.265.336.253.304.198.01.008.03.022.017.012.384.229.408.217.422.205.454.191.363.137.12.045.504.156.543.145.564.12.602.11.254.035.374.06.66.061.686.048.723.025.746-.013.783-.036.795-.048.83-.084.843-.121.865-.145.019-.003.012.01.021.015.028.02.135.102.008.006.003.003.012.01.291.22.023.015.007.005.003.003.038.028h.025v.019l.072.054h-.004l.513.388.021.016 1.168.848.451.32.586.404.156.12.844.557.362.253.047.03 1.17.756.023.014.327.204.868.543.007.004 1.223.72.028.017.09.052 1.092.633a.04.04 0 0 1 .028.007h.182l-.123.044-.073.027-.338.12-.005.002-.188.066q-.398.144-.792.28l-.245.087-.006.002-.887.289-.326.108-.655.196h.034l-.484.125q-.471.135-.938.256l-.058.016-.072.018a45 45 0 0 1-.641.161l-.208.052h.036l-.318.071h-.004l-.326.073-.857.182-.28.05q-.338.065-.673.125l-.23.043-.116.016q-.436.073-.87.135l-.184.03-.145.016a36 36 0 0 1-.617.078l-.385.05-.26.02q-.345.035-.69.06l-.185.018-.363.024-.22.01q-.242.015-.485.024l-.044.003h-.014q-.526.02-1.044.023h-.073q-.449.002-.89-.01l-.164-.001-.114-.007q-.261-.009-.523-.024l-.425-.018-.228-.024-.133-.012q-.18-.014-.36-.032l-.316-.028-.244-.025-.78-.108h-.005l-.239-.036-.003-.001-.748-.133-.242-.049-.736-.157-.23-.06-.713-.182-.242-.073-.004-.001-.232-.07h.012l-.459-.145-.007-.002-.208-.081a18 18 0 0 1-.39-.14l-.288-.103-.007-.003-.217-.084-.652-.266-.207-.11-.627-.29-.167-.098q-.156-.081-.31-.165l-.332-.173-.207-.121-.579-.351-.301-.21q-.143-.096-.283-.194l-.165-.104-.714-.546-.048-.036-.286-.243-.153-.13-.202-.172-.088-.084q-.189-.17-.373-.346l-.191-.175-.177-.189a17 17 0 0 1-.7-.759l-.235-.264-.098-.122-.543-.701-.004-.007-.011-.023-.044-.061a17 17 0 0 1-.326-.467l-.134-.192-.086-.135-.008-.013-.027-.043-.243-.392-.003-.007-.01-.02-.01-.019-.023-.039-.036-.044-.003-.005-.022-.054-.014-.025-.01-.016-.036-.062-.045-.08-.053-.089-.028-.055-.091-.165-.05-.082-.087-.164-.008-.013-.003-.006-.014-.029-.01-.02-.072-.145-.027-.053-.025-.057q-.068-.136-.134-.274l-.01-.02-.007-.015-.003-.004-.026-.052-.082-.176-.022-.034-.003-.004-.034-.053h.013l-.064-.154-.078-.184-.033-.078-.118-.259-.048-.132-.051-.123-.01-.024-.02-.049-.089-.253-.013-.037-.102-.28-.053-.129-.061-.184-.109-.35-.12-.363-.002-.005v-.025l-.038-.141a25 25 0 0 1-.128-.464l-.05-.176-.024-.098-.025-.117a23 23 0 0 1-.156-.681l-.036-.119v-.004l-.042-.256q-.063-.322-.118-.647l-.01-.037-.01-.045h.004l-.017-.12a25 25 0 0 1-.078-.522l-.043-.27-.013-.148-.009-.088q-.066-.563-.109-1.137l-.002-.033-.002-.027a28 28 0 0 1-.032-.5l-.003-.041v-.011q-.026-.502-.035-1.003v-.042q-.03-2.004.185-3.996l.019-.212.018-.12q.053-.462.12-.928v-.005q.075-.528.165-1.063l.01-.085.072-.377q.04-.224.085-.452v-.007a43 43 0 0 1 .592-2.612 49 49 0 0 1 1.074-3.573l.01-.032.015-.05.008-.023.036-.096q.39-1.131.844-2.27l.029-.076.006-.014.173-.43c3.312-8.11 8.885-16.441 16.234-23.805l.345-.344.37-.364h-.007l.053-.046c4.015-3.92 8.302-7.316 12.671-10.107h-.09l.186-.06q.59-.376 1.182-.737l.016-.01q.607-.37 1.222-.728l.004-.002a63 63 0 0 1 7.806-3.87 54 54 0 0 1 3.325-1.241m6.891 11.712a.04.04 0 0 1 .043-.006l.006.003.35.286c14.792 12.12 24.897 29.147 25.723 43.398l.017.336c.092 1.922.01 3.743-.234 5.453l-.003.019a24 24 0 0 1-.575 2.794l.012.003-.023.048-.002.004-.003.005a19.8 19.8 0 0 1-1.722 4.294l-.011.027-.002.003-.003.004-.01.013q-.114.208-.235.412l-.028.053-.009.02-.013.016-.005.008h.02l-.056.057a19 19 0 0 1-.312.5l-.05.079-.265.4-.084.111q-.169.24-.345.47l-.103.144-.2.244q-.144.18-.293.354l-.087.106-.049.052q-.225.257-.458.505l-.097.108-.303.304-.338.326-.162.145a17 17 0 0 1-.802.685l-.052.043-.362.29-.345.242q-.31.222-.633.432l-.134.09-.398.254-.388.218-.171.093q-.115.064-.232.126l-.02.011-.012.006q-.222.118-.447.23l-.374.188-.412.182-.446.193-.436.17-.043.016q-.202.077-.407.15l-.009.003-.007.003q-.395.14-.8.266l-.098.034-.187.053a23 23 0 0 1-.49.138l-.265.075-.204.046q-.258.063-.521.122l-.254.062-.16.028-.063.01q-.322.066-.65.12l-.117.024h-.004l-.161.024q-.372.06-.752.107l-.098.014h-.004l-.174.02-.258.029-.108.012-.495.048-.166.01q-.303.024-.61.041l-.286.022h-.009l-.315.005q-.318.012-.642.015l-.121.004-.144-.002q-.426.002-.86-.01h-.096l-.406-.012h-.005l-.707-.036h-.004l-.321-.025-.29-.022-.524-.038-.366-.045q-.285-.03-.57-.065l-.211-.023-.298-.042-.138-.02-.084-.01-.023-.004-.485-.072-.14-.021h-.004l-.53-.085-.652-.121-.285-.058-.462-.094-.448-.09-.368-.09q-.355-.081-.708-.17l-.132-.03-.2-.053-.425-.11-.581-.152-.568-.17-.664-.192-.562-.18-.006-.002-.019-.007-.201-.064h.005l-.448-.147-.298-.108-.55-.193-.395-.134-.568-.218-.675-.254-.507-.212-.223-.09-.513-.206-.58-.254-.675-.29-.367-.176q-.23-.104-.458-.212l-.43-.192-.58-.291-.675-.326-.58-.303-.676-.35-.579-.315-.656-.358-.008-.005-.005-.003-.119-.064h.006l-.465-.267-.009-.005-.007-.004-.11-.063-1.116-.653-.01-.005-.005-.004-.11-.063-.548-.332-.57-.357-.01-.005-.03-.02-.076-.048-.219-.138-.003-.002-.003-.003-.009-.009-.057-.034-.087-.055-.01-.006-.133-.085-.018-.012-.018-.012-.145-.097-.205-.133-.01-.006-.092-.06-.062-.043-.145-.096-.245-.157-.326-.218-.015-.014-.16-.11-.277-.186-.336-.228-.01-.006-.012-.009-.084-.057-.325-.224-.027-.018-.01-.007-.099-.066h.009l-.28-.203q-.348-.246-.691-.496l-.12-.08-.375-.28-.58-.434-.252-.181-.351-.28-.627-.482-.107-.089q-.254-.2-.507-.402l-.038-.03-.675-.544-.14-.112-.548-.456-.7-.592-.355-.314q-.216-.187-.43-.375l-.204-.17-.395-.363-.269-.242-.47-.422-.062-.062-.218-.205q-.585-.543-1.16-1.097l-.105-.1-.136-.134q-.66-.642-1.307-1.3l-.307-.307-1.038-1.089-.012-.011-.24-.254-.76-.833-.036-.037-.348-.395-.546-.618-.12-.136-.447-.52-.04-.049-.4-.47-.308-.364-.725-.881-.013-.016-.025-.037-.009-.014.004-.015.145-.544.085-.34.06-.216.17-.57.177-.557.004-.011.003-.013.15-.46.015-.047.021-.064.003-.008.193-.58.218-.606.24-.603.012-.046.002-.005.229-.556.169-.423.084-.194.266-.617.072-.168.218-.461.002-.005.216-.475.023-.053.033-.064.015-.032.01-.02.618-1.237.365-.694.034.048.003.004.705.995.003.004.724.99.41.532.339.446.01.014.772.978.796.978.807.967.483.547.289.323.06.073.844.942.868.93.325.338.53.544.005.005.023.033.9.891.254.242.663.64.008.007.913.845.007.006.94.846.085.063h-.012l.88.77.954.79.01.007.977.786.978.753.011.008.007.006.98.742.59.411.41.303 1.002.688 1 .677 1.013.64 1.012.628.364.2h-.01l.659.391.928.52.085.049 1.011.543.688.35.31.167.004.003 1 .483.988.458.988.435.986.398.967.375.963.35.952.314.928.278.916.254h.006l.042.012.856.217.892.194.864.168.846.133.7.097.133.024.793.084.784.06.759.037.728.012h.005l.712-.012h.005l.667-.036.662-.06.614-.085.59-.096.566-.121.53-.133.516-.156.376-.126.094-.031.455-.18.435-.194.407-.204.385-.217.36-.228.337-.242.099-.079h-.006l.23-.172.3-.265.29-.278.276-.289.264-.3.252-.326.24-.336.228-.36.217-.375.203-.407.18-.422.18-.458.17-.484.144-.505.144-.53.108-.567.06-.361.049-.242.072-.627.06-.651.048-.675.012-.7-.012-.737-.024-.759-.06-.75v-.024l-.085-.808v-.004l-.036-.237-.071-.575v-.005l-.003-.011-.143-.846-.168-.869-.193-.88-.036-.133-.193-.774-.004-.017-.247-.906-.002-.007-.277-.928-.265-.799-.048-.156-.341-.93-.37-1.003-.132-.301-.265-.673-.001-.005-.434-.99-.458-1.002-.46-.946h-.004l-.02-.059-.503-.998-.109-.182-.434-.834-.23-.399-.337-.616-.025-.041-.578-.962-.011-.019-.53-.858-.073-.137-.65-1.012-.009-.01-.005-.005-.663-.99-.687-1.003-.325-.448-.394-.55-.004-.005-.494-.665-.241-.325-.772-.991-.773-.965-.004-.005-.006-.009-.796-.966-.278-.314-.012-.012-.003-.005-.05-.055-.473-.563-.004-.006-.004-.004-.84-.937-.723-.786-.134-.158-.879-.917-.084-.084-.807-.822-.9-.877-.005-.005-.916-.882-.894-.8-.011-.01-.036-.036-.952-.845-.005-.004-.947-.805-.012-.01-.962-.785-.002-.003-.977-.772-.989-.75-.01-.008-.978-.729-.856-.591-.141-.107-.003-.002-.049-.034.052-.028.627-.338.64-.327.346-.173h-.028l.31-.13.627-.302 1.231-.556.614-.253.605-.255.592-.23.4-.148h-.03l.22-.07.593-.206.58-.181.567-.182.568-.157.555-.157.52-.133.004-.002zM62.487 44.8l.326.641.301.63.288.622.007.008.062.061h-.031l.254.554.53 1.233.233.595.239.615.217.605.003.01.202.583.23.69.14.445.004.014.157.569.049.156.108.4.128.534q.009.007.01.018a.03.03 0 0 1-.001.02l-.001.005-.004.006-.022.027-.152.196-.366.44A82 82 0 0 1 63.229 57l-.096.109-.03.032a83 83 0 0 1-1.772 1.908l-.165.175-.127.128a83 83 0 0 1-4.029 3.89l-.002.005-.005.005-.174.154q-.332.297-.668.592l-.099.087-.063.058h.011l-.08.063-.01.01-.062.046q-.353.307-.71.61l-.196.169-.064.051q-.576.484-1.158.957l-.007.006-.015.014-.019-.006-.016-.004-.523-.14h-.003l-.555-.146-.568-.157-.568-.182-.579-.193-.591-.194-.592-.218-.604-.23-.597-.25-.006-.003-.32-.13-.006-.003-.276-.12-.61-.264-.007-.004-.628-.29-.005-.002-.579-.272-.01-.005-.02-.014-.016-.01-.625-.301-1.255-.653-.02-.01v-.054l.015-.01 1.175-.841.069-.05.023-.016 1.265-.942.004-.002 1.25-.976 1.241-1.015 1.218-1.051 1.205-1.075.277-.265.893-.846.19-.192.055-.054.007-.008.011-.01.858-.837.037-.035.687-.712.06-.061.01-.011.376-.388.144-.157.518-.567.435-.46 1.072-1.207.06-.073.519-.604.46-.533.045-.059.01-.013.485-.603.483-.58.022-.034.484-.619.436-.56.034-.044.94-1.267.939-1.33zM14.653.632c4.488-1.027 9.753-.801 15.442.707l.114.028h-.012A50 50 0 0 1 34.49 2.73l.286.107.006.003q.009.005.013.014l.042.015-.05.028-.013.007-.006.004-1.236.704-1.223.733-.695.424-.92.58-.966.62-1 .672-.914.638-.009.01-.005.004-.682.483-.126.092-.026.018-.624.454-.12.089-.218.164h.005l-.088.064-.01.009-.038.026-.204.155v.01l-.02.01-.02.01-.055.042-.046.037h.019l-.098.064-.008.008-.02.012-.063.042-.198.15-.046.04-.013.012-.005-.001-.014.007-.01.005-.01-.002-.097-.011-.543-.097-.615-.085-.615-.072-.6-.06-.578-.048-.581-.037-.553-.012h-.314l-.227-.012-.106.011-.425.001-.517.024-.506.036-.482.049-.468.06-.446.072-.433.072-.373.086-.049.01-.397.098-.378.106-.007.002-.373.108-.347.12-.336.133-.326.145-.313.145-.3.155-.288.157-.276.168-.264.181-.25.178-.483.388-.43.408-.41.434-.386.483-.18.252-.178.263-.084.156-.069.114-.004.008-.168.288-.156.301-.05.118-.021.048-.002.004-.072.144-.132.325-.132.337-.028.084-.008.024-.097.254-.107.373-.006.02-.079.282-.024.084-.108.399-.076.378-.007.036-.002.006-.081.435-.003.013-.072.458-.006.061-.005.058-.004.032-.045.308-.048.492V19l-.024.34-.024.52-.012.53v.543l.012.568.036.566.042.514.006.078.06.597v.007l.072.603.097.628.111.655-.01.013-.132.181-.75.989-.01.014-.856 1.184-.83 1.195-.01.017-.643.95-.165.238-.003.005-.01.014-.485.758-.289.435-.362.592-.397.628-.004.006-.225.393-.49.826-.005.007-.108.194-.41.725-.175.303a.04.04 0 0 1-.011.02l-.033.057-.148-.385-.253-.726-.072-.193-.278-.835-.077-.253-.101-.32-.148-.455-.17-.593-.12-.435-.217-.774-.061-.242-.229-.967-.012-.049-.241-1.125-.001-.004v-.025l-.008-.04a40 40 0 0 1-.147-.782l-.05-.26-.023-.097-.158-1.006-.011-.164a37 37 0 0 1-.075-.58l-.042-.325-.005-.033v-.004l-.005-.036-.088-.882-.004-.033-.008-.088-.004-.034-.003-.038-.016-.35q-.022-.308-.037-.613l-.003-.049L0 22.034h.05l-.01-.531-.013-.459v-.187a31 31 0 0 1 0-.654v-.345l.014-.298q.008-.244.02-.487L.063 19v-.156l.036-.499.024-.334v-.004l.013-.122.048-.46.048-.397v-.049l.057-.332.028-.196.031-.255.005-.04.012-.085.06-.305.073-.374.048-.254.025-.11.072-.338.063-.282.01-.045.036-.145.048-.17.022-.078.091-.338.033-.13.011-.048.007-.025.03-.095.046-.152.002-.005.007-.026.077-.24.026-.078.066-.201.04-.144.11-.316.169-.435.024-.072.071-.167q.093-.232.19-.46l.04-.099.025-.072.002-.006.053-.095.016-.036.042-.105h-.005l.026-.052.008-.02.076-.149.12-.262H2.22l.032-.055.078-.133.052-.102.026-.053.01-.02.018-.032.069-.13.036-.072.01-.02.05-.089.05-.102.005-.004.009-.009.005-.008.09-.16.01-.019.002-.004.009-.013.044-.075.03-.055.01-.018.019-.03.003-.006H2.88l.035-.053.023-.034.002-.004.01-.022.009-.017v-.015h.015l.068-.121.03-.055.003-.005.007-.012.027-.043.402-.61h-.008l.04-.055.008-.018h.005l.46-.625.003-.005.011-.011.048-.06q.15-.196.306-.388l.15-.19.156-.176q.163-.188.33-.371l.107-.12.07-.07q.222-.235.453-.462l.093-.097.148-.135q.214-.202.435-.396H6.32l.072-.06.058-.049q.275-.236.56-.461l.075-.062.088-.066q.973-.75 2.043-1.356l.117-.069.074-.037q.348-.193.706-.37l.029-.016.041-.02q.37-.18.745-.346l.048-.022.036-.014a20 20 0 0 1 1.131-.448h-.011l.187-.063q.535-.187 1.086-.348h-.03l.242-.061q.466-.13.937-.24L14.6.641zm99.476 16.532h17.38q8.56 0 12.938 3.076 4.377 3.077 4.377 9.49 0 2.947-1.241 5.172-1.176 2.16-3.528 3.404t-5.554 1.374l-.066-.13q5.881.196 9.083 3.206 3.267 3.011 3.267 8.117 0 6.283-4.378 9.556-4.379 3.207-12.545 3.207h-19.733zm19.34 39.272q4.052 0 6.338-1.636 2.287-1.701 2.287-4.844 0-3.207-2.287-4.909-2.22-1.701-6.338-1.701h-10.846v13.09zm-2.221-19.767q4.247 0 6.534-1.571 2.352-1.636 2.352-4.582 0-3.075-2.287-4.582-2.222-1.57-6.599-1.57h-8.625v12.305zm25.699-7.985h7.841l.327 9.687-.719-.131q.784-4.974 2.94-7.266 2.157-2.29 6.012-2.29h3.201v7.2h-3.267q-2.744 0-4.508.785-1.7.786-2.614 2.487-.849 1.702-.849 4.32v20.16h-8.364zm37.96 35.738q-5.162 0-9.017-2.226-3.855-2.29-6.011-6.414t-2.156-9.622q0-5.499 2.156-9.622t6.011-6.349q3.855-2.29 9.017-2.291 5.097 0 8.952 2.291 3.92 2.226 6.011 6.349 2.157 4.124 2.157 9.622t-2.157 9.622q-2.09 4.124-6.011 6.414-3.855 2.226-8.952 2.226m0-6.808q4.052 0 6.273-3.01 2.221-3.011 2.222-8.444 0-5.367-2.222-8.378-2.221-3.077-6.273-3.076t-6.272 3.01q-2.222 3.012-2.222 8.444t2.222 8.444q2.221 3.01 6.272 3.01m17.453-28.93h8.56l6.73 25.461 7.056-25.461h7.253l7.057 25.461 6.796-25.461h8.559l-10.52 34.952h-8.625L238.3 40.204l-6.861 23.432h-8.625zM281 64.422q-5.031 0-8.625-1.44-3.529-1.505-5.488-4.19-1.895-2.683-2.157-6.152l8.56-.393q.457 2.814 2.287 4.32 1.895 1.44 5.423 1.44 3.006 0 4.64-.916 1.633-.982 1.633-3.011 0-1.178-.588-1.964-.588-.785-2.222-1.374t-4.835-1.178q-5.358-.917-8.429-2.226-3.006-1.374-4.312-3.338-1.308-2.03-1.307-5.106 0-4.974 3.79-7.985 3.855-3.01 10.977-3.011 6.796 0 10.585 3.273 3.856 3.207 4.639 8.509l-8.494.393q-.457-2.75-2.222-4.255-1.763-1.505-4.574-1.505-2.94 0-4.508 1.178-1.503 1.178-1.503 3.142 0 1.374.654 2.29.718.916 2.221 1.506 1.503.523 4.248.982 5.488.85 8.625 2.225 3.2 1.31 4.573 3.338 1.373 1.965 1.372 4.975 0 4.974-4.116 7.724-4.051 2.749-10.847 2.749m35.006 0q-5.163 0-9.017-2.226-3.856-2.29-6.012-6.414-2.091-4.124-2.091-9.622 0-5.433 2.091-9.556 2.157-4.19 5.946-6.415 3.856-2.29 8.887-2.291 4.965 0 8.69 2.226 3.79 2.225 5.815 6.48 2.091 4.254 2.091 10.014v1.898h-24.829q.195 4.517 2.417 6.873 2.287 2.356 6.077 2.356 2.81 0 4.639-1.243 1.83-1.245 2.614-3.6l8.559.523q-1.373 5.106-5.619 8.051t-10.258 2.946m7.71-21.535q-.262-4.124-2.352-6.218-2.091-2.16-5.554-2.16-3.398 0-5.62 2.16-2.156 2.16-2.613 6.218zm13.455-14.203h7.84l.327 9.687-.719-.131q.784-4.974 2.941-7.266 2.156-2.29 6.011-2.29h3.202v7.2h-3.268q-2.744 0-4.508.785-1.699.786-2.613 2.487-.85 1.702-.85 4.32v20.16h-8.363zm56.616 36q-5.62 0-9.867-2.16-4.182-2.16-6.469-6.153-2.223-3.993-2.222-9.36V17.098h8.494v29.913q.001 4.974 2.612 7.658 2.617 2.618 7.452 2.618 4.836 0 7.447-2.618 2.68-2.684 2.681-7.658V17.098h8.494v29.913q0 5.367-2.286 9.36c-1.528 2.662-3.682 4.712-6.47 6.152q-4.185 2.16-9.866 2.16m39.808-.262q-5.033 0-8.627-1.44-3.528-1.505-5.487-4.19-1.895-2.683-2.157-6.152l8.558-.393q.46 2.816 2.291 4.32 1.891 1.44 5.422 1.44 3.005 0 4.638-.916 1.633-.982 1.634-3.011-.001-1.178-.587-1.964-.591-.785-2.223-1.374t-4.834-1.178q-5.358-.917-8.43-2.226-3.003-1.374-4.312-3.338-1.308-2.03-1.308-5.106 0-4.974 3.792-7.985 3.852-3.01 10.974-3.011 6.798 0 10.588 3.273c2.571 2.138 4.114 4.974 4.637 8.509l-8.494.393q-.456-2.75-2.222-4.255-1.764-1.505-4.573-1.505-2.94 0-4.509 1.178-1.502 1.178-1.502 3.142 0 1.374.653 2.29.721.916 2.222 1.506 1.503.524 4.247.982 5.488.85 8.627 2.225c2.131.873 3.659 1.986 4.573 3.338q1.372 1.965 1.373 4.975 0 4.974-4.118 7.724c-2.7 1.832-6.318 2.749-10.846 2.749m35.005 0c-3.444 0-6.447-.742-9.018-2.226q-3.856-2.29-6.01-6.414-2.094-4.124-2.093-9.622 0-5.433 2.093-9.556 2.156-4.19 5.946-6.415 3.856-2.29 8.884-2.291 4.966 0 8.692 2.226 3.787 2.225 5.817 6.48 2.088 4.254 2.089 10.014v1.898h-24.83c.133 3.011.936 5.302 2.419 6.873q2.287 2.356 6.075 2.356 2.81 0 4.641-1.243 1.828-1.245 2.613-3.6l8.559.523q-1.37 5.106-5.62 8.051-4.244 2.946-10.257 2.946m7.709-21.535q-.26-4.123-2.351-6.218-2.092-2.16-5.556-2.16-3.396 0-5.619 2.16c-1.438 1.44-2.306 3.513-2.613 6.218z"/></svg>