<svg xmlns="http://www.w3.org/2000/svg" width="79" height="42" fill="none" viewBox="0 0 79 42"><g clip-path="url(#a)"><path fill="#fff" fill-rule="evenodd" d="M49.33 25.802c-2.788 0-5.056-2.245-5.056-5.004 0-2.76 2.268-5.004 5.056-5.004 2.787 0 5.056 2.245 5.056 5.004s-2.269 5.004-5.056 5.004m-39.32 0c-2.788 0-5.057-2.245-5.057-5.004q0-.09.004-.179h.028v-.382c.283-2.496 2.428-4.443 5.025-4.443 2.788 0 5.056 2.245 5.056 5.004S12.798 25.8 10.01 25.8m66.548-14.56v.002l-.054-.003c-1.373 0-2.48 1.258-2.48 2.795l-.01 6.737c-.014 2.73-2.261 4.948-5.025 4.948-2.771 0-5.024-2.23-5.024-4.973l-.007-9.507H58.98v6.924c-1.165-4.193-5.042-7.274-9.649-7.274-4.612 0-8.492 3.087-9.654 7.285v-6.87h-2.624l-.002.007c-1.312.077-2.364 1.3-2.363 2.788l.003 6.736c-.014 2.731-2.261 4.949-5.024 4.949-2.772 0-5.025-2.231-5.025-4.973l-.021-9.507h-4.964v6.846c-1.17-4.186-5.044-7.261-9.646-7.261-1.832 0-3.547.49-5.025 1.34l.007-9.436C4.992 1.258 3.869 0 2.496 0H0v20.798c0 5.47 4.482 9.906 10.01 9.906 4.881 0 8.943-3.458 9.828-8.033.886 4.575 4.947 8.033 9.828 8.033 4.887 0 8.954-3.469 9.83-8.053.878 4.585 4.945 8.053 9.834 8.053 4.895 0 8.967-3.48 9.836-8.075.894 4.564 4.95 8.01 9.823 8.01 1.834 0 3.55-.49 5.028-1.342v2.866c-.026 2.53-1.888 5.07-6.73 5.07-.637 0-1.244-.04-1.796-.11v2.474h.004c.032 1.329 1.051 2.405 2.58 2.403 0 0 1.076-.001 1.156-.003h.008c5.354-.128 9.661-4.416 9.755-9.725L79 11.242z" clip-rule="evenodd"/></g><defs><clipPath id="a"><path fill="#fff" d="M0 0h79v42H0z"/></clipPath></defs></svg>