<svg xmlns="http://www.w3.org/2000/svg" width="120" height="31" fill="none" viewBox="0 0 120 31"><g fill="#fff" clip-path="url(#a)"><path d="M44.849 24.278v1.884h-3.647V4.639h3.647v8.28c.867-1.226 2.482-2.063 4.425-2.063 4.454 0 7.113 3.168 7.113 7.772s-2.66 7.772-7.174 7.772c-1.823 0-3.497-.807-4.364-2.122m7.892-5.65c0-2.78-1.615-4.603-4.065-4.603s-4.065 1.823-4.065 4.604c0 2.78 1.613 4.603 4.065 4.603 2.45 0 4.065-1.824 4.065-4.604m20.148 7.534h-3.677v-2.333c-.838 1.645-2.541 2.571-4.693 2.571-3.379 0-5.59-2.45-5.59-5.979v-9.326h3.647v8.55c0 2.062 1.286 3.496 3.139 3.496 2.063 0 3.497-1.614 3.497-3.826v-8.221h3.677zm2.481-5.023h3.347c.15 1.435 1.255 2.332 2.899 2.332 1.435 0 2.391-.718 2.391-1.614 0-3.348-8.25-.15-8.25-6.516 0-2.631 2.301-4.484 5.41-4.484 3.528 0 5.95 1.943 6.099 4.872h-3.348c-.208-1.405-1.494-2.123-2.66-2.123-1.316 0-2.183.598-2.183 1.615 0 3.258 8.37-.329 8.37 6.486 0 2.84-2.301 4.693-5.829 4.693-3.645 0-6.067-2.032-6.247-5.261m14.858-16.5h3.646v8.789c.838-1.645 2.57-2.571 4.724-2.571 3.378 0 5.589 2.45 5.589 5.979v9.326h-3.646v-8.55c0-2.062-1.286-3.496-3.168-3.496-2.034 0-3.497 1.614-3.497 3.826v8.22h-3.647V4.64zM120 16.476v9.685h-3.617V23.92c-.627 1.495-2.362 2.482-4.513 2.482-2.99 0-5.023-1.913-5.023-4.514 0-2.93 2.272-4.753 5.65-4.753h2.781c.747 0 1.105-.419 1.105-1.016 0-1.465-1.136-2.512-3.079-2.512s-3.109 1.226-3.169 2.57h-3.288c.179-2.988 2.72-5.32 6.636-5.32 3.827 0 6.517 2.212 6.517 5.62m-3.617 3.318v-.24h-3.378c-1.554 0-2.6.867-2.6 2.183 0 1.166.956 1.943 2.332 1.943 2.3 0 3.646-1.615 3.646-3.886m-87.93 11.107a2.43 2.43 0 0 1-1.739-.729L.72 4.198A2.467 2.467 0 0 1 4.211.72l25.981 25.976a2.467 2.467 0 0 1-1.739 4.206m.002-14.952a2.46 2.46 0 0 1-1.74-.73L15.695 4.203A2.461 2.461 0 1 1 19.176.721l11.02 11.019a2.445 2.445 0 0 1 0 3.48 2.4 2.4 0 0 1-1.74.73M13.481 30.924a2.46 2.46 0 0 1-1.74-.73L.72 19.175a2.462 2.462 0 0 1 3.481-3.48l11.02 11.018a2.445 2.445 0 0 1 0 3.481 2.4 2.4 0 0 1-1.74.73"/></g><defs><clipPath id="a"><path fill="#fff" d="M0 0h120v31H0z"/></clipPath></defs></svg>