<svg xmlns="http://www.w3.org/2000/svg" width="132" height="40" fill="none" viewBox="0 0 132 40"><path fill="#fff" d="M50.607 32.564q-1.68 0-3.102-.655a5.5 5.5 0 0 1-2.219-1.934l.37-.74v2.987h-3.5V10.685h3.728v9.133l-.57-.768a5.34 5.34 0 0 1 2.163-1.935q1.365-.71 3.158-.71 2.19 0 3.955 1.08a7.9 7.9 0 0 1 2.788 2.902q1.052 1.821 1.052 4.097 0 2.247-1.024 4.097a7.8 7.8 0 0 1-2.788 2.93q-1.764 1.053-4.012 1.053m-.427-3.414q1.28 0 2.276-.598a4.03 4.03 0 0 0 1.536-1.65q.57-1.053.569-2.418 0-1.365-.569-2.39a4.03 4.03 0 0 0-1.536-1.65q-.996-.626-2.276-.626-1.224 0-2.22.598-.966.597-1.536 1.678-.54 1.053-.54 2.39 0 1.365.54 2.418.57 1.053 1.537 1.65a4.23 4.23 0 0 0 2.219.598m16.611 3.414q-1.792 0-3.13-.797a5.3 5.3 0 0 1-2.02-2.219q-.681-1.422-.682-3.329v-9.474h3.727v9.161q0 .967.37 1.707a3.04 3.04 0 0 0 1.11 1.139 3.4 3.4 0 0 0 1.65.398q.91 0 1.621-.398a3 3 0 0 0 1.11-1.167q.398-.74.398-1.764v-9.076h3.727v15.477h-3.528v-3.044l.313.54q-.54 1.424-1.792 2.134-1.224.712-2.874.712m17.235 0q-2.475 0-4.325-1.167-1.82-1.194-2.503-3.215l2.788-1.337q.597 1.31 1.65 2.049a4.14 4.14 0 0 0 2.39.74q1.023 0 1.621-.456.598-.455.598-1.195 0-.455-.256-.74a1.65 1.65 0 0 0-.655-.511 4 4 0 0 0-.882-.37l-2.532-.712q-1.962-.568-2.987-1.735-.996-1.167-.996-2.76 0-1.422.712-2.475.74-1.08 2.02-1.678 1.308-.598 2.987-.598 2.19 0 3.869 1.053t2.39 2.959l-2.845 1.337a3.43 3.43 0 0 0-1.337-1.679 3.7 3.7 0 0 0-2.106-.626q-.939 0-1.48.427-.54.427-.54 1.11 0 .426.228.74.227.313.626.511.427.2.967.37l2.475.74q1.907.57 2.93 1.707 1.054 1.138 1.053 2.788 0 1.395-.74 2.475-.739 1.053-2.048 1.65-1.308.598-3.072.598m15.78-.17q-2.617 0-4.068-1.423-1.422-1.452-1.423-4.069v-6.828H91.64v-3.329h.284q1.14 0 1.764-.597.627-.598.626-1.735v-1.195h3.727v3.527h3.557v3.33h-3.557v6.628q0 .768.256 1.309.285.54.854.825.597.285 1.508.284.198 0 .455-.028l.54-.057v3.186q-.398.057-.91.114a9 9 0 0 1-.939.057m11.898.17q-2.39 0-4.182-1.081a7.53 7.53 0 0 1-2.788-2.93q-.996-1.85-.996-4.097 0-2.333.996-4.126a7.7 7.7 0 0 1 2.76-2.873q1.763-1.053 3.926-1.053 1.82 0 3.187.598a6.8 6.8 0 0 1 2.361 1.65 7.4 7.4 0 0 1 1.479 2.418q.512 1.337.512 2.902 0 .397-.057.825a2.7 2.7 0 0 1-.142.74H106.81v-2.845h9.843l-1.763 1.337q.255-1.309-.142-2.333a3.24 3.24 0 0 0-1.252-1.622q-.853-.597-2.077-.597-1.167 0-2.077.597-.91.57-1.394 1.707-.456 1.11-.342 2.703-.113 1.422.37 2.532a3.87 3.87 0 0 0 1.48 1.679q.995.597 2.275.597 1.282 0 2.162-.54a3.87 3.87 0 0 0 1.424-1.451l3.015 1.479a5.26 5.26 0 0 1-1.422 1.963q-.968.854-2.304 1.337-1.31.484-2.903.484m10.08-.342V16.745h3.499v3.443l-.284-.512q.541-1.736 1.679-2.418 1.166-.684 2.788-.683h.911v3.3h-1.338q-1.593 0-2.56.996-.968.967-.968 2.731v8.62z"/><path stroke="#fff" stroke-width="1.876" d="M2.419 27.402a4.314 4.314 0 0 0 6.26 0l10.99-11.405c1.729-1.794 1.729-4.702 0-6.496a4.314 4.314 0 0 0-6.26 0l-3.444 4.428m19.73 6.103c1.729 1.794 1.729 4.703 0 6.497L19.08 37.544a4.314 4.314 0 0 1-6.261 0c-1.729-1.794-1.729-4.703 0-6.497l7.706-7.98M11.014 12.58c1.883-2.421 1.05-1.35 2.341-3.221a4.314 4.314 0 0 1 6.261 0l10.199 10.583c1.728 1.794 1.728 4.702 0 6.496a4.314 4.314 0 0 1-6.261 0l-6.729-7.49m-6.86 4.997c0 2.537-1.982 4.594-4.427 4.594s-4.427-2.057-4.427-4.594V5.705c0-2.537 1.982-4.594 4.427-4.594s4.427 2.057 4.427 4.594z"/></svg>