<svg xmlns="http://www.w3.org/2000/svg" viewBox="0 0 97 28"><defs><clipPath id="b"><path fill="#fff" d="M0 0h94.475v21.274H0z" data-name="Rectangle 3520"/></clipPath><clipPath id="a"><path d="M0 0h97v28H0z"/></clipPath></defs><g clip-path="url(#a)" data-name="Group 59"><g fill="#fff" clip-path="url(#b)" data-name="Group 50" transform="translate(1.263 1.439)"><path d="M9.785 17.002a3.54 3.54 0 0 1-1.957.568 3.66 3.66 0 0 1-3.316-1.984 4.5 4.5 0 0 1-.478-2.137 4.6 4.6 0 0 1 .478-2.151 3.63 3.63 0 0 1 1.314-1.452 3.6 3.6 0 0 1 1.942-.523 3.77 3.77 0 0 1 1.957.523 3.24 3.24 0 0 1 1.3 1.389l3.7-1.315a6.37 6.37 0 0 0-2.689-3.2 7.84 7.84 0 0 0-4.089-1.102 8.3 8.3 0 0 0-4.123 1 7.27 7.27 0 0 0-2.808 2.768A8 8 0 0 0 0 13.446a8 8 0 0 0 1.016 4.049 7.2 7.2 0 0 0 2.838 2.779 8.5 8.5 0 0 0 4.154 1 7.5 7.5 0 0 0 4.108-1.166 6.84 6.84 0 0 0 2.7-3.287l-3.736-1.315A3.44 3.44 0 0 1 9.78 17" data-name="Path 312"/><path d="M27.728 7.578a5.7 5.7 0 0 0-1.04-.97 5.47 5.47 0 0 0-3.269-.991 6.95 6.95 0 0 0-3.756.991 6.63 6.63 0 0 0-2.468 2.8 9.6 9.6 0 0 0-.88 4.26 8.6 8.6 0 0 0 .88 4.025 6.46 6.46 0 0 0 2.468 2.641 7.2 7.2 0 0 0 3.756.943 5.73 5.73 0 0 0 3.269-.928 5.5 5.5 0 0 0 1.04-.906v1.483h3.944V5.977h-3.944Zm-.485 8.148a3.6 3.6 0 0 1-1.242 1.509 3.2 3.2 0 0 1-1.871.549 3.6 3.6 0 0 1-1.965-.549 3.66 3.66 0 0 1-1.335-1.509 5.03 5.03 0 0 1 0-4.386 3.53 3.53 0 0 1 3.269-2.012 3.3 3.3 0 0 1 1.871.534 3.63 3.63 0 0 1 1.258 1.478 5 5 0 0 1 .455 2.2 5.2 5.2 0 0 1-.44 2.185" data-name="Path 313"/><path d="M44.06 17.002a3.54 3.54 0 0 1-1.957.568 3.66 3.66 0 0 1-3.32-1.984 4.5 4.5 0 0 1-.478-2.137 4.6 4.6 0 0 1 .478-2.151 3.63 3.63 0 0 1 1.314-1.452 3.6 3.6 0 0 1 1.942-.523 3.77 3.77 0 0 1 1.957.523 3.24 3.24 0 0 1 1.3 1.389l3.7-1.315a6.37 6.37 0 0 0-2.689-3.2 7.84 7.84 0 0 0-4.094-1.105 8.3 8.3 0 0 0-4.123 1 7.27 7.27 0 0 0-2.803 2.771 8 8 0 0 0-1.016 4.063 8 8 0 0 0 1.016 4.049 7.2 7.2 0 0 0 2.838 2.779 8.5 8.5 0 0 0 4.154 1 7.5 7.5 0 0 0 4.108-1.166 6.84 6.84 0 0 0 2.7-3.287l-3.727-1.316a3.44 3.44 0 0 1-1.3 1.494" data-name="Path 314"/><path d="M62.73 6.334a5.97 5.97 0 0 0-3.033-.717 5.1 5.1 0 0 0-2.973.881 5.2 5.2 0 0 0-1.359 1.4V0h-3.944v20.915h3.944v-7.829a4.25 4.25 0 0 1 .822-2.838 2.85 2.85 0 0 1 2.346-.926 2.8 2.8 0 0 1 1.463.373 2.5 2.5 0 0 1 .986 1.211 6.2 6.2 0 0 1 .359 2.36v7.65h3.944v-8.457a9.9 9.9 0 0 0-.658-3.9 4.6 4.6 0 0 0-1.9-2.226" data-name="Path 315"/><path d="M81.672 9.668a7.3 7.3 0 0 0-2.659-3.02 6.75 6.75 0 0 0-3.631-1.03 7.96 7.96 0 0 0-4.019 1 7.25 7.25 0 0 0-2.748 2.768 8.1 8.1 0 0 0-1 4.064 8.3 8.3 0 0 0 .971 4.063 7.1 7.1 0 0 0 2.675 2.764 7.6 7.6 0 0 0 3.914 1 9.5 9.5 0 0 0 3.137-.478 6.8 6.8 0 0 0 2.375-1.389 7.3 7.3 0 0 0 1.629-2.166l-3.527-1.378a3.315 3.315 0 0 1-3.2 1.883 4.24 4.24 0 0 1-1.9-.433 3.63 3.63 0 0 1-1.434-1.255 3.25 3.25 0 0 1-.535-1.568h10.953a10.6 10.6 0 0 0-1-4.824m-7.873-.4a4.1 4.1 0 0 1 1.463-.3 3.8 3.8 0 0 1 1.42.3 3 3 0 0 1 1.24.941 2.5 2.5 0 0 1 .491 1.359h-6.475a2.37 2.37 0 0 1 .534-1.359 3.3 3.3 0 0 1 1.33-.941" data-name="Path 316"/><path d="M93.101 17.091a3.5 3.5 0 0 1-.748.4 1.9 1.9 0 0 1-.657.134 1.52 1.52 0 0 1-1.225-.493 2.18 2.18 0 0 1-.419-1.449V9.322h3.736V5.976h-3.735V1.314h-3.944v4.66h-2.42v3.348h2.42v7.232a4.63 4.63 0 0 0 1.27 3.495 5.2 5.2 0 0 0 3.75 1.226 4.8 4.8 0 0 0 1.748-.344 6.7 6.7 0 0 0 1.6-.882Z" data-name="Path 317"/></g></g></svg>