<svg xmlns="http://www.w3.org/2000/svg" width="186" height="40" fill="none" viewBox="0 0 186 40"><mask id="a" width="32" height="32" x="0" y="4" maskUnits="userSpaceOnUse" style="mask-type:luminance"><path fill="#fff" d="M31.164 4.625H.412v30.75h30.75z"/></mask><g mask="url(#a)"><path fill="#fff" d="M6.985 14.049h16.243V9.585H6.985z"/><path fill="#fff" d="M9.216 25.456V9.585H5.372v15.871z"/><mask id="b" width="62" height="63" x="0" y="4" maskUnits="userSpaceOnUse" style="mask-type:luminance"><path fill="#fff" d="M61.914 35.376c0-16.983-13.767-30.751-30.75-30.751S.412 18.392.412 35.375v.125c0 16.983 13.768 30.75 30.75 30.75 16.984 0 30.751-13.767 30.751-30.75z"/></mask><g mask="url(#b)"><path fill="#000" d="M61.914 35.376c0-16.983-13.767-30.751-30.75-30.751S.412 18.392.412 35.375v.125c0 16.983 13.768 30.75 30.75 30.75 16.984 0 30.751-13.767 30.751-30.75z"/><path fill="#fff" d="M31.632 13.429H12.335v4.96h19.297z"/><path fill="#fff" d="M14.548 26.572V13.43h-4.96v13.143zm16.74-21.947H.413v4.96h30.875zm-.124 25.791H.412v4.96h30.75z"/><path fill="#fff" d="M.413 4.377v30.875h4.96V4.377zm31.219 17.235H12.335v4.96h19.297z"/></g></g><path fill="#fff" d="M50.694 30.364q-3.22 0-5.528-1.366-2.307-1.397-3.553-3.857-1.245-2.49-1.245-5.74t1.245-5.74q1.246-2.492 3.553-3.888 2.31-1.398 5.528-1.397 3.827 0 6.256 1.913 2.46 1.883 3.068 5.315h-4.283q-.395-1.731-1.7-2.703-1.276-1.002-3.402-1.002-2.946 0-4.616 2.004t-1.67 5.497 1.67 5.498q1.67 1.974 4.616 1.974 2.126 0 3.402-.911 1.305-.942 1.7-2.582h4.283q-.608 3.28-3.068 5.133-2.43 1.852-6.256 1.852m16.349 0q-1.945 0-3.19-.607-1.245-.638-1.852-1.67a4.4 4.4 0 0 1-.607-2.278q0-2.095 1.64-3.402t4.92-1.306h3.827v-.364q0-1.55-.881-2.278-.88-.729-2.187-.729-1.185 0-2.065.577-.881.547-1.093 1.64h-3.797q.152-1.64 1.094-2.855.971-1.215 2.49-1.852 1.518-.669 3.401-.669 3.22 0 5.072 1.61 1.853 1.61 1.853 4.556V30h-3.31l-.365-2.43a5.6 5.6 0 0 1-1.883 2.005q-1.185.79-3.067.79m.88-3.037q1.671 0 2.582-1.093.942-1.093 1.184-2.703h-3.31q-1.55 0-2.217.577-.668.546-.668 1.367 0 .88.668 1.366t1.761.486m16.162 3.037q-2.004 0-3.523-.637-1.518-.668-2.43-1.823a5.23 5.23 0 0 1-1.093-2.672h3.918q.183.88.972 1.518.82.608 2.096.608 1.275 0 1.852-.517.608-.516.608-1.184 0-.972-.85-1.306-.851-.364-2.37-.699a26 26 0 0 1-1.974-.516 10 10 0 0 1-1.852-.76 4.3 4.3 0 0 1-1.337-1.214q-.516-.76-.516-1.853 0-2.005 1.58-3.37 1.608-1.368 4.494-1.368 2.674 0 4.252 1.246 1.609 1.245 1.913 3.432h-3.674q-.334-1.67-2.521-1.67-1.094-.001-1.701.424-.577.426-.577 1.063 0 .669.88 1.063.881.395 2.34.73a28 28 0 0 1 2.884.82q1.337.425 2.126 1.305.79.85.79 2.46a4.23 4.23 0 0 1-.729 2.521q-.759 1.124-2.187 1.762t-3.37.637M98.535 30q-2.37 0-3.797-1.154t-1.427-4.1v-6.56h-2.582v-3.25h2.582l.456-4.04h3.431v4.04h4.07v3.25h-4.07v6.59q0 1.093.456 1.519.486.394 1.64.394h1.883V30zm4.552 0V14.936h3.432l.334 2.035a5.26 5.26 0 0 1 1.914-1.731q1.215-.669 2.794-.669 3.492 0 4.95 2.703a5.9 5.9 0 0 1 2.187-1.974 6.5 6.5 0 0 1 3.037-.729q2.946 0 4.525 1.762 1.58 1.761 1.58 5.163V30h-3.888v-8.14q0-1.943-.759-2.976-.729-1.032-2.278-1.033-1.58 0-2.551 1.155-.942 1.153-.942 3.219V30h-3.887v-8.14q0-1.943-.759-2.976-.76-1.032-2.339-1.033-1.55 0-2.521 1.155-.94 1.153-.941 3.219V30zm32.118.364q-1.944 0-3.189-.607-1.245-.638-1.852-1.67a4.4 4.4 0 0 1-.608-2.278q0-2.095 1.64-3.402 1.641-1.306 4.92-1.306h3.827v-.364q0-1.55-.881-2.278-.88-.729-2.186-.729-1.184 0-2.066.577-.88.547-1.093 1.64h-3.796q.151-1.64 1.093-2.855.972-1.215 2.49-1.852 1.52-.669 3.402-.669 3.22 0 5.072 1.61t1.852 4.556V30h-3.31l-.364-2.43a5.6 5.6 0 0 1-1.883 2.005q-1.184.79-3.068.79m.881-3.037q1.67 0 2.582-1.093.94-1.093 1.184-2.703h-3.31q-1.55 0-2.218.577-.668.546-.668 1.367 0 .88.668 1.366.669.486 1.762.486m16.314-1.822a8 8 0 0 1-2.036-.243l-1.123 1.124q.517.273 1.398.455t2.854.365q3.007.273 4.373 1.427 1.367 1.155 1.367 3.19a4.73 4.73 0 0 1-.729 2.52q-.728 1.215-2.247 1.944-1.519.759-3.887.759-3.221 0-5.194-1.215-1.975-1.184-1.975-3.584 0-2.034 1.975-3.523a7.4 7.4 0 0 1-1.063-.577 6 6 0 0 1-.759-.638v-.698l2.642-2.794q-1.762-1.55-1.762-3.979 0-1.518.729-2.764.76-1.245 2.126-1.974 1.367-.729 3.311-.729 1.275 0 2.369.365h5.71v2.369l-2.582.182q.606 1.155.607 2.551 0 1.52-.728 2.764-.73 1.245-2.126 1.974-1.368.729-3.25.729m0-2.976q1.184 0 1.943-.638.79-.638.79-1.822t-.79-1.823q-.758-.637-1.943-.637-1.246 0-2.004.637-.76.639-.76 1.823 0 1.185.76 1.822.758.638 2.004.638m-3.644 9.323q0 1.125 1.031 1.67 1.064.579 2.583.578 1.457 0 2.369-.607.91-.578.911-1.58a1.76 1.76 0 0 0-.609-1.366q-.577-.547-2.338-.669-1.245-.09-2.307-.273-.881.486-1.276 1.063-.364.578-.364 1.184m15.134-19.255q-1.063 0-1.761-.637-.669-.639-.669-1.61t.669-1.58q.698-.637 1.761-.637 1.064 0 1.731.638.699.607.699 1.579 0 .971-.699 1.61-.667.637-1.731.637M161.946 30V14.936h3.888V30zm13.807.364q-2.309 0-4.07-1.002a7.4 7.4 0 0 1-2.794-2.794q-1.002-1.792-1.002-4.1 0-2.309 1.002-4.1a7.4 7.4 0 0 1 2.794-2.794q1.761-1.003 4.07-1.003 2.885 0 4.86 1.519 1.974 1.488 2.52 4.13h-4.1q-.304-1.092-1.214-1.7-.881-.638-2.096-.638-1.61 0-2.734 1.215t-1.123 3.37q0 2.157 1.123 3.372 1.125 1.215 2.734 1.215 1.215 0 2.096-.608.91-.607 1.214-1.73h4.1q-.546 2.55-2.52 4.1-1.975 1.548-4.86 1.548"/></svg>