<svg xmlns="http://www.w3.org/2000/svg" width="112" height="40" fill="none" viewBox="0 0 112 40"><path fill="#fff" d="M17.9 30.978a6.8 6.8 0 0 1-1.584 1.344 4.1 4.1 0 0 1-2.202.568q-2.917 0-4.53-1.756-1.611-1.756-1.611-4.602 0-2.841 1.612-4.601t4.53-1.78a4.64 4.64 0 0 1 2.2.54 4.3 4.3 0 0 1 1.586 1.37c.208-.842.49-1.663.842-2.455a16.1 16.1 0 0 1 2.707-4.21 9.7 9.7 0 0 0-2.707-1.309 15.7 15.7 0 0 0-4.632-.748 15.5 15.5 0 0 0-5.392.926 13 13 0 0 0-4.4 2.662 12.5 12.5 0 0 0-2.945 4.159 13.3 13.3 0 0 0-1.076 5.428 13.3 13.3 0 0 0 1.073 5.414 12.5 12.5 0 0 0 2.942 4.162 13 13 0 0 0 4.406 2.677c1.735.629 3.568.944 5.413.93a15.7 15.7 0 0 0 4.632-.75 9.7 9.7 0 0 0 2.707-1.308 16.1 16.1 0 0 1-2.707-4.21 15.5 15.5 0 0 1-.842-2.454zm66.464-.001a6.7 6.7 0 0 1-1.585 1.345 4.1 4.1 0 0 1-2.201.568q-2.92 0-4.53-1.756t-1.612-4.602q0-2.841 1.612-4.601t4.53-1.78a4.64 4.64 0 0 1 2.201.54 4.3 4.3 0 0 1 1.585 1.37c.208-.842.49-1.663.842-2.455a16.1 16.1 0 0 1 2.707-4.21 9.7 9.7 0 0 0-2.707-1.309 15.7 15.7 0 0 0-4.632-.749 15.5 15.5 0 0 0-5.413.93 13 13 0 0 0-4.4 2.661 12.5 12.5 0 0 0-2.941 4.16 13.3 13.3 0 0 0-1.074 5.413 13.3 13.3 0 0 0 1.074 5.414 12.5 12.5 0 0 0 2.94 4.162 13 13 0 0 0 4.425 2.689c1.735.628 3.568.943 5.413.93a15.7 15.7 0 0 0 4.632-.75 9.7 9.7 0 0 0 2.692-1.308 16.1 16.1 0 0 1-2.707-4.21 15.5 15.5 0 0 1-.842-2.455z"/><path fill="#fff" d="M45.14 34.737a12.26 12.26 0 0 1-4.656 3.67 13.9 13.9 0 0 1-5.834 1.292 15.1 15.1 0 0 1-5.414-.929 13 13 0 0 1-4.4-2.662 12.5 12.5 0 0 1-2.941-4.162 13.3 13.3 0 0 1-1.074-5.414 13.3 13.3 0 0 1 1.074-5.413 12.4 12.4 0 0 1 2.941-4.16 13 13 0 0 1 4.4-2.661 15.6 15.6 0 0 1 5.414-.93 12.2 12.2 0 0 1 4.836.93 10.1 10.1 0 0 1 3.684 2.661 12.2 12.2 0 0 1 2.328 4.16 16.9 16.9 0 0 1 .818 5.413v2.43H28.508a6.14 6.14 0 0 0 1.994 3.52 5.6 5.6 0 0 0 3.78 1.323 5.7 5.7 0 0 0 3.198-.855 8.7 8.7 0 0 0 2.276-2.198l5.375 3.979zm-6.5-11.062a4.57 4.57 0 0 0-4.706-4.755 5.58 5.58 0 0 0-3.91 1.474 4.65 4.65 0 0 0-1.074 1.504 5 5 0 0 0-.436 1.783zM90.61 0h7.676v39.38H90.61zm11.228 13.356h7.675V39.38h-7.675zm-37.766 7.36c.114-.3.24-.629.376-.936a15.7 15.7 0 0 1 3.696-5.218c.076-.069.148-.135.226-.201a14.4 14.4 0 0 0-4.087-.87c-.301-.017-.635-.05-.963-.05-1.503 0-4.79.529-6.661 2.231h-.1v-1.504h-7.798v25.095h8.093V26.235c.018-.591.12-1.176.3-1.739a5.5 5.5 0 0 1 .963-1.84 5.6 5.6 0 0 1 1.778-1.44 5.7 5.7 0 0 1 2.74-.602c.327 0 .667.018 1.01.05l.433.049z"/><path fill="#a2a2a2" d="M101.224 6.048a4.37 4.37 0 0 1 1.305-3.179 4.42 4.42 0 0 1 4.851-.974c.541.226 1.03.557 1.441.974a4.35 4.35 0 0 1 1.305 3.18 4.35 4.35 0 0 1-1.305 3.179 4.4 4.4 0 0 1-3.146 1.316 4.42 4.42 0 0 1-3.146-1.317 4.36 4.36 0 0 1-1.305-3.179"/></svg>