<svg xmlns="http://www.w3.org/2000/svg" width="151" height="40" fill="none" viewBox="0 0 151 40"><path fill="#fff" d="M40.002 9.508v20.991A9.5 9.5 0 0 1 30.5 40H9.499A9.5 9.5 0 0 1 0 30.5V9.505C0 4.256 4.256 0 9.504 0h20.99c5.25.002 9.508 4.257 9.508 9.508"/><path fill="#000" d="M30.92 23.25c-.215 2.864-1.982 5.506-4.415 7.027-.89.556-1.86.97-2.87 1.248l-.507-5.88c.776-.573 1.33-1.473 1.387-2.435zm.007-6.17-6.41.002c.018-1.06-.544-2.094-1.386-2.735-.846-.643-1.944-.91-3-.829-.46.034-.92.137-1.35.301L15.56 8.976c1.915-.803 4.076-1.063 6.157-.862 2.138.206 4.274.895 5.927 2.265 1.967 1.634 3.102 4.15 3.283 6.701"/><path fill="#000" d="M23.635 31.525c-1.752.479-3.625.547-5.42.239-2.061-.356-4.066-1.208-5.607-2.622-3.782-3.481-4.354-9.836-2.537-14.435.638-1.612 1.627-3.094 2.965-4.209a9.9 9.9 0 0 1 2.522-1.519l3.22 4.843a4.4 4.4 0 0 0-1.13.64c-1.626 1.293-2.025 3.597-2.007 5.681.017 2.003.431 4.219 2.027 5.43.718.546 1.617.825 2.52.878.998.056 2.03-.171 2.853-.743l.087-.06z"/><path fill="#fff" d="M66.786 18.06h-2.4a3.8 3.8 0 0 0-.516-1.392q-.378-.601-.923-1.022a4 4 0 0 0-1.22-.633 4.7 4.7 0 0 0-1.428-.213q-1.362 0-2.435.704-1.073.705-1.694 2.065-.619 1.362-.619 3.324 0 1.979.62 3.34.618 1.362 1.696 2.059 1.076.697 2.424.697.745 0 1.42-.21.672-.21 1.219-.62.545-.412.927-1.01.38-.598.527-1.374l2.4.009a6.7 6.7 0 0 1-.742 2.195 6 6 0 0 1-1.407 1.725 6.3 6.3 0 0 1-1.96 1.12 7 7 0 0 1-2.4.396q-2.046 0-3.646-1.001-1.6-1.002-2.52-2.87-.92-1.867-.92-4.454 0-2.596.923-4.46.923-1.865 2.524-2.866t3.638-1.002q1.254-.001 2.343.37a6.3 6.3 0 0 1 1.958 1.075 6 6 0 0 1 1.44 1.725q.57 1.016.771 2.323m4.963 3.719v7.218h-2.3v-16.21h2.27v6.032h.145a3.5 3.5 0 0 1 1.269-1.56q.854-.578 2.23-.578 1.215-.001 2.129.514.91.515 1.415 1.53.505 1.02.504 2.538v7.733h-2.3V21.55q0-1.338-.67-2.077-.67-.741-1.862-.741-.815 0-1.458.357a2.5 2.5 0 0 0-1.008 1.04q-.364.686-.364 1.651m14.18 7.487q-1.124 0-2.032-.431a3.4 3.4 0 0 1-1.434-1.255q-.528-.822-.528-2.018 0-1.028.384-1.693a2.9 2.9 0 0 1 1.039-1.052 5.3 5.3 0 0 1 1.461-.586 14 14 0 0 1 1.646-.3q1.061-.127 1.723-.21.662-.085.963-.273.3-.19.3-.617v-.056q0-1.037-.566-1.607-.565-.57-1.681-.57-1.163 0-1.827.526-.665.528-.92 1.167l-2.162-.506q.386-1.108 1.127-1.793a4.6 4.6 0 0 1 1.712-.997 6.6 6.6 0 0 1 2.038-.313q.707 0 1.504.17a4.4 4.4 0 0 1 1.492.621q.696.452 1.141 1.286.447.834.447 2.165v8.073H89.51v-1.663h-.094a3.3 3.3 0 0 1-.67.902q-.446.444-1.146.736-.694.294-1.671.294m.499-1.9q.953 0 1.635-.387.68-.388 1.039-1.016.358-.63.358-1.35v-1.566q-.123.126-.473.233a7 7 0 0 1-.797.183q-.446.075-.87.135-.422.06-.708.098a5.5 5.5 0 0 0-1.22.293q-.551.205-.877.59-.328.385-.327 1.017 0 .878.631 1.326.631.443 1.609.445m13.91-10.528v1.9h-6.454v-1.9zm-4.724-2.912h2.3v11.5q0 .688.2 1.034.2.345.52.466.318.123.696.122.277 0 .486-.039l.323-.062.416 1.955a4 4 0 0 1-.57.162 4.6 4.6 0 0 1-.924.092q-.907.016-1.693-.333a2.9 2.9 0 0 1-1.269-1.076q-.485-.729-.485-1.829zm7.695 15.071v-16.21h2.3v6.023h.139q.2-.38.576-.878.378-.5 1.047-.874.67-.375 1.77-.375 1.43 0 2.554.744 1.124.743 1.766 2.145.642 1.4.643 3.37 0 1.97-.64 3.377-.639 1.405-1.754 2.16-1.116.756-2.547.756-1.078 0-1.758-.372t-1.065-.871a6.5 6.5 0 0 1-.592-.887h-.193V29zm2.253-6.08q0 1.281.362 2.248t1.047 1.507q.683.543 1.678.543 1.03.001 1.723-.566.693-.566 1.051-1.54t.358-2.192q0-1.202-.35-2.16-.35-.956-1.047-1.512-.697-.554-1.735-.555-1 0-1.689.531-.687.532-1.042 1.48-.356.95-.356 2.216m14.556 6.348q-1.124 0-2.031-.431a3.4 3.4 0 0 1-1.434-1.255q-.528-.822-.528-2.018 0-1.028.384-1.693a2.9 2.9 0 0 1 1.038-1.052 5.4 5.4 0 0 1 1.462-.586 14 14 0 0 1 1.646-.3q1.061-.127 1.723-.21.661-.085.963-.273.299-.19.299-.617v-.056q0-1.037-.565-1.607t-1.681-.57q-1.163 0-1.827.526-.664.528-.92 1.167l-2.162-.506q.386-1.108 1.127-1.793a4.6 4.6 0 0 1 1.711-.997 6.6 6.6 0 0 1 2.039-.313q.707 0 1.503.17a4.4 4.4 0 0 1 1.492.621q.697.452 1.144 1.286t.446 2.165v8.073h-2.246v-1.663h-.093a3.3 3.3 0 0 1-.67.902q-.447.444-1.147.736-.694.294-1.673.294m.501-1.9q.954 0 1.636-.387.68-.388 1.038-1.016.359-.63.359-1.35v-1.566q-.124.126-.474.233a7 7 0 0 1-.796.183q-.446.075-.87.135-.422.06-.707.098a5.5 5.5 0 0 0-1.219.293q-.55.205-.878.59t-.327 1.017q0 .878.631 1.326.63.443 1.607.445m17.25-7.559-2.086.38a2.6 2.6 0 0 0-.411-.783 2.1 2.1 0 0 0-.758-.609q-.477-.238-1.192-.237-.977 0-1.631.447-.654.445-.654 1.152 0 .61.438.98.438.374 1.415.61l1.878.443q1.632.387 2.431 1.196.799.807.8 2.097a3.25 3.25 0 0 1-.613 1.944q-.611.85-1.699 1.332-1.09.483-2.521.483-1.985 0-3.239-.875-1.255-.874-1.539-2.49l2.224-.348q.208.894.854 1.35.648.453 1.685.454 1.131 0 1.808-.487.678-.487.677-1.19 0-.57-.411-.958t-1.259-.585l-2.001-.452q-1.654-.388-2.442-1.234-.788-.848-.788-2.145 0-1.075.585-1.884.584-.808 1.615-1.262 1.031-.455 2.361-.455 1.916 0 3.016.85 1.103.851 1.457 2.275m7.846 9.435q-1.745 0-3.004-.771t-1.938-2.177-.682-3.297q0-1.867.682-3.293.68-1.424 1.908-2.224t2.874-.8q.999 0 1.938.34a4.7 4.7 0 0 1 1.685 1.069q.746.727 1.177 1.887t.432 2.813v.84h-9.395v-1.773h7.14q0-.935-.369-1.658a2.87 2.87 0 0 0-1.035-1.144q-.665-.419-1.558-.419-.97 0-1.688.487a3.25 3.25 0 0 0-1.108 1.267 3.7 3.7 0 0 0-.389 1.69v1.385q0 1.219.419 2.074t1.174 1.302q.755.449 1.763.447a3.5 3.5 0 0 0 1.192-.195q.539-.193.931-.581.392-.39.6-.958l2.177.404a4.05 4.05 0 0 1-.935 1.73 4.5 4.5 0 0 1-1.685 1.146q-1.012.409-2.306.41"/></svg>