<svg xmlns="http://www.w3.org/2000/svg" width="208" height="60" fill="none" viewBox="0 0 208 60"><path fill="#fff" d="M.6 11.1C.6 4.9 5.5 0 12 0s8.3 3.6 8.3 3.6l-4.2 3.6s-1.3-1.9-4.2-1.9S6.4 7.7 6.4 11s2.3 5.7 5.5 5.7 4.6-2.2 4.6-2.2l4 3.5s-2.5 4-8.7 4S.6 17.3.6 11.1m51.2 0C51.8 4.9 56.7 0 63.2 0s8.3 3.6 8.3 3.6l-4.2 3.6S66 5.3 63.1 5.3s-5.5 2.4-5.5 5.7 2.3 5.7 5.5 5.7 4.6-2.2 4.6-2.2l4 3.5s-2.5 4-8.7 4-11.2-4.7-11.2-10.9m40.2 0C92 4.9 96.9 0 103.4 0s8.4 3.4 8.4 3.4l-4.1 4.1s-1.4-2.2-4.4-2.2-5.5 2.4-5.5 5.7 2.3 5.7 5.5 5.7 4-1.1 4.6-3.1H103V9.5h10.7s.1.8.1 1.6c0 6-4.1 10.8-10.6 10.8S92 17.2 92 11zM126.099 0c6.4 0 11.2 4.7 11.2 10.9s-4.9 11.1-11.4 11.1-11.2-4.7-11.2-10.9 4.9-11.1 11.4-11.1m-.1 16.7c3.2 0 5.5-2.4 5.5-5.7s-2.3-5.7-5.5-5.7-5.5 2.4-5.5 5.7 2.3 5.7 5.5 5.7M21.7.299h5.8v7.8h7.6v-7.8h5.8v21.4h-5.8v-8.4h-7.6v8.4h-5.8zm28.1 0v21.4h-6V.299zm29.4 0H85l8.4 21.4H87l-1.3-3.7h-7.6l-1.3 3.7h-6.1l8.4-21.4zm4.9 13.1-2.2-6.4-2.2 6.4zM57.5 48.1c0-6.2 4.9-11.1 11.4-11.1s8.3 3.6 8.3 3.6L73 44.2s-1.3-1.9-4.2-1.9-5.5 2.4-5.5 5.7 2.3 5.7 5.5 5.7 4.6-2.2 4.6-2.2l4 3.5s-2.5 4-8.7 4-11.2-4.7-11.2-10.9m144.199-2.5c2.8 1.2 5.9 3.1 5.9 6.8s-3.2 6.7-8 6.7-8.5-3.4-8.5-3.4l3.4-3.7s2.4 2.4 5.3 2.4 1.8-.5 1.8-1.3-.9-1.7-4.5-3.3c-2.7-1.2-4.9-3.1-4.9-6.3s3.1-6.4 7.7-6.4 7.5 2.9 7.5 2.9l-3.4 3.7s-1.7-1.9-4.1-1.9-1.8.6-1.8 1.2c0 .9.6 1.5 3.4 2.7zM.1 37.299h10c4.2 0 6.9 2.3 6.9 5.6s-1 3.6-2.8 4.7c2.3.9 3.7 2.8 3.7 5.2 0 3.4-3 6-7.3 6H0v-21.5zm8.7 8.4c1.6 0 2.4-.9 2.4-2s-.8-2-2.4-2H5.9v4zm.7 8.6c1.7 0 2.6-1 2.6-2.2s-.9-2.2-2.6-2.2H5.8v4.4zm10.398-17h5.8v16.2h9.8v5.2h-15.6zm24.602 0h5.8l8.4 21.4h-6.4l-1.3-3.7h-7.6l-1.3 3.7H36l8.4-21.4zm5 13.1-2.2-6.4-2.2 6.4zm29.398-13.1h5.8v9.3l6.9-9.3h7.2l-8.2 10.1 8.9 11.3h-7.2l-7.5-10v10h-5.8v-21.4zm21.401 0h5.8v7.8h7.6v-7.8h5.8v21.4h-5.8v-8.4h-7.6v8.4h-5.8zm28.599 0h5.8l8.4 21.4h-6.4l-1.3-3.7h-7.6l-1.3 3.7h-6.1l8.4-21.4zm4.9 13.1-2.2-6.4-2.2 6.4zm11.601-13.1 3.8 12.5 3.6-12.5h4.1l3.6 12.5 3.8-12.5h6.1l-7.2 21.4h-5l-3.5-11.7-3.4 11.7h-5l-7.2-21.4h6.4z"/><path fill="#fff" d="M171.199 37.299h5.8v9.3l6.9-9.3h7.2l-8.2 10.1 8.9 11.3h-7.2l-7.5-10v10h-5.8v-21.4z"/></svg>