<svg xmlns="http://www.w3.org/2000/svg" width="240" height="123" fill="none" viewBox="0 0 240 123"><path fill="#fff" d="M36.045 78.329C15.997 78.329 0 63.199 0 43.23 0 23.365 15.997 8.131 36.045 8.131c12.88 0 23.58 6.176 29.397 15.646l-8.31 6.072c-4.779-7.308-11.842-11.733-20.983-11.733-14.127 0-24.723 10.601-24.723 25.114S22.022 68.345 36.15 68.345c9.14 0 16.204-4.426 20.983-11.734l8.31 6.073c-5.714 9.47-16.517 15.645-29.397 15.645m35.607-1.132V26.659H82.56v50.538zm-1.87-69.374c0-4.015 3.22-7.102 7.375-7.102 4.051 0 7.272 3.087 7.272 7.102 0 3.91-3.22 6.999-7.272 6.999-4.155 0-7.375-3.088-7.375-7m20.239 69.375V26.659h10.18v6.587c3.635-4.632 9.037-7.102 14.854-7.102 1.766 0 3.012.206 4.155.515v9.572h-3.324c-8.102 0-14.958 4.632-14.958 13.998v26.968zm55.494 1.132c-15.062 0-27.008-11.528-27.008-26.453 0-14.822 11.946-26.35 27.008-26.35 9.66 0 17.139 4.632 21.502 11.734l-7.687 5.97c-3.324-4.632-7.583-7.72-13.712-7.72-9.348 0-15.996 7.206-15.996 16.366 0 9.367 6.648 16.469 15.996 16.469 6.025 0 10.284-2.985 13.712-7.617l7.687 5.867c-4.467 7.102-11.946 11.734-21.502 11.734m27.294-1.132V0h10.907v77.197zm44.649 1.132c-15.789 0-27.423-11.425-27.423-26.35 0-14.822 11.53-26.453 26.384-26.453 13.608 0 23.58 9.881 23.58 23.16 0 2.778-.519 5.455-.831 6.793h-38.018c1.454 8.337 7.894 13.278 16.62 13.278 5.921 0 10.595-2.265 14.854-5.97l5.194 7.41c-5.402 5.044-12.258 8.132-20.36 8.132m-16.101-31.29h27.735c-.208-7.926-6.129-12.352-13.088-12.352-7.168 0-12.985 4.838-14.647 12.352M56.884 123v-21.924h3.646v9.078h10.94v-9.078h3.646V123H71.47v-9.418H60.53V123zm26.17 0v-21.924H96.36v3.459H86.7v5.619h7.79v3.459H86.7v5.929h9.66V123zm17.405 0 9.66-21.924h3.179l9.66 21.924h-3.802l-2.524-5.743h-9.91L104.229 123zm7.666-8.955h7.105l-3.553-8.121zM128.302 123v-21.924h3.646v18.466h10.127V123zm20.822 0v-18.465h-6.419v-3.459h16.516v3.459h-6.451V123zm15.874 0v-21.924h3.646v9.078h10.938v-9.078h3.646V123h-3.646v-9.418h-10.938V123z"/></svg>