<svg xmlns="http://www.w3.org/2000/svg" width="324" height="40" fill="none" viewBox="0 0 324 40"><path fill="#fff" d="M0 19.982C0 4.364 13.46 0 26.103 0c14.441 0 24.141 4.938 25.34 14.642H41.69c-.872-3.847-5.504-7.292-15.422-7.292-9.482 0-16.894 3.042-16.894 12.632s7.412 12.633 16.894 12.633c9.918 0 14.55-3.448 15.422-7.35h9.755c-1.2 9.76-10.899 14.7-25.34 14.7C13.46 39.964 0 35.6 0 19.982M65.938.459h-9.373v39.045h9.373zm46.811 7.351H95.856v31.694h-9.429V7.81H69.534V.46h43.215zm32.941 31.694h-9.373V24.058L113.974.46h11.881l15.149 17.286L156.153.459h11.88l-22.343 23.6zM169.995.46h26.702c10.518 0 17.929 2.124 17.929 9.761 0 4.938-3.651 7.177-9.155 8.096 6.376.92 10.572 3.33 10.572 9.876 0 8.668-7.742 11.312-18.637 11.312h-27.411zm26.921 15.905c5.177 0 8.991-.574 8.991-4.479 0-3.847-3.814-4.421-8.991-4.421h-17.548v8.9zm.326 16.135c5.613 0 9.374-.631 9.374-4.938s-3.761-4.881-9.374-4.881h-17.874V32.5zm23.048-12.518C220.29 4.765 233.75 0 246.392 0s26.159 4.765 26.159 19.982-13.514 19.981-26.159 19.981-26.103-4.765-26.103-19.981m26.103 12.632c9.319 0 16.73-3.447 16.73-12.632s-7.41-12.632-16.73-12.632-16.731 3.447-16.731 12.633 7.414 12.631 16.731 12.631"/><path fill="#fff" d="m323.288.46-19.401 18.948 19.946 20.096h-12.208l-14.168-15.043-14.226 15.044h-12.204l19.945-20.096L271.572.46h11.877l14.006 14.182L311.407.46z"/></svg>