<svg xmlns="http://www.w3.org/2000/svg" width="141" height="40" fill="none" viewBox="0 0 141 40"><g fill="#fff" clip-path="url(#a)"><path d="M37.383 12.322c.517 0 .86-.545.635-1.01C34.528 4.087 26.822-.717 18.1.088 8.464.978.772 8.828.057 18.48-.81 30.21 8.453 40 20.003 40c7.87 0 14.68-4.55 17.941-11.161a.706.706 0 0 0-.632-1.016h-.022a.7.7 0 0 0-.589.323 14.93 14.93 0 0 1-12.526 6.797c-8.61 0-15.52-7.284-14.903-16.02.514-7.339 6.452-13.29 13.791-13.821 5.765-.419 10.893 2.436 13.731 6.893.126.2.348.326.589.326"/><path d="M29.376 13.89a6.14 6.14 0 0 1 5.045 1.796c.123.126.29.2.465.2.485 0 .808-.517.578-.941a10.64 10.64 0 0 0-10.556-5.527c-4.9.53-8.85 4.47-9.392 9.367-.712 6.42 4.298 11.865 10.58 11.865a10.64 10.64 0 0 0 9.272-5.415.648.648 0 0 0-.558-.975h-.071a.65.65 0 0 0-.452.186 6.1 6.1 0 0 1-4.24 1.703 6.148 6.148 0 0 1-6.108-6.85c.31-2.824 2.609-5.11 5.437-5.408m18.902-.964q1.498-1.014 3.742-1.013 2.51 0 4.087 1.262c1.051.843 1.782 2 2.196 3.48l3.112-.838q-.939-3.126-3.34-4.977-2.398-1.849-6.055-1.85-3.17 0-5.4 1.387t-3.414 3.868Q42.023 16.728 42.023 20q0 3.273 1.183 5.755 1.18 2.48 3.413 3.868 2.231 1.387 5.401 1.387 3.654.001 6.056-1.85 2.398-1.847 3.34-4.977l-3.113-.837q-.615 2.201-2.196 3.47-1.576 1.27-4.087 1.27-2.246.001-3.75-1.012-1.505-1.014-2.261-2.833-.755-1.82-.742-4.243c0-1.616.252-3.028.755-4.244q.759-1.812 2.256-2.827m19.729-3.934h-3.069V30.57h3.07zm16.745 8.309a4.6 4.6 0 0 0-2.31-2.297q-1.578-.727-3.707-.726c-1.828 0-3.296.403-4.396 1.205q-1.651 1.203-2.24 3.244l2.864.881q.41-1.334 1.454-1.916a4.64 4.64 0 0 1 2.288-.58q1.983 0 2.795.903.711.789.78 2.308-.9.128-1.806.252-1.476.205-2.812.44a23 23 0 0 0-2.392.542q-1.22.398-2.056 1.035a4.1 4.1 0 0 0-1.262 1.55q-.427.91-.427 2.113-.001 1.291.61 2.37.608 1.08 1.799 1.733t2.95.654q2.219 0 3.737-.887 1.138-.663 1.974-1.853v2.3h2.716V20.81q0-.998-.088-1.864a4.9 4.9 0 0 0-.47-1.645m-2.817 8.059q-.176.78-.747 1.497c-.38.48-.887.873-1.511 1.183q-.94.463-2.245.462-.984 0-1.615-.31-.63-.306-.939-.829a2.2 2.2 0 0 1-.31-1.138q0-.633.288-1.07a2.5 2.5 0 0 1 .778-.748q.49-.307 1.122-.528.747-.234 1.711-.403.96-.168 2.152-.345l1.637-.243q-.01.389-.03.89a5.7 5.7 0 0 1-.29 1.582m14.25-10.723a6.2 6.2 0 0 0-1.52.293 4.8 4.8 0 0 0-1.344.682q-.615.411-1.086 1.048a6 6 0 0 0-.381.594v-2.54h-2.73v15.853h3.097V22.57q0-.939.191-1.782a4.8 4.8 0 0 1 .625-1.533q.43-.69 1.182-1.174a3.8 3.8 0 0 1 1.738-.602q.95-.088 1.725.117v-2.88a6 6 0 0 0-1.497-.079m15.132 8.331q0 1.41-.314 2.392-.316.985-.865 1.585a3.2 3.2 0 0 1-1.284.873q-.735.271-1.555.271-1.263 0-2.048-.514a3.5 3.5 0 0 1-1.218-1.35 6 6 0 0 1-.586-1.812 12 12 0 0 1-.153-1.9v-7.796h-3.113v8.806q0 .734.132 1.703.131.969.498 1.982.367 1.014 1.065 1.872t1.812 1.388q1.118.53 2.759.529 2.144-.001 3.655-.926a6 6 0 0 0 1.585-1.404v1.902h2.729V14.718h-3.096v8.25zm27.873-7.104q-1.41-1.541-3.977-1.542-1.586 0-2.864.698a5.16 5.16 0 0 0-1.951 1.854 4.64 4.64 0 0 0-1.733-1.84q-1.19-.712-2.877-.712-1.614.001-2.891.704c-.66.364-1.21.83-1.659 1.399v-1.709h-2.729V30.57h3.082v-9.907q0-1.614.887-2.611.887-.999 2.341-1c.977 0 1.76.329 2.34.983q.874.984.873 2.716l-.013 9.82h3.069l.013-9.91q-.001-1.204.449-2.004.448-.8 1.175-1.205a3.26 3.26 0 0 1 1.606-.402q1.44 0 2.319.96.88.961.882 2.68l-.014 9.88h3.069l.013-10.613q.002-2.552-1.41-4.092"/></g><defs><clipPath id="a"><path fill="#fff" d="M0 0h140.602v40H0z"/></clipPath></defs></svg>