<svg xmlns="http://www.w3.org/2000/svg" width="107" height="40" fill="none" viewBox="0 0 107 40"><path fill="#fff" d="M40.169.316q-2.059.299-3.791 2.417c-.805.987-1.382 1.934-2.08 3.423-2.138 4.564-3.542 10.16-4.174 16.644-.093.969-.102 1.258-.102 3.911 0 2.48.014 2.938.08 3.409.04.298.076.64.076.764 0 .37-.058.405-1.467.93-2.871 1.066-5.049 1.622-7.489 1.906-.822.098-3.11.111-3.866.022-2.89-.333-4.987-1.24-6.49-2.817-.613-.64-.986-1.178-1.395-2.014-.858-1.738-1.164-3.382-1.102-5.955.049-1.978.311-3.845.764-5.423.49-1.702 1.56-3.853 2.547-5.11.347-.44 1.431-1.512 1.853-1.832 1.183-.889 2.551-1.538 3.778-1.787 1.32-.266 2.391-.235 3.391.094q1.721.571 2.076 2.342c.115.56.07 1.747-.107 2.96-.302 2.053-.129 2.685.862 3.173.76.374 1.978.387 2.645.023.87-.476 1.649-1.698 1.929-3.027.182-.853.204-2.933.049-3.969-.138-.907-.645-2.16-1.245-3.071-1.093-1.671-3.218-2.902-5.56-3.222-.729-.098-3.28-.116-4.04-.027-1.862.218-4.098.982-5.764 1.969-1.254.742-2.205 1.489-3.37 2.658-1.541 1.542-2.47 2.817-3.377 4.626-1.578 3.147-2.324 6.312-2.427 10.245-.084 3.235.49 5.84 1.796 8.133 1.969 3.449 5.284 5.707 9.698 6.6 3.293.667 7.773.471 11.729-.511 2.475-.618 4.83-1.538 5.786-2.267l.205-.15.4.608c.484.729.826 1.111 1.355 1.52a5.7 5.7 0 0 0 2.303 1.076c.408.089.582.102 1.377.102.805-.005.983-.018 1.525-.124 1.542-.303 2.4-.72 4.066-1.974.498-.373.925-.68.947-.68s.102.125.178.276c.533 1.062 1.066 1.617 1.96 2.03 1.795.84 3.844.574 5.924-.773.502-.328.974-.697 1.61-1.27l.55-.494.654.64c.733.711 1.315 1.138 2.066 1.502 2.125 1.027 4.751 1.17 7.374.4 1.346-.39 2.87-1.146 4.075-2.013.302-.213.565-.378.582-.356.018.018.094.28.17.574.253 1 .541 1.582.92 1.84.497.342 1 .47 1.657.43.649-.04 1.107-.208 1.467-.533.457-.422.71-.986 1.209-2.697 1.07-3.685 2.129-6.17 3.47-8.156 1.16-1.72 2.29-2.644 3.227-2.644.303 0 .503.093.707.329.227.257.289.43.316.889.07 1.19-.41 2.168-1.427 2.924-.409.302-.72.489-1.516.902-.724.378-1.249.72-1.466.96a2.6 2.6 0 0 0-.307.48c-.133.285-.138.316-.151 1.009-.044 1.893.52 3.4 1.716 4.587 1 .995 2.146 1.573 3.63 1.835.685.12 1.916.16 2.556.09 1.662-.196 3.222-.96 4.667-2.294q.58-.535.635-.462c.01.009.12.217.25.462.488.924.937 1.373 1.804 1.804.8.391 1.24.498 2.155.502.814.005 1.16-.048 1.911-.297.574-.187 1.623-.725 2.107-1.071.596-.427 1.502-1.25 2.449-2.214 1-1.013 1.351-1.44 1.582-1.924.289-.6.365-.965.369-1.756.004-.733-.031-.95-.231-1.355-.218-.454-.6-.69-1-.622-.462.07-.725.306-2.111 1.888-.636.725-1.982 2.045-2.427 2.378-.973.725-1.849.667-2.284-.146-.236-.44-.298-.836-.294-1.854.005-1.204.098-1.822 1.036-6.644.747-3.863.791-4.32.453-4.854-.306-.484-.644-.59-1.87-.586-.943 0-1.245.04-1.65.222-.51.231-.87.796-1.258 1.973-.68 2.067-1.462 6.245-1.635 8.707l-.053.76-.912.902c-1.208 1.191-1.622 1.516-2.27 1.778-.16.062-.423.138-.578.16-.37.062-1.338.062-1.596 0-.307-.067-.884-.369-1.173-.604-.445-.37-.871-1.107-.89-1.543l-.008-.173.596-.373c2.208-1.378 3.355-2.707 3.995-4.618.28-.831.338-1.245.342-2.485v-1.066l-.15-.445c-.539-1.595-1.65-2.76-2.943-3.084-.924-.236-1.982-.218-2.751.04-.742.244-1.622.733-2.453 1.36-.618.462-1.876 1.729-2.356 2.373-.867 1.16-1.849 2.947-2.609 4.751-.267.627-.338.756-.373.69-.05-.09-.01-2.65.053-3.419.053-.653.08-.693 1.471-2.289 4.867-5.59 7.329-9.635 8.378-13.782.262-1.035.298-1.369.32-3.066.027-1.805 0-2.13-.236-2.8-.546-1.574-1.329-2.56-2.395-3.032-.427-.186-.765-.257-1.316-.284-1.129-.053-2.146.249-3.146.933-.458.311-1.52 1.374-1.925 1.92-2.324 3.151-4.213 8.65-5.253 15.29-.605 3.848-.818 6.36-.916 10.666L68.182 31l-.435.413c-1.498 1.427-3.343 2.534-4.836 2.903-.76.186-1.964.155-2.822-.076-1.147-.307-2.04-1.289-2.378-2.618-.306-1.213-.231-3.173.178-4.6.555-1.933 1.644-3.235 2.862-3.426.547-.085.929.035 1.12.346.098.156.107.214.107.791-.005.547-.018.68-.134 1.09a3 3 0 0 0-.128.977c0 .591.066.8.355 1.076.28.266.542.355 1.116.382.59.022.946-.062 1.373-.338.951-.613 1.596-2.276 1.511-3.898-.089-1.8-.973-3.266-2.404-3.977-.894-.445-1.983-.587-3.254-.423-1.39.183-2.64.698-3.853 1.596-1.902 1.409-3.369 3.72-3.907 6.164-.204.916-.297 2.045-.297 3.6v.96l-.72.707c-.8.782-1.334 1.204-1.77 1.413-.248.116-.341.138-.644.138-.404 0-.609-.084-.849-.342-.315-.333-.444-.773-.506-1.725-.071-1.07.058-2.053.689-5.244.76-3.867 1-5.271 1-5.916 0-.333-.014-.413-.12-.604-.24-.431-.405-.569-.796-.662-.644-.156-2.156-.116-2.658.075-.813.302-1.178 1.027-1.849 3.663a54 54 0 0 0-1 5.288c-.093.73-.244 2.258-.244 2.511 0 .103-1.507 1.543-2.005 1.912-1.004.742-1.87 1.062-2.902 1.066-.83 0-1.333-.195-1.826-.715-.431-.462-.831-1.383-.898-2.09-.031-.31-.04-.293.746-1.421 3.725-5.351 6.69-11.24 8.085-16.045.742-2.555 1.12-5.169 1.053-7.307-.03-.982-.084-1.484-.23-2.222-.263-1.31-.788-2.378-1.574-3.195-.56-.583-1.005-.814-1.751-.916a6.3 6.3 0 0 0-1.418.005m.2 4.013c.302.124.618.715.702 1.315.071.52.076 3.032.005 3.712-.258 2.417-.818 4.697-1.791 7.297-.672 1.792-1.018 2.578-2.178 4.903-.925 1.862-1.582 3.093-1.92 3.613-.21.316-.231.338-.267.244-.089-.24.191-4.062.436-5.99.657-5.152 1.964-10.539 3.244-13.374.636-1.418 1.196-1.96 1.769-1.72m38.311 0c.329.133.631.631.756 1.227.07.35.066 2.448-.01 2.977-.124.916-.595 2.525-1.048 3.6-.498 1.178-1.534 3.165-2.302 4.418-.516.84-1.64 2.391-2.111 2.916l-.183.2-.004-.178c0-.391.533-3.747.849-5.333.724-3.614 1.635-6.654 2.529-8.454.35-.71.64-1.089.977-1.293.267-.16.338-.169.547-.08"/><path fill="#fff" d="M48.053 10.578c-1.609.227-2.75 1.156-3.102 2.533-.115.45-.071 1.378.089 1.822.249.698.689 1.218 1.293 1.516.458.227.827.302 1.623.338 1.35.053 2.133-.151 2.946-.773.467-.36.92-1 1.071-1.516.178-.618.183-1.551 0-2.173-.093-.316-.355-.707-.666-.983-.298-.27-1.014-.64-1.396-.72-.311-.066-1.489-.093-1.858-.044m46.263.004c-.6.093-1.307.404-1.791.791a3.17 3.17 0 0 0-1.09 1.538c-.097.307-.115.436-.12.933-.004.65.09 1.076.334 1.534.293.55.893 1.049 1.484 1.23.778.24 2.312.254 3.023.027a5 5 0 0 0 1.23-.657c.312-.25.623-.654.819-1.067.43-.898.462-2.067.08-2.853-.334-.694-1.085-1.236-1.952-1.414-.422-.089-1.608-.124-2.017-.062"/></svg>