<svg xmlns="http://www.w3.org/2000/svg" width="168" height="40" fill="none" viewBox="0 0 168 40"><g fill="#fff" clip-path="url(#a)"><path d="M15.495 40q-7.143 0-11.319-3.983T0 24.616v-9.232q0-7.416 4.176-11.4T15.495 0q7.088 0 10.97 3.874 3.88 3.873 3.873 10.632v.325h-7.151v-.545q0-3.406-1.89-5.604-1.89-2.196-5.802-2.198-3.848 0-6.044 2.363t-2.198 6.428v9.452q0 4.013 2.198 6.397t6.044 2.39q3.9 0 5.797-2.225 1.898-2.227 1.89-5.577v-.993h7.144v.77q0 6.759-3.874 10.631Q22.58 39.995 15.495 40m35.715 0q-7.252 0-11.54-3.983t-4.285-11.401v-9.232q0-7.416 4.285-11.4T51.21 0q7.252 0 11.537 3.984t4.286 11.4v9.232q0 7.416-4.287 11.401Q58.459 40.003 51.209 40m0-6.482q4.071 0 6.317-2.365 2.248-2.364 2.254-6.317v-9.671q0-3.956-2.254-6.318-2.253-2.363-6.318-2.363-4.01 0-6.291 2.363t-2.28 6.318v9.67q0 3.957 2.28 6.318 2.28 2.362 6.291 2.365M121.269 40q-4.452 0-7.852-1.6-3.399-1.599-5.329-4.56-1.925-2.966-1.923-7.142v-1.532h7.142v1.538q0 3.462 2.143 5.192 2.144 1.73 5.819 1.73 3.735 0 5.577-1.482 1.842-1.484 1.839-3.79 0-1.599-.907-2.584-.907-.984-2.641-1.62a34 34 0 0 0-4.202-1.176l-1.265-.282q-3.957-.872-6.786-2.224-2.83-1.353-4.341-3.544-1.513-2.198-1.512-5.715t1.677-6.017q1.675-2.499 4.725-3.846Q116.484 0 120.605 0t7.336 1.4 5.054 4.178q1.84 2.775 1.841 6.95v1.648h-7.142v-1.648q0-2.198-.853-3.545a4.96 4.96 0 0 0-2.445-1.977q-1.6-.631-3.791-.631-3.296 0-4.862 1.236t-1.567 3.379q0 1.43.742 2.416.741.988 2.225 1.65c1.222.51 2.492.897 3.792 1.153l1.264.274q4.119.882 7.17 2.254 3.05 1.373 4.753 3.625 1.701 2.256 1.703 5.77.001 3.514-1.786 6.184-1.787 2.662-5.054 4.175-3.267 1.511-7.716 1.509m27.628-.77V7.363H137.7V.769h29.663v6.593h-11.209V39.23zM93.188.769H80.55L70.44 39.232h7.472L80 30.77l1.704-6.703 4.67-18.737h.99l4.67 18.737 1.703 6.703 2.088 8.463h7.472z"/><path d="m80.467 28.936 6.402 10.296 6.402-10.296z"/></g><defs><clipPath id="a"><path fill="#fff" d="M0 0h167.363v40H0z"/></clipPath></defs></svg>