<svg xmlns="http://www.w3.org/2000/svg" width="245" height="40" fill="none" viewBox="0 0 245 40"><g fill="#fff" clip-path="url(#a)"><path fill-rule="evenodd" d="M21.934 29.19a4.608 4.608 0 0 0 2.43-8.522A9.9 9.9 0 0 1 28 19.977c5.451 0 9.87 4.418 9.87 9.868s-4.42 9.868-9.87 9.868-9.87-4.419-9.87-9.868c0-.794.093-1.565.27-2.305a4.6 4.6 0 0 0 3.534 1.65" clip-rule="evenodd"/><path fill-rule="evenodd" d="M.255 30.812a28 28 0 0 1-.04-1.507c0-15.342 12.44-27.78 27.785-27.78s27.785 12.438 27.785 27.78q0 .758-.04 1.507H46.7q.025-.48.025-.967c0-10.115-8.202-18.316-18.32-18.316s-18.321 8.2-18.321 18.316q0 .487.025.967z" clip-rule="evenodd"/><path d="M233.42 15.093h-3.217V9.699h3.217V.149h5.939v9.55h5.395v5.394h-5.395v19.546h-5.939zm-28.414-5.394h5.889v3.563c1.139-2.375 3.96-4.058 7.573-4.058 5.989 0 9.454 3.86 9.454 9.996v15.44h-5.94v-14.6c0-3.365-1.93-5.542-5.296-5.542-3.365 0-5.791 2.375-5.791 5.79v14.35h-5.889zm-28.158 12.47c0-8.016 5.592-13.163 13.066-13.163 7.424 0 12.324 5.592 12.324 12.57 0 0 0 1.088-.099 2.078h-19.402c.198 3.958 3.119 6.532 7.524 6.532 3.019 0 4.85-.99 6.731-2.87l3.564 3.463c-3.218 3.415-6.732 4.454-10.493 4.454-7.821 0-13.215-5.047-13.215-12.866zm19.352-2.672c0-2.97-2.821-5.443-6.286-5.443-3.712 0-6.781 2.424-7.028 5.443zm-37.459 7.522c1.039 1.682 3.366 3.117 6.583 3.117 3.415 0 4.454-1.435 4.454-2.722 0-2.078-2.969-2.573-6.83-3.958-3.663-1.336-6.137-3.217-6.137-7.027 0-4.8 4.058-7.472 8.81-7.472 4.157 0 6.929 1.583 8.661 3.76l-3.316 3.514c-1.039-1.237-2.722-2.177-5.444-2.177-1.881 0-3.019.89-3.019 2.226 0 1.88 2.078 2.128 6.285 3.662 4.604 1.633 6.682 3.81 6.682 7.423 0 4.305-3.118 7.918-10.245 7.918-5.197 0-8.761-2.079-10.295-5.048zm-28.612-17.32h5.89v3.563c1.138-2.375 3.96-4.058 7.573-4.058 5.989 0 9.453 3.86 9.453 9.996v15.44h-5.939v-14.6c0-3.365-1.93-5.542-5.296-5.542s-5.791 2.375-5.791 5.79v14.35h-5.89zm-30.188 12.47c0-7.472 6.038-13.212 13.611-13.212 7.523 0 13.611 5.74 13.611 13.212s-6.088 13.212-13.611 13.212c-7.573 0-13.611-5.74-13.611-13.212m5.889 0c0 4.404 3.317 7.819 7.722 7.819 4.355 0 7.721-3.415 7.721-7.819s-3.366-7.818-7.721-7.818c-4.405 0-7.722 3.414-7.722 7.818m-30.397-.05c0-7.62 6.039-13.212 13.562-13.212 3.712 0 7.127 1.237 9.998 4.305l-3.663 3.81c-1.683-1.731-3.662-2.721-6.335-2.721-4.356 0-7.672 3.315-7.672 7.819s3.316 7.818 7.672 7.818c2.672 0 4.652-.99 6.335-2.721l3.663 3.81c-2.87 3.068-6.286 4.305-9.998 4.305-7.523 0-13.562-5.592-13.562-13.212"/></g><defs><clipPath id="a"><path fill="#fff" d="M0 0h245v40H0z"/></clipPath></defs></svg>