<svg xmlns="http://www.w3.org/2000/svg" width="86" height="40" fill="none" viewBox="0 0 86 40"><g clip-path="url(#a)"><path fill="#fff" d="M8.987 13.948c-.178-1.274-1.386-2.253-2.762-2.253-2.5 0-3.433 2.157-3.433 4.41 0 2.147.942 4.304 3.433 4.304 1.698 0 2.659-1.188 2.867-2.885h2.696c-.284 3.201-2.46 5.262-5.563 5.262C2.31 22.787 0 19.814 0 16.105c0-3.815 2.3-6.788 6.225-6.788 2.781 0 5.12 1.66 5.46 4.631zm8.413 6.864c1.716 0 2.235-1.497 2.235-2.972 0-1.497-.51-2.99-2.235-2.99-1.698 0-2.217 1.495-2.217 2.99 0 1.476.519 2.972 2.217 2.972m0-7.89c2.885 0 4.743 1.946 4.743 4.917 0 2.953-1.858 4.9-4.743 4.9-2.867 0-4.735-1.947-4.735-4.899.01-2.972 1.868-4.917 4.735-4.917m6.026.248h2.396v1.295h.057a3.26 3.26 0 0 1 2.8-1.553c2.678 0 3.348 1.533 3.348 3.834v5.742H29.51v-5.262c0-1.534-.444-2.292-1.613-2.292-1.368 0-1.952.777-1.952 2.665v4.889h-2.52zm12.1 6.29c.018 1.122.942 1.572 1.933 1.572.725 0 1.65-.287 1.65-1.188 0-.777-1.047-1.045-2.848-1.439-1.452-.325-2.904-.842-2.904-2.482 0-2.377 2.017-2.99 3.987-2.99 2 0 3.85.68 4.04 2.97h-2.397c-.067-.987-.812-1.255-1.716-1.255-.568 0-1.396.106-1.396.863 0 .92 1.414 1.045 2.857 1.39 1.47.344 2.905.881 2.905 2.606 0 2.454-2.094 3.241-4.178 3.241-2.131 0-4.197-.815-4.31-3.278h2.376zm13.382-3.01c-.16-1.046-.811-1.6-1.858-1.6-1.613 0-2.14 1.657-2.14 3.028 0 1.332.518 2.934 2.094 2.934 1.169 0 1.839-.758 2-1.89h2.422c-.32 2.465-1.999 3.816-4.413 3.816-2.764 0-4.622-1.984-4.622-4.774 0-2.894 1.698-5.041 4.679-5.041 2.16 0 4.15 1.15 4.31 3.526zm3.669-3.278h2.52v9.316h-2.519zm2.52-1.44h-2.519V9.627h2.519zm6.026 9.08c1.716 0 2.233-1.497 2.233-2.972 0-1.497-.519-2.99-2.235-2.99-1.697 0-2.215 1.495-2.215 2.99 0 1.476.51 2.972 2.217 2.972m0-7.89c2.885 0 4.743 1.946 4.743 4.917 0 2.953-1.858 4.9-4.745 4.9-2.867 0-4.734-1.947-4.734-4.899 0-2.972 1.858-4.917 4.736-4.917m14.542 9.567h-2.397v-1.294h-.056a3.26 3.26 0 0 1-2.8 1.552c-2.68 0-3.349-1.533-3.349-3.833V13.19h2.518v5.26c0 1.535.444 2.292 1.613 2.292 1.367 0 1.952-.776 1.952-2.665V13.2h2.517v9.288zm3.403-3.028c.019 1.121.942 1.571 1.933 1.571.727 0 1.652-.287 1.652-1.188 0-.777-1.048-1.045-2.85-1.439-1.452-.325-2.904-.842-2.904-2.482 0-2.377 2.018-2.99 3.989-2.99 2 0 3.849.68 4.037 2.97H82.52c-.076-.987-.812-1.255-1.716-1.255-.567 0-1.396.106-1.396.863 0 .92 1.414 1.045 2.847 1.39 1.472.344 2.906.881 2.906 2.606 0 2.454-2.094 3.241-4.178 3.241-2.122 0-4.197-.815-4.3-3.278h2.385zM1.585 26.83h2.781v4.937h5.12V26.83h2.785v12.865H9.486v-5.551h-5.12v5.55H1.585zm16.891 11.186c1.716 0 2.235-1.494 2.235-2.97 0-1.497-.51-2.991-2.235-2.991-1.698 0-2.217 1.495-2.217 2.99 0 1.477.51 2.97 2.216 2.97zm0-7.888c2.885 0 4.743 1.946 4.743 4.916 0 2.954-1.858 4.9-4.744 4.9-2.866 0-4.734-1.946-4.734-4.898 0-2.972 1.858-4.918 4.735-4.918m9.053.25h1.839v1.715h-1.839v4.61c0 .862.217 1.084 1.066 1.084.264 0 .518-.02.783-.077v2.003c-.426.077-.971.086-1.47.086-1.539 0-2.887-.364-2.887-2.214v-5.493h-1.528v-1.716h1.528v-2.789h2.518v2.79zm8.807 3.66c-.226-1.293-.782-1.983-2-1.983-1.593 0-2.055 1.264-2.092 1.984zm-4.092 1.62c.075 1.621.848 2.36 2.253 2.36 1.009 0 1.83-.633 1.98-1.209h2.217c-.707 2.194-2.217 3.135-4.291 3.135-2.886 0-4.678-2.024-4.678-4.898 0-2.79 1.897-4.918 4.678-4.918 3.122 0 4.622 2.665 4.451 5.53zm10.308-8.828h-2.519v12.854h2.52zm3.585 9.835c.018 1.121.942 1.572 1.933 1.572.726 0 1.651-.288 1.651-1.189 0-.777-1.047-1.045-2.849-1.439-1.453-.325-2.904-.842-2.904-2.482 0-2.377 2.018-2.991 3.99-2.991 2 0 3.847.681 4.035 2.971h-2.396c-.074-.987-.81-1.255-1.716-1.255-.565 0-1.396.106-1.396.863 0 .92 1.416 1.045 2.858 1.39 1.471.344 2.905.881 2.905 2.606 0 2.454-2.093 3.242-4.178 3.242-2.132 0-4.196-.816-4.31-3.28h2.377zM32.018.058H1.585v4.199h30.433z"/></g><defs><clipPath id="a"><path fill="#fff" d="M0 0h85.161v40H0z"/></clipPath></defs></svg>