<svg xmlns="http://www.w3.org/2000/svg" width="266" height="40" fill="none" viewBox="0 0 266 40"><g fill="#fff" clip-path="url(#a)"><path fill-rule="evenodd" d="M41.633 29.987H12.025v-9.966l11.272-6.51 18.336 10.154V10.162L23.28 0 0 13.44v28.193h41.633z" clip-rule="evenodd"/><path d="M159.701 35.272V30.79q-.543.294-1.102.494c-.539.193-1.202.282-1.969.282h-.113l-.007-.007c-1.043-.02-1.876-.309-2.45-.91-.593-.623-.866-1.532-.866-2.675v-8.552h6.355v-4.946h-6.355V6.918l-6.229 1.671V28.86q.001 2.369.871 4.109a6.2 6.2 0 0 0 2.557 2.698c1.127.634 2.515.964 4.177.964 1.197 0 2.183-.123 2.962-.357a9 9 0 0 0 2.169-1.002M143.382 19.41h-6.12v16.45h-6.229V19.41h-3.834v-4.945h3.834V12.51c0-2.712.707-4.776 2.093-6.231 1.379-1.45 3.433-2.197 6.211-2.197q1.453.002 2.672.28c.738.17 1.33.389 1.776.644v4.463c-.8-.369-1.764-.545-2.881-.545-1.21 0-2.148.273-2.759.885-.607.608-.883 1.496-.883 2.614v2.042h6.12zM76.62 36.033c1.613-.45 3.03-1.075 4.245-1.866v-5.8a15.4 15.4 0 0 1-3.476 1.678v.001a13.9 13.9 0 0 1-4.524.749c-2.114 0-3.975-.42-5.572-1.266q-2.394-1.266-3.69-3.524c-.856-1.503-1.283-3.237-1.283-5.149s.422-3.613 1.284-5.105c.857-1.494 2.084-2.654 3.668-3.482 1.586-.833 3.432-1.243 5.528-1.243 1.608 0 3.12.26 4.529.772q1.83.666 3.368 1.728V7.494c-1.16-.684-2.499-1.251-4.026-1.696q-2.365-.69-5.21-.69c-3.209 0-6.008.687-8.412 2.046q-3.609 2.039-5.571 5.662-1.966 3.625-1.968 8.252c0 2.93.63 5.576 1.877 7.957q1.865 3.56 5.453 5.633c2.39 1.384 5.232 2.077 8.54 2.077q2.739-.002 5.24-.702"/><path fill-rule="evenodd" d="M105.692 15.356q-2.23 1.544-3.419 4.143c-.796 1.739-1.195 3.568-1.195 5.71q0 3.218 1.12 5.79h.001c.741 1.712 1.815 3.056 3.219 4.047 1.397.98 3.048 1.477 4.978 1.477 1.635 0 3.046-.396 4.237-1.178 1.207-.79 2.112-1.806 2.723-3.064h.522v3.584h6.12V14.471h-6.229v3.201h-.519c-.641-1.263-1.502-2.217-2.577-2.872s-2.32-.987-3.746-.987c-2.011 0-3.75.519-5.235 1.543m11.57 6.604.001.001c.408.932.615 1.998.615 3.188s-.213 2.258-.639 3.191c-.427.935-1.045 1.672-1.846 2.198-.803.526-1.756.789-2.763.789s-1.914-.246-2.71-.743q-1.196-.746-1.839-2.134c-.427-.918-.639-1.959-.639-3.192s.212-2.329.649-3.28 1.055-1.692 1.857-2.218q1.201-.79 2.763-.79t2.749.791h.001c.785.527 1.386 1.265 1.801 2.2" clip-rule="evenodd"/><path d="m185.52 29.075-4.045-14.604h-6.406l-4.036 14.474-3.587-14.474h-6.2l6.068 21.394h6.281l4.457-14.868 4.572 14.868h6.416l6.566-21.394h-6.132z"/><path fill-rule="evenodd" d="M214.16 15.231a10.2 10.2 0 0 1 3.93 3.732l.159.28c.982 1.73 1.477 3.73 1.477 6.01 0 2.276-.5 4.199-1.497 5.895a10.37 10.37 0 0 1-4.116 3.962c-1.752.938-3.719 1.413-5.907 1.413s-4.127-.47-5.862-1.413a10.27 10.27 0 0 1-4.084-3.96l-.001-.001q-1.486-2.544-1.486-5.897c0-2.236.49-4.28 1.466-6.009a10.16 10.16 0 0 1 4.068-4.012c1.735-.944 3.7-1.423 5.904-1.423 2.205 0 4.199.474 5.949 1.423m-3.206 14.987-.001.336c-.782.517-1.71.768-2.747.768-1.038 0-1.944-.251-2.717-.77-.769-.515-1.354-1.238-1.764-2.166-.403-.921-.603-1.956-.603-3.177 0-1.219.188-2.296.591-3.23.404-.933.988-1.673 1.764-2.2.777-.529 1.683-.792 2.729-.792 1.045 0 1.973.263 2.756.792.787.527 1.376 1.272 1.785 2.21l.001.002c.371.864.57 1.848.599 2.94h.009v.278c0 1.188-.201 2.25-.616 3.178-.414.928-1.011 1.657-1.787 2.167h.001z" clip-rule="evenodd"/><path d="m252.371 23.892 8.348-9.427h-7.344l-7.099 9.005V5.108h-6.186v30.757h6.186V24.782l7.764 11.083h7.184l-8.853-11.77zM99.456 19.833h-8.168V35.86h-6.115V14.552h14.282zm129.71 0h8.167v-5.28h-14.282V35.86h6.115z"/></g><defs><clipPath id="a"><path fill="#fff" d="M0 0h265.306v40H0z"/></clipPath></defs></svg>