<svg xmlns="http://www.w3.org/2000/svg" width="82" height="24" fill="none" viewBox="0 0 82 24"><mask id="a" width="16" height="16" x="0" y="4" maskUnits="userSpaceOnUse" style="mask-type:luminance"><path fill="#fff" d="M16 4H0v16h16z"/></mask><g mask="url(#a)"><path fill="#ccc" d="m15.868 7.323-3.192-3.19a.45.45 0 0 0-.638 0L1.508 14.661a.45.45 0 0 0 0 .638c.32.32-1.395 3.538-1.508 3.776L.92 20c.237-.113 3.46-1.829 3.78-1.509a.45.45 0 0 0 .638 0l10.53-10.53a.45.45 0 0 0 0-.638"/><path fill="#ccc" d="m1.84 14.329 9.897-9.897 3.83 3.83-9.896 9.898z"/><path fill="#000" d="m10.46 5.71.638-.639 3.832 3.831-.639.639zm-7.981 7.98.638-.638 3.83 3.83-.638.64z"/><path fill="#ccc" d="M11.95 8.156c-.676-.676-2.66.212-4.43 1.982s-2.658 3.754-1.982 4.43 2.66-.212 4.43-1.982 2.657-3.754 1.982-4.43"/></g><path fill="#f2f2f2" d="M27.712 17.16q-1.52 0-2.608-.496a3.86 3.86 0 0 1-1.68-1.456q-.592-.96-.656-2.384-.016-.657-.016-1.408 0-.753.016-1.44.064-1.392.672-2.352.607-.977 1.696-1.472 1.088-.513 2.576-.512 1.056 0 1.952.272a4.7 4.7 0 0 1 1.568.768q.672.495 1.04 1.216.385.703.4 1.6a.26.26 0 0 1-.096.24.33.33 0 0 1-.24.096h-2.16a.55.55 0 0 1-.32-.08q-.112-.096-.192-.336-.225-.849-.736-1.152-.495-.32-1.232-.32-.88 0-1.392.496-.512.48-.56 1.616-.048 1.311 0 2.688.048 1.135.56 1.632.512.48 1.392.48.736 0 1.248-.32.511-.321.72-1.152.064-.24.176-.32a.55.55 0 0 1 .336-.096h2.16q.144 0 .24.096a.26.26 0 0 1 .096.24 3.5 3.5 0 0 1-.4 1.616 3.64 3.64 0 0 1-1.04 1.216q-.671.495-1.568.768a7 7 0 0 1-1.952.256m6.546-.16a.4.4 0 0 1-.288-.112.4.4 0 0 1-.112-.288V9.08a.37.37 0 0 1 .112-.272.37.37 0 0 1 .288-.128h1.84q.177 0 .288.128a.37.37 0 0 1 .112.272v.64a3 3 0 0 1 1.024-.768 3.3 3.3 0 0 1 1.36-.272h.704a.37.37 0 0 1 .272.112q.129.111.128.288v1.648a.4.4 0 0 1-.128.288.37.37 0 0 1-.272.112h-1.552q-.655 0-1.024.368-.352.351-.352 1.008V16.6a.37.37 0 0 1-.128.288.4.4 0 0 1-.288.112zm21.458 3.04a.326.326 0 0 1-.336-.336v-.096a1 1 0 0 1 .048-.112l1.248-3.008-3.072-7.264a.5.5 0 0 1-.048-.192.5.5 0 0 1 .128-.24.3.3 0 0 1 .24-.112h1.824q.208 0 .304.112a.43.43 0 0 1 .144.224l1.84 4.656 1.872-4.656a.9.9 0 0 1 .16-.224q.112-.112.32-.112h1.792q.144 0 .24.112a.29.29 0 0 1 .112.224.6.6 0 0 1-.048.208l-4.528 10.48a.55.55 0 0 1-.16.224q-.112.111-.32.112zm11.298-2.88q-1.344 0-2.272-.432a3.25 3.25 0 0 1-1.408-1.232q-.48-.816-.544-1.936-.015-.321-.016-.72 0-.417.016-.72.065-1.137.576-1.936a3.35 3.35 0 0 1 1.424-1.232q.928-.432 2.224-.432 1.312 0 2.224.432.928.431 1.44 1.232.513.8.576 1.936.016.303.016.72 0 .399-.016.72-.063 1.12-.56 1.936-.48.8-1.408 1.232-.912.432-2.272.432m0-1.952q.72 0 1.04-.432.336-.432.384-1.296.016-.24.016-.64t-.016-.64q-.048-.849-.384-1.28-.32-.449-1.04-.448-.704 0-1.04.448-.336.432-.368 1.28-.016.24-.016.64t.016.64q.032.864.368 1.296t1.04.432M72.924 17a.4.4 0 0 1-.288-.112.4.4 0 0 1-.112-.288V9.08a.4.4 0 0 1 .112-.288.4.4 0 0 1 .288-.112h1.84a.4.4 0 0 1 .288.112.4.4 0 0 1 .112.288v.608a3.35 3.35 0 0 1 1.088-.832q.672-.336 1.584-.336.928 0 1.632.416.72.416 1.12 1.232.416.8.416 1.968V16.6a.37.37 0 0 1-.128.288.37.37 0 0 1-.272.112h-2.016a.43.43 0 0 1-.288-.112.4.4 0 0 1-.112-.288v-4.368q0-.753-.368-1.152-.353-.417-1.056-.416-.656 0-1.056.416-.384.399-.384 1.152V16.6a.37.37 0 0 1-.128.288.37.37 0 0 1-.272.112z"/><path fill="#ccc" d="M43.3 17.16a3.6 3.6 0 0 1-1.552-.32 2.86 2.86 0 0 1-1.072-.896 2.12 2.12 0 0 1-.4-1.264q0-1.135.928-1.792.928-.672 2.464-.912l2-.304v-.224q0-.576-.24-.88-.24-.303-.88-.304-.448 0-.736.176a1.26 1.26 0 0 0-.432.48.46.46 0 0 1-.4.208h-1.792q-.176 0-.272-.096a.32.32 0 0 1-.08-.256q0-.287.208-.656a2.9 2.9 0 0 1 .672-.752q.449-.368 1.152-.608.705-.24 1.696-.24 1.04 0 1.776.24.735.24 1.184.672.465.433.688 1.024.224.575.224 1.28V16.6a.37.37 0 0 1-.128.288.37.37 0 0 1-.272.112H46.18a.4.4 0 0 1-.288-.112.4.4 0 0 1-.112-.288v-.56q-.208.305-.56.56a2.7 2.7 0 0 1-.832.4 3.3 3.3 0 0 1-1.088.16m.752-1.824q.465 0 .832-.192a1.4 1.4 0 0 0 .592-.624q.224-.432.224-1.072v-.224l-1.36.24q-.752.128-1.104.4-.336.255-.336.608a.7.7 0 0 0 .16.464q.16.192.416.304.256.096.576.096M50.322 17a.4.4 0 0 1-.289-.112.4.4 0 0 1-.111-.288V9.08a.4.4 0 0 1 .111-.288.4.4 0 0 1 .288-.112h1.889a.37.37 0 0 1 .271.112q.129.112.128.288v7.52a.37.37 0 0 1-.128.288.37.37 0 0 1-.272.112zm-.017-9.52a.4.4 0 0 1-.288-.112.4.4 0 0 1-.111-.288V5.656a.4.4 0 0 1 .111-.288.37.37 0 0 1 .288-.128h1.904q.177 0 .288.128.129.112.129.288V7.08a.37.37 0 0 1-.128.288.4.4 0 0 1-.288.112z"/></svg>