<svg xmlns="http://www.w3.org/2000/svg" width="171" height="26" fill="none" viewBox="0 0 171 26"><g clip-path="url(#a)"><g fill="#fff" fill-rule="evenodd" clip-path="url(#b)" clip-rule="evenodd"><path d="M24.855 3.586a3.586 3.586 0 1 1-7.173 0 3.586 3.586 0 0 1 7.173 0m-9.593 5.38a.54.54 0 0 0-.538.537v3.407c0 .297.24.538.538.538h11.475c.298 0 .538-.24.538-.538V9.503a.54.54 0 0 0-.538-.537zm-.538 6.813c0-.297.24-.538.538-.538h11.475c.298 0 .538.241.538.538v3.407c0 .297-.24.538-.538.538H15.262a.54.54 0 0 1-.538-.538zm0 6.276c0-.297.24-.538.538-.538h11.475c.298 0 .538.241.538.538v3.407c0 .297-.24.538-.538.538H15.262a.54.54 0 0 1-.538-.538zM38.93 9.863a3.586 3.586 0 1 1-7.172 0 3.586 3.586 0 0 1 7.172 0m-9.324 5.379a.54.54 0 0 0-.538.538v3.407c0 .297.241.538.538.538h11.476a.54.54 0 0 0 .538-.538V15.78a.54.54 0 0 0-.538-.538zm0 6.276a.54.54 0 0 0-.538.538v3.406c0 .298.241.538.538.538h11.476c.297 0 .538-.24.538-.538v-3.406a.54.54 0 0 0-.538-.538zM10.51 16.235c0 1.884-1.606 3.49-3.586 3.49s-3.586-1.606-3.586-3.49c0-2.078 1.605-3.683 3.586-3.683s3.586 1.605 3.586 3.683M.379 22.055c0-.297.24-.538.538-.538h11.476c.297 0 .538.241.538.538v3.407a.54.54 0 0 1-.538.538H.917a.54.54 0 0 1-.538-.538z"/></g></g><g clip-path="url(#c)"><g fill="#fff" clip-path="url(#d)"><path d="M62.438 22.183c1.931 0 3.526-.823 4.616-2.08a.307.307 0 0 0-.045-.44l-1.586-1.281a.35.35 0 0 0-.461.035c-.617.61-1.525.978-2.473.978-2.053 0-3.523-1.548-3.523-3.561 0-2.04 1.47-3.536 3.523-3.536.948 0 1.856.368 2.473.978a.35.35 0 0 0 .46.035l1.587-1.28a.307.307 0 0 0 .045-.44c-1.09-1.258-2.684-2.08-4.616-2.08-3.422 0-6.438 2.503-6.438 6.323s3.016 6.349 6.438 6.349M75.61 9.51c-1.47 0-2.763.878-3.397 2.891V10.14a.32.32 0 0 0-.319-.319h-2.302a.32.32 0 0 0-.319.32v11.414a.32.32 0 0 0 .32.319h2.327a.32.32 0 0 0 .319-.32v-3.887c0-3.38 1.064-5.342 2.99-5.342.349 0 .812.05 1.338.26.198.079.429-.03.472-.238l.45-2.195a.29.29 0 0 0-.161-.33c-.46-.196-1.108-.31-1.718-.31m8.558 12.671c3.371 0 6.312-2.53 6.312-6.35s-2.94-6.322-6.312-6.322c-3.37 0-6.286 2.503-6.286 6.323s2.915 6.349 6.286 6.349m0-2.788c-1.825 0-3.32-1.445-3.32-3.561 0-2.065 1.496-3.536 3.32-3.536 1.825 0 3.346 1.471 3.346 3.536 0 2.116-1.52 3.561-3.346 3.561m20.286-2.275a.16.16 0 0 1-.304 0l-2.286-7.078a.32.32 0 0 0-.304-.22h-2.146a.32.32 0 0 0-.303.22l-2.287 7.078a.16.16 0 0 1-.303 0l-2.286-7.078a.32.32 0 0 0-.304-.22h-2.48a.32.32 0 0 0-.3.427l4.153 11.415a.32.32 0 0 0 .3.21h2.002a.32.32 0 0 0 .304-.222l2.565-8.011 2.689 8.015a.32.32 0 0 0 .303.218h2.029a.32.32 0 0 0 .3-.213l4.033-11.414a.32.32 0 0 0-.301-.426h-2.485a.32.32 0 0 0-.303.221zm15.886-5.725c-.811-1.265-2.459-1.884-3.954-1.884-3.118 0-5.804 2.452-5.804 6.323 0 3.845 2.712 6.349 5.829 6.349 1.445 0 3.118-.645 3.929-1.91v1.28a.32.32 0 0 0 .319.32h2.302a.32.32 0 0 0 .319-.32v-17.1a.32.32 0 0 0-.426-.301l-2.302.821a.32.32 0 0 0-.212.3zm-3.472 8c-1.825 0-3.321-1.574-3.321-3.587s1.496-3.51 3.321-3.51a3.473 3.473 0 0 1 3.421 3.51c0 2.116-1.622 3.587-3.421 3.587m15.089 2.788c1.932 0 3.527-.823 4.616-2.08a.307.307 0 0 0-.045-.44l-1.586-1.281a.35.35 0 0 0-.461.035c-.617.61-1.525.978-2.473.978-2.053 0-3.523-1.548-3.523-3.561 0-2.04 1.47-3.536 3.523-3.536.948 0 1.856.368 2.473.978a.35.35 0 0 0 .461.035l1.586-1.28a.307.307 0 0 0 .045-.44c-1.089-1.258-2.684-2.08-4.616-2.08-3.422 0-6.438 2.503-6.438 6.323s3.016 6.349 6.438 6.349m15.636-10.685c-.785-1.265-2.357-1.987-3.979-1.987-3.346 0-5.779 2.684-5.779 6.323 0 3.742 2.535 6.349 5.703 6.349 1.698 0 3.27-.878 4.055-2.194v1.565a.32.32 0 0 0 .319.319h2.303a.32.32 0 0 0 .319-.32V10.14a.32.32 0 0 0-.319-.319h-2.303a.32.32 0 0 0-.319.32zm-3.447 7.897c-1.926 0-3.371-1.626-3.371-3.561s1.445-3.536 3.346-3.536c1.749 0 3.422 1.471 3.422 3.536 0 2.013-1.572 3.561-3.397 3.561m13.341 2.788c2.408 0 4.815-1.343 4.815-3.794 0-1.11-.481-2.813-3.142-3.51l-1.901-.516c-.685-.155-1.268-.516-1.268-1.136 0-.748.634-1.29 1.546-1.29.724 0 1.372.386 1.533 1.026.044.17.182.316.358.316h2.178a.303.303 0 0 0 .308-.317c-.158-2.453-2.434-3.451-4.453-3.451-2.585 0-4.41 1.703-4.41 3.587 0 1.523.684 2.968 3.346 3.69l1.571.414c.887.206 1.394.516 1.394 1.187 0 .774-.76 1.368-1.926 1.368-1.081 0-1.759-.587-1.916-1.284-.039-.172-.179-.316-.355-.316h-2.118a.3.3 0 0 0-.306.325c.233 2.377 2.489 3.7 4.746 3.7M168.491 9.82V5.834a.32.32 0 0 0-.427-.3l-2.302.821a.32.32 0 0 0-.211.3V9.82h-1.811a.32.32 0 0 0-.319.32v1.736a.32.32 0 0 0 .319.319h1.811v9.359c0 .176.142.319.319.319h2.302a.32.32 0 0 0 .319-.32v-9.358h2.19a.32.32 0 0 0 .319-.32V10.14a.32.32 0 0 0-.319-.319z"/></g></g><defs><clipPath id="a"><path fill="#fff" d="M0 0h42v26H0z"/></clipPath><clipPath id="b"><path fill="#fff" d="M0 0h42v26H0z"/></clipPath><clipPath id="c"><path fill="#fff" d="M56 4h115v19H56z"/></clipPath><clipPath id="d"><path fill="#fff" d="M56 4h115v19H56z"/></clipPath></defs></svg>