<svg xmlns="http://www.w3.org/2000/svg" width="267" height="40" fill="none" viewBox="0 0 267 40"><g fill="#fff" clip-path="url(#a)"><path d="M81.549 34h18.92v-6.08h-11.72v-5.1h10.38v-5.66h-10.38v-5.1h11.72V6h-18.92zm42.4-12.06c-2.74 4.36-5.4 6.18-8.82 6.18-4.44 0-7.02-3.12-7.02-8.54 0-5.14 2.38-7.7 6.04-7.7 2.42 0 4.42 1.08 5.04 4.68h7.2c-.78-6.86-5.16-11.12-12.16-11.12-8.12 0-13.46 5.74-13.46 14.54 0 8.86 5.34 14.58 14.12 14.58 5.74 0 9.64-2.4 12.22-5.64h9.82V34h7.16V6h-10.16zm12.98 1.36h-6.34l6.34-10.3zM66.189 6h-10.52v28h10.52c8.34 0 13.72-5.5 13.72-14s-5.38-14-13.72-14m-.1 21.92h-3.22V12.06h3.22c4.16 0 6.5 2.94 6.5 7.94 0 4.98-2.34 7.92-6.5 7.92m160.64-22.48c-8.46 0-14.14 5.74-14.14 14.56s5.68 14.56 14.14 14.56c8.48 0 14.14-5.74 14.14-14.56s-5.66-14.56-14.14-14.56m0 22.68c-4.16 0-6.78-2.78-6.78-8.12s2.62-8.12 6.78-8.12c4.18 0 6.78 2.78 6.78 8.12s-2.6 8.12-6.78 8.12m-80.84-16.06h7.06V34h7.2V12.06h7.06V6h-21.32zM259.249 6v15.42L249.969 6h-7.46v28h6.96V17.94l9.66 16.06h7.08V6zm-56.86 0h-7.2v28h18.06v-6.06h-10.86zm-16.48 10.68h-9.7V6h-7.2v28h7.2V22.72h9.7V34h7.2V6h-7.2zM35.35 0C19.713 0 .265 16.177.265 29.584.266 36.508 5.585 40 12.61 40c5.158 0 11.4-1.887 17.42-5.52V7.728c-1.605 2.75-9.152 13.828-15.213 19.73-3.09 3.01-5.54 4.314-7.646 4.314-2.369 0-3.493-1.605-3.493-3.994C3.678 16.94 21.922 2.85 34.005 2.85c4.977 0 8.188 2.208 8.188 6.503 0 3.934-2.67 8.87-7.225 13.427v8.289c7.948-6.282 12.704-14.29 12.704-20.753C47.672 3.512 42.374 0 35.35 0"/></g><defs><clipPath id="a"><path fill="#fff" d="M0 0h266.667v40H0z"/></clipPath></defs></svg>