<svg xmlns="http://www.w3.org/2000/svg" width="78" height="41" fill="none" viewBox="0 0 78 41"><path fill="#fff" d="M12.47 15.739q-3.258 0-4.725 2.28-1.439 2.254-1.439 7.82 0 4.887 1.385 7.683 1.385 2.77 4.67 2.77 1.737 0 3.177-.68 1.438-.705 1.954-1.818.543-1.14.543-5.566V17.15q-.977-.543-2.389-.977-1.385-.434-3.176-.434m6.326 21.476q-2.471 1.466-4.616 2.09a15.8 15.8 0 0 1-4.425.624q-4.616 0-7.114-2.769-2.47-2.77-2.47-9.611 0-7.548 3.312-11.485 3.312-3.963 9.91-3.964 1.575 0 2.633.163 1.059.164 2.01.408 0-2.01-.11-4.29-.08-2.309-.38-3.258-.27-.95-.95-1.222-.651-.271-1.683-.271a4.3 4.3 0 0 1-.353-1.657q0-.84.679-1.059.678-.216 4.48-.217 2.145 0 2.905.217.76.19.869.76.108.544.108 1.901v19.44q0 10.37.462 12.082.488 1.71 1.493 1.493.38.624.38 1.222 0 .76-1.819 1.439-1.792.678-2.932.678-.68 0-1.14-.488-.462-.462-1.25-2.227m19.743-21.476q-2.714 0-4.127 1.955Q33 19.62 32.864 23.747h2.796q4.453 0 6.055-.163 1.629-.19 1.873-.597.272-.407.272-1.52 0-2.688-1.358-4.209-1.357-1.52-3.964-1.52M39.57 12.1q5.05 0 7.493 2.389 2.445 2.39 2.444 7.873 0 2.417-.869 3.367t-3.8.95H32.836q.054 4.426 1.764 6.95 1.738 2.526 6.11 2.526 4.072 0 7.574-2.118 1.168 1.167 1.168 2.47 0 1.82-3.014 2.553-2.987.733-6.76.733-6.951 0-9.992-2.932-3.014-2.96-3.014-9.937 0-6.87 3.394-10.833Q33.49 12.1 39.57 12.1m18.33 3.612q2.69-1.792 5.295-2.634 2.634-.842 4.697-.842 3.611 0 5.43 1.684 1.846 1.655 1.846 6.353 0 14.607.408 15.476.434.869 1.955.841.298.788.298 1.575 0 .733-.461.977-.462.245-1.71.245-3.775 0-4.616-.082-.842-.108-1.14-.57-.3-.489-.3-1.602V25.431q0-5.592-1.194-7.439-1.167-1.846-3.801-1.846-2.253 0-3.91 1.276-1.629 1.276-1.629 4.588v5.73q0 4.805.19 8.85h3.014q.326.706.326 1.52 0 .734-.299 1.005-.299.272-1.14.272h-10.67q-.353-.87-.353-1.63 0-.597.298-.868.3-.3.978-.299h1.873q.218-4.317.218-10.588 0-8.01-.625-9.286-.624-1.276-2.39-1.276a3.7 3.7 0 0 1-.352-1.575q0-.732.57-.923.57-.218 7.195-.434.162 1.248 0 3.204"/></svg>