<svg xmlns="http://www.w3.org/2000/svg" width="172" height="40" fill="none" viewBox="0 0 172 40"><path fill="#fff" d="M.331 26.62q0-3.89 1.51-7.24 1.51-3.377 4.4-5.45 2.89-2.072 7.061-2.072 2.508 0 4.58 1.074v-2.174q0-1.126-.384-1.689a3.05 3.05 0 0 0-.844-.895 7 7 0 0 1-.845-.768q-.358-.435-.358-1.279 0-1.05.614-1.586a4.9 4.9 0 0 1 1.51-.895l5.551-2.226a20 20 0 0 1 1.996-.717 7.3 7.3 0 0 1 2.097-.307q1.05 0 1.587.742.562.716.562 1.689v28.525q0 1.254.18 1.74.179.486 1.048 1.407.511.537.717.92.204.36.204 1.127 0 1.1-.716 1.714t-1.79.614H23.28q-1.433 0-2.763-.87-1.305-.896-1.842-2.251a14 14 0 0 1-3.557 2.788q-1.97 1.075-4.425 1.075-2.61 0-4.58-1.126a10 10 0 0 1-3.223-3.045 14.6 14.6 0 0 1-1.919-4.22 17 17 0 0 1-.64-4.606m11.871-1.28q0 .921.128 2.226.153 1.28.537 2.533.41 1.227 1.177 2.072.793.819 2.047.819.972 0 1.79-.666v-13.66q-.434-.435-.972-.69a2.5 2.5 0 0 0-1.176-.282q-1.177 0-1.894.87-.69.843-1.049 2.123-.357 1.254-.486 2.533-.102 1.279-.102 2.123m47.534-3.377q0 2.278-1.356 3.454-1.33 1.177-3.53 1.177H44.54q.587 2.2 2.097 3.71 1.509 1.483 4.35 1.483a5.7 5.7 0 0 0 2.225-.46q1.126-.487 2.098-1.126a143 143 0 0 1 1.74-1.1q.742-.486 1.125-.486.742 0 1.075.537.332.511.332 1.177 0 2.328-1.1 4.093a9.1 9.1 0 0 1-2.865 2.891 13.3 13.3 0 0 1-3.889 1.714q-2.098.588-4.144.588-4.017 0-7.087-1.662a12.15 12.15 0 0 1-4.81-4.657q-1.714-3.018-1.714-7.086 0-4.35 1.663-7.573 1.69-3.224 4.835-4.988 3.147-1.791 7.548-1.791 3.044 0 5.705 1.151 2.685 1.152 4.349 3.403 1.662 2.25 1.663 5.551m-15.657.69v.564h2.66q.973 0 1.33-.435.36-.46.359-1.382 0-.614-.154-1.611a5.1 5.1 0 0 0-.614-1.791q-.435-.793-1.279-.793-.766 0-1.228.64-.46.613-.69 1.56-.23.922-.307 1.816a18 18 0 0 0-.077 1.433m33.539-4.706q0 .332.18.614l.358.562q1.023 1.407 2.123 2.866l1.126-1.535q.281-.359.511-.793.256-.435.256-.921 0-.666-.537-1.152a21 21 0 0 1-1.1-1.074q-.538-.588-.537-1.535 0-1.125.69-1.714.717-.59 1.79-.589h6.065q1.099 0 1.79.589.717.562.717 1.714 0 .972-.461 1.484-.435.511-1.126 1.1a36 36 0 0 0-3.658 3.556 72 72 0 0 0-3.249 3.914 528 528 0 0 0 7.675 9.722q.333.409.614.818.307.41.307.972 0 1.126-.691 1.74-.691.59-1.79.589H75.98q-1.1 0-1.79-.589-.692-.614-.692-1.74 0-.818.486-1.714.512-.921.512-1.023t-.844-1.33a129 129 0 0 0-2.047-3.019q-.358.614-.716 1.151v.026q-.36.46-.69.972a2 2 0 0 0-.334 1.126q0 .588.538 1.049.563.46 1.1 1.1.537.614.537 1.662 0 1.126-.69 1.74-.69.59-1.792.589h-6.293q-1.074 0-1.79-.614-.717-.614-.717-1.715t.589-1.662q.588-.564 1.381-1.152a17 17 0 0 0 3.607-3.556 53 53 0 0 0 2.866-4.195 719 719 0 0 0-2.815-3.915q-1.253-1.79-1.611-2.2-.563-.69-1.203-1.279-.639-.614-1.305-1.202a6.5 6.5 0 0 1-.946-1.05q-.36-.51-.359-1.355 0-1.152.692-1.714.715-.59 1.816-.589h12.612q1.1 0 1.791.589.716.562.716 1.714 0 .87-.486 1.56t-.486 1.408m27.118 21.668q-4.374 0-6.907-2.02-2.507-2.047-2.507-6.652v-11.13q0-1.1-.487-1.637a4 4 0 0 0-1.125-.87 5 5 0 0 1-1.126-.844q-.486-.512-.485-1.535 0-1.05.742-1.638a2.64 2.64 0 0 1 1.739-.614h1.151q.742 0 1.458-.742a13 13 0 0 0 1.484-1.893q.767-1.125 1.586-2.225.844-1.125 1.791-1.868.947-.768 2.072-.767 1.28 0 1.996.716t.716 1.995v4.784h5.808q.972 0 1.663.46.69.462.691 1.536 0 1.433-.922 2.174-.895.743-2.174.998-1.279.23-2.405.23h-2.661v10.131q0 1.255.487 2.38.486 1.1 1.995 1.1.998 0 1.689-.563.715-.588 1.33-1.151.639-.564 1.356-.563.664 0 .921.64.28.64.281 1.15 0 2.585-1.561 4.478t-3.914 2.916q-2.328 1.023-4.682 1.023m37.582-17.652q0 2.278-1.356 3.454-1.33 1.177-3.53 1.177h-10.31q.588 2.2 2.098 3.71 1.509 1.483 4.348 1.483 1.126 0 2.226-.46 1.126-.487 2.098-1.126.998-.64 1.74-1.1.742-.486 1.126-.486.741 0 1.074.537.333.511.333 1.177 0 2.328-1.1 4.093a9.1 9.1 0 0 1-2.866 2.891 13.3 13.3 0 0 1-3.889 1.714 15.3 15.3 0 0 1-4.144.588q-4.017 0-7.087-1.662a12.15 12.15 0 0 1-4.809-4.657q-1.714-3.018-1.714-7.086 0-4.35 1.663-7.573 1.688-3.224 4.835-4.988 3.147-1.791 7.547-1.791 3.044 0 5.705 1.151 2.686 1.152 4.349 3.403 1.663 2.25 1.663 5.551m-15.657.69v.564h2.661q.972 0 1.33-.435.358-.46.358-1.382 0-.614-.153-1.611a5.1 5.1 0 0 0-.614-1.791q-.435-.793-1.279-.793-.768 0-1.228.64-.461.613-.691 1.56-.23.922-.307 1.816a18 18 0 0 0-.077 1.433m31.826 1.05v7.47q0 1.485.332 1.996.359.511 1.842.818 1.305.255 2.073.614.793.333.793 1.944 0 1.152-.691 1.74-.691.59-1.816.589h-13.508q-1.1 0-1.817-.589-.716-.588-.716-1.74 0-.92.333-1.381.358-.46.792-.819.461-.383.793-.972.359-.614.359-1.842v-9.286q0-1.152-.41-1.715a3.1 3.1 0 0 0-.895-.92 6 6 0 0 1-.895-.742q-.384-.435-.384-1.28 0-.998.64-1.56.665-.589 1.509-.921l6.395-2.533q.615-.255 1.254-.486.64-.23 1.331-.23.894 0 1.33.69.435.666.588 1.561.18.87.256 1.535l.153.921q.078.46.128.921.793-2.354 2.431-3.99 1.662-1.639 4.579-1.638 2.073 0 3.249 1.023 1.203 1.023 1.714 2.635.513 1.587.512 3.377 0 1.663-.435 3.224-.434 1.535-1.535 2.532-1.074.998-3.044.998-2.15 0-3.147-.665-.972-.666-1.254-1.637a7.7 7.7 0 0 1-.306-1.945q0-.972-.154-1.637t-.921-.665q-.69 0-.998.972a8.6 8.6 0 0 0-.384 2.047 26 26 0 0 0-.076 1.586"/></svg>