<svg xmlns="http://www.w3.org/2000/svg" width="226" height="16" fill="none" viewBox="0 0 226 16"><g clip-path="url(#a)"><mask id="b" width="226" height="16" x="0" y="0" maskUnits="userSpaceOnUse" style="mask-type:luminance"><path fill="#fff" d="M226 .5H0v15h226z"/></mask><g mask="url(#b)"><mask id="c" width="226" height="16" x="0" y="0" maskUnits="userSpaceOnUse" style="mask-type:alpha"><path fill="#000" d="M225.806.762H.207v14.363h225.599z"/></mask><g mask="url(#c)"><path fill="#fff" d="M214.913 15.103h6.332c1.009 0 1.616-.14 2.156-.388 1.448-.63 2.405-2.037 2.405-3.757s-1.008-3.055-2.505-3.643a3.34 3.34 0 0 0 1.329-2.696c0-1.588-.87-2.877-2.208-3.475-.508-.23-1.089-.36-2.036-.36h-5.473v14.322zm1.788-1.65v-5.08h4.283c.749 0 1.137.071 1.486.21.918.378 1.568 1.229 1.568 2.328s-.65 1.956-1.568 2.327c-.349.14-.74.22-1.486.22h-4.283zm0-6.672V2.398h3.504c.678 0 1.027.058 1.338.2.798.34 1.357 1.038 1.357 1.988s-.559 1.669-1.357 1.998c-.32.13-.669.2-1.329.2h-3.513zM193.587.77v8.269c0 1.038.129 1.736.359 2.376.769 2.176 2.734 3.685 5.32 3.685s4.554-1.506 5.311-3.685c.239-.64.378-1.338.378-2.376V.768h-1.788v8.27c0 .808-.071 1.3-.219 1.749-.511 1.548-1.869 2.635-3.695 2.635s-3.155-1.09-3.665-2.635c-.149-.45-.23-.938-.23-1.75V.77h-1.778zm-17.92 0V15.1h9.506v-1.677h-7.718V.772h-1.788zm-9.283 4.933c-.918-3.007-3.633-4.933-6.91-4.933-4.125 0-7.26 3.116-7.26 7.16s3.184 7.17 7.26 7.17c3.335 0 6.07-2.046 6.949-5.033l-1.707-.53c-.688 2.357-2.666 3.876-5.242 3.876-3.165 0-5.453-2.386-5.453-5.483s2.298-5.483 5.453-5.483c2.556 0 4.531 1.507 5.233 3.805z"/></g><mask id="d" width="226" height="16" x="0" y="0" maskUnits="userSpaceOnUse" style="mask-type:alpha"><path fill="#000" d="M225.806.762H.207v14.363h225.599z"/></mask><g mask="url(#d)"><path fill="#fff" d="M132.555.781h-4.913v14.321h4.913c1.157 0 1.898-.12 2.605-.33 2.926-.908 5.072-3.533 5.072-6.82s-2.146-5.923-5.072-6.821c-.707-.22-1.448-.35-2.605-.35m0 11.583h-1.926V3.545h1.926c1.047 0 1.649.14 2.188.379 1.549.698 2.496 2.237 2.496 4.024 0 1.788-.947 3.337-2.496 4.025-.539.24-1.137.388-2.188.388m-24.888 2.735V6.038l8.497 9.058h1.626V.781h-2.986V9.85L106.306.781h-1.629v14.321h2.987zm-15.205-7.16c0 2.476-1.658 4.403-4.234 4.403s-4.225-1.927-4.225-4.404 1.659-4.412 4.225-4.412 4.234 1.946 4.234 4.412m3.064 0c0-4.016-3.096-7.161-7.298-7.161s-7.289 3.145-7.289 7.16 3.097 7.161 7.289 7.161 7.298-3.136 7.298-7.16M56.286.774v14.321h2.987V6.3l4.765 5.602 4.76-5.602v8.796h2.987V.781h-1.629l-6.122 7.1-6.122-7.1h-1.629zM40.634 4.27 42.75 10h-4.263zm4.043 10.826h3.107L42.11.785h-2.954l-5.683 14.311h3.107l.879-2.386h6.319zm-22.703 0h2.996V.781h-2.996v14.321zM5.143.781H.229v14.321h4.914c1.157 0 1.897-.12 2.605-.33 2.925-.908 5.071-3.533 5.071-6.82S10.673 2.029 7.748 1.13C7.04.91 6.3.78 5.143.78m0 11.583H3.216V3.545h1.927c1.047 0 1.648.14 2.188.379 1.548.698 2.495 2.237 2.495 4.024 0 1.788-.947 3.337-2.495 4.025-.54.24-1.138.388-2.188.388"/></g><mask id="e" width="226" height="16" x="0" y="0" maskUnits="userSpaceOnUse" style="mask-type:alpha"><path fill="#000" d="M225.806.762H.207v14.363h225.599z"/></mask><g mask="url(#e)"><path stroke="#fff" stroke-miterlimit="5.03" stroke-width=".205" d="M132.555.781h-4.913v14.321h4.913c1.157 0 1.898-.12 2.605-.33 2.926-.908 5.072-3.533 5.072-6.82s-2.146-5.923-5.072-6.822c-.707-.22-1.448-.349-2.605-.349Zm0 11.583h-1.926V3.545h1.926c1.047 0 1.649.14 2.188.379 1.549.698 2.496 2.237 2.496 4.024 0 1.788-.947 3.336-2.496 4.025-.539.24-1.137.388-2.188.388zM107.667 15.1V6.041l8.497 9.058h1.626V.781h-2.986V9.85L106.306.781h-1.629v14.321h2.987zM92.462 7.94c0 2.476-1.658 4.403-4.234 4.403s-4.225-1.927-4.225-4.403c0-2.477 1.659-4.413 4.225-4.413s4.234 1.946 4.234 4.413Zm3.064 0c0-4.015-3.096-7.16-7.298-7.16s-7.289 3.145-7.289 7.16 3.097 7.16 7.289 7.16 7.298-3.136 7.298-7.16ZM56.286.779v14.32h2.987V6.303l4.765 5.602 4.76-5.602v8.796h2.987V.781h-1.629l-6.122 7.1-6.122-7.1h-1.629zM40.634 4.272l2.117 5.731h-4.263zm4.043 10.826h3.107L42.11.788h-2.954l-5.683 14.311h3.107l.879-2.386h6.319zm-22.703 0h2.996V.781h-2.996v14.321zM5.143.781H.229v14.321h4.914c1.157 0 1.897-.12 2.605-.33 2.925-.908 5.071-3.533 5.071-6.82S10.673 2.029 7.748 1.13C7.04.91 6.3.781 5.143.781Zm0 11.583H3.216V3.545h1.927c1.047 0 1.648.14 2.188.379 1.548.698 2.495 2.237 2.495 4.024 0 1.788-.947 3.336-2.495 4.025-.54.24-1.138.388-2.188.388z"/></g></g></g><defs><clipPath id="a"><path fill="#fff" d="M0 0h226v16H0z"/></clipPath></defs></svg>