<svg xmlns="http://www.w3.org/2000/svg" width="113" height="26" fill="none" viewBox="0 0 113 26"><mask id="a" width="15" height="2" x="0" y="19" maskUnits="userSpaceOnUse" style="mask-type:luminance"><path fill="#fff" d="M14.14 19.164H.726a.725.725 0 1 0 0 1.45h13.416a.725.725 0 0 0 0-1.45"/></mask><g mask="url(#a)"><path fill="#ccc" d="M.48 19.164h14.386l-.48 1.45H0z"/></g><mask id="b" width="15" height="3" x="0" y="14" maskUnits="userSpaceOnUse" style="mask-type:luminance"><path fill="#fff" d="M14.14 14.919H.726a.725.725 0 0 0 0 1.45h13.416a.725.725 0 0 0 0-1.45"/></mask><g mask="url(#b)"><path fill="#ccc" d="M.48 14.919h14.386l-.48 1.45H0z"/></g><mask id="c" width="15" height="2" x="0" y="10" maskUnits="userSpaceOnUse" style="mask-type:luminance"><path fill="#fff" d="M14.14 10.18H.726a.725.725 0 0 0 0 1.45h13.416a.725.725 0 1 0 0-1.45"/></mask><g mask="url(#c)"><path fill="#ccc" d="M.48 10.18h14.386l-.48 1.45H0z"/></g><mask id="d" width="16" height="7" x="5" y="5" maskUnits="userSpaceOnUse" style="mask-type:luminance"><path fill="#fff" d="M19.68 8.278 7.632 5.665A1.45 1.45 0 0 0 7.017 8.5l12.048 2.613a1.45 1.45 0 0 0 .615-2.835"/></mask><g mask="url(#d)"><path fill="#fff" d="M7.54 5.556 21.492 8.58l-1.468 2.28L6.07 7.833z"/></g><mask id="e" width="16" height="6" x="4" y="10" maskUnits="userSpaceOnUse" style="mask-type:luminance"><path fill="#fff" d="M18.668 13.054 6.621 10.44a1.45 1.45 0 1 0-.615 2.834l12.048 2.613a1.45 1.45 0 0 0 .614-2.835"/></mask><g mask="url(#e)"><path fill="#fff" d="m6.528 10.331 13.952 3.026-1.468 2.279L5.06 12.61z"/></g><mask id="f" width="16" height="6" x="3" y="15" maskUnits="userSpaceOnUse" style="mask-type:luminance"><path fill="#fff" d="M17.668 17.69 5.621 15.077a1.45 1.45 0 0 0-.615 2.835l12.048 2.612a1.45 1.45 0 0 0 .614-2.834"/></mask><g mask="url(#f)"><path fill="#fff" d="m5.528 14.967 13.952 3.026-1.468 2.279L4.06 17.246z"/></g><path fill="#fff" d="M36.603 19.826a5.37 5.37 0 0 1-2.828-.774 5.64 5.64 0 0 1-2.022-2.132q-.74-1.359-.74-3.105 0-1.735.728-3.083a5.64 5.64 0 0 1 2.012-2.144q1.28-.784 2.917-.784 1.303 0 2.398.552a4.64 4.64 0 0 1 1.767 1.536V.456h2.752v19.016h-2.752V17.66a5.25 5.25 0 0 1-1.845 1.591 5.06 5.06 0 0 1-2.387.575m.796-2.354q1.028 0 1.812-.464.796-.476 1.249-1.293.453-.828.453-1.89 0-1.06-.453-1.889a3.3 3.3 0 0 0-1.249-1.304q-.785-.475-1.812-.475-1.005 0-1.801.475-.796.465-1.249 1.304-.453.83-.453 1.9 0 1.05.442 1.88.453.816 1.249 1.292.795.464 1.812.464m9.34 2V8.157h2.751v11.315zM48.12 5.837q-.453 0-.84-.221a1.84 1.84 0 0 1-.607-.608 1.7 1.7 0 0 1-.221-.85q0-.455.22-.83.233-.375.608-.596.387-.232.84-.232.465 0 .829.232.376.22.596.596.233.376.233.83 0 .463-.233.85-.22.375-.596.608-.365.22-.829.22m9.82 13.989a6.5 6.5 0 0 1-2.42-.453 6.4 6.4 0 0 1-1.988-1.282 6.1 6.1 0 0 1-1.36-1.912 5.75 5.75 0 0 1-.485-2.364 5.8 5.8 0 0 1 .464-2.31q.475-1.094 1.315-1.922a6.3 6.3 0 0 1 4.464-1.78q1.105 0 2.11.321 1.017.321 1.68.84l-.984 1.856q-.972-.74-2.397-.74-1.171 0-2.023.52a3.43 3.43 0 0 0-1.303 1.37 3.9 3.9 0 0 0-.453 1.845q0 1.05.475 1.9.474.84 1.337 1.337.861.497 1.989.497.696 0 1.303-.198a3.4 3.4 0 0 0 1.061-.542l.995 1.857q-.675.508-1.669.828a6.6 6.6 0 0 1-2.11.332m11.07 0q-1.811 0-3.248-.785a6.03 6.03 0 0 1-2.266-2.143q-.828-1.36-.828-3.061 0-1.26.475-2.354a6.08 6.08 0 0 1 3.27-3.215 6.2 6.2 0 0 1 2.41-.464q1.768 0 3.093.729a5.2 5.2 0 0 1 2.078 2.033q.75 1.304.751 3.039 0 .143-.011.243-.01.088-.044.31h-9.216q0 1.026.465 1.811.464.774 1.292 1.216.84.43 1.923.43 1.028 0 1.823-.408.807-.42 1.459-1.27l2 1.027a5.64 5.64 0 0 1-2.243 2.11q-1.425.752-3.183.752m-3.414-7.392h6.42a3 3 0 0 0-.586-1.337 3 3 0 0 0-1.116-.873q-.674-.32-1.503-.32-.872 0-1.558.309a2.86 2.86 0 0 0-1.116.872 2.8 2.8 0 0 0-.541 1.348m11.334 7.038V8.157h2.75v1.647q.598-.973 1.492-1.481a3.85 3.85 0 0 1 1.967-.52q.565 0 1.15.155.596.144 1.016.387l-1.138 2.332a3.3 3.3 0 0 0-.85-.354 3.3 3.3 0 0 0-.885-.133q-.707 0-1.337.365a3.15 3.15 0 0 0-1.027.94 2.17 2.17 0 0 0-.387 1.237v6.74zm11.732.354q-.408 0-.74-.2a1.5 1.5 0 0 1-.53-.53 1.4 1.4 0 0 1-.2-.729q0-.397.2-.73.199-.33.53-.518.331-.2.73-.2.408 0 .729.2.33.188.52.519.198.33.198.73 0 .397-.199.729a1.43 1.43 0 0 1-.52.53 1.33 1.33 0 0 1-.718.199m10.523 0q-1.602 0-2.884-.774a5.7 5.7 0 0 1-2.022-2.143q-.74-1.36-.74-3.094 0-1.746.74-3.094a5.55 5.55 0 0 1 2.011-2.133q1.282-.784 2.895-.784 1.614 0 2.917.784a4.86 4.86 0 0 1 1.945 2.166V8.157h1.171v11.315h-1.171v-2.619a5.5 5.5 0 0 1-2 2.188q-1.27.785-2.862.785m.243-1.039q1.37 0 2.42-.63a4.46 4.46 0 0 0 1.658-1.768q.607-1.127.607-2.574 0-1.459-.607-2.575a4.4 4.4 0 0 0-1.658-1.757q-1.05-.64-2.42-.64t-2.43.64a4.5 4.5 0 0 0-1.658 1.757q-.608 1.116-.608 2.575 0 1.447.608 2.574.607 1.116 1.657 1.757 1.061.64 2.431.641m9.631.685V8.157h1.171v11.315zm.586-13.558a.823.823 0 0 1-.818-.818q0-.231.111-.408a.82.82 0 0 1 .707-.41q.231 0 .409.111a.83.83 0 0 1 .298.299q.11.176.11.397a.8.8 0 0 1-.11.42.83.83 0 0 1-.298.299.76.76 0 0 1-.409.11"/></svg>