<svg xmlns="http://www.w3.org/2000/svg" width="193" height="40" fill="none" viewBox="0 0 193 40"><path fill="#ddd" d="m32.206 9.942-12.169 6.066a2.27 2.27 0 0 0-1.252 2.084v15.779a2.25 2.25 0 0 0 2.145 2.328c.392.018.782-.066 1.132-.244L34.23 29.87a2.25 2.25 0 0 0 1.252-2.084v-15.82a2.25 2.25 0 0 0-2.16-2.266 2.26 2.26 0 0 0-1.117.243"/><path fill="#bbb" d="m3.278 9.942 12.168 6.066a2.27 2.27 0 0 1 1.252 2.084v15.779a2.25 2.25 0 0 1-2.145 2.328 2.26 2.26 0 0 1-1.132-.244l-12.168-6.19A2.25 2.25 0 0 1 .001 27.68V11.964A2.25 2.25 0 0 1 2.162 9.7a2.26 2.26 0 0 1 1.116.243"/><path fill="#fff" d="m21.874 13.048-2.9 1.543a2.84 2.84 0 0 1-2.464 0l-2.9-1.543a1.94 1.94 0 0 1-1.086-1.75V5.21a5.2 5.2 0 0 1 1.528-3.685 5.22 5.22 0 0 1 7.38 0 5.2 5.2 0 0 1 1.527 3.685v6.086a1.94 1.94 0 0 1-1.085 1.751"/><path fill="#fff" fill-rule="evenodd" d="M91.837 6.795a1 1 0 0 0 .209.73.9.9 0 0 0 .71.312h5.03a.94.94 0 0 0 .73-.313.94.94 0 0 0 .292-.729v-3.69a.96.96 0 0 0-.292-.729 1 1 0 0 0-.73-.292h-4.968a1.02 1.02 0 0 0-.689.292 1.04 1.04 0 0 0-.292.73zm-.084 23.49a.98.98 0 0 0 .293.689l.02.041a.94.94 0 0 0 .69.25h4.946a1.005 1.005 0 0 0 .96-.591.9.9 0 0 0 .063-.388V11.672a.85.85 0 0 0-.293-.708 1 1 0 0 0-.73-.292h-4.968a1.02 1.02 0 0 0-.912.615.9.9 0 0 0-.069.385zm-25.799-7.92a10.4 10.4 0 0 0 2.359 6.879 7.72 7.72 0 0 0 6.053 2.418 7.44 7.44 0 0 0 6.136-2.606v1.23a.92.92 0 0 0 .313.688.88.88 0 0 0 .689.292h4.716a1.005 1.005 0 0 0 .96-.592.9.9 0 0 0 .063-.388V4.148a.85.85 0 0 0-.292-.709 1 1 0 0 0-.73-.292h-5.114a.94.94 0 0 0-.689.292.88.88 0 0 0-.313.709v8.442a7.5 7.5 0 0 0-5.74-2.314 7.71 7.71 0 0 0-6.031 2.48 10.4 10.4 0 0 0-2.38 6.795zm14.151-.041a4.8 4.8 0 0 1-.897 2.751v.042a3.61 3.61 0 0 1-3.941.784 3.6 3.6 0 0 1-1.173-.784 5.6 5.6 0 0 1-.876-2.919v-2.46a5.54 5.54 0 0 1 .876-2.896 2.98 2.98 0 0 1 2.567-1.063 3.18 3.18 0 0 1 2.526 1.021c.58.722.903 1.617.918 2.543zm27.306 16.425a8.5 8.5 0 0 1-3.423-2.814 5.3 5.3 0 0 1-1.022-2.69.87.87 0 0 1 .313-.666 1 1 0 0 1 .709-.271h5.322c.221-.008.439.05.627.166.197.168.348.383.438.626.23.525.58.99 1.023 1.355a3.22 3.22 0 0 0 2.087.5 3.45 3.45 0 0 0 2.546-.855c.64-.799.94-1.817.835-2.834v-2.648a7.6 7.6 0 0 1-5.761 2.189 7.9 7.9 0 0 1-6.115-2.334 10.42 10.42 0 0 1-2.317-6.816v-1.084c-.176-2.685.56-5.35 2.088-7.567a7.6 7.6 0 0 1 6.261-2.73 8 8 0 0 1 3.569.771 7.5 7.5 0 0 1 2.588 2.085v-1.418a1 1 0 0 1 .271-.73.9.9 0 0 1 .71-.312h4.842a1.064 1.064 0 0 1 1.044 1.042v18.968a8.71 8.71 0 0 1-2.734 6.92 11.43 11.43 0 0 1-7.702 2.376 13.2 13.2 0 0 1-6.199-1.23m8.349-14.32a4.6 4.6 0 0 0 .96-2.626v-1.189a11 11 0 0 0 0-1.188 4.5 4.5 0 0 0-.96-2.626 3.09 3.09 0 0 0-2.526-1.021 2.96 2.96 0 0 0-2.546 1.063 5.2 5.2 0 0 0-.877 2.897v.875c-.067 1.23.2 2.454.773 3.544a2.86 2.86 0 0 0 2.692 1.292 3.03 3.03 0 0 0 2.525-1.021zm13.518 11.506a8.66 8.66 0 0 0 3.423 2.813 13.25 13.25 0 0 0 6.094 1.23c2.772.17 5.509-.675 7.702-2.376a8.72 8.72 0 0 0 2.734-6.92V11.714a1 1 0 0 0-.292-.73 1.02 1.02 0 0 0-.751-.312h-4.78a.94.94 0 0 0-.731.313 1.1 1.1 0 0 0-.271.73v1.417a7.6 7.6 0 0 0-2.567-2.085 8.2 8.2 0 0 0-3.527-.771 7.67 7.67 0 0 0-6.262 2.73 11.96 11.96 0 0 0-2.087 7.567v1.084a10.4 10.4 0 0 0 2.317 6.816 7.94 7.94 0 0 0 6.136 2.334 7.6 7.6 0 0 0 5.74-2.189v2.648a3.9 3.9 0 0 1-.835 2.834 3.38 3.38 0 0 1-2.526.855 3.16 3.16 0 0 1-2.087-.5 3.5 3.5 0 0 1-1.043-1.355 1.5 1.5 0 0 0-.439-.626 1.06 1.06 0 0 0-.626-.166h-5.322a1.04 1.04 0 0 0-.939.57.9.9 0 0 0-.084.37 5.3 5.3 0 0 0 1.023 2.687m12.732-14.133a4.6 4.6 0 0 1-.96 2.627h.041a3.03 3.03 0 0 1-2.546 1 2.86 2.86 0 0 1-2.692-1.292 7.03 7.03 0 0 1-.752-3.544v-.854a5.2 5.2 0 0 1 .877-2.897 2.98 2.98 0 0 1 2.546-1.063 3.1 3.1 0 0 1 2.526 1.021c.592.75.928 1.672.96 2.626q.03.594 0 1.188zm13.927 7.275a10.08 10.08 0 0 1-2.859-7.546v-1.23a10.1 10.1 0 0 1 2.943-7.357 10.44 10.44 0 0 1 7.492-2.668 11.2 11.2 0 0 1 5.761 1.376 8.6 8.6 0 0 1 3.527 3.751 12.15 12.15 0 0 1 1.19 5.461v.98a.94.94 0 0 1-.313.73.95.95 0 0 1-.731.291h-12.523v.25a4.87 4.87 0 0 0 .835 2.877 2.59 2.59 0 0 0 2.254 1.084 2.75 2.75 0 0 0 1.524-.375c.409-.271.776-.6 1.085-.98.167-.192.366-.354.585-.48.218-.088.454-.124.688-.104h5.197a.94.94 0 0 1 .627.209q.118.102.185.243a.7.7 0 0 1 .065.299 4.17 4.17 0 0 1-1.169 2.418 9.5 9.5 0 0 1-3.423 2.376 13.2 13.2 0 0 1-5.28.98 10.72 10.72 0 0 1-7.66-2.585m10.749-10.234a4.63 4.63 0 0 0-.835-2.96 2.86 2.86 0 0 0-2.338-1.042 2.78 2.78 0 0 0-2.316 1.042 4.75 4.75 0 0 0-.814 2.96zm10.943 11.86q.075.182.221.312a.88.88 0 0 0 .689.25h5.343a.96.96 0 0 0 1.022-.98v-9.983a3.4 3.4 0 0 1 .852-2.46 3.23 3.23 0 0 1 2.338-.875h3.923a.88.88 0 0 0 .71-.292.92.92 0 0 0 .271-.688v-4.315a.91.91 0 0 0-.271-.708.96.96 0 0 0-.71-.292h-1.711a8 8 0 0 0-3.298.667 7.7 7.7 0 0 0-2.609 1.876v-1.5a1 1 0 0 0-.292-.73.98.98 0 0 0-.73-.313h-4.843a.9.9 0 0 0-.709.313 1 1 0 0 0-.271.73v18.613a.9.9 0 0 0 .07.375z" clip-rule="evenodd"/></svg>