<svg xmlns="http://www.w3.org/2000/svg" width="185" height="40" fill="none" viewBox="0 0 185 40"><g fill="#fff" clip-path="url(#a)"><path d="M58.713 32.301h-7.739V8.303h7.984q3.514 0 6.035 1.441 2.52 1.43 3.863 4.113 1.354 2.672 1.354 6.41 0 3.75-1.365 6.445-1.354 2.696-3.922 4.148-2.568 1.441-6.21 1.441m-4.132-3.164h3.934q2.73 0 4.54-1.03 1.81-1.044 2.708-3.012.9-1.98.899-4.828 0-2.824-.899-4.793-.886-1.968-2.65-2.988-1.761-1.02-4.376-1.02H54.58zm18.848 3.164V14.302h3.49v18zm1.762-20.776a2.2 2.2 0 0 1-1.564-.61q-.642-.62-.641-1.476 0-.867.641-1.476a2.2 2.2 0 0 1 1.564-.621q.91 0 1.553.62.654.611.653 1.477 0 .855-.653 1.477-.642.61-1.553.61m13.806 2.777v2.813h-9.793v-2.813zM81.83 9.99h3.49v17.027q0 1.018.304 1.534.302.505.782.692.489.176 1.062.176.42 0 .735-.059t.49-.094l.63 2.895q-.303.117-.863.234-.56.13-1.4.14a6.1 6.1 0 0 1-2.569-.491 4.4 4.4 0 0 1-1.926-1.594q-.735-1.078-.735-2.707zm18.41 4.312v2.813h-9.793v-2.813zM93.073 9.99h3.49v17.027q0 1.018.304 1.534.303.505.782.692.49.176 1.062.176.42 0 .735-.059.316-.058.49-.094l.631 2.895q-.304.117-.864.234-.56.13-1.4.14a6.1 6.1 0 0 1-2.568-.491 4.4 4.4 0 0 1-1.926-1.594q-.736-1.078-.736-2.707zm17.401 22.675q-2.521 0-4.401-1.16-1.879-1.161-2.917-3.246-1.04-2.087-1.039-4.875 0-2.8 1.039-4.898 1.038-2.099 2.917-3.258 1.88-1.16 4.401-1.16t4.4 1.16q1.88 1.161 2.918 3.258 1.04 2.096 1.039 4.898 0 2.79-1.039 4.875t-2.918 3.246-4.4 1.16m.012-2.942q1.633 0 2.707-.867t1.588-2.308q.525-1.442.525-3.176 0-1.722-.525-3.164-.514-1.453-1.588-2.332t-2.707-.879q-1.647 0-2.732.88-1.074.878-1.599 2.331-.513 1.442-.514 3.164 0 1.734.514 3.176.525 1.44 1.599 2.308 1.085.867 2.732.867m19.787-15.42v2.812h-10.132v-2.813zM122.919 32.3V12.216q0-1.687.736-2.8a4.5 4.5 0 0 1 1.949-1.676 6.2 6.2 0 0 1 2.638-.562q1.05 0 1.797.176.747.163 1.109.304l-.817 2.836a16 16 0 0 0-.63-.164 3.6 3.6 0 0 0-.934-.105q-1.272 0-1.821.632-.537.633-.537 1.828v19.616zm16.989.364q-2.649 0-4.564-1.137-1.902-1.149-2.941-3.222-1.027-2.087-1.027-4.887 0-2.765 1.027-4.875 1.04-2.108 2.895-3.293 1.868-1.182 4.365-1.183 1.518 0 2.941.504 1.425.504 2.557 1.582t1.786 2.8q.653 1.712.653 4.16v1.242h-14.252v-2.624h10.832q0-1.383-.56-2.45a4.25 4.25 0 0 0-1.576-1.699q-1.004-.62-2.358-.62-1.47 0-2.567.726a4.87 4.87 0 0 0-1.681 1.875 5.4 5.4 0 0 0-.584 2.496v2.05q0 1.805.63 3.07.643 1.266 1.786 1.934 1.145.656 2.673.656.993 0 1.81-.281a3.9 3.9 0 0 0 1.412-.867q.595-.575.91-1.418l3.303.598a6 6 0 0 1-1.424 2.566q-1.015 1.09-2.556 1.699-1.528.598-3.49.598m18.305 0q-2.649 0-4.564-1.137-1.902-1.149-2.941-3.222-1.027-2.087-1.027-4.887 0-2.765 1.027-4.875 1.04-2.108 2.895-3.293 1.868-1.182 4.365-1.183 1.517 0 2.942.504a7.1 7.1 0 0 1 2.556 1.582q1.132 1.078 1.785 2.8.654 1.712.654 4.16v1.242h-14.252v-2.624h10.832q0-1.383-.56-2.45a4.25 4.25 0 0 0-1.576-1.699q-1.004-.62-2.358-.62-1.47 0-2.567.726a4.87 4.87 0 0 0-1.681 1.875 5.4 5.4 0 0 0-.584 2.496v2.05q0 1.805.631 3.07.642 1.266 1.785 1.934 1.144.656 2.673.656.993 0 1.809-.281a3.9 3.9 0 0 0 1.413-.867q.595-.575.91-1.418l3.303.598a6 6 0 0 1-1.424 2.566q-1.016 1.09-2.556 1.699-1.529.598-3.49.598m17.29-.012q-2.172 0-3.875-1.113-1.693-1.125-2.662-3.2-.957-2.085-.957-5.003t.969-4.992q.98-2.074 2.684-3.175 1.705-1.102 3.864-1.102 1.669 0 2.684.562 1.027.551 1.588 1.29.572.738.887 1.3h.21V8.303h3.49V32.3h-3.408v-2.8h-.292q-.315.573-.91 1.312-.584.738-1.611 1.289t-2.661.55m.77-2.988q1.506 0 2.545-.797 1.05-.808 1.587-2.238.549-1.43.549-3.328 0-1.875-.538-3.281-.536-1.407-1.575-2.192-1.04-.785-2.568-.785-1.576 0-2.626.82t-1.588 2.239q-.525 1.417-.525 3.199 0 1.805.537 3.246.537 1.44 1.587 2.285 1.063.832 2.615.832"/><path fill-rule="evenodd" d="M26.538 34.312c1.638-6.114-1.1-12.16-6.114-13.504-5.015-1.344-10.409 2.523-12.047 8.638-1.492 5.566 1.888 6.428 6.29 7.552q.65.164 1.326.345.675.182 1.322.365c4.373 1.227 7.731 2.17 9.223-3.396m-4.089-2.642c.822-3.068-.564-6.104-3.095-6.782-2.532-.679-5.25 1.258-6.072 4.326-.772 2.882 1.043 3.36 3.365 3.97a82 82 0 0 1 .903.241c2.317.633 4.127 1.128 4.9-1.755M14.822 5.484c-1.638 6.115 1.1 12.16 6.114 13.504 5.015 1.344 10.41-2.523 12.047-8.638 1.492-5.566-1.888-6.428-6.29-7.552q-.65-.165-1.326-.344-.674-.183-1.322-.366c-4.373-1.227-7.731-2.17-9.223 3.396m4.088 2.642c-.822 3.068.564 6.104 3.096 6.783 2.531.678 5.25-1.259 6.072-4.327.772-2.882-1.043-3.36-3.366-3.97q-.222-.057-.451-.119t-.452-.122c-2.316-.633-4.126-1.128-4.899 1.755M3.46 24.27c3.86 1.034 7.993-1.882 9.234-6.512s-.882-9.221-4.74-10.255C4.44 6.56 3.633 9.678 2.58 13.738q-.155.6-.321 1.224-.168.623-.334 1.221C.807 20.225-.052 23.328 3.46 24.27m2.342-4.536c1.622.434 3.366-.812 3.894-2.783.528-1.972-.358-3.923-1.98-4.357-1.525-.409-1.899 1.004-2.377 2.812l-.093.352-.095.352c-.49 1.805-.873 3.215.651 3.624m32.074-4.208c-3.858-1.034-7.992 1.882-9.233 6.512-1.24 4.63.882 9.221 4.74 10.255 3.513.941 4.321-2.176 5.374-6.235q.155-.6.321-1.224.168-.624.334-1.221c1.118-4.042 1.977-7.145-1.536-8.087m-2.341 4.536c-1.622-.434-3.366.812-3.894 2.783-.528 1.972.359 3.923 1.98 4.357 1.525.409 1.899-1.004 2.377-2.812l.093-.352.095-.352c.49-1.805.873-3.215-.651-3.624" clip-rule="evenodd"/></g><defs><clipPath id="a"><path fill="#fff" d="M0 0h184.385v40H0z"/></clipPath></defs></svg>