<svg xmlns="http://www.w3.org/2000/svg" width="200" height="80" fill="none" viewBox="0 0 200 80"><g clip-path="url(#a)"><path fill="#fff" d="M126.616 42.427c-9.088.298-14.735 1.935-14.735 7.91 0 3.867 3.09 8.06 10.933 8.06 10.515 0 16.128-5.72 16.128-15.104l.001-1.032c-3.687 0-8.233.032-12.327.166m22.35 12.398c0 2.91.084 5.784.339 8.372h-9.323c-.249-2.13-.34-4.248-.34-6.301-5.04 6.184-11.035 7.962-19.352 7.962-12.335 0-18.94-6.508-18.94-14.035 0-10.902 8.983-14.746 24.578-15.103 4.265-.097 9.055-.111 13.015-.111l-.001-1.065c0-7.299-4.688-10.3-12.813-10.3-6.032 0-10.477 2.492-10.935 6.797h-10.531c1.115-10.734 12.414-13.45 22.348-13.45 11.902 0 21.955 4.227 21.955 16.792zM39.927 37.104c-.389-9.358-7.156-12.86-14.388-12.86-7.799 0-14.025 3.94-15.116 12.86zm-29.72 6.653c.54 9.08 6.814 14.45 15.44 14.45 5.976 0 11.291-2.431 13.071-7.718h10.337c-2.01 10.727-13.43 14.369-23.26 14.369C7.92 64.858 0 55.033 0 41.783c0-14.585 8.193-24.191 25.958-24.191 14.14 0 24.5 7.386 24.5 23.507v2.658z"/><path fill="#ccc" d="M76.166 58.016c9.315 0 15.689-6.692 15.689-16.79s-6.374-16.79-15.689-16.79c-9.262 0-15.688 6.692-15.688 16.79s6.426 16.79 15.688 16.79M50.457 0h10.02v25.128c4.91-5.84 11.677-7.537 18.338-7.537 11.167 0 23.57 7.522 23.57 23.761 0 13.6-9.865 23.505-23.756 23.505-7.272 0-14.117-2.603-18.338-7.762 0 2.06-.115 4.137-.34 6.102h-9.835c.17-3.176.341-7.13.341-10.33zM200 19.256 169.011 80H157.79l8.909-16.868-23.321-43.877h11.725l17.161 34.282 17.113-34.282z"/></g><defs><clipPath id="a"><path fill="#fff" d="M0 0h200v80H0z"/></clipPath></defs></svg>