<svg xmlns="http://www.w3.org/2000/svg" width="192" height="40" fill="none" viewBox="0 0 192 40"><g fill="#fff" clip-path="url(#a)"><path d="M151.449 0h-7.971v39.855h7.971z"/><path fill-rule="evenodd" d="M167.394 0h-7.971v39.855h7.971V7.971h15.942v31.884h7.97V7.971A7.97 7.97 0 0 0 183.336 0zm-63.773 0h23.913a7.97 7.97 0 0 1 7.971 7.971v23.913a7.97 7.97 0 0 1-7.971 7.971h-23.913zm7.971 31.884h15.942V7.971h-15.942zM39.853 0h-7.971v39.855h23.913v-7.971H39.853zM7.971 0H0v39.855h23.913v-7.971H7.971v-7.971h15.942v-7.971H7.971V7.971h15.942V0z" clip-rule="evenodd"/><path d="M79.712 0h7.971a7.97 7.97 0 0 1 7.971 7.971v23.913a7.97 7.97 0 0 1-7.97 7.971H71.74a7.97 7.97 0 0 1-7.97-7.971V7.971A7.97 7.97 0 0 1 71.74 0v31.884h15.942V7.971h-15.94A7.97 7.97 0 0 1 79.712 0"/></g><defs><clipPath id="a"><path fill="#fff" d="M0 0h191.304v40H0z"/></clipPath></defs></svg>