<svg xmlns="http://www.w3.org/2000/svg" width="224" height="40" fill="none" viewBox="0 0 224 40"><g fill="#fff" clip-path="url(#a)"><path d="M0 20.003c0-10.757 8.144-20 20.234-20s20.991 9.666 19.649 22.353H8.563c1.09 6.388 6.383 10 11.923 10 4.618 0 8.816-2.268 11-5.883l6.297 4.287c-3.526 5.713-9.824 9.243-17.296 9.243C8.649 40.003 0 30.76 0 20.003m31.486-3.783c-.671-4.454-5.036-8.823-11.252-8.823-6.215 0-10.158 3.864-11.419 8.823zm17.043 6.307V.93h7.977v21.767c0 5.883 3.36 9.666 8.9 9.666s8.901-3.783 8.901-9.666V.93h7.977v21.596c0 9.58-5.54 17.48-16.877 17.48s-16.878-7.9-16.878-17.48m44.587 16.553V.927h7.473v4.37c1.427-2.269 5.373-5.294 11.333-5.294 8.982 0 15.113 6.555 15.113 15.04V39.08h-7.977V16.725c0-5.46-3.361-9.242-8.734-9.242-5.374 0-9.235 3.864-9.235 10v21.596h-7.977zm42.06-19.076c0-10.757 8.144-20 20.234-20s20.992 9.666 19.648 22.353h-31.319c1.09 6.388 6.383 10 11.923 10 4.618 0 8.816-2.268 11-5.883l6.298 4.287c-3.528 5.713-9.825 9.243-17.298 9.243-11.838 0-20.486-9.243-20.486-20m31.486-3.783c-.671-4.454-5.036-8.823-11.252-8.823s-10.158 3.864-11.419 8.823zm15.701 3.783c0-11.344 8.9-20 20.487-20 11.585 0 20.487 8.656 20.487 20s-8.817 20-20.487 20c-11.672 0-20.487-8.656-20.487-20m32.577 0c0-7.06-5.207-12.268-12.09-12.353-6.968.085-12.09 5.293-12.09 12.353s5.122 12.268 12.09 12.268 12.09-5.212 12.09-12.268"/></g><defs><clipPath id="a"><path fill="#fff" d="M0 0h223.333v40H0z"/></clipPath></defs></svg>