<svg xmlns="http://www.w3.org/2000/svg" width="130" height="40" fill="none" viewBox="0 0 130 40"><g fill="#f5f5f5" clip-path="url(#a)"><path fill-rule="evenodd" d="M29.765.462h-6.869V28.7h6.869zM11.448 5.957h6.869v28.239h-6.869zM0 11.299h6.869v28.239H0z" clip-rule="evenodd"/><path d="M60.937 26.49v-2.213h-8.736v-5.315h7.641v-2.098h-7.641v-4.79h8.736V9.86H49.715v16.63zm4.765-.001h2.85l4.22-11.998h-2.577l-1.916 6.045-1.095 3.672h-.137l-1.117-3.695-1.917-6.022h-2.6zm7.44-6.021c0 3.832 2.144 6.25 5.703 6.25 2.828 0 4.972-1.529 5.451-3.878H81.97c-.364 1.209-1.527 2.007-3.101 2.007-1.985 0-3.308-1.277-3.308-3.17v-.662h8.6c.068-.524.09-.958.09-1.3 0-1.688-.501-3.01-1.482-3.992-.981-.98-2.304-1.46-3.946-1.46-3.49 0-5.68 2.304-5.68 6.205m2.418-1.414c0-1.734 1.323-2.92 3.239-2.92 1.848 0 3.08 1.14 3.08 2.806v.387h-6.32zm13.144-4.563c-1.642 0-2.076.867-2.076 2.053v9.945h2.35V16.453h3.877V14.49zm4.506 8.326c0 2.35 1.916 3.9 5.018 3.9 2.988 0 4.904-1.436 4.904-3.74 0-1.825-1.072-2.92-3.216-3.308l-2.28-.41c-1.21-.183-1.826-.707-1.826-1.551 0-1.026.822-1.665 2.281-1.665 1.529 0 2.327.639 2.372 1.916h2.327c-.023-2.213-1.802-3.695-4.698-3.695-2.83 0-4.654 1.368-4.654 3.672 0 1.756 1.095 2.851 3.285 3.239l2.44.456c1.027.183 1.528.684 1.528 1.506 0 1.117-.912 1.802-2.463 1.802-1.642 0-2.668-.822-2.668-2.122zm14.501-10.287V9.703h-2.327v2.829zm0 13.96V14.492h-2.327V26.49zm9.413-14.872V9.702h-3.262c-1.437 0-2.144.639-2.144 1.916v2.874h-2.326v1.962h2.326V26.49h2.327V16.454h2.532v-1.962h-2.532v-2.874zm4.95 13.388v3.376h-2.76v1.916h3.079c.89 0 1.459-.274 1.71-.753.251-.456.297-.798.297-1.323V25.03l4.95-10.538h-2.532l-1.665 3.855-1.87 4.38h-.138l-1.824-4.38-1.643-3.855h-2.554z"/></g><defs><clipPath id="a"><path fill="#fff" d="M0 0h129.351v40H0z"/></clipPath></defs></svg>