<svg xmlns="http://www.w3.org/2000/svg" width="192" height="40" fill="none" viewBox="0 0 192 40"><path fill="#fff" d="M0 19.629v19.628h25.635V32.57H7.43v-9.784h16.223V16.1H7.43V6.687h17.833V0H0zM59.071 3.282v3.282h5.078v26.254H59.07v6.44h8.793c8.978 0 10.13-.05 12.334-.496 5.276-1.09 8.855-4.273 10.266-9.127.743-2.527.805-3.344.805-9.92 0-4.668-.037-6.303-.185-7.232-.558-3.69-1.66-6.13-3.716-8.21C84.892 1.759 81.908.52 77.4.124 76.62.062 72.173 0 67.53 0h-8.458zm18.886 3.715c2.935.594 4.755 2.378 5.61 5.474l.334 1.213v11.889l-.334 1.213c-.644 2.353-1.82 3.914-3.616 4.793-1.462.73-2.304.867-5.548.954l-2.824.074V6.65l2.7.075c1.721.05 3.046.136 3.678.272m54.303 12.632v19.628h6.935v-3.344h.533c.458 0 .569.05.718.322.272.52 1.981 2.044 2.848 2.564 1.437.842 3.096 1.201 5.598 1.201 3.504 0 6.328-1.127 8.631-3.455 2.836-2.86 3.963-6.044 3.963-11.17 0-3.344-.371-5.4-1.362-7.505-2.328-4.966-6.997-7.604-12.595-7.108-1.709.148-2.662.396-3.938.99-1.04.483-2.34 1.56-2.922 2.428-.26.383-.359.433-.818.433h-.532V0h-7.059zm16.966-2.465c2.192.644 4.012 2.328 4.694 4.334.421 1.276.532 2.291.47 4.36-.087 2.947-.57 4.322-2.043 5.82-1.474 1.486-3.171 2.155-5.474 2.155-2.378.012-3.938-.607-5.461-2.118-1.647-1.647-2.155-3.133-2.143-6.328 0-2.217.161-3.183.743-4.458.867-1.883 2.774-3.418 4.781-3.827.359-.074.767-.16.904-.186.495-.123 2.86.05 3.529.248m27.43-6.39c-2.142.186-4.384.916-5.832 1.907-.954.644-2.031 1.845-2.477 2.737-.619 1.288-.83 2.254-.818 3.839.013 2.365.595 3.74 2.242 5.288 1.696 1.585 4.248 2.588 9.053 3.566 2.873.582 3.777.855 4.544 1.375 1.35.941 1.375 2.898.025 3.95-.891.719-1.684.917-3.641.93-1.882 0-2.687-.137-3.715-.657-1.412-.706-2.291-1.77-2.799-3.43-.161-.508-.334-.93-.396-.93s-1.498.36-3.207.806-3.121.805-3.146.805c-.148 0 .471 1.932.941 2.91.706 1.498 1.325 2.291 2.576 3.294 2.341 1.882 5.536 2.836 9.561 2.836 4.26 0 7.207-.99 9.362-3.145 1.709-1.71 2.353-3.505 2.254-6.254-.087-2.452-.706-3.852-2.304-5.164-1.87-1.536-4.247-2.39-9.511-3.394-4.086-.767-5.102-1.436-4.978-3.281.062-.966.446-1.524 1.375-1.97 1.25-.619 3.653-.656 5.189-.074 1.238.459 2.352 1.746 2.637 3.072.062.297.137.383.285.346.124-.037 1.573-.483 3.232-.99 1.66-.52 3.047-.966 3.084-.991.111-.124-.483-1.486-1.04-2.403-1.536-2.464-4.273-4.198-7.53-4.792-1.3-.223-3.554-.31-4.966-.186M30.86 14.39l.038 2.886 7.344.037 7.343.025-.037.458c-.037.42-.347.693-7.591 6.724l-7.555 6.267-.037 4.235-.024 4.235h23.405v-5.82H38.02v-.434c0-.42.185-.594 7.616-6.774l7.616-6.328v-8.384H30.836zm66.601 5.771c0 9.102.038 9.92.57 11.752 1.127 3.938 3.814 6.589 7.554 7.48 2.043.483 5.288.31 7.146-.384 1.151-.433 3.009-2.043 3.541-3.07.112-.224.248-.273.694-.273h.557v3.591h6.935v-27.74h-7.059v7.208c0 7.145-.062 8.631-.433 10.068-.607 2.39-2.415 4.26-4.594 4.78-.954.223-3.084.186-3.951-.062-1.56-.458-2.724-1.437-3.306-2.787-.545-1.275-.595-2.154-.595-10.922v-8.285h-7.059z"/></svg>