<svg xmlns="http://www.w3.org/2000/svg" width="100" height="40" fill="none" viewBox="0 0 100 40"><g fill="#fff" clip-path="url(#a)"><path d="M100 5.368V34.6c0 4.638-.052 4.846-.627 4.846H92.27c-.575 0-.68-.208-.68-4.846V5.368c0-4.638.105-4.847.68-4.847h7.103c.575 0 .627.209.627 4.847m-19.916 17.09v-1.094c0-2.605-1.202-3.648-3.291-3.648-2.037 0-3.134 1.095-3.448 3.023-.104.573-.052 1.042-.365 1.042h-7.052c-.418 0-.418-.104-.418-.469 0-2.762 2.612-8.494 11.7-8.494 6.425 0 11.022 2.554 11.022 9.64V32.88c0 2.397 1.305 5.784 1.305 6.253 0 .208-.156.313-.313.313H81.39c-.365 0-.418-.209-.679-1.511l-.209-.99c-.157-.782-.26-1.043-.574-1.043-.418 0-.68.938-1.828 2.032-1.254 1.147-2.769 1.928-5.38 1.928-4.231 0-8.044-2.397-8.044-7.607 0-5.836 4.544-8.338 11.282-8.598 3.5-.157 4.127.208 4.127-1.199m0 7.556v-1.042c0-1.042-.262-1.355-1.15-1.303l-1.932.104c-2.455.157-3.918 1.407-3.918 3.752 0 2.293 1.254 3.44 3.082 3.44 2.037 0 3.918-1.876 3.918-4.951M50.459 19.645c0-.99-.418-1.094-2.35-1.094h-.94c-.366 0-.418-.261-.418-2.397v-.365c0-2.137.052-2.345.417-2.345h1.097c1.933 0 2.194-.156 2.194-1.094V9.119C50.459 3.022 53.541 0 59.495 0c2.35 0 3.97.365 4.23.521.105.104.105.26.105 2.189v.677c0 1.98 0 2.45-.156 2.45-.157 0-.888-.47-2.142-.47-1.671 0-2.716.834-2.716 3.752v3.23c0 .939.366 1.095 2.716 1.095h2.35c.47 0 .47.208.47 2.345v.365c0 2.136-.052 2.396-.417 2.396h-2.403c-2.35 0-2.716.105-2.716 1.095V34.6c0 4.637-.157 4.846-.575 4.846h-7.26c-.418 0-.522-.209-.522-4.846z"/><path fill-rule="evenodd" d="M25.13.615c.676 0 1.217.547 1.282 1.217.575 5.974 5.346 10.728 11.341 11.302.672.064 1.221.603 1.221 1.276v11.249c0 .672-.549 1.212-1.221 1.276-5.995.574-10.766 5.328-11.341 11.302-.065.67-.606 1.216-1.281 1.216H13.843c-.675 0-1.216-.547-1.28-1.217-.577-5.973-5.347-10.727-11.342-11.301C.549 26.871 0 26.331 0 25.659V14.41c0-.673.549-1.212 1.22-1.276 5.996-.574 10.766-5.328 11.342-11.302.065-.67.606-1.217 1.28-1.217zM7.826 20.001c0 6.462 5.251 11.7 11.729 11.7s11.728-5.238 11.728-11.7-5.251-11.7-11.728-11.7C13.076 8.3 7.825 13.539 7.825 20" clip-rule="evenodd"/></g><defs><clipPath id="a"><path fill="#fff" d="M0 0h100v40H0z"/></clipPath></defs></svg>