<svg xmlns="http://www.w3.org/2000/svg" width="40" height="40" fill="none" viewBox="0 0 40 40"><path fill="#000" fill-rule="evenodd" d="M26.54 7.41c0-.776-.31-1.52-.86-2.068l-2.114-2.1-12.303 12.251a6.53 6.53 0 0 0-1.925 4.622 6.5 6.5 0 0 0 1.925 4.622L13.33 26.8a7.8 7.8 0 0 1 2.139-7.14l10.21-10.18a2.92 2.92 0 0 0 .86-2.07m-.864 8.064a2.95 2.95 0 0 1 0 4.171l-5.168 5.171a7.86 7.86 0 0 0-2.317 5.602 8 8 0 0 0 .168 1.615l-2.037-2.094a6.624 6.624 0 0 1 0-9.359l7.244-7.243zm-.052 15.307c.29.277.52.608.677.974a2.92 2.92 0 0 1 0 2.307 3 3 0 0 1-.677.973l-2.1 2.047-2.136-2.09a6.46 6.46 0 0 1-1.946-4.295 6.43 6.43 0 0 1 1.51-4.46z" clip-rule="evenodd"/></svg>