<svg xmlns="http://www.w3.org/2000/svg" width="264" height="40" fill="none" viewBox="0 0 264 40"><mask id="a" width="39" height="30" x="0" y="5" maskUnits="userSpaceOnUse" style="mask-type:luminance"><path fill="#fff" d="M38.62 5.747H0v28.506h38.62z"/></mask><g fill="#fff" mask="url(#a)"><path d="M9.68 5.747H7.535a.714.714 0 0 0-.715.713v27.08c0 .394.32.713.715.713H9.68c.396 0 .716-.32.716-.713V6.46a.714.714 0 0 0-.716-.713m14.304 0H21.84a.714.714 0 0 0-.715.713v27.08c0 .394.32.713.715.713h2.145c.395 0 .716-.32.716-.713V6.46a.714.714 0 0 0-.716-.713m-7.153 0h-2.145a.714.714 0 0 0-.715.713v27.08c0 .394.32.713.715.713h2.145c.395 0 .716-.32.716-.713V6.46a.714.714 0 0 0-.716-.713m14.304 0h-2.145a.714.714 0 0 0-.715.713v27.08c0 .394.32.713.715.713h2.145c.395 0 .716-.32.716-.713V6.46a.714.714 0 0 0-.716-.713"/><path d="m38.274 15.05-.677-2.03a.716.716 0 0 0-.904-.451L.678 24.485a.71.71 0 0 0-.453.901l.676 2.03c.125.373.53.575.904.45L37.82 15.95a.71.71 0 0 0 .453-.9"/></g><path fill="#fff" d="M53.4 31.706q-1.62 0-3.017-.662a7.4 7.4 0 0 1-2.412-1.854 7.2 7.2 0 0 1-1.442-2.737l3.413-.912q.207.855.75 1.471.56.618 1.295.957a3.7 3.7 0 0 0 1.545.338q1.03 0 1.883-.5a3.8 3.8 0 0 0 1.354-1.339q.5-.854.5-1.883 0-1.03-.515-1.869a3.6 3.6 0 0 0-1.353-1.338 3.63 3.63 0 0 0-1.869-.5q-1.221 0-2.03.44-.795.443-1.221.942l-3.031-.97.647-11.212h11.505v3.325h-9.607l1.324-1.25-.47 7.798-.648-.795q.824-.75 1.913-1.118a6.6 6.6 0 0 1 2.103-.368q1.987 0 3.517.912a6.4 6.4 0 0 1 2.413 2.457q.882 1.56.882 3.546t-1.03 3.604a7.66 7.66 0 0 1-2.721 2.56q-1.678.957-3.678.957m20.272-.441q-1.575.294-3.09.25-1.5-.03-2.692-.545a3.73 3.73 0 0 1-1.81-1.662 4.74 4.74 0 0 1-.574-2.104q-.03-1.074-.03-2.428V10.961h3.532v13.61q0 .956.014 1.676.03.721.31 1.177.53.884 1.692.986 1.161.104 2.648-.117zm-11.079-13.11v-2.78h11.079v2.78zm25.486 13.11v-7.651q0-.75-.103-1.663a5.8 5.8 0 0 0-.485-1.75 3.3 3.3 0 0 0-1.119-1.398q-.735-.544-2-.544-.677 0-1.34.22a3.1 3.1 0 0 0-1.206.765q-.53.53-.853 1.471-.324.927-.324 2.384l-2.104-.898q0-2.03.78-3.678a6.26 6.26 0 0 1 2.325-2.618q1.53-.986 3.766-.986 1.766 0 2.913.588 1.147.59 1.824 1.5a6.5 6.5 0 0 1 1.001 1.943q.324 1.03.412 1.957.103.912.103 1.486v8.872zm-11.02 0V10.078h3.163v11.153h.427v10.034zm32.182.44q-2.325 0-4.193-.808-1.854-.81-3.06-2.31-1.192-1.515-1.516-3.59l3.678-.56q.471 1.884 1.928 2.914 1.47 1.03 3.384 1.03 1.133 0 2.133-.353 1-.354 1.618-1.03.633-.677.633-1.663 0-.441-.147-.809a1.9 1.9 0 0 0-.442-.677 2.7 2.7 0 0 0-.735-.53 5 5 0 0 0-1.03-.426l-5.473-1.618a15 15 0 0 1-1.53-.545 6.6 6.6 0 0 1-1.545-.956 4.9 4.9 0 0 1-1.192-1.56q-.456-.956-.456-2.354 0-2.045 1.03-3.428 1.044-1.397 2.795-2.089 1.766-.69 3.914-.677 2.177.015 3.884.75a7.4 7.4 0 0 1 2.854 2.105q1.148 1.383 1.619 3.34l-3.811.661q-.235-1.118-.912-1.897a4.26 4.26 0 0 0-1.633-1.207 5.5 5.5 0 0 0-4.017-.118q-.897.324-1.456.942a2.1 2.1 0 0 0-.545 1.442q0 .78.471 1.28.47.485 1.163.78.705.28 1.427.47l3.795 1.06q.78.205 1.751.559.971.353 1.869.986a4.9 4.9 0 0 1 1.471 1.662q.589 1.03.589 2.619 0 1.648-.692 2.898a6.1 6.1 0 0 1-1.839 2.06 8.4 8.4 0 0 1-2.663 1.236q-1.486.411-3.119.412m11.791-18.743V9.71h3.546v3.252zm0 18.303v-15.89h3.546v15.89zm14.324.44q-2.193 0-3.825-1.103-1.634-1.103-2.531-3.001t-.897-4.281q0-2.413.897-4.296.912-1.899 2.575-2.987 1.663-1.104 3.913-1.104 2.266 0 3.796 1.104 1.545 1.088 2.339 2.987.795 1.898.795 4.296 0 2.369-.795 4.281-.794 1.898-2.368 3.001-1.575 1.104-3.899 1.104m.544-3.177q1.428 0 2.295-.647.884-.663 1.28-1.84.412-1.177.412-2.721 0-1.56-.412-2.722-.396-1.177-1.25-1.825-.854-.661-2.207-.662-1.428 0-2.354.707-.927.69-1.368 1.883-.442 1.176-.442 2.619 0 1.455.427 2.648.44 1.177 1.339 1.868.897.692 2.28.692m3.987 2.737V20.112h-.441V10.078h3.575v21.187zm14.483.44q-2.413 0-4.237-1.044a7.43 7.43 0 0 1-2.854-2.898q-1.016-1.854-1.016-4.267 0-2.604 1.001-4.517 1-1.926 2.781-2.986 1.78-1.06 4.119-1.06 2.472 0 4.193 1.163 1.736 1.148 2.575 3.251.838 2.105.633 4.958h-3.517v-1.294q-.015-2.59-.912-3.781-.898-1.192-2.825-1.192-2.177 0-3.237 1.353-1.059 1.339-1.059 3.929 0 2.412 1.059 3.737 1.06 1.324 3.09 1.324 1.31 0 2.251-.574.956-.588 1.471-1.692l3.502 1.06q-.912 2.147-2.825 3.34-1.898 1.19-4.193 1.19m-5.473-7.4V21.63h10.932v2.677zm29.683 7.4q-2.325 0-4.193-.808-1.854-.81-3.061-2.31-1.191-1.515-1.515-3.59l3.678-.56q.471 1.884 1.928 2.914 1.471 1.03 3.383 1.03 1.134 0 2.134-.353 1-.354 1.618-1.03.633-.677.633-1.663 0-.441-.147-.809a1.9 1.9 0 0 0-.442-.677 2.7 2.7 0 0 0-.735-.53 5 5 0 0 0-1.03-.426l-5.473-1.618a15 15 0 0 1-1.53-.545 6.6 6.6 0 0 1-1.545-.956 4.9 4.9 0 0 1-1.192-1.56q-.456-.956-.456-2.354 0-2.045 1.03-3.428 1.044-1.397 2.795-2.089 1.766-.69 3.914-.677 2.177.015 3.884.75a7.4 7.4 0 0 1 2.854 2.105q1.148 1.383 1.619 3.34l-3.811.661q-.235-1.118-.912-1.897a4.26 4.26 0 0 0-1.633-1.207 5.5 5.5 0 0 0-4.017-.118q-.898.324-1.456.942a2.1 2.1 0 0 0-.545 1.442q0 .78.471 1.28.47.485 1.162.78.707.28 1.427.47l3.796 1.06q.78.205 1.751.559.971.353 1.869.986a4.94 4.94 0 0 1 1.471 1.662q.588 1.03.588 2.619 0 1.648-.691 2.898a6.1 6.1 0 0 1-1.839 2.06 8.4 8.4 0 0 1-2.663 1.236q-1.486.411-3.119.412m20.81-.44q-1.574.294-3.089.25-1.501-.03-2.693-.545a3.74 3.74 0 0 1-1.81-1.662 4.7 4.7 0 0 1-.573-2.104 88 88 0 0 1-.03-2.428V10.961h3.531v13.61q0 .956.015 1.676.029.721.309 1.177.53.884 1.692.986 1.163.104 2.648-.117zm-11.078-13.11v-2.78h11.078v2.78zm20.454 13.566q-1.766 0-2.914-.589-1.147-.589-1.824-1.5a6.5 6.5 0 0 1-1-1.943 10.3 10.3 0 0 1-.427-1.942 17 17 0 0 1-.088-1.5v-8.872h3.59v7.65q0 .735.103 1.663.102.912.47 1.765.383.84 1.118 1.383.75.545 2.016.545a4.2 4.2 0 0 0 1.339-.22 3 3 0 0 0 1.192-.751q.543-.544.868-1.486.323-.942.323-2.384l2.104.898q0 2.03-.794 3.678a6.26 6.26 0 0 1-2.31 2.634q-1.53.97-3.766.97m5.193-.456v-4.93h-.427v-10.96h3.561v15.89zm13.638.44q-2.191 0-3.825-1.103-1.633-1.103-2.531-3.001-.897-1.898-.897-4.281 0-2.413.897-4.296.912-1.899 2.575-2.987 1.662-1.104 3.914-1.104 2.265 0 3.796 1.104 1.544 1.088 2.339 2.987.794 1.898.794 4.296 0 2.369-.794 4.281-.795 1.898-2.369 3.001-1.575 1.104-3.899 1.104m.545-3.177q1.427 0 2.295-.647.882-.663 1.28-1.84.412-1.177.412-2.721 0-1.56-.412-2.722-.397-1.177-1.251-1.825-.854-.661-2.207-.662-1.427 0-2.354.707-.927.69-1.368 1.883-.441 1.176-.441 2.619 0 1.455.426 2.648.442 1.177 1.339 1.868t2.281.692m3.987 2.737V20.112h-.442V10.078h3.576v21.187zm7.553-18.303V9.71h3.546v3.252zm0 18.303v-15.89h3.546v15.89zm14.97.44q-2.384 0-4.163-1.073a7.37 7.37 0 0 1-2.766-2.957q-.971-1.899-.971-4.355 0-2.502 1-4.385t2.781-2.942 4.119-1.06q2.399 0 4.179 1.075t2.766 2.971q.986 1.884.986 4.34 0 2.473-1.001 4.37a7.4 7.4 0 0 1-2.766 2.958q-1.78 1.059-4.164 1.059m0-3.324q2.119 0 3.149-1.413 1.03-1.412 1.03-3.648 0-2.31-1.045-3.678-1.044-1.383-3.134-1.383-1.427 0-2.354.647-.912.633-1.353 1.78-.441 1.133-.442 2.634 0 2.31 1.045 3.692 1.06 1.37 3.104 1.369"/></svg>