<svg xmlns="http://www.w3.org/2000/svg" width="264" height="25" fill="none" viewBox="0 0 264 25"><g clip-path="url(#a)"><path fill="#ccc" d="M30.61.624h4.476l-11.119 23.39h-4.475zM15.594.468A15.593 15.593 0 0 1 0 16.06V8.267a7.8 7.8 0 0 0 7.8-7.8z"/><path fill="#fff" d="M248.406.468a15.6 15.6 0 0 0 4.568 11.026A15.6 15.6 0 0 0 264 16.061V8.267a7.8 7.8 0 0 1-7.8-7.8z"/><path fill="#ccc" d="M248.406 23.858a15.6 15.6 0 0 1 4.568-11.026A15.6 15.6 0 0 1 264 8.265v7.794a7.8 7.8 0 0 0-7.8 7.8z"/><path fill="#fff" fill-rule="evenodd" d="M.162 8.265H0v.002zm0 7.796A7.8 7.8 0 0 1 7.8 23.858h7.795a15.6 15.6 0 0 0-5.28-11.695A15.6 15.6 0 0 1 .162 16.061" clip-rule="evenodd"/><path fill="#f3f6f9" d="M39.062 23.826V.483h14.763v3.969H43.404v6.085h9.402v3.835h-9.402v9.454zm19.57 0V.483h4.343v23.343zm10.243 0V.483h4.208l11.073 16.073V.483h4.225v23.343h-4.209L73.1 7.553v16.273zm22.737 0L100.58.483h4.843l9.152 23.343h-4.893l-1.987-5.286h-9.403l-1.92 5.286zm7.749-8.97h7.231l-3.674-9.47zm18.441 8.97V.483h9.051q2.489 0 4.326.85 1.837.835 2.839 2.402t1.002 3.734q0 1.734-.718 3.052a6.2 6.2 0 0 1-1.988 2.184q-1.252.867-2.905 1.217l6.797 9.904h-5.211l-6.045-9.137h-2.806v9.137zm4.342-12.689h4.075q2.087 0 3.256-.867 1.17-.883 1.169-2.567 0-1.751-1.068-2.668-1.07-.917-3.14-.917h-4.292zm22.824 12.689v-9.97L136.735.482h4.927l5.577 9.204 5.528-9.204h4.793l-8.233 13.406v9.937zm15.629 0V.483h4.342v19.375h9.92v3.968zm15.692 0L185.257.483h4.843l9.152 23.343h-4.893l-1.988-5.286h-9.402l-1.921 5.286zm7.749-8.97h7.231l-3.674-9.47zm18.44 8.97V.483h8.367q3.424 0 5.512 1.501 2.103 1.484 2.104 4.402 0 1.084-.501 2.05a6.1 6.1 0 0 1-1.303 1.701 6.2 6.2 0 0 1-1.703 1.1 6.4 6.4 0 0 1 3.139 2.151q1.236 1.551 1.236 3.785 0 1.968-1.002 3.468-.985 1.5-2.822 2.351-1.837.834-4.342.834zm4.343-3.318h3.657q2.188 0 3.273-.867 1.086-.884 1.086-2.634 0-1.718-1.086-2.635-1.068-.917-3.256-.917h-3.674zm0-10.187h3.39q1.22 0 2.121-.4.902-.4 1.403-1.151.501-.767.501-1.817 0-1.534-1.069-2.335-1.053-.817-3.023-.817h-3.323zm24.887 14.005q-2.505 0-4.894-.717-2.371-.734-4.008-2.084l2.105-3.285a7.8 7.8 0 0 0 1.92 1.268q1.12.533 2.372.833 1.269.285 2.521.284 2.088 0 3.391-.767 1.302-.784 1.302-2.251 0-1.15-.902-1.918-.902-.783-3.323-1.467l-2.271-.65q-3.424-.967-4.96-2.584-1.52-1.635-1.52-4.002 0-1.551.635-2.834a6.6 6.6 0 0 1 1.787-2.218q1.168-.933 2.755-1.434t3.457-.5q2.456 0 4.559.717 2.105.7 3.441 1.917L237.92 5.82a7.2 7.2 0 0 0-1.653-1.134 8.8 8.8 0 0 0-2.054-.733 9.4 9.4 0 0 0-2.221-.267q-1.32 0-2.305.367-.985.366-1.537 1.05-.55.684-.551 1.667 0 .717.368 1.25.384.534 1.302.984.92.434 2.539.917l2.371.7q3.357.985 4.894 2.535 1.536 1.534 1.536 4.002 0 2.117-1.069 3.734-1.068 1.618-3.073 2.535-1.987.9-4.759.9"/></g><defs><clipPath id="a"><path fill="#fff" d="M0 0h264v25H0z"/></clipPath></defs></svg>