<svg xmlns="http://www.w3.org/2000/svg" width="107" height="40" fill="none" viewBox="0 0 107 40"><path fill="#fff" d="M15.567 0q4.845 0 9.072 2.062l-2.268 5.206q-3.04-1.237-5.876-1.237-2.37 0-3.3.825-.875.825-.875 2.835v2.062h15.206v27.37H19.38v-21.7h-7.06v21.7H4.175v-21.7H0v-5.67h4.175V9.38q0-4.227 2.784-6.804T15.567 0M49.93 10.876q3.555 0 5.567 2.165 2.01 2.165 2.01 6.083v20h-8.144V20.515q0-2.062-.67-2.835-.62-.825-1.908-.824-2.474 0-4.742 3.556v18.712h-8.144V11.753h7.113L41.579 15q1.753-2.062 3.763-3.093 2.062-1.03 4.588-1.03m30.884 26.96q-1.495 1.03-3.506 1.597a14 14 0 0 1-3.917.567q-8.97-.052-8.97-9.897v-12.68h-3.865v-5.67h3.866V5.825l8.144-.928v6.856h6.289l-.877 5.67h-5.412V30q0 1.908.619 2.732.618.825 1.958.825 1.392 0 2.939-.877zm23.867-6.65q0 1.546.412 2.268.463.72 1.443 1.082l-1.701 5.31q-2.526-.207-4.123-1.083-1.598-.928-2.475-2.887Q95.557 40 89.99 40q-4.073 0-6.495-2.371-2.423-2.371-2.423-6.186 0-4.484 3.3-6.855 3.298-2.372 9.535-2.372h2.784v-1.185q0-2.423-1.03-3.299-1.032-.928-3.61-.928-1.34 0-3.247.413-1.907.36-3.917 1.03l-1.856-5.36a31.5 31.5 0 0 1 5.258-1.495q2.731-.516 5.052-.516 5.876 0 8.608 2.423t2.732 7.268zm-12.32 2.99q2.785 0 4.33-2.63v-4.845h-2.01q-2.784 0-4.176.98-1.34.978-1.34 3.04 0 1.65.825 2.578.876.876 2.371.876"/></svg>