<svg xmlns="http://www.w3.org/2000/svg" width="128" height="48" fill="none" viewBox="0 0 128 48"><g fill="#fff" clip-path="url(#a)" filter="url(#b)"><path d="M24.123 0h-10.43v9.594h10.43zm-10.43 23.766H4V40h9.694zm0-14.172H4v5.19h9.694z"/><path d="M24.123 14.784h-10.43v8.995h10.43zm16.75-5.19h16.843v2.821H43.885v7.651H54.73v2.822H43.885v9.98h-3.012zm18.757 0h2.839V32.88H59.63zm5.476 15.131c0-5.417 3.107-8.784 7.338-8.784 4.82 0 7.792 4.059 7.162 9.448H67.92c.16 4.152 2.476 5.482 4.792 5.482 2.813 0 3.99-2.128 4.419-3.193l2.61.904c-1.231 3.354-4.016 4.764-7.122 4.764-4.538 0-7.512-3.033-7.512-8.622zm11.582-1.691c0-3.128-1.982-4.75-4.258-4.75-2.183 0-4.218 1.756-4.459 4.75zm8.837 1.424-5.356-8.05h3.32l1.807 2.82q1.02 1.6 2.009 3.22c.469-.666.87-1.264 2.141-3.22l1.809-2.82h3.146l-5.422 8.076 5.756 8.383h-3.412l-2.077-3.127c-1.232-1.862-1.606-2.421-2.075-3.166l-2.116 3.166-2.115 3.128h-3.106zM96.369 9.593h3.012v3.594H96.37zm.107 6.812h2.838V32.87h-2.838zm6.414-6.812h2.838V32.88h-2.838zm5.476 15.131c0-5.417 3.107-8.784 7.338-8.784 4.819 0 7.791 4.059 7.162 9.448h-11.675c.16 4.152 2.477 5.482 4.793 5.482 2.812 0 3.99-2.128 4.419-3.193l2.611.904c-1.233 3.354-4.018 4.764-7.124 4.764-4.537 0-7.525-3.033-7.525-8.622zm11.582-1.691c0-3.128-1.982-4.75-4.258-4.75-2.17 0-4.217 1.756-4.445 4.75z"/></g><defs><clipPath id="a"><path fill="#fff" d="M4 0h120v40H4z"/></clipPath><filter id="b" width="128" height="48" x="0" y="0" color-interpolation-filters="sRGB" filterUnits="userSpaceOnUse"><feFlood flood-opacity="0" result="BackgroundImageFix"/><feColorMatrix in="SourceAlpha" result="hardAlpha" values="0 0 0 0 0 0 0 0 0 0 0 0 0 0 0 0 0 0 127 0"/><feOffset dy="4"/><feGaussianBlur stdDeviation="2"/><feComposite in2="hardAlpha" operator="out"/><feColorMatrix values="0 0 0 0 0 0 0 0 0 0 0 0 0 0 0 0 0 0 0.25 0"/><feBlend in2="BackgroundImageFix" result="effect1_dropShadow_859_2"/><feBlend in="SourceGraphic" in2="effect1_dropShadow_859_2" result="shape"/></filter></defs></svg>