<svg xmlns="http://www.w3.org/2000/svg" width="121" height="40" fill="none" viewBox="0 0 121 40"><path fill="#fff" d="M5.365.93c-2.33 1.04-3.204 1.83-4.327 3.91C.206 6.422.164 7.087.039 21.484c-.124 16.227-.083 16.56 2.164 17.6 1.456.75 3.453 0 4.036-1.456.208-.54.374-5.41.374-10.777v-9.736h3.121c2.58 0 3.287-.166 3.953-.832 1.123-1.124 1.04-2.746-.208-3.953-.874-.915-1.373-1.04-3.953-1.04H6.613V9.459c0-1.165.292-2.164.791-2.788.707-.915 1.165-.998 4.036-.998 3.037 0 3.287-.084 3.87-1.082.832-1.457.332-3.12-1.207-3.911-1.79-.916-6.408-.791-8.738.25m15.853.208c-.832 1.082-.874 1.54-.874 18.308 0 11.9.125 17.517.458 18.224.707 1.498 2.497 2.122 3.953 1.415 2.247-1.04 2.247-1.165 2.164-19.93C26.794 2.76 26.752 1.761 26.003.93c-1.207-1.332-3.661-1.207-4.785.208m45.77 0c-.833 1.081-.874 1.54-.874 18.307 0 11.9.124 17.518.457 18.225.624 1.373 2.372 2.08 3.787 1.54 1.83-.708 2.413-1.998 2.413-5.451 0-2.954.083-3.246 1.207-4.328l1.248-1.206 5.326 5.534c4.826 4.951 5.492 5.534 6.74 5.492 2.247-.042 3.745-1.997 2.996-3.994-.208-.5-2.58-3.37-5.284-6.283l-4.91-5.285 1.873-1.706c7.864-7.156 8.446-8.072 6.407-10.069-1.664-1.706-2.87-1.373-5.95 1.623-1.54 1.456-4.285 4.036-6.116 5.783l-3.329 3.121-.208-10.402C72.563 1.72 72.563 1.637 71.564.846c-1.456-1.165-3.536-1.04-4.576.292m35.034 10.194c-6.866 2.621-10.527 11.858-7.78 19.597C96.112 36.297 101.73 40 107.971 40c2.954 0 7.365-1.415 9.112-2.954 1.789-1.581 2.039-3.662.541-4.702-1.29-.915-1.997-.832-4.369.374-3.911 2.04-7.947 1.748-10.776-.707-1.415-1.248-2.663-3.162-2.663-4.078 0-.29 2.995-.416 8.945-.416 9.82 0 11.193-.29 11.692-2.288.708-2.871-1.581-8.613-4.452-11.234-3.869-3.495-9.195-4.494-13.98-2.663m8.03 5.617c1.831.874 3.495 2.87 3.495 4.16v1H99.733l.292-1.124c.416-1.665 1.664-3.246 3.204-3.994 1.789-.874 5.034-.874 6.823-.042m-74.645-5.243c-.874.832-.916 1.124-.916 10.32 0 9.028.042 9.528.999 11.525 2.08 4.493 5.16 6.241 10.86 6.241 4.701 0 6.99-.832 9.32-3.329 2.58-2.83 2.954-4.66 2.954-15.02V12.58l-1.082-.832c-1.414-1.124-2.663-1.124-4.077 0l-1.082.832v8.405c0 7.281-.125 8.613-.79 10.11-1.831 3.995-8.156 4.078-10.112.167-.624-1.248-.748-2.704-.748-9.903 0-8.405 0-8.446-1.04-9.445-1.249-1.29-3.038-1.331-4.286-.208"/></svg>