<svg xmlns="http://www.w3.org/2000/svg" width="67" height="40" fill="none" viewBox="0 0 67 40"><path fill="#fff" d="M1.945 2.188H64.56v35.867H1.945zm1.946 1.946v31.975h58.723V4.134z"/><path fill="#fff" d="M22.492 16.17h3.405c.16.48.288.894.382 1.381l.074.376.077.4.08.414.253 1.304.172.886.42 2.169a458 458 0 0 0 1.703-6.93h3.647a100 100 0 0 1 1.193 4.635l.15.638.36 1.535c.258-.694.39-1.405.532-2.13l.08-.406.426-2.147.42-2.125h3.283q-.494 1.999-1.035 3.984l-.152.561-.721 2.653-.313 1.153-.15.55-.207.763-.12.438q-.1.361-.22.719h-3.769l-1.58-6.323c-.287.846-.287.846-.53 1.699l-.08.317-.083.33-.089.346-.275 1.085-.188.74-.458 1.806H25.41a664 664 0 0 1-2.21-7.941l-.108-.395-.3-1.108-.093-.338-.083-.308-.073-.269c-.05-.219-.05-.219-.05-.462m24.559-4.255h3.404v15.076h-3.404l-.122-1.094-.197.173c-1.025.857-1.958 1.122-3.292 1.084-1.302-.135-2.342-.666-3.194-1.657-1.112-1.484-1.343-3.137-1.22-4.95.205-1.384.767-2.702 1.824-3.647.351-.237.71-.43 1.094-.608l.327-.152c1.153-.374 2.322-.285 3.442.152.43.241.866.5 1.216.851zm-3.96 7.747c-.626.846-.62 1.68-.539 2.709.214.761.64 1.192 1.317 1.59.587.25 1.283.218 1.883.019.711-.383 1.066-.97 1.299-1.73.114-.79.075-1.624-.365-2.31-.455-.49-.892-.92-1.578-1.002-.8-.027-1.46.116-2.018.724M21.01 11.786l.874.007v2.918l-1.215.243c-.422.486-.422.486-.487 1.216h1.703v2.797h-1.703v8.024h-3.404v-8.024h-1.216V16.17h1.216l-.03-.585c.004-1.099.346-2.05 1.109-2.853.933-.755 1.987-.96 3.154-.946"/></svg>