<svg xmlns="http://www.w3.org/2000/svg" width="189" height="47" fill="none" viewBox="0 0 189 47"><path fill="#fff" d="M79.163 19.37a4.6 4.6 0 0 0-.639-1.419 4.1 4.1 0 0 0-1.035-1.06 4.4 4.4 0 0 0-1.407-.653 6.2 6.2 0 0 0-1.738-.23q-1.905 0-3.298.92-1.382.922-2.136 2.685-.754 1.752-.754 4.258 0 2.517.729 4.295.729 1.777 2.11 2.71t3.349.933q1.739 0 2.94-.562 1.215-.576 1.841-1.624.627-1.047.626-2.467l1.177.14H74.56v-4.614h11.29v3.464q0 3.516-1.495 6.021a9.95 9.95 0 0 1-4.091 3.848q-2.595 1.343-5.97 1.343-3.747 0-6.584-1.624-2.838-1.623-4.424-4.628Q61.7 28.09 61.7 23.947q0-3.221.96-5.714.958-2.505 2.671-4.245a11.55 11.55 0 0 1 3.989-2.633q2.276-.895 4.896-.895 2.276 0 4.231.652 1.97.652 3.478 1.84a9.8 9.8 0 0 1 2.467 2.826 9.3 9.3 0 0 1 1.176 3.592zm15.952 17.962q-1.88 0-3.337-.626a5.2 5.2 0 0 1-2.288-1.918q-.831-1.29-.831-3.234 0-1.637.575-2.762.576-1.125 1.585-1.828a7.5 7.5 0 0 1 2.327-1.06 15 15 0 0 1 2.813-.5 41 41 0 0 0 2.697-.319q1.023-.18 1.483-.499.473-.331.473-.933v-.064q0-.984-.678-1.521-.676-.537-1.828-.537-1.24 0-1.994.537-.755.537-.959 1.483l-5.766-.205a6.8 6.8 0 0 1 1.317-3.196q1.074-1.419 2.94-2.224 1.88-.818 4.513-.818 1.88 0 3.465.447 1.585.435 2.761 1.279a5.8 5.8 0 0 1 1.816 2.045q.651 1.215.651 2.774V37h-5.88v-2.736h-.154a5.6 5.6 0 0 1-1.342 1.688 5.35 5.35 0 0 1-1.905 1.035q-1.086.345-2.454.345m1.93-4.09q1.01 0 1.815-.41a3.35 3.35 0 0 0 1.304-1.125q.486-.729.486-1.687v-1.867a3.7 3.7 0 0 1-.652.256q-.37.115-.818.217t-.92.18q-.474.075-.908.14-.882.14-1.509.434-.613.295-.946.768-.32.46-.32 1.099 0 .972.691 1.483.703.51 1.777.511M110.673 37V17.363h6.072v3.58h.205q.537-1.944 1.751-2.89 1.215-.957 2.826-.958.434 0 .895.064.46.052.856.166v5.433q-.447-.153-1.176-.243-.716-.09-1.278-.09-1.113 0-2.008.5a3.6 3.6 0 0 0-1.393 1.367q-.498.87-.499 2.046V37zm19.95.332q-1.88 0-3.337-.626a5.2 5.2 0 0 1-2.288-1.918q-.831-1.29-.831-3.234 0-1.637.575-2.762t1.585-1.828a7.5 7.5 0 0 1 2.327-1.06 15 15 0 0 1 2.812-.5 41 41 0 0 0 2.698-.319q1.023-.18 1.483-.499.473-.331.473-.933v-.064q0-.984-.678-1.521t-1.828-.537q-1.24 0-1.994.537-.755.537-.959 1.483l-5.766-.205a6.8 6.8 0 0 1 1.317-3.196q1.074-1.419 2.94-2.224 1.88-.818 4.513-.818 1.88 0 3.465.447 1.585.435 2.761 1.279a5.8 5.8 0 0 1 1.815 2.045q.652 1.215.652 2.774V37h-5.88v-2.736h-.154a5.6 5.6 0 0 1-1.342 1.688 5.35 5.35 0 0 1-1.905 1.035q-1.087.345-2.454.345m1.93-4.09q1.01 0 1.815-.41.818-.41 1.304-1.125.486-.729.486-1.687v-1.867a3.7 3.7 0 0 1-.652.256q-.37.115-.818.217t-.921.18q-.472.075-.907.14-.882.14-1.509.434-.613.295-.946.768-.32.46-.319 1.099 0 .972.69 1.483.703.51 1.777.511m22.781 11.53q-2.799 0-4.794-.78-1.994-.779-3.132-2.134a5.9 5.9 0 0 1-1.368-3.068l5.919-.333q.167.6.614 1.048.46.449 1.189.69.742.244 1.738.244 1.573 0 2.596-.767 1.035-.754 1.035-2.647v-3.451h-.217a4.6 4.6 0 0 1-1.125 1.623q-.755.715-1.88 1.125-1.112.41-2.556.41-2.148 0-3.938-.998-1.777-1.01-2.851-3.12-1.06-2.12-1.061-5.458 0-3.439 1.1-5.663 1.099-2.237 2.876-3.311a7.35 7.35 0 0 1 3.848-1.074q1.547 0 2.646.537 1.113.524 1.828 1.355.717.831 1.087 1.726h.179v-3.363h6.226v19.714q0 2.492-1.253 4.206-1.253 1.713-3.503 2.595-2.25.894-5.203.895m.192-12.592q1.137 0 1.943-.6.805-.601 1.24-1.726t.435-2.698q0-1.598-.435-2.748-.421-1.164-1.24-1.79-.806-.627-1.943-.627-1.164 0-1.969.64-.806.639-1.227 1.802-.41 1.15-.409 2.723 0 1.572.422 2.698t1.214 1.725q.805.6 1.969.601m22.931 5.19q-3.08 0-5.318-1.214a8.4 8.4 0 0 1-3.426-3.49q-1.19-2.276-1.189-5.408 0-3.041 1.202-5.318 1.201-2.288 3.388-3.554 2.185-1.278 5.152-1.278 2.096 0 3.835.652a8.25 8.25 0 0 1 3.004 1.93q1.266 1.278 1.969 3.158.703 1.866.703 4.283v1.56H170.71V25.06h11.25q-.012-.998-.473-1.777a3.2 3.2 0 0 0-1.265-1.215q-.793-.448-1.829-.448-1.047 0-1.879.474a3.5 3.5 0 0 0-1.317 1.265 3.57 3.57 0 0 0-.511 1.803v3.694q0 1.202.473 2.11a3.4 3.4 0 0 0 1.342 1.393q.87.5 2.071.499.831 0 1.509-.23.677-.231 1.163-.678t.729-1.1l5.74.167q-.358 1.93-1.572 3.362-1.203 1.419-3.158 2.212-1.956.78-4.526.78"/><path fill="#4b4b4b" d="M47 23.5C47 10.521 36.479 0 23.5 0S0 10.521 0 23.5 10.521 47 23.5 47 47 36.479 47 23.5"/><path fill="#fff" d="M23.314 35.881q-3.234 0-5.896-.741-2.628-.775-4.548-2.291-1.887-1.516-2.932-3.807-1.01-2.326-1.01-5.458 0-2.695 1.112-4.92 1.145-2.256 3.2-3.908 2.055-1.65 4.886-2.56 2.863-.91 6.3-.91 2.796 0 5.054.573t3.975 1.449q1.72.841 2.83 1.785l-4.312 4.785a15 15 0 0 0-1.988-1.146 12.3 12.3 0 0 0-2.527-.876q-1.38-.37-3.133-.37-1.65 0-3.066.471-1.415.438-2.46 1.247a6 6 0 0 0-1.65 1.954 5.2 5.2 0 0 0-.573 2.426q0 1.82.606 2.998.64 1.18 1.719 1.853 1.077.674 2.459.977 1.38.27 2.898.27 1.583 0 2.897-.27 1.314-.303 2.257-.808.978-.506 1.483-1.247.54-.741.539-1.65v-.742l.977 1.887H23.55v-5.054h14.622q.034.505.068 1.314.033.776.033 1.449.034.64.034.775 0 2.628-1.078 4.615-1.045 1.954-3.032 3.268-1.955 1.314-4.717 1.988-2.763.675-6.166.674"/></svg>