<svg xmlns="http://www.w3.org/2000/svg" width="219" height="40" fill="none" viewBox="0 0 219 40"><path fill="#fff" d="M84.67 23.037v-4.07H69.486v5.494h7.842l-.025.574c-.15 4.47-3.571 7.492-8.491 7.492-5.994 0-9.79-4.77-9.79-12.587 0-7.667 3.572-12.187 9.515-12.187 4.07 0 7.143 2.248 8.242 6.019h7.567C83.272 6.48 76.928 1.51 68.512 1.51c-10.589 0-17.182 6.992-17.182 18.53 0 11.713 6.593 18.755 17.357 18.755 10.04 0 15.983-5.943 15.983-15.758M105.923 1.51c-10.689 0-17.382 7.167-17.382 18.655 0 11.463 6.693 18.63 17.382 18.63 10.664 0 17.381-7.167 17.381-18.63 0-11.488-6.717-18.655-17.381-18.655m0 6.293c5.894 0 9.665 4.795 9.665 12.362 0 7.542-3.771 12.312-9.665 12.312-5.919 0-9.69-4.77-9.69-12.312 0-7.567 3.796-12.362 9.69-12.362m22.251-5.669V38.17h13.761c10.813 0 17.182-6.718 17.182-18.156s-6.369-17.881-17.182-17.881zm7.542 6.218h5.32c6.643 0 10.389 4.146 10.389 11.688 0 7.792-3.646 11.888-10.389 11.888h-5.32zm51.571 23.576h-15.758V2.133h-7.542V38.17h23.3zm16.508 6.242V24.71l12.562-22.576h-8.092l-8.091 15.384h-.175l-8.067-15.384h-8.216l12.537 22.576v13.46z"/><path fill="#fff" fill-rule="evenodd" d="M23.016 4.121c.698-1.221 2.459-1.221 3.157 0l18.471 32.324c.692 1.212-.183 2.72-1.579 2.72H6.123c-1.396 0-2.27-1.508-1.578-2.72zm-6.873 25.594c-.693 1.212.182 2.72 1.578 2.72h13.746c1.396 0 2.272-1.508 1.579-2.72l-6.873-12.028c-.698-1.222-2.46-1.222-3.157 0z" clip-rule="evenodd"/></svg>