<svg xmlns="http://www.w3.org/2000/svg" width="448" height="135" fill="none" viewBox="0 0 448 135"><path fill="#fff" d="m158.166 87.254.832 11.227c-1.975.623-4.366 1.04-7.484 1.04-6.445 0-10.5-3.016-11.955-8.733-2.806 5.198-7.692 8.732-15.073 8.732-11.538 0-17.983-8.316-17.983-18.711V48.065h14.345v29.418c0 5.925 3.015 9.667 8.212 9.667 5.821 0 9.875-4.262 9.875-10.603V48.065h14.242v36.59c0 1.975 1.039 3.119 2.495 3.119.831 0 1.351-.104 2.494-.52m68.594-39.71c11.331 0 17.36 8.005 17.36 19.336V99h-14.345V69.998c0-6.445-3.223-10.083-8.42-10.083-5.718 0-9.668 4.262-9.668 10.603V99h-14.241V69.998c0-6.34-3.119-10.083-8.42-10.083-5.717 0-9.668 4.262-9.668 10.603V99h-14.241V48.065h13.722l.416 7.38c2.91-4.678 7.9-7.9 14.968-7.9 8.213 0 13.618 4.262 16.009 10.603 2.599-6.133 8.108-10.603 16.528-10.603m45.318 39.71.831 11.227c-1.975.623-4.366 1.04-7.484 1.04-8.316 0-12.578-4.99-12.578-14.034V25.195h14.241v59.46c0 1.975 1.039 3.119 2.495 3.119.831 0 1.351-.104 2.495-.52m29.978-39.71c15.8 0 26.196 10.5 26.196 25.78S317.856 99.52 302.056 99.52c-15.593 0-26.092-10.395-26.092-25.676 0-15.384 10.499-26.3 26.092-26.3m0 11.747c-7.069 0-11.746 5.717-11.746 14.345 0 8.42 4.677 14.138 11.746 14.138 7.276 0 11.746-5.718 11.746-14.138 0-8.628-4.47-14.345-11.746-14.345m56.47-11.746c15.801 0 26.196 10.499 26.196 25.78 0 15.28-10.395 26.195-26.196 26.195-15.592 0-26.091-10.395-26.091-25.676 0-15.384 10.499-26.3 26.091-26.3m0 11.746c-7.068 0-11.746 5.717-11.746 14.345 0 8.42 4.678 14.138 11.746 14.138 7.277 0 11.747-5.718 11.747-14.138 0-8.628-4.47-14.345-11.747-14.345m63.124-11.746c12.889 0 22.141 9.043 22.141 25.156 0 15.8-8.836 26.82-22.661 26.82-7.485 0-12.474-3.12-15.281-7.797v28.274h-14.241V47.961h13.825l.312 7.484c2.911-4.574 8.212-7.9 15.905-7.9m-3.743 40.02c6.757 0 11.435-5.613 11.435-14.24 0-8.42-4.366-13.826-11.331-13.826-7.9 0-12.162 6.653-12.162 12.37v3.223c0 6.133 4.47 12.474 12.058 12.474M40.832 19.511c1.944-.827 5.59-1.825 8.239-2.239 1.992-.34 4.204-.414 10.085-.438h43.913c-1.113 13.381-13.3 13.468-15.554 13.703s-19.73 0-19.73 0c-15.604.195-17.645.438-22.384 2.434-6.732 2.848-11.812 7.667-15.02 14.239-1.92 3.919-2.357 5.744-2.6 11.148-.364 7.107 1.847 13.313 6.83 19.35 2.575 3.115 7.825 6.693 11.908 8.105 3.427 1.192 4.326 1.338 8.384 1.484 3.5.122 4.326.073 6.514-.39 2.794-.583 5.346-1.532 8.19-3.042 4.982-2.653 9.284-7.277 11.811-12.68 2.382-5.112 3.257-12.17 1.799-14.483-.316-.51-.9-1.144-1.288-1.411-1.605-1.169-1.799-1.169-15.02-1.047l-12.419.146-1.02.682c-.56.365-1.337 1.192-1.75 1.8-.924 1.486-.924 2.703-.025 4.48.535 1.095.875 1.435 1.969 1.97l1.337.682h19.102v.584c0 .658-1.215 3.408-2.163 4.893-3.816 6.012-11.082 9.492-18.033 8.64-4.69-.56-8.433-2.36-11.593-5.573-2.965-2.994-4.69-6.377-5.298-10.37-1.045-6.741 1.58-13.654 6.684-17.718 2.527-1.972 4.277-2.897 7.096-3.724l2.285-.682 13.366.073c7.777.024 14.023.146 14.947.316 2.041.317 4.763 1.12 5.833 1.729 2.187 1.217 3.086 1.776 3.645 2.288.34.316.656.56.754.56.267 0 1.846 1.581 2.405 2.433.316.463.657.9.73.974.729.657 2.673 5.525 3.086 7.667.656 3.505-.048 11.366-1.41 15.626-2.673 8.421-8.287 16.502-14.8 21.346-7.85 5.817-16.283 8.664-25.64 8.664-7.17 0-13.075-1.363-19.078-4.38-10.304-5.185-17.911-13.947-21.338-24.583-1.142-3.578-1.385-4.6-1.871-8.032-1.24-8.885.704-18.645 5.322-26.53 3.67-6.305 9.09-11.781 15.335-15.48 2.455-1.461 2.94-1.705 4.496-2.386.462-.195 1.361-.56 1.969-.828"/></svg>