<svg xmlns="http://www.w3.org/2000/svg" width="40" height="40" fill="none" viewBox="0 0 40 40"><g clip-path="url(#a)"><path fill="#000" d="M21.6 39.597c10.102 0 18.29-8.188 18.29-18.29 0-10.1-8.188-18.29-18.29-18.29-10.1 0-18.29 8.19-18.29 18.29 0 10.102 8.19 18.29 18.29 18.29"/><path fill="#fff" stroke="#000" stroke-width="1.557" d="M19.064 37.745c10.317 0 18.68-8.363 18.68-18.68S29.382.385 19.065.385.384 8.748.384 19.065s8.364 18.68 18.681 18.68Z"/><path fill="#000" d="M17.478 28.282c-5.358 0-8.51-4.297-8.51-9.642 0-5.555 3.467-10.062 10.085-10.062 6.829 0 9.14 4.612 9.245 7.232H23.36c-.106-1.467-1.366-3.668-4.413-3.668-3.256 0-5.357 2.83-5.357 6.288 0 3.46 2.1 6.289 5.358 6.289 2.94 0 4.202-2.306 4.726-4.611h-4.727V18.22h9.92v9.642h-4.352v-6.079c-.315 2.201-1.681 6.498-7.038 6.498"/></g><defs><clipPath id="a"><path fill="#fff" d="M0 0h40v40H0z"/></clipPath></defs></svg>