<svg xmlns="http://www.w3.org/2000/svg" width="408" height="40" fill="none" viewBox="0 0 408 40"><path fill="#fff" d="M24.762 1.429H12.38v17.143h12.38zm93.809 0H106.19v17.143h12.381zm-69.047 0H37.143v17.143h12.38zm11.905 17.143h11.428v-7.143H93.81v-10H61.429zm117.619 0h11.428v-7.143h20.953v-10h-32.381zM163.029 4.567a16.7 16.7 0 0 0-5.686-2.977 27.7 27.7 0 0 0-8.4-1.114q-8.466 0-13.3 3.5t-4.833 10.381a18.6 18.6 0 0 0 .476 4.214h24.571v-.033c-.424-.052-5.814-.695-7.776-.952a8.85 8.85 0 0 1-4.062-1.429 2.97 2.97 0 0 1-1.2-2.476 3.18 3.18 0 0 1 1.467-2.762c.985-.68 2.514-1.024 4.576-1.024q3.414 0 5.024 1.3t2.162 3.905l11.428-3.076a16.6 16.6 0 0 0-1.1-3.153 12.5 12.5 0 0 0-3.347-4.304M260 1.429h-11.429v17.143H260zm-37.143 0v17.143h20.953L233.205 1.429zm68.819 0h-20.247V18.57h11.428v-8.095h7.057c2.272 0 3.853.324 4.734.953.881.628 1.328 1.671 1.328 3.08q0 1.995-1.138 3.02c-.757.685-2.19 1.028-4.286 1.028h17.096s4.866-17.462-15.972-17.128m65.467.001h-11.429v17.143h11.429zm45.619 3.428a17.6 17.6 0 0 0-5.619-3.19 23.2 23.2 0 0 0-7.81-1.19 24 24 0 0 0-9.171 1.633 17.5 17.5 0 0 0-6.667 4.647 19.65 19.65 0 0 0-3.971 7.367 26 26 0 0 0-.953 4.447h12.272a12.3 12.3 0 0 1 1.69-4.723q2.139-3.272 6.781-3.272 2.971 0 4.596 1.329c1.076.876 1.842 2.252 2.314 4.114l11.395-3.11a20 20 0 0 0-1.305-3.447 14.4 14.4 0 0 0-3.552-4.605m-71.333 12.448V1.429H320v17.143h13.333a2.29 2.29 0 0 1-1.904-1.267"/><path fill="#fff" d="M239.314 37.619h9.257V18.57h-21.428zM12.381 18.571H0V37.62h12.381zm118.909 0q1.324.372 2.8.662L140 20.42q2.795.596 3.852 1.68a3.77 3.77 0 0 1 1.058 2.734 3.97 3.97 0 0 1-1.586 3.367q-1.585 1.185-4.762 1.186c-2.486 0-4.376-.538-5.657-1.615s-2.053-2.714-2.305-4.914h-11.871q.952 16.548 19.404 16.667a27.8 27.8 0 0 0 8.334-1.12 16.1 16.1 0 0 0 5.843-3.133 12.4 12.4 0 0 0 3.404-4.833 17.1 17.1 0 0 0 1.119-6.329c.031-1.89-.297-3.77-.966-5.538zm91.567 0h-11.428V37.62h11.428zm56.91 0s2.919 0 4.1 1.086c1.023.952 1.39 2.014 1.39 3.52a4.98 4.98 0 0 1-1.643 3.604q-1.371 1.314-5.171 1.314h-7.014v-9.524H260V37.62h19.524a26.3 26.3 0 0 0 8.095-1.081 14.4 14.4 0 0 0 5.338-2.92 10.66 10.66 0 0 0 2.905-4.285c.59-1.638.888-3.368.881-5.11a12.5 12.5 0 0 0-1.195-5.652zm53.566.724q0 4.762-1.514 7.052t-5.152 2.305q-3.634 0-5.153-2.305-1.519-2.304-1.514-7.052v-.724h-12.381v.262a30.8 30.8 0 0 0 1.262 9.39 16.1 16.1 0 0 0 3.69 6.425 14.6 14.6 0 0 0 5.958 3.69 25.1 25.1 0 0 0 8.009 1.186 25.4 25.4 0 0 0 8.043-1.186 14.85 14.85 0 0 0 6.024-3.69 16.6 16.6 0 0 0 3.809-6.424 29.5 29.5 0 0 0 1.3-9.39v-.263h-12.381zm-227.143-.724H93.81V37.62h12.38zm-69.047 0H24.762V37.62h12.38zm24.286 0H49.524V37.62h32.562l1.01-10.476H61.428zm117.619 0h-11.905V37.62h32.562l1.009-10.476h-21.666zm206.666 0v8.572a13.6 13.6 0 0 1-6.928 1.714q-5.638 0-8.015-3.529-1.685-2.471-2.176-6.757h-11.452c.247 4.286 2.252 21.057 22.128 20.953a28.6 28.6 0 0 0 9.229-1.881 27.8 27.8 0 0 0 8.167-4.762V18.57z"/></svg>