<svg xmlns="http://www.w3.org/2000/svg" width="447" height="86" fill="none" viewBox="0 0 447 86"><path fill="#fff" d="M140.48 72.897h-10.215V49.713h-15.138v23.184h-10.25V19.4h10.25v21.935h15.138V19.4h10.215zm27.885.735q-4.592 0-8.341-1.507-3.747-1.506-6.43-4.115a18 18 0 0 1-4.151-6.062q-1.433-3.528-1.434-7.532v-1.47q0-4.555 1.434-8.304 1.434-3.784 4.004-6.503 2.574-2.72 6.1-4.225 3.528-1.507 7.679-1.507 4.299 0 7.642 1.433 3.381 1.395 5.732 3.968 2.316 2.573 3.527 6.21 1.213 3.6 1.213 7.973v4.335h-26.969v.11q.516 2.39 1.323 3.858.809 1.433 2.168 2.61 1.396 1.211 3.196 1.873 1.8.66 3.932.661 3.013 0 5.842-1.139 2.83-1.139 4.592-3.417l5.108 5.512q-1.947 2.755-6.173 4.997-4.225 2.24-9.994 2.24m-1.212-32.958q-1.727 0-3.16.625a7.05 7.05 0 0 0-2.499 1.727q-1.103 1.138-1.836 2.718-.736 1.581-1.103 3.528h16.754v-.808a7.9 7.9 0 0 0-.588-3.05 7.8 7.8 0 0 0-1.616-2.499q-1.029-1.028-2.535-1.616-1.47-.625-3.417-.625m27.591-24.213h22.229v48.132h11.39v8.304h-33.619v-8.304h11.905v-39.79h-11.905zm44.125 16.68h21.641v31.452h10.766v8.304h-32.407v-8.304h11.317v-23.11h-11.317zm10.582-10.177a5.7 5.7 0 0 1 .404-2.167 5.3 5.3 0 0 1 1.213-1.764 5.8 5.8 0 0 1 1.837-1.102q1.102-.405 2.425-.405 2.72 0 4.298 1.544 1.617 1.506 1.617 3.894t-1.617 3.932q-1.578 1.506-4.298 1.506-1.323 0-2.425-.404a5.4 5.4 0 0 1-1.837-1.139 5 5 0 0 1-1.213-1.69 6 6 0 0 1-.404-2.205m47.837 42.511a9.2 9.2 0 0 0 2.865-.44 7.7 7.7 0 0 0 2.389-1.25 5.5 5.5 0 0 0 1.579-1.947q.589-1.14.515-2.536h9.626q.074 3.086-1.285 5.732a13.9 13.9 0 0 1-3.638 4.556q-2.316 1.91-5.401 3.013-3.049 1.065-6.467 1.066-4.63 0-8.12-1.543-3.49-1.58-5.806-4.3-2.35-2.718-3.563-6.356-1.175-3.674-1.176-7.863v-1.102q0-4.188 1.176-7.826 1.176-3.674 3.527-6.393 2.351-2.72 5.806-4.3 3.49-1.578 8.083-1.579 3.674 0 6.797 1.102t5.401 3.087q2.242 2.02 3.49 4.886 1.25 2.829 1.176 6.357h-9.626a6.7 6.7 0 0 0-.441-2.793 6.3 6.3 0 0 0-1.506-2.278q-.993-.955-2.389-1.506-1.396-.588-3.049-.588-2.425 0-4.006.992a7.2 7.2 0 0 0-2.498 2.646q-.955 1.653-1.359 3.784a26 26 0 0 0-.367 4.409v1.102q0 2.316.367 4.483.368 2.13 1.322 3.748a7.2 7.2 0 0 0 2.499 2.645q1.616.992 4.079.992m24.541-12.823q0-4.335 1.25-8.01 1.248-3.71 3.674-6.43 2.388-2.718 5.841-4.262 3.491-1.543 7.974-1.543 4.482 0 7.973 1.543 3.49 1.544 5.915 4.262 2.388 2.72 3.638 6.43 1.248 3.675 1.248 8.01v.772q0 4.372-1.248 8.083-1.25 3.674-3.638 6.393t-5.879 4.262q-3.49 1.506-7.936 1.506-4.482 0-8.009-1.506-3.49-1.544-5.879-4.262-2.426-2.72-3.674-6.393-1.25-3.71-1.25-8.083zm10.215.772q0 2.498.477 4.703.478 2.167 1.506 3.784a7.7 7.7 0 0 0 2.646 2.609q1.654.955 3.968.955 2.242 0 3.858-.955a7.7 7.7 0 0 0 2.645-2.609q.993-1.618 1.47-3.784.477-2.205.478-4.703v-.772q0-2.425-.478-4.593-.477-2.168-1.47-3.82a7.7 7.7 0 0 0-2.645-2.61q-1.616-.955-3.931-.955-2.278 0-3.895.955a7.7 7.7 0 0 0-2.646 2.61q-1.027 1.652-1.506 3.82a21.3 21.3 0 0 0-.477 4.593zm34.719 19.473V33.142h9.259l.624 5.511a15 15 0 0 1 1.691-2.02 15.4 15.4 0 0 1 1.947-1.654 13.9 13.9 0 0 1 3.857-1.91 14.7 14.7 0 0 1 4.447-.662q3.013 0 5.511.882a11 11 0 0 1 4.336 2.792q1.801 1.948 2.792 4.997 1.029 3.013 1.029 7.349v24.47h-10.215V48.574q0-2.352-.551-3.858-.513-1.544-1.506-2.425-.991-.882-2.388-1.213-1.397-.367-3.161-.367-1.47 0-2.718.33a7 7 0 0 0-2.168.992 7 7 0 0 0-1.396 1.14q-.624.66-1.139 1.47v28.254zm62.827.735q-4.593 0-8.341-1.507t-6.43-4.115a18 18 0 0 1-4.151-6.062q-1.433-3.528-1.434-7.532v-1.47q0-4.555 1.434-8.304 1.433-3.784 4.005-6.503t6.099-4.225 7.679-1.507q4.299 0 7.642 1.433 3.381 1.395 5.732 3.968 2.315 2.573 3.527 6.21 1.213 3.6 1.212 7.973v4.335h-26.968v.11q.515 2.39 1.323 3.858.808 1.433 2.168 2.61 1.395 1.211 3.196 1.873 1.8.66 3.931.661 3.014 0 5.843-1.139t4.592-3.417l5.108 5.512q-1.947 2.755-6.173 4.997-4.225 2.24-9.994 2.24m-1.212-32.958q-1.727 0-3.161.625a7.05 7.05 0 0 0-2.498 1.727q-1.102 1.138-1.837 2.718t-1.102 3.528h16.754v-.808a7.9 7.9 0 0 0-.588-3.05 7.8 7.8 0 0 0-1.616-2.499q-1.029-1.028-2.535-1.616-1.47-.625-3.417-.625M15.285 66.293H3.527A3.527 3.527 0 0 0 0 69.82v12.654A3.527 3.527 0 0 0 3.527 86h11.758a3.527 3.527 0 0 0 3.527-3.528V69.82a3.527 3.527 0 0 0-3.527-3.527m23.421 0H26.948a3.527 3.527 0 0 0-3.527 3.527v12.654A3.527 3.527 0 0 0 26.948 86h11.758a3.527 3.527 0 0 0 3.527-3.528V69.82a3.527 3.527 0 0 0-3.527-3.527m23.422 0H50.37a3.527 3.527 0 0 0-3.527 3.527v12.654A3.527 3.527 0 0 0 50.37 86h11.758a3.527 3.527 0 0 0 3.527-3.528V69.82a3.527 3.527 0 0 0-3.528-3.527M15.285 41.207H3.527A3.527 3.527 0 0 0 0 44.734v12.654a3.527 3.527 0 0 0 3.527 3.527h11.758a3.527 3.527 0 0 0 3.527-3.527V44.734a3.527 3.527 0 0 0-3.527-3.527m23.421 0H26.948a3.527 3.527 0 0 0-3.527 3.527v12.654a3.527 3.527 0 0 0 3.527 3.527h11.758a3.527 3.527 0 0 0 3.527-3.527V44.734a3.527 3.527 0 0 0-3.527-3.527M64.525 30.43l-10.083 6.235c-1.656 1.024-2.25 3.245-1.326 4.96l5.71 10.59c.924 1.714 3.016 2.273 4.673 1.249l10.082-6.234c1.657-1.024 2.251-3.245 1.326-4.96l-5.709-10.59c-.924-1.714-3.016-2.274-4.673-1.25m-49.24-14.305H3.527A3.527 3.527 0 0 0 0 19.652v12.654a3.527 3.527 0 0 0 3.527 3.527h11.758a3.527 3.527 0 0 0 3.527-3.527V19.652a3.527 3.527 0 0 0-3.527-3.527m33.053-4.738-11.327-3.25a3.384 3.384 0 0 0-4.246 2.449l-3.02 12.072c-.473 1.89.661 3.858 2.534 4.395l11.326 3.25a3.384 3.384 0 0 0 4.247-2.448l3.02-12.073c.473-1.89-.661-3.857-2.534-4.395M75.511 0H63.754a3.527 3.527 0 0 0-3.527 3.527v12.654a3.527 3.527 0 0 0 3.527 3.527H75.51a3.527 3.527 0 0 0 3.528-3.527V3.527A3.527 3.527 0 0 0 75.51 0"/></svg>