<svg xmlns="http://www.w3.org/2000/svg" width="110" height="32" fill="none" viewBox="0 0 110 32"><g clip-path="url(#a)"><mask id="b" width="110" height="32" x="0" y="0" maskUnits="userSpaceOnUse" style="mask-type:luminance"><path fill="#fff" d="M110 0H0v32h110z"/></mask><g fill="#fff" mask="url(#b)"><path d="M15.645 17.586c-2.457-2.508 8.087-9.59 8.087-9.59L21.04 4.268s-4.13 3.412-7.185 7.385c-.648.896-1.92.157-1.15-1.114C14.6 7.406 20.09 2.34 20.09 2.34L15.918.342S13.2 2.971 9.775 9.564c-.626 1.206-1.9.595-1.467-.647C9.417 5.737 13.012.683 13.012.683L8.642 0s-2.356 4.094-3.82 9.183c-.314 1.088-1.678.829-1.516-.252.28-1.871 2.224-7.285 2.224-7.285l-3.779.016s-3.232 7.24-.845 15.227c1.359 4.548 5.612 9.05 11.163 9.05 5.442 0 10.206-4.021 11.827-10.223l-3.775-2.745s-2.104 7.038-4.476 4.615m21.279-7.306h-.038v.066a7.45 7.45 0 0 0-2.982 0V.862L28.204.2v25.383h5.7v-9.811a2.63 2.63 0 0 1 1.491-.487 2.6 2.6 0 0 1 1.529.513v9.785h5.663V.862L36.924.204zM51.12 9.156c.868 0 1.32.616 1.434 4.206h-2.869c.075-3.227.415-4.206 1.435-4.206m1.85 8.63c-.265 3.046-.831 4.098-1.888 4.098-1.17 0-1.397-1.27-1.435-5.403h8.155v-1.306c0-7.47-2.643-9.79-6.72-9.79-5.285 0-6.871 4.279-6.871 10.48 0 5.837 1.586 10.116 6.87 10.116 4.591 0 6.598-3.049 7.008-7.603l-5.016-.583zm6.796 7.796h5.474V.836L59.766.199zm14.57-4.387c-.982 0-1.51-.87-1.51-5.512 0-4.605.528-5.512 1.51-5.512.981 0 1.321.98 1.321 5.512 0 4.533-.34 5.512-1.321 5.512m2.567-15.81c-2.34 0-3.473 2.212-3.889 4.17h-.188l-.302-3.771h-5.172V32h5.474V21.848h.188c.453 1.958 1.548 4.133 3.889 4.133 3.02 0 4.304-2.973 4.304-10.298 0-7.288-1.284-10.298-4.304-10.298m12.459 3.771c.868 0 1.321.616 1.434 4.206h-2.869c.076-3.227.415-4.206 1.435-4.206m-.038 12.728c-1.17 0-1.397-1.27-1.435-5.403h8.155v-1.306c0-7.47-2.643-9.79-6.72-9.79-5.285 0-6.87 4.279-6.87 10.48 0 5.837 1.585 10.116 6.87 10.116 4.588 0 6.595-3.045 7.007-7.596l-5.12-.595c-.264 3.043-.83 4.094-1.887 4.094m19.139-10.226 1.51-5.44c-.831-.652-1.472-.833-2.341-.833-1.963 0-3.548 1.922-4.039 4.279h-.189l-.302-3.88H97.93v19.799h5.474V15.247c0-2.792 1.208-4.279 2.907-4.279.717 0 1.51.218 2.152.69"/></g></g><defs><clipPath id="a"><path fill="#fff" d="M0 0h110v32H0z"/></clipPath></defs></svg>