<svg xmlns="http://www.w3.org/2000/svg" width="384" height="96" fill="none" viewBox="0 0 384 96"><g fill="#fff" clip-path="url(#a)"><path d="M374.28 93.121V.961h9.408v92.16zm-55.187 1.92q-10.56 0-18.688-4.352-8.064-4.352-12.672-12.288-4.608-7.935-4.608-18.56V1.025l9.472-.064v57.664q0 7.168 2.432 12.416 2.432 5.184 6.336 8.576 3.967 3.328 8.64 4.928 4.672 1.6 9.088 1.6 4.48 0 9.152-1.6t8.576-4.928q3.904-3.392 6.336-8.576 2.432-5.248 2.432-12.416V.961h9.472v58.88q0 10.625-4.608 18.56-4.608 7.872-12.736 12.288-8.064 4.352-18.624 4.352m-82.854-.001q-10.304 0-17.6-4.672t-11.2-12.928-3.904-18.944q0-10.88 3.968-19.072t11.264-12.736q7.36-4.608 17.472-4.608 10.368 0 17.664 4.672 7.36 4.608 11.2 12.864 3.904 8.193 3.904 18.88 0 10.88-3.904 19.136-3.904 8.192-11.264 12.8t-17.6 4.608m0-9.024q11.52 0 17.152-7.616 5.632-7.68 5.632-19.904 0-12.544-5.696-19.968-5.632-7.425-17.088-7.424-7.744 0-12.8 3.52-4.992 3.456-7.488 9.664-2.432 6.144-2.432 14.208 0 12.48 5.76 20.032 5.76 7.488 16.96 7.488M162.5 93.12V24h8.448v16.64l-1.664-2.176a23.8 23.8 0 0 1 3.008-5.632q1.855-2.625 4.032-4.288 2.688-2.369 6.272-3.584a25.4 25.4 0 0 1 7.232-1.472q3.648-.256 6.656.512v8.832q-3.775-.96-8.256-.448t-8.256 3.584q-3.456 2.688-5.184 6.464-1.728 3.711-2.304 7.936a60 60 0 0 0-.576 8.256V93.12zm-45.627 1.92q-10.112 0-17.536-4.48-7.36-4.48-11.456-12.608T83.785 58.88q0-11.328 4.032-19.584T99.145 26.56q7.36-4.48 17.344-4.48 10.24 0 17.472 4.736 7.231 4.672 10.944 13.44 3.712 8.768 3.392 20.928h-9.6v-3.328q-.256-13.44-5.824-20.288-5.504-6.848-16.128-6.848-11.136 0-17.088 7.232-5.888 7.232-5.888 20.608 0 13.056 5.888 20.288 5.952 7.168 16.832 7.168 7.424 0 12.928-3.392 5.568-3.456 8.768-9.92l8.768 3.392q-4.096 9.024-12.096 14.016-7.936 4.928-17.984 4.928M99 61.184v-7.872h44.241v7.872zM0 93.121V.961h9.408v41.536h50.944V.961h9.344v92.16h-9.344v-41.6H9.408v41.6z"/></g><defs><clipPath id="a"><path fill="#fff" d="M0 0h384v96H0z"/></clipPath></defs></svg>