<svg xmlns="http://www.w3.org/2000/svg" width="41" height="41" fill="none" viewBox="0 0 41 41"><g fill="#000" stroke="#000" stroke-width=".5" clip-path="url(#a)"><path d="M26.35 26.209h-.144v7.7a6.24 6.24 0 0 0 6.234 6.234h1.465a6.24 6.24 0 0 0 6.234-6.234v-1.466a6.24 6.24 0 0 0-6.234-6.234zm1.184 1.331h6.368a4.907 4.907 0 0 1 4.902 4.903v1.466a4.907 4.907 0 0 1-4.903 4.903h-1.465a4.907 4.907 0 0 1-4.902-4.903zm-12.601-1.188v-.143H7.234A6.24 6.24 0 0 0 1 32.443v1.466a6.24 6.24 0 0 0 6.234 6.234h1.465a6.24 6.24 0 0 0 6.234-6.234zm-7.7 1.185h.345l-.003-.004H13.6v6.372a4.907 4.907 0 0 1-4.9 4.903H7.234a4.907 4.907 0 0 1-4.903-4.903v-1.466a4.907 4.907 0 0 1 4.903-4.902Zm18.973-12.746v.143h7.699A6.24 6.24 0 0 0 40.14 8.7V7.234A6.24 6.24 0 0 0 33.905 1H32.44a6.24 6.24 0 0 0-6.234 6.234zm1.332-1.189V7.234a4.907 4.907 0 0 1 4.902-4.903h1.465a4.907 4.907 0 0 1 4.903 4.903V8.7a4.907 4.907 0 0 1-4.903 4.903z"/><path d="M7.234 27.54h26.675a6.24 6.24 0 0 0 6.234-6.234v-1.465a6.24 6.24 0 0 0-6.234-6.235H7.234A6.24 6.24 0 0 0 1 19.841v1.465a6.24 6.24 0 0 0 6.234 6.234ZM2.33 19.837a4.907 4.907 0 0 1 4.903-4.903h26.675a4.907 4.907 0 0 1 4.903 4.903v1.465a4.907 4.907 0 0 1-4.903 4.903H7.234a4.907 4.907 0 0 1-4.903-4.903z"/><path d="M14.79 14.934h.143v-7.7A6.24 6.24 0 0 0 8.699 1H7.234A6.24 6.24 0 0 0 1 7.234V8.7a6.24 6.24 0 0 0 6.234 6.234zM7.234 2.328h.059l.004-.004h1.406a4.907 4.907 0 0 1 4.902 4.902V13.6H7.234A4.907 4.907 0 0 1 2.33 8.696V7.23a4.907 4.907 0 0 1 4.903-4.902Z"/></g><defs><clipPath id="a"><path fill="#fff" d="M0 0h41v41H0z"/></clipPath></defs></svg>