<svg xmlns="http://www.w3.org/2000/svg" width="142" height="64" fill="none" viewBox="0 0 142 64"><g clip-path="url(#a)"><path fill="#fff" d="M109.586 48.657c0-4.95 3.456-8.42 8.27-8.42 5.008 0 7.956 3.47 7.956 8.18q.007.467-.033.933h-13.016c0 3.152 2.441 4.826 5.42 4.826 2.941 0 4.529-1.574 5.305-2.73l2.067 1.843a9.35 9.35 0 0 1-3.31 2.81 9.3 9.3 0 0 1-4.217 1.009c-4.948 0-8.442-3.259-8.442-8.451m12.964-1.6c-.144-2.249-1.838-3.877-4.755-3.877s-4.753 1.484-5.039 3.877zM78.225 34.662c-2.211 0-4.372.658-6.21 1.891a11.2 11.2 0 0 0-4.117 5.037 11.26 11.26 0 0 0-.636 6.484 11.24 11.24 0 0 0 3.059 5.746 11.16 11.16 0 0 0 5.723 3.071c2.168.433 4.416.211 6.458-.638a11.2 11.2 0 0 0 5.017-4.134 11.26 11.26 0 0 0 1.883-6.234 11.27 11.27 0 0 0-3.28-7.93 11.18 11.18 0 0 0-7.897-3.293m0 19.501c-4.395 0-7.97-3.731-7.97-8.318s3.568-8.324 7.97-8.324 7.968 3.731 7.968 8.317c0 4.585-3.582 8.325-7.968 8.325m33.432-28.519c0 3.652 1.854 6.25 5.736 6.25 2.517 0 4.441-1.124 5.63-2.984v2.458h2.832V15.427h-3.14v9.726c-.457 1.903-2.03 3.863-4.618 3.863-2.272 0-3.287-1.441-3.287-4.152V15.42h-5.248v3.077h2.095zm25.181-10.609c-1.959 0-3.671.913-4.686 2.595v-2.178h-3.043v15.94h3.148v-9.514c.699-2.563 2.067-4.004 3.916-4.004 1.259 0 2.098.519 2.658 2.001h3.148c-.489-3.055-2.238-4.84-5.141-4.84m-36.73 16.859a8.4 8.4 0 0 0 4.667-1.42 8.43 8.43 0 0 0 3.094-3.785 8.46 8.46 0 0 0-1.82-9.19 8.37 8.37 0 0 0-9.154-1.828 8.4 8.4 0 0 0-3.77 3.107 8.46 8.46 0 0 0-1.414 4.685 8.46 8.46 0 0 0 2.462 5.959 8.4 8.4 0 0 0 5.935 2.472m0-14.01c2.972 0 5.387 2.497 5.387 5.567s-2.412 5.57-5.387 5.57-5.387-2.498-5.387-5.57 2.417-5.562 5.387-5.562zm6.051 28.721c0-3.651-1.854-6.25-5.735-6.25-2.518 0-4.442 1.125-5.63 2.984v-2.458H91.96v15.941h3.153v-9.726c.455-1.902 2.027-3.862 4.615-3.862 2.274 0 3.287 1.44 3.287 4.151v9.444h5.25v-3.084h-2.102zM90.345 12.617v-3.1h-7.534v3.1h2.11v6.136H71.595v-6.136h2.102v-3.1h-7.596v3.1h2.101v15.675h-2.101v3.101h7.596v-3.101h-2.102v-6.45H84.92v6.45h-2.109v3.101h7.534v-3.101h-2.103V12.617z"/><path fill="#ccc" d="m56.673 25.23-9.281 8.052 8.116 12.553-7.029 10.62-11.855-9.513-9.17 16.553-14.486-6.14 6.5-19.523L0 31.572 3.553 14.87l19.1 2.595-.306-16.96 12.91.832 4.584 15.45 11.763-2.963zM28.38 17.275a2.1 2.1 0 0 0 .922-.25c.268-.143.5-.345.679-.59.183-.253.313-.541.379-.847.072-.333.08-.678.024-1.015a3.1 3.1 0 0 0-.353-1.005 3.3 3.3 0 0 0-.648-.816 3 3 0 0 0-.861-.55 2.6 2.6 0 0 0-.988-.2 2.2 2.2 0 0 0-.93.215 2.04 2.04 0 0 0-.706.574 2.3 2.3 0 0 0-.409.853c-.079.34-.09.693-.034 1.038.059.365.183.717.365 1.038.178.313.407.595.677.832.262.232.562.415.888.541.317.126.656.184.997.173zM34.929 17a1.83 1.83 0 0 0 1.457-.8 2.2 2.2 0 0 0 .345-.809 2.7 2.7 0 0 0 .009-.974 3.1 3.1 0 0 0-.943-1.747 2.8 2.8 0 0 0-.797-.52 2.3 2.3 0 0 0-.908-.19 1.84 1.84 0 0 0-1.492.754 2.1 2.1 0 0 0-.364.817 2.7 2.7 0 0 0-.019 1c.057.348.174.684.345.992.166.298.379.568.63.798.242.22.52.395.822.519.291.119.604.175.918.164"/></g><defs><clipPath id="a"><path fill="#fff" d="M0 0h142v64H0z"/></clipPath></defs></svg>