<svg xmlns="http://www.w3.org/2000/svg" width="126" height="40" fill="none" viewBox="0 0 126 40"><mask id="a" width="40" height="40" x="0" y="0" maskUnits="userSpaceOnUse" style="mask-type:luminance"><path fill="#fff" d="M40 0H0v40h40z"/></mask><g mask="url(#a)"><path fill="#fff" d="M40 6.555V0H20v17.221C20 7.711 12.268 0 2.73 0H0v20h13.484C6.037 20 0 26.02 0 33.445V40h20V22.779C20 32.289 27.733 40 37.272 40H40V20H26.517c7.447 0 13.484-6.02 13.484-13.445z"/></g><path fill="#fff" d="M54.429 8.532h1.983v8.57H54.43zm-3.893 8.57h-1.984v-8.57h1.984zm4.04-3.514h-4.187V11.91h4.187zm5.994 3.514V13.6l.453 1.2-3.77-6.268h2.105l2.889 4.811h-1.212l2.901-4.811h1.947l-3.77 6.268.44-1.2v3.502zm6.059 0v-8.57h3.71q1.15 0 1.983.38.832.367 1.286 1.064.453.697.452 1.665 0 .955-.452 1.653-.453.697-1.286 1.077-.832.368-1.983.368H67.73l.882-.894v3.257zm1.984-3.037-.882-.942h2.497q.92 0 1.371-.392.453-.391.454-1.09 0-.71-.454-1.101-.453-.393-1.37-.392H67.73l.882-.943zm8.687-2.08h4.126v1.542H77.3zm.148 3.525h4.664v1.592h-6.635v-8.57h6.475v1.591h-4.504zm6.242 1.592v-8.57h3.71q1.15 0 1.983.38.832.367 1.285 1.064t.453 1.665q0 .955-.453 1.653-.453.685-1.285 1.053-.833.367-1.984.367h-2.607l.881-.87v3.258zm5.448 0-2.143-3.11h2.118l2.167 3.11zm-3.465-3.037-.881-.93h2.497q.919 0 1.371-.392.453-.404.453-1.102 0-.71-.453-1.101-.453-.393-1.37-.392h-2.498l.881-.943zm8.856-1.677h4.113v1.592H94.53zm.147 4.714h-1.984v-8.57h6.477v1.591h-4.493zm9.643.146q-1.824 0-2.853-1.016-1.028-1.015-1.028-2.901v-4.8h1.983v4.726q0 1.224.502 1.763.502.54 1.408.539.906 0 1.408-.539t.502-1.763V8.532h1.958v4.799q0 1.886-1.028 2.901-1.028 1.017-2.852 1.016m8.656 0q-1.028 0-1.971-.269-.942-.282-1.518-.722l.673-1.494q.552.392 1.298.649a5 5 0 0 0 1.53.245q.588 0 .943-.11.368-.123.539-.33a.73.73 0 0 0 .171-.478.63.63 0 0 0-.269-.539 2 2 0 0 0-.71-.33q-.44-.135-.98-.245a14 14 0 0 1-1.065-.294 4.6 4.6 0 0 1-.967-.441 2.2 2.2 0 0 1-.722-.71q-.27-.441-.27-1.126 0-.735.392-1.335.404-.612 1.2-.967.808-.367 2.02-.367.808 0 1.592.196.783.183 1.383.563l-.612 1.506q-.6-.343-1.2-.502a4.3 4.3 0 0 0-1.175-.172q-.576 0-.943.135t-.526.355a.8.8 0 0 0-.16.49q0 .33.27.538.27.196.71.319.44.122.967.244.54.123 1.065.282.539.16.98.429.44.27.71.71.282.44.281 1.114 0 .722-.403 1.322-.405.6-1.213.967-.796.367-2.02.367m6.816-5.264h4.126v1.543h-4.126zm.146 3.526h4.665v1.592h-6.636v-8.57h6.477v1.591h-4.506zM51.368 32.32q-1.028 0-1.97-.269-.944-.28-1.519-.722l.673-1.493q.551.39 1.298.649a5 5 0 0 0 1.53.244q.588 0 .943-.11.368-.122.539-.33a.73.73 0 0 0 .171-.478.63.63 0 0 0-.27-.538 2 2 0 0 0-.71-.331 11 11 0 0 0-.979-.245q-.526-.123-1.065-.294a4.6 4.6 0 0 1-.967-.44 2.2 2.2 0 0 1-.722-.71q-.27-.441-.27-1.127 0-.734.392-1.334.405-.612 1.2-.968.808-.366 2.02-.367.809 0 1.592.196.783.184 1.383.563l-.612 1.506a5 5 0 0 0-1.2-.502 4.3 4.3 0 0 0-1.175-.171q-.576 0-.943.134-.367.136-.526.355a.78.78 0 0 0-.16.49q0 .33.27.539.27.195.71.318.44.122.967.245.54.122 1.065.282.54.159.98.428.44.27.71.71.28.44.281 1.114 0 .723-.404 1.322t-1.212.968q-.796.367-2.02.367m6.647-.146V25.22h-2.742v-1.616h7.467v1.616h-2.742v6.954zm9.457.147q-1.824 0-2.853-1.016t-1.028-2.902v-4.799h1.983v4.726q0 1.224.502 1.763t1.408.538 1.408-.538q.502-.54.502-1.763v-4.726h1.959v4.8q0 1.884-1.029 2.9t-2.852 1.017m5.84-.147v-8.57h3.893q1.396 0 2.461.539 1.065.526 1.665 1.481t.6 2.265q0 1.297-.6 2.265a4.1 4.1 0 0 1-1.665 1.494q-1.065.526-2.46.526zm1.984-1.628h1.812q.856 0 1.481-.319.636-.33.98-.93.355-.6.355-1.408 0-.82-.356-1.408a2.27 2.27 0 0 0-.979-.918q-.624-.33-1.481-.33h-1.812zm8.13 1.628v-8.57h1.984v8.57zm8.18.147q-1.016 0-1.885-.33a4.5 4.5 0 0 1-1.494-.931q-.624-.6-.979-1.408a4.5 4.5 0 0 1-.343-1.763q0-.955.343-1.763a4.3 4.3 0 0 1 .991-1.408q.638-.6 1.494-.93a5.1 5.1 0 0 1 1.861-.33q1.016 0 1.861.33.857.33 1.481.93.637.6.992 1.408a4.3 4.3 0 0 1 .355 1.763q0 .955-.355 1.775a4.3 4.3 0 0 1-.992 1.408q-.624.588-1.48.918-.846.33-1.85.33m-.012-1.69q.576 0 1.053-.195.49-.197.857-.564a2.5 2.5 0 0 0 .563-.869q.208-.502.208-1.114t-.208-1.114a2.5 2.5 0 0 0-.563-.87 2.4 2.4 0 0 0-.845-.562 2.8 2.8 0 0 0-1.065-.196q-.575 0-1.065.196-.478.195-.845.563a2.7 2.7 0 0 0-.575.869q-.195.502-.196 1.114 0 .6.196 1.114.208.503.563.87.367.366.857.563.49.195 1.065.195"/></svg>