<svg xmlns="http://www.w3.org/2000/svg" width="95" height="26" fill="none" viewBox="0 0 95 26"><g fill="#fff" clip-path="url(#a)"><path d="M30.015 6.787h1V19.66h-1zm10.629 5.031a1 1 0 0 1-.087.078.2.2 0 0 1-.113.031q-.092 0-.25-.122a3.4 3.4 0 0 0-1.083-.537 3.3 3.3 0 0 0-.96-.123q-.783 0-1.387.278-.605.277-1.02.796a3.7 3.7 0 0 0-.631 1.255 5.8 5.8 0 0 0-.218 1.655q0 .955.222 1.693.224.736.633 1.241t.991.769a3.1 3.1 0 0 0 1.292.264q.654 0 1.096-.155.441-.155.728-.336.285-.183.455-.337.168-.155.268-.155.119 0 .182.091l.236.291q-.21.273-.527.51a3.6 3.6 0 0 1-.719.41 4.4 4.4 0 0 1-.869.268 5 5 0 0 1-.978.095 3.9 3.9 0 0 1-1.578-.314 3.4 3.4 0 0 1-1.228-.91 4.3 4.3 0 0 1-.8-1.46q-.287-.863-.287-1.965 0-1.036.273-1.892a4.3 4.3 0 0 1 .796-1.473 3.6 3.6 0 0 1 1.282-.96q.76-.341 1.743-.341.881 0 1.569.282.686.281 1.196.764zm5.735-1.355q.763 0 1.414.264.651.263 1.128.768.478.505.746 1.242.268.736.268 1.692 0 .2-.059.273-.06.072-.186.073h-6.541v.173q0 1.018.237 1.792.236.773.673 1.296.436.523 1.055.787t1.383.264q.682 0 1.182-.15a4.4 4.4 0 0 0 1.383-.674q.2-.15.291-.15.12 0 .182.091l.237.291a2.5 2.5 0 0 1-.578.51 4 4 0 0 1-.8.405 6 6 0 0 1-.947.268q-.504.1-1.014.1a4.3 4.3 0 0 1-1.692-.323 3.6 3.6 0 0 1-1.31-.941 4.3 4.3 0 0 1-.841-1.515q-.296-.896-.296-2.051 0-.974.277-1.797a4.1 4.1 0 0 1 .8-1.42 3.65 3.65 0 0 1 1.284-.932q.759-.336 1.724-.336m.009.646q-.7 0-1.256.218-.555.218-.96.628-.404.409-.654.982t-.332 1.283h5.967q0-.727-.2-1.306a2.8 2.8 0 0 0-.564-.977 2.4 2.4 0 0 0-.873-.614 2.9 2.9 0 0 0-1.128-.214m8.264 3.92v4.63h-2.448V6.505h4.285q1.319 0 2.284.31.964.308 1.591.863.628.555.928 1.329t.3 1.692q0 .955-.318 1.75-.318.797-.955 1.37t-1.592.891q-.956.32-2.238.319zm0-1.91h1.837q.673 0 1.174-.169a2.2 2.2 0 0 0 .827-.482q.329-.315.491-.764.165-.45.164-1.005 0-.527-.164-.956a1.9 1.9 0 0 0-.49-.727 2.2 2.2 0 0 0-.828-.46 3.9 3.9 0 0 0-1.174-.159h-1.837zM70.23 19.66h-1.01q-.32 0-.501-.096t-.273-.387l-.2-.664a8 8 0 0 1-.696.56q-.34.24-.705.405-.364.163-.773.245a4.7 4.7 0 0 1-.91.082 3.6 3.6 0 0 1-1.092-.16 2.35 2.35 0 0 1-.86-.477 2.2 2.2 0 0 1-.559-.791 2.8 2.8 0 0 1-.2-1.101q0-.528.278-1.041.277-.514.923-.928t1.72-.687q1.072-.273 2.665-.31v-.545q0-.937-.396-1.388t-1.15-.45q-.547 0-.91.127-.364.127-.633.287a23 23 0 0 1-.495.286 1 1 0 0 1-.5.128.65.65 0 0 1-.392-.118.9.9 0 0 1-.264-.292l-.409-.718q1.61-1.474 3.884-1.474.82 0 1.46.268.642.27 1.088.747t.677 1.141.232 1.456zm-4.367-1.401q.345 0 .636-.064a2.4 2.4 0 0 0 .55-.191q.26-.128.501-.314.24-.187.487-.441v-1.574q-.982.045-1.642.168t-1.06.314-.569.446a1 1 0 0 0-.168.555q0 .591.35.846.351.255.915.255m6.581 1.401v-9.334h1.373q.438 0 .574.41l.154.736q.282-.291.596-.527t.664-.41a3.4 3.4 0 0 1 .75-.263q.4-.091.874-.091.764 0 1.355.259t.987.728.6 1.118.205 1.433v5.94H78.33v-5.94q0-.855-.395-1.323-.396-.47-1.188-.469-.582 0-1.091.264-.51.264-.965.718v6.75zm14.204-9.48q.883 0 1.623.283.742.282 1.279.823t.836 1.328.3 1.797q0 .254-.022.423a.7.7 0 0 1-.082.263.33.33 0 0 1-.16.137.7.7 0 0 1-.254.04h-5.767q.1 1.438.773 2.111t1.783.673q.546 0 .942-.127a4.4 4.4 0 0 0 .69-.282q.296-.155.52-.282a.9.9 0 0 1 .432-.127q.136 0 .236.054a.5.5 0 0 1 .173.155l.655.819a3.8 3.8 0 0 1-.837.732q-.464.296-.969.473-.506.178-1.028.25a7 7 0 0 1-1.014.073q-.974 0-1.81-.323a4.05 4.05 0 0 1-1.456-.955 4.5 4.5 0 0 1-.973-1.565q-.355-.931-.355-2.16 0-.956.31-1.797.309-.841.886-1.465a4.2 4.2 0 0 1 1.41-.987q.832-.363 1.879-.363m.045 1.61q-.982 0-1.537.556-.555.555-.71 1.573h4.221q0-.435-.118-.823a1.9 1.9 0 0 0-.364-.678 1.7 1.7 0 0 0-.618-.459 2.1 2.1 0 0 0-.874-.168m5.972-5.65h2.246V19.66h-2.246z"/><path fill-rule="evenodd" d="M20.937 6.99c0-1.319-1.46-2.199-2.602-1.54l-8.06 4.67c-.468.297-.78.86-.801 1.355v13.193c0 .971 1.04 1.65 1.998 1.157l4.35-2.536c.623-.404.847-.948.847-1.472 0 0 .005-.796 0-1.041-.052-2.26.386-3.465 2.248-4.543l1.147-.664c.359-.207.91-.698.91-1.638zM7.202 11.595c0-.699-.434-1.244-.85-1.485l-4.3-2.49C1.002 7.01 0 7.91 0 8.92v9.867c0 .7.452 1.25.796 1.45.191.11-.041-.025 4.402 2.548.808.469 2.004-.119 2.004-1.308zM10.51.271C9.964-.058 9.316-.1 8.76.214L3.545 3.259c-.85.492-1.2 1.905-.257 2.451l4.09 2.369a1.86 1.86 0 0 0 1.858.018c1.684-.975-1.692.962 5.247-3.057.865-.501 1.055-1.857.111-2.404C12.152 1.222 11.153.658 10.51.271" clip-rule="evenodd"/></g><defs><clipPath id="a"><path fill="#fff" d="M0 0h95v26H0z"/></clipPath></defs></svg>