<svg xmlns="http://www.w3.org/2000/svg" width="144" height="40" fill="none" viewBox="0 0 144 40"><path fill="#fff" d="M3.605 16.569q-1.975 0-2.808-.832C.243 15.182 0 14.489 0 13.692v-1.075c0-.797.277-1.49.797-2.045q.832-.832 2.808-.832t2.808.832c.554.555.797 1.248.797 2.045v1.075c0 .797-.278 1.49-.797 2.045q-.833.832-2.808.832m0 15.46q-1.975 0-2.808-.833C.243 30.642 0 29.948 0 29.151v-1.074c0-.798.277-1.49.797-2.046q.832-.831 2.808-.831t2.808.832c.554.554.797 1.247.797 2.045v1.074c0 .797-.278 1.49-.797 2.045q-.833.832-2.808.832m9.705 5.338L27.314 0h4.02L17.332 37.366zm36.188-9.393h7.314V13.9h-7.314v-3.709h11.854v17.747h6.863v3.71H49.498v-3.71zm9.601-21.664c-1.178 0-1.976-.243-2.426-.693-.45-.485-.693-1.04-.693-1.733v-.867c0-.693.242-1.282.693-1.733.45-.485 1.248-.693 2.392-.693s1.975.242 2.426.693c.45.485.693 1.04.693 1.733v.867c0 .693-.242 1.282-.693 1.733-.45.485-1.248.693-2.392.693m14.42 21.664h6.863V13.9h-7.28v-3.709h7.28V6.31c0-1.594.45-2.911 1.317-3.917.901-1.005 2.288-1.525 4.16-1.525h7.244v3.71h-8.18v5.614h8.18v3.71h-8.18v14.072h7.244v3.709H73.519zm24.957 0h6.863V13.9h-7.28v-3.709h7.28V6.31c0-1.594.45-2.911 1.317-3.917.901-1.005 2.288-1.525 4.159-1.525h7.245v3.71h-8.181v5.614h8.181v3.71h-8.181v14.072h7.245v3.709H98.476zm40.45-17.747h4.576l-10.399 25.616q-.831 2.079-2.184 3.12c-.901.692-2.183 1.039-3.882 1.039h-3.605v-3.709h5.061l1.941-4.922-8.665-21.179h4.748l3.397 8.978 2.669 7.348h.243l2.669-7.348 3.397-8.978z"/></svg>