<svg xmlns="http://www.w3.org/2000/svg" width="191" height="40" fill="none" viewBox="0 0 191 40"><g fill="#fff" clip-path="url(#a)"><path d="M52.178 39.874 26.003 27.78 0 39.871 4.243 16.14c6.71-5.625 14.28-10.352 21.25-15.721L26.09 0 48.1 15.722l4.078 24.15zm68.905-26.71c.489-2.265 4.56-2.658 6.206-.001l8.866 13.545c-.005 0-.127.124 0 0l.38-15.187 3.131.036h.415v.597c-.126 5.44 0 11.39-.002 16.454-.357 3.584-4.051 4.176-5.953 1.65l-8.735-13.803c-.126-.127-.253-.127-.38-.127h-.38l-.002 15.193h-3.546zm-50.41-.302c.489-2.266 4.56-2.66 6.206-.002l8.866 13.545c-.005 0-.126.124 0 0l.38-15.186 3.131.035h.416v.598c-.127 5.44 0 11.389-.003 16.453-.357 3.584-4.05 4.176-5.953 1.65l-8.724-13.76a.8.8 0 0 0-.485-.166h-.288v15.19h-3.546zm39.265-1.342v3.037H98.412c-.342-.017-.4.115-.38.38v4.937h8.613v3.038h-8.613v8.608c-.634 0-3.382-.016-3.777 0 0 0 .023-16.537 0-17.573-.022-1.035 1.372-2.427 2.384-2.427zm64.468 0 6.335 10.382c.251.25.124.124.436-.332 2.166-3.248 3.787-6.916 6.148-10.05h3.673l-8.359 14.05v5.95h-3.547v-5.95l-8.359-14.05zm-4.687 0v3.037h-7.599V31.52h-3.8V14.557h-7.599V11.52zm-103.352-.127V31.2l-3.673-.044-.091-19.764c.977.002 3.004 0 3.764 0m81.821.128v20.048c-.76 0-2.787-.049-3.673-.049v-20zm-31.665 0h-3.546v20h3.546z"/></g><defs><clipPath id="a"><path fill="#fff" d="M0 0h191v40H0z"/></clipPath></defs></svg>