<svg xmlns="http://www.w3.org/2000/svg" width="167" height="40" fill="none" viewBox="0 0 167 40"><g clip-path="url(#a)"><mask id="b" width="167" height="40" x="0" y="0" maskUnits="userSpaceOnUse" style="mask-type:luminance"><path fill="#fff" d="M166.543 0H.123v40h166.42z"/></mask><g fill="#fff" mask="url(#b)"><path d="M47.462 2.982v31.073a2.97 2.97 0 0 1-3.208 2.956l-19.066-1.478a11.34 11.34 0 0 0-6.452 1.423l-6.578 3.695c-.58.325-1.215-.342-.852-.9l3.298-5.03 3.063-4.686c.326-.504.96-.739 1.54-.558 4.803 1.55 10.24-.235 13.122-4.632 3.444-5.281 1.94-12.347-3.353-15.771-5.31-3.443-12.414-1.929-15.858 3.334a11.37 11.37 0 0 0 1.051 13.806c.399.451.453 1.118.109 1.623l-3.879 5.947a1.21 1.21 0 0 1-1.05.523l-7.105-.54c-1.214-.09-2.12-1.064-2.12-2.254V5.505c0-1.171.906-2.163 2.102-2.253L44.254.008c1.722-.126 3.208 1.244 3.208 2.974M22.687 10.84c-4.331 0-7.847 3.497-7.847 7.804 0 2.091.834 4.002 2.193 5.408a8.06 8.06 0 0 0 2.99 1.928 7.7 7.7 0 0 0 2.664.469c4.332 0 7.848-3.497 7.848-7.805 0-4.325-3.516-7.804-7.848-7.804m41.356-7.155c0 1.027-.326 1.838-.996 2.415-.67.595-1.45.883-2.356.883s-1.686-.288-2.356-.883-.997-1.388-.997-2.415.326-1.838.997-2.415c.67-.595 1.45-.883 2.356-.883s1.685.288 2.356.883c.67.577.996 1.388.996 2.415m-.525 25.413H57.9V9.38h5.618zm3.698-19.05c.96-.27 2.193-.523 3.698-.775a31 31 0 0 1 4.748-.36c1.685 0 3.08.215 4.205.648 1.123.433 2.011 1.063 2.664 1.856.652.793 1.123 1.749 1.395 2.848.272 1.1.417 2.325.417 3.677V29.08h-5.618V18.627c0-1.802-.236-3.082-.725-3.821-.472-.757-1.378-1.118-2.682-1.118-.4 0-.834.018-1.287.054s-.852.09-1.215.127v15.23h-5.618V10.048zm26.224 6.415c.543-.594 1.124-1.225 1.722-1.856.597-.649 1.16-1.28 1.721-1.929.544-.63 1.07-1.243 1.559-1.802.49-.577.906-1.063 1.269-1.496h6.687c-1.341 1.514-2.628 2.974-3.896 4.362a112 112 0 0 1-4.17 4.29 25 25 0 0 1 2.339 2.415 63 63 0 0 1 2.338 2.92 37 37 0 0 1 2.066 3.01c.634 1.009 1.16 1.91 1.577 2.739H100.2a74 74 0 0 0-1.378-2.163 39 39 0 0 0-1.63-2.361 28 28 0 0 0-1.831-2.271 15 15 0 0 0-1.903-1.838v8.651H87.84V.909l5.618-.901v16.455z"/><path d="M106.216 19.383q0-2.622.816-4.596c.543-1.316 1.25-2.397 2.138-3.28a8.8 8.8 0 0 1 3.027-1.983 9.5 9.5 0 0 1 3.516-.667c2.809 0 5.038.866 6.669 2.56 1.632 1.712 2.447 4.235 2.447 7.552 0 .324-.018.684-.036 1.063-.018.397-.054.739-.072 1.027H111.98c.126 1.154.67 2.055 1.613 2.74.96.667 2.229 1.01 3.842 1.01 1.033 0 2.047-.09 3.026-.29.997-.18 1.795-.414 2.429-.684l.761 4.542a8 8 0 0 1-1.214.45c-.508.145-1.07.289-1.686.397s-1.269.198-1.975.288c-.707.072-1.414.109-2.102.109-1.777 0-3.335-.27-4.658-.793s-2.411-1.244-3.281-2.163c-.869-.92-1.504-2-1.921-3.244a13.6 13.6 0 0 1-.598-4.038m13.194-2.127a5.2 5.2 0 0 0-.253-1.387 3.7 3.7 0 0 0-.635-1.208 3.7 3.7 0 0 0-1.087-.865c-.435-.216-.979-.343-1.632-.343-.634 0-1.159.109-1.612.325s-.834.486-1.124.847c-.308.342-.526.757-.689 1.226s-.29.937-.362 1.405zm7.468 2.127q0-2.622.815-4.596c.544-1.316 1.251-2.397 2.139-3.28a8.8 8.8 0 0 1 3.027-1.983 9.5 9.5 0 0 1 3.516-.667c2.809 0 5.038.866 6.669 2.56 1.631 1.712 2.447 4.235 2.447 7.552 0 .324-.018.684-.037 1.063-.017.397-.054.739-.072 1.027h-12.741c.127 1.154.671 2.055 1.613 2.74.961.667 2.229 1.01 3.842 1.01 1.033 0 2.048-.09 3.027-.29.997-.18 1.794-.414 2.429-.684l.761 4.542a8 8 0 0 1-1.215.45c-.507.145-1.069.289-1.685.397s-1.269.198-1.975.288a21 21 0 0 1-2.103.109c-1.776 0-3.334-.27-4.657-.793s-2.411-1.244-3.281-2.163c-.87-.92-1.504-2-1.921-3.244a13.6 13.6 0 0 1-.598-4.038m13.194-2.127a5.2 5.2 0 0 0-.254-1.387 3.7 3.7 0 0 0-.634-1.208 3.7 3.7 0 0 0-1.088-.865c-.435-.216-.978-.343-1.631-.343-.634 0-1.16.109-1.613.325s-.833.486-1.124.847c-.307.342-.525.757-.688 1.226s-.29.937-.362 1.405zm26.624 1.984c0 1.532-.181 2.92-.562 4.163-.38 1.244-.924 2.325-1.667 3.226a7.24 7.24 0 0 1-2.718 2.091c-1.088.505-2.32.757-3.734.757-.779 0-1.504-.072-2.193-.216a10.3 10.3 0 0 1-1.957-.631v7.426l-5.619.955V10.048a31 31 0 0 1 1.74-.433 32 32 0 0 1 2.049-.36c.725-.109 1.449-.18 2.192-.253a30 30 0 0 1 2.139-.09c1.631 0 3.099.252 4.368.74 1.286.486 2.356 1.17 3.244 2.054q1.332 1.324 2.012 3.244c.471 1.298.706 2.722.706 4.29m-5.727.144c0-1.73-.399-3.1-1.16-4.146-.779-1.045-1.939-1.55-3.461-1.55-.507 0-.961.018-1.396.054s-.779.09-1.051.127v10.093c.344.216.816.414 1.378.559a7 7 0 0 0 1.721.216c2.628.018 3.969-1.766 3.969-5.353"/></g></g><defs><clipPath id="a"><path fill="#fff" d="M0 0h166.667v40H0z"/></clipPath></defs></svg>