<svg xmlns="http://www.w3.org/2000/svg" width="189" height="40" fill="none" viewBox="0 0 189 40"><g clip-path="url(#a)"><mask id="b" width="189" height="40" x="0" y="0" maskUnits="userSpaceOnUse" style="mask-type:luminance"><path fill="#fff" d="M188.197 0H0v40h188.197z"/></mask><g fill="#fff" mask="url(#b)"><path d="m37.717 38.534-.884-.756H9.256a.8.8 0 0 1-.527-.198l-7.552-6.447H.82a.8.8 0 0 0-.47.15.842.842 0 0 0-.058 1.317l8.436 7.223a.8.8 0 0 0 .527.194h27.93a.8.8 0 0 0 .484-.142.842.842 0 0 0 .046-1.34"/><path d="m37.717 34.088-.884-.756H9.256a.8.8 0 0 1-.527-.198L1.177 26.67H.82a.8.8 0 0 0-.47.15.842.842 0 0 0-.058 1.317l8.436 7.22a.8.8 0 0 0 .527.197h27.93a.8.8 0 0 0 .47-.147.843.843 0 0 0 .06-1.318"/><path d="m37.716 16.309-.883-.757H9.256a.8.8 0 0 1-.527-.194L1.177 8.894H.82a.8.8 0 0 0-.483.144.842.842 0 0 0-.044 1.34l8.662 7.397 10.153 8.704a.8.8 0 0 0 .53.194h6.814l.883.756a.835.835 0 0 1 .24.922.83.83 0 0 1-.298.396.8.8 0 0 1-.47.152H19.64a.82.82 0 0 1-.52-.204l-7.582-6.471H.821a.8.8 0 0 0-.47.15.842.842 0 0 0-.058 1.317l8.436 7.22a.8.8 0 0 0 .527.197h27.93a.8.8 0 0 0 .47-.15.846.846 0 0 0 .06-1.32l-11.263-9.64h-6.814a.83.83 0 0 1-.52-.195l-2.374-2.028h20.437a.8.8 0 0 0 .473-.146.84.84 0 0 0 .062-1.32M19.12 22.026a.8.8 0 0 0 .53.195h6.807l.88.753a.83.83 0 0 1 .239.918.83.83 0 0 1-.299.394.8.8 0 0 1-.467.15h-7.17a.8.8 0 0 1-.52-.187l-7.582-6.474h2.597z"/><path d="m37.717 11.864-.884-.757H9.256a.8.8 0 0 1-.527-.194L1.177 4.445H.82a.8.8 0 0 0-.469.152.846.846 0 0 0-.059 1.318l8.436 7.22a.8.8 0 0 0 .527.195h27.93a.8.8 0 0 0 .47-.148.842.842 0 0 0 .06-1.318"/><path d="m.294 1.466 8.435 7.238a.8.8 0 0 0 .528.194h27.93a.8.8 0 0 0 .47-.148.843.843 0 0 0 .06-1.318L29.282.194A.83.83 0 0 0 28.754 0H.821a.8.8 0 0 0-.47.15.842.842 0 0 0-.058 1.317m37.424 37.067-.884-.756H9.256a.8.8 0 0 1-.527-.198l-7.552-6.447H.82a.8.8 0 0 0-.47.15.842.842 0 0 0-.058 1.317l8.436 7.223a.8.8 0 0 0 .527.194h27.93a.8.8 0 0 0 .484-.142.842.842 0 0 0 .046-1.34"/><path d="m37.717 34.088-.884-.756H9.256a.8.8 0 0 1-.527-.198L1.177 26.67H.82a.8.8 0 0 0-.47.15.842.842 0 0 0-.058 1.317l8.436 7.22a.8.8 0 0 0 .527.197h27.93a.8.8 0 0 0 .47-.147.843.843 0 0 0 .06-1.318"/><path d="m37.716 16.309-.883-.757H9.256a.8.8 0 0 1-.527-.194L1.177 8.894H.82a.8.8 0 0 0-.483.144.842.842 0 0 0-.044 1.34l8.662 7.397 10.153 8.704a.8.8 0 0 0 .53.194h6.814l.883.756a.835.835 0 0 1 .24.922.83.83 0 0 1-.298.396.8.8 0 0 1-.47.152H19.64a.82.82 0 0 1-.52-.204l-7.582-6.471H.821a.8.8 0 0 0-.47.15.842.842 0 0 0-.058 1.317l8.436 7.22a.8.8 0 0 0 .527.197h27.93a.8.8 0 0 0 .47-.15.846.846 0 0 0 .06-1.32l-11.263-9.64h-6.814a.83.83 0 0 1-.52-.195l-2.374-2.028h20.437a.8.8 0 0 0 .473-.146.84.84 0 0 0 .062-1.32M19.12 22.026a.8.8 0 0 0 .53.195h6.807l.88.753a.83.83 0 0 1 .239.918.83.83 0 0 1-.299.394.8.8 0 0 1-.467.15h-7.17a.8.8 0 0 1-.52-.187l-7.582-6.474h2.597z"/><path d="m37.717 11.864-.884-.757H9.256a.8.8 0 0 1-.527-.194L1.177 4.445H.82a.8.8 0 0 0-.469.152.846.846 0 0 0-.059 1.318l8.436 7.22a.8.8 0 0 0 .527.195h27.93a.8.8 0 0 0 .47-.148.842.842 0 0 0 .06-1.318"/><path d="m.294 1.466 8.435 7.238a.8.8 0 0 0 .528.194h27.93a.8.8 0 0 0 .47-.148.843.843 0 0 0 .06-1.318L29.282.194A.83.83 0 0 0 28.754 0H.821a.8.8 0 0 0-.47.15.842.842 0 0 0-.058 1.317m54.333 14.096v15.55h5.667v-15.55zm0-5.075v3.288h5.667v-3.288zm9.952 5.074v15.55h5.667v-7.556c0-2.738 1.622-4.415 3.626-4.415 2.05 0 3.154 1.339 3.154 4.074v7.897h5.663v-8.704c0-4.82-2.264-7.307-6.592-7.307-2.726 0-4.592 1.024-5.818 3.514v-3.053zm19.149.001 6.553 15.549h6.889l6.523-15.55h-6.41l-2.879 8.614q-.406 1.086-.702 2.21h-.155a16 16 0 0 0-.613-2.21l-3.092-8.613zm29.736 12.222c-2.328 0-3.827-1.587-3.827-4.48 0-2.892 1.499-4.415 3.827-4.415s3.83 1.53 3.83 4.416c0 2.885-1.503 4.479-3.83 4.479m0 3.793c5.636 0 9.678-3.013 9.678-8.272s-4.042-8.208-9.678-8.208-9.629 2.952-9.629 8.208c0 5.255 3.995 8.272 9.629 8.272m21.574-4.104c-2.328 0-3.887-1.494-3.887-3.793v-.653c0-2.55 1.559-4.017 3.92-4.017s3.705 1.56 3.705 4.265c0 2.58-1.411 4.198-3.738 4.198m-9.431-11.911v21.615h5.666V29.09c1.223 1.65 3.122 2.488 5.541 2.488 4.777 0 8.024-3.294 8.024-8.302 0-4.945-3.092-8.178-7.809-8.178-2.542 0-4.684 1.057-5.911 3.08v-2.615zm31.217 12.222c-2.327 0-3.827-1.587-3.827-4.48 0-2.892 1.5-4.415 3.827-4.415s3.83 1.53 3.83 4.416c0 2.885-1.503 4.479-3.83 4.479m0 3.793c5.637 0 9.678-3.013 9.678-8.272s-4.041-8.208-9.678-8.208-9.646 2.952-9.646 8.208c0 5.255 4.013 8.272 9.646 8.272m21.574-4.104c-2.327 0-3.887-1.494-3.887-3.793v-.653c0-2.55 1.56-4.017 3.92-4.017s3.704 1.556 3.704 4.261c0 2.585-1.41 4.202-3.737 4.202m-9.431-11.911v21.615h5.667V29.09c1.223 1.65 3.121 2.488 5.54 2.488 4.777 0 8.024-3.294 8.024-8.302 0-4.945-3.093-8.178-7.81-8.178-2.541 0-4.684 1.057-5.91 3.08v-2.615z"/></g></g><defs><clipPath id="a"><path fill="#fff" d="M0 0h188.571v40H0z"/></clipPath></defs></svg>