<svg xmlns="http://www.w3.org/2000/svg" width="148" height="40" fill="none" viewBox="0 0 148 40"><path fill="#fff" d="M45.71 11.715q-.406-.405-.846-.768L37.429.425a1.005 1.005 0 0 0-1.655.019L30.53 8.268h-6.19L19.094.444a1.004 1.004 0 0 0-1.655-.02l-5.614 7.947-1.82 2.576q-.442.363-.846.768a11.75 11.75 0 0 0-3.447 8.323v7.359c0 3.247 1.32 6.195 3.447 8.322a11.75 11.75 0 0 0 8.323 3.448h19.905a11.74 11.74 0 0 0 8.322-3.448 11.74 11.74 0 0 0 3.447-8.322v-7.36a11.73 11.73 0 0 0-3.447-8.322m-9.08-8.94 4.255 6.022a11.8 11.8 0 0 0-3.498-.53h-4.44zm-18.392 0 3.685 5.493h-4.441a11.8 11.8 0 0 0-3.5.53zM44.29 34.298a9.73 9.73 0 0 1-6.902 2.86H17.482a9.73 9.73 0 0 1-6.903-2.86 9.73 9.73 0 0 1-2.86-6.902v-7.36a9.73 9.73 0 0 1 2.86-6.902 9.75 9.75 0 0 1 3.986-2.416v-.001a9.8 9.8 0 0 1 2.917-.443h19.905a9.72 9.72 0 0 1 6.902 2.86 9.72 9.72 0 0 1 2.86 6.903v7.359q0 .555-.062 1.094a9.7 9.7 0 0 1-2.798 5.808"/><path fill="#fff" d="M39.559 17.867a7.92 7.92 0 0 0-5.62-2.329 7.9 7.9 0 0 0-4.543 1.427 8 8 0 0 0-1.933 1.915 8 8 0 0 0-1.932-1.915 7.9 7.9 0 0 0-4.543-1.427 7.93 7.93 0 0 0-5.621 2.329 7.93 7.93 0 0 0-2.329 5.62c0 2.19.893 4.184 2.329 5.62a7.94 7.94 0 0 0 5.621 2.33 7.93 7.93 0 0 0 6.475-3.345 8 8 0 0 0 1.933 1.917 7.9 7.9 0 0 0 4.543 1.427 7.93 7.93 0 0 0 5.62-2.329 7.93 7.93 0 0 0 2.328-5.62c0-2.192-.89-4.185-2.328-5.62m-1.419 9.82a5.92 5.92 0 0 1-4.2 1.74 5.9 5.9 0 0 1-3.395-1.064 6 6 0 0 1-2.146-2.732 1 1 0 0 0-.936-.64c-.415 0-.786.253-.936.64a5.97 5.97 0 0 1-2.145 2.732 5.9 5.9 0 0 1-3.394 1.064 5.92 5.92 0 0 1-4.2-1.74 5.92 5.92 0 0 1-1.74-4.2c0-1.644.663-3.123 1.74-4.202a5.92 5.92 0 0 1 4.2-1.74c1.265 0 2.43.394 3.394 1.066a5.95 5.95 0 0 1 2.145 2.73 1.004 1.004 0 0 0 1.872 0 5.97 5.97 0 0 1 2.146-2.73 5.9 5.9 0 0 1 3.394-1.065 5.92 5.92 0 0 1 4.201 1.74 5.92 5.92 0 0 1 1.74 4.2 5.92 5.92 0 0 1-1.74 4.201"/><path fill="#fff" d="M38.14 19.286a5.92 5.92 0 0 0-4.2-1.74 5.9 5.9 0 0 0-3.395 1.065 5.97 5.97 0 0 0-2.146 2.73 1.004 1.004 0 0 1-1.872 0 5.95 5.95 0 0 0-2.145-2.73 5.9 5.9 0 0 0-3.394-1.065 5.9 5.9 0 0 0-4.2 1.74 5.92 5.92 0 0 0-1.74 4.2c0 1.643.663 3.123 1.74 4.201a5.9 5.9 0 0 0 4.2 1.74c1.265 0 2.43-.392 3.394-1.063a5.96 5.96 0 0 0 2.145-2.733c.15-.387.521-.64.936-.64s.787.253.936.64a6 6 0 0 0 2.146 2.733 5.9 5.9 0 0 0 3.394 1.063 5.92 5.92 0 0 0 4.201-1.74 5.92 5.92 0 0 0 1.74-4.2 5.92 5.92 0 0 0-1.74-4.201m-17.47 7.068s-1.409-1.283-1.409-2.867 1.41-2.868 1.41-2.868 1.41 1.284 1.41 2.868-1.41 2.867-1.41 2.867m13.585 0s-1.408-1.283-1.408-2.867 1.408-2.868 1.408-2.868 1.411 1.284 1.411 2.868-1.41 2.867-1.41 2.867m-6.795 9.534 2.64-3.393h-5.28zM0 23.238c0 2.741 1.669 5.022 3.875 5.519V17.72C1.669 18.214 0 20.496 0 23.238m51.05-5.519v11.037c2.207-.497 3.875-2.778 3.875-5.52s-1.668-5.022-3.875-5.517m18.498 15.766q-2.036 0-3.635-.873a6.6 6.6 0 0 1-2.472-2.471q-.872-1.6-.872-3.635 0-.67.436-1.076.436-.437 1.076-.437.669 0 1.076.437.436.407.436 1.076 0 1.25.495 2.21.523.96 1.395 1.512.902.523 2.065.523t2.065-.523a3.75 3.75 0 0 0 1.396-1.512q.523-.96.523-2.21V11.995q0-.67.407-1.076.436-.437 1.076-.437.669 0 1.105.437.436.407.436 1.076v14.51q0 2.037-.901 3.636a6.6 6.6 0 0 1-2.472 2.471q-1.57.873-3.635.873m19.221-.146q-2.006 0-3.606-.843-1.57-.873-2.5-2.53-.903-1.657-.902-4.071V18.74q0-.639.407-1.047.436-.435 1.076-.436.64 0 1.047.436.436.407.436 1.047v7.154q0 1.628.61 2.704.611 1.048 1.658 1.57 1.047.495 2.356.495 1.25 0 2.21-.494a4.1 4.1 0 0 0 1.57-1.338 3.25 3.25 0 0 0 .582-1.89h1.832q0 1.803-.901 3.257a6.26 6.26 0 0 1-2.414 2.297q-1.513.843-3.46.843m6.427-.145q-.64 0-1.076-.407a1.52 1.52 0 0 1-.407-1.076V18.74q0-.669.407-1.076.436-.407 1.076-.407.67 0 1.076.407t.407 1.076v12.97q0 .64-.407 1.076-.407.407-1.076.407m20.142.03q-.64 0-1.076-.408a1.52 1.52 0 0 1-.407-1.076v-7.154q0-1.657-.611-2.704a3.74 3.74 0 0 0-1.657-1.541q-1.018-.524-2.356-.524-1.221 0-2.21.494a4.1 4.1 0 0 0-1.57 1.338q-.582.814-.582 1.89h-1.832q0-1.831.873-3.257a6.5 6.5 0 0 1 2.442-2.297q1.542-.843 3.461-.843 2.007 0 3.577.872 1.6.843 2.501 2.501.93 1.657.93 4.071v7.154q0 .64-.436 1.076-.407.407-1.047.407m-11.952 0q-.64 0-1.076-.408a1.52 1.52 0 0 1-.407-1.076V18.77q0-.668.407-1.076.437-.407 1.076-.407.67 0 1.076.407t.407 1.076v12.97q0 .64-.407 1.076-.407.407-1.076.407m20.113-.03q-.64 0-1.076-.407a1.52 1.52 0 0 1-.407-1.076V18.77q0-.67.407-1.077a1.52 1.52 0 0 1 1.076-.407q.668 0 1.077.407.407.407.407 1.076v12.94q0 .64-.407 1.077-.409.407-1.077.407m0-18.495a1.92 1.92 0 0 1-1.366-.553 1.92 1.92 0 0 1-.553-1.366q0-.786.553-1.338.582-.582 1.366-.582t1.338.582q.582.552.582 1.338 0 .785-.582 1.367a1.82 1.82 0 0 1-1.338.552m13.632 18.611q-2.123 0-3.81-1.047a7.8 7.8 0 0 1-2.675-2.879q-.96-1.83-.96-4.129 0-2.297 1.047-4.13a7.9 7.9 0 0 1 2.879-2.878q1.833-1.077 4.1-1.076 2.269 0 4.072 1.076a7.67 7.67 0 0 1 2.849 2.879q1.076 1.832 1.077 4.13h-1.134q0 2.296-.989 4.128a7.6 7.6 0 0 1-2.647 2.88q-1.686 1.046-3.809 1.046m.581-2.617q1.484 0 2.646-.698a5.2 5.2 0 0 0 1.833-1.948q.668-1.25.669-2.792 0-1.57-.669-2.791a4.94 4.94 0 0 0-1.833-1.949q-1.163-.727-2.646-.727-1.454 0-2.646.727-1.164.698-1.861 1.948-.669 1.222-.669 2.792 0 1.541.669 2.792a5.4 5.4 0 0 0 1.861 1.948q1.192.698 2.646.698m6.514 2.53q-.64 0-1.076-.407a1.52 1.52 0 0 1-.407-1.076v-4.45l.553-3.082 2.414 1.047v6.485q0 .64-.437 1.076-.406.407-1.047.407"/></svg>