<svg xmlns="http://www.w3.org/2000/svg" width="62" height="40" fill="none" viewBox="0 0 62 40"><g fill="#f7f7f7" clip-path="url(#a)"><path d="M5.255 1.014c.469.44.212 2.32.212 3.482 0 .72.129 1.321.129 1.881 0 .601-.129 1.201-.129 1.763.129.479 0 2.241.257 2.356.383.24.767-.96.895-1.081.384-.801.129-.32.597-1.28.512-.917 1.024-1.883 1.408-2.563.342-.721.853-1.762 1.237-2.602.384-.56.64-1.642 1.237-2.082.384-.36 1.621-.36 2.772-.36.854.119 1.75.119 2.004.56.342.72-1.022 2.602-1.407 3.404a21 21 0 0 1-1.364 2.357c-.129.24-.129.48-.257.84-.469 1.162-1.109 1.964-1.748 3.163-.256.44-.47 1.041-.853 1.522-.256.68-.64 1.28-.64 1.76 0 .681.511 1.643.768 2.082.852 1.562 1.75 3.083 2.601 4.725.129.32.129.68.384 1.048.385.916.896 1.64 1.494 2.801.383.841 1.364 2.357 1.15 3.043-.383.84-1.407.601-2.51.601-1.364 0-2.388 0-2.858-.24-.512-.36-.896-1.643-1.28-2.322-.853-1.883-1.237-2.963-2.217-4.924a9 9 0 0 0-1.024-2.002c-.512-.6-.512 1.28-.64 2.121v2.323c0 1.52.385 4.122-.34 4.803-.772.609-4.399.478-4.912-.357-.127-.44 0-1.842 0-3.043.128-1.161 0-1.881 0-2.922-.127-2.562-.127-4.924-.127-7.486 0-.961.255-1.883.127-2.603 0-.48-.127-.8-.127-1.28 0-.362.127-.601.127-.961 0-.802-.127-1.642-.127-2.443 0-.841.127-1.64.127-2.357 0-1.04-.34-2.321-.127-3.162.127-.361.51-.68.639-.801.128 0 .128 0 .257-.12.98-.366 3.753-.245 4.265.356M32.774.893c.256.12.256.56.383 1.04.128.917 0 2.803 0 3.884-.127 1.761 0 3.603 0 4.924v7.849c0 2.122 0 5.044-.127 7.527 0 1.04.127 1.842-.383 2.202-.599.36-4.14.36-4.604 0-.511-.48-.255-2.002-.255-3.043v-1.4c0-2.243-.128-4.364 0-6.927 0-.6.127-1.281 0-1.52-.385-.362-1.365-.121-2.133-.121-.512 0-1.62-.36-2.132.12-.47.597-.261 2.245-.261 3.28 0 2.562.128 3.883.128 6.566 0 1.4.128 2.562-.597 3.042-.767.48-3.754.36-4.265-.12-.768-.681-.64-3.404-.64-5.045 0-5.043.256-8.772.128-13.25 0-.917.128-1.882.128-2.563 0-.48-.128-.96-.257-1.641 0-.36.129-.84.129-1.2.128-1.283-.129-2.923.128-3.405.512-.68 4.392-.801 4.99-.08.511.68.128 2.082.128 2.922-.127.917 0 2.121 0 3.404V8.98c0 .56 0 1.401.128 1.64.255.362 1.534.362 2.133.362.512 0 1.876.12 2.133-.24.256-.361.255-2.358.255-3.044V2.854c0-.68-.127-1.4.128-1.84.257-.48.854-.362 1.366-.48.383 0 2.854-.242 3.368.36M43.676.053c2.004-.12 4.009.48 5.246 1.047.384.24 1.237 1.08 1.493 1.44.64.8 1.023 1.401 1.237 2.442.128.24.257.36.257.48v.48q.209.774.511 1.52v1.28c0 .36.127.68.127 1.047.257 2.123.129 4.605 0 6.926 0 1.522 0 3.043-.255 4.444-.257 1.44-.64 2.963-.976 3.764-.211.386-.47.749-.769 1.08l-.128.12c-.384.56-1.11 1.041-1.876 1.522-.384.2-.512.32-.854.44-.383.12-.767.12-1.407.24-.34 0-.724.24-1.116.24-.853.12-2.005.12-2.602.12a8.6 8.6 0 0 1-2.388-.72c-.128 0-.257-.2-.257-.2a7 7 0 0 1-1.115-.48c-.512-.36-1.151-1.082-1.535-1.522-.852-1.4-1.492-3.523-1.62-5.525-.127-1.521-.127-3.523-.127-4.803-.129-.961 0-2.002.126-2.924 0-1.32 0-2.722.129-3.883.128-.6.256-1.16.383-1.64 0-.722 0-1.282.129-1.882.383-1.047 1.237-2.803 2.132-3.523.256-.12.597-.361.977-.56 1.024-.48 2.51-.84 4.137-.961zm-2.51 7.846c-.384 2.963-.256 6.126-.13 9.164.13 2.357.258 5.967 1.408 6.808 0 .12.342.24.597.36 1.024.321 1.878.12 2.65-.36q.422-.377.726-.84c.383-.562.64-2.202.767-3.284 0-.916 0-2.081.129-3.404a66 66 0 0 0-.384-7.365c-.129-1.522-.255-2.924-.767-3.644a2.44 2.44 0 0 0-1.366-.96c-.597-.201-.852 0-1.109 0h-.128c-1.632.243-2.144 1.764-2.4 3.525zM60.501.523c.597.56.512 14.241.512 16.004-.128 3.842-.128 6.566-.128 10.65 0 .72.128 1.08.128 1.56 0 .916-.255 2.322-.128 3.723 0 1.4.128 3.113-.255 3.915-.256 1.047-1.28 2.241-2.262 2.801-.976.601-2.643.841-4.603.72-1.279-.119-2.773-.24-3.285-.96-.127-.32-.127-1.28-.127-1.963 0-.961 0-1.64.384-1.881.767-.36 2.388.8 3.627.48.512-.12 1.023-.6 1.279-1.44.086-.68 0-1.672 0-2.473 0-.72.086-1.28.086-2.002v-4.32c0-1.761-.213-3.404-.213-4.965 0-2.202.127-15.403.127-17.405 0-1.4-.512-2.322.597-2.803.892-.249 3.622-.249 4.261.359"/></g><defs><clipPath id="a"><path fill="#fff" d="M0 0h61.095v40H0z"/></clipPath></defs></svg>