<svg xmlns="http://www.w3.org/2000/svg" width="125" height="39" fill="none" viewBox="0 0 125 39"><g clip-path="url(#a)"><mask id="b" width="125" height="39" x="0" y="0" maskUnits="userSpaceOnUse" style="mask-type:luminance"><path fill="#fff" d="M124.691 0H0v38.206h124.691z"/></mask><g fill="#fff" mask="url(#b)"><path d="M7.37 20.737h-2.8v9.492H0V0h4.57v16.576h2.8l6.004-8.599h5.463l-7.535 10.647 8.305 11.605h-5.594zM31.572 30.77c-6.797 0-11.916-4.98-11.916-11.671S24.775 7.436 31.572 7.436s11.9 4.964 11.9 11.663c0 6.7-5.102 11.67-11.9 11.67m7.248-11.671a7.01 7.01 0 0 0-7.248-7.297 7 7 0 0 0-7.24 7.297 7.003 7.003 0 0 0 7.24 7.297A7.01 7.01 0 0 0 38.82 19.1M67.64 7.977 57.42 30.63c-2.548 5.594-4.726 7.576-9.263 7.576h-2.293V34.11h1.908c2.94 0 3.849-.819 5.479-4.414l.5-1.049-9.657-20.671h4.972l7.068 15.512 6.642-15.512z"/><path d="m101.186 7.977-7.444 22.252H90.04l-5.733-13.554-5.684 13.554H74.89L67.436 7.977h4.717l5.02 14.955L83.538 8.19h1.474l6.479 14.865L96.64 7.977zm23.505 11.179c0 .5-.041 1-.09 1.499h-18.018a6.555 6.555 0 0 0 6.806 5.823 6.67 6.67 0 0 0 5.987-3.276h4.816a11.25 11.25 0 0 1-10.803 7.551c-6.503 0-11.466-5.02-11.466-11.67S106.837 7.42 113.389 7.42c6.814 0 11.343 5.242 11.343 11.72zm-11.343-7.592a6.55 6.55 0 0 0-6.691 5.373h13.448a6.65 6.65 0 0 0-6.757-5.373m-72.666.36-1.722 3.268 11.723 6.178 1.722-3.268z"/><path d="m102.517 17.29-9.387 4.794 1.68 3.29 9.387-4.796z"/></g></g><defs><clipPath id="a"><path fill="#fff" d="M0 0h125v39H0z"/></clipPath></defs></svg>