<svg xmlns="http://www.w3.org/2000/svg" width="150" height="40" fill="none" viewBox="0 0 150 40"><path stroke="#fff" d="M6.5 19c0-2.843.001-4.924.215-6.517.212-1.578.626-2.602 1.396-3.372s1.794-1.184 3.372-1.396C13.076 7.501 15.157 7.5 18 7.5h2c2.843 0 4.924.001 6.517.215 1.578.212 2.602.626 3.372 1.396s1.184 1.794 1.396 3.372c.214 1.593.215 3.674.215 6.517v2c0 2.843-.001 4.924-.215 6.517-.212 1.578-.626 2.602-1.396 3.372s-1.794 1.184-3.372 1.396c-1.593.214-3.674.215-6.517.215h-2c-2.843 0-4.924-.001-6.517-.215-1.578-.212-2.602-.626-3.372-1.396s-1.184-1.794-1.396-3.372C6.501 25.924 6.5 23.843 6.5 21z"/><g filter="url(#a)"><path fill="#fff" d="M23.889 12a3.115 3.115 0 0 0-3.111 3.111v1.333h-3.556v-1.333A3.115 3.115 0 0 0 14.112 12 3.115 3.115 0 0 0 11 15.111a3.115 3.115 0 0 0 3.111 3.111h1.333v3.556h-1.333A3.115 3.115 0 0 0 11 24.888 3.115 3.115 0 0 0 14.111 28a3.115 3.115 0 0 0 3.111-3.111v-1.333h3.556v1.333A3.115 3.115 0 0 0 23.888 28 3.115 3.115 0 0 0 27 24.889a3.115 3.115 0 0 0-3.111-3.111h-1.333v-3.556h1.333A3.115 3.115 0 0 0 27 15.112 3.115 3.115 0 0 0 23.889 12m-1.333 4.444v-1.333c0-.738.595-1.333 1.333-1.333s1.333.595 1.333 1.333-.595 1.333-1.333 1.333zm-8.445 0a1.33 1.33 0 0 1-1.333-1.333c0-.738.595-1.333 1.333-1.333s1.333.595 1.333 1.333v1.333zm3.111 5.334v-3.556h3.556v3.556zm6.667 4.444a1.33 1.33 0 0 1-1.333-1.333v-1.333h1.333c.738 0 1.333.595 1.333 1.333s-.595 1.333-1.333 1.333m-9.778 0a1.33 1.33 0 0 1-1.333-1.333 1.33 1.33 0 0 1 1.333-1.333h1.333v1.333a1.33 1.33 0 0 1-1.333 1.333"/></g><path fill="#fff" d="M43 10.96h3.648v13.968h7.848V28H43zm15.885 17.328q-2.04 0-3.288-.936-1.224-.936-1.224-2.568 0-1.656 1.032-2.592 1.032-.96 3.192-1.392l4.152-.816q0-2.52-2.208-2.52-1.992 0-2.352 1.848l-3.6-.168q.36-2.112 1.896-3.192 1.536-1.104 4.056-1.104 2.88 0 4.344 1.368t1.464 4.008v4.392q0 .528.168.72t.552.192h.36V28q-.48.144-1.296.144-2.4 0-2.808-2.088-.504 1.032-1.68 1.632-1.152.6-2.76.6m.864-2.472q1.368 0 2.184-.792t.816-2.16v-.624l-2.928.624q-1.752.36-1.752 1.584 0 .648.432 1.008t1.248.36m7.953-10.68h3.24l.072 2.112q1.008-2.4 3.816-2.4 2.064 0 3.216 1.32 1.152 1.296 1.152 3.552V28h-3.6v-7.08q0-1.632-.456-2.424-.432-.792-1.512-.792-1.128 0-1.728.84t-.6 2.376V28h-3.6zm18.255 16.752q-2.64 0-4.127-.96-1.488-.96-1.945-2.64l3.697-.264q.216.672.744 1.008.552.336 1.632.336 2.663 0 2.663-2.568v-1.368q-.48.912-1.487 1.44-.984.528-2.233.528-1.584 0-2.807-.768-1.224-.768-1.92-2.184-.673-1.44-.673-3.312 0-1.824.672-3.24.697-1.44 1.897-2.232 1.224-.816 2.784-.816 1.367 0 2.352.624.984.6 1.511 1.656v-1.992h3.529v11.592q0 2.52-1.704 3.84t-4.585 1.32m-.023-7.152q1.247 0 1.968-.984.743-.984.743-2.712 0-1.632-.743-2.592-.745-.96-1.969-.96-1.272 0-2.016.984-.72.984-.72 2.64t.745 2.64 1.992.984m14.734 3.552q-1.344 0-2.352-.552a4 4 0 0 1-1.536-1.632L96.708 28h-3.432V10.96h3.6v6a4.03 4.03 0 0 1 1.512-1.512q1.008-.6 2.28-.6 1.608 0 2.808.84 1.224.816 1.872 2.352.672 1.512.672 3.528t-.672 3.552q-.648 1.512-1.872 2.352-1.2.816-2.808.816m-1.008-2.76q1.224 0 1.944-1.056t.72-2.904-.72-2.904q-.696-1.056-1.92-1.056-1.32 0-2.064 1.056-.744 1.032-.744 2.904 0 1.848.72 2.904.744 1.056 2.064 1.056m10.678 2.76q-2.04 0-3.288-.936-1.224-.936-1.224-2.568 0-1.656 1.032-2.592 1.032-.96 3.192-1.392l4.152-.816q0-2.52-2.208-2.52-1.992 0-2.352 1.848l-3.6-.168q.36-2.112 1.896-3.192 1.536-1.104 4.056-1.104 2.88 0 4.344 1.368t1.464 4.008v4.392q0 .528.168.72t.552.192h.36V28q-.48.144-1.296.144-2.4 0-2.808-2.088-.504 1.032-1.68 1.632-1.152.6-2.76.6m.864-2.472q1.368 0 2.184-.792t.816-2.16v-.624l-2.928.624q-1.752.36-1.752 1.584 0 .648.432 1.008t1.248.36m13.356 2.472q-2.88 0-4.464-1.176-1.56-1.2-1.704-3.168l3.648-.12q.336 1.92 2.544 1.92.984 0 1.512-.312.528-.336.528-.96 0-.432-.216-.696-.192-.264-.768-.456-.552-.216-1.632-.384-2.04-.336-3.192-.816-1.152-.504-1.632-1.248t-.48-1.896q0-1.896 1.464-3 1.464-1.128 4.248-1.128 2.616 0 4.08 1.2 1.488 1.2 1.728 3.216l-3.6.144q-.12-.96-.72-1.488-.576-.528-1.536-.528-.936 0-1.464.384-.504.384-.504 1.056 0 .696.528 1.056.528.336 1.872.528 2.064.288 3.264.792t1.728 1.272.528 1.92q0 1.848-1.536 2.88-1.536 1.008-4.224 1.008m12.009 0q-1.944 0-3.408-.816a5.87 5.87 0 0 1-2.28-2.352q-.792-1.536-.792-3.552t.792-3.528q.792-1.536 2.256-2.352 1.464-.84 3.408-.84 1.896 0 3.312.84 1.44.84 2.208 2.424.768 1.56.768 3.696v.72h-9.024q.048 1.488.792 2.256t2.04.768q1.872 0 2.4-1.56l3.624.216q-.528 1.92-2.16 3-1.608 1.08-3.936 1.08m2.592-7.968q-.072-1.368-.768-2.088t-1.848-.72q-1.128 0-1.872.744-.72.744-.864 2.064z"/><defs><filter id="a" width="16.451" height="16.451" x="10.775" y="12" color-interpolation-filters="sRGB" filterUnits="userSpaceOnUse"><feFlood flood-opacity="0" result="BackgroundImageFix"/><feColorMatrix in="SourceAlpha" result="hardAlpha" values="0 0 0 0 0 0 0 0 0 0 0 0 0 0 0 0 0 0 127 0"/><feOffset dy=".225"/><feGaussianBlur stdDeviation=".113"/><feComposite in2="hardAlpha" operator="out"/><feColorMatrix values="0 0 0 0 0 0 0 0 0 0 0 0 0 0 0 0 0 0 0.25 0"/><feBlend in2="BackgroundImageFix" result="effect1_dropShadow_641_2"/><feBlend in="SourceGraphic" in2="effect1_dropShadow_641_2" result="shape"/></filter></defs></svg>