<svg xmlns="http://www.w3.org/2000/svg" width="176" height="41" fill="none" viewBox="0 0 176 41"><mask id="a" width="176" height="41" x="0" y="0" maskUnits="userSpaceOnUse" style="mask-type:luminance"><path fill="#fff" d="M0 0h175.33v41H0z"/></mask><g fill="#fff" mask="url(#a)"><path d="M42.1 10.52v19.5h9.87V32H39.94V10.52zM56.99 32H54.8l7.89-21.48h2.67L73.34 32h-2.25l-2.1-5.7h-9.9zm6.75-18.45-3.99 10.86h8.55l-4.02-10.86c-.09-.3-.24-.66-.27-.87-.03.18-.15.57-.27.87M79.686 32h-2.16V10.52h2.19l11.82 17.88V10.52h2.13V32h-2.13l-11.85-17.88zm18.177-19.5v-1.98h15.39v1.98h-6.63V32h-2.16V12.5zM130.296 32h-12.87V10.52h12.84v1.98h-10.68v7.74h9.69v1.95h-9.69v7.83h10.71zm7.746 0h-2.16V10.52h8.01c4.35 0 6.99 2.4 6.99 6.21 0 3.09-1.62 5.25-4.38 6l4.59 9.27h-2.4l-4.38-8.91h-6.27zm0-19.53v8.67h5.91c2.97 0 4.71-1.62 4.71-4.35 0-2.79-1.83-4.32-4.77-4.32zM158.431 32h-2.16V10.52h2.19l11.82 17.88V10.52h2.13V32h-2.13l-11.85-17.88zM9.71 11.337l13.694 3.475c.315.08.54.36.54.675l.018 13.388c0 .288.342.45.576.279l2.206-1.594a.7.7 0 0 0 .288-.558l-.01-6.887c-.008-4.358-3.042-8.157-7.409-9.264l-7.22-1.828a.73.73 0 0 0-.612.117l-2.197 1.593a.338.338 0 0 0 .126.604"/><path d="M20.955 22.266c0-3.034-2.125-5.681-5.16-6.455l-6.634-1.684-2.827-.72a.73.73 0 0 0-.612.117L2.93 15.55.32 17.44a.7.7 0 0 0-.288.557l.009 6.889c0 4.357 3.043 8.165 7.4 9.264l7.22 1.828a.73.73 0 0 0 .613-.117l2.79-2.026 2.611-1.89a.7.7 0 0 0 .289-.56V28.64zm-3.07-2.386.009 7.428c0 .288-.28.494-.568.422L9.71 25.804a.71.71 0 0 1-.54-.675L9.16 17.7c0-.288.28-.495.568-.424l7.616 1.927c.316.08.54.36.54.675zm-.55 13.775L3.651 30.188a.71.71 0 0 1-.54-.677l-.018-13.36c0-.288.279-.495.567-.423l2.026.514c.234.063.405.27.405.504v3.736c.009 4.348 3.043 8.157 7.41 9.264l3.996 1.018c.235.063.406.27.406.503v1.963c0 .288-.28.495-.568.423"/></g></svg>