<svg xmlns="http://www.w3.org/2000/svg" width="874" height="275" fill="none" viewBox="0 0 874 275"><path fill="#fff" d="m300.992 159.492 2.814 18.547c.039 3.22-1.767 8.77-3.482 10.616l-23.377 30.681-.471.536 1.701 6.532c.956 4.097 1.571 4.895.432 14.437l-5.432 33.639-46.754-11.021 4.843-25.772-5.55-14.961a15.1 15.1 0 0 1-.053-10.118l8.037-22.933c-86.768 18.155-97.632-31.492-97.632-31.492l-23.914 23.22.589 34.778-43.207.406-1.532-48.09a35.6 35.6 0 0 1 3.744-15.458l8.534-17.226c-15.511-10.235-17.448-22.749-17.448-22.749-39.058 24.228-44.451 3.22-44.451 3.22l-3.155-9.751s8.434 2.208 15.986-2.151c7.03-4.031 10.167-7.666 8.714-14.027-.956-4.176-4.464-6.087-8.273-6.898-9.771-1.28-16.427 1.29-16.427 1.29s-2.738 5.241-4.738 9.168l-.34.667L.896 74.045C-.61 70.721-.27 66.65 2.309 64.058 20.988 45.315 29.077 33.364 49.195 30.93c0 0 .105-8.325 4.463-15.367 0 0 7.945 1.492 16.152 13.835l24.726 3.992c21.047 3.404 40.118 14.542 53.26 31.336 24.568 31.375 46.388 51.375 97.226 50.027 8.247-.223 16.558 1.243 24.307 4.031 6.322 2.304 13.024 5.72 17.657 10.838 1.794-60.577-81.31-34.202-106.572-79.294C160.427 14.62 198.281 2.094 202.875.72c2.068 20.21 9.66 41.741 65.826 63.679 0 0 57.566 22.199 32.291 95.08z"/><path fill="#fff" fill-rule="evenodd" d="M834.933 103.829c2.103.07 4.203-.184 6.228-.754a2.77 2.77 0 0 0 2.251-2.734 4.6 4.6 0 0 0-2.622-3.833 58 58 0 0 0-6.483-3.36l-8.428-3.834a37.3 37.3 0 0 1-8.427-5.238 27.9 27.9 0 0 1-6.483-7.73 22 22 0 0 1-2.622-11.168 24 24 0 0 1 2.622-11.359 23.5 23.5 0 0 1 7.366-8.356 35.7 35.7 0 0 1 11.355-5.11 55 55 0 0 1 14.604-1.866 73.6 73.6 0 0 1 12.404 1.06 47.4 47.4 0 0 1 11.049 3.182l-3.491 21.823a86 86 0 0 0-9.361-2.555 50.7 50.7 0 0 0-10.985-1.189 21.2 21.2 0 0 0-5.908.678c-1.585.46-2.378 1.277-2.378 2.67s.869 2.479 2.621 3.437a57 57 0 0 0 6.612 2.99 204 204 0 0 1 8.555 3.616 41.5 41.5 0 0 1 8.542 5.11 26.1 26.1 0 0 1 6.739 7.807 22.77 22.77 0 0 1 2.558 11.347 26 26 0 0 1-2.443 11.346 23.8 23.8 0 0 1-7.11 8.726 34 34 0 0 1-11.509 5.609 56 56 0 0 1-15.716 2.006q-3.837 0-7.75-.383a92 92 0 0 1-7.417-.997 64 64 0 0 1-6.496-1.431 36 36 0 0 1-4.923-1.686l3.12-22.437a43 43 0 0 0 5.256 1.802 76 76 0 0 0 6.049 1.431c2.084.409 4.194.754 6.394 1.009 2.067.24 4.146.363 6.227.371M659.842 73.521a24 24 0 0 0 1.112-7.347 28.8 28.8 0 0 0-2.43-12.47 19.9 19.9 0 0 0-7.365-8.293 34.6 34.6 0 0 0-12.354-4.613 93.3 93.3 0 0 0-17.532-1.443q-8.772.012-15.934.32-7.16.306-12.788.804v84.418h26.855V95.599h4.489l11.982 29.388h29.08l-17.724-36.415v-.243a19.5 19.5 0 0 0 5.115-3.309 26 26 0 0 0 4.437-5.11 25.5 25.5 0 0 0 3.057-6.39m-36.6 1.75h-3.836l-.025-15.09h7.11a8.4 8.4 0 0 1 4.987 1.495c1.419.997 2.123 2.875 2.123 5.865s-1.036 5.034-3.121 6.107a15.35 15.35 0 0 1-7.238 1.623m-220.617 27.101V39.764h-27.2v85.172h58.045l1.125-22.564zm66.024-40.44h30.576l1.177-22.168h-58.965v85.133h59.259l1.279-22.321h-33.326v-9.851h27.545l1.279-22.066h-28.824zm118.057 62.965h-29.412l-3.184-15.089h-17.903l-2.865 15.089h-28.504l22.711-85.133h36.19zm-41.931-63.962-.371 3.987-4.118 24.187h9.988l-4.745-24.187-.498-3.986zm122.049 1.495 1.1-22.666h64.272l-1.126 22.692h-18.197v62.441h-27.046V62.43zm100.333-.498h30.576l1.126-22.168h-58.902v85.133h59.247l1.279-22.321h-33.326v-9.851h27.558l1.279-22.066h-28.837zM407.126 211.82a20.5 20.5 0 0 1-6.24.754 56 56 0 0 1-6.215-.37 78 78 0 0 1-6.394-.997 84 84 0 0 1-6.049-1.444 43 43 0 0 1-5.307-1.801l-3.12 22.449a38 38 0 0 0 4.987 1.61 64 64 0 0 0 6.483 1.431q3.594.639 7.43 1.009 3.837.37 7.673.371a56.4 56.4 0 0 0 15.716-1.993 34.3 34.3 0 0 0 11.51-5.622 23.7 23.7 0 0 0 7.11-8.727 26 26 0 0 0 2.442-11.346 22.8 22.8 0 0 0-2.557-11.346 26 26 0 0 0-6.625-7.666 42 42 0 0 0-8.542-5.175c-3.043-1.367-5.882-2.581-8.542-3.616a57 57 0 0 1-6.701-2.99c-1.675-.958-2.558-2.044-2.558-3.437s.793-2.223 2.379-2.67a21.2 21.2 0 0 1 5.857-.69 50.7 50.7 0 0 1 10.985 1.188 83 83 0 0 1 9.36 2.555l3.491-21.823a47.3 47.3 0 0 0-11.036-3.181 73.7 73.7 0 0 0-12.417-1.061c-4.93-.032-9.842.6-14.603 1.878a35.5 35.5 0 0 0-11.356 5.111 23.4 23.4 0 0 0-7.238 8.433A23.95 23.95 0 0 0 374.427 174a21.95 21.95 0 0 0 2.558 11.155 28.1 28.1 0 0 0 6.483 7.666 37.6 37.6 0 0 0 8.428 5.238l8.427 3.834a57 57 0 0 1 6.483 3.36 4.61 4.61 0 0 1 2.558 3.833 2.77 2.77 0 0 1-2.238 2.734m35.32-40.644 1.112-22.693h64.272l-1.112 22.693h-18.223v62.467H461.41v-62.467zm81.74 53.995q9.272 9.724 28.454 9.724 19.169.064 28.401-9.66 9.233-9.723 9.233-28.314v-48.438h-27.327v50.176a21.64 21.64 0 0 1-2.315 10.477q-2.302 4.23-8.044 4.229a9.87 9.87 0 0 1-4.872-1.111 9.04 9.04 0 0 1-3.197-3.169 13.3 13.3 0 0 1-1.739-4.676 31.7 31.7 0 0 1-.499-5.801v-50.125h-27.328v48.438q-.037 18.528 9.233 28.25m76.242-75.945c4.335-.409 9.029-.703 14.067-.869a473 473 0 0 1 15.601-.255q24.093 0 35.947 10.86t11.855 30.921q0 13.338-3.837 21.938a31.94 31.94 0 0 1-11.1 13.595 46.1 46.1 0 0 1-17.481 6.989 121.3 121.3 0 0 1-23.018 1.993q-7.672 0-13.108-.371-5.435-.37-8.862-.754zm31.075 20.073c-.997 0-1.803 0-2.43.064q-.722.047-1.432.191v43.148c.251.184.56.271.87.243h.882a30.2 30.2 0 0 0 7.609-.933 14.9 14.9 0 0 0 6.394-3.437 17 17 0 0 0 4.36-6.848 33 33 0 0 0 1.625-11.346 30.1 30.1 0 0 0-1.497-10.222 17 17 0 0 0-3.938-6.491 13.7 13.7 0 0 0-5.678-3.36 22.4 22.4 0 0 0-6.765-1.009m54.796 64.344h27.2v-85.16h-27.2zm76.626 1.367a42.9 42.9 0 0 1-18.095-3.59 36.4 36.4 0 0 1-12.865-9.596 40.05 40.05 0 0 1-7.609-13.965 56.95 56.95 0 0 1 .064-33.54 39.9 39.9 0 0 1 7.737-14.055 37.3 37.3 0 0 1 12.788-9.608 42.3 42.3 0 0 1 17.903-3.552 43.4 43.4 0 0 1 18.466 3.616 36.25 36.25 0 0 1 12.724 9.608 38.7 38.7 0 0 1 7.366 13.774 54.6 54.6 0 0 1 2.378 16.022 62.1 62.1 0 0 1-2.558 18.208 38.8 38.8 0 0 1-7.544 14.157 34.05 34.05 0 0 1-12.788 9.225 45.9 45.9 0 0 1-17.967 3.296m0-21.938a10.23 10.23 0 0 0 9.424-5.111q3.043-5.11 3.057-17.083 0-11.346-3.185-16.712a10.2 10.2 0 0 0-3.887-4 10.24 10.24 0 0 0-5.409-1.367 10.47 10.47 0 0 0-9.297 5.111q-3.312 5.111-3.312 17.083 0 12.343 3.12 17.198c1 1.587 2.408 2.877 4.077 3.735a10.5 10.5 0 0 0 5.412 1.146m80.985-1.252a20.5 20.5 0 0 1-6.24.754 56 56 0 0 1-6.202-.37 77 77 0 0 1-6.394-.997 84 84 0 0 1-6.062-1.444 44 44 0 0 1-5.307-1.801l-3.069 22.526c1.601.67 3.246 1.23 4.924 1.673a64 64 0 0 0 6.496 1.431c2.366.422 4.795.767 7.417 1.01a84 84 0 0 0 7.737.37 56.5 56.5 0 0 0 15.729-1.993 34.3 34.3 0 0 0 11.509-5.622 23.84 23.84 0 0 0 7.11-8.726 26 26 0 0 0 2.43-11.346 22.65 22.65 0 0 0-2.622-11.347 26 26 0 0 0-6.611-7.666 42 42 0 0 0-8.543-5.174c-3.043-1.368-5.895-2.581-8.555-3.616a56 56 0 0 1-6.611-2.99c-1.752-.959-2.622-2.045-2.622-3.437 0-1.393.793-2.223 2.366-2.671a21.4 21.4 0 0 1 5.87-.69 50.7 50.7 0 0 1 10.985 1.189 84 84 0 0 1 9.36 2.555l3.492-21.823a47.6 47.6 0 0 0-11.049-3.182 74 74 0 0 0-12.417-1.06 55 55 0 0 0-14.604 1.814 35.7 35.7 0 0 0-11.356 5.111 23.54 23.54 0 0 0-7.366 8.356A24.1 24.1 0 0 0 811.148 174a22.1 22.1 0 0 0 2.557 11.155 27.9 27.9 0 0 0 6.497 7.666 37.3 37.3 0 0 0 8.427 5.238l8.414 3.834a59 59 0 0 1 6.497 3.36 4.61 4.61 0 0 1 2.621 3.833 2.78 2.78 0 0 1-.635 1.77 2.78 2.78 0 0 1-1.616.964" clip-rule="evenodd"/></svg>