<svg xmlns="http://www.w3.org/2000/svg" width="180" height="40" fill="none" viewBox="0 0 180 40"><g fill="#fff9f9" clip-path="url(#a)"><path d="M6.083 9.21h30.415c1.613 0 3.16.647 4.301 1.798a6.17 6.17 0 0 1 1.782 4.342v9.21a6.17 6.17 0 0 1-1.782 4.342 6.05 6.05 0 0 1-4.301 1.798H6.083a6.05 6.05 0 0 1-4.301-1.798A6.17 6.17 0 0 1 0 24.56v-9.21c0-1.628.64-3.19 1.782-4.342A6.05 6.05 0 0 1 6.083 9.21m0 3.07a3.02 3.02 0 0 0-2.15.9 3.1 3.1 0 0 0-.892 2.17v9.21c0 .814.32 1.595.891 2.17.57.577 1.344.9 2.151.9h30.415c.806 0 1.58-.323 2.15-.9.57-.575.891-1.356.891-2.17v-9.21c0-.814-.32-1.595-.89-2.17a3.03 3.03 0 0 0-2.151-.9zM0 1.535C0 1.128.16.737.445.45.731.162 1.117 0 1.521 0H41.06c.403 0 .79.162 1.075.45a1.54 1.54 0 0 1 0 2.17c-.285.288-.672.45-1.075.45H1.52c-.403 0-.79-.162-1.075-.45A1.54 1.54 0 0 1 0 1.535m0 36.84c0-.407.16-.797.445-1.085s.672-.45 1.076-.45H41.06c.403 0 .79.162 1.075.45a1.54 1.54 0 0 1 0 2.17c-.285.288-.672.45-1.075.45H1.52c-.403 0-.79-.162-1.075-.45A1.54 1.54 0 0 1 0 38.375m53.809-6.762V8.153h2.84v20.94h10.906v2.52zm24.927.367q-2.383 0-4.182-1.135-1.787-1.134-2.795-3.173-.996-2.04-.996-4.765 0-2.75.996-4.8 1.008-2.05 2.795-3.185 1.799-1.134 4.182-1.134 2.381 0 4.17 1.134 1.797 1.134 2.794 3.185 1.008 2.05 1.008 4.8 0 2.726-1.008 4.765-.997 2.04-2.795 3.173-1.787 1.134-4.17 1.134m0-2.43q1.81 0 2.977-.927 1.17-.928 1.73-2.44.561-1.512.561-3.276 0-1.765-.56-3.288-.562-1.524-1.73-2.463-1.17-.94-2.978-.94-1.81 0-2.98.94-1.168.939-1.729 2.463-.561 1.523-.561 3.288 0 1.763.561 3.276t1.73 2.44q1.17.927 2.978.927m19.203 9.028q-1.958 0-3.367-.504-1.41-.492-2.349-1.306-.927-.801-1.478-1.718l2.154-1.512q.366.48.927 1.1.563.63 1.536 1.088.986.47 2.577.47 2.13 0 3.517-1.031 1.386-1.032 1.386-3.23v-3.575h-.229q-.298.48-.848 1.191-.537.7-1.558 1.25-1.007.538-2.726.538-2.13 0-3.826-1.009-1.684-1.009-2.67-2.932-.972-1.925-.973-4.674 0-2.703.951-4.708.951-2.016 2.646-3.116 1.695-1.11 3.918-1.11 1.718 0 2.726.572 1.02.561 1.558 1.283.55.71.848 1.168h.275v-2.795h2.612v18.1q0 2.268-1.032 3.688-1.018 1.433-2.749 2.096-1.717.676-3.826.676m-.091-9.668q1.626 0 2.749-.745 1.122-.744 1.707-2.142.584-1.397.584-3.345 0-1.9-.573-3.356-.572-1.455-1.695-2.28t-2.772-.824q-1.719 0-2.864.87-1.134.87-1.707 2.337-.561 1.467-.562 3.253 0 1.833.573 3.242.585 1.398 1.718 2.2 1.146.79 2.842.79m20.253 2.704h-7.24V8.153h7.56q3.414 0 5.842 1.408 2.429 1.398 3.724 4.021 1.294 2.611 1.294 6.255 0 3.666-1.306 6.311-1.305 2.636-3.803 4.056-2.498 1.41-6.071 1.409m-4.399-2.52h4.215q2.91 0 4.823-1.123t2.852-3.196.94-4.937q0-2.841-.928-4.892-.928-2.061-2.772-3.161-1.845-1.112-4.594-1.112H113.7zm19.977 2.519V14.017h2.613v2.658h.183q.481-1.305 1.741-2.12 1.26-.813 2.841-.813.298 0 .744.012.448.011.676.034v2.75a8 8 0 0 0-.63-.104q-.48-.08-1.019-.08-1.284 0-2.291.538a4.05 4.05 0 0 0-1.581 1.467q-.573.927-.573 2.119v11.134zm18.615.368q-2.382 0-4.18-1.135-1.788-1.134-2.796-3.173-.996-2.04-.997-4.765 0-2.75.997-4.8 1.008-2.05 2.796-3.185 1.798-1.134 4.18-1.134 2.383 0 4.171 1.134 1.797 1.134 2.794 3.185 1.009 2.05 1.008 4.8 0 2.726-1.008 4.765-.996 2.04-2.794 3.173-1.788 1.134-4.171 1.134m0-2.43q1.81 0 2.979-.927 1.168-.928 1.73-2.44.561-1.512.561-3.276 0-1.765-.561-3.288-.562-1.524-1.73-2.463t-2.979-.94-2.978.94-1.73 2.463q-.561 1.523-.561 3.288 0 1.763.561 3.276.562 1.512 1.73 2.44 1.169.927 2.978.927m12.1 8.661V14.018h2.612v2.795h.321q.297-.458.825-1.168.537-.722 1.535-1.283 1.008-.573 2.726-.573 2.222 0 3.917 1.111 1.696 1.111 2.647 3.15.95 2.04.951 4.812 0 2.794-.951 4.845-.95 2.04-2.635 3.162-1.684 1.11-3.883 1.111-1.697 0-2.715-.561-1.02-.573-1.57-1.295a17 17 0 0 1-.847-1.214h-.23v9.302zm2.658-15.395q0 1.992.584 3.517.583 1.512 1.707 2.37 1.123.848 2.749.848 1.696 0 2.829-.893 1.146-.905 1.719-2.428.584-1.536.584-3.414 0-1.855-.573-3.345-.561-1.5-1.706-2.371-1.136-.882-2.853-.882-1.65 0-2.772.836-1.122.825-1.695 2.314-.573 1.477-.573 3.448"/></g><defs><clipPath id="a"><path fill="#fff" d="M0 0h180v40H0z"/></clipPath></defs></svg>