<svg xmlns="http://www.w3.org/2000/svg" width="185" height="40" fill="none" viewBox="0 0 185 40"><path fill="#000" fill-opacity=".3" d="M0 10.086 17.23.174v39.653L0 29.913z" style="mix-blend-mode:screen"/><path fill="#000" fill-opacity=".3" d="M17.23 39.828 0 29.914 17.23 20l17.229 9.914z" style="mix-blend-mode:screen"/><path fill="#000" fill-opacity=".3" d="M17.23 39.828 0 29.914 17.23 20l17.229 9.914z" style="mix-blend-mode:screen"/><path fill="#000" fill-opacity=".3" d="M0 10.086 17.23.174v39.653L0 29.913z" style="mix-blend-mode:screen"/><path fill="#fff" fill-opacity=".3" d="M17.23 39.828 0 29.914 17.23 20l17.229 9.914z" style="mix-blend-mode:screen"/><path fill="#fff" fill-opacity=".3" d="M0 10.086 17.23.174v39.653L0 29.913z" style="mix-blend-mode:screen"/><path fill="#fff" d="M56.078 39.394V0h8.956v32.397h16.088v6.997zM92.057 40c-5.639 0-9.84-3.306-9.84-10.854V10.578h7.96v17.466c0 3.912 1.604 5.785 5.032 5.785 3.372 0 6.026-2.094 6.026-6.336V10.578h7.961v28.816h-7.961v-4.518C99.742 37.796 96.812 40 92.057 40m20.915-.607V10.577h8.016v4.408c1.437-2.7 4.533-5.069 8.846-5.069 3.814 0 6.689 1.598 8.071 5.014 2.322-3.471 6.082-5.014 9.731-5.014 5.362 0 9.509 3.36 9.509 11.02v18.457h-7.962V21.817c0-3.691-1.658-5.344-4.533-5.344-3.096 0-5.584 1.983-5.584 5.895v17.025h-7.961V21.817c0-3.691-1.713-5.344-4.533-5.344-3.096 0-5.584 1.983-5.584 5.895v17.025zm55.498.606c-5.252 0-9.675-2.535-9.675-8.595 0-6.722 6.192-9.256 15.037-9.256h3.262V20.99c0-3.416-1.05-5.289-4.699-5.289-3.151 0-4.589 1.598-4.92 4.077h-7.574c.497-6.832 5.915-9.862 12.992-9.862 7.076 0 12.107 2.865 12.107 10.689v18.788h-7.795V35.92c-1.659 2.316-4.202 4.08-8.735 4.08m2.377-5.565c3.538 0 6.247-1.928 6.247-5.124v-2.424h-3.096c-4.644 0-7.353.992-7.353 4.077 0 2.094 1.272 3.47 4.202 3.47"/></svg>