<svg xmlns="http://www.w3.org/2000/svg" width="149" height="33" fill="none" viewBox="0 0 149 33"><g fill="#f9f9f9" clip-path="url(#a)"><path d="M9.599 26.287 5.05 14.06v12.227H0V5.082h6.586l5.346 14.383 5.316-14.383h6.586v21.205h-5.05V13.912l-4.578 12.375zm27.267 0V24.75a5.06 5.06 0 0 1-1.92 1.388q-1.092.444-2.628.443-2.481 0-4.017-1.358-1.506-1.389-1.506-3.633 0-2.333 1.831-3.544 1.831-1.24 5.228-1.24.65 0 1.24.059.59.03 1.093.118v-.768q0-1.034-.59-1.595-.562-.561-1.625-.561-1.034 0-1.654.561-.591.561-.738 1.595h-4.55q.148-1.86 1.064-3.22a6 6 0 0 1 2.421-2.126q1.536-.768 3.485-.768 3.279 0 5.11 1.684 1.83 1.683 1.83 4.696v9.805zm-5.316-4.844q0 .768.502 1.211.532.444 1.447.443 1.27 0 1.98-.56.708-.562.708-1.537v-1.004a7 7 0 0 0-1.034-.147 8 8 0 0 0-.974-.06q-1.27 0-1.95.414-.68.415-.679 1.24m19.627 10.839q-2.185 0-3.868-.768-1.684-.738-2.659-2.126t-1.063-3.22h4.903q.147 1.064.797 1.625.68.561 1.86.561 1.419 0 2.127-.738.74-.737.739-2.186v-1.86q-.62.885-1.684 1.388-1.063.502-2.362.502-1.92 0-3.486-1.004-1.565-1.035-2.48-2.776-.915-1.743-.916-3.899 0-2.244.857-3.957.855-1.743 2.362-2.717 1.507-1.005 3.456-1.005 1.506 0 2.628.473 1.123.443 2.038 1.447v-1.624h4.637V25.37q0 3.22-2.126 5.05-2.097 1.861-5.76 1.861M48.194 17.81q0 1.476.768 2.362.769.886 2.038.886.886 0 1.536-.413.679-.414 1.034-1.152.384-.738.384-1.713 0-1.476-.827-2.363-.797-.915-2.127-.915-1.27 0-2.038.915-.768.887-.768 2.393m19.231 8.477h-5.05v-15.89h5.05zm10.314.295q-2.364 0-4.165-1.033a7.64 7.64 0 0 1-2.835-2.924q-1.005-1.86-1.004-4.283 0-2.363 1.034-4.223a7.85 7.85 0 0 1 2.864-2.924q1.832-1.093 4.106-1.093 2.185 0 3.928.945a7.57 7.57 0 0 1 2.835 2.57q1.093 1.653 1.3 3.869h-5.376q-.06-1.3-.797-2.068-.71-.767-1.86-.768-.888 0-1.507.444-.621.442-.975 1.27-.325.796-.325 1.978t.325 2.038q.325.827.945 1.27.65.414 1.536.414 1.182 0 1.86-.739.71-.767.798-2.126h5.375q-.206 2.274-1.27 3.928a7.34 7.34 0 0 1-2.805 2.57q-1.713.885-3.987.885m16.805-.295h-5.05V14.798H86.54v-4.4h2.953v-.562q0-2.451 1.33-3.78 1.328-1.329 3.986-1.329.856 0 1.566.148a7 7 0 0 1 1.3.384v3.987a2.4 2.4 0 0 0-.74-.207 4.4 4.4 0 0 0-.856-.089q-.65 0-1.092.237-.444.206-.443.768v.443h3.898v4.4h-3.898zm10.957 0h-5.11V5.08h5.11zm10.604.295q-1.772 0-3.278-.62a8.4 8.4 0 0 1-2.629-1.772 8.8 8.8 0 0 1-1.772-2.629 8.4 8.4 0 0 1-.62-3.219q0-1.713.62-3.19a8.4 8.4 0 0 1 1.772-2.628 7.75 7.75 0 0 1 2.629-1.772q1.506-.65 3.278-.65t3.278.65a7.75 7.75 0 0 1 2.629 1.772 8 8 0 0 1 1.742 2.629q.65 1.476.65 3.19a8 8 0 0 1-.65 3.218 8.4 8.4 0 0 1-1.742 2.629 8.4 8.4 0 0 1-2.629 1.772q-1.506.62-3.278.62m0-4.518q.798 0 1.477-.414.708-.414 1.122-1.24.443-.827.443-2.068 0-1.24-.443-2.067-.414-.827-1.122-1.211a2.8 2.8 0 0 0-1.477-.414q-.768 0-1.477.414-.708.384-1.152 1.21-.413.828-.413 2.068t.413 2.068q.444.826 1.152 1.24.71.414 1.477.414m23.09 4.223-2.452-9.008-2.451 9.008h-5.05l-4.46-15.89h4.932l2.215 8.713 2.333-8.712h5.051l2.215 8.712 2.215-8.712h4.961l-4.489 15.889zM67.417 9.382c-.285-.173-.47-.242-.615-.38-1.221-1.162-2.597-1.32-4.062-1.18-.92.087-1.88.094-2.78-.133-2.407-.607-3.732-2.795-4.562-5.575-.247-.823-.123-1.168.57-1.222 1.296-.1 2.617-.215 3.896-.001 1.415.236 2.862.624 4.173 1.324 2.083 1.112 3.07 3.419 3.376 6.226.028.257.004.524.004.941"/></g><defs><clipPath id="a"><path fill="#fff" d="M0 0h149v33H0z"/></clipPath></defs></svg>