<svg xmlns="http://www.w3.org/2000/svg" width="193" height="40" fill="none" viewBox="0 0 193 40"><g fill="#f7f5ee" clip-path="url(#a)"><path d="M43.64 18.998c-.655 0-1.29-.13-1.885-.38a4.87 4.87 0 0 1-2.58-2.58 4.7 4.7 0 0 1-.37-1.58 4.877 4.877 0 0 0-4.864-4.58 4.88 4.88 0 0 0-4.865 4.585 4.9 4.9 0 0 1-.37 1.58 4.87 4.87 0 0 1-2.58 2.58c-.594.255-1.23.38-1.884.38-.655 0-1.29-.13-1.885-.38a4.87 4.87 0 0 1-2.58-2.58 4.7 4.7 0 0 1-.37-1.58 4.877 4.877 0 0 0-4.864-4.58 4.877 4.877 0 0 0-4.864 4.58 4.9 4.9 0 0 1-.37 1.58 4.87 4.87 0 0 1-2.58 2.58c-.595.255-1.23.38-1.885.38s-1.29-.13-1.884-.38a4.87 4.87 0 0 1-2.58-2.58A4.8 4.8 0 0 1 0 14.158c0-.655.13-1.29.38-1.884a4.87 4.87 0 0 1 2.58-2.58 4.8 4.8 0 0 1 1.88-.38 4.876 4.876 0 0 0 4.864-4.675c.025-.58.15-1.144.375-1.68A4.87 4.87 0 0 1 12.659.38 4.8 4.8 0 0 1 14.542 0c.655 0 1.29.13 1.885.38a4.87 4.87 0 0 1 2.58 2.58c.215.505.34 1.035.37 1.58a4.873 4.873 0 0 0 9.729 0c.034-.546.16-1.075.37-1.58A4.87 4.87 0 0 1 32.055.38 4.8 4.8 0 0 1 33.941 0c.655 0 1.29.13 1.884.38a4.87 4.87 0 0 1 2.58 2.58c.225.535.355 1.1.375 1.68a4.876 4.876 0 0 0 4.865 4.674c.65 0 1.284.13 1.88.38a4.87 4.87 0 0 1 2.579 2.58c.255.594.38 1.23.38 1.884 0 .655-.13 1.29-.38 1.885a4.87 4.87 0 0 1-2.58 2.58 4.8 4.8 0 0 1-1.885.375M33.94 39.995a4.8 4.8 0 0 1-1.884-.38 4.87 4.87 0 0 1-2.58-2.58 4.7 4.7 0 0 1-.37-1.58 4.877 4.877 0 0 0-4.864-4.58 4.88 4.88 0 0 0-4.864 4.585 4.9 4.9 0 0 1-.37 1.58 4.87 4.87 0 0 1-2.58 2.58c-.595.255-1.23.38-1.885.38s-1.29-.13-1.885-.38a4.87 4.87 0 0 1-2.58-2.58 4.7 4.7 0 0 1-.374-1.68 4.876 4.876 0 0 0-4.865-4.674c-.65 0-1.284-.13-1.88-.38a4.87 4.87 0 0 1-2.579-2.58A4.8 4.8 0 0 1 0 25.841c0-.655.13-1.29.38-1.884a4.87 4.87 0 0 1 2.58-2.58 4.8 4.8 0 0 1 1.884-.38c.655 0 1.29.13 1.885.38a4.87 4.87 0 0 1 2.58 2.58c.215.505.34 1.035.37 1.58a4.873 4.873 0 0 0 9.729 0c.035-.545.16-1.075.37-1.58a4.87 4.87 0 0 1 2.58-2.58 4.8 4.8 0 0 1 1.884-.38c.655 0 1.29.13 1.885.38a4.87 4.87 0 0 1 2.58 2.58c.214.505.34 1.035.37 1.58a4.873 4.873 0 0 0 9.729 0c.034-.545.16-1.075.37-1.58a4.87 4.87 0 0 1 2.579-2.58 4.8 4.8 0 0 1 1.884-.38c.655 0 1.29.13 1.885.38a4.87 4.87 0 0 1 2.58 2.58c.255.595.38 1.23.38 1.884 0 .655-.13 1.29-.38 1.885a4.87 4.87 0 0 1-2.58 2.58 4.8 4.8 0 0 1-1.88.38 4.876 4.876 0 0 0-4.864 4.674 4.9 4.9 0 0 1-.375 1.68 4.87 4.87 0 0 1-2.58 2.58 4.8 4.8 0 0 1-1.884.375M73.856 5.844 81.7 26.626l7.599-20.782h7.804v28.301h-5.784V15.183l-7.36 18.962H79.03l-7.359-18.962v18.962h-5.784V5.844zm47.754 28.302h-5.054l-.485-2.91q-2.466 3.115-6.469 3.115-2.752.001-4.935-1.294-2.183-1.297-3.414-3.72c-.82-1.615-1.235-3.49-1.235-5.62q-.001-3.156 1.235-5.579c.82-1.62 1.969-2.864 3.434-3.74q2.204-1.312 4.955-1.314 2.099 0 3.719.81 1.62.809 2.67 2.225l.565-2.75h5.014zm-5.619-10.348q-.001-2.706-1.375-4.37c-.915-1.105-2.145-1.66-3.68-1.66q-2.303.001-3.699 1.66-1.395 1.656-1.395 4.37 0 2.67 1.395 4.304c.93 1.09 2.165 1.64 3.699 1.64 1.535 0 2.765-.545 3.68-1.64q1.374-1.635 1.375-4.304m29.635-.931v11.278h-5.698V23.192q.001-5.379-4.205-5.38-2.226.001-3.434 1.495-1.215 1.499-1.215 4.205v10.633h-5.7V13.363h4.975l.525 2.59a7.7 7.7 0 0 1 2.63-2.08q1.536-.75 3.799-.75 3.637 0 5.985 2.265c1.558 1.51 2.338 4 2.338 7.479m9.179-15.323v5.824h4.73v4.81h-4.73v9.098q0 1.095.465 1.575.466.486 1.555.485h2.95v4.81h-4.73q-5.945.001-5.944-5.945V7.544zm13.264-1.7v28.301h-5.699V5.844zm7.863 8.594c1.575-.875 3.405-1.315 5.48-1.315 2.105 0 3.954.41 5.559 1.235q2.409 1.23 3.76 3.48 1.358 2.242 1.395 5.274-.001 1.094-.16 1.94h-15.084v.16c.135 1.51.62 2.694 1.455 3.56.835.859 1.98 1.294 3.435 1.294q1.742 0 2.889-.75 1.155-.75 1.515-2.205h5.62a8.2 8.2 0 0 1-1.575 3.72q-1.252 1.657-3.315 2.61-2.06.95-4.729.95-3.479.001-6.005-1.295c-1.683-.865-2.978-2.095-3.878-3.7q-1.356-2.406-1.355-5.6.001-3.231 1.315-5.639a9.2 9.2 0 0 1 3.678-3.72m8.934 3.96q-1.273-1.03-3.214-1.03-1.86-.001-3.135 1.07c-.85.714-1.355 1.68-1.515 2.889h9.419q-.279-1.896-1.555-2.93"/></g><defs><clipPath id="a"><path fill="#fff" d="M0 0h192.5v40H0z"/></clipPath></defs></svg>