<svg xmlns="http://www.w3.org/2000/svg" width="114" height="34" fill="none" viewBox="0 0 114 34"><g clip-path="url(#a)"><path stroke="#fff" stroke-width="1.16" d="M16.653 31.096c7.786 0 14.097-6.312 14.097-14.097S24.439 2.902 16.653 2.902 2.557 9.214 2.557 17s6.31 14.097 14.096 14.097Z"/><path stroke="#fff" stroke-width="1.16" d="M9.968 23.685c5.505 5.505 12.96 6.974 16.653 3.282s2.223-11.148-3.282-16.653C17.834 4.807 10.378 3.338 6.685 7.03c-3.692 3.694-2.222 11.15 3.283 16.655Zm.93-6.635h11.585m-8.735 2.943 5.886-5.886m-.001 5.886-5.886-5.886"/><path fill="#fff" fill-rule="evenodd" d="M7.009 10.796C4.562 12.437 3.137 14.642 3.137 17s1.425 4.562 3.872 6.203c2.443 1.64 5.85 2.671 9.644 2.671s7.202-1.032 9.645-2.67c2.447-1.642 3.872-3.846 3.872-6.204s-1.425-4.563-3.872-6.204c-2.443-1.639-5.851-2.67-9.645-2.67s-7.201 1.031-9.644 2.67m-.647-.964c2.66-1.783 6.3-2.867 10.291-2.867s7.632 1.084 10.291 2.867C29.6 11.613 31.33 14.136 31.33 17s-1.73 5.386-4.386 7.167c-2.659 1.784-6.299 2.868-10.29 2.868-3.993 0-7.633-1.084-10.292-2.868-2.655-1.78-4.385-4.304-4.385-7.167 0-2.864 1.73-5.387 4.385-7.168" clip-rule="evenodd"/><path fill="#fff" d="M43.624 11.554h2.29v2.45c.623-1.825 2.08-2.727 3.837-2.727 1.803 0 3.398.97 4.069 2.959.647-1.988 2.265-2.96 4.091-2.96 2.405 0 4.416 1.665 4.416 5.156v8.069h-2.312v-7.884c0-1.988-.901-3.329-2.82-3.329-2.08 0-3.052 1.55-3.052 3.676V24.5h-2.312v-7.884c0-1.988-.901-3.329-2.843-3.329-2.08 0-3.052 1.55-3.052 3.676V24.5h-2.312zm20.804 9.733c0-1.757 1.133-3.075 3.19-3.722l4.347-1.41c-.115-1.988-1.063-2.774-2.936-2.774-1.087 0-2.266.254-3.953.901v-2.22c1.456-.461 2.89-.785 4.23-.785 3.445 0 4.97 2.15 4.97 5.248V24.5h-2.265v-1.896c-.716 1.34-2.103 2.173-3.814 2.173-2.358 0-3.769-1.526-3.769-3.49m2.335-.185c0 1.04.833 1.826 2.104 1.826 1.572 0 3.098-1.179 3.098-2.936V18.05l-3.445 1.11c-1.202.37-1.757 1.064-1.757 1.942m13.169 3.676c-.925 0-2.012-.162-3.306-.67V21.91c1.248.555 2.38.81 3.306.81 1.48 0 2.126-.74 2.126-1.665 0-1.064-.855-1.503-2.15-2.104-1.64-.763-3.49-1.572-3.49-3.953 0-2.196 1.595-3.722 4.438-3.722.902 0 1.965.139 3.19.508v2.15c-1.178-.37-2.288-.6-3.19-.6-1.456 0-2.103.74-2.103 1.618 0 .97.855 1.364 2.126 1.965 1.665.763 3.514 1.641 3.514 4.092 0 2.242-1.595 3.768-4.461 3.768m11.673-.139c-2.59 0-3.7-1.225-3.7-3.699v-7.305h-1.964v-2.08h1.965V8.941l2.311-.67v3.282h3.376v2.08h-3.376v6.96c0 1.572.486 1.918 1.711 1.918a9.5 9.5 0 0 0 1.665-.162v2.104c-.67.116-1.318.185-1.988.185m4.08-13.085h2.29v3.029c.693-2.011 2.288-3.19 4.6-3.19v2.38c-.254-.022-.486-.046-.74-.046-2.335 0-3.837 1.457-3.837 4.393v6.38h-2.312zm7.846 9.733c0-1.757 1.133-3.075 3.19-3.722l4.346-1.41c-.115-1.988-1.063-2.774-2.936-2.774-1.086 0-2.265.254-3.953.901v-2.22c1.457-.461 2.89-.785 4.231-.785 3.444 0 4.97 2.15 4.97 5.248V24.5h-2.265v-1.896c-.717 1.34-2.104 2.173-3.815 2.173-2.358 0-3.768-1.526-3.768-3.49m2.335-.185c0 1.04.832 1.826 2.104 1.826 1.572 0 3.097-1.179 3.097-2.936V18.05l-3.444 1.11c-1.202.37-1.757 1.064-1.757 1.942"/></g><defs><clipPath id="a"><path fill="#fff" d="M0 0h114v34H0z"/></clipPath></defs></svg>