<svg xmlns="http://www.w3.org/2000/svg" width="111" height="31" fill="none" viewBox="0 0 111 31"><g clip-path="url(#a)"><path fill="#fff" fill-rule="evenodd" d="M7.832 29.74H0V1.26h7.358v3.56C11.25 1.83 14.288.5 17.278.5c2.516 0 5.317 1.092 6.598 4.272C27.864 1.734 30.902.5 33.892.5c3.513 0 7.168 2.136 7.168 8.544V29.74h-7.832V11.798c0-2.374-.997-3.323-2.516-3.323-1.33 0-2.848.854-6.266 3.512v17.754h-7.832V11.798c0-2.374-.997-3.323-2.516-3.323-1.281 0-2.848.854-6.266 3.56zm49.13.76c3.844 0 7.167-1.424 9.73-4.51v3.75h7.453V1.26h-7.452v3.75C64.129 1.924 60.806.5 56.962.5c-7.785 0-14.24 6.693-14.24 15s6.455 15 14.24 15m-7.215-15a8.387 8.387 0 0 1 8.401-8.402A8.387 8.387 0 0 1 66.55 15.5a8.387 8.387 0 0 1-8.402 8.402 8.387 8.387 0 0 1-8.401-8.402m1.946 0c0 3.607 2.895 6.503 6.455 6.503s6.456-2.895 6.456-6.503-2.895-6.503-6.456-6.503c-3.56 0-6.455 2.896-6.455 6.503m23.829 14.24h9.446a62.4 62.4 0 0 1 7.642-9.968c2.849 3.086 5.222 6.361 7.453 9.969h9.541c-3.275-4.984-6.836-9.731-11.108-14.43 4.225-4.51 7.833-9.162 11.108-14.051h-9.351c-2.326 3.607-4.842 6.645-7.642 9.636-2.849-2.99-5.365-6.029-7.643-9.636h-9.446c3.228 5.03 6.883 9.54 11.155 14.05-4.272 4.7-7.927 9.59-11.155 14.43" clip-rule="evenodd"/></g><defs><clipPath id="a"><path fill="#fff" d="M0 .5h109.604v30H0z"/></clipPath></defs></svg>