<svg xmlns="http://www.w3.org/2000/svg" width="167" height="40" fill="none" viewBox="0 0 167 40"><path fill="url(#a)" d="M36.445 0H3.554A3.556 3.556 0 0 0 0 3.556v32.888A3.556 3.556 0 0 0 3.556 40h32.888A3.556 3.556 0 0 0 40 36.444V3.557A3.556 3.556 0 0 0 36.444 0"/><path fill="#111" d="M16.66 12.45c.327-.747 1.44-.513 1.44.303v15.245H6.085c-.723 0-1.029-.924-.449-1.358l.8-.598a30.13 30.13 0 0 0 9.552-12.057zm6.68 0c-.326-.747-1.439-.513-1.439.303v15.245h12.013c.723 0 1.029-.924.45-1.358l-.8-.598a30.1 30.1 0 0 1-9.553-12.057z"/><path fill="#111" d="M17.4 24.043h5.355v3.956H17.4z"/><path fill="#fff" d="M53.333 30.942V7.338h4.875l7.23 18.042h.114l7.23-18.042h4.875v23.604h-3.795v-16.8h-1.946l4.302-6.15-9.291 22.95h-2.863l-9.291-22.95 4.302 6.15h-1.947v16.8zm27.866-.002V13.603h4.073V30.94zm2.028-19.825a2.18 2.18 0 0 1-1.603-.654 2.14 2.14 0 0 1-.654-1.57q0-.933.654-1.57a2.18 2.18 0 0 1 1.603-.655q.965 0 1.62.654.654.639.654 1.57 0 .917-.654 1.571t-1.62.654M94.85 31.286q-2.193 0-3.811-1.08-1.604-1.095-2.487-3.124-.867-2.03-.867-4.81v-.016q0-2.797.883-4.81.884-2.027 2.487-3.107 1.603-1.095 3.778-1.096 1.85 0 3.256.9a5.65 5.65 0 0 1 2.159 2.437h.098V7.338h4.057v23.604h-4.057v-2.944h-.098a5.74 5.74 0 0 1-2.127 2.42q-1.39.868-3.271.868m1.227-3.42q1.259 0 2.224-.686.966-.687 1.505-1.947.54-1.26.54-2.96v-.017q0-1.7-.556-2.944-.54-1.26-1.505-1.947-.949-.687-2.208-.687-1.309 0-2.274.687-.949.67-1.472 1.914-.507 1.243-.507 2.977v.016q0 1.718.507 2.978.524 1.26 1.472 1.946.965.67 2.274.67m18.198 3.419q-2.274 0-3.893-.671-1.604-.67-2.519-1.881-.9-1.227-1.096-2.83l-.017-.147h4.008l.033.147q.228 1.13 1.079 1.75.867.622 2.421.622.998 0 1.701-.245.703-.246 1.08-.72a1.7 1.7 0 0 0 .393-1.113v-.016q0-.768-.524-1.243-.524-.49-1.881-.802l-2.879-.638q-2.487-.54-3.746-1.766-1.243-1.227-1.243-3.157v-.017q0-1.587.867-2.78.867-1.194 2.437-1.865 1.57-.67 3.648-.67 2.159 0 3.697.719 1.537.72 2.372 1.93.85 1.21.916 2.716l.016.18h-3.795l-.016-.131a2.56 2.56 0 0 0-.949-1.718q-.818-.687-2.241-.687-.9 0-1.57.262-.655.261-1.015.736a1.85 1.85 0 0 0-.343 1.112v.017q0 .735.556 1.243.573.507 1.914.817l2.879.639q2.699.605 3.844 1.733 1.145 1.113 1.145 2.994v.016q0 1.635-.932 2.88-.933 1.226-2.585 1.913-1.636.67-3.762.67m9.66-.342V7.338h4.072v9.177h.082q.687-1.57 2.045-2.421 1.374-.85 3.304-.85 1.88 0 3.256.866 1.374.85 2.126 2.405.752 1.538.752 3.63v10.797h-4.073v-9.994q0-1.995-.965-3.125-.964-1.145-2.715-1.145-1.145 0-2.012.556a3.64 3.64 0 0 0-1.325 1.505q-.475.95-.475 2.209v9.994zm18.705-.002V13.603h4.073V30.94zm2.028-19.825a2.18 2.18 0 0 1-1.603-.654 2.14 2.14 0 0 1-.654-1.57q0-.933.654-1.57a2.18 2.18 0 0 1 1.603-.655q.965 0 1.62.654.654.639.654 1.57 0 .917-.654 1.571-.655.654-1.62.654m5.178 25.551V13.602h4.056v2.994H154a6.1 6.1 0 0 1 1.277-1.783 5.6 5.6 0 0 1 1.815-1.162 6.2 6.2 0 0 1 2.273-.409q2.209 0 3.812 1.096 1.62 1.08 2.486 3.108.884 2.028.884 4.825v.017q0 2.78-.884 4.81-.867 2.01-2.47 3.107-1.586 1.08-3.761 1.08-1.228 0-2.29-.393a5.6 5.6 0 0 1-1.849-1.129 5.8 5.8 0 0 1-1.293-1.75h-.098v8.653zm8.326-8.8q1.308 0 2.256-.687.95-.687 1.457-1.93.522-1.26.523-2.961v-.017q0-1.75-.523-2.993-.507-1.26-1.472-1.93-.95-.67-2.241-.67-1.26 0-2.225.686-.965.687-1.522 1.947-.538 1.244-.538 2.96v.017q0 1.701.538 2.96.557 1.245 1.522 1.93.965.688 2.225.688"/><defs><radialGradient id="a" cx="0" cy="0" r="1" gradientTransform="rotate(90 0 20)scale(20)" gradientUnits="userSpaceOnUse"><stop stop-color="#eee"/><stop offset="1" stop-color="#fff"/></radialGradient></defs></svg>