<svg xmlns="http://www.w3.org/2000/svg" width="191" height="40" fill="none" viewBox="0 0 191 40"><g fill="#fff" clip-path="url(#a)"><path fill-rule="evenodd" d="M14.55 33.75c2.592-3.71 7.867-6.25 13.952-6.25 6.086 0 11.36 2.54 13.952 6.25C39.862 37.46 34.587 40 28.502 40s-11.36-2.54-13.952-6.25" clip-rule="evenodd"/><path d="M14.456 6.184C17.046 2.513 22.317 0 28.399 0s11.353 2.513 13.944 6.184c-2.59 3.67-7.862 6.183-13.944 6.183S17.046 9.854 14.456 6.184"/><path d="M28.666 20.073c-3.77 3.64-8.88 5.685-14.21 5.685S4.015 23.713.246 20.073l14.21-13.89z"/><path d="M56.586 20.08c-3.768 3.64-8.88 5.685-14.21 5.685s-10.44-2.045-14.21-5.685l14.21-13.896zm7.044 10.844V12.638h7.093l.336 2.69h.336a5.73 5.73 0 0 1 2.42-2.253q1.58-.773 3.664-.773 2.218 0 3.865.908 1.648.873 2.488 2.756h.336q1.11-2.017 2.857-2.823 1.749-.84 4-.84 2.353 0 4.034.94 1.715.908 2.622 2.824.907 1.883.907 4.874v9.983H91.16v-9.042q0-1.176-.236-2.084-.235-.908-.874-1.412-.605-.537-1.781-.537-1.11 0-1.882.47-.774.47-1.177 1.311-.403.807-.403 1.882v9.412h-7.395v-9.11q0-1.142-.236-2.016-.201-.908-.84-1.412-.639-.537-1.849-.537-1.11 0-1.882.504-.74.47-1.143 1.31-.403.807-.403 1.85v9.411zm37.848 0V12.638h7.429v18.286zm0-20.168V6.42h7.429v4.336zm10.34 20.168V6.42h7.429v24.504zm10.34 0V6.42h7.429v24.504zm10.34 0V12.638h7.429v18.286zm0-20.168V6.42h7.429v4.336zm20.963 20.504q-2.556 0-4.639-.605-2.084-.639-3.597-1.849a8.2 8.2 0 0 1-2.286-2.957q-.806-1.782-.806-4.068 0-3.024 1.412-5.143 1.412-2.117 3.932-3.227 2.555-1.109 5.984-1.109 2.554 0 4.638.639 2.084.605 3.563 1.815a8 8 0 0 1 2.32 2.992q.806 1.748.806 4.033 0 2.992-1.412 5.143-1.378 2.118-3.932 3.227-2.522 1.11-5.983 1.11m0-5.613q1.31 0 2.184-.47a3.04 3.04 0 0 0 1.311-1.345q.437-.874.437-2.05 0-.909-.269-1.614a3 3 0 0 0-.739-1.244 3.05 3.05 0 0 0-1.21-.773q-.74-.27-1.714-.269-1.278 0-2.152.47a3.04 3.04 0 0 0-1.311 1.345q-.437.874-.437 2.084 0 .907.236 1.614.268.706.739 1.21.505.504 1.21.773.739.27 1.715.269m13.504 5.277V12.638h7.16l.269 2.656h.336q.807-1.412 2.521-2.185a8.5 8.5 0 0 1 3.597-.807q1.78 0 3.227.437a6 6 0 0 1 2.487 1.446q1.043.974 1.613 2.621.572 1.647.572 4.068v10.05h-7.429v-8.74q0-1.276-.269-2.251-.235-.975-.941-1.513-.672-.572-1.949-.572-1.177 0-2.017.538-.84.504-1.311 1.412-.437.874-.437 2.017v9.11z"/></g><defs><clipPath id="a"><path fill="#fff" d="M0 0h190.252v40H0z"/></clipPath></defs></svg>