<svg xmlns="http://www.w3.org/2000/svg" width="179" height="40" fill="none" viewBox="0 0 179 40"><g fill="#fff" clip-path="url(#a)"><path d="M67.887 10.097q3.315 0 5.3 2.156 1.983 2.156 1.983 5.778v11.87h-4.969V18.38q0-1.733-.848-2.697-.846-.964-2.39-.963-1.699 0-2.641 1.116-.943 1.121-.944 3.234V29.9h-4.969V18.38q0-1.733-.848-2.697-.846-.964-2.39-.963c-1.108 0-1.985.373-2.641 1.116q-.984 1.121-.982 3.234V29.9h-4.97V10.632h4.97v2.041q1.733-2.581 5.357-2.582c2.415 0 4.11.925 5.242 2.774q1.925-2.774 5.74-2.774zm12.87-1.774c-.824 0-1.533-.302-2.137-.906q-.906-.907-.906-2.137c0-.82.302-1.543.906-2.156q.907-.926 2.137-.925c.82 0 1.572.307 2.175.925q.906.927.906 2.156t-.906 2.137a2.96 2.96 0 0 1-2.175.906m-2.468 21.576V10.632h4.97V29.9zm19.114-19.802q3.161-.001 5.223 2.117 2.061 2.12 2.06 5.856V29.9h-4.969V18.688q.001-1.926-1.04-2.947-1.041-1.02-2.774-1.02c-1.284 0-2.314.397-3.08 1.193-.772.795-1.155 1.993-1.155 3.584V29.9h-4.97V10.633h4.97v2.157q1.81-2.697 5.74-2.698zm25.007-7.169h4.969V29.9h-4.969v-2.272q-2.198 2.812-6.243 2.813c-2.698 0-4.811-.982-6.646-2.947q-2.754-2.948-2.755-7.226.001-4.276 2.755-7.225c1.835-1.965 4.054-2.947 6.646-2.947s4.777.94 6.243 2.813zm-9.152 21.25c1.016 1.016 2.291 1.524 3.834 1.524q2.312 0 3.814-1.524 1.503-1.523 1.504-3.91-.001-2.385-1.504-3.91-1.502-1.523-3.814-1.523c-1.543 0-2.818.508-3.834 1.523q-1.523 1.524-1.523 3.91t1.523 3.91m21.749-1.868q.999 3.623 5.434 3.623 2.852 0 4.317-1.927l4.006 2.31c-1.902 2.75-4.701 4.12-8.4 4.12q-4.778 0-7.666-2.889-2.89-2.89-2.89-7.283c0-2.927.949-5.323 2.851-7.264q2.853-2.909 7.322-2.908c2.827 0 5.156.977 6.996 2.927q2.754 2.926 2.755 7.245 0 .963-.192 2.041h-14.528zm-.076-3.852h9.827q-.424-1.963-1.754-2.928-1.328-.963-3.023-.963c-1.337 0-2.439.34-3.316 1.02q-1.31 1.023-1.734 2.87M152.075 29.9V1.773h4.969V29.9zm20.963-19.261h5.318l-7.01 19.267c-1.001 2.774-2.333 4.782-3.986 6.027q-2.485 1.87-6.186 1.677v-4.623q2.006.035 3.177-.849c.781-.589 1.408-1.542 1.868-2.85l-7.896-18.65h5.434l5.007 12.948 4.279-12.947zM0 11.84l8.189 8.189-8.175 8.174 5.08 5.079c7.32-7.321 7.32-19.195 0-26.517l-.01-.01-5.08 5.08zM11.84 0l8.189 8.189L28.203.014l5.08 5.08c-7.322 7.321-19.196 7.321-26.517 0l-.01-.01 5.08-5.08zm16.32 40-8.189-8.188-8.174 8.174-5.08-5.079c7.322-7.321 19.196-7.321 26.517 0l.01.01-5.08 5.079zM40 28.16l-8.189-8.19 8.175-8.174-5.08-5.08c-7.321 7.322-7.321 19.196 0 26.517l.01.01 5.08-5.08z"/></g><defs><clipPath id="a"><path fill="#fff" d="M0 0h178.356v40H0z"/></clipPath></defs></svg>