<svg xmlns="http://www.w3.org/2000/svg" width="149" height="80" fill="none" viewBox="0 0 149 80"><path fill="url(#a)" fill-rule="evenodd" d="M71.31 57.78C65.117 68.662 53.416 76 40 76 20.118 76 4 59.882 4 40S20.118 4 40 4c13.822 0 25.825 7.79 31.858 19.22h4.462C69.977 9.51 56.1 0 40 0 17.909 0 0 17.909 0 40s17.909 40 40 40c15.705 0 29.295-9.05 35.84-22.22z" clip-rule="evenodd"/><path fill="#fff" d="M66.74 40.88V49H64.5v-7.84q0-1.651-.616-2.436-.588-.783-1.848-.784-.924 0-1.596.392a2.45 2.45 0 0 0-1.036 1.092q-.364.728-.364 1.736V49H56.8v-7.84q0-1.651-.616-2.436-.588-.783-1.848-.784-.924 0-1.596.392a2.45 2.45 0 0 0-1.036 1.092q-.364.728-.364 1.736V49H49.1V36.12h2.24v1.876q.588-1.093 1.456-1.624.896-.532 2.1-.532 1.344 0 2.296.644.98.616 1.428 1.764.672-1.203 1.68-1.792 1.008-.615 2.296-.616 1.316 0 2.24.588.924.587 1.4 1.736.504 1.12.504 2.716m4.208-10.08q0-.644.448-1.092a1.55 1.55 0 0 1 1.092-.448q.644 0 1.092.448t.448 1.092q0 .616-.448 1.092a1.5 1.5 0 0 1-1.092.448q-.617 0-1.092-.448a1.55 1.55 0 0 1-.448-1.092m.42 5.32h2.24V49h-2.24zm9.093 0V49h-2.24V36.12zm3.892 2.464a3.5 3.5 0 0 0-.812-.476q-.364-.168-.924-.168-.84 0-1.316.42-.475.42-.672 1.148a7.4 7.4 0 0 0-.168 1.652h-1.008q0-1.54.532-2.716.56-1.204 1.428-1.904t1.764-.7q.7 0 1.288.196.615.168 1.12.7zm4.474 6.44q0 .728.336 1.26.364.533.98.812.644.252 1.456.252 1.035 0 1.848-.42a3.2 3.2 0 0 0 1.316-1.176q.504-.784.504-1.792l.448 1.68q0 1.233-.756 2.044a4.4 4.4 0 0 1-1.82 1.204 6.1 6.1 0 0 1-2.128.392 5.2 5.2 0 0 1-2.212-.476 4.14 4.14 0 0 1-1.624-1.428q-.616-.924-.616-2.24 0-1.876 1.316-2.996 1.344-1.148 3.724-1.148 1.4 0 2.324.336.951.308 1.512.728.56.393.756.644v1.316a6.6 6.6 0 0 0-2.016-.952 7.7 7.7 0 0 0-2.212-.308q-1.092 0-1.792.28-.672.28-1.008.784t-.336 1.204m-.336-5.936-1.092-1.652q.728-.533 1.988-1.064 1.287-.532 3.08-.532 1.512 0 2.632.476 1.148.448 1.764 1.316.645.868.644 2.128V49h-2.24v-8.932q0-.672-.224-1.092a1.67 1.67 0 0 0-.644-.7 2.7 2.7 0 0 0-.924-.364 5.4 5.4 0 0 0-1.12-.112q-.953 0-1.736.224-.757.225-1.288.532a10 10 0 0 0-.84.532m13.816 3.472q0 1.344.56 2.38.588 1.036 1.568 1.652 1.008.588 2.268.588 1.036 0 1.932-.308a5.7 5.7 0 0 0 1.596-.868q.672-.56.952-1.176v2.8q-.672.785-1.932 1.232-1.231.42-2.548.42-1.875 0-3.388-.868a6.55 6.55 0 0 1-2.408-2.38q-.867-1.54-.868-3.472 0-1.96.868-3.472a6.55 6.55 0 0 1 2.408-2.38q1.513-.868 3.388-.868 1.317 0 2.548.448 1.26.42 1.932 1.204v2.8q-.28-.644-.952-1.176a5.2 5.2 0 0 0-1.596-.84 5.5 5.5 0 0 0-1.932-.336q-1.26 0-2.268.588a4.3 4.3 0 0 0-1.568 1.652q-.56 1.035-.56 2.38m12.363-15.4h2.24V49h-2.24zm11.437 22.12q-1.791 0-3.192-.84-1.371-.867-2.156-2.38-.756-1.512-.756-3.5 0-2.016.784-3.528.813-1.512 2.24-2.352 1.457-.84 3.36-.84 1.904 0 3.248.812 1.373.785 2.1 2.268.728 1.485.728 3.528 0 .195-.028.42v.252h-11.004v-1.904h9.24l-.896 1.288q.084-.14.168-.42.084-.307.084-.504 0-1.148-.476-1.988a3.3 3.3 0 0 0-1.26-1.316q-.812-.476-1.904-.476-1.288 0-2.212.56-.896.532-1.4 1.568-.476 1.008-.504 2.492 0 1.512.476 2.576.477 1.064 1.4 1.624.924.56 2.24.56t2.324-.56q1.008-.588 1.708-1.764l1.82 1.148q-1.008 1.624-2.548 2.464-1.512.812-3.584.812M65 15a5 5 0 1 0 0-10 5 5 0 0 0 0 10M7.5 65c3.038 0 5.5-2.239 5.5-5s-2.462-5-5.5-5S2 57.239 2 60s2.462 5 5.5 5"/><defs><linearGradient id="a" x1="90.631" x2="87.613" y1="37.5" y2="117.566" gradientUnits="userSpaceOnUse"><stop stop-color="#fff"/><stop offset=".842" stop-color="#ccc" stop-opacity="0"/><stop offset=".977" stop-color="#ccc" stop-opacity="0"/></linearGradient></defs></svg>