<svg xmlns="http://www.w3.org/2000/svg" width="125" height="40" fill="none" viewBox="0 0 125 40"><g clip-path="url(#a)"><path fill="#fff" d="M52.946 6.9h2.728l1.125 4.067.386 1.587h.071l.382-1.587 1.13-4.066h2.728v11.474h-2.2v-3.552l.002-.185c.019-1.358.23-3.961.347-5.145h-.053l-.881 3.08-.895 2.764h-1.262l-.91-2.764-.822-3.08h-.06l.027.274c.133 1.34.32 3.852.32 5.056v3.552h-2.163zm10.87 9.298H66.5v-7.12h-2.683V6.901h7.967v2.177h-2.683v7.12h2.683v2.177h-7.967zm10.163.731 1.493-1.783c.869.71 1.94 1.197 3.055 1.197 1.103 0 1.613-.427 1.613-.987 0-.827-.683-1.026-1.77-1.481l-1.498-.638c-1.273-.483-2.435-1.458-2.435-3.128 0-1.9 1.714-3.42 4.211-3.42 1.382 0 2.779.518 3.816 1.503l-1.31 1.637c-.81-.58-1.525-.897-2.648-.897-.856 0-1.438.355-1.438 1.025 0 .69.77.943 1.872 1.356l1.406.595c1.505.563 2.455 1.5 2.455 3.12 0 1.907-1.603 3.558-4.447 3.558a6.63 6.63 0 0 1-4.375-1.657M87.66 9.08h-3.445V6.9h9.49v2.177h-3.444v9.297h-2.6zm10.42-.117h1.268c1.366 0 2.099.38 2.099 1.514 0 1.123-.733 1.71-2.099 1.71H98.08zm6.468 9.413-2.598-4.59c1.226-.554 2.047-1.623 2.047-3.31 0-2.702-1.963-3.557-4.364-3.574h-4.159v11.474h2.606v-4.128h1.365l2.194 4.128zm4.317-4.752.272-1.057.892-3.7h.07c.198.864.433 1.797.657 2.677l.531 2.08zm3.635 4.752h2.758l-3.579-11.474h-3.118l-3.579 11.474h2.661l.702-2.729h3.459zm4.789-11.474h2.596v9.297H125v2.177h-7.711zM55.966 32.03l.272-1.058.892-3.7h.07c.198.864.432 1.797.657 2.677l.53 2.08zm3.634 4.756h2.759l-3.58-11.48h-3.12l-3.58 11.48h2.663l.702-2.73h3.46zm4.217-2.182H66.5v-7.12h-2.683v-2.177h7.967v2.177h-2.683v7.12h2.683v2.177h-7.967zm10.28 3.32h8.512v1.977h-8.512z"/><path fill="#000" d="M37.514 0H30.01v7.495h7.503z"/><path fill="#777" d="M33.762 0h7.503v7.495h-7.503z"/><path fill="#000" d="M0 0h7.503v7.495H0zm0 7.495h7.503v7.496H0zm0 7.496h7.503v7.495H0zm0 7.495h7.503v7.496H0zm0 7.496h7.503v7.495H0z"/><path fill="#777" d="M3.751 0h7.503v7.495H3.751z"/><path fill="#999" d="M33.762 7.496h7.503v7.496h-7.503zm-30.01 0h7.502v7.496H3.751z"/><path fill="#000" d="M22.508 7.496h7.503v7.496h-7.503z"/><path fill="#999" d="M26.26 7.496h7.502v7.496H26.26zm-15.006 0h7.503v7.496h-7.503z"/><path fill="#bbb" d="M18.757 14.99h7.503v7.496h-7.503zm7.503 0h7.502v7.496H26.26zm-15.006 0h7.503v7.496h-7.503z"/><path fill="#000" d="M15.006 22.486h7.502v7.496h-7.502z"/><path fill="#ddd" d="M18.757 22.486h7.503v7.496h-7.503z"/><path fill="#bbb" d="M33.762 14.99h7.503v7.496h-7.503zm-30.01 0h7.502v7.496H3.751z"/><path fill="#000" d="M30.011 22.486h7.503v7.496H30.01z"/><path fill="#ddd" d="M33.762 22.486h7.503v7.496h-7.503z"/><path fill="#000" d="M30.011 29.982h7.503v7.496H30.01z"/><path fill="#ddd" d="M3.751 22.486h7.503v7.496H3.751z"/><path fill="#fff" d="M33.762 29.982h7.503v7.496h-7.503zm-30.01 0h7.502v7.496H3.751z"/></g><defs><clipPath id="a"><path fill="#fff" d="M0 0h125v40H0z"/></clipPath></defs></svg>