<svg xmlns="http://www.w3.org/2000/svg" width="107" height="40" fill="none" viewBox="0 0 107 40"><g fill="#fff"><path d="M28.1 8.025q-1.638-.915-4.036-.916c-.61.003-1.22.07-1.817.202a8 8 0 0 0-1.851.64 7.6 7.6 0 0 0-1.673 1.1 6 6 0 0 0-.96 1.066 5.6 5.6 0 0 0-1.04-1.433 5.05 5.05 0 0 0-2.035-1.227 8 8 0 0 0-2.4-.348 9.4 9.4 0 0 0-1.6.148 6.7 6.7 0 0 0-1.635.513 6.5 6.5 0 0 0-1.509.97 5 5 0 0 0-.541.543l-.167-1.77H0v19.6h7.38v-11.65a2.2 2.2 0 0 1 .182-.917c.122-.27.288-.517.49-.732.212-.224.474-.394.764-.495.321-.113.66-.17 1-.165a2.26 2.26 0 0 1 1.18.296c.33.196.59.49.746.842q.255.55.255 1.356v11.467h7.38V15.462a2.2 2.2 0 0 1 .182-.916c.122-.27.288-.517.49-.732.213-.224.474-.394.764-.495.321-.113.66-.17 1-.165a2.27 2.27 0 0 1 1.182.296c.328.196.588.49.744.842q.254.55.255 1.356v11.467h7.38V15.022q0-2.527-.818-4.304t-2.457-2.693m50.019 4.027q-1.09-2.309-2.999-3.628-1.908-1.319-4.38-1.316a8 8 0 0 0-2.362.348 7.2 7.2 0 0 0-2.035.99q-.404.284-.764.623V0H58.16v27.112h6.653l.244-1.82a6 6 0 0 0 1.193.977c.66.41 1.377.718 2.127.916a9.6 9.6 0 0 0 2.546.33q2.399 0 4.271-1.3c1.872-1.3 2.229-2.064 2.941-3.59q1.072-2.292 1.072-5.294.002-2.97-1.089-5.28m-6.526 7.512q-.381.916-1.108 1.411-.726.495-1.781.495c-1.056 0-1.304-.165-1.8-.495a3.05 3.05 0 0 1-1.127-1.41q-.382-.916-.382-2.236 0-1.319.382-2.253t1.127-1.41 1.8-.476q1.054 0 1.78.476.728.476 1.11 1.41.38.934.382 2.253 0 1.32-.383 2.235M44.621 7.109c-6.004 0-10.873 4.578-10.873 10.225s4.867 10.226 10.87 10.226c6.004 0 10.87-4.578 10.87-10.226S50.622 7.11 44.621 7.11m0 14.368c-2.432 0-4.402-1.855-4.402-4.14s1.971-4.141 4.402-4.141 4.402 1.855 4.402 4.14-1.97 4.14-4.402 4.14M104.55 32.4c-1.687-1.735-3.793-2.554-6.162-2.629-2.22-.07-4.444-.022-6.666-.03a4 4 0 0 1-.621-.044c-.74-.125-1.15-.63-1.04-1.265a1.48 1.48 0 0 1 .474-.875.62.62 0 0 1 .499-.129q.853.128 1.715.127c6.004 0 10.87-4.578 10.87-10.225a9.7 9.7 0 0 0-1.567-5.281.5.5 0 0 1-.084-.24.53.53 0 0 1 .41-.574q.218-.043.44-.045c.562-.007-2.61-.804-2.046-.804l-.52-.52c-1.278.081 0 .52-1.558-.519-2.117.384 1.039 0-2.511-1.878a.17.17 0 0 1-.201.098 11.5 11.5 0 0 0-3.24-.463c-6.004 0-10.87 4.578-10.87 10.225 0 2.75 1.153 5.245 3.029 7.082a.14.14 0 0 1 .046.114.14.14 0 0 1-.058.108 6 6 0 0 0-.426.349c-1.507 1.377-2.275 3.127-2.403 5.138-.169 2.576.734 4.674 2.94 6.107 1.308.849 2.771 1.232 4.308 1.263 2.244.044 4.49.014 6.735.026q.486-.003.962.103c.967.231 1.554.865 1.794 1.859L107 37.16c-.409-1.826-1.164-3.437-2.45-4.76M88.343 17.33c0-2.287 1.971-4.14 4.402-4.14s4.402 1.855 4.402 4.14-1.972 4.14-4.402 4.14-4.402-1.852-4.402-4.14"/><path d="M96.097 3.113h8.311v8.311h-8.311z"/></g></svg>