<svg xmlns="http://www.w3.org/2000/svg" width="318" height="40" fill="none" viewBox="0 0 318 40"><g clip-path="url(#a)"><path fill="#fff" d="M60.506 18.388c0-4.554-2.95-6.853-6.115-6.853-3.21 0-6.116 2.299-6.116 6.853 0 4.51 2.95 6.853 6.116 6.853s6.115-2.299 6.115-6.853m6.506 0c0 7.417-5.465 12.795-12.665 12.795s-12.665-5.422-12.665-12.795c0-7.46 5.465-12.795 12.665-12.795 7.244 0 12.665 5.335 12.665 12.795M79.243 6.287h4.858v5.812h-4.858v10.106c0 2.125.998 2.819 2.863 2.819.78 0 1.648-.087 1.995-.217v5.422c-.607.26-1.778.607-3.687.607-4.727 0-7.677-2.82-7.677-7.46V12.142h-4.38V6.33h1.214c2.559 0 3.73-1.648 3.73-3.817V-1H79.2v7.287zm26.458 12.101c0-4.554-2.949-6.853-6.116-6.853-3.21 0-6.115 2.299-6.115 6.853 0 4.51 2.95 6.853 6.115 6.853 3.21 0 6.116-2.299 6.116-6.853m6.55 0c0 7.417-5.466 12.795-12.666 12.795S86.92 25.761 86.92 18.388c0-7.46 5.465-12.795 12.665-12.795s12.666 5.335 12.666 12.795m18.043-5.595c-.737-.13-1.388-.217-1.952-.217-3.34 0-6.246 1.605-6.246 6.81v11.407h-6.549V6.287h6.332v3.6c1.475-3.21 4.815-3.774 6.853-3.774.521 0 1.041.044 1.518.087v6.593zm8.067 9.715c.13 1.908 1.562 3.687 4.424 3.687 2.169 0 3.21-1.128 3.21-2.386 0-1.084-.737-1.952-2.602-2.342l-3.21-.737c-4.684-1.041-6.766-3.817-6.766-7.2 0-4.338 3.816-7.894 9.021-7.894 6.853 0 9.196 4.38 9.456 6.983l-5.465 1.214c-.217-1.431-1.215-3.253-3.991-3.253-1.735 0-3.079 1.041-3.079 2.386 0 1.171.867 1.908 2.212 2.169l3.426.737c4.771.997 7.157 3.86 7.157 7.417 0 3.947-3.036 7.937-9.369 7.937-7.286 0-9.759-4.728-10.062-7.46z"/><path fill="#ccc" d="M159.397 22.812c2.256 0 4.034 1.821 4.034 4.076 0 2.17-1.778 3.99-4.034 3.99-2.212 0-4.033-1.82-4.033-3.99 0-2.255 1.821-4.077 4.033-4.077"/><path fill="#fff" d="M6.55 14.528c0-.347 0-.694.043-1.041.13-.65.477-1.214.997-1.518a2.06 2.06 0 0 1 1.041-.26q.39 0 .78.13c.868.303 1.346 1.127 1.346 2.342v7.634c0 1.778.39 3.34 1.17 4.727 1.302 2.3 3.73 3.86 6.507 4.164.303.044.607.044.91.044 2.473 0 4.728-.998 6.29-2.776 1.474-1.735 2.212-3.73 2.212-6.116v-7.417c0-.347 0-.694.086-1.04a2.2 2.2 0 0 1 1.041-1.476c.52-.303 1.171-.347 1.822-.13.868.304 1.345 1.128 1.345 2.43V30.75h6.419V13.79c0-1.518-.39-2.993-1.171-4.381-1.301-2.299-3.687-3.86-6.463-4.164s-5.465.694-7.2 2.69c-1.518 1.734-2.255 3.73-2.255 6.158v7.417c0 .304 0 .65-.044.954-.13.65-.477 1.215-.997 1.518-.52.304-1.171.347-1.822.174-.91-.304-1.388-1.128-1.388-2.386v-7.633c0-1.822-.434-3.384-1.258-4.858-2.125-3.687-7.33-5.162-11.06-3.167C1.778 7.805.173 10.494.173 14.138v16.655h6.42zm161.956 16.265V6.763h6.116v2.95c1.301-2.342 4.337-3.6 6.939-3.6 3.21 0 5.812 1.432 7.027 3.99 1.865-2.949 4.38-3.99 7.503-3.99 4.381 0 8.589 2.69 8.589 9.152v15.571h-6.203v-14.27c0-2.602-1.258-4.554-4.207-4.554-2.733 0-4.381 2.169-4.381 4.728v14.053h-6.376v-14.27c0-2.602-1.301-4.554-4.207-4.554-2.776 0-4.424 2.082-4.424 4.727V30.75h-6.376zm65.798-12.015c0 7.374-5.336 12.752-12.448 12.752-7.114 0-12.448-5.378-12.448-12.752 0-7.417 5.334-12.752 12.448-12.752 7.112 0 12.448 5.335 12.448 12.752m-6.42 0c0-4.554-2.906-6.853-6.028-6.853-3.124 0-6.03 2.299-6.03 6.853 0 4.511 2.906 6.853 6.03 6.853 3.122 0 6.028-2.299 6.028-6.853m17.87 12.014h-6.42V6.763h6.204v2.993c1.43-2.472 4.294-3.6 6.852-3.6 5.9 0 8.588 4.25 8.588 9.542v15.138h-6.376V16.783c0-2.69-1.3-4.771-4.38-4.771-2.776 0-4.424 2.212-4.424 4.988v13.792zm43.026-6.852c-1.214 4.12-4.988 7.59-10.8 7.59-6.506 0-12.23-4.728-12.23-12.839 0-7.677 5.594-12.665 11.666-12.665 7.332 0 11.712 4.728 11.712 12.449 0 .91-.086 1.908-.086 1.995h-16.96c.13 3.166 2.776 5.465 5.986 5.465 2.992 0 4.64-1.518 5.378-3.644zm-5.984-7.894c-.088-2.386-1.648-4.728-5.292-4.728-3.34 0-5.162 2.559-5.292 4.728zM295.2 40.292l5.596-12.492-10.064-20.992h7.2l6.332 14.053 5.814-14.053h6.852l-14.878 33.484z"/></g><defs><clipPath id="a"><path fill="#fff" d="M0 0h318v40H0z"/></clipPath></defs></svg>