<svg xmlns="http://www.w3.org/2000/svg" width="55" height="55" fill="none" viewBox="0 0 55 55"><g clip-path="url(#clip0_1206_193)"><mask id="mask0_1206_193" width="65" height="47" x="-10" y="4" maskUnits="userSpaceOnUse" style="mask-type:luminance"><path fill="#fff" d="M-9.137 4.578H55v45.843H-9.137z"/></mask><g fill="#fff" mask="url(#mask0_1206_193)"><path d="M29.846 18.296s2.682.12 3.764.175q1.192.058 2.381.13.897.051 1.792.134l.073.008-.036-.126a5.4 5.4 0 0 0-.277-.755c-.022-.047-.044-.098-.068-.144l-.075-.142-.082-.133a3 3 0 0 0-.183-.248l-.04-.005a5 5 0 0 1-.655-.146 3.6 3.6 0 0 1-.627-.248c.449-.058.877-.086 1.298-.128q.31-.03.616-.075.149-.022.295-.053l.14-.034c.048-.01.09-.027.134-.04l.067-.021.075-.029.15-.053.298-.11c.2-.074.401-.147.612-.218q.218-.074.44-.125l-.024-.191a6 6 0 0 0-.112-.595 3 3 0 0 0-.083-.28q-.008-.015-.012-.031l-19.375-.528 6.355 3.058H1.428l32.117 4.087-3.7-3.136zm9.781 16.3a5 5 0 0 1-.158.579q.144.113.298.212.262.165.542.322.482.273.978.52c-.356-.683-.623-1.75-.799-3.184a27 27 0 0 1-.179-2.4c-.108-.352-.946-1.15-1.778-1.801a2.1 2.1 0 0 0-.551.873 5.7 5.7 0 0 0-.254.976q-.087.504-.123 1.014.04.059.088.116c.088.104.195.201.31.294q.315.242.671.417l.095.044.292.126-.103.297-.194.555.74.433.171.099-.005.192c-.002.135-.022.226-.04.32z"/><path d="M23.119 5.27c.537.127 3.818.905 4.996 1.142a119 119 0 0 0 3.71 1.592q-1.105-.171-2.212-.33l-.597-.087-.597-.09q-.15-.021-.297-.049l-.3-.049q1.155.371 2.342.62 1.183.253 2.373.468 1.544.283 3.095.519l.362.073c1.066.216 2.168.44 2.449.567.64.29 4.348 2.85 4.668 3.223.09.109.212.364.332.638q.084.78.142 1.563l.012.272q.005.127 0 .256l.019-.056-.189.73.498-.565.008-.009.01-.048c.02-.103.034-.197.044-.292q.027-.268.047-.538c.102.2.236.382.397.537q.301.247.614.478c.943.714 2.8 2.122 3.89 3.427a4 4 0 0 1-.303-.051 6 6 0 0 1-.904-.26 8 8 0 0 1-1.679-.863l-.029-.022-.024-.006a1.8 1.8 0 0 0-.433-.066 4 4 0 0 0-.41.015 6 6 0 0 0-.786.13q-.763.178-1.495.46.38-.088.76-.15.383-.064.768-.098c.255-.02.511-.033.759-.02q.183.008.365.038.152.026.296.083c.548.37 1.14.673 1.759.904q.474.175.967.277.368.075.744.094l.01.013.492.467a3 3 0 0 0-.584-.045 10 10 0 0 0-.552-.262l-.3-.128-.306-.123q-.304-.117-.619-.22c-.212-.065-.423-.13-.65-.172l-.023-.004h-.006a15 15 0 0 0-1.357.012 8 8 0 0 0-.676.069c-.112.019-.224.037-.336.066-.11.025-.22.065-.319.12q.163-.04.331-.041a5 5 0 0 1 .333 0c.222.007.442.025.664.043q.331.029.663.064c.214.025.428.046.639.073q.29.086.57.197l-.097.012c-.337.054-.67.127-.998.21q-.49.125-.972.283t-.949.354q.732-.19 1.475-.323.247-.045.495-.082.889-.135 1.786-.162l.464.189.102.04q-.511.202-1.02.407l-.765.312-.442.185q-.496.083-.972.243-.222.077-.426.193c-.034.018-.069.042-.104.064l-.052.037-.026.022-.032.027-.013.012-.007.012-.243.391q-.121.197-.24.396a26 26 0 0 0-.46.808q.17-.16.322-.338.305-.351.585-.72l.26-.352.007-.005.019-.011.04-.026q.042-.024.087-.043.091-.044.19-.078c.065-.022.13-.046.2-.063q.1-.03.204-.054.104-.025.208-.042l.105-.02.106-.014c.07-.01.142-.024.213-.031l.213-.024c.07-.01.143-.01.216-.017l.215-.016c.143-.003.29-.012.433-.014q.216-.003.433-.005.195.006.39.005.62.278 1.227.584.312.158.613.335.147.085.287.182.065.046.126.098a1 1 0 0 1 .078.075 70 70 0 0 0 .757 2.104q.204.533.449 1.048c.084.171.166.343.27.508q.078.123.177.233.099.116.236.185c-.041-.08-.067-.16-.097-.239.203.055.435.072.628.072l.005-.005q.087 0 .174-.003c-.227.415-.431.782-.547.977-.214.223-1.936 1.96-3.97 2.015-2.217.057-5.516-1.369-6.021-1.817-.282-.252-.65-1.013-.903-1.632q1.946.03 3.891.127c.355.016.71.039 1.066.056h-.001l1.064.07q1.065.07 2.13.168l-.122-.018.126.012q-.528-.08-1.059-.139-.53-.061-1.061-.118l-1.064-.096q-.532-.043-1.065-.082-.532-.036-1.066-.067l-1.069-.052q-.795-.03-1.592-.047.07-.055.137-.11.151-.119.3-.24l.124-.104q.09-.074.178-.147l.206-.18.133.017v-.001q.873.112 1.746.238c.581.08 1.163.167 1.744.251l1.743.264c.581.083 1.16.18 1.741.27l-.132-.027.139.021a72 72 0 0 0-3.463-.674 93 93 0 0 0-2.614-.41l-.854-.118q.215-.198.417-.416a7 7 0 0 0-.932.35 78 78 0 0 0-3.013-.318 51 51 0 0 0-3.524-.174l.087.007-.092-.002c.585.052 1.171.083 1.757.147.585.047 1.167.113 1.752.17l.876.098.437.05.437.053c.292.037.584.069.875.106l.097.013a12 12 0 0 0-1.33.759q-.073.046-.144.093-.754-.003-1.507.003l-1.069.027-.534.016-.533.027-1.067.057-1.066.079-.531.045-.531.056q-.532.054-1.063.116l.071-.005-.077.008q.532-.03 1.066-.066l.532-.036.533-.024L36 26.39l1.066-.033.533-.014.534-.009 1.067-.014q.618 0 1.235.002h.001a38 38 0 0 0-.857.593q-.45.323-.885.673c-.289.237-.577.479-.85.765a4 4 0 0 0-.2.229q-.049.06-.098.129-.223.326-.364.696a5 5 0 0 0-.18.565q-.075.28-.127.563c-.069.378-.106.756-.13 1.133a10 10 0 0 0-.004 1.132 9.7 9.7 0 0 0 .358 2.24q.164.561.43 1.08.264.504.598.962.344.456.78.826.219.184.465.33.244.15.52.228a4 4 0 0 1-.357-.415 8 8 0 0 1-.317-.43q-.447-.655-.815-1.36.327.334.685.633.357.298.761.526a5 5 0 0 1-.651-.645 9 9 0 0 1-.578-.76q-.407-.59-.748-1.218-.046-.082-.09-.168c-.131-.604-.192-1.23-.208-1.855l-.001-.132.008.005q.298.236.636.413l-.188.534-.091.263.24.141.788.46v.002a6.183 6.183 0 0 1-.2.688l-.052.15.077.125q.023.038.048.073l.043.052q.024.027.042.044l.04.039q.072.065.149.123.14.105.289.2.282.18.575.344.288.162.58.314l.242.124-.089.139-.025.043-.056.096-.03.05q-.026.045-.05.088l-.027.05q-.027.049-.05.098a2 2 0 0 0-.075.16l-.015.035q-.024.06-.043.124v.002l-.01.032.005.002.012-.035a.7.7 0 0 0-.034.189v.186l.158.1c.101.063.962.59 1.663.59l.066-.003.106-.004.083-.066c.014-.01.205-.158.48-.39.142.1.305.165.476.191q.152.02.305.002.006.1-.004.2a.9.9 0 0 1-.058.229.5.5 0 0 1-.296.271l-.028.011-.038.013-.08.027-.162.053-.646.215-.07.023-.056.052a29 29 0 0 1-1.687 1.481c-.29.232-.585.46-.886.668-.15.102-.302.2-.454.283a3 3 0 0 1-.224.113l-.055.023-.05.017a.4.4 0 0 1-.063.017 7 7 0 0 1-.372-.023c-.989-.08-1.97-.238-2.933-.473a14 14 0 0 1-1.61-.502q-.387-.15-.758-.33l.212-.053q.258-.063.52-.12l.125-.025q.062-.014.124-.023l.029-.005.026-.003.023-.003.012-.002.032-.005.017-.002.02-.005.056-.017.012-.005.026-.015a.4.4 0 0 0 .048-.03c.016-.013.026-.02.05-.047a.4.4 0 0 0 .052-.081.335.335 0 0 0 .034-.176v-.02l-.002-.014a1 1 0 0 0-.02-.073l-.01-.024-.007-.012-.012-.023c-.021-.036-.03-.044-.045-.062a.5.5 0 0 0-.1-.092 2 2 0 0 0-.14-.095q-.066-.04-.128-.074a18 18 0 0 0-.743-.384q-.181-.087-.366-.173l.681-.356.286-.124-.142-.328-.052-.113-.052-.104-.108-.206c-.076-.136-.157-.265-.237-.395-.086-.127-.167-.258-.255-.382-.093-.121-.178-.249-.274-.368a11 11 0 0 0-1.233-1.347c-.446-.413-.915-.801-1.42-1.137a10 10 0 0 0-1.575-.887q.168.15.34.295c.113.098.23.19.337.293q.165.15.33.297.083.073.16.152l.16.154c.214.2.417.417.622.626.101.103.196.217.297.323l.148.16.143.167q.353.405.683.829a38 38 0 0 0-.826-.496c-.421-.243-.846-.48-1.29-.696a8 8 0 0 0-.693-.297 3 3 0 0 0-.388-.115 2 2 0 0 0-.229-.035 1 1 0 0 0-.138 0 .7.7 0 0 0-.172.032.52.52 0 0 0-.346.354.64.64 0 0 0-.004.32q-.545-.3-1.1-.579a23 23 0 0 0-2.243-.98 17.6 17.6 0 0 0-2.35-.696 14 14 0 0 0-1.204-.203 11 11 0 0 0-1.218-.065q.6.099 1.187.24.583.147 1.158.328 1.142.372 2.241.856 1.099.481 2.158 1.046.795.421 1.56.893c.168.106.34.212.499.319l1.447.964-1.006-1.427a5 5 0 0 1-.358-.57 2 2 0 0 1-.059-.126q.012.004.024.004.152.04.3.095.32.12.628.273c.42.202.837.428 1.25.665q.62.354 1.226.733l.165.104c-.26.052-.515.134-.756.248-.476.23-.899.56-1.24.964q-.361.422-.616.916l-.618-.485-.478-.375-.065.602c-.103.962-.075 1.933.083 2.887.158.949.425 1.876.794 2.764.366.883.814 1.731 1.338 2.532q.39.601.832 1.165l.107.133a32 32 0 0 1-.796-.302q.105.036.213.067a4 4 0 0 1-.43-.154 32 32 0 0 1-4.061-1.973 32 32 0 0 1-5.513-4.045l-.236-.215-.222.227-.5.513a19.4 19.4 0 0 1-2.778-3.316 21.152 21.152 0 0 1-3.292-8.643c-.222-1.54-.277-3.1-.166-4.652l.07-1.003-.618.79-.107.134q.056-1.538.26-3.065.129-.99.322-1.97.17-.877.387-1.74l21.79 2.772-4.124-3.497q.996.045 1.992.094 1.19.059 2.374.131.593.036 1.184.08.44.035.878.083l.141.019c.047.007.085.016.127.023l.023.004.048.005.039.003.077.004q.075 0 .15-.003a2 2 0 0 0 .295-.03 2.4 2.4 0 0 0 1.388-.737l.64.291-.548-.795-.052-.065c.064-.227-.02-.76-.023-.78l.023.009.013.003q.032.009.066.014.039.009.074.01.196.01.392-.007.24-.023.478-.071c.08-.015.156-.036.233-.051l.227-.059.224-.062.223-.067-.23-.017-.231-.021-.228-.025c-.074-.013-.15-.022-.224-.035a4 4 0 0 1-.432-.095 2 2 0 0 1-.162-.053 5 5 0 0 0-.048-.203 2 2 0 0 0-.104-.289l-.014-.028-.02-.033-.022-.034-.024-.03.12-.416.105-.358.055-.193a.7.7 0 0 0 .008-.225 3 3 0 0 0-.069-.383 8 8 0 0 0-.346-1.079q.125.548.175 1.107c.01.122.017.244.01.36q-.001.076-.026.146l-.075.16-.16.342-.004.007a7 7 0 0 0-.153-.527 3 3 0 0 0-.125-.312 1.1 1.1 0 0 0-.208-.313l-.045-.038-.034-.025-.063-.046-.127-.091-.253-.183-1.017-.732q-.509-.366-1.024-.728.465.42.932.839l.826.737-21.69-.59.083-.17q.294-.63.536-1.287c.164-.435.318-.877.453-1.325q.103-.335.19-.68.09-.348.148-.7c-.15.188-.284.387-.411.587q-.19.3-.36.611c-.218.4-.412.811-.59 1.23-.25.014-.509.007-.767-.013a12 12 0 0 1-.896-.102 23 23 0 0 1-1.792-.356 42 42 0 0 1-3.535-1.018l-.06-.022-.05.003a2 2 0 0 0-.31.113c-.188.087-.357.21-.498.362a1.3 1.3 0 0 0-.172.23 1.25 1.25 0 0 1 .98-.03l-.11-.019q1.777.598 3.6 1.038c.61.143 1.224.271 1.849.367q.468.07.947.108.276.02.552.02-.119.346-.211.703-.042.173-.078.348a5 5 0 0 0-.088.717q-.006.184.01.367c.068-.106.125-.21.182-.313q.087-.154.17-.312.083-.153.16-.311l.043-.086 6.404 3.08H13.065l.035-.065a1 1 0 0 0 .044-.095c.012-.039.025-.082.025-.155a.3.3 0 0 0-.008-.063.4.4 0 0 0-.083-.148.5.5 0 0 0-.132-.094 1 1 0 0 0-.22-.068 1.6 1.6 0 0 0-.353-.028c-.108.004-.21.018-.309.026a3 3 0 0 1-.274.012 1 1 0 0 1-.083-.005q.029-.065.061-.13c.021-.049.047-.102.07-.168a1 1 0 0 0 .035-.115.6.6 0 0 0 .014-.16.5.5 0 0 0-.057-.214.47.47 0 0 0-.174-.183.6.6 0 0 0-.183-.068 1 1 0 0 0-.124-.013c-.143-.004-.251.01-.357.021-.103.013-.203.027-.286.031q-.046.003-.078.002l-.18-.174a28 28 0 0 1-1.663-1.757q-.066-.076-.13-.155l.014-.047c.027-.076.066-.166.106-.258.041-.096.086-.192.126-.32a1 1 0 0 0 .028-.11.5.5 0 0 0-.053-.357l-.008-.011-.015-.018-.018-.023a.5.5 0 0 0-.214-.15.8.8 0 0 0-.264-.045q-.108 0-.196.012c-.117.013-.221.033-.31.045a7 7 0 0 1-.223-.599 5 5 0 0 1-.19-.767c-.04-.254-.053-.51-.01-.715a.6.6 0 0 1 .106-.247.4.4 0 0 1 .158-.117l6.325-.597 3.189-.3.797-.074c.267-.025.532-.041.797-.062.4-.03.8-.087 1.192-.171a.6.6 0 0 0 .193-.09.7.7 0 0 0 .183-.2.7.7 0 0 0-.217-.163.6.6 0 0 0-.207-.053q-.603-.018-1.201.047l-.623.066c1.195-.778 3.25-1.979 4.999-2.311m13.878 32.174q.06.267.156.524.091.254.207.498c.039.08.076.162.12.242l.064.118.068.118q.052.088.11.171l.042.066c.053.078.113.157.195.243l.04.04.074.03c.07.025.127.047.188.068q.37.123.757.18.097.015.193.023c.065.005.13.014.194.016l.196.006c.262-.002.526-.027.782-.093.255-.07.506-.177.706-.345h-.006l.004-.004c-.261.01-.5 0-.736-.024a9 9 0 0 1-.696-.11q-.344-.07-.686-.155l-.17-.043-.17-.044-.17-.047-.103-.03-.095-.101-.165-.19q-.165-.195-.34-.393-.173-.197-.36-.39h-.001a6 6 0 0 0-.397-.374m7.392-1.989.001.001c-.236.775-1.678 2.038-2.327 2.553-.32-.023-.736-.208-1.015-.356.092-.186.264-.473.453-.749.045-.014.096-.024.136-.042.085-.032.172-.06.254-.093l.24-.107.23-.114q.455-.233.885-.493.428-.258.848-.532l.295-.196zm.957.303c-.14.234-.31.467-.491.691q-.54.66-1.148 1.255a.46.46 0 0 1-.269.042l-.031-.006.17-.158h-.001c.75-.716 1.224-1.324 1.417-1.813l.43-.149q-.036.07-.077.138m.458-5.713c.824.228 1.685.393 2.47.419-.807.744-1.935 1.621-2.04 1.702-.48.328-1.299.721-1.991 1.03.517-.661 1.12-1.47 1.326-1.9l.017-.035.007-.04q.126-.585.211-1.176m3.524.351c-.534.614-1.219 1.38-1.56 1.667-.37.31-1.214.777-1.809 1.091l-.05-.014q.37-.193.715-.423l.015-.012c.08-.062 1.887-1.46 2.656-2.305zm-3.824-3.446-.434.012q-1.09.028-2.171.151h.03l-.027.003c.58.01 1.158.009 1.737.011h1.737l1.738-.001a86 86 0 0 0 1.739-.021l-.036-.004h.032a27 27 0 0 0-1.735-.123q-.435-.018-.87-.028-.87-.018-1.74 0m-3.914-3.268h-.007q.556.118 1.109.247.51.12 1.017.254l.115.03q-.264.073-.522.161-.348.118-.68.274h.005l-.005.002a8 8 0 0 0 .73-.077q.127-.02.253-.042a15 15 0 0 0 .426-.076l.036-.006.081-.017c.09-.019.182-.034.272-.054l-.005-.002h.002l.004.001q.171.047.34.099l.524.153.522.163c.175.05.347.11.519.164q.26.084.52.171c.345.112.688.234 1.032.35q1.032.362 2.055.749l-.002-.001q-.58-.29-1.178-.542a24 24 0 0 0-1.288-.516q-.282-.105-.566-.206c-.171-.063-.345-.118-.52-.177-.173-.056-.346-.117-.52-.169l-.33-.1-.114-.035q-.131-.04-.264-.077l-.29-.08-.07-.02.159-.034h-.001l.175-.036c.057-.014.115-.023.171-.035.052-.01.098-.015.148-.021l.166.077.202.097.203.098.204.105-.002-.002a2 2 0 0 0-.156-.17q-.083-.08-.17-.154a4 4 0 0 0-.372-.276l-.02-.015h-.037a2.5 2.5 0 0 0-.38.02q-.051.006-.102.015a6 6 0 0 0-.263.039l-.066.012a9 9 0 0 0-.374.079q-.075.014-.148.033l-.384-.092-.537-.114c-.179-.037-.36-.066-.538-.099q-.271-.047-.543-.083-.272-.035-.543-.066zm5.364.258-.006-.002q.204.115.409.218l.406.218q.099.059.2.112l.397.229.193.122q.099.059.192.122c.063.044.129.084.19.129l.187.13q.089.07.182.137c.118.095.239.19.35.293q.175.15.33.323l-.001-.003.002.002a2 2 0 0 0-.264-.385q-.076-.09-.157-.175c-.054-.058-.112-.11-.167-.165q-.087-.08-.176-.154l-.184-.146c-.062-.05-.127-.09-.19-.135a6.4 6.4 0 0 0-1.02-.567c-.142-.062-.289-.115-.434-.17a7 7 0 0 0-.444-.136zm2.233-3.356a3 3 0 0 1 .339.016q.381.045.757.13l.083.019.118.111.03.026q.92.689 1.825 1.4c.313.261 1.605 1.935 1.92 2.437q-.042.077-.097.181a41 41 0 0 1-1.014-.91l-.05-.046-.064-.012c-.343-.07-1.253-.03-1.595-.012a14 14 0 0 0-.222-1.018 4.7 4.7 0 0 0-.34-.96 2.3 2.3 0 0 0-.271-.434 2 2 0 0 0-.174-.189 1 1 0 0 0-.204-.154q.267.412.46.865a3.5 3.5 0 0 1 .156.46q.042.153.078.309l-.021-.067-.007-.024-.014-.02c-.051-.078-.102-.125-.153-.172q-.22-.182-.46-.332c-.207-.13-.416-.248-.626-.364q-.63-.345-1.284-.645l-.042-.02h-.493q-.207.003-.411.012l.248-.083q.764-.252 1.529-.498zm-6.752.039c-.048.151-.077.3-.103.446l-.03.164-.046.29q-.013.08-.032.158l-.004.017c-.096.096-.197.195-.294.294l-.178.188q-.071.074-.141.148l-.026.028-.286.311c-.106.114-.209.226-.344.33L40.95 23a1 1 0 0 0 .13.007q.065-.006.13-.017l.038-.01q.11-.026.212-.068a2.4 2.4 0 0 0 .615-.374q.065-.053.128-.11.04-.034.08-.07l.002.001a4 4 0 0 0 .337-.36l.04-.05.008-.037.013-.056q.007-.032.008-.053c.002-.03.007-.064.007-.092a1.9 1.9 0 0 0-.051-.486 2.3 2.3 0 0 0-.211-.602zm-.383-.586c-.095.15-.15.301-.199.448q-.031.11-.059.218l-.026.105q-.002.015-.007.029a3.5 3.5 0 0 0-.45.77c-.022.046-.04.098-.062.147-.022.05-.041.1-.072.154h.005v.002a.5.5 0 0 0 .18-.035q.034-.015.065-.031l.03-.016q.033-.014.064-.03.149-.09.271-.2.243-.222.409-.504l.033-.055.005-.033a1 1 0 0 0 .009-.263q-.015-.241-.091-.47a1.3 1.3 0 0 0-.103-.233z"/><path d="m40.085 17.291-.076-.186-.013-.038-.084.224c-.095.146-.188.293-.294.44l-.049.057a1 1 0 0 1-.055.045q-.057.04-.117.07-.117.062-.24.107.108-.074.205-.158a.5.5 0 0 0 .147-.187c.065-.153.12-.32.177-.483l.142-.43-.077.027c-.2.069-.406.14-.616.205q-.157.05-.315.095l-.16.046-.08.021-.09.02c-.245.06-.48.075-.713.077h-.135l.092.11.106.142q.053.073.1.148.05.074.094.15.274.456.466.947l.033.083h.07c.238-.01.471-.062.69-.154.291-.123.547-.317.742-.566l.08-.147c.063-.23-.03-.665-.03-.665"/></g></g><defs><clipPath id="clip0_1206_193"><path fill="#fff" d="M0 0h55v55H0z"/></clipPath></defs></svg>