<svg xmlns="http://www.w3.org/2000/svg" width="148" height="148" fill="none" viewBox="0 0 148 148"><path fill="#fff" d="M0 0h148v148H0z"/><path fill="#000" d="M31.436 64.015c.195.016.977.54 1.3.75.307.197.57.457.768.763a.7.7 0 0 1 .138.356q.032.23 0 .486a20 20 0 0 0-.104.471 3 3 0 0 1-.137.48l-.02.042-.213.4q-.062.116-.11.22c.024-.018.05-.031.07-.05a2 2 0 0 1 .334-.075q.137-.016.263-.072.166-.055.43-.115.316-.076.618-.196.363-.15.75-.225.441-.093.847-.183l.324-.061q.164-.033.322-.088a13.4 13.4 0 0 1 2-.341q1.11-.11 2.225-.157l.384-.018a8.3 8.3 0 0 1 2.038.248q.977.246 1.493.996-.001.024.013.036s.323.424.159 1.554a1 1 0 0 1-.034.201c-.034.184-.176.403-.393.642 0 0-.657.622-.954.852l-.044.052-.854.6c-1.564 1.076-3.372 2.06-3.394 2.072v.024q0 .038.014.072a.3.3 0 0 1 .017.096q.006.066.017.132l.036.252q.017.14.047.276.03.13.055.154.062.335.186.933.124.61.234 1.22.1.557.205 1.113.066.314.104.632l.003-.007q.056.259.116.516a.3.3 0 0 1-.016.206l-.226.61-.012.038a29 29 0 0 1-.276.846q.004.048-.14.078-.143.03-.12.03a.5.5 0 0 1-.144-.006 2 2 0 0 0-.219-.05 4 4 0 0 1-.364-.045.44.44 0 0 1-.271-.144l-.246-.379-.024-.04-.377-.83a5 5 0 0 1-.082-.214 2.3 2.3 0 0 1-.076-.359.3.3 0 0 0-.015-.083.2.2 0 0 1-.015-.084l-.157-.79a.5.5 0 0 0-.015-.108 1 1 0 0 1-.02-.155q0-.025-.087-.297a16 16 0 0 1-.17-.596l-.159-.597a4 4 0 0 1-.074-.298l-.04-.431a.3.3 0 0 0-.024-.095l-.352-.84a.326.326 0 0 0-.398-.186l-.715.22-.105.114-.13.141a.3.3 0 0 0-.051.078 51 51 0 0 1-.673 1.238.2.2 0 0 0-.017.035q-.062.162-.146.338a4 4 0 0 0-.185.495.3.3 0 0 1-.024.06 3.5 3.5 0 0 0-.303.685q-.11.352-.274.793a.3.3 0 0 1-.037.072c-.05.074-.174.272-.187.412q-.026.267-.048.292c-.03.034-.34.715-.423.893a.3.3 0 0 1-.05.08l-.519.59c-.032.034-.398.14-.478.142l-.022.026-.121.006c-.031.034-.113.004-.143.054q-.044.075-.164.104l-.095.004q-.026 0-.05-.023l-.24.01q-.292.014-.58-.022-.122-.018-.148-.065l-.093-.43a.5.5 0 0 1 .017-.182.3.3 0 0 0 .02-.11l-.007-.12q.108-.318.193-.588.172-.555.3-1.123.07-.316.197-.732.165-.562.3-1.111c.088-.366 1.086-2.739 1.283-3.182q.293-.657.605-1.305.244-.493.54-1.181.294-.688.512-1.229l-.115.1s-.457.227-.566.303a2 2 0 0 1-.282.17l-.17.007a.5.5 0 0 1-.212-.148c-.048-.057-.432-.317-.617-.433a.33.33 0 0 0-.274-.035.33.33 0 0 0-.203.19l-.087.217a.4.4 0 0 1-.03.055c-.106.16-.41.76-.464.871l-.015.035c-.044.123-.303.847-.383 1.05q-.166.41-.374.8l-.139.24a.3.3 0 0 0-.03.068l-.11.367-.01.026-.212.527q-.108.271-.23.505c-.082.155-.54 1.612-.544 1.628a1 1 0 0 0-.075.21s-.615 2.277-.795 3.085l.003.024c.002.062-.127.631-.162.732l-.013.05c-.08.392-.156.794-.223 1.196-.375 2.253-1.992 1.878-2.738 1.72a1.2 1.2 0 0 1-.212-.04l-.024-.003q-.01-.004-.021-.01a.6.6 0 0 1-.234-.14.3.3 0 0 1-.053-.083q-.12-.262-.197-.258-.085.003-.12.054-.032.048-.045.038-.014-.012-.003-.348 0-.556.038-1.053.077-.75.2-1.492.09-.445.214-.88a8 8 0 0 0 .123-.486 81 81 0 0 1 1.187-3.998c.235-.724.473-1.435.713-2.125.12-.34-.322-.592-.557-.316l-.017.023-1.105 1.556a1.7 1.7 0 0 0-.238.385c-.05.123-.41.624-.484.757q-.113.198-.236.396a5 5 0 0 1-.21.317l-.01.013a129 129 0 0 0-1.516 1.93q-.352.485-.737 1.033l-.25.373a1.03 1.03 0 0 1-.366.426c-.16.113-1.713.706-1.957.839a.3.3 0 0 1-.084.034l-.15.037a.3.3 0 0 1-.076.01q-.475.014-.692-.174c-.15-.13-.333-.6-.364-.6a1.8 1.8 0 0 1-.22-.605 3.2 3.2 0 0 1-.053-.684 6 6 0 0 1-.03-1.218q.049-.545.118-1.175l.09-1.21.067-1.134a.3.3 0 0 1 .01-.055q.158-.62.098-1.147a7 7 0 0 1-.051-.879q-.384.569-.721 1.166a18 18 0 0 0-.533 1.036.6.6 0 0 0-.07.088q-.023.037-.045.037h.023a6 6 0 0 1-.25.627 10 10 0 0 1-.316.62q-.167.342-.3.698a6 6 0 0 1-.23.54 4.5 4.5 0 0 0-.34.8q-.114.38-.265.796-.115.445-.337.847a1.73 1.73 0 0 0-.214.915l.01.192q0 .136-.026.267c-.016.098-.133.611-.163.746a.2.2 0 0 1-.021.064 1.8 1.8 0 0 0-.125.35c-.034.137-.221.719-.269.77a2 2 0 0 0-.27.446 1.5 1.5 0 0 0-.12.537l-.063.22a1.7 1.7 0 0 1-.164.393c-.083.15-1.148.305-1.227.332a2 2 0 0 1-.383.078q-.19.034-.336.04a1.6 1.6 0 0 1-.439-.079q-.097-.043-.118-.223a4.8 4.8 0 0 1 .04-1.23c.213-1.315.82-4.68 1.44-6.533.348-1.038.63-2.11.97-3.178a60 60 0 0 1 1.092-3.137 32 32 0 0 1 1.25-2.865s.482-.925 1.21-1.272a.94.94 0 0 1 .467-.105q.147.068.186.125c.028.04.433.234.577.228q.144-.003.29 0l.82.012q.133.003.265 0c.182-.04.37-.044.553-.013.195.031.619.246.726.281q.136.049.28.073c.024-.001.154.037.225.053a.3.3 0 0 1 .098.04c.378.245 1.064 1.066 1.084 1.171a.4.4 0 0 0 .03.12c.017.048.029.494.007.711a2.6 2.6 0 0 1-.128.584.3.3 0 0 0-.015.08 5 5 0 0 1-.04.383c-.019.12-.244 1.165-.273 1.23a.4.4 0 0 0-.042.146 2 2 0 0 0-.04.171q-.023.078-.042.158l-.04.16a.6.6 0 0 0-.029.194q-.006.148-.047.29l.007.17c-.03.034-.184 1.23-.254 1.652a19 19 0 0 1-.24 1.215.3.3 0 0 0-.008.055l-.022.475c.045-.061.51-.568.718-.931q.347-.608.779-1.23.113-.173.203-.334.066-.113.11-.235l.13-.19.012-.016c.06-.078.593-.763.643-.841.054-.085.872-1.263.966-1.358q.138-.139.252-.312l.562-.662.021-.03.226-.336a.3.3 0 0 1 .029-.04l.25-.271.02-.024c.074-.102.578-.787.718-.987.15-.215 2.393-2.628 2.5-2.68q.153-.064.32-.11a3 3 0 0 0 .345-.111.8.8 0 0 0 .317-.219q.068-.101.27-.157.17-.05.348-.064.313-.014.627.01m103.328 14.523a2.57 2.57 0 0 1 1.831.754 2.6 2.6 0 0 1 .754 1.832 2.59 2.59 0 0 1-2.585 2.586 2.59 2.59 0 0 1-2.587-2.586 2.59 2.59 0 0 1 2.587-2.586m0 .477a2.1 2.1 0 0 0-1.501.61 2.1 2.1 0 0 0-.619 1.498c0 1.17.951 2.119 2.12 2.119a2.106 2.106 0 0 0 2.106-2.12 2.07 2.07 0 0 0-.609-1.497 2.08 2.08 0 0 0-1.497-.61m.204.62c.585 0 1.01.388 1.01.924l.001.001a.9.9 0 0 1-.197.578.9.9 0 0 1-.524.317l.785 1.172h-.611l-.011-.014-.749-1.14h-.427v1.154h-.501v-2.993zM107.911 66.68c5.615 0 8.687 1.344 8.687 4.985h-5.289c0-.753-1.222-.916-3.806-.916s-2.991.123-2.991.672c0 .55.51.529 3.602.649 5.614.224 9.092.61 9.092 4.334 0 3.926-3.253 4.923-9.092 4.923-5.838 0-9.093-.997-9.093-5.228h5.29c0 .691.651 1.16 4.008 1.16 3.133 0 3.6-.205 3.6-.734 0-.61-.468-.691-3.803-.793-6.429-.204-8.89-1.261-8.89-4.577 0-3.133 3.071-4.475 8.685-4.475M79.98 70.952h-9.766v1.323h9.766v3.458h-9.766v1.323h9.766v4.069H64.925v-14.24H79.98zm-20.797-4.069c3.235 0 4.231 1.466 4.231 3.62 0 .916-.427 1.852-1.118 2.665 1.24.896 2.136 2.197 2.136 3.744 0 2.34-1.405 4.212-4.64 4.212H46.774v-14.24zm41 14.24h-5.818l-.976-2.563h-6.062l-.977 2.564h-5.817l5.899-14.24h7.852zm34.521-9.765h-6.103v9.766h-5.289v-9.766h-6.104v-4.475h17.495zm-.459 8.706v.966h.723c.287 0 .495-.198.495-.47a.47.47 0 0 0-.495-.496zm-82.182-2.806h5.9c.528 0 1.18 0 1.18-.752 0-.754-.652-.754-1.18-.754h-5.9zm36.647-2.36h3.295l-1.646-4.353zm-46.73-6.386-.324.014a3 3 0 0 0-.325.038q-.456.045-.97.127-.516.085-.994.177l-.494.117-.016.005-.183.055q-.238.058-.441.091a.326.326 0 0 0-.274.404.5.5 0 0 1 .01.187.9.9 0 0 1-.142.343 4 4 0 0 1-.221.433 1.4 1.4 0 0 0-.154.332.8.8 0 0 1-.2.42l-.293.47-.119.196a.3.3 0 0 0-.025.055l-.12.316a1.6 1.6 0 0 1-.177.344q.684-.368 1.416-.714.733-.345 1.419-.641.116-.076.248-.12.137-.046.245-.143.132-.058.26-.12l.26-.12q.597-.25 1.145-.593.458-.298 1.04-.734l.14-.127q.49-.383.483-.527-.007-.193-.36-.25a4 4 0 0 0-.833-.035m10.083 3.376h4.883c.529 0 1.18 0 1.18-.773 0-.774-.651-.774-1.18-.774h-4.883z"/></svg>