<svg xmlns="http://www.w3.org/2000/svg" width="127" height="20" fill="none" viewBox="0 0 127 20"><path fill="#fff" d="M20.784.015c.194.015.977.54 1.3.75.308.196.57.457.77.763a.7.7 0 0 1 .136.356q.032.23 0 .486-.055.235-.103.47a3 3 0 0 1-.138.481l-.02.042-.213.4q-.062.116-.109.22c.023-.018.05-.031.07-.05q.165-.05.334-.075a.9.9 0 0 0 .262-.072 5 5 0 0 1 .43-.115q.316-.075.618-.196.364-.151.75-.226.442-.092.848-.182l.323-.062q.164-.032.322-.087.906-.233 2-.34 1.11-.11 2.225-.159l.384-.017a8.3 8.3 0 0 1 2.038.248q.977.246 1.493.996 0 .023.013.036s.323.424.158 1.554a1 1 0 0 1-.033.2c-.034.185-.176.404-.393.643-.008.008-.66.623-.954.852l-.044.052-.853.6c-1.574 1.082-3.395 2.072-3.395 2.072v.024q0 .038.014.072.017.046.017.096.006.066.018.132l.035.252q.017.14.047.276.031.133.056.154.062.335.185.933.124.61.235 1.22.1.557.205 1.113.066.314.103.632l.003-.007q.056.259.116.516a.3.3 0 0 1-.015.206l-.227.61-.012.038c-.024.102-.27.829-.275.846q.003.048-.14.078t-.12.03a.5.5 0 0 1-.144-.006 2 2 0 0 0-.22-.05q-.194-.015-.363-.045a.45.45 0 0 1-.272-.144l-.246-.379-.023-.041-.377-.83a5 5 0 0 1-.082-.213 2.3 2.3 0 0 1-.076-.36.3.3 0 0 0-.016-.082.2.2 0 0 1-.015-.084l-.156-.79a.5.5 0 0 0-.016-.108 1 1 0 0 1-.02-.155q0-.026-.087-.298-.084-.273-.17-.595l-.159-.597a3 3 0 0 1-.073-.298l-.04-.43a.3.3 0 0 0-.025-.096l-.35-.841a.327.327 0 0 0-.4-.186l-.715.22-.105.114-.13.142a.3.3 0 0 0-.051.078 51 51 0 0 1-.673 1.237 4.03 4.03 0 0 0-.347.87.3.3 0 0 1-.025.058 3.5 3.5 0 0 0-.302.686q-.111.353-.275.793a.3.3 0 0 1-.037.072c-.05.073-.174.272-.187.412q-.025.265-.047.292c-.028.03-.342.715-.424.893a.3.3 0 0 1-.05.08l-.519.591c-.032.033-.397.138-.477.14l-.023.027-.121.005c-.031.034-.113.005-.143.055q-.044.074-.163.104l-.096.004q-.026 0-.05-.023l-.24.01q-.291.015-.58-.022-.122-.018-.148-.066l-.092-.43a.5.5 0 0 1 .016-.18.3.3 0 0 0 .02-.111l-.007-.12q.108-.318.193-.588.172-.555.3-1.123.07-.316.197-.732.165-.562.3-1.112c.088-.366 1.086-2.737 1.283-3.18q.293-.658.605-1.306.244-.493.54-1.182.295-.687.513-1.228l-.116.101s-.457.226-.567.302a2 2 0 0 1-.28.17l-.17.007a.5.5 0 0 1-.213-.148c-.047-.056-.43-.317-.616-.433a.327.327 0 0 0-.478.154l-.087.218a.4.4 0 0 1-.03.055c-.107.162-.41.761-.464.871l-.015.035c-.044.123-.302.847-.382 1.05q-.166.41-.374.8l-.14.24a.3.3 0 0 0-.029.068l-.11.366-.01.027-.212.527q-.11.27-.231.505c-.081.154-.535 1.599-.544 1.627a1 1 0 0 0-.075.21c-.01.039-.617 2.285-.795 3.086l.003.024c.003.06-.127.632-.162.732l-.013.05c-.08.392-.155.794-.222 1.196-.375 2.253-1.993 1.878-2.74 1.72a1.2 1.2 0 0 1-.211-.04l-.023-.003q-.012-.004-.022-.01a.6.6 0 0 1-.234-.14.3.3 0 0 1-.053-.083q-.12-.262-.197-.258-.085.003-.12.054-.032.048-.045.038-.014-.015-.003-.349 0-.555.038-1.052.077-.749.2-1.492.09-.443.214-.879.069-.242.123-.488a81 81 0 0 1 1.187-3.997q.353-1.089.714-2.125c.119-.341-.323-.592-.558-.316l-.017.022-1.105 1.557a1.7 1.7 0 0 0-.237.385c-.05.123-.411.625-.485.757q-.113.198-.236.396-.12.193-.21.316l-.01.014a130 130 0 0 0-1.515 1.93q-.353.485-.738 1.033l-.25.373a1.04 1.04 0 0 1-.366.426c-.162.114-1.713.706-1.957.84a.3.3 0 0 1-.084.034l-.15.036a.3.3 0 0 1-.075.01q-.476.014-.693-.175c-.15-.13-.333-.6-.364-.6a1.8 1.8 0 0 1-.22-.604 3.2 3.2 0 0 1-.053-.685 6 6 0 0 1-.03-1.217q.048-.545.118-1.175l.09-1.21.068-1.134a.3.3 0 0 1 .009-.055 3.2 3.2 0 0 0 .098-1.147 7 7 0 0 1-.051-.88q-.384.57-.72 1.167a18 18 0 0 0-.534 1.036.6.6 0 0 0-.07.088q-.023.037-.045.037h.023q-.106.317-.25.627a10 10 0 0 1-.316.62q-.166.342-.3.698a6 6 0 0 1-.23.54 4.5 4.5 0 0 0-.34.8q-.114.38-.265.796c-.076.295-.19.58-.337.847a1.73 1.73 0 0 0-.213.915l.009.192q0 .136-.026.267c-.016.1-.133.61-.163.745a.2.2 0 0 1-.021.064 1.8 1.8 0 0 0-.125.35c-.034.138-.222.721-.269.771a2 2 0 0 0-.27.446q-.11.257-.12.538l-.062.22a1.7 1.7 0 0 1-.164.392c-.082.149-1.148.305-1.228.332a2 2 0 0 1-.383.077q-.19.034-.336.04a1.6 1.6 0 0 1-.439-.078q-.096-.044-.117-.223c-.04-.41-.026-.824.04-1.23.213-1.315.82-4.682 1.44-6.534.347-1.037.63-2.11.97-3.177A60 60 0 0 1 3.563 5.62a32 32 0 0 1 1.25-2.865c.01-.018.49-.928 1.21-1.272a.93.93 0 0 1 .466-.105q.147.067.186.125c.027.039.433.234.577.228q.144-.003.29 0l.82.012q.132.004.265 0c.182-.04.37-.044.553-.013.195.031.619.246.726.28q.137.05.28.073c.026 0 .154.038.225.054a.3.3 0 0 1 .097.04c.378.244 1.063 1.064 1.085 1.17a.4.4 0 0 0 .03.12c.017.048.029.494.007.712a2.6 2.6 0 0 1-.128.584.3.3 0 0 0-.015.08 5 5 0 0 1-.04.383c-.019.12-.244 1.164-.273 1.23a.4.4 0 0 0-.042.146 2 2 0 0 0-.04.171q-.023.078-.041.158l-.041.159a.6.6 0 0 0-.028.195q-.006.149-.047.291l.007.17c-.03.033-.184 1.23-.254 1.651q-.102.619-.24 1.215a.3.3 0 0 0-.008.054l-.023.476c.046-.062.51-.569.718-.932q.346-.607.779-1.229.113-.172.203-.334a1.4 1.4 0 0 0 .11-.235l.13-.19.012-.017c.06-.078.592-.76.643-.84.053-.083.874-1.265.967-1.358q.138-.139.252-.312l.56-.662.023-.03.225-.336a.3.3 0 0 1 .03-.04l.25-.27.019-.026c.074-.102.578-.786.718-.986.15-.215 2.393-2.629 2.5-2.68q.153-.065.32-.11.176-.047.345-.11a.8.8 0 0 0 .317-.22q.068-.1.27-.157.17-.052.348-.064.314-.015.627.01m103.328 14.523a2.57 2.57 0 0 1 2.585 2.585 2.59 2.59 0 0 1-2.585 2.586 2.59 2.59 0 0 1-2.586-2.586 2.59 2.59 0 0 1 2.586-2.585m0 .477a2.1 2.1 0 0 0-1.501.61 2.1 2.1 0 0 0-.619 1.497c0 1.17.951 2.12 2.12 2.12a2.11 2.11 0 0 0 2.107-2.12 2.08 2.08 0 0 0-1.296-1.954 2.1 2.1 0 0 0-.811-.153m.205.62c.585 0 1.009.389 1.009.925h.001a.895.895 0 0 1-.72.894l.784 1.173h-.611l-.01-.015-.749-1.14h-.427v1.155h-.502v-2.992zM97.26 2.68c5.615 0 8.686 1.343 8.686 4.984h-5.289c0-.753-1.221-.916-3.805-.916s-2.99.123-2.99.672c0 .55.508.53 3.6.65 5.615.224 9.092.61 9.092 4.334 0 3.926-3.253 4.923-9.092 4.923-5.838 0-9.093-.997-9.093-5.228l5.29-.001c0 .692.65 1.16 4.008 1.16 3.132 0 3.6-.204 3.6-.733 0-.61-.467-.69-3.803-.793-6.43-.204-8.89-1.261-8.89-4.577 0-3.133 3.07-4.475 8.686-4.475M69.328 6.952h-9.765v1.323h9.765v3.458h-9.765v1.323h9.765v4.068H54.274V2.884h15.054zM48.53 2.882c3.235 0 4.231 1.466 4.232 3.62 0 .917-.427 1.852-1.118 2.666 1.24.896 2.135 2.197 2.135 3.744 0 2.34-1.405 4.211-4.64 4.211H36.122V2.883zm41 14.241h-5.818l-.976-2.563h-6.062l-.977 2.563h-5.817l5.899-14.24h7.852zm34.521-9.765h-6.103v9.765h-5.289V7.358h-6.104V2.883h17.496zm-.458 8.706v.965h.723c.287 0 .495-.197.495-.47a.47.47 0 0 0-.495-.495zm-82.183-2.806h5.9c.53 0 1.18 0 1.18-.753s-.65-.753-1.18-.753h-5.9zm36.647-2.36h3.296l-1.647-4.354zm-46.73-6.386-.324.014a3 3 0 0 0-.325.038 16 16 0 0 0-.97.127q-.516.085-.994.177l-.494.117-.016.005-.182.054a6 6 0 0 1-.442.092.327.327 0 0 0-.274.403q.024.093.011.188a.9.9 0 0 1-.143.343 4 4 0 0 1-.221.432 1.4 1.4 0 0 0-.154.332.8.8 0 0 1-.2.42l-.293.47-.118.196a.3.3 0 0 0-.026.056l-.12.315a1.6 1.6 0 0 1-.177.345q.684-.368 1.416-.714.733-.346 1.419-.64.116-.078.248-.12c.09-.03.175-.08.246-.144q.13-.058.26-.12l.26-.12a8 8 0 0 0 1.145-.593q.458-.298 1.04-.734l.14-.127q.49-.384.483-.527-.008-.195-.36-.25a4 4 0 0 0-.834-.035m10.083 3.376h4.883c.529 0 1.18 0 1.18-.773 0-.774-.651-.774-1.18-.774H41.41z"/></svg>