<svg xmlns="http://www.w3.org/2000/svg" width="229" height="40" fill="none" viewBox="0 0 229 40"><g fill="#fff" clip-path="url(#a)"><path d="M28.527 2.875c1.147.857 2.15 1.844 3.14 2.876l.487.498c2.856 3.118 4.27 7.287 4.25 11.478l-.003.983-.006 1.011-.004 1.033q-.005 1.257-.013 2.513h-3.664l-.011-1.578c-.07-4.8-.182-8.896-3.391-12.8l-.604-.782c-.696-.828-1.509-1.425-2.422-1.997l-.483-.306c-1.973-1.205-4.12-1.97-6.436-2.145l-.505-.04c-3.697-.163-7.263 1.118-10.046 3.52-3.772 3.619-4.933 7.343-5.054 12.468l-.03 1.067a667 667 0 0 0-.068 2.593H0C-.133 16.46.188 10.43 5.12 5.195c6.344-6.021 15.987-7.1 23.407-2.32"/><path d="M16.226 22.223h3.926l.327.996c.343.91.612 1.42 1.505 1.88.853.267 1.645.297 2.536.307l.881.019q.908.017 1.814.024c2.505.062 4.724.446 6.644 2.15 1.18 1.29 2.258 3.034 2.258 4.82l-3.141 1.046-.442-.736c-.813-1.12-1.618-1.613-2.96-1.879a40 40 0 0 0-1.565-.055l-.924-.023q-.955-.02-1.91-.034c-2.053-.054-3.967-.135-5.654-1.41l-.432-.488-.451-.493-.318-.373-.346.316c-1.77 1.573-3.293 2.32-5.668 2.345l-.924.018a199 199 0 0 1-1.91.025c-1.839.043-3.461.166-5.023 1.218-.456.507-.727.958-1.047 1.569l-3.14-1.046c.362-2.172 1.328-4.052 3.128-5.4 2.09-1.376 4.155-1.543 6.604-1.545 2.704.029 2.704.029 5.185-.898.62-.804.798-1.357 1.047-2.353m3.926-8.106c3.87-.153 6.656.104 9.798 2.598.409.54.409.54.393 1.16-.283.79-.635 1.516-1.031 2.255-.885-.114-1.568-.381-2.356-.776-1.383-.624-2.7-.757-4.203-.858l-.762-.061a182 182 0 0 0-1.839-.135zm-8.113-.26c.768.58.996.982 1.144 1.929.053 1.07-.014 1.816-.473 2.793-.96.724-1.837.844-3.027.768-.96-.408-1.249-.695-1.832-1.569-.185-1.269-.185-2.3.475-3.415 1.128-.998 2.326-.859 3.713-.506m43.196 17.206-6.268-20.386h-.145l.109 2.184q.072 1.455.145 3.13.074 1.64.073 2.986v12.086h-4.92V5.07h7.508l6.159 19.877h.109L64.528 5.07h7.507v25.993h-5.138V18.758q0-1.237.036-2.84.073-1.6.11-3.02l.109-2.185h-.146l-6.705 20.35zm34.05-20.241q.402 0 .948.037.547.036.874.109l-.4 5.096a4 4 0 0 0-.766-.109 5.6 5.6 0 0 0-.838-.073q-1.056 0-2.04.292a5.3 5.3 0 0 0-1.786.837q-.765.582-1.24 1.565-.436.947-.437 2.366v10.12h-5.43V11.187h4.118l.802 3.35h.255a8.2 8.2 0 0 1 1.458-1.857 7.1 7.1 0 0 1 2.004-1.347 6.1 6.1 0 0 1 2.478-.51m21.213 13.03q0 2.294-1.129 4.005t-3.28 2.657q-2.114.91-5.175.91a19.3 19.3 0 0 1-5.138-.691 16 16 0 0 1-2.223-.874v-5.133a60 60 0 0 0 3.826 1.493q2.005.655 3.972.655 1.349 0 2.151-.364.837-.364 1.202-.983.401-.618.401-1.42 0-.983-.692-1.674-.657-.692-1.786-1.274a51 51 0 0 0-2.587-1.311 39 39 0 0 1-1.968-1.02 13 13 0 0 1-2.041-1.492 7.6 7.6 0 0 1-1.567-2.184q-.62-1.275-.62-3.058 0-2.33 1.057-3.968 1.095-1.674 3.061-2.548 2.005-.874 4.701-.874 2.041 0 3.863.473 1.859.474 3.863 1.347l-1.785 4.296a31 31 0 0 0-3.207-1.129q-1.422-.4-2.916-.4-1.02 0-1.749.328-.73.327-1.13.91-.364.583-.364 1.383 0 .91.547 1.565.546.619 1.639 1.202t2.734 1.383q2.003.946 3.389 1.966 1.42 1.02 2.186 2.403.765 1.383.765 3.421m12.383 7.574q-2.952 0-5.029-1.056-2.077-1.092-3.171-3.349-1.092-2.257-1.093-5.788 0-3.64 1.239-5.934t3.426-3.386q2.222-1.092 5.102-1.092 2.04 0 3.535.4 1.53.401 2.66.947l-1.604 4.187q-1.275-.51-2.405-.838a7.6 7.6 0 0 0-2.186-.327q-1.421 0-2.369.691-.947.656-1.421 2.003-.438 1.31-.438 3.312 0 1.965.474 3.277.51 1.274 1.458 1.93.947.618 2.296.618 1.712 0 3.024-.437 1.312-.473 2.551-1.274v4.623q-1.239.8-2.624 1.129-1.348.364-3.425.364m21.744-20.605q.4 0 .948.037.546.036.874.109l-.401 5.096a4 4 0 0 0-.765-.109 5.6 5.6 0 0 0-.838-.073q-1.057 0-2.041.292a5.3 5.3 0 0 0-1.786.837q-.765.582-1.239 1.565-.437.947-.437 2.366v10.12h-5.43V11.187h4.118l.802 3.35h.255a8.2 8.2 0 0 1 1.457-1.857 7.1 7.1 0 0 1 2.005-1.347 6.1 6.1 0 0 1 2.478-.51m12.885-.038q4.008 0 6.122 1.748 2.15 1.71 2.15 5.278v13.251h-3.79l-1.057-2.694h-.145q-.838 1.056-1.75 1.748a5.3 5.3 0 0 1-2.04.982q-1.13.328-2.806.328-1.749 0-3.171-.655a5.14 5.14 0 0 1-2.186-2.075q-.802-1.42-.802-3.568 0-3.166 2.223-4.66 2.223-1.529 6.669-1.674l3.462-.11v-.873q0-1.566-.838-2.293-.802-.728-2.26-.728a9.4 9.4 0 0 0-2.842.436q-1.385.4-2.77 1.02l-1.786-3.677a15.7 15.7 0 0 1 3.535-1.31 17.4 17.4 0 0 1 4.082-.474m.765 11.14q-2.624.072-3.644.946t-1.02 2.294q0 1.238.728 1.783.73.51 1.895.51 1.75 0 2.952-1.02 1.203-1.055 1.203-2.948v-1.638zm24.144-11.103q3.353 0 5.43 2.621 2.077 2.585 2.077 7.645 0 3.386-.984 5.715-.984 2.294-2.697 3.459t-3.972 1.165q-1.422 0-2.478-.364a6 6 0 0 1-1.749-.947 9 9 0 0 1-1.276-1.238h-.291q.146.692.218 1.457.073.727.073 1.456V39.8h-5.43V11.186h4.41l.765 2.585h.255a7.5 7.5 0 0 1 1.312-1.456 5.7 5.7 0 0 1 1.822-1.092q1.093-.4 2.515-.4m-1.75 4.332q-1.42 0-2.259.583-.838.582-1.239 1.784-.364 1.165-.401 2.948v.583q0 1.929.364 3.276.365 1.31 1.239 2.002t2.369.692q1.24 0 2.041-.692.801-.69 1.203-2.038.4-1.347.401-3.277 0-2.911-.911-4.368-.876-1.493-2.807-1.493m21.932-4.333q2.769 0 4.737 1.056a7.4 7.4 0 0 1 3.098 3.058q1.093 2.003 1.093 4.914v2.621h-12.827q.072 2.294 1.348 3.604 1.312 1.31 3.608 1.31 1.931 0 3.498-.363a17.7 17.7 0 0 0 3.243-1.201v4.186q-1.457.727-3.097 1.056-1.604.364-3.899.364-2.989 0-5.285-1.092-2.296-1.129-3.607-3.386t-1.312-5.679q0-3.496 1.166-5.788 1.203-2.33 3.316-3.495 2.113-1.164 4.92-1.165m.036 3.86q-1.567 0-2.624 1.018-1.02 1.02-1.202 3.168h7.616q0-1.201-.437-2.148a3.25 3.25 0 0 0-1.239-1.493q-.838-.546-2.114-.546m24.41-3.859q.4 0 .947.037.548.036.875.109l-.401 5.096a4 4 0 0 0-.765-.109 5.6 5.6 0 0 0-.838-.073q-1.057 0-2.041.292a5.3 5.3 0 0 0-1.786.837q-.765.582-1.239 1.565-.437.947-.437 2.366v10.12h-5.43V11.187h4.118l.802 3.35h.255a8.2 8.2 0 0 1 1.458-1.857 7.1 7.1 0 0 1 2.004-1.347 6.1 6.1 0 0 1 2.478-.51"/></g><defs><clipPath id="a"><path fill="#fff" d="M0 0h229v40H0z"/></clipPath></defs></svg>