<svg xmlns="http://www.w3.org/2000/svg" width="118" height="40" fill="none" viewBox="0 0 118 40"><g fill="#fff" clip-path="url(#a)"><path d="M3.1 39.349H0V.487h5.86l5.92 23.686V.479h3.481v38.87H9.69L3.1 16.147zM57.053.479v38.87h12.484v-3.907s-3.6.96-6.726.96V20.045c1.738.01 3.474.126 5.197.349v-4.221a41 41 0 0 1-5.197.348V3.264c3.134 0 6.743 1.104 6.743 1.104V.478zm-39.431 0v38.87h12.484v-3.907s-3.6.96-6.726.96V20.045a43 43 0 0 1 5.198.349v-4.221a41 41 0 0 1-5.198.348V3.264c3.134 0 6.743 1.104 6.743 1.104V.478zM32.569 39.34V.48h7.6l3.89 24.934L47.006.479h7.644v38.879h-5.52V9.523l-4.11 29.835h-4.426L35.67 9.574v29.767zM79.38 3.06c4.06 0 2.82 9.206 2.82 9.206l6.038-1.036C87.652.776 82.709-.167 79.228.02c-3.483.187-8.043 2.59-7.644 9.851s4.909 9.028 8.858 14.888c2.08 3.082 2.08 12.212-.654 12.212-4.102 0-2.964-9.868-2.964-9.868l-6.54-.187c.501 9.053 4.884 13.308 9.767 13.036s8.314-4.06 7.94-10.726c-.407-7.372-3.159-9.911-7.227-13.877C76.01 10.695 76.314 3.06 79.38 3.06m28.926 0c4.059 0 2.819 9.206 2.819 9.206l6.038-1.036C116.578.776 111.635-.167 108.153.02s-8.043 2.59-7.643 9.851 4.908 9.028 8.857 14.888c2.081 3.082 2.089 12.212-.654 12.212-4.102 0-2.964-9.868-2.964-9.868l-6.539-.187c.501 9.053 4.883 13.308 9.767 13.036s8.314-4.06 7.94-10.726c-.407-7.372-3.159-9.911-7.227-13.877-4.756-4.654-4.45-12.289-1.384-12.289M96.781.479h-6.14V39.34h6.14z"/></g><defs><clipPath id="a"><path fill="#fff" d="M0 0h117.197v40H0z"/></clipPath></defs></svg>