<svg xmlns="http://www.w3.org/2000/svg" xml:space="preserve" viewBox="0 0 81.6 24.5"><path d="M27.1 11.3c-.4-.4-.8-.6-1.3-.8q-.75-.3-1.5-.3c-.8 0-1.6.2-2.2.6s-1.1.9-1.5 1.6c-.3.7-.5 1.4-.5 2.3s.2 1.7.5 2.3q.45 1.05 1.5 1.5c.6.4 1.4.5 2.3.5q1.05 0 1.8-.3c.5-.2 1-.5 1.3-.9s.6-.8.7-1.3l-1.9-.2c-.1.2-.2.4-.4.6s-.4.3-.6.4-.5.1-.8.1c-.5 0-.8-.1-1.2-.3-.3-.2-.6-.5-.8-.8s-.3-.8-.3-1.2h6.1v-.6c0-.8-.1-1.4-.3-1.9s-.5-.9-.9-1.3m-4.9 2.6q0-.45.3-.9c.2-.3.4-.6.8-.8.3-.2.7-.3 1.1-.3s.7.1 1 .3.5.4.7.7.3.6.3 1zm11.5 3.5h-.4c-.2 0-.3 0-.5-.1-.1-.1-.3-.1-.3-.3-.1-.1-.1-.4-.1-.6V12h1.7v-1.6h-1.7v-2h-2.1v2H29V12h1.3v4.8c0 .5.1 1 .4 1.3.2.4.6.6 1 .8s.9.2 1.4.2c.3 0 .5 0 .7-.1.2 0 .4-.1.5-.1l-.3-1.6c-.1 0-.1 0-.3.1m11.6-7.1c-.6 0-1.2.1-1.7.4s-.8.7-1 1.1h-.1c-.2-.5-.5-.9-.9-1.1-.4-.3-.9-.4-1.5-.4s-1.1.1-1.5.4-.7.7-.9 1.1h-.1v-1.5h-2V19h2.1v-5.2c0-.4.1-.7.2-.9q.15-.45.6-.6c.2-.1.5-.2.8-.2.4 0 .8.1 1.1.4s.4.6.4 1.1V19h2v-5.3c0-.5.1-.9.4-1.2s.7-.5 1.2-.5c.4 0 .8.1 1.1.4.3.2.4.6.4 1.2V19H48v-5.7c0-1-.3-1.7-.8-2.2s-1.1-.8-1.9-.8m10.5.6c-.3-.2-.7-.4-1.2-.5-.4-.1-.8-.1-1.3-.1-.6 0-1.2.1-1.7.3s-.9.4-1.3.8c-.4.3-.6.8-.8 1.3l1.9.3c.1-.3.3-.5.6-.8q.45-.3 1.2-.3c.5 0 .9.1 1.1.3.3.2.4.6.4 1 0 .2-.1.3-.2.4s-.4.2-.7.2-.7.1-1.3.1c-.4 0-.8.1-1.2.2s-.8.2-1.1.4-.6.4-.8.8q-.3.45-.3 1.2c0 .6.1 1 .4 1.4s.6.7 1.1.9c.4.2 1 .3 1.5.3s.9-.1 1.2-.2.6-.3.9-.5c.2-.2.4-.4.5-.7h.3V19h2v-5.7c0-.6-.1-1-.3-1.4-.2-.5-.5-.8-.9-1m-.9 5q0 .45-.3.9c-.2.3-.4.5-.7.6-.3.2-.7.2-1.1.2s-.8-.1-1.1-.3-.4-.5-.4-.8.1-.5.2-.6c.1-.2.3-.3.6-.4.2-.1.5-.2.8-.2.1 0 .3 0 .5-.1.2 0 .4-.1.6-.1s.4-.1.5-.1c.2 0 .3-.1.3-.1v1zm11.7-5.5h-2.4L61 13.9h-.2V7.6h-2V19h2v-2.9l.8-.8 2.7 3.7h2.5l-3.6-4.9zm7.3.9c-.4-.4-.8-.6-1.3-.8q-.75-.3-1.5-.3c-.8 0-1.6.2-2.2.6s-1.1.9-1.5 1.6c-.3.7-.5 1.4-.5 2.3s.2 1.7.5 2.3q.45 1.05 1.5 1.5c.6.4 1.4.5 2.3.5q1.05 0 1.8-.3c.5-.2 1-.5 1.3-.9s.6-.8.7-1.3l-1.9-.2c-.1.2-.2.4-.4.6s-.4.3-.6.4-.5.1-.8.1c-.5 0-.8-.1-1.2-.3-.3-.2-.6-.5-.8-.8s-.3-.8-.3-1.2h6.1v-.6c0-.8-.1-1.4-.3-1.9s-.5-.9-.9-1.3M69 13.9q0-.45.3-.9c.2-.3.4-.6.8-.8.3-.2.7-.3 1.1-.3s.7.1 1 .3.5.4.7.7.3.6.3 1zm12.2-3.6h-.4c-.5 0-1 .1-1.4.4s-.7.6-.8 1.1h-.1v-1.4h-2V19h2.1v-5c0-.4.1-.7.3-1s.4-.5.7-.7.6-.2 1-.2h.5c.2 0 .3 0 .4.1v-1.9zm-60.8-5L17.2.4c-.2-.4-.7-.5-1.1-.2-.1.1-.2.1-.2.2-4 5.9-4.4 6.3-.9 6.2V16L6.3 4.1c-.4-.5-1-.9-1.7-.8-1.2 0-2.1.9-2.1 2V18H.8c-.4 0-.8.3-.8.8 0 .2 0 .3.1.4l3.2 4.9c.2.4.7.5 1.1.2.1-.1.2-.1.2-.2 4-5.9 4.4-6.2 1-6.2V8.2l8.9 12.2c.4.5.9.8 1.6.8 1.1 0 1.9-.9 1.9-1.9V6.5h1.7c.4 0 .8-.4.8-.8 0-.2 0-.3-.1-.4" style="fill:#fafafa"/></svg>