<svg xmlns="http://www.w3.org/2000/svg" width="300" height="41.744" viewBox="0 0 300 41.744"><path fill="#fff" d="M29.74 12.167q0-1.514-.081-2.433a6.2 6.2 0 0 0-.27-1.46 2.8 2.8 0 0 0-.433-.838q-.243-.3-.568-.622-.649-.541-1.406-1.054a1.5 1.5 0 0 1-.757-1.271 1.03 1.03 0 0 1 .46-.973 2.64 2.64 0 0 1 1.325-.27h6.759a2.64 2.64 0 0 1 1.325.27 1.03 1.03 0 0 1 .46.973 1.5 1.5 0 0 1-.757 1.271q-.757.514-1.406 1.054-.324.324-.568.622a2.8 2.8 0 0 0-.433.838 6.2 6.2 0 0 0-.27 1.46q-.081.919-.081 2.433v26.5a3.13 3.13 0 0 1-.487 2.136 2.14 2.14 0 0 1-1.514.46 2.22 2.22 0 0 1-1.6-.541 20 20 0 0 1-1.757-2.109L9.409 15.195q-.379-.487-.568-.7a.54.54 0 0 0-.406-.219q-.216 0-.3.27a4.6 4.6 0 0 0-.135.811l-.592 16.709q-.054 1.514 0 2.433a5.6 5.6 0 0 0 .243 1.46 2.4 2.4 0 0 0 .46.838q.27.3.595.622a14 14 0 0 0 1.406 1.027 1.48 1.48 0 0 1 .757 1.3 1.03 1.03 0 0 1-.46.973 2.64 2.64 0 0 1-1.325.27H2.271a2.64 2.64 0 0 1-1.325-.27 1.03 1.03 0 0 1-.46-.973 1.49 1.49 0 0 1 .73-1.3 16 16 0 0 0 1.379-1.027q.324-.324.568-.622a2.4 2.4 0 0 0 .406-.838 9 9 0 0 0 .27-1.46q.108-.919.162-2.433l.761-20.008a2.27 2.27 0 0 0-.463-1.482q-.514-.73-2.028-2.46Q1.19 6.816.595 6.088A2.34 2.34 0 0 1 0 4.596a1.19 1.19 0 0 1 .46-1 2.05 2.05 0 0 1 1.271-.351h5.947a2.35 2.35 0 0 1 1.757.757 21 21 0 0 1 1.812 2.274l17.142 22.221q.379.541.514.7a.5.5 0 0 0 .406.162.335.335 0 0 0 .351-.216 2 2 0 0 0 .081-.649Zm23.955.919a15.2 15.2 0 0 1 5.38.946 13.2 13.2 0 0 1 4.38 2.677 12.75 12.75 0 0 1 2.974 4.217 13.5 13.5 0 0 1 1.109 5.57 17 17 0 0 1-1.081 6.164 14.2 14.2 0 0 1-3 4.813 13.6 13.6 0 0 1-4.623 3.136 15.97 15.97 0 0 1-11.328.189 13.2 13.2 0 0 1-4.38-2.677 12.75 12.75 0 0 1-2.974-4.218 13.5 13.5 0 0 1-1.109-5.57 17 17 0 0 1 1.081-6.164 14.2 14.2 0 0 1 3-4.813 13.6 13.6 0 0 1 4.623-3.136 15.2 15.2 0 0 1 5.948-1.134m-1.133 3.136a6.6 6.6 0 0 0-5.326 2.433 10.16 10.16 0 0 0-2.028 6.705 21.6 21.6 0 0 0 .595 5.137 14.4 14.4 0 0 0 1.7 4.218 8.85 8.85 0 0 0 2.759 2.839 6.83 6.83 0 0 0 3.758 1.054 6.67 6.67 0 0 0 5.353-2.432 10.07 10.07 0 0 0 2.055-6.705 21.6 21.6 0 0 0-.595-5.137 14.4 14.4 0 0 0-1.7-4.218 8.74 8.74 0 0 0-2.788-2.84 6.96 6.96 0 0 0-3.783-1.054m28.873 24.766h-8.111a3.1 3.1 0 0 1-1.622-.3 1.01 1.01 0 0 1-.433-.892 1.06 1.06 0 0 1 .46-.919q.46-.324 1.054-.811a3.65 3.65 0 0 0 .919-1.325 9.9 9.9 0 0 0 .324-3.163V22.765a6.06 6.06 0 0 0-.7-3.434 2.58 2.58 0 0 0-2.217-.946h-.162a1 1 0 0 1-.649-.216.78.78 0 0 1-.27-.649 1.94 1.94 0 0 1 .754-1.352 9.4 9.4 0 0 1 1.893-1.325 11.6 11.6 0 0 1 2.514-1 10 10 0 0 1 2.673-.379q.649 0 .919 1.081a29 29 0 0 1 .487 4.164l.108 1.136a12.2 12.2 0 0 1 3.461-5.056 8.87 8.87 0 0 1 5.732-1.7 8.34 8.34 0 0 1 5.3 1.649 8.9 8.9 0 0 1 2.974 4.948 12.16 12.16 0 0 1 3.434-4.921 8.76 8.76 0 0 1 5.651-1.676 7.8 7.8 0 0 1 6.543 2.92q2.271 2.92 2.271 8.76v8.807a10.7 10.7 0 0 0 .3 3.163 3.15 3.15 0 0 0 .946 1.325 9 9 0 0 0 1.027.811 1.04 1.04 0 0 1 .487.919 1.01 1.01 0 0 1-.433.892 2.95 2.95 0 0 1-1.568.3h-8.111a3.25 3.25 0 0 1-1.649-.3.99.99 0 0 1-.46-.892.98.98 0 0 1 .406-.838q.406-.3 1.433-.892a3.3 3.3 0 0 0 1.19-1.487 10.6 10.6 0 0 0 .487-3.92v-7.621a10 10 0 0 0-1.46-5.84 4.86 4.86 0 0 0-4.219-2.055q-2.92 0-4.326 3.163a20.7 20.7 0 0 0-1.406 8.3v4.056a11 11 0 0 0 .46 3.893 3.54 3.54 0 0 0 1.163 1.514q.973.649 1.352.919a.93.93 0 0 1 .379.811.99.99 0 0 1-.46.892 3.1 3.1 0 0 1-1.6.3h-8.6a3.1 3.1 0 0 1-1.622-.3 1.01 1.01 0 0 1-.433-.892.93.93 0 0 1 .379-.811q.379-.27 1.352-.919a3.54 3.54 0 0 0 1.163-1.514 11 11 0 0 0 .46-3.893v-7.624a10 10 0 0 0-1.46-5.84 4.86 4.86 0 0 0-4.212-2.055q-2.866 0-4.326 3.163a20 20 0 0 0-1.46 8.3v4.056a10.1 10.1 0 0 0 .514 3.92 3.46 3.46 0 0 0 1.217 1.487 14 14 0 0 1 1.406.892 1.127 1.127 0 0 1-.054 1.73 2.95 2.95 0 0 1-1.569.299m39.149-8.112a7.9 7.9 0 0 1 .811-3.542 8.8 8.8 0 0 1 2.167-2.811 9.8 9.8 0 0 1 3.217-1.811 12 12 0 0 1 3.974-.649 11.6 11.6 0 0 1 4.11.676 6.2 6.2 0 0 1 2.812 2.028v-4.381a7.46 7.46 0 0 0-1.325-4.84q-1.325-1.6-4.569-1.6-.595 0-1.163.027t-1.056.087a8 8 0 0 1-1.433 4.461 3.43 3.43 0 0 1-2.677 1.379 3.16 3.16 0 0 1-2.163-.811 2.8 2.8 0 0 1-.919-2.217q0-2.163 2.433-3.974t7.787-1.811q5.407 0 8.111 2.244t2.7 6.894v8.273a18.7 18.7 0 0 0 .3 3.731 4.74 4.74 0 0 0 1.163 2.325 3.48 3.48 0 0 0 2 1.136q.973.108.973.649a1.8 1.8 0 0 1-.3.784 4 4 0 0 1-.865 1 5.7 5.7 0 0 1-1.433.865 4.95 4.95 0 0 1-2 .379h-.216a4.26 4.26 0 0 1-3.109-1.081 5.5 5.5 0 0 1-1.487-2.92 7.67 7.67 0 0 1-3.109 3.19 10.99 10.99 0 0 1-12.03-1.38 8.35 8.35 0 0 1-2.704-6.3m6-.054a5.42 5.42 0 0 0 1.622 4.326 5.6 5.6 0 0 0 3.785 1.406 6.4 6.4 0 0 0 3.947-1.3 4.62 4.62 0 0 0 1.73-3.947v-1.404a4.37 4.37 0 0 0-1.73-3.758 6.4 6.4 0 0 0-3.893-1.271 5.8 5.8 0 0 0-3.839 1.352q-1.62 1.35-1.62 4.597Zm34.178 8.923a11.5 11.5 0 0 1-4.731-.973 11.2 11.2 0 0 1-3.785-2.731 12.9 12.9 0 0 1-2.514-4.245 15.8 15.8 0 0 1-.919-5.515 17.2 17.2 0 0 1 1.049-6.138 14.9 14.9 0 0 1 2.869-4.785 13 13 0 0 1 4.3-3.136 12.6 12.6 0 0 1 5.3-1.136 11.8 11.8 0 0 1 4.137.676 10 10 0 0 1 3.163 1.866V9.247a5.56 5.56 0 0 0-.757-3.434 2.81 2.81 0 0 0-2.271-.892h-.216a.85.85 0 0 1-.7-.27 1.1 1.1 0 0 1-.216-.7 1.9 1.9 0 0 1 .757-1.244 8.3 8.3 0 0 1 1.947-1.3 14 14 0 0 1 2.731-1 12 12 0 0 1 3.055-.406q.811 0 1.19 1.054a14.6 14.6 0 0 1 .379 4.137v24.984a10.4 10.4 0 0 0 .784 4.813 2.51 2.51 0 0 0 2.3 1.352h.108a.88.88 0 0 1 .649.216.8.8 0 0 1 .216.595 2.04 2.04 0 0 1-.7 1.325 8.4 8.4 0 0 1-1.811 1.379 12 12 0 0 1-2.487 1.081 9.3 9.3 0 0 1-2.785.433q-.7 0-.973-1.109a30 30 0 0 1-.487-4.245l-.108-1.081a12.54 12.54 0 0 1-3.488 5.056 9.15 9.15 0 0 1-5.986 1.754m-5.9-16.06a16.76 16.76 0 0 0 2.055 8.76 6.43 6.43 0 0 0 5.786 3.407 5.6 5.6 0 0 0 5.164-3.163 18 18 0 0 0 1.757-8.679v-3.134a6.4 6.4 0 0 0-1.92-4.921 7.05 7.05 0 0 0-5-1.784 7.44 7.44 0 0 0-5.624 2.325q-2.218 2.322-2.218 7.189m36.77-21.359a3.86 3.86 0 0 1-1.054 2.812 3.78 3.78 0 0 1-2.839 1.081 3.8 3.8 0 0 1-2.812-1.081 3.8 3.8 0 0 1-1.081-2.812 3.83 3.83 0 0 1 1.081-2.785 3.75 3.75 0 0 1 2.812-1.109 3.73 3.73 0 0 1 2.839 1.109 3.88 3.88 0 0 1 1.059 2.785Zm-2.109 9.138q.865 0 1.244 1.054a14.9 14.9 0 0 1 .378 4.191v14.867a9.9 9.9 0 0 0 .324 3.163 3.4 3.4 0 0 0 .973 1.325 9 9 0 0 0 1.027.811 1.04 1.04 0 0 1 .487.919.99.99 0 0 1-.46.892 3.25 3.25 0 0 1-1.649.3h-7.3a3.1 3.1 0 0 1-1.622-.3 1.01 1.01 0 0 1-.433-.892 1.06 1.06 0 0 1 .46-.919q.46-.324 1.054-.811a3.65 3.65 0 0 0 .919-1.325 9.9 9.9 0 0 0 .324-3.163V22.765a5.87 5.87 0 0 0-.73-3.434 2.66 2.66 0 0 0-2.244-.946h-.162a.9.9 0 0 1-.622-.216.82.82 0 0 1-.243-.649 1.9 1.9 0 0 1 .814-1.352 10 10 0 0 1 2.055-1.325 14 14 0 0 1 2.677-1 10.7 10.7 0 0 1 2.734-.379Zm31.363 20.6a4.54 4.54 0 0 1-.757 2.109 10.3 10.3 0 0 1-2.19 2.541 13.3 13.3 0 0 1-3.515 2.136 11.6 11.6 0 0 1-4.623.892 13.5 13.5 0 0 1-5.029-.946 12.5 12.5 0 0 1-4.137-2.65 12.3 12.3 0 0 1-2.785-4.164 14.1 14.1 0 0 1-1.027-5.488 16.7 16.7 0 0 1 1.108-6.137 14.17 14.17 0 0 1 7.868-8.111 15.4 15.4 0 0 1 6.063-1.16 10.4 10.4 0 0 1 6.164 1.568 4.95 4.95 0 0 1 2.161 4.222 3.45 3.45 0 0 1-.946 2.6 3.1 3.1 0 0 1-2.244.919 3.37 3.37 0 0 1-2.812-1.568 10.66 10.66 0 0 1-1.514-4.975 1.8 1.8 0 0 0-.433-.054h-.433a9.1 9.1 0 0 0-6.705 2.65 9.87 9.87 0 0 0-2.65 7.3 14.6 14.6 0 0 0 .757 4.894 10.4 10.4 0 0 0 2.028 3.542 8.1 8.1 0 0 0 3.028 2.109 9.9 9.9 0 0 0 3.7.7 7.5 7.5 0 0 0 3.217-.622 11.4 11.4 0 0 0 2.244-1.352 15 15 0 0 0 1.514-1.352 1.63 1.63 0 0 1 1.081-.622.75.75 0 0 1 .649.3 1.2 1.2 0 0 1 .222.721Zm2.976-1.188a7.9 7.9 0 0 1 .811-3.542 8.8 8.8 0 0 1 2.163-2.812 9.8 9.8 0 0 1 3.217-1.811 12 12 0 0 1 3.974-.649 11.6 11.6 0 0 1 4.11.676 6.2 6.2 0 0 1 2.812 2.028v-4.38a7.46 7.46 0 0 0-1.325-4.84q-1.325-1.6-4.569-1.6-.595 0-1.163.027t-1.054.081a8 8 0 0 1-1.433 4.461 3.43 3.43 0 0 1-2.677 1.379 3.16 3.16 0 0 1-2.163-.811 2.8 2.8 0 0 1-.919-2.217q0-2.163 2.433-3.974t7.787-1.811q5.407 0 8.111 2.244t2.7 6.894v8.273a18.7 18.7 0 0 0 .3 3.731 4.74 4.74 0 0 0 1.163 2.325 3.48 3.48 0 0 0 2 1.136q.973.108.973.649a1.8 1.8 0 0 1-.3.784 4 4 0 0 1-.865 1 5.7 5.7 0 0 1-1.433.865 4.95 4.95 0 0 1-2 .379h-.216a4.26 4.26 0 0 1-3.109-1.081 5.5 5.5 0 0 1-1.487-2.92 7.67 7.67 0 0 1-3.109 3.19 10.99 10.99 0 0 1-12.026-1.374 8.35 8.35 0 0 1-2.706-6.3m6-.054a5.42 5.42 0 0 0 1.622 4.326 5.6 5.6 0 0 0 3.785 1.406 6.4 6.4 0 0 0 3.947-1.3 4.62 4.62 0 0 0 1.73-3.947v-1.404a4.37 4.37 0 0 0-1.73-3.758 6.4 6.4 0 0 0-3.893-1.271 5.8 5.8 0 0 0-3.839 1.352q-1.622 1.35-1.622 4.597Zm34.229 8.165h-8.539a3.1 3.1 0 0 1-1.622-.3 1.01 1.01 0 0 1-.433-.892 1.06 1.06 0 0 1 .46-.919q.46-.324 1.054-.811a3.65 3.65 0 0 0 .919-1.325 9.9 9.9 0 0 0 .324-3.163V22.765a6.06 6.06 0 0 0-.7-3.434 2.58 2.58 0 0 0-2.217-.946h-.162a1 1 0 0 1-.649-.216.78.78 0 0 1-.27-.649 1.94 1.94 0 0 1 .757-1.352 9.4 9.4 0 0 1 1.893-1.325 11.6 11.6 0 0 1 2.514-1 10 10 0 0 1 2.677-.379q.649 0 .919 1.081a29 29 0 0 1 .487 4.164l.216 2.271a14.14 14.14 0 0 1 3.271-6 6.6 6.6 0 0 1 4.731-1.893 3.73 3.73 0 0 1 2.92 1.081 3.97 3.97 0 0 1 .971 2.757 4.87 4.87 0 0 1-1 3.109 3.03 3.03 0 0 1-2.46 1.271 3.13 3.13 0 0 1-2.271-.892 5.3 5.3 0 0 1-1.298-2.837 8.1 8.1 0 0 0-3.163 4 21.4 21.4 0 0 0-1.271 8.273v2.812a9.4 9.4 0 0 0 .568 3.92 3.1 3.1 0 0 0 1.379 1.487q1.027.541 1.568.865a1.02 1.02 0 0 1 .541.919.94.94 0 0 1-.46.838 3.25 3.25 0 0 1-1.65.298Zm35.9-6.759a4.2 4.2 0 0 1-.811 2.028 10.8 10.8 0 0 1-2.3 2.487 14.5 14.5 0 0 1-3.623 2.109 12.5 12.5 0 0 1-4.84.892 14.6 14.6 0 0 1-5.245-.946 12.7 12.7 0 0 1-4.3-2.677 12.4 12.4 0 0 1-2.866-4.245 14.3 14.3 0 0 1-1.054-5.6 18.1 18.1 0 0 1 1-6.11 14.1 14.1 0 0 1 2.824-4.808 12.7 12.7 0 0 1 4.434-3.136 14.5 14.5 0 0 1 5.813-1.136 12.2 12.2 0 0 1 4.488.784 10.2 10.2 0 0 1 3.38 2.106A9 9 0 0 1 299 19.085a9.9 9.9 0 0 1 .73 3.785 7.4 7.4 0 0 1-.595 3.407 2 2 0 0 1-1.893 1.081h-16.38q.595 4.921 3.407 7.192a10.03 10.03 0 0 0 6.489 2.271 8.3 8.3 0 0 0 3.353-.595 10.4 10.4 0 0 0 2.244-1.3 17 17 0 0 0 1.487-1.3 1.65 1.65 0 0 1 1.081-.595 1 1 0 0 1 .811.324 1.3 1.3 0 0 1 .266.874Zm-12.536-18.114a6.34 6.34 0 0 0-4.758 2.109q-2 2.109-2 6.489l12.275-.27q.7 0 .892-.27a1.3 1.3 0 0 0 .189-.757 7.92 7.92 0 0 0-1.757-5.11 5.87 5.87 0 0 0-4.841-2.191" data-name="Path 113"/></svg>