<svg xmlns="http://www.w3.org/2000/svg" width="237" height="40" fill="none" viewBox="0 0 237 40"><g fill="#fff" clip-path="url(#a)"><path d="m32.86 31.221-.1-15.535q0-3.485-.697-5.925t-2.39-3.933-4.232-1.793a.44.44 0 0 1-.199-.05q-.05-.049 0-.099.1-.1.2-.1 3.733 0 6.372-.199 2.689-.248 4.78-.946.15-.05.199.1.1.099-.1.15-.996.248-1.792 1.294-.797.996-1.344 3.336-.548 2.29-.548 8.016 0 10.506.05 14.887.099 4.332.348 9.162.05.299-.1.299-.149.05-.248-.1-4.83-6.522-13.841-17.178Q10.704 12.5 6.522 8.168q-.05 2.14 0 9.51.1 7.32.1 8.714 0 3.684.697 6.074.747 2.39 2.39 3.883 1.643 1.494 4.032 2.042.25.05.2.199-.05.1-.2.05-2.639-.399-5.775-.349t-5.676.498q-.2.05-.249-.1-.05-.1.15-.149a4.2 4.2 0 0 0 2.39-1.643q.895-1.294 1.344-3.435.448-2.191.448-7.07 0-13.095-.2-16.133-.198-2.937-2.19-4.53a8.8 8.8 0 0 0-1.992-1.196Q.997 4.035.2 4.035q-.2 0-.199-.1 0-.148.2-.148 4.181 0 7.467-.996.399-.1.598-.05.199 0 .348.348 2.44 3.636 13.493 16.63 6.77 7.966 10.754 11.502m24.866 4.232v-1.842q-1.892 2.54-4.332 4.033t-4.73 1.494q-3.186 0-4.978-2.141-1.792-2.191-1.792-6.025l.05-5.577q0-.647-.05-2.24 0-1.593-.15-3.934-.099-2.39-.747-3.535-.597-1.194-2.041-1.195-.15 0-.15-.1 0-.149.15-.149 1.942 0 3.933-.398 1.992-.448 3.037-1.145.448-.3.349.2-.3 4.132-.299 13.044l.2 3.635q.347 3.983 1.692 5.726 1.343 1.742 3.734 1.742 3.285 0 6.124-3.784l.1-7.319q0-4.53-.2-6.87-.2-2.341-.796-3.437-.598-1.145-2.042-1.145-.198 0-.199-.1 0-.099.2-.149 1.99 0 3.684-.249a8.8 8.8 0 0 0 3.236-1.244q.1-.05.249-.1.2-.1.199.299-.3 4.133-.299 12.995 0 2.887.05 5.178.1 2.241.348 3.486.25 1.245.698 2.09.497.847 2.14 1.345.15.05.15.15t-.15.1q-4.131 0-6.77.597-.4.05-.449-.349-.15-.846-.15-3.087m17.486-17.476v-.249q-.1 3.137-.1 8.265 0 7.17.3 9.51.347 2.34 1.542 2.888.15.05.15.15t-.15.099q-4.68-.548-8.414.1-.198.05-.249-.1 0-.099.25-.15 1.393-.299 1.792-1.493.398-1.245.547-3.535.2-2.34.2-7.469v-2.19q0-1.594-.15-4.034t-.796-3.833q-.599-1.444-2.042-1.444-.199 0-.199-.1 0-.15.2-.15 1.742 0 3.733-.398 2.042-.447 3.237-1.195.398-.25.348.25l-.2 4.68q1.794-2.34 3.934-3.635 2.19-1.344 4.232-1.344 1.046 0 2.24.498 1.245.448 2.191 1.742a6.8 6.8 0 0 1 1.344 2.888q2.041-2.49 4.183-3.784 2.14-1.344 4.082-1.344 2.988 0 4.531 2.041 1.593 1.992 1.593 5.726 0 7.817.05 10.307.1 2.439.398 3.883.298 1.395.846 2.29.599.847 1.842 1.195.15.051.15.15 0 .1-.15.1-2.987-.15-6.621.597-.449.05-.498-.448-.15-.747-.15-3.037 0-1.045.05-4.78t0-5.676a61 61 0 0 0-.15-3.187q-.546-6.92-4.978-6.92-1.045 0-2.44.696-1.343.647-2.688 2.54.2.846.2 2.09l-.05 6.523q-.15 5.826.199 8.515.348 2.638 2.04 3.186.1.05.1.2 0 .099-.199.049-1.793-.3-4.281-.299-2.44 0-4.332.399-.2.05-.199-.1 0-.099.2-.15 1.095-.298 1.543-1.294.497-1.046.697-3.435.199-2.44.199-7.12 0-2.938-.2-5.428-.248-2.937-1.493-4.68-1.245-1.792-3.236-1.792-2.888 0-5.178 3.236m39.682 17.775q-2.34 1.394-3.684 2.988-.1.15-.199.1-.1-.05 0-.25.597-.895.796-2.49.2-1.643.199-13.393 0-9.012-.199-13.095-.15-4.133-.697-5.825-.547-1.743-2.091-1.743-.2 0-.199-.1 0-.149.199-.149 1.792 0 3.684-.398 1.942-.448 3.286-1.145.249-.15.349-.1.1 0 .049.299l-.348 16.48q1.643-1.842 3.983-3.087 2.39-1.244 4.979-1.244 1.941 0 3.784.846 1.891.846 3.335 2.49 1.493 1.643 2.341 4.033.895 2.34.895 5.128 0 3.037-1.095 5.676-1.046 2.59-2.888 4.481a13.9 13.9 0 0 1-4.182 2.888q-2.34.996-4.729.996a10.7 10.7 0 0 1-2.988-.448 9 9 0 0 1-2.688-1.195q-1.145-.846-1.892-1.743m1.145-18.472v4.232q.05 6.373 1.095 9.61a11.1 11.1 0 0 0 2.091 3.834q1.444 1.692 2.789 2.34 1.394.647 2.091.746.697.05.946.05 3.036 0 4.779-2.041 1.792-2.042 1.792-6.074 0-2.64-.796-5.428-.747-2.838-2.141-5.178-1.344-2.34-3.137-3.734-1.792-1.444-3.684-1.444-1.543 0-3.087.847-1.543.795-2.738 2.24m27.699 7.568a20.2 20.2 0 0 0 1.195 4.531q.895 2.141 2.241 3.784 1.343 1.593 3.087 2.49a8.35 8.35 0 0 0 3.783.896 8.8 8.8 0 0 0 3.485-.697q1.693-.747 2.59-1.842.1-.15.198-.1.15.05 0 .249a17.4 17.4 0 0 1-4.629 3.635q-2.54 1.344-5.178 1.344-.996 0-2.341-.299-1.294-.298-2.639-1.145-1.343-.846-2.638-2.34-1.245-1.544-2.091-3.934-.797-2.39-.797-5.178 0-3.186 1.095-5.776 1.096-2.639 2.888-4.331 1.792-1.743 3.933-2.64 2.191-.895 4.232-.895 1.245 0 2.689.498 1.493.448 2.838 1.593t2.34 3.087q1.046 1.892 1.145 4.53l-.15.2q-1.543.299-7.368 1.145-5.775.797-9.908 1.195m-.049-.249q5.675-.597 10.804-1.394.896-.15 1.343-.548.499-.398.2-1.942-.249-1.244-.996-2.838-.748-1.643-2.29-2.887-1.494-1.296-3.386-1.295-2.787 0-4.332 2.041-1.543 2.042-1.543 5.826 0 1.692.2 3.037m27.497-1.793v3.137q0 6.075.149 8.216.2 2.14.697 3.087.547.896 1.743 1.145.15.05.1.199 0 .1-.15.05-1.991-.25-4.48-.25a24 24 0 0 0-4.73.35q-.15.049-.15-.1 0-.1.15-.15 1.095-.298 1.444-.796.398-.548.597-1.444.249-.946.399-2.988.198-2.091.199-7.319v-2.34q0-1.693-.15-4.132-.149-2.49-.796-3.735-.598-1.245-2.042-1.245-.149 0-.149-.1 0-.149.149-.149 1.644 0 3.635-.348 2.04-.399 3.336-1.195a.5.5 0 0 1 .198-.1q.15-.05.15.3-.299 5.376-.299 9.16 1.743-4.63 4.58-7.17 2.838-2.538 5.826-2.29.2 0 .199.25 0 4.082.597 7.02.05.05-.05.1-.049.05-.099 0-.698-1.545-1.892-2.39a4.25 4.25 0 0 0-2.588-.847q-2.143 0-3.934 1.544-1.743 1.544-2.639 4.53m16.845 2.042a20.2 20.2 0 0 0 1.195 4.531q.896 2.141 2.241 3.784 1.344 1.593 3.087 2.49a8.35 8.35 0 0 0 3.784.896q1.842 0 3.484-.697 1.693-.747 2.59-1.842.098-.15.198-.1.15.05 0 .249a17.4 17.4 0 0 1-4.629 3.635q-2.54 1.344-5.178 1.344-.996 0-2.341-.299-1.293-.298-2.639-1.145-1.343-.846-2.639-2.34-1.244-1.544-2.09-3.934-.797-2.39-.797-5.178 0-3.186 1.095-5.776 1.096-2.639 2.888-4.331 1.792-1.743 3.934-2.64 2.19-.895 4.231-.895 1.245 0 2.689.498 1.494.448 2.838 1.593t2.34 3.087q1.046 1.892 1.145 4.53l-.15.2q-1.543.299-7.368 1.145-5.775.797-9.908 1.195m-.049-.249q5.674-.597 10.804-1.394.895-.15 1.344-.548.498-.398.199-1.942-.249-1.244-.996-2.838-.747-1.643-2.29-2.887-1.493-1.296-3.385-1.295-2.789 0-4.332 2.041-1.544 2.042-1.544 5.826 0 1.692.2 3.037m41.215 9.609q-1.742 2.34-4.232 3.635-2.439 1.295-5.128 1.295-2.042 0-3.932-.996-1.892-1.046-3.336-2.838a14 14 0 0 1-2.241-4.183 15.3 15.3 0 0 1-.796-4.88q0-2.538.796-5.028a12.2 12.2 0 0 1 2.589-4.382 13.1 13.1 0 0 1 4.132-3.086q2.44-1.146 4.929-1.146 2.29 0 4.332.996 2.041.946 2.788 1.992-.05-5.427-.299-8.216-.2-2.838-.796-4.082-.55-1.245-1.892-1.245-.2 0-.2-.1 0-.15.2-.15 4.88 0 6.87-1.642.449-.399.398.249-.248 4.231-.249 19.717 0 5.378.1 8.564t.348 5.178q.299 1.941.847 2.888.598.896 1.941 1.294.15.05.15.15t-.15.1q-3.384 0-6.571.597-.4.05-.448-.399-.15-1.144-.15-4.282m0-.448.1-4.58q0-4.98-.946-7.967-1.045-3.186-3.485-5.328-2.39-2.19-5.476-2.19-3.038 0-4.731 2.041-1.692 1.992-1.693 5.377 0 2.888 1.047 5.975 1.045 3.087 2.538 5.378 1.545 2.24 3.286 3.286 1.743 1.045 3.386 1.045t3.285-.746a6 6 0 0 0 2.689-2.29"/></g><defs><clipPath id="a"><path fill="#fff" d="M0 0h236.516v40H0z"/></clipPath></defs></svg>