<svg xmlns="http://www.w3.org/2000/svg" width="217" height="40" fill="none" viewBox="0 0 217 40"><g fill="#fff" clip-path="url(#a)"><path d="M5.025 32.455a19.03 19.03 0 0 0 0-25.371 19.09 19.09 0 0 0 0 25.37m28.791.001a19.03 19.03 0 0 0 0-25.371 19.09 19.09 0 0 0 0 25.37M6.745 5.364a19.03 19.03 0 0 0 25.371 0 19.09 19.09 0 0 0-25.371 0m0 28.791a19.03 19.03 0 0 0 25.371 0 19.09 19.09 0 0 0-25.371 0"/><g clip-path="url(#b)"><path d="M5.025 32.455a19.03 19.03 0 0 0 0-25.371 19.09 19.09 0 0 0 0 25.37m28.791.001a19.03 19.03 0 0 0 0-25.371 19.09 19.09 0 0 0 0 25.37M6.745 5.364a19.03 19.03 0 0 0 25.371 0 19.09 19.09 0 0 0-25.371 0m0 28.791a19.03 19.03 0 0 0 25.371 0 19.09 19.09 0 0 0-25.371 0"/></g></g><path fill="#fff" d="M61.118 31.69V19.658c0-2.834 1.874-4.882 4.533-4.882 2.528 0 4.228 1.918 4.228 4.577V31.69h6.103V18.002c0-5.056-3.226-8.63-8.195-8.63-3.008 0-5.449 1.264-6.67 3.4V9.72h-6.102v21.97zM95.08 9.72v12.032c0 2.79-1.875 4.882-4.534 4.882-2.484 0-4.228-1.918-4.228-4.577V9.72h-6.059v13.687c0 5.013 3.226 8.63 8.151 8.63 3.008 0 5.449-1.307 6.67-3.4v3.052h6.102V9.72zm16.651 21.97V19.222c0-2.833 1.613-4.708 4.141-4.708 2.354 0 3.836 1.875 3.836 4.708V31.69h6.103V19.222c0-2.833 1.612-4.708 4.141-4.708 2.353 0 3.879 1.875 3.879 4.708V31.69h6.059V17.304c0-4.403-3.095-7.933-7.89-7.933-3.53 0-6.277 1.874-7.323 4.01-1.046-2.615-3.269-4.01-6.712-4.01-2.965 0-5.057 1.438-6.234 3.443V9.72h-6.102v21.97zm47.282-7.454c-.48 1.874-2.093 2.833-4.534 2.833-3.051 0-5.012-1.918-5.448-5.013h15.779c.044-.48.087-1.133.087-1.961 0-5.013-3.094-10.723-10.853-10.723-7.454 0-10.854 5.71-10.854 11.29 0 5.535 3.836 11.376 11.289 11.376 5.406 0 9.59-3.051 10.462-7.802zm-4.969-10.418c2.92 0 4.62 1.961 4.794 4.402h-9.72c.523-3.051 2.179-4.402 4.926-4.402m28.282-4.098h-2.485c-2.659 0-4.315.916-5.492 3.662V9.721h-6.103V31.69h6.103V21.01c0-3.748 1.351-6.233 4.359-6.233h3.618zm2.558-3.269h6.67V0h-6.67zm6.364 25.239V9.72h-6.102v21.97zm14.655.348c5.71 0 10.243-3.661 10.897-8.543h-6.19c-.435 1.961-2.223 3.313-4.446 3.313-3.313 0-5.274-2.529-5.274-6.103s1.918-6.146 5.187-6.146c2.223 0 4.098 1.438 4.446 3.4h6.103c-.392-5.1-4.969-8.587-10.723-8.587-6.8 0-11.334 4.925-11.334 11.333s4.534 11.333 11.334 11.333"/><defs><clipPath id="a"><path fill="#fff" d="M0 0h39v39H0z"/></clipPath><clipPath id="b"><path fill="#fff" d="M0 0h39v39H0z"/></clipPath></defs></svg>