<svg xmlns="http://www.w3.org/2000/svg" width="40" height="40" fill="none" viewBox="0 0 40 40"><path fill="#00dc82" d="M21.988 31.068h12.256c.39 0 .765-.138 1.104-.332.339-.193.688-.437.883-.773.196-.335.332-.716.331-1.104 0-.387-.135-.768-.33-1.104L27.95 13.512a2 2 0 0 0-.773-.774 2.7 2.7 0 0 0-1.215-.33c-.39 0-.765.137-1.104.33a2 2 0 0 0-.773.774l-2.097 3.643-4.196-7.067c-.196-.335-.434-.689-.773-.883s-.713-.22-1.104-.22-.766.026-1.105.22a2.6 2.6 0 0 0-.883.883L3.658 27.755c-.195.336-.22.717-.22 1.104s.025.769.22 1.104c.196.336.545.58.884.773s.713.332 1.104.332h7.729c3.063 0 5.292-1.374 6.846-3.975l3.754-6.515 1.987-3.423 6.073 10.38h-8.06zm-8.723-3.534h-5.41l8.06-13.912L20 20.578l-2.706 4.718c-1.032 1.687-2.209 2.238-4.03 2.238"/></svg>