<svg xmlns="http://www.w3.org/2000/svg" width="225" height="40" fill="none" viewBox="0 0 225 40"><g clip-path="url(#a)"><path fill="#fff" d="M29.838 2.594H5.189A5.19 5.19 0 0 0 0 7.783v24.649a5.19 5.19 0 0 0 5.19 5.189h24.648a5.19 5.19 0 0 0 5.189-5.19V7.784a5.19 5.19 0 0 0-5.19-5.19"/><path stroke="#000" stroke-linecap="round" stroke-linejoin="round" stroke-width="1.516" d="m12.444 21.03.884 1.767c.299.598.448.897.648 1.156q.267.347.614.614c.259.2.558.35 1.156.648l1.768.884-1.768.884c-.598.299-.897.448-1.156.648q-.347.267-.614.614c-.2.259-.35.558-.648 1.156l-.884 1.768-.884-1.768c-.299-.598-.449-.897-.648-1.156a3.4 3.4 0 0 0-.614-.614c-.259-.2-.558-.35-1.156-.648l-1.768-.884 1.768-.884c.598-.299.897-.448 1.156-.648q.346-.267.614-.614c.2-.259.349-.558.648-1.156zm9.217-11.983 1.32 3.43c.315.82.473 1.23.719 1.576.217.306.484.573.79.79.345.246.756.404 1.576.72l3.43 1.319-3.43 1.32c-.82.315-1.23.473-1.576.718a3.4 3.4 0 0 0-.79.79c-.246.346-.404.756-.72 1.577l-1.319 3.43-1.319-3.43c-.316-.82-.473-1.231-.719-1.576a3.4 3.4 0 0 0-.79-.791c-.346-.245-.756-.403-1.577-.719l-3.43-1.32 3.43-1.318c.821-.316 1.231-.474 1.577-.72a3.3 3.3 0 0 0 .79-.79c.246-.345.403-.756.72-1.576z"/><path fill="#fff" d="M65.056 19.97q0 3.853-1.41 6.625-1.41 2.76-3.865 4.253-2.443 1.48-5.557 1.48-3.124 0-5.58-1.48-2.443-1.492-3.853-4.264t-1.41-6.614q0-3.854 1.41-6.614 1.41-2.772 3.853-4.253 2.456-1.492 5.58-1.492 3.114 0 5.557 1.492 2.455 1.48 3.865 4.253 1.41 2.76 1.41 6.614m-3.595 0q0-2.937-.952-4.946-.94-2.02-2.584-3.054-1.633-1.046-3.7-1.046-2.08 0-3.713 1.046-1.633 1.034-2.584 3.054-.94 2.01-.94 4.946t.94 4.957q.952 2.01 2.584 3.055 1.633 1.033 3.712 1.033 2.068 0 3.7-1.033 1.646-1.045 2.585-3.055.952-2.021.952-4.957M76.9 32.363q-2.621 0-4.512-1.186-1.88-1.199-2.89-3.301t-1.01-4.817q0-2.749 1.034-4.851 1.033-2.115 2.913-3.301 1.88-1.187 4.429-1.187 2.055 0 3.665.764 1.61.751 2.596 2.114.998 1.363 1.187 3.184h-3.419q-.282-1.269-1.292-2.185-1-.917-2.678-.917-1.47 0-2.573.776-1.092.763-1.704 2.185-.61 1.41-.61 3.336 0 1.973.599 3.407t1.691 2.22q1.105.787 2.597.787.998 0 1.809-.364a3.7 3.7 0 0 0 1.374-1.069q.565-.693.787-1.668h3.419q-.188 1.75-1.14 3.125-.951 1.375-2.549 2.161-1.586.787-3.724.787M96.49 13.955v2.82h-9.856v-2.82zm-7.21-4.323h3.513v17.07q0 1.02.305 1.538.306.506.787.693.493.177 1.07.176.422 0 .74-.058.316-.059.493-.094l.634 2.901a6 6 0 0 1-.87.235q-.562.129-1.41.141a6.2 6.2 0 0 1-2.584-.493 4.43 4.43 0 0 1-1.938-1.598q-.74-1.08-.74-2.713zm18.505 22.731q-2.537 0-4.429-1.163-1.89-1.163-2.936-3.254t-1.046-4.887q0-2.807 1.046-4.91 1.046-2.102 2.936-3.266 1.892-1.163 4.429-1.163t4.429 1.163 2.937 3.266 1.046 4.91q0 2.796-1.046 4.887t-2.937 3.254-4.429 1.163m.012-2.948q1.645 0 2.726-.87 1.08-.869 1.597-2.314.53-1.445.529-3.183 0-1.728-.529-3.172-.517-1.456-1.597-2.338-1.081-.88-2.726-.881-1.656 0-2.749.881-1.08.881-1.609 2.338-.517 1.444-.517 3.172 0 1.739.517 3.183.528 1.445 1.609 2.314 1.093.87 2.749.87M123.629 7.94V32h-3.513V7.94zm9.976 24.459q-1.715 0-3.101-.635a5.23 5.23 0 0 1-2.197-1.867q-.798-1.223-.798-2.996 0-1.527.587-2.514a4.3 4.3 0 0 1 1.586-1.563 8.3 8.3 0 0 1 2.232-.869q1.233-.294 2.514-.446l2.631-.306q1.01-.13 1.469-.41.458-.283.458-.917v-.082q0-1.539-.869-2.385-.858-.846-2.562-.846-1.773 0-2.795.787-1.011.775-1.398 1.727l-3.301-.752q.587-1.644 1.715-2.655a7 7 0 0 1 2.619-1.48q1.48-.47 3.114-.47 1.08 0 2.29.258 1.222.247 2.279.917 1.069.67 1.751 1.915.681 1.233.681 3.207v11.982h-3.43v-2.467h-.141q-.34.68-1.022 1.34-.682.657-1.751 1.092t-2.561.435m.764-2.82q1.456 0 2.49-.576 1.046-.575 1.586-1.503a3.9 3.9 0 0 0 .553-2.009v-2.326q-.189.189-.729.352-.528.153-1.21.27-.68.107-1.327.2-.646.082-1.081.141a8.7 8.7 0 0 0-1.868.435q-.834.305-1.339.881-.494.564-.494 1.504 0 1.305.964 1.973.963.658 2.455.658m16.332-8.294V32h-3.512V13.955h3.371v2.937h.223a5.16 5.16 0 0 1 1.95-2.303q1.34-.87 3.372-.869 1.844 0 3.231.775 1.386.765 2.149 2.28t.764 3.747v11.477h-3.513V20.945q0-1.962-1.022-3.066-1.022-1.116-2.807-1.116-1.222 0-2.174.528-.939.53-1.491 1.551-.541 1.01-.541 2.444m24.035 11.078q-2.666 0-4.593-1.14-1.914-1.15-2.96-3.23-1.034-2.091-1.034-4.898 0-2.773 1.034-4.887 1.046-2.115 2.913-3.301 1.88-1.187 4.394-1.187 1.527 0 2.96.505a7.2 7.2 0 0 1 2.573 1.586q1.14 1.08 1.797 2.808.658 1.715.658 4.17v1.245h-14.344v-2.631h10.902q0-1.386-.564-2.455a4.26 4.26 0 0 0-1.586-1.704q-1.01-.622-2.373-.622-1.48 0-2.584.728a4.9 4.9 0 0 0-1.692 1.88 5.4 5.4 0 0 0-.587 2.502v2.056q0 1.809.634 3.078.646 1.268 1.798 1.938 1.15.658 2.69.658a5.6 5.6 0 0 0 1.821-.282 3.9 3.9 0 0 0 1.421-.87q.599-.575.916-1.421l3.325.6a6 6 0 0 1-1.433 2.572q-1.022 1.092-2.573 1.703-1.539.6-3.513.6M197.445 32h-3.854l8.658-24.059h4.194L215.101 32h-3.853l-6.802-19.69h-.188zm.646-9.421h12.499v3.054h-12.499zM222.205 7.94V32h-3.63V7.94z"/></g><defs><clipPath id="a"><path fill="#fff" d="M0 0h224.865v40H0z"/></clipPath></defs></svg>