<svg xmlns="http://www.w3.org/2000/svg" width="295" height="40" fill="none" viewBox="0 0 295 40"><path fill="#fff" d="M38.16 38.724c6.443 0 12.257-4.924 12.257-13.462 0-8.59-5.814-13.514-12.257-13.514-6.39 0-12.205 4.923-12.205 13.514 0 8.538 5.815 13.462 12.205 13.462m0-4.924c-3.771 0-6.024-3.405-6.024-8.538 0-5.186 2.253-8.59 6.024-8.59s6.076 3.404 6.076 8.59c0 5.133-2.304 8.538-6.076 8.538m15.6 4.295h6.024V20.13c2.148-2.096 3.615-3.196 5.867-3.196 2.829 0 4.033 1.572 4.033 5.815v15.347h6.024V21.962c0-6.495-2.41-10.214-7.91-10.214-3.509 0-6.128 1.833-8.433 4.085h-.21l-.418-3.457H53.76zm39.16.629c5.709 0 10.999-5.081 10.999-13.934 0-7.91-3.719-13.042-10.162-13.042-2.619 0-5.29 1.31-7.438 3.195l.157-4.295V1.114h-6.024v36.981h4.767l.524-2.724h.157c2.148 2.148 4.662 3.353 7.02 3.353m-1.258-4.976c-1.52 0-3.352-.577-5.186-2.148V19.605c1.99-1.938 3.772-2.881 5.657-2.881 3.877 0 5.553 3.038 5.553 8.171 0 5.814-2.62 8.853-6.024 8.853m26.215 4.976c6.443 0 12.257-4.924 12.257-13.462 0-8.59-5.814-13.514-12.257-13.514-6.39 0-12.205 4.923-12.205 13.514 0 8.538 5.815 13.462 12.205 13.462m0-4.924c-3.771 0-6.024-3.405-6.024-8.538 0-5.186 2.253-8.59 6.024-8.59s6.076 3.404 6.076 8.59c0 5.133-2.304 8.538-6.076 8.538m21.22 4.924c3.038 0 5.657-1.52 7.962-3.457h.21l.419 2.828h4.976V22.852c0-7.176-3.195-11.104-9.586-11.104-4.086 0-7.752 1.571-10.581 3.352l2.2 4.033c2.305-1.362 4.714-2.514 7.229-2.514 3.509 0 4.609 2.305 4.714 5.029-10.581 1.152-15.138 4.033-15.138 9.533 0 4.505 3.09 7.543 7.595 7.543m1.938-4.714c-2.147 0-3.719-.996-3.719-3.3 0-2.567 2.305-4.4 9.324-5.291v5.762c-1.938 1.78-3.509 2.829-5.605 2.829m16.219 4.085h6.024V22.381c1.572-3.876 4.033-5.29 6.076-5.29 1.1 0 1.781.157 2.672.418l1.047-5.238c-.785-.366-1.623-.523-2.933-.523-2.724 0-5.448 1.833-7.281 5.185h-.209l-.42-4.557h-4.976zm25.419.629c2.777 0 5.396-1.52 7.281-3.405h.21l.419 2.776h4.976V1.115h-6.024v9.323l.21 4.138c-1.991-1.728-3.824-2.828-6.757-2.828-5.605 0-10.896 5.133-10.896 13.514 0 8.486 4.139 13.462 10.581 13.462m1.467-4.976c-3.719 0-5.814-2.986-5.814-8.538 0-5.396 2.671-8.486 5.971-8.486 1.729 0 3.457.576 5.238 2.147v11.996c-1.728 1.99-3.405 2.88-5.395 2.88m28.938 4.976c5.71 0 11-5.081 11-13.934 0-7.91-3.719-13.042-10.162-13.042-2.619 0-5.29 1.31-7.438 3.195l.157-4.295V1.114h-6.024v36.981h4.767l.524-2.724h.157c2.148 2.148 4.662 3.353 7.019 3.353m-1.257-4.976c-1.519 0-3.352-.577-5.186-2.148V19.605c1.991-1.938 3.772-2.881 5.657-2.881 3.877 0 5.553 3.038 5.553 8.171 0 5.814-2.619 8.853-6.024 8.853m21.307 4.976c3.038 0 5.657-1.52 7.962-3.457h.209l.419 2.828h4.976V22.852c0-7.176-3.195-11.104-9.585-11.104-4.086 0-7.753 1.571-10.581 3.352l2.2 4.033c2.304-1.362 4.714-2.514 7.228-2.514 3.51 0 4.61 2.305 4.714 5.029-10.58 1.152-15.138 4.033-15.138 9.533 0 4.505 3.091 7.543 7.596 7.543m1.938-4.714c-2.148 0-3.719-.996-3.719-3.3 0-2.567 2.304-4.4 9.323-5.291v5.762c-1.938 1.78-3.509 2.829-5.604 2.829m23.394 4.714c6.495 0 10.005-3.562 10.005-7.962 0-4.82-3.876-6.495-7.386-7.805-2.776-.995-5.343-1.78-5.343-3.824 0-1.623 1.205-2.828 3.772-2.828 2.042 0 3.876.89 5.657 2.2l2.776-3.667c-2.095-1.624-4.976-3.09-8.538-3.09-5.762 0-9.376 3.195-9.376 7.7 0 4.295 3.824 6.233 7.228 7.49 2.724 1.048 5.5 1.99 5.5 4.138 0 1.781-1.309 3.09-4.085 3.09-2.62 0-4.82-1.1-7.124-2.88l-2.829 3.876c2.514 2.043 6.233 3.562 9.743 3.562m23.764 0c3.247 0 6.338-1.153 8.8-2.776l-2.043-3.772c-1.886 1.205-3.771 1.886-5.971 1.886-4.139 0-7.072-2.62-7.596-7.176h16.343c.157-.629.262-1.781.262-2.934 0-7.176-3.667-12.204-10.633-12.204-6.024 0-11.838 5.133-11.838 13.514 0 8.486 5.552 13.462 12.676 13.462M275.362 22.8c.524-4.138 3.143-6.39 6.181-6.39 3.509 0 5.238 2.409 5.238 6.39zM11.653 9.502l-5.557-.93L0 37.438l5.558.931z"/><path fill="silver" d="m22.961 10.342-5.557-.931-6.095 28.868 5.557.93z"/></svg>