<svg xmlns="http://www.w3.org/2000/svg" width="228" height="40" fill="none" viewBox="0 0 228 40"><path fill="#fff" d="M16.64 31.221q-4.352 0-7.936-2.048a15.4 15.4 0 0 1-5.59-5.632Q1.068 20 1.068 15.776T3.115 8.01a15.3 15.3 0 0 1 5.589-5.674Q12.289.246 16.64.246q4.352 0 7.893 2.09A14.96 14.96 0 0 1 30.08 8.01q2.048 3.542 2.048 7.766T30.08 23.54q-2.006 3.541-5.547 5.632-3.54 2.048-7.893 2.048M7.253 15.776q0 2.73 1.152 4.992a8.87 8.87 0 0 0 3.286 3.584q2.133 1.322 4.949 1.322t4.907-1.322a8.6 8.6 0 0 0 3.242-3.584q1.152-2.262 1.152-4.992t-1.152-4.992q-1.11-2.304-3.242-3.627-2.091-1.365-4.907-1.365t-4.95 1.365Q9.558 8.48 8.406 10.784q-1.152 2.26-1.152 4.992m27.87-7.296h5.675v3.584q.981-1.963 2.645-2.987 1.665-1.067 4.438-1.067 2.985 0 5.504 1.58 2.516 1.578 3.968 4.266 1.493 2.645 1.493 5.803t-1.493 5.802a11.3 11.3 0 0 1-3.968 4.224 10.37 10.37 0 0 1-5.504 1.536q-2.688 0-4.395-.981-1.664-1.024-2.603-2.859V39.2h-5.76zm5.59 11.179q0 1.748.768 3.2a5.85 5.85 0 0 0 2.176 2.303q1.45.854 3.285.854 1.792 0 3.157-.853a6.16 6.16 0 0 0 2.176-2.347q.81-1.494.811-3.2 0-1.75-.768-3.2a5.85 5.85 0 0 0-2.176-2.304q-1.408-.897-3.2-.896-1.834 0-3.285.896a5.77 5.77 0 0 0-2.176 2.347q-.768 1.45-.768 3.2M71.83 31.22q-3.371 0-5.974-1.536a11.1 11.1 0 0 1-4.053-4.224q-1.45-2.645-1.45-5.845 0-3.157 1.493-5.845a11.35 11.35 0 0 1 4.096-4.267q2.645-1.58 5.888-1.579 3.242 0 5.802 1.579a10.7 10.7 0 0 1 4.011 4.267q1.45 2.645 1.45 5.845 0 1.065-.17 2.048H66.327q.511 2.005 1.92 3.242 1.45 1.195 3.584 1.195 1.791 0 3.2-.81 1.407-.855 2.218-2.177l4.48 3.371q-1.365 2.133-4.01 3.456-2.646 1.28-5.888 1.28m5.461-13.866a6.23 6.23 0 0 0-2.005-3.2q-1.494-1.28-3.542-1.28-2.005 0-3.498 1.237-1.45 1.237-1.92 3.243zm8.331-8.875h5.675v3.242q1.75-3.754 6.784-3.754 2.39 0 4.309 1.152 1.92 1.11 3.03 3.2 1.109 2.047 1.109 4.779v13.567h-5.76v-12.16q0-2.773-1.28-4.138-1.28-1.366-3.499-1.366-1.962 0-3.285 1.409-1.323 1.365-1.323 4.095v12.16h-5.76zm34.28 22.741q-3.712 0-6.656-1.536-2.901-1.578-4.779-4.906l5.163-3.286q1.11 2.22 2.816 3.328a7.16 7.16 0 0 0 3.797 1.067q2.049 0 3.243-.939 1.237-.938 1.237-2.475 0-1.407-.896-2.303-.895-.897-2.304-1.408-1.365-.555-3.626-1.153-3.585-.938-5.59-3.029-1.962-2.091-1.962-5.376 0-2.645 1.322-4.65 1.323-2.048 3.712-3.158t5.504-1.11q3.37 0 5.718 1.409 2.39 1.408 4.138 4.138l-5.12 3.158q-1.109-1.792-2.261-2.56-1.152-.81-2.773-.81-1.835 0-2.987.895-1.152.896-1.152 2.39 0 1.493 1.152 2.26 1.152.726 3.584 1.494 2.987.94 4.779 1.75t3.328 2.73q1.536 1.878 1.536 4.992 0 2.688-1.323 4.779-1.323 2.048-3.797 3.2-2.475 1.11-5.803 1.11m21.542-.555q-3.37 0-5.077-1.663-1.706-1.665-1.707-5.206v-10.41h-3.114V8.48h3.114V4l5.76-.598V8.48h4.694v4.906h-4.694V23.5q0 2.048 1.792 2.048h2.39v5.12zm15.124.555q-2.987 0-5.504-1.536-2.518-1.578-4.01-4.224-1.452-2.645-1.451-5.802 0-3.158 1.451-5.803 1.492-2.688 4.01-4.267a10.16 10.16 0 0 1 5.504-1.579q2.73 0 4.395 1.024 1.706 1.024 2.645 2.944V8.48h5.718v22.186h-5.59V27.04q-.981 2.005-2.688 3.114-1.663 1.068-4.48 1.067m-5.205-11.605q0 1.706.768 3.2a6.6 6.6 0 0 0 2.176 2.347q1.408.852 3.2.853 1.835 0 3.243-.853a5.77 5.77 0 0 0 2.218-2.305q.768-1.45.768-3.2t-.768-3.2a5.7 5.7 0 0 0-2.218-2.346q-1.409-.897-3.243-.896-1.792 0-3.2.896a5.84 5.84 0 0 0-2.176 2.304q-.768 1.45-.768 3.2m29.789 11.05q-3.369 0-5.077-1.663-1.706-1.665-1.707-5.206v-10.41h-3.114V8.48h3.114V4l5.76-.598V8.48h4.694v4.906h-4.694V23.5q0 2.048 1.792 2.048h2.39v5.12zm13.83.512q-2.389 0-4.31-1.109-1.92-1.151-3.029-3.2-1.109-2.09-1.109-4.821V8.48h5.76v12.16q0 5.505 4.437 5.504 1.964 0 3.285-1.365 1.324-1.41 1.323-4.14V8.48h5.76v22.188h-5.589v-3.329q-.81 1.963-2.39 2.902-1.578.939-4.138.939m23.11.043q-5.589 0-9.216-3.883l3.883-3.54q2.432 2.73 5.205 2.73 1.45 0 2.262-.64.81-.64.81-1.664 0-.94-.81-1.45-.769-.556-3.243-1.153-4.054-.981-5.461-2.688-1.366-1.707-1.366-4.224 0-2.986 2.219-4.864 2.219-1.92 6.059-1.92 2.772 0 4.65.853 1.92.854 3.584 2.987l-4.181 3.2q-1.494-2.39-3.925-2.39-1.238 0-2.006.513-.768.47-.768 1.45 0 .683.555 1.195.596.47 2.432.939 4.565 1.194 6.229 2.944 1.707 1.749 1.707 4.437 0 2.005-1.152 3.67-1.11 1.62-3.072 2.56-1.963.938-4.395.938"/></svg>