<svg xmlns="http://www.w3.org/2000/svg" width="243" height="40" fill="none" viewBox="0 0 243 40"><path fill="#fff" d="M204.159 9.03h-4.003l-4.067 11.475a289 289 0 0 0-1.911 5.664l-1.308-3.942-.56-1.722-4.046-11.475h-4.089l8.278 21.025v4.937h-6.88v3.871h1.686c4.944 0 8.962-3.957 9.065-8.876l7.839-20.96zM58.137 29.067c-2.114-1.194-3.726-2.945-4.827-5.254q-1.653-3.465-1.654-8.395.001-4.556 1.643-8.043 1.644-3.484 4.838-5.429Q61.329 0 65.804 0c2.984 0 5.472.652 7.593 1.957s3.74 3.12 4.848 5.45q1.664 3.498 1.665 8.01c0 3.01-.552 5.74-1.654 8.064q-1.654 3.487-4.837 5.43-3.182 1.945-7.615 1.945c-2.955 0-5.553-.595-7.667-1.79m12.141-2.36a7 7 0 0 0 2.977-2.506q1.144-1.626 1.725-3.786.582-2.165.581-4.994.001-2.829-.581-4.962-.585-2.133-1.725-3.775-2.31-3.35-7.283-3.351-2.707.001-4.67.905-1.968.904-3.048 2.278-1.081 1.435-1.664 3.736-.584 2.298-.582 5.17c0 1.913.2 3.724.603 5.264q.604 2.311 1.519 3.515 1.267 1.603 3.226 2.467 1.955.864 4.452.863 2.64 0 4.474-.824zM99.912 9.864q2.224 1.353 3.486 3.882 1.258 2.528 1.259 5.939c0 2.274-.407 4.174-1.216 5.868-.813 1.693-1.95 2.997-3.412 3.92q-2.193 1.385-5.044 1.384-4.534 0-6.865-3.308v11.318h-3.83V9.03h3.829v3.119q1.164-1.83 2.87-2.738 1.705-.904 3.87-.905 2.83 0 5.055 1.35zm-.927 15.885q1.448-2.027 1.447-6.064 0-2.662-.552-4.431-.551-1.77-1.925-2.738-1.374-.967-3.786-.966-3.058 0-4.62 2.04c-1.04 1.357-1.561 3.379-1.561 6.052q0 3.62 1.28 5.878t4.816 2.257c2.356 0 3.935-.677 4.897-2.029zM155.967.499h3.829v29.837h-3.829zm-31.341 23.598c-.328 1.073-.866 1.908-1.625 2.503q-1.497 1.176-4.225 1.176-2.996 0-4.484-1.704-1.486-1.705-1.572-5.244h16.166q.021-.289.021-.894 0-2.038-.477-3.932-.48-1.894-1.333-3.269-1.29-2.038-3.515-3.13t-4.806-1.094q-2.31 0-4.224.813a9.1 9.1 0 0 0-3.308 2.392q-1.332 1.476-2.007 3.504-.678 2.027-.677 4.42 0 5.182 2.599 8.092 2.683 3.123 7.657 3.123 4.08 0 6.566-1.915c1.476-1.137 2.477-2.752 3.012-4.844h-3.768zm-11.582-8.295a6.7 6.7 0 0 1 .76-1.86q.641-1.081 1.957-1.697 1.31-.614 3.058-.613 1.748 0 2.966.552t2.028 1.758q.498.725.813 1.8.316 1.07.332 1.985h-12.17a9 9 0 0 1 .26-1.925zm108.404 8.295c-.328 1.073-.866 1.908-1.625 2.503q-1.497 1.176-4.224 1.176-2.997 0-4.485-1.704-1.487-1.705-1.572-5.244h16.166q.022-.289.022-.894-.001-2.038-.478-3.932-.48-1.894-1.333-3.269-1.29-2.038-3.515-3.13t-4.805-1.094q-2.31 0-4.225.813a9.1 9.1 0 0 0-3.308 2.392q-1.332 1.476-2.007 3.504-.677 2.027-.677 4.42 0 5.182 2.599 8.092 2.684 3.123 7.657 3.123 4.08 0 6.566-1.915c1.476-1.137 2.477-2.752 3.012-4.844h-3.768zm-11.582-8.295a6.7 6.7 0 0 1 .76-1.86q.641-1.081 1.957-1.697 1.31-.614 3.058-.613 1.748 0 2.966.552t2.028 1.758q.498.725.813 1.8.316 1.07.332 1.985h-12.17a9 9 0 0 1 .26-1.925zm23.713-3.368h9.236V8.513h-3.974a9.18 9.18 0 0 0-9.183 9.183v12.64h3.914l.011-17.902zm-100.743-.1v18.002h3.828V12.334z"/><path fill="#fff" d="M142.286 8.509h-5.622v3.828h10.759v17.999h3.828V17.47a8.96 8.96 0 0 0-8.961-8.962zm41.95 18.864h-2.481V15.542q-.001-3.475-2.039-5.254c-1.358-1.187-3.38-1.78-6.053-1.78q-2.039 0-3.704.407-1.664.406-2.809 1.177a5.46 5.46 0 0 0-1.914 2.227c-.396.824-.628 1.786-.706 2.884h3.779c.131-1.137.516-2 1.162-2.57q1.217-1.082 3.985-1.083 1.394 0 2.413.374 1.022.373 1.455 1.02.458.625.592 1.464.134.844.135 2.425l-7.033 1.35q-2.06.395-3.611 1.052a6.43 6.43 0 0 0-2.592 1.99q-1.042 1.331-1.041 3.493-.001 1.978 1.009 3.372a6.14 6.14 0 0 0 2.642 2.082 9 9 0 0 0 3.504.684q5.368.001 7.179-3.682c.178 2.22 1.451 3.33 3.807 3.33q1.311-.002 2.392-.168l-.078-2.959zm-6.185-5.09q-.001 2.455-1.601 3.975-1.603 1.518-4.908 1.518-1.643-.001-2.745-.83-1.102-.834-1.102-2.268 0-1.165.489-1.86a3.1 3.1 0 0 1 1.312-1.063q.823-.363 2.131-.655l6.428-1.416v2.599zM26.396 0l13.602 13.602v17.212h-9.186v-20.11c0-.84-.679-1.518-1.518-1.518H9.186V0zM9.186 29.297V9.186H0v9.304c0 11.88 9.63 21.508 21.507 21.508h9.305v-9.186H10.703a1.517 1.517 0 0 1-1.517-1.518z"/></svg>