<svg xmlns="http://www.w3.org/2000/svg" width="234" height="40" fill="none" viewBox="0 0 234 40"><g fill="#fff" clip-path="url(#a)"><path d="M31.803 23.646c.037.787.378 5.927.368 6.728-.01.8 0 1.54-.02 2.31q-.046 1.489-.264 2.961-.06.377-.142.75a2.45 2.45 0 0 1-1.015 1.48 6.8 6.8 0 0 1-1.922.952c-6 1.772-19.483 1.045-21.622.916a8 8 0 0 1-.519-.047c-1.15-.142-3.734-.415-4.572-.81-.698-.328-1.323-.826-1.693-1.497a3.6 3.6 0 0 1-.284-.664 3.9 3.9 0 0 1-.098-1.346c.096-.927.294-1.84.59-2.724.072-.213.155-.422.24-.631C2.055 29.058 11.54 5.649 15.67 1.7c.099-.094.577-.589.977-.82.82-.47 1.522-.668 2.46-.806h.034l.142-.027c1.03-.128 2.077 0 3.045.374 1.489.585 3.867 1.477 4.287 1.662.764.329 1.42.863 1.895 1.544l.15.217a8.2 8.2 0 0 1 1.23 2.96c.443 2.148 1.156 6.848 1.912 16.841m32.391-3.387q0 3.823-1.46 6.505-1.458 2.682-3.967 4.092-2.508 1.41-5.634 1.41-3.15 0-5.652-1.416-2.504-1.415-3.956-4.097-1.455-2.682-1.454-6.494c0-2.542.485-4.718 1.453-6.506q1.454-2.682 3.957-4.092 2.502-1.41 5.652-1.41 3.125 0 5.634 1.41t3.968 4.092 1.459 6.506m-5.064 0q0-2.477-.743-4.178-.745-1.7-2.094-2.58-1.35-.878-3.16-.878-1.812 0-3.16.879-1.35.878-2.094 2.58-.744 1.7-.744 4.177 0 2.475.744 4.177.743 1.7 2.093 2.58 1.35.878 3.16.878 1.812 0 3.161-.879 1.35-.878 2.093-2.58.744-1.7.744-4.177m6.909 18.262V14.414h4.844v2.944h.22q.322-.707.94-1.444.616-.735 1.614-1.232t2.486-.497q1.937 0 3.575.999 1.638.998 2.618 3.002t.98 5.016q0 2.934-.95 4.948-.952 2.015-2.584 3.047T76.13 32.23q-1.43 0-2.428-.468t-1.632-1.181a5.9 5.9 0 0 1-.969-1.444h-.15v9.382zm4.81-15.34q0 1.564.438 2.728t1.268 1.809 2.019.645q1.2 0 2.03-.656.83-.657 1.263-1.827t.433-2.699q0-1.518-.427-2.67-.427-1.153-1.258-1.804-.83-.65-2.041-.65-1.2 0-2.024.627-.825.628-1.264 1.78-.438 1.155-.438 2.717m23.06 9.108q-2.735 0-4.7-1.101a7.5 7.5 0 0 1-3.028-3.128q-1.061-2.025-1.061-4.799 0-2.705 1.06-4.748 1.062-2.044 2.994-3.184 1.931-1.142 4.539-1.142 1.752 0 3.27.554a7.4 7.4 0 0 1 2.653 1.66q1.136 1.107 1.77 2.78t.634 3.909v1.335h-14.96V21.41h10.335q0-1.05-.461-1.86a3.34 3.34 0 0 0-1.275-1.273q-.813-.462-1.885-.462-1.12 0-1.978.508a3.66 3.66 0 0 0-1.344 1.358 3.84 3.84 0 0 0-.496 1.889v2.865q0 1.301.49 2.248t1.39 1.461 2.134.514a4.7 4.7 0 0 0 1.5-.229q.68-.228 1.164-.684.485-.457.738-1.12l4.545.298a6.1 6.1 0 0 1-1.413 2.825q-1.067 1.203-2.745 1.871-1.68.669-3.87.668m14.997-10.477v10.135h-4.913V14.414h4.683v3.092h.208a4.93 4.93 0 0 1 1.972-2.425q1.385-.896 3.357-.896 1.844 0 3.218.8 1.373.798 2.133 2.276.763 1.48.762 3.521v11.163h-4.913V21.65q.01-1.61-.831-2.517-.843-.907-2.318-.907-.993 0-1.748.422-.756.422-1.177 1.227-.42.804-.432 1.934zm26.836-6.518q-.138-1.38-1.188-2.145t-2.849-.765q-1.223 0-2.064.337-.842.336-1.287.93a2.2 2.2 0 0 0-.444 1.347q-.022.627.271 1.095.295.468.813.805.519.338 1.2.582.68.246 1.453.417l2.123.502q1.545.343 2.838.913 1.29.57 2.237 1.404.945.833 1.47 1.963t.537 2.59q-.012 2.147-1.102 3.716t-3.137 2.431q-2.048.861-4.931.862-2.86 0-4.977-.868-2.117-.867-3.299-2.574-1.182-1.705-1.24-4.228h4.833q.081 1.176.686 1.957t1.626 1.176q1.021.393 2.314.393 1.268 0 2.208-.365t1.459-1.015q.52-.65.52-1.496 0-.787-.468-1.324-.467-.536-1.361-.913-.894-.376-2.186-.684l-2.571-.64q-2.988-.718-4.719-2.248-1.729-1.53-1.718-4.12-.011-2.123 1.148-3.71t3.189-2.477 4.613-.89q2.63 0 4.597.89 1.967.891 3.062 2.477 1.096 1.587 1.131 3.675zm12.7 16.984q-1.696 0-3.022-.588-1.327-.588-2.094-1.746t-.766-2.894q0-1.46.541-2.453a4.4 4.4 0 0 1 1.477-1.598 7.2 7.2 0 0 1 2.128-.913q1.194-.309 2.508-.434a56 56 0 0 0 2.491-.303q.947-.142 1.373-.428.427-.285.427-.844v-.069q0-1.084-.687-1.677-.685-.594-1.942-.594-1.328 0-2.112.577-.784.576-1.038 1.443l-4.544-.365q.346-1.598 1.361-2.768 1.014-1.17 2.624-1.803 1.608-.634 3.731-.634 1.477 0 2.832.343a7.5 7.5 0 0 1 2.41 1.061 5.2 5.2 0 0 1 1.668 1.844q.61 1.124.61 2.688v11.824h-4.659v-2.431h-.139a4.9 4.9 0 0 1-1.141 1.444 5.2 5.2 0 0 1-1.719.97q-1.004.348-2.318.348m1.407-3.356q1.084 0 1.915-.428a3.35 3.35 0 0 0 1.303-1.158 3 3 0 0 0 .473-1.655v-1.86a2.5 2.5 0 0 1-.629.268q-.398.12-.894.216-.496.097-.992.172-.495.075-.899.13a6 6 0 0 0-1.511.4q-.646.274-1.004.737-.357.462-.358 1.147 0 .993.733 1.512.734.52 1.863.52m22.092-4.441V14.414h4.914v17.53h-4.718V28.76h-.184a5.2 5.2 0 0 1-1.99 2.477q-1.39.936-3.385.936-1.777 0-3.126-.799-1.35-.8-2.106-2.271-.755-1.473-.766-3.527V14.414h4.914v10.295q.01 1.552.842 2.453.83.902 2.226.902.887 0 1.66-.405.774-.405 1.252-1.204.478-.8.467-1.975m15.47 7.807q-2.722 0-4.678-1.147a7.66 7.66 0 0 1-2.999-3.19q-1.044-2.044-1.044-4.702 0-2.694 1.055-4.731a7.76 7.76 0 0 1 3.006-3.185q1.949-1.146 4.636-1.147 2.318 0 4.061.833 1.741.834 2.756 2.34 1.016 1.507 1.119 3.538h-4.637q-.196-1.312-1.032-2.117t-2.186-.804q-1.141 0-1.99.61-.847.61-1.321 1.775-.472 1.164-.472 2.82 0 1.677.467 2.853.466 1.174 1.32 1.791t1.996.617q.843 0 1.517-.343a2.94 2.94 0 0 0 1.118-.998q.445-.657.583-1.581h4.637q-.115 2.01-1.101 3.532-.987 1.524-2.717 2.38t-4.094.856m18.334 0q-2.733 0-4.7-1.101a7.5 7.5 0 0 1-3.028-3.128q-1.061-2.025-1.061-4.799 0-2.705 1.061-4.748t2.994-3.184q1.932-1.142 4.538-1.142 1.753 0 3.27.554a7.4 7.4 0 0 1 2.653 1.66q1.135 1.107 1.771 2.78.633 1.672.634 3.909v1.335h-14.96V21.41h10.335q0-1.05-.461-1.86a3.34 3.34 0 0 0-1.275-1.273q-.813-.462-1.886-.462-1.119 0-1.978.508a3.66 3.66 0 0 0-1.344 1.358 3.85 3.85 0 0 0-.496 1.889v2.865q0 1.301.491 2.248.49.948 1.389 1.461.901.514 2.134.514.819 0 1.5-.229.68-.228 1.165-.684.484-.457.738-1.12l4.545.298a6.1 6.1 0 0 1-1.414 2.825q-1.066 1.203-2.745 1.871-1.678.669-3.87.668m17.218-.057q-2.02 0-3.652-1.033-1.631-1.032-2.583-3.047-.952-2.014-.952-4.948 0-3.013.981-5.016.98-2.003 2.612-3.002a6.73 6.73 0 0 1 3.581-.999q1.489 0 2.486.497.997.496 1.616 1.232.616.737.939 1.444h.15V8.57h4.902v23.375h-4.845v-2.808h-.207q-.346.73-.974 1.444-.63.713-1.627 1.181t-2.427.468m1.557-3.87q1.188 0 2.012-.644.825-.645 1.268-1.81.446-1.163.446-2.727t-.439-2.716-1.269-1.78q-.83-.629-2.018-.628-1.212 0-2.042.65-.83.651-1.258 1.803-.426 1.155-.426 2.671 0 1.53.433 2.7.431 1.17 1.257 1.826.824.656 2.036.656"/></g><defs><clipPath id="a"><path fill="#fff" d="M0 0h233.043v40H0z"/></clipPath></defs></svg>