<svg xmlns="http://www.w3.org/2000/svg" width="197" height="40" fill="none" viewBox="0 0 197 40"><path fill="#fff" d="M17.172 38.233c-3.941-3.852-6.13-8.98-6.165-14.44V17.79a19.27 19.27 0 0 0-4.5 16.936A20.48 20.48 0 0 0 19.228 40a21 21 0 0 1-2.055-1.767M19.56 0A20.36 20.36 0 0 0 6.85 5.055q1.305-.165 2.64-.17h.054c5.525 0 10.713 2.144 14.64 5.983l4.324 4.27C28.116 8.808 24.643 3.281 19.56 0"/><path fill="#fff" d="M34.159 5.275A20.37 20.37 0 0 0 21.547 0q1.046.795 1.997 1.729c3.935 3.862 6.118 9.002 6.147 14.475l-.019 6.006c4.244-4.748 5.736-11.075 4.487-16.935m-2.965 29.768h-.053c-5.521 0-10.72-2.103-14.653-5.927l-4.333-4.254c.41 6.336 3.906 11.865 9.011 15.138 4.899-.2 9.35-2.108 12.757-5.138-.898.117-1.808.18-2.729.18"/><path fill="#fff" d="M35.486 6.63q.171 1.303.176 2.64c.015 5.48-2.132 10.643-6.041 14.538l-4.317 4.258a19.9 19.9 0 0 0 15.359-8.88c-.2-4.818-2.122-9.198-5.177-12.556m-30.08-.247C2.272 9.705.27 14.073 0 18.895a21 21 0 0 1 1.76-1.975c3.927-3.882 9.156-6.032 14.722-6.06l.006-.007h6.164c-4.829-4.21-11.273-5.697-17.246-4.47"/><path fill="#fff" d="M38.876 23.104c-3.917 3.854-9.13 5.993-14.68 6.027l-6.074.001c4.832 4.15 11.262 5.602 17.215 4.363 3.093-3.3 5.067-7.622 5.326-12.39a21 21 0 0 1-1.787 2M15.36 11.934A19.9 19.9 0 0 0 0 20.779c.192 4.83 2.116 9.224 5.18 12.591a21 21 0 0 1-.178-2.65c-.013-5.483 2.134-10.648 6.048-14.543zm45.438.612q3.597-.047 5.8 2.413 2.229 2.46 2.182 6.196.047 3.735-2.181 6.195-2.205 2.46-5.801 2.413-3.62 0-5.824-2.413-2.182-2.437-2.182-6.195 0-3.76 2.182-6.173 2.204-2.436 5.824-2.436m3.759 4.13q-1.416-1.717-3.76-1.717t-3.758 1.717q-1.416 1.694-1.416 4.479 0 2.784 1.416 4.501 1.414 1.694 3.759 1.694 2.343 0 3.759-1.694 1.416-1.716 1.415-4.501t-1.415-4.479m9.159-3.759h7.564q2.46 0 3.922 1.37 1.462 1.369 1.462 3.712t-1.462 3.713q-1.462 1.345-3.922 1.345h-4.803v6.335h-2.761zm7.1 2.274h-4.34v5.592h4.34q1.462 0 2.297-.719.836-.742.836-2.065t-.836-2.065q-.835-.743-2.297-.743m21.998-2.274v2.32h-8.54v4.502h7.983v2.297h-7.983v5.036h8.772v2.32H91.513V12.917zm18.775 16.475h-3.063l-4.154-6.335h-3.411v6.335H108.2V12.917h7.402q2.367 0 3.875 1.392 1.509 1.393 1.509 3.69 0 1.856-.998 3.156-.998 1.275-2.738 1.694zm-10.628-14.2v5.591h4.177q1.462 0 2.297-.719.836-.742.836-2.065t-.859-2.065q-.836-.743-2.297-.743zm26.515 14.2L136.2 25.68h-7.286l-1.276 3.712h-2.785l5.94-16.475h3.597l5.94 16.475zm-7.773-5.986h5.708l-.719-2.02a28 28 0 0 0-.464-1.299 137 137 0 0 1-1.694-5.081q-.465 1.577-1.671 5.081l-.464 1.323zm24.653-10.489v2.344h-5.012v14.131h-2.739V15.261h-4.988v-2.344zm10.916-.371q3.596-.047 5.801 2.413 2.228 2.46 2.181 6.196.047 3.735-2.181 6.195-2.204 2.46-5.801 2.413-3.62 0-5.825-2.413-2.181-2.437-2.181-6.195 0-3.76 2.181-6.173 2.205-2.436 5.825-2.436m3.759 4.13q-1.416-1.717-3.759-1.717-2.345 0-3.759 1.717-1.416 1.694-1.416 4.479 0 2.784 1.416 4.501 1.415 1.694 3.759 1.694t3.759-1.694q1.415-1.716 1.415-4.501t-1.415-4.479m22.548 12.716h-3.063l-4.154-6.335h-3.411v6.335h-2.761V12.917h7.402q2.367 0 3.875 1.392 1.509 1.393 1.509 3.69 0 1.856-.998 3.156-.998 1.275-2.738 1.694zm-10.628-14.2v5.591h4.177q1.462 0 2.297-.719.836-.742.836-2.065t-.859-2.065q-.835-.743-2.297-.743z"/></svg>