<svg xmlns="http://www.w3.org/2000/svg" width="59" height="40" fill="none" viewBox="0 0 59 40"><g fill="#fff" clip-path="url(#a)"><path d="M43.48 28.714c0 1.561-.014 2.825.008 4.088.008.434-.134.573-.548.563a46 46 0 0 0-3.029.005c-.524.023-.609-.197-.604-.67.02-2.251.016-4.504.006-6.757-.008-1.682-.356-3.235-1.819-4.237-1.323-.907-2.75-.945-4.16-.26-1.415.688-2.2 1.919-2.244 3.518-.073 2.552-.051 5.108-.03 7.661.004.576-.144.76-.707.731-.981-.046-1.966-.026-2.949-.006-.367.008-.514-.098-.511-.503.025-2.856-.1-5.721.078-8.566.187-2.962 2.511-6.125 6.134-7.03 4.423-1.104 8.871 1.398 10.022 5.783.515 1.963.307 3.981.352 5.68zm6.766-23.641c0 1.072.075 2.15-.023 3.21-.081.888.334 1.052 1.025 1.143 1.82.242 3.607.124 5.338-.503.57-.206.796-.058.962.508.256.864.561 1.714.884 2.552.18.467.09.667-.388.83a15.2 15.2 0 0 1-7.068.685c-.687-.094-.746.144-.738.72.022 1.95-.011 3.9.02 5.848.01.59-.121.847-.744.807a20 20 0 0 0-2.47 0c-.613.035-.825-.155-.813-.822.04-2.25-.005-4.503.027-6.754.008-.614-.165-.818-.77-.94-1.912-.39-3.806-.41-5.68.126-.578.165-.754-.027-.883-.54-.22-.874-.429-1.758-.737-2.6-.226-.616.035-.767.518-.883 2.272-.542 4.563-.737 6.866-.266.561.114.686-.023.68-.576-.023-2.004.009-4.009-.021-6.014-.008-.56.126-.784.703-.75.847.047 1.702.046 2.55 0 .575-.032.802.119.773.762-.051 1.151-.014 2.306-.014 3.46z"/><path d="M29.994 11.237c.318-.08.323.153.366.275.362 1.055.687 2.125 1.067 3.174.21.577-.276.51-.497.605-2.982 1.294-4.991 3.518-6.107 6.65-.64 1.794-.735 3.691-1.087 5.539-.845 4.446-2.743 8.208-6.543 10.732-.896.594-1.86 1.037-2.842 1.45-.416.176-.561.056-.687-.343-.304-.961-.62-1.92-.98-2.86-.147-.385-.06-.516.286-.663 4.579-1.952 6.558-5.738 7.112-10.607.486-4.276 1.923-8.128 5.123-11.087 1.343-1.24 2.891-2.119 4.559-2.79.099-.04.2-.066.231-.075z"/><path d="M9.046 17.008C4.184 17.014.613 20.568.6 25.432c-.013 4.867 3.521 8.559 8.206 8.57 4.792.012 8.375-3.564 8.396-8.369.022-5.618-4.22-8.632-8.156-8.625m-.03 13.037c-2.509-.009-4.276-1.916-4.259-4.599.016-2.548 1.806-4.467 4.153-4.45 2.397.016 4.146 1.941 4.131 4.546-.014 2.526-1.787 4.51-4.026 4.5z"/></g><defs><clipPath id="a"><path fill="#fff" d="M0 0h58.519v40H0z"/></clipPath></defs></svg>