<svg xmlns="http://www.w3.org/2000/svg" width="51" height="40" fill="none" viewBox="0 0 51 40"><g clip-path="url(#a)"><path fill="#fff" fill-rule="evenodd" d="M17.644 33.6q-1.317 1.029-2.921 1.029H10.14q-1.949 0-3.38-1.429-1.432-1.428-1.432-3.371V13.6zM1.374 5.086Q0 7.372 0 10.114V29.83q0 2.742 1.375 5.085A10.4 10.4 0 0 0 5.04 38.63a9.94 9.94 0 0 0 5.1 1.37h4.583q2.75 0 5.04-1.371a9.8 9.8 0 0 0 3.667-3.715 9.87 9.87 0 0 0 1.375-5.085V10.114q0-2.8-1.375-5.085a9.4 9.4 0 0 0-3.666-3.658Q17.472 0 14.723 0H10.14a9.94 9.94 0 0 0-5.1 1.371 10.4 10.4 0 0 0-3.666 3.715m18.103 5.028v16.229l-12.316-20q1.432-1.029 2.979-1.029h4.583q2.004 0 3.38 1.429 1.374 1.371 1.374 3.371m12.041 19.429V27.2H26.19v2.343q0 2.857 1.375 5.257a10.86 10.86 0 0 0 3.838 3.829Q33.81 40 36.673 40h3.839q2.922 0 5.328-1.314t3.78-3.543q1.375-2.286 1.375-5.029 0-3.2-1.718-5.714a16.7 16.7 0 0 0-4.068-4.286q-2.348-1.77-5.957-3.885-3.781-2.343-5.5-3.715-1.66-1.428-1.661-3.2 0-1.828 1.375-2.914t3.78-1.086h2.693q2.177 0 3.666 1.486 1.49 1.486 1.49 3.657v1.714h5.327v-1.714q0-2.857-1.432-5.257a9.97 9.97 0 0 0-3.78-3.771Q42.802-.001 39.94 0h-2.693q-3.037 0-5.442 1.2a8.95 8.95 0 0 0-3.724 3.314q-1.318 2.115-1.318 4.8 0 2.63 1.432 4.8a16.8 16.8 0 0 0 3.495 3.657q2.062 1.486 5.5 3.543 2.921 1.772 4.582 2.915t2.75 2.628q1.146 1.485 1.146 3.257 0 2-1.432 3.315-1.432 1.257-3.724 1.257h-3.838q-2.12 0-3.667-1.486-1.489-1.543-1.489-3.657" clip-rule="evenodd"/></g><defs><clipPath id="a"><path fill="#fff" d="M0 0h50.995v40H0z"/></clipPath></defs></svg>