<svg xmlns="http://www.w3.org/2000/svg" width="110" height="40" fill="none" viewBox="0 0 110 40"><path fill="#fff" d="M34.98 30.975V9.977h7.35c4.29 0 7.11 2.55 7.11 6.42s-2.82 6.419-7.11 6.419H38.4v8.159zm3.42-11.28h3.93c2.28 0 3.63-1.259 3.63-3.299s-1.35-3.27-3.63-3.27H38.4zm10.887 3.93c0 4.53 2.85 7.68 6.93 7.68 2.13 0 3.99-.99 4.89-2.55v2.22h3.269V16.246h-3.27v2.07c-.81-1.41-2.76-2.4-4.89-2.4-4.08 0-6.929 3.15-6.929 7.71m7.59 4.71c-2.52 0-4.32-1.95-4.32-4.71s1.8-4.74 4.32-4.74c2.55 0 4.35 1.95 4.35 4.74 0 2.76-1.8 4.71-4.35 4.71m10.173 8.64v-20.73h3.24v2.25c.87-1.56 2.76-2.58 4.92-2.58 4.08 0 6.93 3.15 6.93 7.68 0 4.56-2.85 7.709-6.93 7.709-2.13 0-4.08-.99-4.92-2.43v8.1zm3.15-13.38c0 2.79 1.77 4.74 4.32 4.74s4.32-1.98 4.32-4.74-1.77-4.71-4.32-4.71c-2.52 0-4.32 1.95-4.32 4.71m13.205.03c0 4.44 3.12 7.68 7.53 7.68 3.198 0 5.98-1.877 6.83-4.68H94.42c-.741 1.142-2.02 1.83-3.485 1.83-2.31 0-3.96-1.53-4.26-3.96h11.04c.06-.27.09-.63.09-1.14 0-4.59-2.67-7.439-6.93-7.439-4.32 0-7.47 3.21-7.47 7.71m11.22-1.53h-7.83c.51-2.04 2.04-3.36 4.08-3.36 2.13 0 3.48 1.26 3.75 3.36m5.443-5.849v14.729h3.24v-7.53c0-2.82 1.38-4.35 4.019-4.35.84 0 1.62.15 2.22.3v-3.149c-.54-.21-1.26-.33-2.01-.33-1.919 0-3.419.99-4.229 2.82v-2.49zM15.987 7H3.997v3.997h11.99v11.99H3.997v-11.99H0V32.98h15.987v-9.993h9.993V7z"/></svg>