<svg xmlns="http://www.w3.org/2000/svg" width="243" height="40" fill="none" viewBox="0 0 243 40"><path fill="#fff" d="M127.41 12.344q2.433 0 4.309 1.12 1.876 1.122 2.901 3.172 1.026 2.05 1.026 4.754 0 2.64-1.01 4.658-1.01 2.02-2.838 3.124t-4.261 1.105q-1.684 0-3.06-.652a6.25 6.25 0 0 1-2.313-1.876v8.65h-5.628V12.533h5.628v2.322a6.4 6.4 0 0 1 2.273-1.86q1.337-.652 2.973-.652m-1.367 13.482q1.749 0 2.838-1.288t1.089-3.307-1.089-3.291-2.838-1.272q-1.686 0-2.782 1.272t-1.097 3.291q0 2.05 1.073 3.323 1.073 1.272 2.806 1.272m24.309-13.546q2.893 0 4.65 1.836 1.757 1.838 1.757 4.905v11.066h-5.628v-9.508q0-1.526-.835-2.424-.834-.9-2.265-.899-1.622 0-2.6 1.177-.977 1.176-.977 2.989v8.665h-5.629V5.92h5.629v9.507q.906-1.558 2.408-2.337 1.503-.78 3.49-.811m15.978 17.807h-5.612V12.534h5.612zM163.548 4.52q1.304 0 2.138.835.835.836.835 2.139t-.835 2.146-2.138.842-2.131-.842q-.826-.843-.826-2.146 0-1.304.826-2.139.828-.835 2.131-.835m24.961 1.4v24.165h-5.628V27.78q-1.924 2.544-5.279 2.528-2.449 0-4.3-1.137-1.852-1.137-2.878-3.187-1.025-2.051-1.025-4.754 0-2.67 1.009-4.69 1.01-2.02 2.838-3.124t4.229-1.105q1.733 0 3.1.652a6.2 6.2 0 0 1 2.306 1.892V5.92zm-9.539 20.032q1.764 0 2.837-1.272t1.074-3.323q0-2.02-1.074-3.29-1.073-1.273-2.837-1.273t-2.83 1.256q-1.066 1.257-1.097 3.307.031 2.05 1.105 3.323 1.073 1.272 2.822 1.272m22.067-13.673q3.61 0 5.612 1.677 2.004 1.677 2.035 4.667v11.463h-5.501v-2.02q-.843 1.113-2.21 1.694-1.367.58-3.164.58-2.766 0-4.396-1.526t-1.629-3.975q0-2.512 1.741-3.895 1.74-1.383 5-1.415h4.626v-.255q0-1.303-.858-2.035-.86-.73-2.56-.73-1.113 0-2.496.373t-2.75 1.089l-1.59-3.705q2.147-1 4.086-1.494a16.4 16.4 0 0 1 4.054-.493m-1.495 14.261q1.336 0 2.345-.668t1.264-1.748v-1.559h-3.545q-1.272 0-1.908.454-.636.453-.636 1.438 0 .97.652 1.527t1.828.556m24.468 2.607q-.937.54-2.178.867a9.8 9.8 0 0 1-2.512.326q-2.607 0-4.213-1.447-1.605-1.446-1.606-4.118v-7.742h-2.448v-3.689h2.448v-4.88h5.597v4.848h4.594v3.72h-4.594v6.869q0 1.924 1.558 1.924.906 0 2.241-.589zm10.7-16.868q3.61 0 5.612 1.677 2.004 1.677 2.035 4.667v11.463h-5.501v-2.02q-.842 1.113-2.209 1.694-1.368.58-3.164.58-2.767 0-4.396-1.526t-1.63-3.975q0-2.512 1.741-3.895t5-1.415h4.627v-.255q0-1.303-.859-2.035-.858-.73-2.56-.73-1.111 0-2.496.373-1.383.373-2.75 1.089l-1.59-3.705q2.147-1 4.086-1.494a16.4 16.4 0 0 1 4.054-.493m-1.494 14.261q1.335 0 2.345-.668t1.264-1.748v-1.559h-3.546q-1.272 0-1.908.454-.635.453-.635 1.438 0 .97.651 1.527.652.556 1.829.556M79.443 0h-.004C68.234 0 58.987 5.957 50.16 12.265 40.16 5.453 30.868 0 20.245 0 10.43 0 0 6.942 0 19.807 0 32.074 8.287 40 21.112 40a38.5 38.5 0 0 0 15.011-3.002 77.2 77.2 0 0 0 15.068-8.413C61 34.806 69.72 40 81.207 40c12.4 0 20.733-8.115 20.733-20.193C101.94 7.777 93.11.002 79.443 0M62.387 21.585l-.093.002a.81.81 0 0 1-.66-.322l.091-.06zm-4.391 2.383a.88.88 0 0 1-.866.867l-.617.01 1.454-1.033a1 1 0 0 1 .029.156m-20.807-9.605a.76.76 0 0 1 .734-.734l.676-.023a.784.784 0 0 1 .054 1.566H38.6l-.676-.023a.76.76 0 0 1-.734-.786m.441 3.187a.77.77 0 0 1-.267.603 91 91 0 0 0-1.8-1.012.76.76 0 0 1 .58-.323l.677-.024a.784.784 0 0 1 .81.756m2.575-.816.677-.012a.856.856 0 0 1 .03 1.711h-.03l-.677-.012a.844.844 0 0 1 0-1.687m20.28 6.4h.03l.676.012a.809.809 0 0 1 0 1.617l-.676.012a.82.82 0 1 1-.03-1.641m-13.762-9.648a.89.89 0 0 1 .854.635l-1.599 1.153a.893.893 0 0 1 .068-1.784zm-2.509-3.174q.801.518 1.605 1.052a.89.89 0 0 1-.865.739h-.01l-.677-.003a.894.894 0 0 1-.053-1.788m-1.553 3.221a.856.856 0 0 1 .03 1.712h-.03l-.677-.013a.844.844 0 0 1 0-1.687zm-.798-4.704a.82.82 0 0 1-.531-.324zm-1.658 1.528.677-.012a.856.856 0 1 1 .03 1.71h-.03l-.677-.01a.844.844 0 0 1 0-1.688m-2.282-3.105.676-.023a.784.784 0 1 1 0 1.566l-.676-.023a.76.76 0 0 1 0-1.52m-1.78 3.188.677-.023a.783.783 0 1 1 0 1.566l-.677-.023a.76.76 0 0 1 0-1.52M33.86 7.39l.678-.022a.645.645 0 0 1 .043 1.288h-.043l-.678-.023a.622.622 0 0 1 0-1.242m1.343 6.977a.643.643 0 0 1-.665.665l-.678-.023a.621.621 0 0 1 0-1.241l.678-.023a.644.644 0 0 1 .665.622M32.082 4.202l.676-.023.016.003a.643.643 0 1 1-.016 1.285l-.676-.023a.621.621 0 0 1 0-1.242m0 6.378.676-.023a.644.644 0 1 1 0 1.287l-.676-.023a.62.62 0 0 1 0-1.241m-2.284-3.05.677-.023a.505.505 0 0 1 .035 1.01h-.035l-.677-.024a.482.482 0 0 1 0-.963m1.2 6.841a.5.5 0 0 1-.21.416q-.71-.308-1.416-.585a.48.48 0 0 1 .426-.295l.677-.023a.504.504 0 0 1 .522.487M28.02 4.341l.677-.023a.505.505 0 1 1 0 1.01l-.677-.023a.482.482 0 0 1 0-.964m0 6.378.677-.024a.505.505 0 1 1 .034 1.01h-.034l-.677-.023a.482.482 0 0 1 0-.963m-2.283-2.972.676-.038a.303.303 0 0 1 .034.606h-.034l-.677-.038a.265.265 0 0 1 0-.53m-1.78-3.188.678-.038a.303.303 0 1 1 0 .604l-.678-.037a.265.265 0 0 1 0-.53m0 6.377.678-.038a.303.303 0 1 1 0 .605l-.678-.038a.265.265 0 0 1 0-.53M22.352 7.96a.05.05 0 0 1 .054.047.05.05 0 0 1-.047.055h-.008l-.676-.05zm-1.78-3.188a.05.05 0 0 1 .038.012q.008.007.012.015a.05.05 0 0 1 .003.04.05.05 0 0 1-.044.034h-.009l-.677-.05zm0 6.376a.05.05 0 0 1 .056.047.05.05 0 0 1-.047.055h-.009l-.677-.05zm-6.643 8.658c0-4.059 3.522-5.907 6.795-5.907 6.115 0 11.112 2.715 17.525 6.635-4.818 2.983-9.638 5.198-14.703 5.613-.546.032-1.091.066-1.649.07l-.06.002h-.004c-3.822-.001-7.904-1.686-7.904-6.413m40.918 8.247-.677.004a.914.914 0 0 1-.92-.902q.661-.464 1.315-.926l.282.002a.911.911 0 0 1 0 1.822m2.948 2.817q-1.002-.57-1.996-1.16a.9.9 0 0 1 .625-.271h.029l.677.011a.88.88 0 0 1 .866.895.86.86 0 0 1-.201.525m1.114-2.847-.677.01a.893.893 0 0 1-.37-1.71.9.9 0 0 1 .341-.072h.03l.676.01a.88.88 0 0 1 0 1.761m1.606 3.128a.821.821 0 0 1-.03-1.641h.03l.677.012a.808.808 0 0 1 0 1.617zm3.133 2.764a73 73 0 0 1-1.966-.956.82.82 0 0 1 .583-.26h.029l.677.012a.81.81 0 0 1 .794.823.8.8 0 0 1-.117.38m-.677-5.964-.677.012a.82.82 0 0 1-.029-1.641h.029l.677.011a.808.808 0 0 1 0 1.617m1.606 3.094a.714.714 0 0 1-.05-1.428h.05l.677.023a.691.691 0 0 1 0 1.381zm-.738-7.067a.715.715 0 0 1 .689-.739h.048l.678.024a.69.69 0 0 1 0 1.381l-.678.023a.714.714 0 0 1-.737-.689m3.194 10.232-.677.023a.714.714 0 1 1 0-1.427l.677.023a.69.69 0 0 1 0 1.38m0-6.378-.677.024a.715.715 0 1 1 0-1.428l.677.023a.69.69 0 0 1 0 1.381m1.012 2.518a.575.575 0 0 1 .594-.593l.677.023a.55.55 0 0 1 0 1.1l-.677.025a.574.574 0 0 1-.594-.555m1.11 5.801.16.006a.55.55 0 0 1 .388.18q-.275-.09-.549-.186m1.94-2.081-.677.023a.574.574 0 1 1 0-1.148l.676.023a.552.552 0 0 1 0 1.102m0-6.377-.677.023a.574.574 0 0 1-.04-1.148h.04l.676.023a.55.55 0 0 1 0 1.102m2.283 9.39-.677.039a.415.415 0 1 1 0-.828l.677.038a.377.377 0 0 1 0 .752m0-6.376-.677.038a.416.416 0 1 1 0-.828l.677.038a.377.377 0 0 1 0 .752m1.779 3.188-.678.038a.42.42 0 0 1-.398-.234.415.415 0 0 1 .398-.594l.678.039a.376.376 0 0 1 0 .75m-1.115-6.73a.4.4 0 0 1 .079-.256q.68.189 1.369.342a.37.37 0 0 1-.333.267l-.678.038a.415.415 0 0 1-.437-.39m3.397 9.69-.676.038a.185.185 0 1 1 0-.37l.676.038a.15.15 0 0 1 .14.155.147.147 0 0 1-.14.138m0-6.377-.676.038a.186.186 0 0 1-.021-.37h.02l.677.038a.147.147 0 0 1 .1.248.15.15 0 0 1-.1.046m1.78 3.188-.677.038a.185.185 0 1 1 0-.37l.677.038a.147.147 0 0 1 0 .294m1.508-7.447c-6.282 0-11.733-2.422-17.778-5.828 5.625-3.687 11.118-6.475 16.716-6.478h.01c5.131 0 8.319 2.258 8.319 5.893 0 4.734-3.915 6.413-7.267 6.413"/></svg>