<svg xmlns="http://www.w3.org/2000/svg" width="176" height="40" fill="none" viewBox="0 0 176 40"><g fill="#fff" clip-path="url(#a)"><path fill-rule="evenodd" d="M9.208 15.895c-6.992 15.02-7.358 15.815-7.415 16.1-.21 1.05-.15 1.98.19 2.913a5.1 5.1 0 0 0 1.758 2.365c.386.292 1.32.73 1.79.838a5.1 5.1 0 0 0 2.952-.172c.929-.338 1.644-.859 2.32-1.69l.224-.276 7.376-15.79 7.376-15.79-4.608-2.15L16.563.096zm7.974-3.247c.207.27.163.636-.098.827-.439.32-1.043-.138-.856-.649.051-.14.1-.206.198-.27.258-.166.589-.126.756.092m-2.663 1.561c.26.222.356.72.203 1.05a.937.937 0 0 1-1.211.44.85.85 0 0 1-.457-.518c-.177-.486.031-.953.509-1.141.343-.136.666-.079.956.169m.68 4.082c.241.265.23.705-.023.936-.172.156-.284.199-.512.195a.673.673 0 0 1-.647-.701c.024-.592.783-.868 1.182-.43m-5.8 1.42c.23.557.68 1.066 1.302 1.474.411.27 1.577.768 2.205.94 1.259.346 2.36.39 2.961.116l.2-.09-3.02 6.476c-2.883 6.18-3.031 6.49-3.244 6.776-1.095 1.467-3.02 1.965-4.655 1.202-1.635-.762-2.492-2.557-2.071-4.339.082-.346.224-.66 3.106-6.84l3.02-6.478.027.211c.015.117.091.365.169.552" clip-rule="evenodd"/><path d="M45.988 30.244c-2.358 0-4.144-.929-5.252-2.322v8.289h-5.002V11.058h5.002v1.93c1.108-1.358 2.894-2.287 5.252-2.287 5.18 0 8.182 4.43 8.182 9.754 0 5.359-3.001 9.79-8.182 9.79m-5.36-10.29v1.037c0 3.18 1.787 4.966 4.181 4.966 2.823 0 4.323-2.251 4.323-5.502 0-3.216-1.5-5.466-4.323-5.466-2.394 0-4.18 1.75-4.18 4.966m16.528 9.896V4.199h5.002v8.79c1.036-1.216 2.75-2.287 5.145-2.287 3.93 0 6.323 2.68 6.323 6.752v12.398h-5.001V18.883c0-2.108-.858-3.608-3.002-3.608-1.75 0-3.465 1.25-3.465 3.716v10.86zm37.809-9.397c0 5.86-3.788 9.79-9.218 9.79s-9.218-3.93-9.218-9.79c0-5.824 3.787-9.754 9.218-9.754 5.43 0 9.218 3.93 9.218 9.754m-13.47 0c0 3.573 1.644 5.645 4.252 5.645s4.216-2.073 4.216-5.645c0-3.537-1.608-5.61-4.216-5.61s-4.252 2.073-4.252 5.61m14.66 6.216 3.108-3.18c1.286 1.751 3.573 2.859 5.681 2.859 1.678 0 3.144-.572 3.144-1.93 0-1.429-1.393-1.607-4.395-2.179-3.037-.607-6.395-1.393-6.395-5.43 0-3.609 3.18-6.11 7.682-6.11 3.322 0 6.288 1.358 7.752 3.251l-2.858 3.144c-1.25-1.607-3.073-2.5-5.037-2.5-1.573 0-2.609.678-2.609 1.714 0 1.215 1.251 1.43 3.574 1.894 3.286.679 7.181 1.43 7.181 5.68 0 3.93-3.645 6.36-8.146 6.36-3.395 0-6.967-1.25-8.682-3.573m30.01 3.573c-2.358 0-4.144-.929-5.252-2.322v8.289h-5.002V11.058h5.002v1.93c1.108-1.358 2.894-2.287 5.252-2.287 5.18 0 8.182 4.43 8.182 9.754 0 5.359-3.002 9.79-8.182 9.79m-5.359-10.29v1.037c0 3.18 1.786 4.966 4.18 4.966 2.823 0 4.324-2.251 4.324-5.502 0-3.216-1.501-5.466-4.324-5.466-2.394 0-4.18 1.75-4.18 4.966m16.528 9.896V4.199h5.002v8.79c1.036-1.216 2.751-2.287 5.145-2.287 3.93 0 6.324 2.68 6.324 6.752v12.398h-5.003V18.883c0-2.108-.857-3.608-3-3.608-1.751 0-3.466 1.25-3.466 3.716v10.86zm37.809-9.397c0 5.86-3.787 9.79-9.218 9.79s-9.218-3.93-9.218-9.79c0-5.824 3.787-9.754 9.218-9.754s9.218 3.93 9.218 9.754m-13.47 0c0 3.573 1.644 5.645 4.252 5.645s4.216-2.073 4.216-5.645c0-3.537-1.608-5.61-4.216-5.61s-4.252 2.073-4.252 5.61"/></g><defs><clipPath id="a"><path fill="#fff" d="M0 0h175.144v40H0z"/></clipPath></defs></svg>