<svg xmlns="http://www.w3.org/2000/svg" width="75" height="25" fill="none" viewBox="0 0 75 25"><g fill="#fff" clip-path="url(#a)"><path d="M25.31 0h3.582v3.882H25.31zm0 5.561h3.582v18.372H25.31zM31.956 0h3.582v12.715L47.9 2.79h4.962l-12.98 10.219 13.331 10.924h-5.198L35.536 13.83v10.102h-3.583V0zM0 23.934V0h12.863c8.666 0 9.6 5.391 9.6 7.708s-.934 7.71-9.603 7.71H3.582v8.517zm3.582-12.07h8.634c4.488 0 6.402-1.243 6.402-4.156s-1.914-4.156-6.402-4.156H3.582zM62.82 24.24c-3.178 0-5.711-.47-7.132-1.324-1.588-.955-2.36-2.433-2.36-4.519 0-5.317 5.36-6.012 14.239-7.161 1.184-.153 2.397-.31 3.674-.488 0-3.382-1.852-4.581-7.077-4.581-4.325 0-6.254 1.286-6.254 4.168h-3.612c0-4.818 3.689-7.694 9.867-7.694 7.352 0 10.63 2.418 10.63 7.84v9.274c0 2.502.147 4.16.149 4.177h-3.258c0-.01-.092-.912 0-2.37-1.02 1.6-4.583 2.677-8.864 2.677zm8.42-10.352c-5.355.62-9.126 1.142-11.369 1.817-2.082.626-2.93 1.397-2.93 2.661 0 2.593 3.258 2.98 5.198 2.98 3.17 0 5.308-.387 6.733-1.217 1.594-.929 2.369-2.48 2.369-4.74z"/></g><defs><clipPath id="a"><path fill="#fff" d="M0 0h75v25H0z"/></clipPath></defs></svg>