<svg xmlns="http://www.w3.org/2000/svg" width="283" height="102" fill="none" viewBox="0 0 283 102"><g fill="#fff" clip-path="url(#a)"><path d="M210.212 35.128c1.837 1.514 3.514 3.16 5.179 4.858l1.029.994c6.817 7.032 8.224 17.1 8.093 26.455-.321 10.285-4.387 19.263-11.864 26.38-8.537 7.164-18.493 8.704-29.316 8.048-9.432-1.031-17.143-5.729-23.214-12.855-6.614-8.617-8.291-19.054-7.232-29.658 1.305-9.47 5.983-17.837 13.415-23.855 12.229-8.797 31.636-9.672 43.91-.367m-36.584 16.21c-3.739 7.449-4.18 15.73-1.85 23.676 1.619 4.362 4.347 8.344 8.518 10.631 4.938 2.047 10.407 2.437 15.434.437 4.814-2.407 8.056-6.171 9.768-11.197 2.07-7.327 1.873-15.031-1.327-22.013-2.427-4.263-5.669-7.245-10.319-8.894-8.336-1.986-14.797 1.1-20.224 7.36m67.308-41.792 8.484-.031 2.68-.014 2.092-.004 1.107-.008c.889 0 1.779.026 2.668.057.501.499.501.499.557 2.48q0 1.326-.007 2.652l-.003 1.408q-.005 2.235-.015 4.47l-.007 3.021q-.009 3.714-.024 7.426h16.029v13.474h-16.029q.046 7.574.118 15.147.034 3.516.055 7.033.02 3.392.059 6.785.012 1.296.017 2.59.01 1.813.035 3.625l-.002 1.086c.034 1.931.034 1.931.917 3.602 4.162 2.854 9.635 1.41 14.329 1.05l2.003 13.474c-8.536 2.511-18.938 4.678-27.289.355-4.265-2.593-5.945-5.639-7.353-10.344-.934-3.875-.664-7.943-.617-11.9q.006-1.412.009-2.825c.007-2.457.027-4.913.049-7.37.021-2.516.03-5.032.04-7.548.021-4.92.057-9.84.098-14.76h-12.523V31.003h12.523zM89.663 31.004h17.532v68.864H89.663zm33.561-26.947h17.531v95.81h-17.531zM91.783 4q1.077 0 2.154.008l1.144.002q1.815.006 3.629.015l2.454.007q3.015.009 6.03.025v16.467H89.662l-.031-7.953-.014-2.512-.004-1.962-.007-1.037c0-.835.025-1.67.056-2.504.501-.5.501-.5 2.121-.556M0 4.057c60.496 0 60.496 0 69.564 8.67 6.171 6.614 8.285 14.336 8.179 23.286-.351 6.81-2.845 14.648-7.745 19.688-10.898 9.396-22.546 8.948-36.187 8.83l-15.277-.094v35.43H0zm18.534 15.968a50 50 0 0 0-.057 2.714v1.755l.008 1.911.002 1.944q.004 2.564.012 5.127.007 2.614.01 5.228.009 5.131.025 10.264 5.385.056 10.77.082 1.83.012 3.657.03c1.762.019 3.524.027 5.286.034l1.625.023c5.656.002 11.413-.729 15.729-4.66 2.74-2.939 3.321-6.574 3.506-10.48-.239-4.565-1.81-8-5.134-11.134-4.75-3.76-11.26-3.415-17.017-3.403l-1.559-.002q-1.614 0-3.229.003-2.482.003-4.965-.003l-3.146.002-1.505-.003-1.379.004-1.218.002c-.93-.037-.93-.037-1.421.562"/></g><defs><clipPath id="a"><path fill="#fff" d="M0 0h283v102H0z"/></clipPath></defs></svg>