<svg xmlns="http://www.w3.org/2000/svg" width="219" height="60" fill="none" viewBox="0 0 219 60"><path fill="#fff" d="m40.83.915.687 2.037c5.454 16.124 6.048 27.783 3.541 36.13-2.514 8.381-8.13 13.335-14.868 16.08-6.688 2.725-11.61 2.885-14.896 2.332a14.6 14.6 0 0 1-2.957-.805c-3.17 1.501-6.57 2.51-10.139 2.763l-.138-1.948c14.433-1.019 25.35-14.159 29.905-26.942a.801.801 0 1 0-1.51-.537c-1.918 5.386-5.012 11.096-9.5 15.868a19.9 19.9 0 0 0 .594-8.488.802.802 0 1 0-1.588.234c.58 3.952-.206 7.421-1.4 10.177-1.192 2.747-5.823 4.804-8.551 6.015l-.296.131c-1.958-6.86-1.498-12.374.448-17.034 2.063-4.94 5.776-8.85 9.87-12.363 1.79-1.536 3.65-2.987 5.51-4.438 2.333-1.82 4.667-3.641 6.86-5.628 3.766-3.409 6.739-7.034 7.89-11.503z"/><path fill="#fff" d="m9.009 11.956-.947-.824.315 1.215c.674 2.613.058 5.284-1.096 8.06-.677 1.624-1.528 3.24-2.39 4.87-2.108 3.99-4.262 8.07-3.976 12.594.193 3.085 1.627 6.185 5.1 9.297l.682.612c-.352-9.363 3.892-18.553 11.804-23.8l-.229-.327a79 79 0 0 1-1.38-2.078c-1.845-2.84-4.124-6.341-7.883-9.62m69.569 7.98a6.3 6.3 0 0 0-2.811-.625h-9.404v22.18h4.311v-7.433h5.25q2.092-.001 3.623-1.064a7.5 7.5 0 0 0 2.406-2.748 7.65 7.65 0 0 0 .875-3.562q0-1.374-.531-2.687a7.9 7.9 0 0 0-1.5-2.374 7.1 7.1 0 0 0-2.219-1.687m-1.499 9.903a2.4 2.4 0 0 1-1.406.439h-4.999V23.09h4.812q.78 0 1.437.406.687.405 1.093 1.217.439.813.438 1.969 0 1.062-.375 1.905-.376.813-1 1.25m9.687 10.872q-1.062-1.062-1.063-3V18.685h4.186v17.558q.001 1.123.374 1.53.376.375 1.032.375.499 0 1.03-.126a5 5 0 0 0 .937-.312l.563 3.186a8 8 0 0 1-1.968.625q-1.125.22-2.03.22-1.966 0-3.061-1.032m9.777 4.187q-.516-.106-1.03-.22v3.625q.593.187 1.093.249.5.095 1 .095 1.404 0 2.531-.531a5 5 0 0 0 1.904-1.405 5.7 5.7 0 0 0 1.156-1.97l6.874-19.618h-4l-3.873 12.089-4.405-12.09H93.45l6.467 16.37q-.407 1.375-.782 2.125-.374.78-.781 1.063-.375.312-.97.311-.34 0-.842-.093m50.486-3.749q1.593.655 3.56.655 1.813.001 3.312-.53a8.2 8.2 0 0 0 2.593-1.53 6.7 6.7 0 0 0 1.718-2.219l-3.593-1q-.406 1-1.53 1.625a4.84 4.84 0 0 1-2.343.593 4.66 4.66 0 0 1-2.062-.468 4.3 4.3 0 0 1-1.562-1.437q-.594-.937-.718-2.187h12.653q.03-.25.061-.625.032-.405.032-.781a8.54 8.54 0 0 0-1.031-4.124 7.7 7.7 0 0 0-2.905-3.092q-1.906-1.187-4.593-1.187-2.655 0-4.624 1.185a8.07 8.07 0 0 0-3 3.094q-1.03 1.938-1.03 4.28 0 1.686.594 3.218a8.8 8.8 0 0 0 1.749 2.687 8.3 8.3 0 0 0 2.719 1.843m7.122-11.31q.593.907.719 2.156h-8.561q.126-1.25.688-2.155a4.1 4.1 0 0 1 1.5-1.438 4.1 4.1 0 0 1 2.062-.53 4.17 4.17 0 0 1 2.092.53 3.8 3.8 0 0 1 1.5 1.438m6.736 6.811q0-1.594.875-2.78.907-1.218 2.5-1.873 1.593-.659 3.654-.658 1.032 0 2.094.157 1.063.154 1.843.5v-.875q0-1.562-.937-2.405-.906-.844-2.717-.845-1.344 0-2.563.468c-.903.362-1.762.823-2.561 1.376l-1.343-2.75a13.4 13.4 0 0 1 3.31-1.592 12.1 12.1 0 0 1 3.593-.531q3.499 0 5.436 1.749 1.969 1.75 1.968 4.999v5.217q0 .656.219.936.25.282.781.344v3.406q-.563.094-1.03.156a5.5 5.5 0 0 1-.751.062q-1.25 0-1.905-.562a2.43 2.43 0 0 1-.782-1.376l-.093-.841a7.2 7.2 0 0 1-2.655 2.123 7.56 7.56 0 0 1-3.25.75q-1.624 0-2.936-.656a5.4 5.4 0 0 1-2.031-1.844 5.03 5.03 0 0 1-.719-2.655m10.186.843q.342-.373.562-.75a1.4 1.4 0 0 0 .218-.687V34.4a7.7 7.7 0 0 0-1.625-.468 8 8 0 0 0-1.655-.188q-1.624 0-2.687.717-1.03.69-1.031 1.844 0 .626.344 1.187.343.564.999.907.657.343 1.563.343c.629 0 1.254-.117 1.842-.343a4.8 4.8 0 0 0 1.47-.907m13.721.281q-.376-.406-.375-1.53V18.685h-4.187v19.024q0 1.938 1.063 3 1.092 1.032 3.061 1.032.906 0 2.031-.22 1.124-.219 1.969-.625l-.564-3.186q-.452.203-.936.312a4.5 4.5 0 0 1-1.032.126q-.654 0-1.03-.375m15.325 2.874q-.532.22-1.282.5a9.3 9.3 0 0 1-1.625.437 8 8 0 0 1-1.718.187 5.4 5.4 0 0 1-2.125-.405 3.5 3.5 0 0 1-1.561-1.282q-.562-.905-.562-2.341v-9.404h-2.156v-3.22h2.156v-5.31h4.185v5.312h3.438v3.218h-3.438v7.997q.032.843.47 1.218t1.093.374q.656 0 1.281-.219.625-.218.999-.373zm12.769-11.184q.751.937.751 2.843v9.184h4.185V31.276q0-1.22-.218-2.345a6 6 0 0 0-.781-2.062 3.93 3.93 0 0 0-1.562-1.467q-1-.562-2.593-.562a6.86 6.86 0 0 0-3.405.873 6.45 6.45 0 0 0-2.469 2.437v-9.465h-4.185V41.49h4.185v-9.559q.313-1 .969-1.75a5.3 5.3 0 0 1 1.531-1.217q.844-.44 1.593-.44 1.282 0 1.999.939m-74.148-10.154V41.49h-4.28v-9.465h-10.06v9.465h-4.311V19.31h4.311v8.966h10.06v-8.967z"/></svg>