<svg xmlns="http://www.w3.org/2000/svg" width="40" height="40" fill="none" viewBox="0 0 40 40"><path fill="#f5f5f3" d="M.017 6.267a6.25 6.25 0 0 1 6.25-6.25h6.682v11.32c0 .864-.7 1.563-1.562 1.563H.017zM0 13.5h11.37c.863 0 1.562.7 1.562 1.563v9.758c0 .863-.7 1.563-1.562 1.563H0zm0 13.466h11.37c.863 0 1.562.7 1.562 1.562V39.85H6.25A6.25 6.25 0 0 1 0 33.6zM13.534 0h12.932v11.321c0 .863-.7 1.563-1.562 1.563h-9.808c-.863 0-1.562-.7-1.562-1.563zm-.017 28.679c0-.863.7-1.563 1.562-1.563h9.808c.862 0 1.562.7 1.562 1.563v11.32H13.517zM27.068 0h6.682A6.25 6.25 0 0 1 40 6.25v6.634H28.63c-.863 0-1.562-.7-1.562-1.563zm-.018 15.046c0-.863.7-1.563 1.563-1.563h11.37v12.884h-11.37c-.863 0-1.562-.7-1.562-1.562zm0 13.633c0-.863.7-1.563 1.563-1.563h11.37v6.634a6.25 6.25 0 0 1-6.25 6.25H27.05z"/></svg>