<svg xmlns="http://www.w3.org/2000/svg" width="196" height="40" fill="none" viewBox="0 0 196 40"><g clip-path="url(#a)"><path fill="#fff" d="M53.683 31.725V6.622h9.288q3.012 0 4.985 1.004 1.972 1.005 2.94 2.761.969 1.757.969 3.945 0 2.08-.933 3.837-.932 1.722-2.904 2.797-1.973 1.04-5.057 1.04h-4.698v9.719zm4.59-13.448h4.411q2.403 0 3.443-1.04 1.076-1.076 1.076-2.905 0-1.865-1.076-2.905-1.04-1.076-3.443-1.076h-4.41zm25.158 13.878q-2.58 0-4.662-1.183a8.9 8.9 0 0 1-3.263-3.264q-1.184-2.115-1.183-4.877t1.219-4.841q1.219-2.115 3.263-3.3 2.08-1.183 4.662-1.183 2.547 0 4.59 1.184a8.5 8.5 0 0 1 3.264 3.299q1.22 2.08 1.22 4.841t-1.22 4.877a8.56 8.56 0 0 1-3.263 3.264q-2.081 1.183-4.627 1.183m0-3.98q1.794 0 3.12-1.327 1.327-1.363 1.327-4.017t-1.327-3.98q-1.326-1.363-3.084-1.363-1.828 0-3.156 1.363-1.29 1.326-1.29 3.98t1.29 4.017q1.328 1.326 3.12 1.327m13.662 3.55V5.905h4.59v25.82zm11.952 7.89 4.124-9.074h-1.075l-6.922-16.604h4.985l4.985 12.516 5.2-12.516h4.877l-11.296 25.678zm19.623-7.89V13.937h4.053l.394 2.403a6.2 6.2 0 0 1 2.259-2.044q1.435-.789 3.3-.789 4.124 0 5.846 3.192a6.95 6.95 0 0 1 2.582-2.331 7.6 7.6 0 0 1 3.586-.86q3.478-.001 5.344 2.08 1.864 2.079 1.865 6.096v10.041h-4.591v-9.611q0-2.295-.896-3.515-.861-1.218-2.69-1.219-1.866 0-3.012 1.363-1.112 1.364-1.112 3.801v9.181h-4.591v-9.611q0-2.295-.896-3.515-.898-1.218-2.762-1.219-1.829 0-2.977 1.363-1.111 1.364-1.111 3.801v9.181zm42.677.43q-2.69 0-4.77-1.147a8.3 8.3 0 0 1-3.263-3.228q-1.184-2.08-1.184-4.805 0-2.762 1.148-4.914 1.184-2.151 3.227-3.335 2.08-1.219 4.878-1.219 2.618 0 4.626 1.148a8.1 8.1 0 0 1 3.12 3.156q1.147 1.972 1.147 4.41 0 .395-.035.825 0 .43-.036.897h-13.52q.143 2.08 1.434 3.263 1.327 1.185 3.192 1.184 1.398 0 2.331-.61a3.96 3.96 0 0 0 1.434-1.65h4.663a8.5 8.5 0 0 1-1.686 3.085q-1.147 1.362-2.869 2.151-1.686.79-3.837.79m.036-14.918q-1.686 0-2.977.968-1.291.933-1.65 2.869h8.858q-.107-1.758-1.291-2.797t-2.94-1.04m20.813 14.488q-2.797 0-4.482-1.363t-1.686-4.841v-7.746h-3.048v-3.838h3.048l.538-4.77h4.053v4.77h4.805v3.838h-4.805v7.782q0 1.29.537 1.793.574.466 1.937.466h2.223v3.909z"/><mask id="b" width="45" height="35" x="0" y="1" maskUnits="userSpaceOnUse" style="mask-type:luminance"><path fill="#fff" d="M44.138 1.379H0v34.483h44.138z"/></mask><g fill="#fff" mask="url(#b)"><path d="M27.241 11.035a2.414 2.414 0 1 0 0-4.828 2.414 2.414 0 0 0 0 4.828m-4.827 4.825a2.414 2.414 0 1 0 0-4.827 2.414 2.414 0 0 0 0 4.828m-4.828 4.828a2.414 2.414 0 1 0 0-4.828 2.414 2.414 0 0 0 0 4.828m-4.827 4.828a2.414 2.414 0 1 0 0-4.828 2.414 2.414 0 0 0 0 4.828m-4.828 4.828a2.414 2.414 0 1 0 0-4.827 2.414 2.414 0 0 0 0 4.827m-4.828 4.826a2.414 2.414 0 1 0 0-4.827 2.414 2.414 0 0 0 0 4.827m24.138-4.826a2.414 2.414 0 1 0 0-4.827 2.414 2.414 0 0 0 0 4.827m4.828-4.828a2.414 2.414 0 1 0 0-4.828 2.414 2.414 0 0 0 0 4.828m4.828-4.828a2.414 2.414 0 1 0 0-4.828 2.414 2.414 0 0 0 0 4.828m4.827-4.829a2.414 2.414 0 1 0 0-4.827 2.414 2.414 0 0 0 0 4.828m-4.827-4.826a2.414 2.414 0 1 0 0-4.828 2.414 2.414 0 0 0 0 4.828m-4.828 4.825a2.414 2.414 0 1 0 0-4.827 2.414 2.414 0 0 0 0 4.828m-4.828 4.828a2.414 2.414 0 1 0 0-4.828 2.414 2.414 0 0 0 0 4.828m-4.827 4.828a2.414 2.414 0 1 0 0-4.828 2.414 2.414 0 0 0 0 4.828m-4.828 4.828a2.414 2.414 0 1 0 0-4.827 2.414 2.414 0 0 0 0 4.827m-4.827 4.826a2.414 2.414 0 1 0 0-4.827 2.414 2.414 0 0 0 0 4.827"/><path d="M12.759 35.171a2.414 2.414 0 1 0 0-4.827 2.414 2.414 0 0 0 0 4.827m24.138-4.826a2.414 2.414 0 1 0 0-4.827 2.414 2.414 0 0 0 0 4.827m4.827-4.828a2.414 2.414 0 1 0 0-4.828 2.414 2.414 0 0 0 0 4.828M32.069 6.206a2.414 2.414 0 1 0 0-4.827 2.414 2.414 0 0 0 0 4.827"/></g></g><defs><clipPath id="a"><path fill="#fff" d="M0 0h195.862v40H0z"/></clipPath></defs></svg>