<svg xmlns="http://www.w3.org/2000/svg" width="215" height="40" fill="none" viewBox="0 0 215 40"><g fill="#fff" clip-path="url(#a)"><path fill-rule="evenodd" d="M83.128 22.217c.153-1.822.24-2.824.38-4.717.201-1.483 1.885-1.291 1.723.199l-.214 3.533h-1.338l-.136 1.704h6.552l.319-4.407c-.061-2.341-1.667-3.251-2.24-3.5-.577-.26-1.285-.271-1.285-.271h-5.891c-.586-.007-3.853.51-4.365 4.537-.061.534-.511 4.99-.511 4.99-.237 2.157.651 5.068 4.277 5.426h8.125l.136-1.745c-1.5 0-2.991.007-4.483 0-.446.014-1.535.03-1.42-1.519.16-1.887.274-3.194.37-4.23m41.304-2.405c.21-1.483.232-3.365 2.432-3.295h3.835l.132-1.76h-8.222c-1.47.004-4.326.512-4.842 4.538-.065.534-.503 4.99-.503 4.99-.24 2.156.77 5.32 4.413 5.426h7.99l.127-1.745s-2.192.009-3.691 0c-1.636-.022-2.261-1.08-2.125-2.805.1-1.725.305-3.378.454-5.349m-60.969-2.855c-.084.245-.994 10.225-.967 10.443.017 1.393 1.176 2.304 2.196 2.31h4.254l.844-9.698c.136-1.64 1.041-2.222 1.828-2.21h3.959l.363-3.044h-2.087c-2.134.004-3.11.924-3.791 2.255l.008-.163.223-2.092h-4.084a2.79 2.79 0 0 0-2.746 2.198M108.286 27.4c.027 1.393 1.264 2.29 2.348 2.31h4.111l1.273-14.953c-.914-.007-6.476-.007-6.476-.007s-1.287 12.432-1.256 12.65m53.935-13.73c.014-.997-.292-2.055-1.394-3.069-.823-.69-1.719-.98-2.502-.979h-2.71l-1.44 16.963c-.014.16-.058.39-.162.588-.149.331-.55.644-.853.732-.529.151-1.101.12-1.635-.513a1.47 1.47 0 0 1-.297-.967c.004-.036.012-.114.016-.185l1.488-16.618h-4.264c-.66.015-2.668.39-3.04 3.032-.039.421-.1 1.156-.209 2.405-.11 1.247-.263 3.018-.394 4.636-.136 1.615-.262 3.085-.35 4.183-.092 1.096-.154 1.821-.18 2.243-.03.422-.03.343-.03.422-.166 1.075.76 3.18 3.691 3.153h5.409c2.494-.167 3.247-1.042 3.464-1.198.81.99 1.89 1.202 2.638 1.202 0 0 4.4.007 4.548-.004 1.728-.152 3.512-.86 5.278-2.722a7.9 7.9 0 0 0 1.828-3.473c.071-.25.11-.484.14-.706.014-.08.023-.159.031-.268.009-.106.027-.243.061-.574.031-.334.071-.859.144-1.746.079-.881.184-2.114.255-3.037.073-.919.127-1.522.165-2.032.031-.512.075-.93.088-1.196.014-.264.027-.372.035-.456.004-.35-.035-.493-.092-.783a3.8 3.8 0 0 0-1.224-2.085c-.823-.705-1.68-.99-2.501-.996h-2.787l-1.399 16.958a1.6 1.6 0 0 1-.162.584c-.158.335-.555.648-.844.728-.542.159-1.107.13-1.644-.503a1.56 1.56 0 0 1-.302-.97c.008-.038.018-.113.031-.188.345-4.186.76-8.376 1.105-12.562m-49.197-4.08c1.955-.103 3.56.541 3.604 1.45.048.905-1.478 1.703-3.429 1.806-1.911.098-3.512-.53-3.564-1.438-.044-.905 1.478-1.717 3.389-1.818m59.612 17.809c.017 1.393 1.176 2.169 1.907 2.281.13.028 4.548.03 4.548.03l1.273-14.953c-.919-.007-6.473 0-6.473 0s-1.286 12.424-1.255 12.642m4.736-17.809c1.945-.103 3.551.541 3.595 1.45.057.905-1.478 1.703-3.428 1.806-1.899.098-3.508-.53-3.552-1.438-.056-.905 1.473-1.717 3.385-1.818m-119.373.033c1.653-.007 3.887.39 4.128 2.986.065.46-.223 3.87-.289 4.613-.057.744-.9 4.378-4.474 4.42h-6.455l-.747 8.067h-4.16c-.682-.007-3.415-.837-3.201-3.901-.004-.436.906-10.383 1.05-11.891.087-2.046 1.942-4.414 4.412-4.295zm-5.45 10.087a1.257 1.257 0 0 0 1.334-1.16l.398-5.833a1.23 1.23 0 0 0-.306-.906 1.18 1.18 0 0 0-.844-.43 1.27 1.27 0 0 0-.905.304 1.3 1.3 0 0 0-.425.86l-.398 5.83c-.043.687.464 1.288 1.146 1.335m82.822-10.087c-.896.022-2.077.898-2.191 2.283l-1.054 11.917c-.385 2.972.433 5.857 4.023 5.887h5.791l.192-1.738-1.932-.008c-1.26.008-1.793-.254-1.671-1.43 0 0 .638-7.401.856-10.018h3.876l.074-1.76h-3.804l.485-5.133zm61.786 8.184a3.83 3.83 0 0 0-1.229-2.085 3.7 3.7 0 0 0-2.509-.933h-2.292l-1.894-.026c-.241 0-.949-.006-1.626-.002-2.787.005-5.296 2.51-5.563 5.123-.36 3.509-.709 7.396-.696 7.518.021 1.398 1.176 2.198 1.911 2.308.132.032 4.553 0 4.553 0s.731-8.166 1.128-12.24c0-.514.411-.932.923-.932s.922.418.922.931l-1.172 12.241s4.426.007 4.566 0c.734.034 2.016-.543 2.305-1.909l.468-5.528c.083-.919.127-1.522.167-2.03.038-.51.069-.935.096-1.202.012-.261.017-.369.017-.45.013-.356-.017-.497-.075-.784m-96.107-6.081c.245-1.221 1.364-2.11 2.747-2.103h4.005s-1.159 13.365-1.268 14.882l-.275 2.894c-.141 1.438-1.308 2.336-2.446 2.31h-7.906c-3.385-.115-4.767-3.268-4.53-5.425 0 0 .415-4.458.51-4.99.469-4.083 3.757-4.52 4.365-4.537h4.47s.288-2.946.328-3.03M99.68 27c0-.023.854-9.248.854-9.248a1.1 1.1 0 0 0-.153-.76q-.38-.551-.975-.412l-.014.002c-.205.035-.533.313-.617.575l-.002.006c-.05.144-.063.181-.076.37l-.853 9.162c-.035.287 0 .53.14.766.24.364.547.503.962.427.263-.027.648-.41.691-.69zm108.239-15.275c.245-1.221 1.369-2.11 2.746-2.103h4.002s-1.159 13.365-1.264 14.882l-.275 2.894c-.136 1.438-1.312 2.336-2.445 2.31h-7.911c-3.381-.115-4.759-3.268-4.523-5.425 0 0 .416-4.458.508-4.99.468-4.083 3.76-4.52 4.355-4.537h4.483s.284-2.946.324-3.03M206.549 27c.006-.023.854-9.248.854-9.248.04-.28-.018-.526-.158-.76-.253-.366-.577-.506-.962-.412l-.018.002c-.201.035-.537.313-.625.575a1 1 0 0 0-.073.375l-.846 9.163c-.038.287-.004.53.128.766.24.364.551.503.962.427.27-.027.652-.41.7-.69z" clip-rule="evenodd"/><path d="M20.962 10.89c1.113-4.093 2.799-7.667 4.71-10.325.512-.698-.194-.608-.537-.467C23.42.777 13.02 5.517 5.705 15.773c-.259.358-.07.899.565.498q.036-.02.168-.115c1.057-.747 6.656-4.705 14.429-4.899l.035-.134q.032-.117.06-.233M1.35 28.987l14.67-4.297c.99-.29 2.023.294 2.312 1.307.284 1.014-.298 2.071-1.283 2.362h-.002l-14.664 4.3C1.395 32.947.354 32.36.07 31.35c-.278-1.016.293-2.073 1.28-2.364m31.486-.478c-.344.242-.698.56-1.09.914-1.76 1.585-4.315 3.884-10.454 3.323-.555-.031-1.044-.063-1.498-.092-2.025-.13-3.347-.214-6.616-.026-4.21.289-6.216 1.31-7.65 2.335-1.176.786-.9 1.221-.497 1.111.098-.027.217-.074.364-.132.515-.2 1.374-.536 2.886-.662 1.692-.087 4.299-.034 6.633.034l.32.005c4.184.07 6.39.106 10.58-.75 4.451-1.07 6.978-4.039 7.804-5.642 0 0 .693-1.453-.782-.418m-7.429 9.059-.279.07c-1.202.309-2.888.742-7.793-.37-2.521-.503-5.573-.72-7.991.263-.329.18-.693.51-.076.742l.772.18h.002c2.182.51 4.571 1.068 7.524 1.443 2.257.275 4.477-.016 5.949-.589.556-.189 1.575-.613 2.248-1.108.57-.413.515-.908-.356-.632"/><path d="M4.484 18.601c7.223-5.622 13.715-6.086 16.071-6.07-.592 2.653-.87 5.213-.86 7.535-10.693 1.452-15.949 5.986-17.941 7.731l-.08.068c-.037.032-.067.058-.129.107-.172.143-.631.303-.595-.365.108-1.627 1.569-7.103 3.534-9.006"/></g><defs><clipPath id="a"><path fill="#fff" d="M0 0h214.667v40H0z"/></clipPath></defs></svg>