<svg xmlns="http://www.w3.org/2000/svg" width="230" height="40" fill="none" viewBox="0 0 230 40"><path fill="#fff" d="M46.669 32.308V8.998h7.876q2.744 0 4.484.99 1.753.98 2.596 2.652.842 1.674.842 3.733t-.842 3.745q-.831 1.685-2.573 2.686-1.74.99-4.462.99h-5.645V21.29H54.5q1.878 0 3.017-.648 1.139-.65 1.65-1.753.525-1.116.524-2.515 0-1.4-.524-2.504-.511-1.104-1.662-1.73-1.15-.639-3.05-.638h-4.962v20.806zm19.98 0V14.826h2.596v2.64h.182q.478-1.297 1.73-2.106t2.823-.808q.296 0 .74.012.444.011.671.034v2.732a8 8 0 0 0-.626-.103 6 6 0 0 0-1.013-.08q-1.275 0-2.276.535a4.04 4.04 0 0 0-1.571 1.457q-.57.922-.57 2.106v11.063zm18.496.364q-2.367 0-4.154-1.126-1.776-1.127-2.777-3.153-.99-2.026-.99-4.735 0-2.73.99-4.77 1-2.036 2.777-3.163 1.787-1.127 4.154-1.127t4.143 1.127q1.787 1.126 2.777 3.164 1.002 2.037 1.002 4.769 0 2.709-1.002 4.735-.99 2.025-2.777 3.153-1.775 1.125-4.143 1.126m0-2.413q1.8 0 2.96-.922 1.16-.921 1.718-2.424t.558-3.255-.558-3.267q-.558-1.514-1.719-2.447-1.16-.933-2.959-.933-1.798 0-2.96.933-1.16.933-1.718 2.447t-.558 3.267q0 1.752.558 3.255t1.719 2.424q1.16.922 2.96.922m12.022 2.05V14.825h2.595v2.731h.228q.546-1.4 1.764-2.174 1.218-.785 2.925-.785 1.731 0 2.88.785 1.16.774 1.81 2.174h.182a5.1 5.1 0 0 1 2.014-2.151q1.343-.808 3.221-.808 2.345 0 3.836 1.468 1.491 1.457 1.491 4.542v11.7h-2.686v-11.7q0-1.935-1.059-2.766t-2.492-.831q-1.844 0-2.857 1.115-1.013 1.105-1.013 2.8v11.382h-2.732V20.334q0-1.49-.967-2.401-.968-.922-2.493-.922a3.7 3.7 0 0 0-1.957.558 4.2 4.2 0 0 0-1.457 1.547q-.547.98-.547 2.265v10.927zm27.857 6.555V14.826h2.595v2.777h.319q.295-.455.82-1.161.534-.717 1.525-1.275 1-.57 2.709-.57 2.208 0 3.892 1.105 1.685 1.104 2.629 3.13.945 2.026.945 4.78 0 2.778-.945 4.815-.944 2.026-2.617 3.141-1.674 1.104-3.859 1.104-1.684 0-2.697-.557-1.013-.57-1.56-1.287a17 17 0 0 1-.842-1.206h-.228v9.242zm2.641-15.297q0 1.98.58 3.494.581 1.503 1.696 2.356 1.115.843 2.732.842 1.685 0 2.811-.887 1.138-.9 1.708-2.413.58-1.526.58-3.392 0-1.844-.569-3.324-.558-1.492-1.696-2.356-1.127-.876-2.834-.876-1.64 0-2.755.83-1.115.82-1.684 2.3-.569 1.468-.569 3.426m24.494-8.741v2.276h-9.06v-2.276zm-6.42-4.189h2.686V27.3q0 1.139.33 1.707.343.558.865.752a3.5 3.5 0 0 0 1.127.182q.444 0 .729-.046l.455-.091.546 2.413a5.5 5.5 0 0 1-.762.205q-.49.114-1.241.114a5.4 5.4 0 0 1-2.231-.49 4.44 4.44 0 0 1-1.798-1.49q-.706-1.002-.706-2.527zm11.2 21.671V8.998h2.823v20.806h10.835v2.504zm24.767.364q-2.367 0-4.154-1.126-1.776-1.127-2.778-3.153-.99-2.026-.99-4.735 0-2.73.99-4.77 1.002-2.036 2.778-3.163 1.787-1.127 4.154-1.127t4.143 1.127q1.787 1.126 2.777 3.164 1.002 2.037 1.002 4.769 0 2.709-1.002 4.735-.99 2.025-2.777 3.153-1.776 1.125-4.143 1.126m0-2.413q1.798 0 2.959-.922 1.161-.921 1.719-2.424t.558-3.255-.558-3.267-1.719-2.447-2.959-.933-2.959.933-1.719 2.447-.558 3.267q0 1.752.558 3.255t1.719 2.424q1.16.922 2.959.922m19.124 2.413q-2.367 0-4.154-1.126-1.776-1.127-2.777-3.153-.99-2.026-.991-4.735 0-2.73.991-4.77 1-2.036 2.777-3.163 1.787-1.127 4.154-1.127t4.143 1.127q1.788 1.126 2.777 3.164 1.002 2.037 1.002 4.769 0 2.709-1.002 4.735-.99 2.025-2.777 3.153-1.776 1.125-4.143 1.126m0-2.413q1.799 0 2.959-.922 1.162-.921 1.719-2.424t.558-3.255-.558-3.267q-.557-1.514-1.719-2.447-1.16-.933-2.959-.933-1.798 0-2.959.933t-1.719 2.447-.557 3.267q0 1.752.557 3.255.558 1.503 1.719 2.424 1.16.922 2.959.922m12.022 8.605V14.826h2.595v2.777h.319q.296-.455.82-1.161.535-.717 1.525-1.275 1.001-.57 2.709-.57 2.208 0 3.892 1.105 1.685 1.104 2.63 3.13t.944 4.78q0 2.778-.944 4.815-.945 2.026-2.618 3.141-1.674 1.104-3.859 1.104-1.684 0-2.697-.557-1.013-.57-1.56-1.287a17 17 0 0 1-.842-1.206h-.228v9.242zm2.641-15.297q0 1.98.58 3.494.581 1.503 1.696 2.356 1.116.843 2.732.842 1.684 0 2.811-.887 1.138-.9 1.707-2.413.58-1.526.581-3.392 0-1.844-.569-3.324-.558-1.492-1.696-2.356-1.127-.876-2.834-.876-1.64 0-2.754.83-1.115.82-1.685 2.3-.569 1.468-.569 3.426M19.23 38.462c10.622 0 19.232-8.61 19.232-19.231S29.852 0 19.23 0 0 8.61 0 19.23c0 10.622 8.61 19.232 19.23 19.232"/><path fill="url(#a)" fill-opacity=".7" d="M19.23 38.462c10.622 0 19.232-8.61 19.232-19.231S29.852 0 19.23 0 0 8.61 0 19.23c0 10.622 8.61 19.232 19.23 19.232"/><defs><linearGradient id="a" x1="10.469" x2="25.327" y1="3.438" y2="35.631" gradientUnits="userSpaceOnUse"><stop stop-color="#fff" stop-opacity="0"/><stop offset="1" stop-color="#ccc" stop-opacity=".8"/></linearGradient></defs></svg>