<svg xmlns="http://www.w3.org/2000/svg" width="155" height="40" fill="none" viewBox="0 0 155 40"><path fill="#fff" d="M151.687 6.17c.006.025-.314.396-.333.421l-.942 1.339-1.169 1.677c-.126.183-.132.183-.333.12-1.188-.371-1.998-.428-3.06.37-1.043.786-1.734 1.973-2.092 3.224-.704 2.438-.384 5.246-.396 7.754-.007 1.715 0 3.424 0 5.14 0 .326.025.3-.296.3h-5.139c-.271 0-.271 0-.271-.27V16.99c0-4.624 1.395-9.3 5.699-11.718 1.358-.76 2.972-1.326 4.587-1.276a6.3 6.3 0 0 1 2.369.54c1.112.51 1.194.68 1.376 1.634M86.246 7.477c-.176.17-.333.32-.497.471q-1.594 1.49-3.198 2.978l-.038.038c-.163.15-.163.15-.333.013-.458-.39-.898-.792-1.376-1.15-.61-.453-1.263-.836-2.004-1.024a3.1 3.1 0 0 0-1.477-.032 1.9 1.9 0 0 0-.923.534c-.333.34-.365.685-.095 1.075.277.402.654.697 1.062.948.742.466 1.54.836 2.331 1.207 1.232.578 2.42 1.219 3.481 2.08 1.288 1.049 2.1 2.387 2.306 4.046.246 1.935-.257 3.67-1.533 5.159-1.162 1.357-2.639 2.199-4.38 2.564-.98.207-1.966.238-2.965.144a10.5 10.5 0 0 1-3.996-1.181 8.7 8.7 0 0 1-2.658-2.174c-.182-.22-.37-.434-.56-.654-.131-.157-.138-.157.007-.308a192 192 0 0 1 1.596-1.608c.61-.616 1.213-1.238 1.822-1.854.15-.15.15-.15.302-.006.414.408.81.83 1.238 1.225.697.647 1.489 1.15 2.45 1.32.943.163 1.835.044 2.601-.591.145-.12.27-.251.377-.402a1.21 1.21 0 0 0-.069-1.508c-.226-.264-.509-.453-.798-.635-.747-.459-1.533-.842-2.33-1.206-1.176-.54-2.326-1.125-3.344-1.936-1.175-.936-2.035-2.092-2.343-3.581-.503-2.444.144-4.537 2.06-6.183 1.132-.974 2.457-1.495 3.928-1.69 2.023-.264 3.895.176 5.667 1.137 1.075.585 2.03 1.339 2.947 2.137.233.213.471.414.742.647M46.422 5.756c-.723 1.307-1.716 2.589-2.558 3.801-.157.227-.157.227-.42.145-1.207-.39-2.1-.365-3.123.502-2.005 1.71-2.237 3.997-2.338 6.454-.05 1.162-.031 2.318-.031 3.48-.007 1.992 0 3.978 0 5.97v.195c-.007.207-.007.207-.22.207h-5.228c-.258 0-.258 0-.258-.251v-2.043c0-6.572-1.175-15.042 5.643-18.912 1.32-.76 2.827-1.307 4.373-1.326 1.433-.013 2.715.634 3.952 1.282.126.062.264.402.208.496M30.21 13.993a11.5 11.5 0 0 0-.25-1.803c-1.019-4.355-4.368-7.735-8.684-8.898-2.4-.647-5.027-.508-7.302.503-2.136.949-3.851 2.583-5.605 4.09C6.56 9.445 4.593 10.67 2.495 11.8c-.202.107-.409.214-.61.327-.276.15-.289.308-.063.509.013.012.032.025.044.038a37 37 0 0 1 4.367 4.46c.767.93 1.25 1.993 1.401 3.193.076.578.107 1.156.107 1.734v15.727c0 .076.006.151 0 .22-.012.132.05.176.176.176.295-.006.59-.012.88-.056a5.93 5.93 0 0 0 3.23-1.508c1.344-1.232 2.01-2.765 2.01-4.587v-5.888c0-.1-.019-.201.019-.302.019-.006.038-.012.057-.006l.132.038c1.093.42 2.224.653 3.386.729a11.4 11.4 0 0 0 3.481-.296 11.76 11.76 0 0 0 5.083-2.62 11.65 11.65 0 0 0 3.28-4.712c.597-1.602.855-3.261.735-4.983m-11.869 5.793c-2.576-.025-4.976-2.092-4.957-5.033a4.96 4.96 0 0 1 5.02-4.957c2.765-.032 5.027 2.287 4.983 5.052-.032 2.846-2.407 4.963-5.046 4.938m92.542-6.346c-.836-6.377-7.144-10.782-13.396-9.714a12.1 12.1 0 0 0-3.255 1.018c-4.04 1.942-6.183 6.108-6.17 10.475.012 5.874.006 11.75.012 17.624v5.335c.006.207.006.22.22.207.333-.018.66-.031.987-.094 1.514-.276 2.758-1.012 3.713-2.212.899-1.13 1.326-2.425 1.326-3.864-.006-2.18 0-4.367 0-6.547v-.352c.402.207.766.383 1.137.534 1.747.704 3.557.905 5.423.729a10.3 10.3 0 0 0 3.87-1.137c1.452-.755 2.671-1.797 3.701-3.067 1.571-1.929 2.375-4.153 2.52-6.622a12.4 12.4 0 0 0-.088-2.313M99.68 19.787c-2.696 0-5.015-2.18-5.008-5.008.006-2.884 2.381-5.02 5.001-4.983 2.696-.044 5.002 2.168 5.008 4.97 0 2.94-2.419 5.02-5.001 5.02m19.277-3.116c5.448 0 10.902-.006 16.349-.006h.22c.195-.007.201-.007.195-.208-.013-.817.025-1.64-.05-2.457-.076-.848-.208-1.677-.453-2.494-.917-3.06-2.808-5.335-5.617-6.824-1.596-.848-3.324-1.169-5.115-1.2a12 12 0 0 0-2.419.201c-1.15.214-2.243.584-3.261 1.169-1.992 1.137-3.443 2.777-4.499 4.788-.766 1.458-1.175 3.01-1.275 4.65a17 17 0 0 0-.007 1.57q.029.604.132 1.207a11.4 11.4 0 0 0 1.483 4.046c.71 1.188 1.565 2.256 2.639 3.136 1.86 1.514 4.022 2.186 6.384 2.312.855.05 1.716.019 2.564-.088 1.087-.145 2.13-.415 3.129-.867 2.136-.962 3.783-2.463 4.983-4.468.446-.741.81-1.527 1.206-2.312-.082-.05-.138-.038-.188-.038q-2.809.001-5.618-.006a.4.4 0 0 0-.364.189c-.641.904-1.502 1.533-2.526 1.947-1.288.522-2.627.71-3.977.365-2.25-.572-3.569-2.093-4.191-4.273-.095-.34-.076-.34.276-.34m.522-5.203c.772-1.382 1.96-2.243 3.493-2.57 1.904-.408 3.657-.019 5.228 1.15.54.402 1.093 1.062 1.3 1.59h-10.072c-.025-.088.019-.126.051-.17m-51.235.874c-.698-2.92-2.306-5.233-4.757-6.949-1.878-1.32-4.002-1.872-6.27-1.91a12 12 0 0 0-1.515.082 10.2 10.2 0 0 0-2.997.735c-2.557 1.062-4.436 2.865-5.75 5.278-.93 1.71-1.344 3.55-1.331 5.398a12.4 12.4 0 0 0 .264 2.695c.452 2.049 1.432 3.82 2.84 5.354 2.03 2.218 4.58 3.349 7.558 3.53.83.051 1.66.026 2.483-.087a11.3 11.3 0 0 0 3.254-.924c1.49-.691 2.727-1.703 3.783-2.947 1.646-1.947 2.557-4.197 2.72-6.742a11.8 11.8 0 0 0-.282-3.512m-11.16 7.447c-2.745-.007-4.995-2.269-4.995-4.99 0-2.79 2.3-5 4.983-5.007 2.828-.007 5.064 2.337 5.014 4.989.044 2.77-2.28 5.014-5.001 5.008"/></svg>