<svg xmlns="http://www.w3.org/2000/svg" width="134" height="40" fill="none" viewBox="0 0 134 40"><g clip-path="url(#a)"><path fill="#fff" d="M1.391 39.012V1.116h6.294l.774 3.757q1.324-1.745 3.477-3.07Q14.14.481 17.62.48q3.863 0 6.899 1.8a13.1 13.1 0 0 1 4.802 4.923q1.765 3.125 1.765 7.094 0 3.968-1.765 7.092a13.24 13.24 0 0 1-4.802 4.87q-3.037 1.746-6.9 1.748-3.09 0-5.41-1.113a9.63 9.63 0 0 1-3.754-3.124v15.244h-7.06zM16.13 22.076q3.37-.001 5.575-2.17 2.209-2.17 2.209-5.612t-2.21-5.664q-2.206-2.224-5.575-2.224c-2.28 0-4.159.74-5.628 2.222-1.437 1.449-2.151 3.319-2.151 5.613s.714 4.18 2.15 5.664q2.207 2.167 5.629 2.167zm23.937 16.936 6.35-13.39h-1.658L34.106 1.112h7.673l7.671 18.474 8-18.473h7.508L47.572 39.012zm31.24-11.643V1.116h6.235l.553 4.444a9.45 9.45 0 0 1 3.643-3.706Q84.164.478 87.421.478q5.078 0 7.892 3.071 2.816 3.07 2.817 8.999v14.82h-7.07V13.183q0-3.387-1.432-5.186-1.438-1.8-4.473-1.8c-1.986 0-3.621.67-4.913 2.01q-1.875 2.014-1.875 5.611V27.37h-7.064zm48.605.634q-4.139.001-7.341-1.694a12.55 12.55 0 0 1-5.022-4.763q-1.822-3.07-1.823-7.094c0-2.715.592-5.134 1.767-7.25q1.821-3.178 4.969-4.924 3.2-1.8 7.508-1.8 4.026 0 7.12 1.694a12.2 12.2 0 0 1 4.8 4.66q1.768 2.908 1.767 6.509c0 .39-.02.793-.054 1.217q-.002.635-.056 1.324h-20.81q.22 3.07 2.208 4.817 2.041 1.746 4.913 1.748 2.154 0 3.586-.901a5.94 5.94 0 0 0 2.209-2.435h7.176a12.35 12.35 0 0 1-2.595 4.551 12.4 12.4 0 0 1-4.414 3.178q-2.596 1.162-5.908 1.163m.056-22.02q-2.593.001-4.581 1.43-1.988 1.375-2.539 4.234h13.633q-.165-2.592-1.988-4.127-1.82-1.539-4.525-1.538"/></g><defs><clipPath id="a"><path fill="#fff" d="M0 0h133.913v40H0z"/></clipPath></defs></svg>