<svg xmlns="http://www.w3.org/2000/svg" width="124" height="51" fill="none" viewBox="0 0 124 51"><path fill="#fff" d="M3.312 15.442a3.12 3.12 0 0 0 3.12-3.122 3.124 3.124 0 0 0-3.12-3.123 3.12 3.12 0 0 0-3.12 3.123 3.124 3.124 0 0 0 3.12 3.122m28.047-.036c-2.649 0-4.88.908-6.73 2.742-1.833 1.815-2.758 4.066-2.758 6.736s.925 4.92 2.757 6.753 4.082 2.742 6.731 2.742 4.88-.908 6.73-2.742c1.851-1.833 2.776-4.066 2.776-6.753s-.924-4.92-2.775-6.754c-1.85-1.816-4.1-2.724-6.731-2.724m4.536 14.053c-1.234 1.234-2.74 1.834-4.536 1.834-1.778 0-3.284-.618-4.499-1.834-1.234-1.235-1.832-2.76-1.832-4.575 0-1.835.617-3.36 1.832-4.576 1.233-1.235 2.721-1.834 4.5-1.834 1.795 0 3.32.618 4.535 1.834 1.233 1.235 1.832 2.76 1.832 4.576 0 1.833-.598 3.358-1.832 4.575M10.242 15.406c-2.649 0-4.88.908-6.73 2.742C1.679 19.963.754 22.214.754 24.884s.925 4.92 2.758 6.753 4.081 2.742 6.73 2.742 4.88-.908 6.73-2.742l.11-.109-1.924 10.676h4.59v-17.32q0-4.004-2.775-6.754c-1.85-1.816-4.082-2.724-6.731-2.724m4.536 14.053c-1.234 1.234-2.74 1.834-4.536 1.834-1.778 0-3.284-.618-4.499-1.834-1.234-1.235-1.832-2.76-1.832-4.575 0-1.835.616-3.36 1.832-4.576 1.233-1.235 2.721-1.834 4.5-1.834 1.795 0 3.319.618 4.535 1.834 1.233 1.235 1.832 2.76 1.832 4.576.018 1.833-.598 3.358-1.832 4.575m37.698-14.053c-2.648 0-4.88.908-6.73 2.742-1.832 1.833-2.758 4.066-2.758 6.754s.926 4.92 2.758 6.753 4.082 2.742 6.73 2.742c2.65 0 4.88-.907 6.73-2.741 1.852-1.834 2.777-4.067 2.777-6.754 0-2.688-.925-4.92-2.776-6.754s-4.1-2.742-6.73-2.742m4.536 14.053c-1.234 1.234-2.74 1.834-4.536 1.834-1.777 0-3.283-.618-4.499-1.834-1.233-1.235-1.832-2.76-1.832-4.575 0-1.835.617-3.36 1.832-4.576 1.234-1.235 2.722-1.834 4.5-1.834 1.795 0 3.32.618 4.535 1.834 1.233 1.235 1.832 2.76 1.832 4.576 0 1.833-.617 3.358-1.832 4.575m16.78-14.053c-2.611 0-4.57 1.017-5.84 3.068V8.907h-3.14v25h3.14V24.34c0-2.016.471-3.523 1.433-4.485.961-.98 2.213-1.452 3.791-1.452 1.397 0 2.486.4 3.284 1.216.798.8 1.198 1.943 1.198 3.413v10.894h3.138V22.832c0-2.288-.635-4.085-1.905-5.429-1.288-1.343-2.975-1.997-5.098-1.997m18.96 0c-2.65 0-4.881.908-6.731 2.742-1.833 1.833-2.758 4.066-2.758 6.754s.925 4.92 2.758 6.753 4.081 2.742 6.73 2.742 4.88-.907 6.73-2.741 2.776-4.067 2.776-6.754c0-2.688-.925-4.92-2.775-6.754s-4.082-2.742-6.73-2.742m4.535 14.053c-1.234 1.234-2.74 1.834-4.536 1.834-1.778 0-3.284-.618-4.499-1.834-1.234-1.235-1.832-2.76-1.832-4.575 0-1.835.617-3.36 1.832-4.576 1.234-1.235 2.721-1.834 4.5-1.834 1.795 0 3.319.618 4.535 1.834 1.233 1.235 1.832 2.76 1.832 4.576.018 1.833-.599 3.358-1.832 4.575m23.312-11.312c-1.851-1.833-4.1-2.74-6.731-2.74-2.649 0-4.88.907-6.73 2.74-1.833 1.834-2.758 4.067-2.758 6.755s.925 4.92 2.758 6.753 4.081 2.742 6.73 2.742 4.88-.907 6.731-2.741 2.775-4.067 2.775-6.754q0-4.032-2.775-6.755m-2.195 11.312c-1.234 1.234-2.74 1.834-4.536 1.834-1.778 0-3.284-.618-4.499-1.834-1.234-1.235-1.832-2.76-1.832-4.575 0-1.835.617-3.36 1.832-4.576 1.234-1.235 2.721-1.834 4.499-1.834 1.796 0 3.32.618 4.536 1.834 1.233 1.235 1.832 2.76 1.832 4.576 0 1.833-.599 3.358-1.832 4.575"/></svg>