<svg xmlns="http://www.w3.org/2000/svg" width="188" height="35" fill="none" viewBox="0 0 188 35"><g clip-path="url(#a)"><mask id="b" width="188" height="35" x="0" y="0" maskUnits="userSpaceOnUse" style="mask-type:luminance"><path fill="#fff" d="M0 .455h187.5v34.09H0z"/></mask><g fill="#fff" mask="url(#b)"><path d="M17.322 34.544a9.3 9.3 0 0 1-3.494-.678 9.2 9.2 0 0 1-2.963-1.947l-8.19-8.06A8.96 8.96 0 0 1 0 17.493c0-2.384.958-4.674 2.675-6.364l8.182-8.044A9.25 9.25 0 0 1 17.322.453c2.422 0 4.749.943 6.465 2.633l8.182 8.053a8.96 8.96 0 0 1 2.675 6.364 8.93 8.93 0 0 1-2.675 6.363l-8.182 8.053a9.1 9.1 0 0 1-2.962 1.947 9.1 9.1 0 0 1-3.494.678zm0-31.518a6.6 6.6 0 0 0-4.618 1.878l-8.182 8.053a6.4 6.4 0 0 0-1.908 4.546c0 1.706.688 3.336 1.908 4.545l8.182 8.053a6.6 6.6 0 0 0 4.618 1.878c1.734 0 3.39-.677 4.618-1.878l8.182-8.053a6.4 6.4 0 0 0 1.908-4.545 6.4 6.4 0 0 0-1.908-4.546L21.94 4.904a6.4 6.4 0 0 0-2.117-1.39 6.6 6.6 0 0 0-2.501-.488"/><path d="m22.036 20.324-1.848 1.818 11.86 11.672 1.846-1.818zm36.404 1.913a3.12 3.12 0 0 0 1.96.54c.365 0 .728-.05 1.08-.146v2.865q-.732.107-1.472.111a5.9 5.9 0 0 1-3.023-.703 4 4 0 0 1-1.717-2.032 7.35 7.35 0 0 1-3.537-.824 5.7 5.7 0 0 1-2.327-2.35 7.5 7.5 0 0 1-.819-3.567 7.46 7.46 0 0 1 .82-3.568 5.6 5.6 0 0 1 2.343-2.342 7.36 7.36 0 0 1 3.546-.823 7.36 7.36 0 0 1 3.547.823 5.66 5.66 0 0 1 2.335 2.35 7.4 7.4 0 0 1 .819 3.568 7.3 7.3 0 0 1-.932 3.765 5.6 5.6 0 0 1-2.623 2.341zm-5.916-6.107a4.7 4.7 0 0 0 .731 2.822c.227.326.532.583.89.763.356.18.749.266 1.15.25.4.016.792-.07 1.15-.25s.662-.437.888-.763a4.8 4.8 0 0 0 .732-2.822 4.7 4.7 0 0 0-.732-2.82 2.4 2.4 0 0 0-.889-.764 2.4 2.4 0 0 0-1.15-.25 2.34 2.34 0 0 0-1.15.25c-.357.18-.662.437-.889.763a4.8 4.8 0 0 0-.731 2.821m14.603-6.44v8.224c-.017.258.026.523.122.764.096.24.235.463.418.651a1.97 1.97 0 0 0 1.438.532c.261.017.531-.026.775-.12s.47-.23.663-.412a1.8 1.8 0 0 0 .409-.66c.087-.24.13-.506.113-.763V9.681h3.852v8.38a4.56 4.56 0 0 1-.698 2.555 4.43 4.43 0 0 1-2.021 1.664 7.6 7.6 0 0 1-3.11.583 7.6 7.6 0 0 1-3.111-.583 4.5 4.5 0 0 1-2.004-1.664 4.6 4.6 0 0 1-.697-2.556V9.681h3.842zm17.426 10.24h-4.487l-.836 2.633h-3.852L80.022 9.69h4.566l4.644 12.873h-3.85zm-.793-2.53-.862-2.796a17 17 0 0 1-.575-2.28h-.035c-.14.77-.331 1.534-.575 2.28L80.85 17.4zm6.762-7.71h4.165l3.459 6.217c.296.54.566 1.098.793 1.664h.044v-7.89h3.554v12.873h-3.981l-3.686-6.33a19 19 0 0 1-.758-1.543h-.035v7.873h-3.555V9.681zm24.319 2.976h-3.625v9.897h-3.851v-9.897h-3.625V9.69h11.109v2.976zm12.991 9.897h-3.851v-5.078h-4.183v5.078h-3.851V9.69h3.851v4.948h4.183V9.69h3.851zm11.754-2.719v2.72h-9.541V9.69h9.41v2.718h-5.559v2.247h5.254v2.668h-5.254v2.521zm10.282.086h-4.488l-.836 2.633h-3.851l4.644-12.873h4.566l4.644 12.873h-3.851zm-.793-2.53-.863-2.796a17 17 0 0 1-.575-2.28h-.035a17 17 0 0 1-.575 2.28l-.862 2.796zm6.761-7.71h3.852v9.828h4.914v3.045h-8.774V9.69zm18.594 2.976h-3.633v9.897h-3.851v-9.897h-3.634V9.69h11.11v2.976zm13.07 9.897h-3.851v-5.078h-4.182v5.078h-3.852V9.69h3.852v4.948h4.182V9.69h3.851z"/></g></g><defs><clipPath id="a"><path fill="#fff" d="M0 0h188v35H0z"/></clipPath></defs></svg>