<svg xmlns="http://www.w3.org/2000/svg" width="173" height="23" fill="none" viewBox="0 0 173 23"><g clip-path="url(#a)"><mask id="b" width="15" height="23" x="0" y="0" maskUnits="userSpaceOnUse" style="mask-type:luminance"><path fill="#fff" d="M14.761 0H0v22.068h14.761z"/></mask><g mask="url(#b)"><path fill="url(#c)" fill-rule="evenodd" d="M13.933 10.793c.53 1.126.828 2.36.828 3.586 0 4.076-3.304 7.663-7.38 7.663S0 18.455 0 14.38c0-1.227.3-2.46.829-3.586.21 3.272 3.063 6.516 6.552 6.516 3.48 0 6.328-3.23 6.55-6.495zM7.38 0q5.192 7.229 5.192 10.472c0 2.663-2.302 5.457-5.192 5.457s-5.193-2.794-5.193-5.457Q2.188 7.228 7.381 0" clip-rule="evenodd"/></g><path fill="#fff" d="M171.079 15.163a6.5 6.5 0 0 0-1.342-1.378 3 3 0 0 0-.396-.276 3.9 3.9 0 0 0 1.83-.97 2.56 2.56 0 0 0 .831-1.93 2.42 2.42 0 0 0-.64-1.683 3.45 3.45 0 0 0-1.664-.94 9.4 9.4 0 0 0-2.565-.259h-2.578v11.3h1.941v-5.215l.277.017c2.87 0 4.411 4.55 4.564 5.187h1.664c-1.09-2.745-1.922-3.853-1.922-3.853m-14.97-7.306v.761h-4.836v4.25h3.167v.741h-3.167v4.812h4.806v.742h-6.781V7.857zm-23.385 0v5.347l5.81-5.342h1.075l-4.902 4.606 6.554 6.695h-2.694l-5.293-5.432-.55.515v4.917h-1.952V7.857zm-15.49 0 4.82 11.306h-2.12a176 176 0 0 0-.868-2.126l-.795-1.894h-3.767l-1.555 4.02h-.975l4.711-11.306zm-23.34 0 3.852 8.772 3.84-8.772h1.806v11.306h-1.942V9.98l-4.019 9.183h-.618L92.824 9.98v9.183h-.738V7.857zm-17.98 0 5.937 7.906V7.857h.835v11.306h-.578l-7.393-9.698v9.425h-.747V7.857zm-11.209 0v11.306h-1.907V7.857zm-15.445 0 4.82 11.306h-2.117c-.627-1.547-.87-2.126-.87-2.126l-.793-1.894h-3.77l-1.555 4.02H44l4.698-11.306zm-19.588.006a9.4 9.4 0 0 1 2.56.26 3.4 3.4 0 0 1 1.661.94 2.42 2.42 0 0 1 .642 1.683 2.58 2.58 0 0 1-.83 1.93 3.9 3.9 0 0 1-1.83.97q.211.12.399.275c.513.39.966.853 1.342 1.375 0 0 .83 1.103 1.938 3.859h-1.677c-.153-.637-1.689-5.187-4.554-5.187l-.277-.017v5.212h-1.938v-11.3zm86.703 2.636-1.585 3.913h3.218zm-67.999 0-1.585 3.913h3.207zm-19.33-1.825v4.55h1.066q.283-.011.554-.091c.182-.044.348-.105.5-.152h.003c.51-.18.914-.574 1.108-1.077.105-.328.156-.67.152-1.015a2.44 2.44 0 0 0-.534-1.67c-.305-.377-1.083-.529-2.362-.529zm137.45-.14.488.017c1.284 0 2.06.152 2.365.53.38.471.57 1.066.535 1.67.005.344-.047.686-.153 1.014a1.85 1.85 0 0 1-1.109 1.077h.017c-.152.047-.322.108-.505.152q-.271.08-.554.09h-1.084z"/></g><defs><linearGradient id="c" x1="7.455" x2="7.381" y1="-.278" y2="28.095" gradientUnits="userSpaceOnUse"><stop stop-color="#fff"/><stop offset="1" stop-color="#ccc"/></linearGradient><clipPath id="a"><path fill="#fff" d="M0 0h173v23H0z"/></clipPath></defs></svg>