<svg xmlns="http://www.w3.org/2000/svg" width="139" height="26" fill="none" viewBox="0 0 139 26"><path fill="#fff" d="M30.504 21q-1.008 0-1.008-1.008V9.84q0-1.008 1.008-1.008t1.008 1.008v.936a4.5 4.5 0 0 1 1.8-1.452q1.104-.492 2.52-.492 1.008 0 1.008 1.008t-1.008 1.008q-2.076 0-3.168.768t-1.152 2.028v6.348q0 1.008-1.008 1.008m12.492 0q-2.016 0-3-.984t-.984-3 .972-3q.984-.984 3.012-.984h5.076q-.072-1.26-.66-1.716-.588-.468-2.016-.468h-1.392q-1.2 0-1.788.168-.588.156-.828.576-.216.504-.444.696t-.684.192q-.504 0-.792-.276-.288-.288-.168-.756.36-1.356 1.5-1.98 1.152-.636 3.204-.636h1.392q2.4 0 3.552 1.152t1.152 3.552v6.456Q50.1 21 49.092 21t-1.008-1.008v-.54Q46.8 21 44.34 21zm0-2.016h1.344a8.5 8.5 0 0 0 1.668-.156 3.2 3.2 0 0 0 1.332-.6q.564-.432.744-1.236v-1.944h-5.088q-1.188 0-1.584.396-.384.396-.384 1.572 0 1.188.384 1.584.396.384 1.584.384m12.777-12.12q-1.14 0-1.14-1.152v-.708q0-1.128 1.14-1.128h.696q1.092 0 1.092 1.128v.708q0 1.152-1.092 1.152zM56.109 21q-1.008 0-1.008-1.008V9.84q0-1.008 1.008-1.008t1.008 1.008v10.152q0 1.008-1.008 1.008m9.096 0q-1.524 0-2.412-.624-.888-.636-1.14-1.896-.084-.504.192-.792.288-.288.792-.288.492 0 .708.252.228.24.372.732.144.36.48.48.348.12 1.008.12h3.936q.936 0 1.26-.3.324-.312.324-1.284 0-.96-.324-1.272t-1.26-.312h-3.864q-1.728 0-2.604-.876t-.876-2.604q0-1.764.852-2.628.864-.876 2.628-.876h3.744q2.82 0 3.336 2.376.096.504-.192.78t-.792.276q-.468 0-.696-.24-.228-.252-.36-.696a.73.73 0 0 0-.444-.384q-.288-.096-.852-.096h-3.744q-.912 0-1.188.276t-.276 1.212q0 .864.288 1.164.3.3 1.176.3h3.864q1.8 0 2.7.9t.9 2.7q0 1.812-.9 2.712-.9.888-2.7.888zM78.7 15.744v.576q0 1.548.564 2.112.564.552 2.124.552h1.968q1.224 0 1.812-.228t.78-.804q.132-.456.36-.696.24-.24.72-.24.504 0 .768.264t.168.768q-.264 1.488-1.416 2.22T83.357 21h-1.968Q79 21 77.837 19.848q-1.152-1.152-1.152-3.528v-2.784q0-2.436 1.152-3.576Q79 8.808 81.389 8.832h1.968q2.4 0 3.552 1.152 1.152 1.14 1.152 3.552v1.2q0 1.008-1.008 1.008zm2.688-4.896q-1.56-.024-2.124.54t-.564 2.148v.192h7.344v-.192q0-1.572-.564-2.124-.552-.564-2.124-.564zM93.719 25.8q-1.007 0-1.007-1.008V9.84q0-1.008 1.008-1.008t1.008 1.008v.3a4.1 4.1 0 0 1 1.596-.972q.96-.336 2.148-.336h.912q2.4 0 3.552 1.152t1.152 3.552v2.76q0 2.388-1.152 3.552Q101.784 21 99.384 21h-4.656v3.792q0 1.008-1.008 1.008m1.009-6.816h4.656q1.572 0 2.124-.564.564-.564.564-2.124v-2.76q0-1.572-.564-2.124-.552-.564-2.124-.564h-.912q-1.5 0-2.592.36t-1.152 1.14zM112.493 21q-2.016 0-3-.984t-.984-3 .972-3q.984-.984 3.012-.984h5.076q-.072-1.26-.66-1.716-.588-.468-2.016-.468h-1.392q-1.2 0-1.788.168-.588.156-.828.576-.216.504-.444.696t-.684.192q-.504 0-.792-.276-.288-.288-.168-.756.36-1.356 1.5-1.98 1.152-.636 3.204-.636h1.392q2.4 0 3.552 1.152t1.152 3.552v6.456q0 1.008-1.008 1.008t-1.008-1.008v-.54Q116.297 21 113.837 21zm0-2.016h1.344a8.5 8.5 0 0 0 1.668-.156 3.2 3.2 0 0 0 1.332-.6q.564-.432.744-1.236v-1.944h-5.088q-1.188 0-1.584.396-.384.396-.384 1.572 0 1.188.384 1.584.396.384 1.584.384m15.321 6.816q-1.74 0-2.604-.876-.852-.864-.852-2.604 0-1.008 1.008-1.008t1.008 1.008q0 .9.264 1.176.276.288 1.176.288h4.656q.888 0 1.164-.288.276-.276.276-1.176v-3.048q-.72 1.08-1.68 1.404a6.3 6.3 0 0 1-2.064.324h-1.176q-2.376 0-3.504-1.128t-1.128-3.48V9.84q0-1.008 1.008-1.008t1.008 1.008v6.552q0 1.512.54 2.052.552.54 2.076.54h1.176q1.968 0 2.856-.636.888-.648.888-1.956V9.84q0-1.008 1.008-1.008t1.008 1.008v12.48q0 1.74-.864 2.604-.864.876-2.592.876zM21.1 16.71a5.64 5.64 0 0 0-1.435-3.616l-5.513-6.59a4.68 4.68 0 0 0-3.575-1.502h-.064a4.7 4.7 0 0 0-3.648 1.63l-5.34 6.462A5.64 5.64 0 0 0 0 16.921c.02 2.062 1.284 3.997 3.464 5.308C5.366 23.373 7.847 24 10.46 24h.16c5.916-.064 10.508-3.263 10.48-7.29M10.538 7.017h.04c1.295 0 2.348.687 2.348 1.546 0 .858-1.053 1.582-2.368 1.596h-.04c-1.295 0-2.348-.67-2.348-1.546 0-.875 1.053-1.586 2.368-1.586zM6.573 10.14c.694 1.21 2.183 2.032 3.95 2.032h.064c1.774-.02 3.263-.855 3.947-2.076.279.334.437.752.45 1.187 0 1.533-1.959 2.794-4.407 2.82h-.074c-2.414 0-4.36-1.213-4.386-2.726.005-.452.166-.89.456-1.237M4.41 12.822c.372.82.968 1.518 1.72 2.013a7.76 7.76 0 0 0 4.36 1.26h.094c2.904-.026 5.288-1.411 6.097-3.353.212.38.328.806.335 1.241.02 2.193-2.867 4-6.449 4.024h-.107c-3.532 0-6.392-1.737-6.416-3.907.014-.445.14-.88.366-1.264zm6.19 9.15h-.14c-4.652 0-8.418-2.261-8.448-5.088-.001-.462.095-.92.282-1.342a5.85 5.85 0 0 0 2.505 2.992 10.73 10.73 0 0 0 5.68 1.516h.132c4.04-.04 7.32-1.969 8.203-4.598.174.401.267.833.274 1.27.027 2.861-3.772 5.216-8.487 5.263z"/></svg>