<svg xmlns="http://www.w3.org/2000/svg" width="40" height="40" fill="none" viewBox="0 0 40 40"><mask id="a" width="40" height="40" x="0" y="0" maskUnits="userSpaceOnUse" style="mask-type:luminance"><path fill="#fff" d="M0 0h40v40H0z"/></mask><g mask="url(#a)"><path fill="#fff" fill-rule="evenodd" d="M10 25.819v4.173l-10-10 2.085-2.085zm4.173 4.173H10l10 10 2.085-2.085zm23.734-7.911 2.088-2.089-20-20-2.083 2.094 7.911 7.911h-4.78L15.52 4.486 13.435 6.57l3.433 3.435h-2.4v15.523h15.524v-2.4l3.435 3.433 2.085-2.083-5.52-5.523v-4.784zM11.043 8.957 8.95 11.046l2.24 2.238 2.087-2.087zm17.76 17.76-2.086 2.089 2.238 2.24 2.088-2.089zM6.565 13.434l-2.088 2.092L10 21.045v-4.177zM23.133 30h-4.176l5.521 5.523 2.089-2.089z" clip-rule="evenodd"/></g></svg>