<svg xmlns="http://www.w3.org/2000/svg" width="41" height="40" fill="none" viewBox="0 0 41 40"><mask id="a" width="41" height="40" x="0" y="0" maskUnits="userSpaceOnUse" style="mask-type:luminance"><path fill="#fff" d="M.216 0h40v40h-40z"/></mask><g mask="url(#a)"><path fill="#000" fill-rule="evenodd" d="M10.216 25.819v4.173l-10-10L2.3 17.907zm4.173 4.173h-4.173l10 10 2.085-2.085zm23.733-7.911 2.089-2.089-20-20-2.084 2.094 7.912 7.911h-4.78l-5.523-5.511L13.65 6.57l3.433 3.435h-2.4v15.523h15.523v-2.4l3.435 3.433 2.085-2.083-5.52-5.523v-4.784zM11.26 8.957l-2.093 2.089 2.24 2.238 2.086-2.087zm17.76 17.76-2.087 2.089 2.239 2.24 2.088-2.089zM6.78 13.434l-2.089 2.092 5.524 5.52v-4.177zM23.349 30h-4.177l5.522 5.523 2.088-2.089z" clip-rule="evenodd"/></g></svg>