<svg xmlns="http://www.w3.org/2000/svg" width="155" height="40" fill="none" viewBox="0 0 155 40"><g clip-path="url(#a)"><mask id="b" width="155" height="40" x="0" y="0" maskUnits="userSpaceOnUse" style="mask-type:luminance"><path fill="#fff" d="M0 0h154.37v40H0z"/></mask><g fill="#fff" mask="url(#b)"><path fill-rule="evenodd" d="M10 25.819v4.173l-10-10 2.085-2.085zm4.173 4.173H10l10 10 2.085-2.085zm23.734-7.911 2.088-2.089-20-20-2.083 2.094 7.911 7.911h-4.78L15.52 4.486 13.435 6.57l3.433 3.435h-2.4v15.523h15.524v-2.4l3.435 3.433 2.085-2.083-5.52-5.523v-4.784zM11.043 8.957 8.95 11.046l2.24 2.238 2.087-2.087zm17.76 17.76-2.086 2.089 2.238 2.24 2.088-2.089zM6.565 13.434l-2.088 2.092L10 21.045v-4.177zM23.133 30h-4.176l5.521 5.523 2.089-2.089z" clip-rule="evenodd"/><path d="M151.645 29.968q-2.023 0-3.15-1.099-1.13-1.101-1.13-3.041v-8h-2.417v-2.995h2.43l.434-4h2.845v4h3.711v3h-3.711v7.563c-.008.412.145.81.426 1.112a1.48 1.48 0 0 0 1.134.463h2.15v2.998zm-14.532.283q-2.693 0-4.333-1.283a5.75 5.75 0 0 1-2.098-3.415h3.571c.155.52.502.961.97 1.236a3.5 3.5 0 0 0 1.89.467c1.905 0 2.862-.533 2.862-1.562q0-.77-.898-1.176a10 10 0 0 0-2.17-.649 27 27 0 0 1-2.564-.626 4.45 4.45 0 0 1-2.19-1.459q-.89-1.066-.895-2.801a3.97 3.97 0 0 1 1.509-3.172q1.515-1.263 4.2-1.262c1.79 0 3.2.4 4.266 1.199a5.36 5.36 0 0 1 2.025 3.233h-3.576q-.572-1.428-2.707-1.428-2.29 0-2.288 1.433a1.23 1.23 0 0 0 .643 1.067c.488.3 1.033.493 1.6.575q1.067.18 2.1.485 1.076.306 2.1.751a3.75 3.75 0 0 1 1.618 1.409c.454.725.679 1.57.649 2.425a4 4 0 0 1-1.6 3.29q-1.599 1.26-4.684 1.263m-10.646-14.19q-1.652-1.483-4.622-1.483-2.375 0-3.977 1.276a6 6 0 0 0-2.133 3.299h3.377c.171-.495.5-.922.933-1.214a3 3 0 0 1 1.787-.505 3.2 3.2 0 0 1 2.195.712 2.52 2.52 0 0 1 .8 1.995v.727h-3.85q-2.68 0-4.19 1.333a4.33 4.33 0 0 0-1.512 3.365 4.44 4.44 0 0 0 1.407 3.388q1.408 1.334 3.733 1.334a5.66 5.66 0 0 0 2.763-.642 4.13 4.13 0 0 0 1.675-1.493h.139l.266 1.866h2.859v-9.866q.003-2.601-1.65-4.092m-1.625 8.087a3.06 3.06 0 0 1-1 2.4q-.991.883-2.712.883-1.251 0-1.915-.567a1.8 1.8 0 0 1-.667-1.443c0-1.333.872-1.995 2.584-1.995h3.71zm-18.14 6.136q-3.25 0-5.195-2.086-1.944-2.085-1.947-5.77c0-2.46.65-4.374 1.94-5.767q1.937-2.085 5.202-2.083 2.649 0 4.395 1.415a6.67 6.67 0 0 1 2.315 3.578h-3.275a3.67 3.67 0 0 0-3.434-1.995 3.46 3.46 0 0 0-2.805 1.267q-1.066 1.273-1.066 3.583 0 2.313 1.066 3.588a3.47 3.47 0 0 0 2.804 1.272 3.68 3.68 0 0 0 3.433-2h3.277a6.72 6.72 0 0 1-2.317 3.583q-1.735 1.414-4.393 1.415m-19.319 5.437 2.285-5.717-6.138-15.136h3.572l4.143 10.711h.137l4.15-10.711h3.57L90.81 35.72zm-6.938-19.66q-1.65-1.483-4.623-1.483-2.373 0-3.977 1.276a5.95 5.95 0 0 0-2.117 3.299h3.374a2.4 2.4 0 0 1 .933-1.214 3 3 0 0 1 1.787-.505q1.391 0 2.193.712a2.5 2.5 0 0 1 .8 1.995v.727h-3.867q-2.666 0-4.188 1.333a4.32 4.32 0 0 0-1.515 3.365 4.43 4.43 0 0 0 1.408 3.375q1.41 1.333 3.734 1.333a5.7 5.7 0 0 0 2.76-.641 4.1 4.1 0 0 0 1.676-1.494h.137l.283 1.867h2.854v-9.867q0-2.587-1.65-4.078m-1.63 8.087a3.05 3.05 0 0 1-1 2.4q-.992.883-2.714.883-1.251 0-1.916-.567a1.82 1.82 0 0 1-.667-1.443q.016-1.99 2.583-1.995h3.714zm-16.897-1.72q.766-.204 1.467-.577a8.2 8.2 0 0 0 1.515-1.067 4.9 4.9 0 0 0 1.261-1.866 7 7 0 0 0 .472-2.624q0-2.856-1.823-4.576-1.827-1.72-4.747-1.712h-8.287v20h3.572v-7.423h2.708L63.205 30h4zm-6.57-3.01V13.15h4.423c1.014 0 1.814.267 2.4.823.587.559.885 1.32.885 2.31q0 1.487-.89 2.315c-.653.567-1.5.862-2.366.819z"/></g></g><defs><clipPath id="a"><path fill="#fff" d="M0 0h155v40H0z"/></clipPath></defs></svg>