<svg xmlns="http://www.w3.org/2000/svg" width="191" height="40" fill="none" viewBox="0 0 191 40"><path fill="#fff" fill-rule="evenodd" d="M14.154 3.86c-1.231.622-3.826 1.833-5.231 2.8-1.406.966-1.231 1.866-1.847 2.488s-2.462 2.177-3.692 3.11c-1.231.933-.924 3.422-1.231 4.355s-.923 3.11-1.23 4.043c-.309.933.615 2.178 1.23 3.422.616 1.244 2.154 4.665 2.77 5.908.615 1.245 2.462.623 4 1.867 1.537 1.245 3.692 2.8 5.23 3.733s2.155.933 3.693 0c1.538-.934 3.693-2.49 5.231-3.734s3.385-.621 4-1.866c.615-1.244 2.154-4.664 2.77-5.909.615-1.244 1.538-2.489 1.23-3.421-.307-.934-.922-3.111-1.23-4.044s0-3.421-1.231-4.354-2.66-2.121-3.692-3.11c-1.033-.99-.616-1.556-1.847-2.49-1.23-.932-4-2.176-5.23-2.798q-1.848-.933-3.693 0" clip-rule="evenodd"/><path fill="#000" fill-rule="evenodd" d="m9.808 9.256 5.76 3.952c.129.087.28.134.436.137a.8.8 0 0 0 .438-.137l5.763-3.965a.792.792 0 0 0-.109-1.351l-5.76-2.866a.79.79 0 0 0-.69 0L9.902 7.892a.79.79 0 0 0-.096 1.364zm8.153 5.192a.8.8 0 0 0 .341.656l4.617 3.171a.77.77 0 0 0 .958-.062l3.873-3.482a.793.793 0 0 0-.035-1.209l-3.698-2.972a.78.78 0 0 0-.927-.036l-4.788 3.292a.8.8 0 0 0-.341.642M6.477 18.762a.8.8 0 0 1 .137 1.019.8.8 0 0 1-.268.253l-2.757 1.662a.78.78 0 0 1-.887-.062.8.8 0 0 1-.26-.86l1.02-3.225a.783.783 0 0 1 .924-.533c.128.03.245.093.341.183zm14.954.338-4.985-3.43a.78.78 0 0 0-.875 0l-4.984 3.43a.8.8 0 0 0-.342.602.82.82 0 0 0 .263.647l4.98 4.478a.78.78 0 0 0 1.042 0l4.98-4.479a.8.8 0 0 0 .257-.646.79.79 0 0 0-.336-.603zm-13.295-.887-3.87-3.482a.81.81 0 0 1-.262-.624.78.78 0 0 1 .293-.598l3.698-2.99a.79.79 0 0 1 .932-.036l4.783 3.292a.8.8 0 0 1 .356.665.8.8 0 0 1-.356.664l-4.612 3.171a.78.78 0 0 1-.962-.062M28 23.215l-3.939-2.37a.77.77 0 0 0-.919.089l-4.814 4.318a.8.8 0 0 0 .227 1.329l6.679 2.72a.78.78 0 0 0 1.006-.412l2.071-4.66A.8.8 0 0 0 28 23.215m.547-5.666 1.02 3.225h-.01a.8.8 0 0 1-.115.708.78.78 0 0 1-1.031.214l-2.761-1.663a.77.77 0 0 1-.377-.601.79.79 0 0 1 .258-.67l1.75-1.568a.78.78 0 0 1 .727-.172.8.8 0 0 1 .539.527m-14.61 8.43a.8.8 0 0 0-.248-.727l-4.813-4.32a.77.77 0 0 0-.92-.088l-3.937 2.37a.81.81 0 0 0-.316 1.01l2.074 4.66a.78.78 0 0 0 1.007.413l6.674-2.72a.79.79 0 0 0 .48-.598m2.364 1.328 5.357 2.18a.79.79 0 0 1 .472.647.79.79 0 0 1-.333.74l-5.36 3.743a.77.77 0 0 1-.438.142.8.8 0 0 1-.437-.142l-5.357-3.743a.793.793 0 0 1 .153-1.386l5.357-2.18a.8.8 0 0 1 .586 0" clip-rule="evenodd"/><mask id="a" width="144" height="29" x="39" y="8" maskUnits="userSpaceOnUse" style="mask-type:luminance"><path fill="#fff" d="M39.111 8.866h143.111v27.556H39.112z"/></mask><g fill="#fff" mask="url(#a)"><path d="M43.445 19.114h1.398q2.056 0 3.033-.675.98-.677.98-2.125 0-1.434-1.007-2.04-.993-.609-3.09-.608h-1.314zm0 3.476v7.737h-4.334V10.163h5.956q4.166 0 6.165 1.503 2 1.49 2 4.538 0 1.78-.994 3.172-.992 1.38-2.809 2.166 4.614 6.8 6.011 8.785h-4.809l-4.88-7.737z"/><path d="M61.705 17.611q-1.357 0-2.125.855-.77.84-.881 2.4h5.984q-.028-1.56-.825-2.4-.798-.855-2.153-.855m.6 12.992q-3.773 0-5.899-2.055t-2.124-5.82q0-3.877 1.956-5.986 1.972-2.124 5.438-2.125 3.315 0 5.16 1.863t1.845 5.144v2.041H58.6q.07 1.794 1.076 2.8 1.007 1.007 2.824 1.007 1.413 0 2.67-.29a13.5 13.5 0 0 0 2.629-.924v3.255a10 10 0 0 1-2.391.814q-1.271.276-3.103.276m13.647 0q-2.754 0-4.334-2.11-1.566-2.111-1.566-5.848 0-3.793 1.594-5.902 1.607-2.125 4.418-2.125 2.95 0 4.501 2.262h.14q-.32-1.725-.321-3.076V8.866h4.277v21.46h-3.27l-.826-2h-.181q-1.454 2.277-4.432 2.277m1.496-3.351q1.635 0 2.391-.939.768-.938.838-3.185v-.456q0-2.482-.783-3.558-.768-1.075-2.516-1.075-1.427 0-2.222 1.2-.785 1.185-.785 3.461t.798 3.42q.796 1.131 2.279 1.132m23.376 3.075-1.203-5.392L98 18.12h-.098L95.05 30.327h-4.586l-4.445-15.42h4.25l1.803 6.828q.433 1.834.88 5.061h.084q.057-1.048.49-3.324l.223-1.172 1.93-7.393h4.697l1.832 7.393.167.897q.266 1.281.434 2.579.097.635.112 1.02h.083a51 51 0 0 1 .448-2.716q.21-1.177.462-2.345l1.873-6.827h4.18l-4.502 15.42zm13.925-7.737q0 2.29.755 3.461.769 1.173 2.489 1.173 1.705 0 2.446-1.159.755-1.173.755-3.475 0-2.289-.755-3.435-.755-1.144-2.475-1.144-1.705 0-2.46 1.144-.755 1.132-.755 3.435m10.807 0q0 3.765-2.013 5.889t-5.606 2.124q-2.251 0-3.971-.965-1.719-.98-2.642-2.8-.922-1.821-.922-4.25 0-3.777 1.999-5.874t5.619-2.096q2.251 0 3.971.966 1.72.965 2.642 2.771.923 1.807.923 4.235m5.775 0q0 2.29.755 3.461.769 1.173 2.488 1.173 1.706 0 2.446-1.159.756-1.173.756-3.475 0-2.289-.756-3.435-.755-1.144-2.473-1.144-1.707 0-2.461 1.144-.755 1.132-.755 3.435m10.807 0q0 3.765-2.014 5.889t-5.606 2.124q-2.25 0-3.97-.965-1.72-.98-2.642-2.8-.923-1.821-.923-4.25 0-3.777 1.999-5.874t5.621-2.096q2.25 0 3.969.966 1.72.965 2.643 2.771t.923 4.235m7.326 8.013q-2.754 0-4.333-2.11-1.567-2.111-1.567-5.848 0-3.793 1.594-5.902 1.608-2.125 4.418-2.125 2.951 0 4.501 2.262h.141q-.321-1.725-.322-3.076V8.866h4.278v21.46h-3.272l-.825-2h-.181q-1.453 2.277-4.432 2.277m1.496-3.351q1.636 0 2.391-.939.769-.938.838-3.185v-.456q0-2.482-.782-3.558-.77-1.075-2.516-1.075-1.427 0-2.223 1.2-.784 1.185-.784 3.461t.798 3.42q.795 1.131 2.278 1.132"/><path d="M159.685 36.257q-1.468 0-2.558-.302v-3.56q1.118.277 2.041.276 1.425 0 2.041-.882.616-.87.615-2.731V10.163h4.334V29.03q0 3.531-1.635 5.379t-4.838 1.848m22.537-11.53q0 2.73-1.999 4.302-1.985 1.575-5.536 1.574-3.271 0-5.788-1.214v-3.972q2.07.91 3.495 1.283 1.44.372 2.628.372 1.425 0 2.182-.538.768-.538.768-1.6a1.72 1.72 0 0 0-.336-1.049q-.335-.468-.992-.896-.644-.427-2.642-1.365-1.874-.87-2.81-1.67a6.3 6.3 0 0 1-1.496-1.861q-.56-1.062-.559-2.482 0-2.676 1.831-4.207 1.845-1.53 5.089-1.531 1.594 0 3.034.373 1.453.372 3.033 1.048l-1.398 3.323q-1.635-.662-2.712-.924a8.7 8.7 0 0 0-2.097-.262q-1.23 0-1.888.566-.656.566-.657 1.475 0 .567.266.994.266.413.839.813.587.387 2.754 1.407 2.866 1.351 3.929 2.717 1.062 1.352 1.062 3.324"/></g></svg>