<svg xmlns="http://www.w3.org/2000/svg" width="168" height="40" fill="none" viewBox="0 0 168 40"><path fill="#fff" d="M154.333 21.292h9.533c-.269-2.638-1.8-4.396-4.67-4.396-2.68 0-4.365 1.72-4.863 4.396m4.863 11.353c-5.819 0-8.805-4.282-8.805-9.518s3.445-9.518 8.88-9.518 8.46 4.204 8.46 9.02c0 .574-.038 1.377-.114 1.72h-13.398c.191 2.944 1.838 5.008 4.784 5.008 2.413 0 3.867-1.108 4.479-3.249h3.905c-.88 3.86-3.484 6.537-8.191 6.537m-29.552-9.671c0-5.505 3.368-9.365 8.345-9.365 3.407 0 5.627 1.987 6.469 4.663.038.115.153.115.153 0v-4.357h3.598v16.13c0 5.734-3.177 9.595-9.493 9.595-4.899 0-8-2.485-8.459-6.154h3.904c.306 1.529 1.455 2.866 4.631 2.866 4.02 0 5.742-2.522 5.819-6.192l.038-2.332c0-.114-.115-.114-.153 0-.88 2.79-3.368 4.51-6.507 4.51-4.977 0-8.345-3.86-8.345-9.364m14.507 0c0-3.517-2.104-6.078-5.359-6.078-3.636 0-5.32 2.561-5.32 6.078 0 3.516 1.684 6.078 5.32 6.078 3.255 0 5.359-2.6 5.359-6.078m-25.187-9.06h3.407l-.039 4.358c0 .115.116.115.154 0 .957-2.752 2.182-4.663 6.468-4.663v3.631c-4.861-.153-6.315 2.561-6.315 6.384v8.753h-3.675zm-16.46 9.213c0 3.516 1.723 6.23 5.13 6.23s5.129-2.714 5.129-6.23-1.722-6.231-5.129-6.231-5.13 2.714-5.13 6.23m14.164 0c0 5.275-3.407 9.518-9.034 9.518S98.6 28.402 98.6 23.127s3.407-9.518 9.034-9.518 9.034 4.243 9.034 9.518m-27.485 9.25v-15.29h-2.832v-3.172h2.91v-.46c0-4.433 2.449-7.07 8.727-6.765v3.478c-3.905-.382-5.13.994-5.13 3.747h5.13v3.172h-5.13v15.29zm-17.26-11.085h9.53c-.267-2.638-1.798-4.396-4.67-4.396-2.679 0-4.363 1.72-4.86 4.396m4.86 11.353c-5.818 0-8.803-4.282-8.803-9.518s3.445-9.518 8.88-9.518 8.46 4.204 8.46 9.02c0 .574-.038 1.377-.115 1.72H71.808c.19 2.944 1.837 5.008 4.784 5.008 2.412 0 3.866-1.108 4.479-3.249h3.904c-.88 3.86-3.483 6.537-8.191 6.537m-25.76-12.997h5.282c3.75 0 5.856-1.605 5.856-4.701 0-2.79-1.531-4.396-5.588-4.396h-5.55zM47.08 32.377V7.187h9.378c6.775 0 9.646 2.905 9.646 7.377 0 3.326-2.105 6.499-7.311 6.728-.115 0-.115.153 0 .153 5.397.611 8.23 5.236 8.23 10.932h-4.134c0-5.046-2.22-9.365-7.618-9.365h-4.249v9.365zM5.398 6.906c-.097-.04-.073-.183.032-.189 2.55-.148 5.12.041 6.64.372 2.7.588 5.13 1.64 6.806 4.213.719 1.104 1.242 2.322 1.407 3.573a.135.135 0 0 1-.134.152h-9.124a.135.135 0 0 1-.134-.125c-.194-2.925-1.78-6.446-5.493-7.996m23.856 25.225c.097.04.073.183-.032.189-2.55.148-5.12-.041-6.64-.372-2.7-.588-5.13-1.64-6.805-4.213-.72-1.104-1.243-2.322-1.408-3.573a.135.135 0 0 1 .134-.152h9.124c.072 0 .13.054.135.125.194 2.925 1.78 6.446 5.492 7.996M10.296 15.89c.058-.08-.026-.185-.117-.148-2.198.892-11.762 5.421-9.806 11.575 1.72 5.36 10.858 5.135 12.966 5.01.104-.007.128-.149.031-.189-3.772-1.57-5.35-5.173-5.505-8.105-.112-2.124.441-5.373 2.431-8.143m14.081 7.258c-.058.08.026.184.118.148 2.197-.892 11.761-5.422 9.805-11.576-1.72-5.36-10.858-5.135-12.965-5.01a.098.098 0 0 0-.032.189c3.772 1.57 5.35 5.173 5.506 8.106.112 2.123-.442 5.372-2.432 8.143"/></svg>