<svg xmlns="http://www.w3.org/2000/svg" width="112" height="26" fill="none" viewBox="0 0 112 26"><path fill="#fff" d="M10.701 8.408H1.606A1.59 1.59 0 0 1 0 6.83V1.578C0 .698.726 0 1.606 0h7.49A1.59 1.59 0 0 1 10.7 1.578zm9.755 9.159H10.71V8.395h9.745c.943 0 1.72.776 1.72 1.718v5.735c0 .959-.777 1.719-1.72 1.719M9.095 26h-7.49C.726 26 0 25.288 0 24.424v-5.256c0-.864.726-1.576 1.606-1.576H10.7v6.832c0 .864-.726 1.576-1.606 1.576M40.335 7.733l-.74.691h-.74l-.23-.876c-.05-.215-.264-.353-.51-.353h-4.738c-.296 0-.526.215-.526.46v1.522c0 .261.23.46.526.46h2.797v7.13h-3.257c-.296 0-.526.214-.526.46v1.521c0 .261.23.46.526.46h10.247c.296 0 .526-.214.526-.46v-1.521c0-.261-.23-.46-.526-.46h-3.766v-5.04c0-1.413.888-2.15 2.631-2.15h2.83c.295 0 .526-.216.526-.462V7.441c0-.261-.23-.461-.527-.461h-1.677c-1.234-.015-2.204.2-2.846.753m12.159-.753c-4.135 0-6.35 2.14-6.35 6.488 0 4.363 2.2 6.505 6.268 6.505 3.15 0 5.185-1.278 5.726-3.468.082-.304-.18-.591-.508-.591h-1.97a.54.54 0 0 0-.491.32c-.345.942-1.33 1.39-2.658 1.39-2.068 0-3.052-1.103-3.183-3.676h8.974c.493-4.811-1.558-6.969-5.808-6.969m-3.068 5.018c.312-1.886 1.28-2.765 3.052-2.765 1.887 0 2.773.975 2.822 2.765zM67.94 6.98c-1.068 0-1.838.229-2.435.78l-.738.688h-.675l-.252-.887a.51.51 0 0 0-.486-.352H61.94c-.283 0-.502.214-.502.459v15.668c0 .26.22.459.502.459h2.073c.283 0 .503-.214.503-.459v-3.397l-.267-1.82.69-.154.74.689c.58.52 1.287.78 2.34.78 3.046 0 4.884-2.05 4.884-6.227-.016-4.178-1.838-6.228-4.963-6.228m-1.021 9.945c-1.555 0-2.419-.78-2.419-2.265v-2.937c0-1.485.848-2.265 2.419-2.265 1.9 0 2.764 1.163 2.764 3.718-.016 2.586-.864 3.749-2.764 3.749m44.2-8.147V7.194c0-.272-.224-.48-.512-.48h-5.553v-3.07c0-.271-.224-.479-.512-.479h-2.112c-.288 0-.512.224-.512.48v3.07h-3.28c-.289 0-.513.223-.513.479v1.583c0 .272.224.48.512.48h3.281v4.7c0 3.597 1.696 5.26 5.344 5.26h2.977c.288 0 .512-.224.512-.48v-1.583c0-.271-.224-.48-.512-.48h-2.496c-1.985 0-2.689-.783-2.689-2.733V9.272h5.553c.288-.016.512-.24.512-.495M85.4 16.75h-3.21V2.868c0-.264-.22-.466-.503-.466h-6.291c-.283 0-.503.217-.503.466v1.535c0 .264.22.466.503.466h3.712V16.75H74.94c-.283 0-.504.217-.504.465v1.536c0 .263.22.465.504.465H85.4c.283 0 .503-.217.503-.465v-1.536c0-.264-.22-.465-.503-.465m9.07-14.545h-2.847c-.284 0-.506.221-.506.474v2.009c0 .269.222.474.506.474h2.847c.284 0 .506-.221.506-.474V2.679a.504.504 0 0 0-.506-.474m.384 14.625V7.455c0-.27-.222-.475-.506-.475h-6.373c-.285 0-.506.222-.506.475V9.02c0 .269.221.474.506.474h3.78v7.338h-3.78c-.285 0-.506.221-.506.474v1.566c0 .269.221.474.506.474h10.753c.285 0 .506-.221.506-.474v-1.566c0-.268-.221-.474-.506-.474z"/></svg>