<svg xmlns="http://www.w3.org/2000/svg" width="246" height="247" fill="none" viewBox="0 0 246 247"><path fill="#000" d="M75.401 73.475a7.14 7.14 0 0 1 7.14-7.147h33.32A7.137 7.137 0 0 1 123 73.475v30.968H82.54a7.14 7.14 0 0 1-6.594-4.411 7.2 7.2 0 0 1-.545-2.736zM123 104.443h40.459a7.14 7.14 0 0 1 7.14 7.147v23.821a7.18 7.18 0 0 1-2.091 5.053 7.13 7.13 0 0 1-5.049 2.093H123zm-47.599 45.261a7.14 7.14 0 0 1 7.14-7.147H123v30.969a7.17 7.17 0 0 1-2.091 5.054 7.14 7.14 0 0 1-5.049 2.093H82.54a7.14 7.14 0 0 1-7.139-7.147z"/></svg>