<svg xmlns="http://www.w3.org/2000/svg" width="160" height="40" fill="none" viewBox="0 0 160 40"><path fill="#fff" d="M10.256 2.656c-2 .544-3.776 2.064-4.704 4.016L5.04 7.76v21.12l.512 1.088c.944 2 2.72 3.488 4.768 4.032 1.312.336 19.696.352 20.96.016 2.72-.72 4.864-2.992 5.36-5.68.096-.512.16-4.56.16-10.08 0-10-.032-10.336-.896-12.048-.624-1.232-1.92-2.432-3.376-3.136L31.28 2.48 21.2 2.448c-8.448-.032-10.224 0-10.944.208M24.08 5.024c3.392.576 5.6 1.856 6.56 3.84.752 1.552.8 4.448.096 5.824-.944 1.856-2.944 3.088-5.856 3.632-.608.112-1.008.24-.88.272.128.048.64.208 1.12.352 1.168.336 2.272 1.056 2.848 1.824.24.352 1.232 2.368 2.176 4.48l1.728 3.84.816.208c.736.192.832.288.88.688l.064.448-3.264-.064c-5.072-.096-5.024-.064-7.984-6.704l-2.032-4.544-1.056-.048-1.056-.048v10.032l1.088.224c1.44.272 1.472.288 1.472.736v.384H9.76V30c0-.4.272-.528 1.728-.816l.512-.112-.032-11.52-.048-11.536-1.024-.256c-1.04-.256-1.248-.432-1.072-.912.096-.224.704-.24 6.464-.16 4.608.064 6.752.16 7.792.336"/><path fill="#fff" d="M18.352 5.856c-.064.064-.112 2.8-.112 6.096v5.968h1.2c2.992 0 4.912-1.744 5.344-4.896.176-1.232.032-2.64-.4-3.952-.384-1.136-1.76-2.528-2.864-2.88-.928-.288-2.992-.512-3.168-.336m108.352-.896c-1.12.336-1.744 1.2-1.744 2.4 0 2.304 2.784 3.408 4.304 1.68 1.232-1.408.592-3.616-1.168-4.064-.8-.192-.816-.192-1.392-.016m18.336.016c-.16.256.016.368 1.088.64l.992.24.048 3.536.032 3.536-1.072-.544c-1.392-.704-2.64-.912-4.304-.704-3.264.4-5.696 2.768-6.48 6.32-.32 1.44-.272 5.344.08 6.64 1.104 4.048 3.776 6.24 7.36 6.048.832-.048 1.568-.192 2.048-.4.848-.384 2.048-1.44 2.544-2.24l.336-.544.512.848c.4.672.688.944 1.44 1.328.896.448 1.056.48 3.248.544 2 .048 2.288.016 2.288-.208 0-.16-.24-.304-.672-.416-.384-.096-.864-.24-1.088-.304l-.4-.128-.08-11.184c-.08-10.208-.112-11.232-.352-11.696-.4-.72-.976-1.12-1.904-1.312-1.056-.224-5.536-.24-5.664 0m.608 7.936c.272.144.752.448 1.024.672l.528.416v12.64l-.464.816c-.592 1.008-1.424 1.744-2.24 2-1.344.4-2.464-.832-2.96-3.264-.368-1.744-.496-5.712-.272-8.064.272-2.976.848-4.48 2-5.184.608-.368 1.696-.4 2.384-.032M45.504 11.664c-3.568.56-6.096 2.928-7.04 6.576-.368 1.376-.368 4.32-.016 5.808.528 2.16 1.888 4.112 3.648 5.248 1.776 1.136 5.248 1.728 7.52 1.28 2.672-.528 4.816-2.544 5.072-4.752.064-.672.048-.704-.32-.704-.352 0-.416.096-.512.656-.32 2.032-2.448 3.888-4.688 4.096-1.248.112-2.096-.144-2.96-.896-1.184-1.056-1.712-2.592-1.952-5.712l-.096-1.152L46.208 22c2.912-.144 6.656-.576 8.688-.976.352-.064.464-.208.608-.784.72-2.864-.896-6.128-3.776-7.568-1.712-.88-4.352-1.296-6.224-1.008m2.496.96c.576.4 1.088 1.216 1.36 2.16.608 2 .432 5.888-.272 6.112-.464.144-4.784.32-4.864.208-.128-.224.256-4.832.496-5.84.608-2.624 1.856-3.632 3.28-2.64m16.48-.944c-2.864.336-4.896 1.584-5.408 3.328-.528 1.776-.064 3.632 1.264 4.96.928.944 1.568 1.36 4.304 2.832 4.192 2.24 4.72 2.768 4.608 4.48-.112 1.824-1.008 2.56-3.088 2.56-1.072 0-1.424-.064-2.192-.448-1.232-.608-2.512-2.016-3.344-3.712l-.672-1.36H58.56v6.08h.528c.544 0 1.472-.56 2.08-1.248l.304-.32.976.624c1.328.864 2.288 1.12 4.352 1.216 2.848.128 5.536-.48 6.848-1.568.992-.816 1.44-1.76 1.52-3.184.16-2.72-.88-3.888-5.776-6.496-3.744-2-4.592-2.816-4.592-4.464 0-.88.288-1.488.96-2.064.4-.336.672-.416 1.344-.416 1.072 0 1.744.224 2.688.912.864.624 2.112 2.384 2.672 3.776l.368.912h1.408V12h-.48c-.64 0-1.232.32-1.904 1.024l-.544.56-.576-.464c-.816-.656-2.224-1.264-3.328-1.44-1.024-.176-1.408-.176-2.928 0m24.8 0c-.4.064-1.056.288-1.472.48-.8.368-2.288 1.744-2.448 2.256-.144.448-.272.384-.688-.336-.432-.752-1.168-1.344-2.096-1.68-.96-.336-4.816-.352-4.816-.016 0 .128.192.272.448.32.24.064.704.192 1.04.272l.592.16v23.312l-.432.096c-1.376.336-1.648.448-1.648.656s.72.24 5.04.24c4.208 0 5.04-.032 5.04-.224 0-.144-.4-.32-1.12-.496l-1.12-.272V29.28l.768.496c1.008.64 2.112.944 3.408.944 3.888 0 6.56-2.128 7.616-6.08.4-1.472.384-5.568-.016-7.04-.336-1.264-1.2-2.944-1.952-3.808-1.376-1.6-3.968-2.496-6.144-2.112m.816 1.76c.784.832 1.2 2.144 1.44 4.608.224 2.24.096 6.672-.24 8.24-.736 3.36-2.896 4.384-5.168 2.448l-.528-.448v-6.304c0-6.928-.032-6.624.992-7.952.592-.752 1.456-1.216 2.272-1.232.528 0 .72.096 1.232.64m17.328-1.76c-1.664.208-2.848.72-3.744 1.584-1.12 1.072-1.376 2.224-.8 3.488.496 1.104 1.664 1.632 3.12 1.424l.72-.112V15.36c0-2.624.016-2.72.352-2.896.464-.24 2.144-.256 2.88 0 .832.272 1.808 1.408 2.128 2.448.272.896.656 4.928.512 5.296-.064.16-.656.272-2.064.416-2.192.208-5.616.72-7.088 1.072-1.104.24-1.36.496-1.84 1.776-1.488 4 .752 6.96 5.456 7.216 2.512.128 4.096-.544 5.376-2.288l.672-.896.256.576c.32.672 1.2 1.472 1.984 1.808.4.176 1.264.272 2.864.32 2.16.064 2.304.048 2.24-.224-.032-.208-.336-.352-1.088-.544l-1.04-.256-.08-5.904c-.08-5.152-.128-6.016-.368-6.64q-1.44-3.624-5.568-4.704c-1.216-.304-3.472-.432-4.88-.256m5.184 12.192c.032 2.432.032 2.544-.368 3.328-.8 1.584-2.256 2.576-3.344 2.304-.544-.128-1.328-.944-1.568-1.648-.32-.912-.24-4.048.128-5.216l.32-.96 1.504-.176c.832-.112 1.92-.176 2.4-.16l.88.016zm10.112-11.488c0 .144.4.32 1.12.496l1.12.272-.032 8.016-.048 8.016-1.04.256c-.72.176-1.056.336-1.088.528-.048.256.336.272 5.008.272 4.72 0 5.056-.016 5.008-.272-.032-.208-.352-.352-1.056-.512l-.992-.224v-6.736c0-3.712-.08-7.2-.16-7.76-.176-1.232-.496-1.728-1.44-2.224-.656-.32-.912-.352-3.552-.352-2.32 0-2.848.048-2.848.224"/></svg>