<svg xmlns="http://www.w3.org/2000/svg" width="240" height="40" fill="none" viewBox="0 0 240 40"><path fill="#fff" d="M6.33 1.043v9.478h28.434a4.74 4.74 0 0 0 4.738-4.74 4.74 4.74 0 0 0-4.738-4.738zm13.406 17.4v3.111H9.513v-3.111zm3.183-3.183H6.33v9.477h16.588zm13.399 17.398v3.111H26.096v-3.111zm3.183-3.183H22.913v9.477h16.588zM3.183 1.043H0v37.915h3.183zM62.302 35.73V4.52H74.92q2.896 0 5.105 1.002 2.207 1.004 3.454 2.853 1.248 1.851 1.25 4.437v.489c0 2.049-.49 3.672-1.473 4.858q-1.47 1.785-3.477 2.407v.625c1.07.032 1.953.378 2.653 1.046q1.046 1.003 1.047 3.008v10.477h-3.7V25.69q-.001-1.338-.737-2.05-.733-.71-2.208-.711h-10.79v12.796h-3.745zm3.744-16.186h8.515q3.075 0 4.747-1.492c1.114-.995 1.671-2.388 1.671-4.17v-.315q.001-2.671-1.651-4.17-1.648-1.491-4.77-1.491h-8.516v11.638zm32.377 16.811q-3.3 0-5.817-1.38a9.8 9.8 0 0 1-3.923-3.9q-1.404-2.52-1.405-5.952v-.581q.001-3.391 1.405-5.929a9.77 9.77 0 0 1 3.923-3.923q2.518-1.38 5.817-1.38t5.817 1.38a9.77 9.77 0 0 1 3.923 3.923q1.404 2.544 1.405 5.929v.58q-.001 3.434-1.405 5.953a9.8 9.8 0 0 1-3.923 3.9c-1.679.923-3.621 1.38-5.817 1.38m0-3.167q3.48 0 5.551-2.208c1.38-1.473 2.073-3.454 2.073-5.953v-.402q-.001-3.742-2.073-5.952-2.071-2.208-5.551-2.208c-2.32 0-4.13.736-5.527 2.208q-2.095 2.207-2.097 5.952v.402c0 2.5.697 4.48 2.097 5.953q2.096 2.208 5.527 2.208m15.559 2.542V4.52h3.521v31.21zm8.891 0V4.52h3.521v31.21zm17.7.625q-4.058 0-6.844-1.874c-1.858-1.25-2.981-3.223-3.366-5.928l3.341-.76q.359 2.142 1.339 3.366a5.33 5.33 0 0 0 2.431 1.739 9.2 9.2 0 0 0 3.099.513q2.453 0 3.879-.979 1.427-.981 1.428-2.63c0-1.098-.453-1.926-1.36-2.387q-1.36-.692-3.725-1.138l-1.826-.31q-2.094-.359-3.835-1.115-1.739-.759-2.766-2.049-1.026-1.293-1.026-3.254.002-2.944 2.272-4.592 2.272-1.649 6.02-1.651c3.748-.002 4.464.557 5.996 1.67q2.296 1.672 2.964 4.704l-3.299.847q-.401-2.362-1.917-3.322c-1.01-.64-2.261-.959-3.744-.959s-2.662.275-3.522.824q-1.294.824-1.293 2.43c0 1.071.411 1.807 1.226 2.297q1.225.735 3.279 1.094l1.826.31c1.543.267 2.936.633 4.17 1.094q1.847.692 2.943 1.986 1.094 1.294 1.094 3.39.001 3.209-2.387 4.95-2.387 1.737-6.397 1.738zm20.888-.625q-1.874 0-2.876-1.026-1.003-1.026-1.003-2.81V17.001h-6.554v-3.075h6.554V6.167h3.521v7.759h7.134V17h-7.134v14.356q0 1.337 1.293 1.337h4.858v3.032h-5.797zm16.952.625q-2.273.001-4.146-.803c-1.25-.534-2.228-1.31-2.944-2.32q-1.07-1.515-1.071-3.7c0-1.457.358-2.714 1.071-3.677q1.069-1.45 2.944-2.184 1.873-.735 4.19-.736h7.356V21.33q0-2.317-1.36-3.657-1.361-1.335-4.035-1.336c-1.783 0-3.12.421-4.102 1.269q-1.475 1.272-2.005 3.41l-3.299-1.07a9.9 9.9 0 0 1 1.695-3.323q1.16-1.493 3.099-2.407t4.66-.915q4.191 0 6.509 2.16t2.32 6.088V31.4c0 .892.413 1.337 1.249 1.337h2.006v2.989h-3.076q-1.474 0-2.363-.824-.894-.824-.892-2.208v-.223h-.533a10.3 10.3 0 0 1-1.317 1.762q-.825.915-2.252 1.516-1.426.602-3.7.601zm.401-3.032q3.121 0 5.062-1.85 1.94-1.85 1.941-5.192v-.49h-7.221q-2.098.002-3.454.915-1.36.915-1.361 2.742t1.405 2.853q1.404 1.026 3.632 1.026zm26.34 3.032q-3.168 0-5.687-1.36c-1.679-.908-3.004-2.209-3.966-3.904q-1.45-2.541-1.448-6.02v-.49q-.001-3.52 1.448-6.04 1.448-2.517 3.966-3.879 2.519-1.36 5.687-1.36c2.112 0 3.855.386 5.327 1.158q2.208 1.158 3.478 3.075a10.4 10.4 0 0 1 1.627 4.102l-3.434.713a7.6 7.6 0 0 0-1.046-2.945q-.827-1.335-2.296-2.14c-.983-.534-2.184-.804-3.613-.804s-2.757.326-3.899.979q-1.717.98-2.717 2.809-1.003 1.826-1.003 4.369v.401q0 2.543 1.003 4.37c.668 1.217 1.575 2.156 2.717 2.808q1.717.98 3.899.98 3.254 0 4.973-1.696t2.118-4.19l3.477.76q-.49 2.143-1.783 4.059t-3.501 3.075q-2.207 1.158-5.327 1.158zm14.614-.625V4.52h3.521v18.37h.625l9.987-8.96h4.905l-12.083 10.61 12.438 11.193h-4.858l-10.389-9.498h-.625v9.498h-3.521z"/></svg>