<svg xmlns="http://www.w3.org/2000/svg" width="330" height="40" fill="none" viewBox="0 0 330 40"><g clip-path="url(#a)"><path fill="#fff" d="M.169 36.845a22 22 0 0 0 5.887 2.197c2.182.564 4.423.867 6.676.902 2.766.058 5.515-.44 8.085-1.465a12.4 12.4 0 0 0 5.324-4A9.56 9.56 0 0 0 28 28.676a8.87 8.87 0 0 0-1.662-5.268 17.6 17.6 0 0 0-4.028-4.056 66 66 0 0 0-5.916-3.747l-2.028-1.126a24.5 24.5 0 0 1-2.901-1.719 1.85 1.85 0 0 1-.873-1.492 2.34 2.34 0 0 1 1.042-1.916 4.4 4.4 0 0 1 2.732-.789 17 17 0 0 1 3.521.338 43 43 0 0 1 4.592 1.352l3.042-6.93a18.1 18.1 0 0 0-5.268-2.309 22.6 22.6 0 0 0-6-.845 18.5 18.5 0 0 0-7.492 1.408 11.7 11.7 0 0 0-4.986 3.916A9.58 9.58 0 0 0 0 11.155a9 9 0 0 0 1.69 5.352 15.9 15.9 0 0 0 3.831 3.86q2.14 1.491 5.972 3.746l1.746 1.014q2.197 1.296 3.184 2a1.9 1.9 0 0 1 .986 1.436 2.57 2.57 0 0 1-1.353 2.057 6.26 6.26 0 0 1-3.605.93 17.5 17.5 0 0 1-4.704-.761 18.2 18.2 0 0 1-4.198-1.662zM61.746 3.324a18.1 18.1 0 0 0-5.267-2.31 22.6 22.6 0 0 0-6-.845 20 20 0 0 0-10.113 2.563 18.3 18.3 0 0 0-7.014 7.127 21 21 0 0 0-2.535 10.366A21.3 21.3 0 0 0 33.21 30.48a17.1 17.1 0 0 0 6.902 6.958 21.44 21.44 0 0 0 10.591 2.507 25.8 25.8 0 0 0 6.113-.761 19.6 19.6 0 0 0 5.324-2.056l-3.887-7.662a14 14 0 0 1-7.268 2.084 8.7 8.7 0 0 1-4.648-1.38 9.96 9.96 0 0 1-3.577-3.972 12.85 12.85 0 0 1-1.353-6.028 13.3 13.3 0 0 1 1.324-6.028 10.7 10.7 0 0 1 3.437-4.113 7.65 7.65 0 0 1 4.423-1.465 17 17 0 0 1 3.52.338q2.334.55 4.592 1.352zM84.17.113a20.26 20.26 0 0 0-10.197 2.563A18.17 18.17 0 0 0 66.93 9.83a21.14 21.14 0 0 0-2.536 10.394 20.85 20.85 0 0 0 2.423 10.028 18 18 0 0 0 6.901 7.127A20.3 20.3 0 0 0 84.17 40a20.5 20.5 0 0 0 10.31-2.563 18 18 0 0 0 7.014-7.155A21.45 21.45 0 0 0 104 19.83a21.04 21.04 0 0 0-2.394-10.028 17.6 17.6 0 0 0-6.874-7.099A20.7 20.7 0 0 0 84.17.113m-9.24 20.056a13.6 13.6 0 0 1 1.268-6 10.1 10.1 0 0 1 3.38-4.056 8.17 8.17 0 0 1 4.705-1.437 8.12 8.12 0 0 1 6.676 3.127 12.43 12.43 0 0 1 2.507 8.028 12.7 12.7 0 0 1-2.62 8.591 8.51 8.51 0 0 1-6.732 3.014 8.06 8.06 0 0 1-6.733-3.154 12.84 12.84 0 0 1-2.45-8.113m35.268 19.042h10.254V27.155h6.817l6.197 12.056h11.887l-8.451-15.098a11.65 11.65 0 0 0 3.803-4.198 12.35 12.35 0 0 0 1.381-5.943 11.38 11.38 0 0 0-4.451-9.803A18.64 18.64 0 0 0 126.31.9h-16.113zm15.775-30.253a5.98 5.98 0 0 1 4.084 1.267 4.7 4.7 0 0 1 1.135 1.714c.249.647.352 1.341.302 2.033a4.85 4.85 0 0 1-1.521 3.69 5.43 5.43 0 0 1-3.887 1.437h-5.634V8.958zm45.014 18.704 5.183-6.986V39.21h10.254V.901h-6.817l-10.592 14.592L157.465.9h-7.042v38.31h10.253V20.676l6.197 7.55zm52.056 11.55V.901h-4.45v17.182H200.62V.62l-4.451.28v38.31h4.451V21.69h17.972v17.521zm33.578 0-.564-3.55h-18.084V21.296h13.746l-.507-3.324h-13.239V4.225h16.958l-.507-3.324h-20.902v38.31zm6.366 0h4.451v-15.72h5.408a36 36 0 0 0 4-.225l8.789 15.944h4.901l-9.746-17.127a11.2 11.2 0 0 0 4.901-3.802 10.67 10.67 0 0 0 1.859-6.226 9.64 9.64 0 0 0-3.831-8.45A17.56 17.56 0 0 0 273.409.9h-10.423zm10.479-34.536a12.6 12.6 0 0 1 7.042 1.662 6.57 6.57 0 0 1 2.479 5.887 6.54 6.54 0 0 1-2.789 5.831 13 13 0 0 1-7.183 1.775h-5.577V4.676zM311.606 0a17.53 17.53 0 0 0-9.296 2.76 18.34 18.34 0 0 0-6.451 7.212 22.15 22.15 0 0 0-2.338 10.253 22.04 22.04 0 0 0 2.31 10.197 17.54 17.54 0 0 0 6.366 7.043A16.97 16.97 0 0 0 311.38 40a17.44 17.44 0 0 0 9.352-2.704 18.1 18.1 0 0 0 6.507-7.24 22.34 22.34 0 0 0 2.339-10.282 22.04 22.04 0 0 0-2.31-10.197 17.4 17.4 0 0 0-6.423-7.042A17.25 17.25 0 0 0 311.606 0m-13.409 20.169a19.3 19.3 0 0 1 1.747-8.366A14.27 14.27 0 0 1 304.761 6a12 12 0 0 1 6.957-2.113 11.5 11.5 0 0 1 6.733 2.057 13.9 13.9 0 0 1 4.648 5.69 19.2 19.2 0 0 1 1.69 8.197 19.5 19.5 0 0 1-1.747 8.394 14.04 14.04 0 0 1-4.817 5.803 12.1 12.1 0 0 1-6.957 2.085 11.5 11.5 0 0 1-6.733-2.057 13.9 13.9 0 0 1-4.648-5.69 19.2 19.2 0 0 1-1.69-8.197"/></g><defs><clipPath id="a"><path fill="#fff" d="M0 0h329.577v40H0z"/></clipPath></defs></svg>