<svg xmlns="http://www.w3.org/2000/svg" width="179" height="40" fill="none" viewBox="0 0 179 40"><path fill="#fff" d="M63.708 14.468q-.17-1.342-.817-2.332-1.329-2.12-4.393-2.12-2.554 0-3.711 1.202-1.056 1.13-1.056 3.074 0 2.155 1.158 2.968 1.158.811 3.235.99 1.974.175 3.337.564 1.361.354 2.28.99 2.418 1.555 2.418 4.876 0 1.307-.51 2.473a6.3 6.3 0 0 1-1.397 2.085q-2.076 2.12-5.686 2.12c-2.406 0-4.347-.695-5.754-2.085q-1.805-1.731-2.18-4.664h2.35q.306 1.767 1.43 2.898 1.464 1.413 4.188 1.413 2.315 0 3.746-1.166 1.464-1.201 1.464-3.074 0-1.201-.477-1.979-.443-.812-1.736-1.307-1.294-.495-3.678-.707-6.537-.6-6.537-6.395 0-1.45.442-2.65a6.3 6.3 0 0 1 1.328-2.12q1.874-1.944 5.312-1.944h.034q3.507.036 5.346 2.014 1.872 1.944 2.213 4.912h-2.35zm6.966 9.152a6.4 6.4 0 0 0 2.145 3.78q1.737 1.485 3.984 1.485 1.669 0 3.065-.813a6.3 6.3 0 0 0 2.247-2.226l2.009 1.201a8.9 8.9 0 0 1-3.099 3.11 8.05 8.05 0 0 1-4.222 1.166c-1.52 0-2.973-.4-4.29-1.202a8.8 8.8 0 0 1-3.133-3.25 8.9 8.9 0 0 1-1.157-4.453c0-1.601.386-3.109 1.157-4.452a8.8 8.8 0 0 1 3.133-3.25 8.1 8.1 0 0 1 4.29-1.202q2.316 0 4.29 1.202a8.8 8.8 0 0 1 3.133 3.25q1.158 2.015 1.158 4.452 0 .425-.068 1.202zm6.13-7.703q-1.5 0-2.929.742a6 6 0 0 0-2.315 1.979q-.886 1.237-.886 2.685h12.258q0-1.448-.885-2.685a6 6 0 0 0-2.315-1.979 6.16 6.16 0 0 0-2.929-.742m13.96-8.268v23.497h-2.316V7.649zm5.718 0v23.497h-2.315V7.649zm16.138 6.82q-.17-1.344-.816-2.333-1.328-2.12-4.393-2.12-2.554 0-3.712 1.202-1.055 1.13-1.055 3.074 0 2.155 1.158 2.968 1.158.811 3.235.99 1.974.175 3.337.564 1.362.354 2.281.99 2.417 1.555 2.417 4.876 0 1.307-.51 2.473a6.3 6.3 0 0 1-1.396 2.085q-2.078 2.12-5.687 2.12c-2.406 0-4.346-.695-5.754-2.085q-1.805-1.731-2.18-4.664h2.351q.306 1.767 1.429 2.898 1.465 1.413 4.188 1.413 2.315 0 3.746-1.166 1.464-1.201 1.464-3.074 0-1.201-.477-1.979-.442-.812-1.737-1.307-1.293-.495-3.677-.707-6.537-.6-6.537-6.395 0-1.45.443-2.65a6.3 6.3 0 0 1 1.327-2.12q1.874-1.944 5.313-1.944h.033q3.508.036 5.346 2.014 1.873 1.944 2.214 4.912h-2.351zm19.635 13.709a8.9 8.9 0 0 1-2.929 2.332 8.1 8.1 0 0 1-3.609.813 8.1 8.1 0 0 1-4.291-1.202 8.8 8.8 0 0 1-3.132-3.25 8.9 8.9 0 0 1-1.157-4.453q0-2.401 1.157-4.452a8.8 8.8 0 0 1 3.132-3.25 8.1 8.1 0 0 1 4.291-1.202q1.941 0 3.609.848a8.5 8.5 0 0 1 2.929 2.297l-2.077 1.237a5.8 5.8 0 0 0-2.009-1.414 5.8 5.8 0 0 0-2.452-.53 5.85 5.85 0 0 0-3.133.884 6.3 6.3 0 0 0-2.281 2.332 6.4 6.4 0 0 0-.851 3.25q0 1.767.851 3.251a6.6 6.6 0 0 0 2.281 2.368 6.03 6.03 0 0 0 3.133.848 6.2 6.2 0 0 0 2.452-.495 6.3 6.3 0 0 0 2.009-1.449zm18.902-14.24v17.208h-2.35v-3.25q-2.35 3.426-6.265 3.427a8.35 8.35 0 0 1-4.324-1.166 8.8 8.8 0 0 1-3.133-3.251q-1.123-2.049-1.123-4.452c0-1.602.374-3.121 1.123-4.488q1.158-2.05 3.133-3.215a8.16 8.16 0 0 1 4.324-1.201c1.566 0 2.928.353 3.95 1.06q1.566 1.025 2.315 2.226v-2.898zm-8.615 14.982a6.03 6.03 0 0 0 3.133-.848 6.3 6.3 0 0 0 2.247-2.367q.852-1.484.852-3.251a6.4 6.4 0 0 0-.852-3.251 6 6 0 0 0-2.247-2.367 5.85 5.85 0 0 0-3.133-.884 6 6 0 0 0-3.166.884q-1.431.848-2.282 2.367a6.6 6.6 0 0 0-.817 3.25q0 1.768.817 3.252a6.6 6.6 0 0 0 2.282 2.367 6.2 6.2 0 0 0 3.166.848m14.326-21.271v23.497h-2.316V7.649zm5.514 15.97a6.4 6.4 0 0 0 2.146 3.782q1.737 1.484 3.984 1.484 1.668 0 3.065-.813a6.3 6.3 0 0 0 2.246-2.226l2.009 1.201a8.9 8.9 0 0 1-3.098 3.11 8.05 8.05 0 0 1-4.222 1.166c-1.521 0-2.973-.4-4.291-1.202a8.8 8.8 0 0 1-3.132-3.25 8.9 8.9 0 0 1-1.157-4.453c0-1.601.385-3.109 1.157-4.452a8.8 8.8 0 0 1 3.132-3.25 8.1 8.1 0 0 1 4.291-1.202q2.316 0 4.29 1.202a8.8 8.8 0 0 1 3.133 3.25q1.157 2.015 1.158 4.452 0 .425-.069 1.202zm6.13-7.702q-1.498 0-2.929.742a6 6 0 0 0-2.315 1.979q-.886 1.237-.886 2.685h12.259q0-1.448-.886-2.685a6 6 0 0 0-2.315-1.979 6.15 6.15 0 0 0-2.928-.742M39.614 8.12a7.47 7.47 0 0 0-2.552-5.21 7.67 7.67 0 0 0-5.538-1.902 7.64 7.64 0 0 0-5.279 2.518l-3.86 4.277-.473.523-3.96 4.387-.474.524-1.102 1.22c-.168.187-.055.492.19.513l5.254.456a.29.29 0 0 0 .24-.096l1.342-1.487.474-.525 3.534-3.917.397-.44 2.044-2.264a2.83 2.83 0 0 1 1.95-.93q.084-.005.169-.006c.693 0 1.355.249 1.877.709.564.495.9 1.179.943 1.924a2.75 2.75 0 0 1-.943 2.246l-1.957 1.72a.32.32 0 0 0-.075.375l.051.11q.014.024.023.047a8 8 0 0 1 .62 1.976l.056.387.022.219.169 1.883c.022.246.301.364.482.205l3.83-3.367c.22-.196.43-.402.618-.611a7.45 7.45 0 0 0 1.928-5.464"/><path fill="#eee" d="M19.48 21.671c.019.17.214.251.34.14l4.069-3.578a.22.22 0 0 0 .072-.186l-.032-.306a1.535 1.535 0 0 0-1.4-1.36l-1.32-.115-6.001-.52-7.71-.667a1.72 1.72 0 0 1-1.172-.604 1.68 1.68 0 0 1-.396-1.25 1.68 1.68 0 0 1 .608-1.155 1.73 1.73 0 0 1 1.26-.393l8.705.887.278.028a.2.2 0 0 0 .171-.066l3.604-3.992c.117-.13.04-.342-.13-.36L8.201 6.924h-.029a6.57 6.57 0 0 0-4.74 1.493 6.4 6.4 0 0 0-2.317 4.39 6.38 6.38 0 0 0 1.506 4.729 6.54 6.54 0 0 0 4.451 2.292l4.126.358 6 .52 1.417.123a.95.95 0 0 1 .865.842"/><path fill="#eee" d="m33.206 31.808-1.148-12.86-.029-.325-.259-2.896-.023-.219-.056-.387a8 8 0 0 0-.618-1.976l-.023-.047a7.7 7.7 0 0 0-1.564-2.208 8 8 0 0 0-1.16-.955.21.21 0 0 0-.275.036l-2.968 3.288a.23.23 0 0 0 .072.362l.003.001c.328.15.637.365.903.63a3 3 0 0 1 .801 1.374c.019.074.045.18.062.27l.021.143.002.014.054.603.53 5.92.863 9.652a1.45 1.45 0 0 1-1.332 1.564 1.467 1.467 0 0 1-1.584-1.293l-.623-5.956c-.02-.18-.224-.265-.357-.148l-4.048 3.56a.23.23 0 0 0-.075.196l.298 2.839c.332 3.176 3.084 5.576 6.263 5.576q.275 0 .553-.024c3.461-.304 6.026-3.327 5.719-6.734z"/><path fill="#fff" d="M26.262 17.934c-.022-.244-.3-.362-.48-.203L24.62 18.75l-.532.468-4.448 3.912-.532.467-9.377 8.243a.976.976 0 0 1-1.363-.078.94.94 0 0 1 0-1.266l7.694-8.524c.167-.186.054-.49-.19-.51l-5.256-.456a.29.29 0 0 0-.238.094l-5.614 6.22a5.66 5.66 0 0 0-.003 7.614 5.82 5.82 0 0 0 4.332 1.911c1.373 0 2.75-.477 3.853-1.447l6.777-5.957.53-.466 4.449-3.911.53-.467 1.391-1.22a.31.31 0 0 0 .102-.26z"/></svg>