<svg xmlns="http://www.w3.org/2000/svg" width="231" height="30" fill="none" viewBox="0 0 231 30"><g clip-path="url(#a)"><path fill="#fff" d="M213.7 25.84v-9.38h14.59v-3.75H213.7V4.18h17.09V.42h-21.25v29.17h21.66v-3.75zm-10-17.5c0-4.59-3.75-7.92-9.17-7.92h-12.5v29.17h4.16V17.92h9.99c2.29 0 2.92.63 2.92 2.92v8.75h4.16v-9.8c0-2.92-1.04-4.08-4.38-4.08 2.73-.84 4.82-3.63 4.82-7.37m-4.17.61c0 2.92-2.09 5.2-5.62 5.2h-7.71V4.16h7.71c3.54 0 5.62 1.67 5.62 4.79m-43.84 20.64h21.66v-3.75h-17.5v-9.38h14.59v-3.75h-14.59V4.18h17.09V.42h-21.25zm-10.89.05h4.16v-8.95h-23.12v8.95H130v-4.71h14.8zm4.17-13.11V.38h-4.16v11.9h-14.8V.38h-4.16v16.14h23.12zm-34.04 13.06L122.01.42h-4.33l-5.5 24.84L106.39.42h-5.45l-5.97 24.63L89.26.42h-4.33l7.08 29.17h5.62l5.83-24.38 5.85 24.38zM83.17 15c0-9.38-5.83-15-13.76-15-7.92 0-13.76 5.62-13.76 15s5.83 15 13.76 15 13.76-5.62 13.76-15m-4.16 0c0 7.08-3.96 11.25-9.38 11.25h-.42c-5.42 0-9.38-4.16-9.38-11.25 0-7.08 3.96-11.25 9.38-11.25h.42c5.42 0 9.38 4.17 9.38 11.25M46.54 29.59h4.16V13.44H27.58v16.14h4.16v-11.9h14.8zm4.18-20.22V.42h-4.16v4.71h-14.8V.42H27.6v8.95zm-32.14-.2h4.16C22.53 3.55 18.42 0 11.95 0 5.65 0 1.53 3.75 1.53 8.34c0 4.62 2.7 7.24 7.38 8.2l4.67.96c3.08.63 4.59 2.01 4.59 4.38 0 2.42-2.12 4.37-6.05 4.37h-.42c-4.38 0-7.46-2.09-7.46-6.05H.08C.3 26.67 4.68 30 11.54 30c6.46 0 10.79-3.17 10.79-8.29 0-4.76-2.92-7.43-7.96-8.42l-4.67-.91c-2.46-.5-4-1.84-4-4.08 0-2.59 2.42-4.54 6.05-4.54h.41c3.55-.01 6.22 2.07 6.42 5.41"/></g><defs><clipPath id="a"><path fill="#fff" d="M0 0h231v30H0z"/></clipPath></defs></svg>