<svg xmlns="http://www.w3.org/2000/svg" width="95" height="35" fill="none" viewBox="0 0 95 35"><path stroke="#fff" stroke-linecap="round" stroke-linejoin="round" stroke-width="3" d="M26.8 13.402H11.2a5.2 5.2 0 0 0-5.2 5.2v7.8a5.2 5.2 0 0 0 5.2 5.2h15.6a5.2 5.2 0 0 0 5.2-5.2v-7.8a5.2 5.2 0 0 0-5.2-5.2M19 8.2A2.6 2.6 0 1 0 19 3a2.6 2.6 0 0 0 0 5.2m0 .706V12.5m-3.9 11.295v-2.6m7.8 0v2.6"/><path fill="#fff" d="m57.403 17.632-2.887.511a3.4 3.4 0 0 0-.575-1.055q-.384-.5-1.044-.82t-1.651-.32q-1.353 0-2.259.608-.905.596-.905 1.544 0 .82.607 1.322.607.5 1.96.82l2.6.596q2.258.522 3.366 1.61 1.108 1.086 1.108 2.822a4.3 4.3 0 0 1-.852 2.621q-.842 1.14-2.355 1.79-1.501.65-3.483.65-2.75 0-4.485-1.172-1.737-1.183-2.131-3.356l3.079-.469q.287 1.204 1.182 1.822.896.607 2.333.607 1.566 0 2.504-.65.937-.66.937-1.608 0-.767-.575-1.29-.564-.52-1.736-.788l-2.77-.607q-2.291-.522-3.388-1.662-1.087-1.14-1.087-2.887 0-1.449.81-2.536t2.237-1.693q1.428-.618 3.27-.618 2.654 0 4.177 1.15 1.524 1.14 2.013 3.058M61.225 30V13.637h3.186V30zm1.609-18.888q-.831 0-1.428-.554-.585-.565-.585-1.342 0-.789.585-1.343a2 2 0 0 1 1.428-.564q.83 0 1.417.564.596.554.596 1.343 0 .778-.596 1.342-.586.555-1.417.554M68.696 30V13.637h3.058V16.3h.202q.51-1.353 1.673-2.11 1.16-.766 2.78-.766 1.64 0 2.749.767 1.118.766 1.65 2.11h.171q.587-1.31 1.865-2.089 1.278-.788 3.047-.788 2.226 0 3.632 1.395 1.417 1.395 1.417 4.208V30h-3.185V19.326q0-1.662-.906-2.408-.905-.746-2.162-.746-1.555 0-2.418.96-.864.946-.864 2.439V30h-3.174V19.122q0-1.331-.831-2.141t-2.163-.81q-.905 0-1.672.48a3.5 3.5 0 0 0-1.225 1.31q-.459.841-.459 1.95V30z"/></svg>