<svg xmlns="http://www.w3.org/2000/svg" width="315" height="40" fill="none" viewBox="0 0 315 40"><g clip-path="url(#a)"><path fill="#fff" d="M16.14 0C7.826 0 2.054 3.92 2.054 10.839c0 7.195 6.569 9.686 12.504 11.646 4.964 1.684 9.582 2.906 9.582 6.296 0 2.595-2.69 4.543-6.927 4.543-5.404 0-9.19-2.687-10.576-7.483L0 28.677C2.171 35.537 8.151 40 17.097 40c8.949 0 14.94-4.359 14.94-11.646s-6.302-9.997-12.19-11.9c-5.184-1.752-10.056-2.859-10.056-6.03 0-2.329 2.586-3.966 6.303-3.966a10.53 10.53 0 0 1 9.745 5.57l5.829-2.93C29.279 2.746 22.928 0 16.139 0m282.628 0c-8.313 0-14.085 3.92-14.085 10.839 0 7.195 6.569 9.686 12.503 11.646 4.965 1.684 9.583 2.906 9.583 6.296 0 2.595-2.69 4.543-6.926 4.543-5.404 0-9.179-2.687-10.576-7.483l-6.64 2.836c2.171 6.86 8.153 11.323 17.1 11.323s14.94-4.359 14.94-11.646-6.305-9.997-12.181-11.9c-5.195-1.752-10.068-2.859-10.068-6.03 0-2.329 2.597-3.966 6.303-3.966a10.54 10.54 0 0 1 9.745 5.57l5.831-2.93C311.907 2.746 305.557 0 298.768 0M170.881 1.142l-6.568.023-12.493 38.2h8.083l.484-1.324 10.486-36.867 10.688 37.535.231.635h8.082L178.305 1.165h-7.43zm-126.052.023v38.2h7.414v-38.2zm63.906 0 10.908 38.2h15.552l10.772-38.2h-7.816l-10.806 37.936-10.807-37.936zm87.269 0V7.83h12.769v31.538h7.424V7.829h12.758V1.165zm44.079 0V23.65c0 10.1 6.132 16.35 16.257 16.35s16.163-6.249 16.163-16.35V1.165h-7.424V23.65c0 5.604-2.69 9.57-8.786 9.57s-8.797-3.967-8.797-9.57V1.165zM67.979 1.2v38.2h7.424V24.757h6.395c.675.006 1.04.082 1.503.135.668.095 1.373.305 1.952.485l7.652 14.036h8.44l-9.802-17.85.15-.058a11.28 11.28 0 0 0 5.773-4.704 10.3 10.3 0 0 0 1.339-5.224c0-8.464-8.002-10.378-14.94-10.378zm7.424 6.63h7.25c3.648 0 8.474.324 8.474 5.074 0 4.751-4.826 5.396-8.473 5.396l-7.251.002z"/></g><defs><clipPath id="a"><path fill="#fff" d="M0 0h314.667v40H0z"/></clipPath></defs></svg>