<svg xmlns="http://www.w3.org/2000/svg" width="195" height="47" fill="none" viewBox="0 0 195 47"><path fill="#fff" d="M54.212 17.434q-.195-1.815-1.634-2.826-1.426-1.01-3.712-1.01-1.606-.001-2.756.484t-1.759 1.316a3.2 3.2 0 0 0-.623 1.897q0 .886.402 1.537.415.651 1.121 1.108.707.444 1.565.748.86.305 1.732.513l2.659.664q1.605.375 3.088 1.011 1.495.637 2.673 1.607a7.1 7.1 0 0 1 1.884 2.34q.692 1.372.692 3.214 0 2.493-1.274 4.39-1.275 1.883-3.684 2.95-2.396 1.052-5.803 1.052-3.31 0-5.748-1.025-2.423-1.025-3.794-2.991-1.357-1.966-1.468-4.792h5.055q.11 1.482.914 2.465.803.984 2.091 1.468 1.302.485 2.909.485 1.675 0 2.936-.498 1.274-.513 1.994-1.413.72-.914.734-2.133-.014-1.108-.651-1.828-.637-.735-1.787-1.219-1.135-.498-2.659-.886l-3.227-.831q-3.503-.9-5.54-2.729-2.02-1.841-2.021-4.888 0-2.507 1.357-4.39 1.371-1.884 3.725-2.923 2.355-1.052 5.332-1.052 3.02 0 5.29 1.052 2.286 1.04 3.588 2.895 1.302 1.842 1.343 4.238zm14.705 8.101V38h-5.014V16.727h4.792v3.615h.25a6.1 6.1 0 0 1 2.34-2.84q1.62-1.051 4.002-1.052 2.202 0 3.837.942 1.647.942 2.548 2.728.915 1.787.9 4.335V38H77.56V25.23q0-2.132-1.108-3.337-1.094-1.205-3.033-1.205-1.316 0-2.34.582-1.012.568-1.594 1.648-.567 1.08-.567 2.617M93.79 38.43q-2.022 0-3.642-.72a5.95 5.95 0 0 1-2.548-2.16q-.929-1.427-.928-3.518 0-1.8.664-2.978a5.15 5.15 0 0 1 1.815-1.883 9.2 9.2 0 0 1 2.59-1.067q1.453-.373 3.005-.54 1.869-.194 3.033-.346 1.163-.166 1.69-.499.54-.346.54-1.066v-.083q0-1.565-.928-2.424-.928-.858-2.673-.858-1.842 0-2.922.803-1.067.803-1.44 1.897l-4.682-.665q.555-1.938 1.828-3.24 1.275-1.316 3.116-1.967 1.843-.665 4.072-.665 1.538 0 3.06.36a8.6 8.6 0 0 1 2.785 1.191q1.26.817 2.022 2.23.775 1.413.775 3.532V38h-4.819v-2.922h-.167a6.1 6.1 0 0 1-1.288 1.662q-.816.761-2.063 1.232-1.233.457-2.895.457m1.302-3.684q1.51 0 2.618-.595 1.107-.61 1.703-1.607.609-.997.609-2.174v-2.507q-.235.195-.803.36-.555.166-1.246.291-.693.124-1.371.222l-1.178.166a8.8 8.8 0 0 0-2.008.498q-.886.346-1.398.97-.513.61-.513 1.579 0 1.384 1.011 2.091 1.011.706 2.576.706m14.971 11.232v-29.25h4.931v3.518h.291q.387-.775 1.094-1.648.706-.886 1.911-1.51 1.205-.637 3.074-.637 2.466 0 4.446 1.26 1.995 1.247 3.158 3.698 1.177 2.438 1.177 5.983 0 3.504-1.15 5.956-1.149 2.45-3.129 3.739-1.981 1.288-4.488 1.288-1.827 0-3.033-.61-1.204-.609-1.939-1.468-.72-.871-1.121-1.648h-.208v11.33zm4.917-18.613q0 2.063.582 3.614.595 1.551 1.703 2.424 1.122.859 2.714.859 1.662 0 2.784-.887 1.122-.9 1.69-2.451.582-1.565.582-3.56 0-1.98-.568-3.517t-1.69-2.41q-1.121-.872-2.798-.872-1.606 0-2.728.844-1.122.846-1.703 2.369-.568 1.522-.568 3.587m19.458 18.613v-29.25h4.931v3.518h.291q.387-.775 1.094-1.648.707-.886 1.911-1.51 1.205-.637 3.074-.637 2.466 0 4.446 1.26 1.995 1.247 3.158 3.698 1.177 2.438 1.177 5.983 0 3.504-1.15 5.956-1.149 2.45-3.129 3.739-1.982 1.288-4.488 1.288-1.827 0-3.033-.61-1.204-.609-1.939-1.468-.72-.871-1.121-1.648h-.208v11.33zm4.917-18.613q0 2.063.582 3.614.595 1.551 1.703 2.424 1.122.859 2.714.859 1.662 0 2.784-.887 1.122-.9 1.69-2.451.582-1.565.582-3.56 0-1.98-.568-3.517t-1.69-2.41q-1.121-.872-2.798-.872-1.606 0-2.728.844-1.122.846-1.703 2.369-.568 1.522-.568 3.587m28.876 11.052q-3.2 0-5.526-1.33-2.313-1.343-3.559-3.795-1.247-2.465-1.247-5.803 0-3.282 1.247-5.761 1.26-2.493 3.517-3.878 2.258-1.4 5.305-1.399 1.967 0 3.711.637a8.4 8.4 0 0 1 3.103 1.94q1.357 1.315 2.133 3.35.775 2.023.775 4.82v1.538h-17.436v-3.38h12.63q-.014-1.44-.623-2.562a4.53 4.53 0 0 0-1.703-1.786q-1.081-.651-2.521-.651-1.537 0-2.701.748a5.16 5.16 0 0 0-1.814 1.939 5.6 5.6 0 0 0-.651 2.617v2.95q0 1.856.679 3.186.679 1.315 1.897 2.022 1.22.692 2.853.692 1.095 0 1.981-.305a4.4 4.4 0 0 0 1.537-.928q.651-.61.983-1.51l4.681.527a7.3 7.3 0 0 1-1.689 3.24q-1.233 1.372-3.158 2.134-1.924.747-4.404.748m24.323-21.689v3.878h-12.229v-3.878zm-9.21-5.096h5.014V31.6q0 1.012.304 1.552.32.525.831.72.512.195 1.136.194.47 0 .859-.07.4-.069.609-.124l.845 3.92q-.402.138-1.15.304-.733.165-1.8.194-1.884.056-3.393-.568a5.3 5.3 0 0 1-2.396-1.967q-.873-1.329-.859-3.324zM10.569 38.39l.78-9.438-9.36 1.092 7.098-6.162-7.098-6.24 9.36 1.17-.78-9.438 5.928 7.332 6.006-7.332-.858 9.438 9.36-1.17-7.098 6.24 7.098 6.162-9.36-1.092.858 9.438-6.006-7.41z"/></svg>