<svg xmlns="http://www.w3.org/2000/svg" width="123" height="40" fill="none" viewBox="0 0 123 40"><g clip-path="url(#a)"><mask id="b" width="123" height="40" x="0" y="0" maskUnits="userSpaceOnUse" style="mask-type:luminance"><path fill="#fff" d="M122.205 0H0v40h122.205z"/></mask><g fill="#fff" mask="url(#b)"><path d="M10.563 38.468a2.5 2.5 0 0 1-.192-.924l-.038-6.365c-.007-1.083-.458-1.777-1.002-2.413-.348-.407-1.067-1.075-3.015-1.536-1.21-.287-3.42-.618-6.315.046.218.142.711.505.989 1.173.151.364.186.695.19.92v.002l.056 6.192c.02.562.145 1.695.95 2.646.37.436 1.063 1.048 3.05 1.475 1.273.273 3.471.555 6.316-.047a2.6 2.6 0 0 1-.989-1.17M26.795 11.58a2.5 2.5 0 0 1-.192-.924l-.038-6.366c-.007-1.083-.459-1.777-1.003-2.413-.348-.406-1.067-1.075-3.015-1.536-1.21-.286-3.42-.618-6.316.047.218.141.711.505.99 1.172.15.365.186.696.19.92v.002q.03 3.097.056 6.193c.02.562.145 1.694.95 2.646.37.435 1.063 1.048 3.05 1.474 1.274.273 3.471.556 6.315-.047a2.6 2.6 0 0 1-.988-1.17m.166 27.194a2.9 2.9 0 0 1-.244-1.223c.014-1.204.001-2.523-.023-3.697.036-1.648.08-3.335.031-4.405-.024-.53-.1-2.036-.606-3.557-2.074-6.238-10.321-9.592-13.873-13.32-.441-.463-1.091-1.227-1.511-2.347-.39-1.04-.396-1.89-.417-2.618-.087-2.989-.136-4.63-.54-5.49-.443-.94-1.716-1.803-5-1.986C3.541.016 1.986.01.021.167.27.371.638.73.878 1.275c.234.53.247 1.001.245 1.223a120 120 0 0 0 .022 3.696c-.036 1.648-.08 3.336-.031 4.405.024.53.1 2.036.606 3.557 2.075 6.237 10.321 9.592 13.873 13.32.441.463 1.091 1.227 1.511 2.347.39 1.04.396 1.89.417 2.618.088 2.989.136 4.63.54 5.49.443.94 1.716 1.803 5 1.986 1.236.113 2.79.12 4.755-.039a3 3 0 0 1-.856-1.107m88.496-7.521c2.025 0 4.218 1.085 4.58 1.182h.12v-3.23h-.12c-.362.096-2.555 1.18-4.58 1.18h-1.446v-7.037h3.35c2.049 0 4.266 2.916 4.676 3.11h.096v-4.098h-12.364v.096c.072.313.626 2.049.626 3.663v9.834c0 1.615-.554 3.35-.626 3.663v.096h12.436v-4.097h-.096c-.41.194-2.627 3.11-4.676 3.11h-3.423V31.25zm-14.08-8.797v-.096h-4.845v.096c.072.314.627 2.05.627 3.664v9.833c0 1.616-.555 3.35-.627 3.664v.096h11.786v-4.459h-.096c-.41.242-2.627 3.471-4.676 3.471h-2.772V26.117c0-1.616.555-3.35.603-3.664m-21.25 4.676h.096c.385-.265 2.578-3.712 4.579-3.712h1.037V35.95c0 1.616-.554 3.35-.627 3.664v.096h4.868v-.096c-.072-.314-.626-2.05-.626-3.663V23.417h1.012c2.025 0 4.218 3.447 4.58 3.712h.12v-4.772h-15.04v4.772M72.735 40c3.374 0 6.507-1.663 6.507-5.182 0-1.953-1.06-4.05-4.94-5.616-2.7-1.037-4.99-1.929-4.99-3.712 0-1.205 1.037-2.29 2.748-2.29 2.29 0 4.724 2.53 6.34 4.122h.12v-3.833c-1.447-.603-3.713-1.374-5.954-1.374-4.218 0-6.483 2.507-6.483 5.134s2.217 4.074 5.206 5.134c2.652.965 4.676 1.904 4.676 3.929 0 1.663-1.326 2.579-2.868 2.579-2.53 0-4.87-2.603-6.604-4.387h-.169v3.953C68.687 39.445 70.93 40 72.736 40m-15.495 0c3.447 0 6.243-2.025 6.243-6.652v-5.544c0-2.362 1.084-4.869 1.18-5.326v-.12H61.17v.12c.12.457 1.205 2.964 1.205 5.326v5.447c0 3.59-1.953 5.134-4.266 5.134-2.507 0-4.122-1.784-4.122-5.303v-6.965c0-1.615.555-3.35.627-3.663v-.096h-4.845v.096c.048.314.603 2.049.603 3.663v6.629c0 5.326 3.567 7.254 6.868 7.254m-19.83-.386c-.048-.313-.603-2.048-.603-3.663v-4.41h6.796v4.41c0 1.615-.554 3.35-.626 3.663v.097h4.869v-.096c-.073-.314-.627-2.05-.627-3.664v-9.834c0-1.615.554-3.35.627-3.663v-.096h-4.87v.096c.073.314.627 2.049.627 3.663v4.339h-6.796v-4.339c0-1.615.554-3.35.603-3.663v-.096h-4.845v.096c.072.314.627 2.049.627 3.663v9.834c0 1.615-.555 3.35-.627 3.663v.097h4.845zM110.031.337V.241h-4.844v.096c.072.314.626 2.05.626 3.664v9.834c0 1.615-.554 3.35-.626 3.663v.096h11.785v-4.46h-.096c-.41.242-2.627 3.472-4.676 3.472h-2.771V4c0-1.615.554-3.35.602-3.664M91.472 10.63l2.7-7.544 2.82 7.544zm-4.024 6.893v.072h3.446v-.12c-.096-.41-.94-2.579-.241-4.556l.434-1.204h6.315l.723 1.952c.626 1.663.144 3.471.072 3.832v.097h5.688v-.072c-.651-.965-1.229-2.17-1.856-3.833L96.968.241h-4.29v.072c.072.218.747 1.616.29 2.868l-3.4 9.449c-.747 2.12-1.615 4-2.12 4.893m-1.36-.024c-.048-.314-.603-2.05-.603-3.664V4.001c0-1.615.555-3.35.603-3.664V.241h-4.845v.096c.073.314.627 2.05.627 3.664v9.834c0 1.615-.554 3.35-.627 3.663v.096h4.845zm-13.049.385c1.976 0 3.905-.458 5.906-1.084v-4.267H78.8c-1.447 2.17-3.35 4.267-5.255 4.267-2.506 0-4.724-3.35-4.724-7.882 0-4.531 2.073-7.857 4.724-7.857 2.121 0 4.05 2.41 5.254 4.241h.146v-4.24C76.848.41 74.823 0 73.16 0c-4.796 0-8.387 3.591-8.387 8.942 0 5.352 3.639 8.942 8.266 8.942m-17.912-1.012c-2.772 0-4.17-4.41-4.17-7.954s1.398-7.93 4.17-7.93 4.194 4.339 4.194 7.857c0 3.52-1.422 8.027-4.194 8.027m0 .988c4.555 0 8.243-3.687 8.243-8.99S59.682 0 55.127 0c-4.556 0-8.219 3.591-8.219 8.87s3.64 8.99 8.219 8.99m-16.103.024c3.374 0 6.508-1.663 6.508-5.182 0-1.953-1.06-4.05-4.94-5.616-2.7-1.036-4.99-1.929-4.99-3.712 0-1.205 1.037-2.29 2.748-2.29 2.29 0 4.724 2.531 6.339 4.122h.12V1.374C43.363.77 41.097 0 38.856 0c-4.218 0-6.484 2.507-6.484 5.134s2.218 4.074 5.207 5.134c2.651.964 4.675 1.904 4.675 3.929 0 1.663-1.325 2.579-2.868 2.579-2.53 0-4.869-2.603-6.604-4.387h-.169v3.952c2.362.988 4.604 1.542 6.411 1.542"/></g></g><defs><clipPath id="a"><path fill="#fff" d="M0 0h122.205v40H0z"/></clipPath></defs></svg>