<svg xmlns="http://www.w3.org/2000/svg" width="206" height="40" fill="none" viewBox="0 0 206 40"><g clip-path="url(#a)"><path fill="#fff" d="M53.592 23.632c.212 1.983 2.015 5.382 7.25 5.382 4.561 0 6.754-2.903 6.754-5.736 0-2.549-1.733-4.638-5.163-5.346l-2.476-.531c-.955-.177-1.591-.708-1.591-1.558 0-.991.99-1.735 2.228-1.735 1.98 0 2.723 1.31 2.864 2.337l3.926-.885c-.212-1.877-1.875-5.028-6.825-5.028-3.75 0-6.507 2.585-6.507 5.7 0 2.444 1.52 4.462 4.88 5.205l2.298.531c1.344.284 1.875.921 1.875 1.7 0 .92-.743 1.735-2.299 1.735-2.051 0-3.077-1.275-3.183-2.656zm29.035 4.85h4.491a29 29 0 0 1-.177-3.15v-14.27h-4.704V21.19c0 2.018-1.202 3.434-3.288 3.434-2.193 0-3.183-1.558-3.183-3.505V11.063h-4.703v11.01c0 3.79 2.404 6.87 6.613 6.87 1.838 0 3.855-.709 4.81-2.337 0 .708.07 1.522.14 1.876m14.038 6.728v-8.426c.849 1.168 2.617 2.124 5.022 2.124 4.915 0 8.204-3.895 8.204-9.17 0-5.17-2.935-9.064-8.027-9.064-2.617 0-4.562 1.168-5.34 2.514v-2.125H91.96V35.21zm8.593-15.437c0 3.116-1.909 4.922-4.314 4.922-2.404 0-4.35-1.841-4.35-4.922s1.946-4.886 4.35-4.886 4.314 1.806 4.314 4.886m7.297 3.966c0 2.726 2.263 5.24 5.976 5.24 2.581 0 4.243-1.204 5.127-2.585 0 .673.071 1.629.177 2.09h4.315c-.107-.603-.212-1.842-.212-2.763v-8.568c0-3.505-2.051-6.62-7.568-6.62-4.668 0-7.179 3.009-7.462 5.735l4.173.885c.142-1.522 1.273-2.832 3.324-2.832 1.981 0 2.935 1.026 2.935 2.266 0 .602-.317 1.097-1.308 1.239l-4.279.637c-2.9.425-5.198 2.16-5.198 5.276m6.966 1.735c-1.52 0-2.263-.992-2.263-2.019 0-1.345.954-2.018 2.157-2.195l3.925-.602v.78c0 3.08-1.839 4.036-3.819 4.036m17.72 3.009v-2.125c.919 1.487 2.758 2.55 5.163 2.55 4.951 0 8.205-3.93 8.205-9.206 0-5.17-2.936-9.1-8.028-9.1-2.582 0-4.492 1.134-5.27 2.373V2.849h-4.632v25.634zm8.664-8.746c0 3.187-1.91 4.957-4.315 4.957-2.369 0-4.349-1.805-4.349-4.957 0-3.186 1.98-4.921 4.349-4.921 2.405 0 4.315 1.735 4.315 4.921m7.367 4.002c0 2.726 2.263 5.24 5.976 5.24 2.581 0 4.244-1.204 5.127-2.585 0 .673.072 1.629.177 2.09h4.315c-.106-.603-.212-1.842-.212-2.763v-8.568c0-3.505-2.051-6.62-7.568-6.62-4.668 0-7.179 3.009-7.462 5.735l4.173.885c.142-1.522 1.273-2.832 3.324-2.832 1.981 0 2.936 1.026 2.936 2.266 0 .602-.319 1.097-1.309 1.239l-4.279.637c-2.899.425-5.198 2.16-5.198 5.276m6.966 1.735c-1.52 0-2.263-.992-2.263-2.019 0-1.345.954-2.018 2.157-2.195l3.926-.602v.78c0 3.08-1.839 4.036-3.82 4.036m11.673-1.842c.211 1.983 2.015 5.382 7.249 5.382 4.562 0 6.754-2.903 6.754-5.736 0-2.549-1.732-4.638-5.163-5.346l-2.475-.531c-.955-.177-1.591-.708-1.591-1.558 0-.991.99-1.735 2.227-1.735 1.981 0 2.724 1.31 2.866 2.337l3.925-.885c-.213-1.877-1.875-5.028-6.826-5.028-3.749 0-6.506 2.585-6.506 5.7 0 2.444 1.52 4.462 4.88 5.205l2.298.531c1.344.284 1.875.921 1.875 1.7 0 .92-.743 1.735-2.299 1.735-2.051 0-3.077-1.275-3.183-2.656zm21.147-5.842c.106-1.593 1.45-3.434 3.89-3.434 2.687 0 3.819 1.7 3.89 3.434zm8.24 4.533c-.566 1.557-1.769 2.655-3.961 2.655-2.334 0-4.279-1.664-4.385-3.966h12.448c0-.07.07-.779.07-1.451 0-5.594-3.217-9.029-8.593-9.029-4.455 0-8.558 3.612-8.558 9.17 0 5.878 4.208 9.312 8.983 9.312 4.278 0 7.037-2.514 7.921-5.523z"/><path fill="url(#b)" d="M22.551 39.039c-1.012 1.274-3.064.576-3.089-1.052l-.356-23.805h16.007c2.899 0 4.516 3.348 2.713 5.619z"/><path fill="url(#c)" fill-opacity=".2" d="M22.551 39.039c-1.012 1.274-3.064.576-3.089-1.052l-.356-23.805h16.007c2.899 0 4.516 3.348 2.713 5.619z"/><path fill="#fff" d="M16.041.734c1.013-1.275 3.065-.577 3.09 1.05l.156 23.807H3.48c-2.9 0-4.516-3.35-2.713-5.62z"/></g><defs><linearGradient id="b" x1="19.106" x2="33.332" y1="19.46" y2="25.427" gradientUnits="userSpaceOnUse"><stop stop-color="#ccc"/><stop offset="1" stop-color="#fff"/></linearGradient><linearGradient id="c" x1="12.799" x2="19.287" y1="10.824" y2="23.038" gradientUnits="userSpaceOnUse"><stop/><stop offset="1" stop-opacity="0"/></linearGradient><clipPath id="a"><path fill="#fff" d="M0 0h205.664v40H0z"/></clipPath></defs></svg>