<svg xmlns="http://www.w3.org/2000/svg" width="157" height="40" fill="none" viewBox="0 0 157 40"><path fill="#fff" d="M30.618 0H5.714A5.714 5.714 0 0 0 0 5.714v24.904a5.714 5.714 0 0 0 5.714 5.714h24.904a5.714 5.714 0 0 0 5.714-5.715V5.715A5.714 5.714 0 0 0 30.617 0"/><path fill="#000" fill-rule="evenodd" d="M23.95 4.705v1.088a12.3 12.3 0 0 1-3.635 8.736l-8.125 8.087-4.61-4.631 8.125-8.087a5.77 5.77 0 0 0 1.71-4.105V4.705zm-7.857 17.151 8.124-7.998 4.584 4.657-8.124 7.998a5.62 5.62 0 0 0-1.697 4.022v1.076h-6.535v-1.076c0-3.398 1.404-6.47 3.648-8.679" clip-rule="evenodd"/><path fill="#fff" d="m60.675 16.676-5.097-.94c-1.05-.2-1.502-.356-2.503-.784-1.04-.545-1.59-1.53-1.59-2.85 0-2.43 2.005-3.88 5.365-3.88 3.593 0 5.466 1.506 5.563 4.476 0 .043.037.076.08.076h4.256a.08.08 0 0 0 .057-.024.07.07 0 0 0 .022-.057c-.05-4.9-3.873-7.946-9.978-7.946s-9.83 2.989-9.83 7.801c0 3.741 2.337 6.067 6.945 6.908l5.542 1.04c2.254.441 3.35 1.58 3.35 3.486 0 2.646-2.134 4.225-5.71 4.225-3.77 0-6.206-1.91-6.206-4.87a.08.08 0 0 0-.08-.079h-4.256a.08.08 0 0 0-.08.08c0 5.099 4.17 8.394 10.623 8.394s10.374-3.066 10.374-7.999c0-3.884-2.304-6.258-6.847-7.057m43.54-11.433h-4.504a.08.08 0 0 0-.077.06L96.07 19.165l-1.67 7.558h-.121l-5.281-21.42a.08.08 0 0 0-.078-.06h-5.196a.08.08 0 0 0-.079.062l-5.034 21.517h-.218l-1.67-7.81-3.612-13.71a.08.08 0 0 0-.077-.06h-4.653a.08.08 0 0 0-.063.033.08.08 0 0 0-.013.07L75.58 31.18c.01.035.041.058.076.058h5.693a.08.08 0 0 0 .078-.061l3.167-13.265 1.57-7.262h.169l1.669 7.265 3.315 13.264c.01.035.042.06.077.06h5.593a.08.08 0 0 0 .077-.059l7.227-25.837a.1.1 0 0 0-.013-.07.08.08 0 0 0-.064-.032zm25.232 0h-3.911a.08.08 0 0 0-.079.073l-.391 4.58h-.172c-1.433-3.227-4.741-5.149-8.86-5.149-3.391 0-6.142 1.26-8.178 3.741-2.048 2.498-3.086 5.778-3.086 9.75s1.022 7.344 3.038 9.802c2.05 2.45 4.768 3.692 8.079 3.692 4.096 0 7.627-2.077 9.01-5.296h.165v4.722c0 .044.034.08.08.08h4.305a.08.08 0 0 0 .079-.08V5.322a.08.08 0 0 0-.079-.08m-4.385 11.363v3.316c0 2.325-.758 4.237-2.253 5.684-1.534 1.484-3.393 2.204-5.686 2.204-4.847 0-7.74-3.578-7.74-9.571 0-3.043.765-5.525 2.214-7.18 1.342-1.532 3.236-2.341 5.477-2.341s4.189.758 5.684 2.254c1.549 1.549 2.304 3.393 2.304 5.634M155.85 5.276a.08.08 0 0 0-.065-.033h-4.603a.08.08 0 0 0-.077.054l-4.107 12.522-2.459 7.913h-.18l-2.606-7.916-4.455-12.522a.08.08 0 0 0-.075-.053h-4.702a.078.078 0 0 0-.073.109l9.789 25.114-.535 1.457c-1.015 2.758-2.855 4.156-5.469 4.156-.735 0-1.378-.05-1.915-.147a.1.1 0 0 0-.067.018.08.08 0 0 0-.028.06v3.663a.08.08 0 0 0 .063.078c.492.113 1.29.25 2.295.25 4.691 0 8.046-2.832 9.973-8.417l9.305-26.234a.08.08 0 0 0-.009-.073z"/></svg>