<svg xmlns="http://www.w3.org/2000/svg" width="203" height="30" fill="none" viewBox="0 0 203 30"><g fill="#fff" clip-path="url(#a)"><path d="m191.391 4.305 11.482 25.253h-5.454l-2.009-4.017h-18.372l-1.722 4.017h-5.454l11.195-25.253C182.492 1.435 184.502 0 186.511 0c1.722 0 3.445 1.435 4.88 4.305m1.722 16.07-6.889-15.21-6.889 15.21z"/><path fill-rule="evenodd" d="M27.482 29.846c0-8.323-6.028-14.923-13.491-16.645v16.645zM18.296 0v11.766h13.492C31.788 5.739 29.204 0 18.296 0m-4.592 11.766V0H.211c0 6.313 2.583 11.766 13.492 11.766" clip-rule="evenodd"/><path d="M164.408 0v26.115c0 1.147.287 1.721-.574 2.582-.287.574-1.149.861-1.723.861h-2.87c-2.871 0-2.871-.287-4.306-2.582L143.166 6.6v22.958h-5.167V2.583c0-.574.287-1.435.861-1.722.574-.574 2.009-.861 3.157-.861s2.584 0 3.158.86l.861.862c3.445 4.304 11.482 19.514 13.492 22.67V0zm-34.734 0v5.166h-17.798v6.6h13.779v5.165h-13.779v3.731c0 1.148.288 2.009 1.149 2.87q1.291.86 2.583.86h14.066v5.166h-14.066c-2.296 0-4.593-.86-6.315-2.582-1.435-1.722-2.584-4.018-2.584-6.314V4.018c0-1.148.575-2.01 1.149-2.87C108.719.574 109.58 0 110.728 0zM91.209 12.34V0h5.167v29.558h-5.168v-12.34h-13.49v12.34H72.55V0h5.167v12.34zM42.983 5.166V0h22.965v5.166h-8.9v24.392h-5.166V5.166z"/></g><defs><clipPath id="a"><path fill="#fff" d="M0 0h203v30H0z"/></clipPath></defs></svg>