<svg xmlns="http://www.w3.org/2000/svg" width="30" height="30" fill="none" viewBox="0 0 30 30"><path fill="#eea33f" d="m29.687 12.174-1.976-.73 1.348-1.621-2.723-4.735-2.073.36.358-2.083L19.906.631l-1.615 1.353L17.565 0H12.12l-.726 1.984L9.778.63 5.064 3.365l.358 2.082-2.073-.36L.628 9.824l1.347 1.622-1.975.73v5.468l1.975.73-1.347 1.622L3.35 24.73l2.074-.36-.358 2.082 4.714 2.735 1.615-1.353.726 1.983h5.446l.726-1.983 1.615 1.353 4.714-2.735-.358-2.082 2.074.36 2.722-4.735-1.347-1.623 1.975-.729v-5.469zM25.86 6.106l2.08 3.62-1.145 1.381-.012-.003-.01.011-3.314-1.202.62-3.484.016-.003.002-.012zm.28 5.762-2.553 3.04 2.553 3.041-3.723 1.352.696 3.915-3.899-.7-1.345 3.74-3.028-2.563-3.027 2.564-1.345-3.74-3.899.699.696-3.915-3.723-1.352 2.553-3.04-2.552-3.04 3.724-1.352L6.573 6.6l3.898.7 1.346-3.74 3.027 2.564 3.028-2.564 1.345 3.74 3.898-.7-.696 3.916zM20.003 1.753l3.604 2.09-.305 1.772-.012.001-.003.017-3.469.622-1.197-3.328.013-.01-.005-.012zm-7.24-.828h4.161l.618 1.687-.01.009.005.015-2.695 2.281-2.694-2.281.005-.015-.01-.009zM6.08 3.843l3.603-2.09 1.376 1.15-.005.012.013.01L9.87 6.254 6.4 5.633l-.004-.017-.011-.001zM1.744 9.726l2.08-3.62 1.763.306.002.012.016.003.62 3.484-3.314 1.203-.01-.014-.012.005zm-.825 7.273v-4.18l1.68-.62.009.01.015-.005 2.271 2.706-2.271 2.706-.015-.005-.009.01zm2.906 6.712-1.04-1.81-1.041-1.81 1.145-1.38.012.004.01-.013 3.314 1.202-.62 3.484-.016.004-.002.011zm5.858 4.354-1.801-1.046-1.802-1.045.305-1.771.011-.002.004-.017 3.468-.622 1.198 3.328-.014.01.005.012zm7.241.83h-4.161l-.618-1.688.01-.009-.005-.015 2.694-2.281 2.694 2.281-.005.015.01.009zm6.683-2.92-3.604 2.09-1.375-1.151.005-.012-.014-.01 1.198-3.328 3.468.622.004.017.011.001zm4.334-5.883-2.08 3.62-1.763-.307-.002-.012-.016-.003-.62-3.484 3.314-1.203.01.012.012-.005zm.826-3.093-1.68.62-.008-.01-.015.006-2.272-2.706 2.272-2.706.015.005.008-.01 1.68.62z"/></svg>