<svg xmlns="http://www.w3.org/2000/svg" width="107" height="21" fill="none" viewBox="0 0 107 21"><g clip-path="url(#a)"><path fill="#fff" d="M3.073 6.137H.997V4.445h2.076V1.219h1.85v3.226h2.91v1.692h-2.91v6.791q0 .721.27 1.038.294.293.993.293h2.008v1.692h-2.12q-1.626 0-2.324-.722-.677-.721-.677-2.278zm11.082 9.949q-1.67 0-2.978-.745a5.23 5.23 0 0 1-2.008-2.076q-.722-1.33-.722-3.068 0-1.736.722-3.068a5.23 5.23 0 0 1 2.008-2.076q1.308-.744 2.978-.744t2.955.744a5.2 5.2 0 0 1 2.03 2.076q.723 1.33.723 3.068t-.722 3.068a5.2 5.2 0 0 1-2.03 2.076q-1.287.744-2.956.745m0-1.647q1.128 0 1.985-.542a3.57 3.57 0 0 0 1.354-1.511q.474-.97.474-2.189 0-1.218-.474-2.188a3.57 3.57 0 0 0-1.354-1.512q-.857-.54-1.985-.541-1.129 0-2.008.541a3.6 3.6 0 0 0-1.331 1.512q-.474.97-.474 2.188t.474 2.189 1.33 1.511q.88.542 2.009.542m18.378-9.995v10.942q0 5.212-5.708 5.212-2.235 0-3.655-1.015-1.399-1.016-1.625-2.888h1.896q.226 1.082 1.15 1.67.925.586 2.37.586 3.721 0 3.722-3.633v-1.353q-1.242 2.12-3.948 2.12-1.602 0-2.866-.699-1.24-.7-1.963-2.03-.699-1.331-.699-3.159 0-1.736.7-3.068a5.3 5.3 0 0 1 1.985-2.076q1.263-.744 2.843-.744 1.399 0 2.391.564.992.541 1.557 1.556l.248-1.985zm-5.618 9.995q1.105 0 1.963-.52a3.6 3.6 0 0 0 1.354-1.488q.473-.97.473-2.189 0-1.24-.473-2.21a3.55 3.55 0 0 0-1.354-1.535q-.858-.54-1.963-.541-1.715 0-2.775 1.195-1.038 1.174-1.038 3.046 0 1.873 1.038 3.068 1.06 1.174 2.775 1.174m7.361-4.242q0-1.76.677-3.09.7-1.332 1.94-2.054 1.24-.744 2.843-.744 1.578 0 2.797.654a4.75 4.75 0 0 1 1.918 1.895q.699 1.24.744 2.91 0 .25-.045.79h-8.934v.158q.045 1.692 1.038 2.707.993 1.016 2.594 1.016 1.242 0 2.099-.61.879-.63 1.173-1.737h1.872q-.338 1.76-1.692 2.888-1.354 1.105-3.316 1.105-1.715 0-3-.721a5.23 5.23 0 0 1-2.009-2.076q-.7-1.354-.7-3.09m9.002-1.173q-.136-1.466-1.106-2.279-.947-.812-2.414-.812-1.309 0-2.301.857t-1.128 2.234zm4.293-2.888h-2.075V4.445h2.075V1.219h1.85v3.226h2.91v1.692h-2.91v6.791q0 .721.271 1.038.293.293.993.293h2.008v1.692H50.57q-1.625 0-2.324-.722-.677-.721-.677-2.278zM59.277 4.31q2.099 0 3.384 1.263 1.287 1.263 1.286 3.97v6.408h-1.85V9.656q0-1.782-.812-2.707-.812-.947-2.324-.947-1.601 0-2.55 1.128-.924 1.128-.924 3.068v5.753h-1.85V.158h1.85V6.34a4.5 4.5 0 0 1 1.489-1.466q.948-.565 2.301-.565m6.251 5.888q0-1.76.677-3.09.7-1.332 1.94-2.054 1.242-.744 2.843-.744 1.58 0 2.798.654a4.75 4.75 0 0 1 1.918 1.895q.699 1.24.744 2.91 0 .25-.045.79h-8.934v.158q.045 1.692 1.037 2.707.993 1.016 2.595 1.016 1.241 0 2.098-.61.88-.63 1.173-1.737h1.873q-.339 1.76-1.692 2.888-1.354 1.105-3.317 1.105-1.715 0-3-.721a5.23 5.23 0 0 1-2.008-2.076q-.7-1.354-.7-3.09m9.002-1.173q-.136-1.466-1.105-2.279-.948-.812-2.414-.812-1.31 0-2.301.857-.993.857-1.129 2.234zm9.501-4.58V6.25h-.925q-1.647 0-2.369 1.106-.699 1.105-.699 2.73v5.866h-1.85V4.445h1.602l.248 1.738q.496-.79 1.286-1.264t2.189-.474zm18.844 9.813v1.692h-1.016q-1.105 0-1.579-.451t-.496-1.331q-1.332 1.918-3.858 1.918-1.918 0-3.091-.903-1.15-.901-1.15-2.46 0-1.736 1.172-2.661 1.196-.925 3.452-.925h3.385v-.79q0-1.128-.767-1.76-.745-.63-2.099-.631-1.196 0-1.985.541a2.16 2.16 0 0 0-.948 1.399h-1.85q.204-1.692 1.49-2.64 1.308-.947 3.383-.947 2.211 0 3.407 1.083 1.219 1.06 1.219 3.068v4.963q0 .835.767.835zm-3.181-3.565h-3.565q-2.572 0-2.572 1.918 0 .857.677 1.376.676.52 1.827.52 1.692 0 2.662-.88.97-.903.97-2.37zM104.851 0q.52 0 .857.338.339.339.339.858t-.339.857a1.16 1.16 0 0 1-.857.338 1.16 1.16 0 0 1-.857-.338 1.16 1.16 0 0 1-.339-.857q0-.519.339-.858a1.16 1.16 0 0 1 .857-.338m-.925 4.445h1.85V15.95h-1.85z"/><path fill="#ccc" d="M88.067 14.2c0 .967-.794 1.751-1.773 1.751-.98 0-1.773-.784-1.773-1.752 0-.967.793-1.752 1.773-1.752s1.773.785 1.773 1.752"/></g><defs><clipPath id="a"><path fill="#fff" d="M0 0h107v21H0z"/></clipPath></defs></svg>