<svg xmlns="http://www.w3.org/2000/svg" width="105" height="28" fill="none" viewBox="0 0 105 28"><g clip-path="url(#a)"><path fill="#fff" fill-opacity=".9" d="M44.12 21a.46.46 0 0 1-.34-.14.46.46 0 0 1-.14-.34V9.46h-3.7a.46.46 0 0 1-.34-.14.46.46 0 0 1-.14-.34V7.5q0-.22.14-.36a.46.46 0 0 1 .34-.14h10.2q.22 0 .36.14t.14.36v1.48a.46.46 0 0 1-.14.34.5.5 0 0 1-.36.14h-3.68v11.06a.46.46 0 0 1-.14.34.5.5 0 0 1-.36.14zm7.461 0a.46.46 0 0 1-.34-.14.46.46 0 0 1-.14-.34V11.1q0-.22.14-.36a.46.46 0 0 1 .34-.14h1.62q.2 0 .34.14.16.14.16.36v.82q.46-.64 1.18-.98.74-.34 1.7-.34h.82q.22 0 .34.14.14.14.14.34v1.44a.46.46 0 0 1-.14.34.42.42 0 0 1-.34.14h-1.56q-.96 0-1.5.54-.52.54-.52 1.48v5.5a.46.46 0 0 1-.14.34.5.5 0 0 1-.36.14zm10.724.2q-1.04 0-1.88-.4a3.66 3.66 0 0 1-1.34-1.1 2.7 2.7 0 0 1-.48-1.56q0-1.4 1.12-2.22 1.14-.84 3-1.12l2.74-.4v-.42q0-.84-.42-1.3t-1.44-.46q-.72 0-1.18.3-.44.28-.66.76a.51.51 0 0 1-.46.26h-1.58q-.22 0-.34-.12a.48.48 0 0 1-.1-.32q.02-.32.26-.78t.76-.88q.52-.44 1.34-.74.819-.3 1.98-.3 1.26 0 2.12.32.88.3 1.4.82t.76 1.22.24 1.48v6.28a.46.46 0 0 1-.14.34.46.46 0 0 1-.34.14h-1.62a.5.5 0 0 1-.36-.14.5.5 0 0 1-.12-.34v-.78a3.2 3.2 0 0 1-.7.72 4 4 0 0 1-1.08.54q-.62.2-1.48.2m.68-1.9q.7 0 1.26-.3.579-.3.9-.92.34-.64.34-1.6v-.42l-2 .32q-1.18.18-1.76.58t-.58.98q0 .44.26.76.28.3.7.46.42.14.88.14M71.19 21a.46.46 0 0 1-.34-.14.46.46 0 0 1-.14-.34v-9.44q0-.2.14-.34a.46.46 0 0 1 .34-.14h1.64q.2 0 .34.14t.14.34v.82q.519-.64 1.32-1.06.82-.44 2.02-.44 1.22 0 2.12.56.9.54 1.38 1.54.5 1 .5 2.4v5.62a.46.46 0 0 1-.14.34.46.46 0 0 1-.34.14h-1.76a.46.46 0 0 1-.34-.14.46.46 0 0 1-.14-.34v-5.5q0-1.16-.58-1.82-.56-.66-1.64-.66-1.04 0-1.66.66t-.62 1.82v5.5a.46.46 0 0 1-.14.34.46.46 0 0 1-.34.14zm16.5.2q-1.44 0-2.54-.54a4.1 4.1 0 0 1-1.7-1.56q-.6-1.04-.66-2.5-.02-.3-.02-.78 0-.5.02-.82.06-1.46.66-2.48.62-1.04 1.7-1.58 1.1-.54 2.54-.54 1.28 0 2.18.36t1.48.9.86 1.14q.3.58.32 1.06a.4.4 0 0 1-.14.36.5.5 0 0 1-.34.12h-1.76a.48.48 0 0 1-.32-.1 1.2 1.2 0 0 1-.2-.3q-.3-.8-.8-1.12-.48-.34-1.24-.34-1 0-1.6.64-.58.62-.62 1.98-.04.76 0 1.4.04 1.38.62 2 .6.62 1.6.62.78 0 1.26-.32.48-.34.78-1.14.1-.2.2-.3.12-.1.32-.1h1.76q.2 0 .34.14.16.12.14.34-.02.36-.2.82-.16.44-.54.92-.36.46-.92.86-.56.38-1.36.62-.78.24-1.82.24m8.474 3.6q-.16 0-.28-.12a.38.38 0 0 1-.12-.28v-.16a1 1 0 0 1 .08-.16l1.56-3.7-3.84-9.06a1 1 0 0 1-.08-.28q.02-.18.14-.3a.38.38 0 0 1 .3-.14h1.62q.24 0 .36.12t.18.26l2.66 6.54 2.74-6.54q.06-.16.18-.26.12-.12.36-.12h1.6q.16 0 .28.12a.36.36 0 0 1 .14.28.9.9 0 0 1-.08.32l-5.66 13.1a.8.8 0 0 1-.2.26q-.12.12-.36.12z"/><path fill="#fff" d="M30.8 2.37a1.26 1.26 0 0 0-1.277-1.268c-5.777.109-10.47 1.167-13.917 2.41-3.023 1.089-5.212 2.48-6.548 3.678-1.053.943-1.378 2.374-1.36 3.788l.057 4.574-.084 8.528c1.167-3.967 5.37-6.64 14.88-7.938 1.86-.253 4.552-.525 6.959-.594a1.32 1.32 0 0 0 1.29-1.307z"/><path fill="#ddd" d="M7.67 24.08c0 5.306 12.93 5.285 14.815-.425.048-.145.067-.299.067-.451v-7.061c-9.51 1.296-13.714 3.97-14.881 7.937"/><path fill="#ccc" d="M7.698 10.978c-.018-1.414.307-2.845 1.36-3.788 1.336-1.198 3.525-2.59 6.548-3.679C9.08.888 3.204.118.978.013.34-.017.029.369.025 1.008.011 3.312-.02 9.24.019 12.688c.006.467.386.845.848.907 2.386.319 6.888 1.67 6.888 1.957z"/></g><defs><clipPath id="a"><path fill="#fff" d="M0 0h105v28H0z"/></clipPath></defs></svg>