<svg xmlns="http://www.w3.org/2000/svg" width="272" height="40" fill="none" viewBox="0 0 272 40"><path fill="#fff" d="M11.635 37.562V7.974H0V2.457h29.789v5.517H18.154v29.588zm21.808 0v-26.78h5.968v7.372l-.702-2.156q1.203-2.708 3.761-4.113 2.608-1.404 6.47-1.404v5.968a3 3 0 0 0-.753-.1 5 5 0 0 0-.702-.05q-3.561 0-5.667 2.106-2.106 2.056-2.106 6.168v12.989zm33.157.351q-4.464 0-7.824-1.755-3.31-1.806-5.165-4.915-1.806-3.11-1.805-7.07 0-4.014 1.755-7.072a12.96 12.96 0 0 1 4.914-4.864q3.16-1.755 7.172-1.756 3.912 0 6.97 1.705 3.06 1.706 4.815 4.815 1.755 3.108 1.755 7.322 0 .4-.05.902 0 .502-.05.953H56.77v-4.162h19.007L73.32 23.32q.05-2.307-.953-4.063a7.3 7.3 0 0 0-2.758-2.758q-1.706-1.002-3.962-1.003-2.307 0-4.062 1.003-1.706 1.003-2.708 2.809-.953 1.755-.953 4.162v1.003q0 2.407 1.103 4.263t3.11 2.858 4.613 1.003q2.257 0 4.062-.702t3.21-2.206l3.36 3.861q-1.806 2.105-4.564 3.26-2.708 1.103-6.218 1.103m33.804-27.432q3.21 0 5.717 1.254 2.558 1.254 4.012 3.862 1.455 2.557 1.455 6.62v15.345h-6.269V23.019q0-3.561-1.705-5.316-1.655-1.755-4.664-1.755-2.207 0-3.912.902-1.704.903-2.658 2.708-.902 1.755-.902 4.464v13.54h-6.269v-26.78h5.968v7.222l-1.053-2.207q1.404-2.558 4.062-3.912 2.708-1.404 6.218-1.404m30.518 27.432q-3.862 0-6.97-1.705a12.8 12.8 0 0 1-4.815-4.814q-1.755-3.06-1.755-7.222t1.755-7.221a12.44 12.44 0 0 1 4.815-4.765q3.108-1.704 6.97-1.705 3.36 0 6.018 1.505 2.658 1.454 4.213 4.463t1.555 7.723q0 4.665-1.505 7.723-1.504 3.008-4.162 4.514-2.658 1.504-6.119 1.504m.753-5.366q2.256 0 4.012-1.003 1.805-1.003 2.858-2.909 1.103-1.905 1.103-4.463 0-2.607-1.103-4.463-1.053-1.905-2.858-2.909-1.756-1.003-4.012-1.003-2.257 0-4.062 1.003-1.756 1.003-2.859 2.909-1.053 1.856-1.053 4.463 0 2.558 1.053 4.463 1.103 1.905 2.859 2.91 1.804 1.002 4.062 1.002m8.124 5.015v-6.319l.251-7.121-.502-7.121V.35h6.219v37.211zm15.071 0V9.278q0-4.214 2.458-6.72Q159.835 0 164.449 0q1.654 0 3.109.351 1.505.351 2.508 1.103l-1.706 4.714a4.5 4.5 0 0 0-1.604-.802q-.903-.3-1.856-.3-1.956 0-2.959 1.102-1.002 1.053-1.003 3.21v3.009l.201 2.808v22.367zm-4.413-21.564v-5.015h17.853v5.015zm33.407 21.915q-3.411 0-6.018-1.254-2.608-1.304-4.062-3.911-1.455-2.658-1.455-6.67V10.782h6.269v14.443q0 3.611 1.605 5.416 1.655 1.755 4.664 1.756 2.206 0 3.811-.903 1.655-.903 2.558-2.708.952-1.806.952-4.463v-13.54h6.269v26.779h-5.968v-7.221l1.053 2.206q-1.353 2.608-3.961 4.012-2.609 1.354-5.717 1.354m22.801-.351V.351h6.269v37.211zM230.035 40c0-7.154 5.799-12.953 12.953-12.953h15.206c0 7.154-5.799 12.953-12.953 12.953zm0-16.614c0-7.154 5.799-12.953 12.953-12.953h26.47c0 7.154-5.8 12.953-12.954 12.953z"/></svg>