<svg xmlns="http://www.w3.org/2000/svg" width="232" height="40" fill="none" viewBox="0 0 232 40"><path fill="#fff" d="M60.007 5.005H41.675h.725v4.998h6.172v21.505h5.225V10.003h6.21zm4.998 10.829v-3.256H60.12v18.93h4.885v-9.049c0-3.975 3.218-5.111 5.755-4.808v-5.452c-2.385 0-4.77 1.06-5.755 3.635m10.981-5.528c1.666 0 3.03-1.363 3.03-2.991s-1.364-3.029-3.03-3.029c-1.629 0-2.992 1.401-2.992 3.029s1.364 2.99 2.992 2.99m-2.424 21.202h4.885v-18.93h-4.885zM97 12.577v2.348c-1.324-1.78-3.369-2.878-6.058-2.878-5.376 0-9.428 4.392-9.428 9.693 0 5.338 4.052 9.692 9.429 9.692 2.688 0 4.733-1.098 6.058-2.878V30.6c0 2.99-1.893 4.657-4.96 4.657-2.916 0-4.165-1.174-4.96-2.65l-4.166 2.385c1.666 3.066 4.923 4.618 8.974 4.618 4.998 0 9.883-2.801 9.883-9.01V12.577zm-5.3 14.35c-3.067 0-5.301-2.159-5.301-5.187 0-2.991 2.234-5.15 5.301-5.15s5.3 2.16 5.3 5.15c0 3.028-2.233 5.186-5.3 5.186m28.588-14.349v2.348c-1.325-1.78-3.37-2.878-6.058-2.878-5.377 0-9.429 4.392-9.429 9.693 0 5.338 4.052 9.692 9.429 9.692 2.688 0 4.733-1.098 6.058-2.878V30.6c0 2.99-1.893 4.657-4.96 4.657-2.916 0-4.166-1.174-4.961-2.65l-4.165 2.385c1.666 3.066 4.923 4.618 8.974 4.618 4.998 0 9.883-2.801 9.883-9.01V12.577zm-5.301 14.35c-3.067 0-5.301-2.159-5.301-5.187 0-2.991 2.234-5.15 5.301-5.15s5.301 2.159 5.301 5.15c0 3.028-2.234 5.186-5.301 5.186M133.2 24.05h14.275c.114-.645.189-1.288.189-2.008 0-5.565-3.976-9.995-9.579-9.995-5.945 0-9.997 4.354-9.997 9.996 0 5.64 4.014 9.995 10.375 9.995 3.635 0 6.475-1.477 8.255-4.051l-3.938-2.272c-.833 1.098-2.348 1.893-4.241 1.893-2.575 0-4.657-1.06-5.339-3.559m-.076-3.787c.568-2.423 2.348-3.824 4.961-3.824 2.044 0 4.089 1.098 4.695 3.824zm22.322-4.428v-3.256h-4.885v18.93h4.885v-9.049c0-3.975 3.218-5.111 5.755-4.808v-5.452c-2.385 0-4.771 1.06-5.755 3.635M163.057 32a3.216 3.216 0 0 0 3.218-3.218 3.216 3.216 0 0 0-3.218-3.218 3.216 3.216 0 0 0-3.219 3.218A3.216 3.216 0 0 0 163.057 32m20.522-26.995v9.806c-1.363-1.741-3.37-2.764-6.134-2.764-5.074 0-9.239 4.354-9.239 9.996 0 5.64 4.165 9.995 9.239 9.995 2.764 0 4.771-1.023 6.134-2.764v2.234h4.884V5.005zm-5.225 22.376c-3.029 0-5.264-2.158-5.264-5.338s2.235-5.339 5.264-5.339c2.991 0 5.225 2.158 5.225 5.339 0 3.18-2.234 5.338-5.225 5.338m17.948-3.331h14.274c.114-.645.19-1.288.19-2.008 0-5.565-3.976-9.995-9.58-9.995-5.945 0-9.996 4.354-9.996 9.996 0 5.64 4.013 9.995 10.375 9.995 3.635 0 6.474-1.477 8.254-4.051l-3.938-2.272c-.833 1.098-2.347 1.893-4.241 1.893-2.574 0-4.657-1.06-5.338-3.559m-.076-3.787c.568-2.423 2.347-3.824 4.96-3.824 2.045 0 4.089 1.098 4.695 3.824zm29.269-7.685-4.619 13.251-4.582-13.25h-5.377l7.194 18.93h5.567l7.194-18.93z"/><path fill="#fff" fill-rule="evenodd" d="M10.974 13.045 18.28.39l18.11 31.362H.172l7.307-12.655 5.169 2.984-2.138 3.703h15.54l-7.77-13.457-2.138 3.702z" clip-rule="evenodd"/></svg>