<svg xmlns="http://www.w3.org/2000/svg" width="134" height="40" fill="none" viewBox="0 0 134 40"><path fill="#fff" d="M16.876 38.91a.02.02 0 0 1-.022-.021s.01-28.38.022-28.38c0 0 12.354-3.35 12.354-3.339l-.01 8.258c0 .013-5.505 1.688-5.505 1.7v18.45c.002.011-6.839 3.333-6.839 3.333M7.06 35.578v-18.45c0-.012-5.504-1.687-5.504-1.7l-.008-8.44c0-.013 12.354 3.52 12.354 3.52.013 0 .022 28.38.022 28.38q-.002.022-.022.023S7.06 35.589 7.06 35.578M3.036 5.42l12.13-3.233 12.596 3.232-12.564 3.282zm34.448 29.83V21.455h-3.485v-1.373h8.466v1.373h-3.464V35.25zm22.65-15.168h1.517v9.614c0 3.832-2.235 5.822-5.165 5.822-2.89 0-5.165-1.928-5.165-5.862v-9.572h1.518v9.654c0 3.054 1.64 4.407 3.649 4.407 1.742 0 3.65-1.087 3.65-4.387v-9.676zM79.978 35.25l-5.145-6.866h1.475c2.685 0 4.285-1.373 4.285-3.445 0-1.435-.882-3.484-4.367-3.484h-2.89V35.25H71.82V20.082h4.572c3.957 0 5.72 2.337 5.72 4.9 0 2.46-1.846 4.406-4.51 4.611l4.284 5.657zm19.616 0-5.145-6.866h1.475c2.685 0 4.285-1.373 4.285-3.445 0-1.435-.883-3.484-4.367-3.484h-2.888V35.25h-1.517V20.082h4.571c3.957 0 5.72 2.337 5.72 4.9 0 2.46-1.845 4.406-4.51 4.611l4.285 5.657zm11.583 0V20.082h1.517V35.25zm18.06-11.313c0-1.558-1.27-2.748-2.685-2.748-1.557 0-2.747 1.168-2.747 2.645 0 1.292.78 2.09 2.932 2.645 3.279.84 4.387 2.542 4.387 4.592 0 2.48-2.03 4.447-4.572 4.447-2.685 0-4.632-1.805-4.674-4.51h1.517c.102 1.948 1.332 3.137 3.157 3.137 1.722 0 3.055-1.352 3.055-3.012 0-1.64-1.088-2.562-3.075-3.137-2.173-.615-4.242-1.332-4.242-4.1 0-2.397 1.927-4.08 4.264-4.08 2.357 0 4.202 1.784 4.202 4.12z"/></svg>