<svg xmlns="http://www.w3.org/2000/svg" width="203" height="31" fill="none" viewBox="0 0 203 31"><path fill="#fff" d="M32.483.1c-.016.056-.056.186-.088.288-.68 2.23-1.438 4.887-3.284 11.514-2.22 7.968-3.23 11.445-4.247 14.625-.316.987-.833 2.519-.895 2.65a.6.6 0 0 1-.092.115q-.175.172-.57.241c-.255.045-.351.05-1.094.053-.395.002-.733.006-.752.01-.03.005-.033.009-.029.034.004.015.017.141.031.281l.032.292.007.04h3.535a823 823 0 0 0 3.536-.004c.01-.047.07-.635.065-.639a64 64 0 0 0-1.678.002c-.751.004-.82 0-1.042-.058-.174-.047-.234-.088-.326-.228a1.25 1.25 0 0 1-.24-.792c.002-.288.026-.435.197-1.18.576-2.501 1.168-4.7 1.737-6.463l.097-.3.215.002 3.72.035 3.507.034c.002 0 .583 2.008 1.292 4.462l1.295 4.473c.004.01-.338.014-1.692.014h-1.697v.641h10.052V29.6h-2.676l-.095-.334L32.931.018C32.926.002 32.906 0 32.72 0h-.206zm.46 13.533c.963 3.51 1.755 6.397 1.758 6.415l.008.03h-7.141l.006-.026 3.571-12.828.017-.057.013.042zM191.17.01c-.06.006-.159.017-.223.026-.062.009-.19.023-.284.033a6 6 0 0 0-1.251.247c-2.108.615-4.062 2.098-5.853 4.441-.212.278-.377.506-.545.76-1.461 2.197-2.293 4.943-2.496 8.223-.061 1-.065 2.22-.01 3.234q.244 4.507 2.06 7.481c.105.173.36.563.507.777 1.228 1.789 2.525 3.131 3.925 4.063.459.305.639.405 1.104.611a9 9 0 0 0 1.597.56c.73.189 1.219.253 1.927.253.454 0 .69-.016 1.098-.074.432-.06.675-.116.998-.227.099-.036.281-.098.403-.14.122-.04.295-.1.383-.134 1.968-.732 3.808-2.27 5.499-4.595q1.441-1.983 2.138-4.642c.366-1.395.577-2.932.636-4.642.014-.388.014-1.41 0-1.781-.121-3.34-.883-6.167-2.309-8.563-.895-1.503-2.193-2.997-3.457-3.975a10 10 0 0 0-1.602-1.024 8.3 8.3 0 0 0-3.211-.9A14 14 0 0 0 191.17.01m.92.544c.415.043.804.12 1.127.225.456.147.932.4 1.362.724.979.736 1.886 2.06 2.715 3.957.608 1.392 1.004 3.224 1.217 5.635.205 2.308.219 5.515.036 7.96-.194 2.61-.603 4.62-1.242 6.121-.098.23-.342.72-.509 1.025-.703 1.274-1.431 2.207-2.216 2.836-.719.576-1.526.898-2.51 1a9 9 0 0 1-1.052-.004 5 5 0 0 1-1.502-.419c-1.149-.516-2.198-1.646-3.19-3.434a9.3 9.3 0 0 1-.742-1.671c-.583-1.721-.93-4.054-1.043-7.007a50 50 0 0 1-.035-2.225c0-1.636.039-2.78.139-4.047.23-2.924.729-5.076 1.527-6.588q1.36-2.575 2.95-3.49c.308-.178.572-.284.987-.401a5.6 5.6 0 0 1 1.113-.212 8 8 0 0 1 .868.015M0 .459c0 .013.013.156.031.318l.031.307c0 .01.289.013 1.406.013 1.331 0 1.408.001 1.415.018.004.01 1.978 6.664 4.387 14.788l4.38 14.769h.369l.034-.109 1.933-6.287c2.389-7.777 3.922-12.574 5.443-17.03.74-2.167 1.695-4.849 1.794-5.031.18-.338.553-.604 1.11-.793.472-.16 1.109-.267 1.793-.305.117-.006.223-.014.236-.016l.023-.004V.435h-3.847c-3.657 0-3.847 0-3.846.017.002.07.089.843.096.85.004.003.332.01.728.014.76.007.874.013 1.127.062.303.059.508.17.726.4.312.323.47.755.452 1.218a2 2 0 0 1-.023.238c-.044.256-.668 2.436-1.282 4.487-.666 2.222-1.22 4.02-2.792 9.056a662 662 0 0 0-2.258 7.31c-.005.014-1.054-3.765-3.186-11.472L7.1 1.112c0-.007.563-.012 1.667-.014 1.58-.002 1.667-.003 1.667-.02l-.03-.312a11 11 0 0 1-.032-.314c0-.017-.173-.018-5.186-.018H0zM45.678.87v.434h3.505v28.359h-3.547v.58h20.91v-.185l.032-4.792c.02-2.535.031-4.61.03-4.612a8 8 0 0 0-.49.067c-.002.003-.009.307-.015.677-.013.69-.02.927-.048 1.377-.174 2.797-.814 4.477-2.104 5.517-.913.737-2.21 1.16-3.96 1.293-.477.035-.681.041-1.397.036a146 146 0 0 0-3.61.015c-.406.009-1.073.02-1.48.024l-.742.006V1.304h3.547V.435H45.678zM92.141.804v.37l.567-.007c.311-.003 1.097-.014 1.747-.024.649-.01 1.184-.015 1.188-.01.02.019-.048 13.925-.1 20.323-.039 4.997-.046 5.495-.082 6.07-.067 1.059-.246 1.532-.672 1.78-.306.178-.736.253-1.645.285-.248.008-1.082.031-1.159.031-.019 0-.02.014-.02.31v.311h7.757v-.755h-.087c-.121 0-.388.016-.855.051-.78.06-.977.067-1.225.052-.5-.03-.8-.144-1.04-.39-.285-.292-.435-.741-.486-1.457-.01-.123-.01-.899-.006-2.986a3823 3823 0 0 1 .149-21.929l.008-.436 8.433 14.16a6275 6275 0 0 0 8.447 14.163c.011.005.36-.017.563-.035l.07-.006v-1.828c0-1.005-.006-2.74-.011-3.857-.044-8.866-.044-14.511 0-17.894.024-1.789.066-3.64.093-4.094.073-1.172.359-1.638 1.107-1.798.27-.06.487-.072 1.375-.085a45 45 0 0 0 .794-.017l.054-.005V.792c0-.168-.001-.306-.002-.306a4342 4342 0 0 0-7.326-.047l-.029.328c-.015.179-.03.353-.034.387l-.006.06.309-.006a37 37 0 0 1 1.706-.008c.715.046 1.037.16 1.161.419.101.209.174.517.214.912.03.285.038 1.978.032 6.267-.003 2.194-.01 5.177-.017 6.63-.006 1.45-.011 3.724-.013 5.052-.001 1.328-.005 2.41-.008 2.406s-3.023-5.037-6.71-11.186C102.697 5.553 99.672.513 99.666.502c-.015-.02-.073-.02-2.884-.036L93.028.442l-.887-.006zm26.474-.232c0 .076-.009 2.035-.022 4.353a855 855 0 0 0-.015 4.222 2 2 0 0 0 .246-.027l.247-.032a.3.3 0 0 0 .012-.08l.034-.401c.013-.177.051-.682.082-1.123.086-1.196.126-1.649.186-2.098.154-1.13.409-1.859.866-2.472.345-.461.776-.774 1.43-1.038.879-.353 2.028-.547 3.702-.625.319-.014 2.098-.02 2.111-.005.007.006-.034 19.647-.055 26.277l-.006 2.099h-3.596v.642h10.807v-.642h-.038c-.207-.002-3.48-.071-3.482-.073-.003-.004.061-27.046.066-28.289v-.09h.174a29 29 0 0 1 1.398.052c2.092.138 3.858.517 4.85 1.042.485.257.787.523 1.057.93q.32.48.498 1.192c.174.692.249 1.316.4 3.325.033.453.073.978.089 1.167l.028.344h.578l-.008-.355c-.006-.334-.108-8.212-.108-8.361v-.07h-21.531zm23.64.298v.435h3.082v28.244l-1.646.003-1.648.003-.003.354-.002.355h9.917v-.715h-3.019V1.305h3.164v-.87h-9.845zm11.309-.405a5 5 0 0 0-.006.357v.351l1.363-.006c.749-.004 1.538-.01 1.753-.014l.39-.006v.76a4268 4268 0 0 1-.134 23.487c-.013 1.578-.025 2.005-.069 2.458-.094.983-.334 1.39-.934 1.579-.33.103-.752.145-1.712.17l-.623.017-.209.006v.619h7.756v-.755h-.087c-.121 0-.388.016-.854.051-.78.06-.978.067-1.226.052-.407-.025-.694-.11-.907-.27-.371-.279-.563-.772-.619-1.593-.014-.202-.008-4.163.011-7.333.039-6.627.088-13.26.125-16.896.006-.606.012-1.102.013-1.103s3.797 6.37 8.435 14.156a7675 7675 0 0 0 8.446 14.164c.012.005.36-.017.564-.035l.07-.006v-1.9a1276 1276 0 0 0-.017-4.82c-.022-4.057-.031-12.498-.015-14.5.021-2.838.06-5.152.104-6.194.055-1.27.298-1.797.927-2.003.306-.1.716-.129 1.827-.129h.586V.51l-.467-.006c-.258-.003-1.706-.014-3.219-.022L171.64.465l-.444-.004-.035.377a8 8 0 0 0-.029.382c.004.002.333-.001.733-.007.974-.017 1.424 0 1.781.066.378.07.565.173.656.36.119.247.194.622.231 1.146.017.264.017 7.73-.001 12.55a2318 2318 0 0 0-.016 5.585c0 1.086-.004 1.97-.007 1.966s-3.023-5.033-6.709-11.175S161.091.535 161.084.525c-.013-.018-.168-.02-3.172-.038-1.737-.01-3.425-.021-3.751-.024a17 17 0 0 0-.597.002M68.997.963v.434h3.061v28.245h-3.06v.02c0 .013.014.141.03.287.018.145.031.271.031.279 0 .012 1.527.014 10.228.014h10.227v-.262l.022-4.15c.012-2.14.02-3.891.018-3.893a21 21 0 0 0-.675-.045c-.003.002-.009.24-.015.53a20 20 0 0 1-.074 1.496c-.141 1.613-.476 2.766-1.018 3.5a4 4 0 0 1-.507.535c-1.065.919-2.705 1.473-5.005 1.689-.435.04-.906.07-1.51.095a91 91 0 0 1-3.102 0 92 92 0 0 0-1.191-.02l-.707-.007c-.002-.006-.07-14.057-.067-14.059.001-.002.574-.02 1.273-.04a45 45 0 0 1 1.498-.03c1.126.03 2.291.427 2.876.98.16.153.295.345.45.645.203.392.324.793.382 1.271.04.334.045.482.043 1.27 0 .552.002.787.012.854l.012.094.365.003.364.002v-.38c0-.21-.014-2.572-.03-5.25l-.032-5.163v-.292h-.525l-.006.064c-.004.036-.01.172-.017.303-.083 1.765-.221 2.679-.5 3.302a1.9 1.9 0 0 1-.623.778c-.541.412-1.433.757-2.243.867-.19.025-.698.057-1.262.078-.32.012-2.03.046-2.037.04-.005-.006.065-13.568.07-13.574.005-.005 5.975.07 6.062.075l.243.015c1.407.083 2.592.432 3.414 1.01.35.246.62.51.888.868q.406.542.64 1.008c.357.708.51 1.361.721 3.07l.05.396c.003.004.472.068.476.064.003-.003-.496-7.43-.5-7.45h-18.75z"/></svg>