<svg xmlns="http://www.w3.org/2000/svg" width="141" height="40" fill="none" viewBox="0 0 141 40"><g fill="#fff" clip-path="url(#a)"><path d="M63.373 1.9c1 .869 1.594 1.909 2.162 3.084q.276.562.559 1.119.715 1.42 1.398 2.854c.451.949.913 1.893 1.374 2.836a668 668 0 0 1 1.639 3.373q.77 1.6 1.55 3.195a1950 1950 0 0 1 2.913 5.999l.476.982a300 300 0 0 0 1.256 2.573q.091.188.184.373c1.097 2.213 1.472 4.31.741 6.701-.683 1.959-2.06 3.43-3.89 4.376l-.178.093c-.92.455-1.868.585-2.882.58l-.335.001q-.454.003-.909.001l-.984.002-1.926.003h-1.566l-.453.001h-.227q-2.127.003-4.255.002-1.94 0-3.883.004-1.998.005-3.996.004-1.12 0-2.24.003-.953.003-1.907 0-.486 0-.971.002c-2.554.012-4.485-.47-6.388-2.264-1.466-1.563-2.15-3.622-2.087-5.74.084-1.633.807-3.065 1.534-4.494q.307-.603.61-1.208l.12-.239q.438-.867.85-1.745c.498-1.055 1.023-2.096 1.546-3.138.486-.968.965-1.938 1.428-2.917.441-.93.906-1.85 1.368-2.77.43-.856.856-1.712 1.264-2.577.481-1.017.986-2.022 1.491-3.028.44-.875.875-1.752 1.294-2.637q.557-1.173 1.129-2.34l.147-.305c.977-1.975 2.472-3.456 4.555-4.2 2.617-.877 5.36-.257 7.489 1.441m-51.049-.288c1.829 1.419 2.645 3.484 3.61 5.522.408.86.827 1.714 1.245 2.57q.955 1.95 1.897 3.906l.15.31.127.266q.202.415.41.826a96 96 0 0 0 1.746-3.432l.617-1.271.125-.257q.626-1.281 1.27-2.555.54-1.07 1.05-2.155c1.047-2.236 2.432-3.947 4.788-4.867 1.98-.667 4.1-.519 5.985.38 1.88 1.024 3.318 2.619 3.933 4.694.678 2.577-.09 4.782-1.26 7.079l-.61 1.208-.12.238q-.436.868-.85 1.746c-.498 1.055-1.022 2.096-1.546 3.138-.485.968-.965 1.937-1.427 2.916-.441.931-.906 1.85-1.369 2.771-.429.855-.855 1.711-1.264 2.576-.48 1.018-.985 2.023-1.49 3.029-.44.875-.875 1.751-1.295 2.636q-.556 1.174-1.128 2.34l-.147.305c-1.033 2.09-2.588 3.509-4.776 4.27-1.558.488-3.79.42-5.273-.276l-.33-.152a8.5 8.5 0 0 1-1.855-1.273l-.183-.162c-.818-.773-1.306-1.732-1.79-2.732q-.274-.56-.558-1.118-.715-1.42-1.398-2.855c-.451-.948-.913-1.892-1.374-2.836a674 674 0 0 1-1.639-3.373 742 742 0 0 0-1.55-3.195 1914 1914 0 0 1-2.913-5.998l-.476-.982A297 297 0 0 0 1.4 12.275l-.184-.373c-1.09-2.197-1.5-4.34-.731-6.714.698-1.93 2.03-3.467 3.877-4.367 2.642-1.219 5.605-.914 7.962.79M95.195.047h.993q.837 0 1.672.003.848.004 1.694.002c11.555-.019 11.555-.019 15.559 3.79l.231.243.185.186c2.318 2.431 3.137 5.691 3.072 8.962-.11 3.264-1.57 6.192-3.922 8.43l-.186.184c-2.359 2.25-5.233 2.792-8.365 3.046l-.224.024c-.977.098-1.954.081-2.935.077l-.547-.002q-.665 0-1.329-.004l.002.308q.008 1.447.012 2.893l.007 1.487a345 345 0 0 1 .009 1.984c.02 2.42-.579 4.534-2.277 6.322-.607.576-1.283 1-2.023 1.382l-.178.094c-1 .494-2.02.595-3.124.59l-.38-.002c-2.056-.037-3.7-.843-5.19-2.25-1.917-2.044-2.104-4.372-2.097-7.021l-.002-.778v-4.083l.002-4.162v-3.564l-.002-4.149V9.981q.003-.475 0-.95c-.005-2.623.424-4.864 2.285-6.824.596-.565 1.265-.992 1.988-1.376l.164-.091c1.516-.765 3.256-.702 4.906-.693m43.221 1.872c.808.69 1.367 1.507 1.851 2.445l.094.179c.458.926.584 1.88.579 2.903l.002.342.001.929.002 1.005.002 1.966.001 1.6.001.462v.233q.003 2.172.001 4.345 0 1.983.005 3.966.004 2.04.004 4.081 0 1.144.003 2.288.003.973 0 1.948-.002.495.001.991c.013 2.574-.454 4.514-2.263 6.433-1.758 1.647-3.705 2.044-6.021 2-1.947-.067-3.689-1.028-5.013-2.44-1.737-2.082-1.914-4.23-1.907-6.82l-.002-.778v-1.884l.001-1.532-.001-.222v-.445q-.001-2.08.002-4.162v-3.564q-.003-2.074-.002-4.149l.001-.443v-.22l-.001-1.53q-.002-.932.001-1.865v-.95c-.006-2.622.423-4.863 2.284-6.824 2.953-2.8 7.237-2.726 10.374-.288"/></g><defs><clipPath id="a"><path fill="#fff" d="M0 0h140.903v40H0z"/></clipPath></defs></svg>