<svg xmlns="http://www.w3.org/2000/svg" width="67" height="40" fill="none" viewBox="0 0 67 40"><g fill="#fff" clip-path="url(#a)"><path d="m21.148 15.754-4.443 10.672L5.655.016H0L16.705 40l12.311-29.492a8.48 8.48 0 0 0-7.868 5.246m9.114 19.001 10.115-24.263a8.49 8.49 0 0 0-7.836 5.23L22.426 40h11.115c6.443 0 8.131-5.245 8.131-5.245z"/><path d="m56.279 15.148 10.114-9.886h-1.737c-3.689 0-7.23 1.443-9.87 4.017l-4.163 4.065L56.197 0h-22.59c-6.443 0-8.132 5.246-8.132 5.246h22.853L38.164 29.492c2.426 0 4.508-.984 6.246-2.754l7.787-7.623 8.787 20.869h5.655z"/></g><defs><clipPath id="a"><path fill="#fff" d="M0 0h66.639v40H0z"/></clipPath></defs></svg>