<svg xmlns="http://www.w3.org/2000/svg" width="138" height="40" fill="none" viewBox="0 0 138 40"><g fill="#fff" clip-path="url(#a)"><path d="M69.75 10.2h3.366c.5 0 .733.3.567.8l-8.067 21.767c-.133.4-.433.566-.833.566h-4.134c-.4 0-.7-.166-.833-.566L51.75 11c-.166-.5.067-.8.567-.8h3.367c.4 0 .666.167.8.6l6.233 17.9 6.233-17.9c.134-.433.4-.6.8-.6m10.144 23.134H76.96c-.434 0-.7-.267-.7-.734V10.9c0-.466.266-.7.7-.7h2.933c.433 0 .7.234.7.7v21.7c0 .467-.267.733-.7.733m17.203-16.467h3c.533 0 .766.3.533.834L90.462 39.466c-.166.334-.433.533-.833.533h-2.967c-.567 0-.767-.366-.533-.866l3.8-7.567L83.162 17.7c-.233-.534 0-.834.533-.834h3.067c.4 0 .7.134.834.534l4.4 9.866 4.266-9.833c.133-.4.433-.567.834-.567m11.97 16.767c-3.9 0-6.733-1.867-7.2-4.6-.1-.5.2-.733.7-.733h2.8c.4 0 .6.166.7.366.4 1.2 1.5 1.9 2.967 1.9 1.633 0 2.733-.8 2.733-1.933 0-1.5-2.033-1.9-4.333-2.366-2.434-.434-5.3-1.467-5.3-4.7 0-2.934 2.766-5.034 6.733-5.034 3.633 0 6.3 1.8 6.733 4.5.1.467-.234.733-.7.733h-2.566c-.4 0-.6-.2-.767-.466-.3-1.134-1.267-1.8-2.667-1.8-1.5 0-2.533.767-2.533 1.866 0 1.534 1.7 1.834 3.967 2.267 2.4.467 5.833 1.334 5.833 4.867 0 3.033-2.967 5.133-7.1 5.133m16.991 0c-3.9 0-6.733-1.867-7.2-4.6-.1-.5.2-.733.7-.733h2.8c.4 0 .6.166.7.366.4 1.2 1.5 1.9 2.967 1.9 1.633 0 2.733-.8 2.733-1.933 0-1.5-2.033-1.9-4.333-2.366-2.433-.434-5.3-1.467-5.3-4.7 0-2.934 2.767-5.034 6.733-5.034 3.634 0 6.299 1.8 6.733 4.5.1.467-.234.733-.7.733h-2.567c-.4 0-.6-.2-.767-.466-.3-1.134-1.266-1.8-2.666-1.8-1.5 0-2.534.767-2.534 1.866 0 1.534 1.7 1.834 3.967 2.267 2.4.467 5.833 1.334 5.833 4.867 0 3.033-2.966 5.133-7.099 5.133M3.23 18.19c0-1.58 0-2.37.243-3.065a4.35 4.35 0 0 1 1.022-1.635c.52-.522 1.23-.868 2.649-1.56l13.402-6.528V6.74c0 2.572 0 3.857-.399 4.985a6.96 6.96 0 0 1-1.683 2.642c-.853.838-2.019 1.382-4.35 2.469L3.23 21.91zm38.9 0c0-1.58 0-2.37-.243-3.065a4.35 4.35 0 0 0-1.023-1.635c-.519-.522-1.229-.868-2.648-1.56L24.813 5.402V6.74c0 2.572 0 3.857.4 4.985.352.997.928 1.9 1.682 2.642.854.838 2.02 1.382 4.35 2.469l10.884 5.075z"/><path d="M20.546 34.29c0-1.58 0-2.37-.242-3.065a4.35 4.35 0 0 0-1.022-1.636c-.52-.522-1.23-.867-2.65-1.559L3.23 21.502v1.338c0 2.571 0 3.857.4 4.985a6.96 6.96 0 0 0 1.683 2.642c.853.838 2.018 1.382 4.35 2.468l10.883 5.076zm4.267 0c0-1.58 0-2.37.242-3.065a4.35 4.35 0 0 1 1.023-1.636c.52-.522 1.229-.867 2.649-1.559l13.402-6.528v1.338c0 2.571 0 3.857-.4 4.985a7 7 0 0 1-1.682 2.642c-.853.838-2.019 1.382-4.35 2.468l-10.884 5.076z"/></g><defs><clipPath id="a"><path fill="#fff" d="M0 0h137.931v40H0z"/></clipPath></defs></svg>