<svg xmlns="http://www.w3.org/2000/svg" width="137" height="40" fill="none" viewBox="0 0 137 40"><mask id="a" width="48" height="40" x="0" y="0" maskUnits="userSpaceOnUse" style="mask-type:luminance"><path fill="#fff" d="M0 .052h47.245v39.849H0z"/></mask><g mask="url(#a)"><path fill="#fff" d="M36.14.1c-8.33 0-11.9 6.205-11.9 12.41l.146.11.147.11c1.171-.732 2.563-1.318 4.375-1.318 3.936 0 6.5 2.71 6.5 8.402 0 4.96-1.904 9.628-3.497 11.165-1.172 1.098-3.716 1.61-6.5 1.61-3.936 0-6.426-1.976-6.426-6.57s2.985-12.044 2.985-16.73c0-4.96-3.278-9.207-9.85-9.207C2.49.101 0 8.43 0 12.071l.146.11.147.11c.732-.44 2.124-.952 3.79-.952 2.636 0 3.863 1.464 3.863 3.643 0 3.715-2.564 9.92-2.564 14.606 0 8.548 6.28 10.287 11.828 10.287 6.133 0 12.705-1.83 15.91-7.01 10.069-4.742 14.097-14.022 14.097-20.812C47.235 6.89 44.617.1 36.14.1"/></g><mask id="b" width="48" height="40" x="89" y="0" maskUnits="userSpaceOnUse" style="mask-type:luminance"><path fill="#fff" d="M89.478.052h47.283v39.849H89.478z"/></mask><g mask="url(#b)"><path fill="#fff" d="m136.615 27.794-.074-.055-.055-.055c-.732.44-2.124.952-3.79.952-2.636 0-3.862-1.464-3.862-3.642 0-3.716 2.563-9.92 2.563-14.607 0-7.175-4.431-9.554-9.136-10.14a22 22 0 0 0-2.691-.165c-6.134 0-12.706 1.83-15.91 7.01-10.07 4.741-14.097 14.021-14.097 20.812 0 5.18 2.636 11.97 11.094 11.97 8.459 0 11.901-6.204 11.901-12.41l-.147-.11-.091-.054-.055-.055c-.879.55-1.868 1.007-3.094 1.208a7 7 0 0 1-1.282.11c-3.936 0-6.499-2.71-6.499-8.402 0-2.416.458-4.74 1.098-6.68.678-2.069 1.593-3.698 2.417-4.485 1.172-1.098 3.717-1.61 6.499-1.61 3.936 0 6.427 1.976 6.427 6.57s-3.04 12.063-3.04 16.73c0 4.96 3.296 9.189 9.85 9.189 9.63 0 12.12-8.329 12.12-11.97z"/></g><mask id="c" width="44" height="40" x="46" y="0" maskUnits="userSpaceOnUse" style="mask-type:luminance"><path fill="#fff" d="M46.847 0h43.028v40H46.847z"/></mask><g mask="url(#c)"><path fill="#fff" d="M77.095.027c-6.207 0-11.168 3.57-13.072 6.864v.019c-9.74 1.208-16.715 9.939-17.081 19.548-.293 8.767 5.62 13.508 12.705 13.508 6.207 0 11.169-3.569 13.072-6.864v-.018c9.74-1.208 16.716-9.939 17.082-19.548C90.094 4.768 84.181.027 77.095.027m-4.23 30.586a12.6 12.6 0 0 1-5.547 1.318c-4.888 0-7.304-2.197-7.304-8.035 0-5.84 1.61-11.221 3.881-14.534a12.6 12.6 0 0 1 5.547-1.318c4.888 0 7.305 2.197 7.305 8.036s-1.61 11.239-3.881 14.533"/></g></svg>