<svg xmlns="http://www.w3.org/2000/svg" width="134" height="40" fill="none" viewBox="0 0 134 40"><g clip-path="url(#a)"><path fill="#ccc" d="M0 8.846v2.759c.262 0 .52-.02.785-.02a24.8 24.8 0 0 1 8.047 1.33V10.03a.69.69 0 0 1 1.036-.596l13.89 8.018a25 25 0 0 0 4.505-7.592L13.249 1.197C7.362-2.203 0 2.047 0 8.847"/><path fill="#fff" d="M8.832 29.97V12.914A24.8 24.8 0 0 0 .789 11.58c-.264 0-.523.012-.784.02v19.549a8.74 8.74 0 0 0 4.085 7.444 24.9 24.9 0 0 1 4.843-8.263.7.7 0 0 1-.101-.36m23.731-17.62L28.25 9.86a25 25 0 0 1-4.504 7.592l3.376 1.95a.69.69 0 0 1 0 1.196l-2.594 1.496-2.465 1.424a24.8 24.8 0 0 1 3.236 8.335l7.264-4.204a8.72 8.72 0 0 0 3.725-4.206 8.83 8.83 0 0 0-3.725-11.093"/><path fill="#ccc" d="M9.863 30.565a.69.69 0 0 1-.93-.23 24.9 24.9 0 0 0-4.843 8.263 8.75 8.75 0 0 0 9.163.206l12.046-6.95a24.8 24.8 0 0 0-3.219-8.335z"/><path fill="#fff" d="m71.004 9.282-7.626 21.526h-6.555L49.197 9.282h5.57l5.327 16.252 5.367-16.252zm5.56 20.342a10.54 10.54 0 0 1-4.013-3.943 11.59 11.59 0 0 1 0-11.36 10.57 10.57 0 0 1 4.013-3.925 11.65 11.65 0 0 1 11.117 0 10.37 10.37 0 0 1 3.981 3.925 11.76 11.76 0 0 1-.014 11.36 10.47 10.47 0 0 1-3.984 3.943 11.63 11.63 0 0 1-11.1 0m9.686-5.086q1.548-1.714 1.548-4.538 0-2.823-1.548-4.552-1.547-1.695-4.117-1.696-2.568 0-4.15 1.695-1.548 1.695-1.545 4.568.002 2.871 1.533 4.523 1.547 1.695 4.15 1.695t4.12-1.712zm23.882-8.448a3.9 3.9 0 0 0-1.668-1.64 5.46 5.46 0 0 0-2.558-.567q-2.543 0-4.073 1.674t-1.53 4.46q0 2.976 1.608 4.647 1.608 1.67 4.424 1.669a5.33 5.33 0 0 0 3.262-.969 5.57 5.57 0 0 0 1.937-2.821h-6.638v-3.875h11.382v4.875a10.4 10.4 0 0 1-5.497 6.376 10.9 10.9 0 0 1-4.843 1.044 11.44 11.44 0 0 1-5.684-1.398 9.93 9.93 0 0 1-3.889-3.874 12.29 12.29 0 0 1 0-11.362 9.93 9.93 0 0 1 3.875-3.894 11.36 11.36 0 0 1 5.666-1.395q3.863 0 6.51 1.87a8.83 8.83 0 0 1 3.506 5.182zm13.934 10.427h9.25v4.29h-15.193v-3.985l9.19-13.246h-9.19V9.282h15.193v3.986z"/></g><defs><clipPath id="a"><path fill="#fff" d="M0 0h133.314v40H0z"/></clipPath></defs></svg>