<svg xmlns="http://www.w3.org/2000/svg" width="190" height="40" fill="none" viewBox="0 0 190 40"><path fill="#fff" d="M10.485 14.084a3.2 3.2 0 0 1 1.167-4.358 3.164 3.164 0 0 1 4.338 1.162l4.388 7.642a3.2 3.2 0 0 1-1.168 4.359 3.164 3.164 0 0 1-4.338-1.162zm8.722.008a3.21 3.21 0 0 1 1.163-4.366 3.17 3.17 0 0 1 4.342 1.17 3.21 3.21 0 0 1-1.163 4.366 3.17 3.17 0 0 1-4.342-1.17m-17.622.221a3.2 3.2 0 0 1 1.168-4.359 3.164 3.164 0 0 1 4.337 1.162l8.772 15.28a3.2 3.2 0 0 1-1.168 4.359 3.164 3.164 0 0 1-4.337-1.162zm46.985 16.92h-4.762l-5.726-15.882h4.973l3.224 10.005 3.225-10.005h4.792zm21.745-7.926c0 4.943-3.285 8.258-7.956 8.258-4.701 0-7.956-3.315-7.956-8.258s3.255-8.288 7.956-8.288c4.671 0 7.956 3.346 7.956 8.288m-11.12 0c0 2.773 1.235 4.34 3.164 4.34s3.165-1.567 3.165-4.34-1.236-4.34-3.165-4.34-3.164 1.568-3.164 4.34m13.357-9.583v-4.13h4.912v4.13zm4.852 1.627v15.882h-4.822V15.351zm7.042 7.956c0 2.682 1.265 4.28 3.285 4.28 1.567 0 2.5-1.116 2.832-2.622l4.19 1.627c-.663 2.652-3.165 4.973-7.053 4.973-4.701 0-8.016-3.376-8.016-8.258 0-4.912 3.315-8.288 8.016-8.288 3.858 0 6.33 2.29 7.022 4.913l-4.159 1.687c-.331-1.476-1.265-2.622-2.832-2.622-2.02 0-3.285 1.598-3.285 4.31m19.295 8.258c-4.792 0-8.047-3.346-8.047-8.288 0-4.701 3.375-8.258 7.956-8.258 4.822 0 7.444 3.557 7.444 8.047v1.266h-10.759c.332 2.17 1.628 3.405 3.466 3.405 1.507 0 2.682-.723 3.134-2.11l4.039 1.297c-1.176 3.043-4.069 4.64-7.233 4.64m-.151-12.809c-1.477 0-2.622.874-3.104 2.622h5.846c-.03-1.416-.964-2.622-2.742-2.622m18.826 12.809c-1.898 0-3.405-.784-4.309-1.899v6.871h-4.822V15.351h4.822v1.597c.904-1.145 2.411-1.929 4.309-1.929 4.37 0 6.842 3.737 6.842 8.288 0 4.52-2.472 8.258-6.842 8.258m-4.339-8.68v.844c0 2.38 1.296 3.737 3.104 3.737 2.109 0 3.224-1.718 3.224-4.159s-1.115-4.159-3.224-4.159c-1.808 0-3.104 1.326-3.104 3.737m17.975 8.65c-3.194 0-5.485-1.93-5.485-4.732 0-3.285 2.773-4.611 6.118-5.093l3.556-.603v-.271c0-1.175-.633-1.929-2.2-1.929-1.386 0-2.109.603-2.411 1.899l-4.611-.694c.693-2.802 3.195-5.093 7.233-5.093 4.159 0 6.721 1.899 6.721 5.606v6.118c0 .813.301 1.055 1.235.934v3.556c-2.772.452-4.641-.06-5.455-1.416-1.054 1.085-2.621 1.718-4.701 1.718m4.189-5.998v-1.326l-2.772.513c-1.266.21-2.2.632-2.2 1.747 0 .995.753 1.537 1.898 1.537 1.597 0 3.074-.843 3.074-2.47m8.096 5.696V15.351h4.822v1.597c.874-1.024 2.351-1.929 4.37-1.929 3.255 0 5.304 2.26 5.304 5.726v10.488h-4.822v-9.101c0-1.598-.663-2.773-2.23-2.773-1.326 0-2.622.934-2.622 2.803v9.071zm24.742.332c-4.791 0-8.046-3.346-8.046-8.288 0-4.701 3.375-8.258 7.956-8.258 4.822 0 7.444 3.557 7.444 8.047v1.266h-10.759c.331 2.17 1.627 3.405 3.466 3.405 1.507 0 2.682-.723 3.134-2.11l4.038 1.297c-1.175 3.043-4.068 4.64-7.233 4.64m-.15-12.809c-1.477 0-2.622.874-3.104 2.622h5.846c-.03-1.416-.964-2.622-2.742-2.622m14.517-9.161v21.638h-4.822V9.595z"/></svg>