<svg xmlns="http://www.w3.org/2000/svg" width="150" height="29" fill="none" viewBox="0 0 150 29"><g clip-path="url(#a)"><path fill="#fff" d="M13.367 18.571h21.032v9.874h-34.4v-9.874H9.67l13.316-7.136H-.001V1.561h34.4v9.874z"/><path fill="#ddd" d="M22.871 1.561H0v9.874h22.871z"/><path fill="#ccc" d="M34.404 18.57h-20.93v9.875h20.93z"/><path fill="#fff" d="M44.764 25.748v-3.846l6.99-8.026q1.72-1.967 2.547-2.793a49 49 0 0 1-2.265.071l-6.586.035V7.097h15.42v3.5l-7.13 8.22-2.511 2.722q2.055-.123 2.547-.123h7.64v4.338z"/><path fill="#fff" d="m73.377 19.811 4.918.826a8.07 8.07 0 0 1-2.994 4.118 8.8 8.8 0 0 1-5.12 1.414q-4.865 0-7.2-3.179a10.68 10.68 0 0 1-1.844-6.428A10.3 10.3 0 0 1 63.56 9.3a7.98 7.98 0 0 1 6.129-2.626 8.28 8.28 0 0 1 6.569 2.75q2.406 2.748 2.3 8.42H66.193a5 5 0 0 0 1.194 3.416 3.74 3.74 0 0 0 2.845 1.221c.704.023 1.393-.2 1.95-.632a3.9 3.9 0 0 0 1.195-2.038m.28-4.988a4.75 4.75 0 0 0-1.106-3.258 3.4 3.4 0 0 0-2.564-1.115 3.43 3.43 0 0 0-2.67 1.177 4.56 4.56 0 0 0-1.036 3.2zm10.453-2.037-4.478-.808a6.98 6.98 0 0 1 2.6-4 9.5 9.5 0 0 1 5.48-1.3 11.8 11.8 0 0 1 4.918.782 4.9 4.9 0 0 1 2.274 1.985 10.2 10.2 0 0 1 .659 4.417l-.053 5.761a20 20 0 0 0 .237 3.627c.19.867.487 1.707.887 2.5H91.75a18 18 0 0 1-.474-1.458 9 9 0 0 0-.176-.579 8.9 8.9 0 0 1-2.7 1.844 7.75 7.75 0 0 1-3.073.615 6.36 6.36 0 0 1-4.54-1.563 5.2 5.2 0 0 1-1.66-3.952 5.3 5.3 0 0 1 .755-2.819 4.93 4.93 0 0 1 2.117-1.9 16.5 16.5 0 0 1 3.925-1.151 27 27 0 0 0 4.795-1.212v-.492a2.56 2.56 0 0 0-.7-2.029 4.2 4.2 0 0 0-2.652-.606 3.53 3.53 0 0 0-2.055.518 3.6 3.6 0 0 0-1.203 1.82m6.6 4a31 31 0 0 1-3 .755 9 9 0 0 0-2.687.86 2.06 2.06 0 0 0-.966 1.739 2.42 2.42 0 0 0 .773 1.791 2.7 2.7 0 0 0 1.967.755 4.27 4.27 0 0 0 2.547-.878 3.1 3.1 0 0 0 1.177-1.633c.164-.79.228-1.6.193-2.406zm7.348 8.962V0h4.935v9.273a6.98 6.98 0 0 1 5.41-2.6 7.27 7.27 0 0 1 5.638 2.468q2.23 2.468 2.231 7.087 0 4.777-2.274 7.359a7.1 7.1 0 0 1-5.524 2.582 6.8 6.8 0 0 1-3.153-.8 7.5 7.5 0 0 1-2.678-2.362v2.74zm4.9-9.73a7.93 7.93 0 0 0 .913 4.286 3.91 3.91 0 0 0 3.407 1.967 3.49 3.49 0 0 0 2.784-1.4 6.87 6.87 0 0 0 1.15-4.4 7.3 7.3 0 0 0-1.159-4.61 3.67 3.67 0 0 0-2.968-1.414 3.73 3.73 0 0 0-2.951 1.379 6.33 6.33 0 0 0-1.176 4.191zm27.401 9.73v-2.792a7.2 7.2 0 0 1-2.678 2.354 7.5 7.5 0 0 1-3.5.861 6.85 6.85 0 0 1-3.372-.826 4.87 4.87 0 0 1-2.161-2.318 10.3 10.3 0 0 1-.667-4.127V7.1h4.935v8.571a23.8 23.8 0 0 0 .272 4.821 2.63 2.63 0 0 0 .992 1.405 3.05 3.05 0 0 0 1.826.518 3.9 3.9 0 0 0 2.266-.694 3.53 3.53 0 0 0 1.37-1.72c.335-1.656.459-3.347.369-5.033V7.1h4.935v18.652zm12.261 0h-4.935V7.096h4.584v2.652a8 8 0 0 1 2.116-2.476 3.9 3.9 0 0 1 2.134-.6 6.26 6.26 0 0 1 3.249.93l-1.528 4.3a4.34 4.34 0 0 0-2.318-.807 2.74 2.74 0 0 0-1.756.57 3.9 3.9 0 0 0-1.133 2.065 29.3 29.3 0 0 0-.413 6.252z"/></g><defs><clipPath id="a"><path fill="#fff" d="M0 0h149.767v28.445H0z"/></clipPath></defs></svg>