<svg xmlns="http://www.w3.org/2000/svg" width="105" height="27" fill="none" viewBox="0 0 105 27"><g clip-path="url(#a)"><path fill="#fff" d="m40.747 9.343-5.29 6.81h5.479v1.113h-7.18v-.906l5.27-6.855H34.02V8.428h6.726zm9.219 2.832a3.18 3.18 0 0 0-.804-2.062q-.745-.821-2.129-.82a3 3 0 0 0-1.19.236 3.17 3.17 0 0 0-1.625 1.565c-.162.341-.258.71-.283 1.085zm1.302.415v.284q0 .16-.018.32h-7.33c.011.43.1.851.266 1.247.157.38.389.728.68 1.018a3.3 3.3 0 0 0 1.02.69 3.37 3.37 0 0 0 2.995-.207c.443-.268.82-.633 1.104-1.067l.964.755a4.8 4.8 0 0 1-1.748 1.434 4.9 4.9 0 0 1-2.048.436 4.7 4.7 0 0 1-1.823-.35 4.3 4.3 0 0 1-1.445-.973 4.6 4.6 0 0 1-.948-1.47 4.8 4.8 0 0 1-.35-1.846 4.9 4.9 0 0 1 .34-1.852 4.5 4.5 0 0 1 .944-1.473 4.3 4.3 0 0 1 1.42-.972 4.4 4.4 0 0 1 1.756-.35 4.5 4.5 0 0 1 1.834.35 3.8 3.8 0 0 1 1.323.944c.357.404.63.878.802 1.39.184.544.273 1.117.267 1.691zm3.91-4.155q.07.754.075 1.51h.039a2.9 2.9 0 0 1 1.227-1.255 3.6 3.6 0 0 1 1.794-.48q1.68 0 2.523.993.84.994.84 2.643v5.42H60.4V12.38a6.6 6.6 0 0 0-.112-1.266 2.7 2.7 0 0 0-.386-.973 1.85 1.85 0 0 0-.736-.632A2.6 2.6 0 0 0 58 9.283c-.342 0-.68.071-.994.208a2.4 2.4 0 0 0-.858.632c-.27.316-.476.683-.604 1.078a4.7 4.7 0 0 0-.227 1.54v4.531h-1.284v-6.89c0-.239 0-.549-.018-.925-.018-.377-.032-.717-.057-1.02h1.222zm13.565 1.077h-2.077v7.762H65.39V9.512h-1.846V8.435h1.846v-2.41q0-1.512.736-2.38.737-.87 2.271-.87.264 0 .53.03.268.026.526.102l-.226 1.135a8 8 0 0 0-.415-.095 3 3 0 0 0-.472-.039 1.8 1.8 0 0 0-.84.171 1.2 1.2 0 0 0-.512.48 2.2 2.2 0 0 0-.246.73 5.6 5.6 0 0 0-.066.886v2.27h2.077zl.001.002zm8.574 2.663a3.18 3.18 0 0 0-.804-2.067q-.745-.822-2.129-.82a3 3 0 0 0-1.19.236 3.17 3.17 0 0 0-1.625 1.565 3 3 0 0 0-.283 1.085zm1.302.415v.283q0 .16-.018.32h-7.33c.011.43.1.852.264 1.248a3.2 3.2 0 0 0 1.7 1.708 3.37 3.37 0 0 0 2.995-.207c.443-.268.82-.633 1.104-1.067l.964.755a4.8 4.8 0 0 1-1.748 1.434 4.9 4.9 0 0 1-2.048.436 4.7 4.7 0 0 1-1.823-.35 4.3 4.3 0 0 1-1.447-.973 4.6 4.6 0 0 1-.953-1.473 4.8 4.8 0 0 1-.349-1.845 4.9 4.9 0 0 1 .34-1.852 4.35 4.35 0 0 1 2.364-2.445 4.4 4.4 0 0 1 1.757-.35 4.5 4.5 0 0 1 1.833.35c.504.215.955.538 1.324.944.356.404.63.878.802 1.39.185.544.276 1.117.27 1.692zm6.747-3.078h-2.492v5.154q-.01.413.094.812c.048.187.143.36.274.5.118.12.264.204.426.246q.26.068.528.066.283 0 .557-.075.29-.075.556-.208l.057 1.113q-.346.135-.709.2a4.5 4.5 0 0 1-.802.066 3.3 3.3 0 0 1-.757-.095 1.9 1.9 0 0 1-.736-.36 2 2 0 0 1-.555-.716 2.8 2.8 0 0 1-.218-1.19V9.513h-1.833V8.435h1.833V5.943h1.278v2.492h2.492l.009 1.077zm8.368.945a2.46 2.46 0 0 0-.935-.84 2.8 2.8 0 0 0-1.331-.332 3.5 3.5 0 0 0-1.399.274 3.2 3.2 0 0 0-1.067.757c-.301.33-.533.714-.68 1.135a4.1 4.1 0 0 0-.236 1.407c-.005.475.075.95.235 1.396.15.415.376.796.67 1.123a3.1 3.1 0 0 0 1.058.757c.442.187.918.282 1.399.275a2.83 2.83 0 0 0 2.398-1.153l.964.718a4.2 4.2 0 0 1-1.39 1.113 4.3 4.3 0 0 1-1.972.415 5.2 5.2 0 0 1-1.945-.35 4.3 4.3 0 0 1-1.484-.973 4.4 4.4 0 0 1-.954-1.473 5.2 5.2 0 0 1 0-3.702c.217-.55.54-1.05.954-1.473a4.3 4.3 0 0 1 1.484-.972c.62-.24 1.28-.358 1.945-.35a4.6 4.6 0 0 1 1.805.387c.588.24 1.099.636 1.482 1.143l-1.001.714zm4.439-.567c.251-.53.668-.96 1.19-1.228a3.64 3.64 0 0 1 1.776-.452q1.681 0 2.523.993.84.995.841 2.643v5.42h-1.277V12.38a6.5 6.5 0 0 0-.114-1.267 2.7 2.7 0 0 0-.387-.972 1.8 1.8 0 0 0-.736-.632 2.6 2.6 0 0 0-1.161-.226 2.46 2.46 0 0 0-1.846.84 3.2 3.2 0 0 0-.604 1.078 4.7 4.7 0 0 0-.226 1.538v4.533h-1.285V2.997h1.285V9.89h.025zM10.43 12.777 0 6.843 10.43.448l10.985 6.395z"/><path fill="#cbcbcb" d="M12.87 26.114.871 19.286 10.43.448l11.684 6.764z"/><path fill="#fff" d="M12.87 26.114.871 19.287l12-7.356 12.638 7.357-12.639 6.828z"/></g><defs><clipPath id="a"><path fill="#fff" d="M0 0h105v27H0z"/></clipPath></defs></svg>